<svg width="350" height="100" viewBox="0 0 350 100" fill="none" xmlns="http://www.w3.org/2000/svg">
<path d="M157.722 43.0811V43.0335C157.722 38.4201 161.199 34.6411 166.183 34.6411C168.616 34.6411 170.263 35.2908 171.607 36.2878C171.978 36.5647 172.303 37.0755 172.303 37.6996C172.303 38.675 171.515 39.4401 170.542 39.4401C170.054 39.4401 169.729 39.255 169.475 39.0914C168.48 38.3504 167.434 37.9339 166.159 37.9339C163.423 37.9339 161.454 40.2047 161.454 42.9863V43.033C161.454 45.814 163.378 48.134 166.159 48.134C167.667 48.134 168.665 47.6689 169.683 46.8586C169.962 46.6268 170.334 46.4652 170.75 46.4652C171.655 46.4652 172.419 47.2068 172.419 48.1104C172.419 48.6668 172.139 49.1073 171.817 49.3858C170.356 50.6607 168.64 51.4238 166.042 51.4238C161.268 51.4248 157.722 47.7411 157.722 43.0811Z" fill="#B75C16"/>
<path d="M174.649 48.8537L180.304 36.0783C180.698 35.1963 181.417 34.6639 182.39 34.6639H182.598C183.574 34.6639 184.27 35.1968 184.664 36.0783L190.319 48.8537C190.436 49.1066 190.505 49.3389 190.505 49.5697C190.505 50.5214 189.763 51.2881 188.811 51.2881C187.98 51.2881 187.42 50.7999 187.097 50.0568L186.008 47.5061H178.866L177.73 50.1737C177.43 50.8706 176.826 51.2881 176.084 51.2881C175.156 51.2881 174.438 50.5455 174.438 49.6178C174.439 49.361 174.532 49.1066 174.649 48.8537ZM184.687 44.3542L182.439 38.9998L180.19 44.3542H184.687Z" fill="#B75C16"/>
<path d="M192.868 49.4313C192.474 49.1519 192.195 48.6441 192.195 48.0847C192.195 47.161 192.937 46.4405 193.865 46.4405C194.329 46.4405 194.651 46.6011 194.886 46.7647C196.112 47.6688 197.457 48.2262 199.034 48.2262C200.495 48.2262 201.377 47.6457 201.377 46.6954V46.6498C201.377 45.7447 200.821 45.2806 198.108 44.5857C194.837 43.7513 192.729 42.8467 192.729 39.6256V39.579C192.729 36.6343 195.094 34.6866 198.409 34.6866C200.378 34.6866 202.095 35.1974 203.554 36.1236C203.95 36.3559 204.344 36.8421 204.344 37.5389C204.344 38.4661 203.603 39.1831 202.675 39.1831C202.327 39.1831 202.048 39.0913 201.77 38.9287C200.587 38.2318 199.474 37.839 198.36 37.839C196.993 37.839 196.275 38.4656 196.275 39.2533V39.3C196.275 40.3652 196.972 40.7144 199.777 41.4328C203.068 42.2888 204.923 43.4723 204.923 46.3006V46.3472C204.923 49.5688 202.467 51.3775 198.965 51.3775C196.833 51.3785 194.677 50.7308 192.868 49.4313Z" fill="#B75C16"/>
<path d="M207.012 48.8537L212.668 36.0783C213.062 35.1963 213.781 34.6639 214.755 34.6639H214.963C215.939 34.6639 216.635 35.1968 217.027 36.0783L222.683 48.8537C222.8 49.1066 222.87 49.3389 222.87 49.5697C222.87 50.5214 222.127 51.2881 221.175 51.2881C220.343 51.2881 219.785 50.7999 219.461 50.0568L218.372 47.5061H211.231L210.095 50.1737C209.795 50.8706 209.19 51.2881 208.448 51.2881C207.521 51.2881 206.803 50.5455 206.803 49.6178C206.803 49.361 206.896 49.1066 207.012 48.8537ZM217.052 44.3542L214.803 38.9998L212.554 44.3542H217.052Z" fill="#B75C16"/>
<path d="M232.541 36.7037C232.541 35.7073 233.332 34.9191 234.328 34.9191H238.872C243.97 34.9191 247.495 38.4181 247.495 42.9853V43.0309C247.495 47.5991 243.97 51.1458 238.872 51.1458H234.328C233.332 51.1458 232.541 50.3581 232.541 49.3597V36.7037ZM238.872 47.9243C241.79 47.9243 243.762 45.953 243.762 43.0786V43.0309C243.762 40.1581 241.79 38.1406 238.872 38.1406H236.113V47.9243H238.872Z" fill="#DDA527"/>
<path d="M250.834 36.566C250.834 35.5706 251.624 34.7823 252.62 34.7823C253.616 34.7823 254.406 35.5701 254.406 36.566V49.5019C254.406 50.5009 253.616 51.2881 252.62 51.2881C251.624 51.2881 250.834 50.5014 250.834 49.5019V36.566Z" fill="#DDA527"/>
<path d="M257.744 43.0811V43.0335C257.744 38.4201 261.336 34.6411 266.252 34.6411C268.708 34.6411 270.332 35.198 271.791 36.2165C272.138 36.4734 272.532 36.9586 272.532 37.6545C272.532 38.6298 271.745 39.418 270.771 39.418C270.261 39.418 269.936 39.2329 269.683 39.0468C268.709 38.3509 267.664 37.9344 266.135 37.9344C263.538 37.9344 261.476 40.2278 261.476 42.9868V43.0335C261.476 46.0007 263.516 48.1801 266.388 48.1801C267.688 48.1801 268.849 47.856 269.751 47.2073V44.8888H267.339C266.483 44.8888 265.787 44.2175 265.787 43.3586C265.787 42.4991 266.483 41.8057 267.339 41.8057H271.421C272.418 41.8057 273.207 42.5929 273.207 43.5894V47.5319C273.207 48.5735 272.812 49.294 271.952 49.8037C270.632 50.614 268.709 51.4243 266.275 51.4243C261.22 51.4248 257.744 47.8781 257.744 43.0811Z" fill="#DDA527"/>
<path d="M276.641 36.6141C276.641 35.6167 277.431 34.8285 278.427 34.8285H278.797C279.656 34.8285 280.166 35.2449 280.652 35.8721L287.537 44.9122V36.5429C287.537 35.5701 288.328 34.7823 289.3 34.7823C290.273 34.7823 291.061 35.5696 291.061 36.5429V49.4568C291.061 50.4512 290.273 51.2419 289.277 51.2419H289.16C288.302 51.2419 287.794 50.8235 287.306 50.1988L280.167 40.8316V49.526C280.167 50.5009 279.377 51.2881 278.404 51.2881C277.431 51.2881 276.641 50.5014 276.641 49.526V36.6141Z" fill="#DDA527"/>
<path d="M294.053 48.8537L299.708 36.0783C300.103 35.1963 300.823 34.6639 301.795 34.6639H302.007C302.979 34.6639 303.673 35.1968 304.068 36.0783L309.723 48.8537C309.841 49.1066 309.91 49.3389 309.91 49.5697C309.91 50.5214 309.167 51.2881 308.217 51.2881C307.381 51.2881 306.827 50.7999 306.502 50.0568L305.413 47.5061H298.271L297.135 50.1737C296.835 50.8706 296.231 51.2881 295.488 51.2881C294.561 51.2881 293.845 50.5455 293.845 49.6178C293.845 49.361 293.936 49.1066 294.053 48.8537ZM304.091 44.3542L301.843 38.9998L299.593 44.3542H304.091Z" fill="#DDA527"/>
<path d="M164.472 70.8166L159.211 58.2279C159.094 57.9494 159 57.6715 159 57.3694C159 56.375 159.79 55.6094 160.786 55.6094C161.714 55.6094 162.316 56.1417 162.595 56.8597L166.652 67.3618L170.755 56.7443C170.987 56.1643 171.612 55.6094 172.471 55.6094C173.444 55.6094 174.232 56.3504 174.232 57.3223C174.232 57.6027 174.14 57.9033 174.049 58.111L168.739 70.8166C168.368 71.6987 167.694 72.2305 166.722 72.2305H166.491C165.517 72.231 164.843 71.6987 164.472 70.8166Z" fill="#DDA527"/>
<path d="M179.31 57.393C179.31 56.3966 180.1 55.6094 181.096 55.6094C182.092 55.6094 182.881 56.3961 182.881 57.393V70.329C182.881 71.3274 182.092 72.1146 181.096 72.1146C180.1 72.1146 179.31 71.3279 179.31 70.329V57.393Z" fill="#DDA527"/>
<path d="M189.12 57.5261C189.12 56.5287 189.909 55.7415 190.906 55.7415H195.451C200.549 55.7415 204.073 59.241 204.073 63.8082V63.8553C204.073 68.4235 200.55 71.9692 195.451 71.9692H190.906C189.909 71.9692 189.12 71.1815 189.12 70.1826V57.5261ZM195.45 68.7472C198.368 68.7472 200.341 66.7764 200.341 63.9015V63.8553C200.341 60.9805 198.368 58.9645 195.45 58.9645H192.691V68.7472H195.45Z" fill="#DDA527"/>
<path d="M207.828 69.6811L213.484 56.9057C213.877 56.0237 214.598 55.4908 215.57 55.4908H215.778C216.754 55.4908 217.45 56.0237 217.844 56.9057L223.499 69.6811C223.615 69.934 223.685 70.1653 223.685 70.3966C223.685 71.3488 222.943 72.1135 221.992 72.1135C221.16 72.1135 220.6 71.6263 220.278 70.8848L219.188 68.334H212.046L210.909 71.0011C210.609 71.697 210.006 72.1135 209.264 72.1135C208.337 72.1135 207.619 71.3724 207.619 70.4457C207.62 70.1874 207.712 69.934 207.828 69.6811ZM217.867 65.1801L215.618 59.8257L213.371 65.1801H217.867Z" fill="#DDA527"/>
<path d="M232.541 57.5261C232.541 56.5287 233.332 55.7415 234.328 55.7415H238.872C243.97 55.7415 247.495 59.241 247.495 63.8082V63.8553C247.495 68.4235 243.97 71.9692 238.872 71.9692H234.328C233.332 71.9692 232.541 71.1815 232.541 70.1826V57.5261ZM238.872 68.7472C241.79 68.7472 243.762 66.7764 243.762 63.9015V63.8553C243.762 60.9805 241.79 58.9645 238.872 58.9645H236.113V68.7472H238.872Z" fill="#B75C16"/>
<path d="M250.834 57.393C250.834 56.3966 251.624 55.6094 252.62 55.6094C253.616 55.6094 254.406 56.3961 254.406 57.393V70.329C254.406 71.3274 253.616 72.1146 252.62 72.1146C251.624 72.1146 250.834 71.3279 250.834 70.329V57.393Z" fill="#B75C16"/>
<path d="M257.744 63.9085V63.8614C257.744 59.248 261.336 55.468 266.252 55.468C268.708 55.468 270.332 56.0254 271.791 57.0439C272.138 57.3018 272.532 57.7865 272.532 58.4814C272.532 59.4582 271.745 60.2454 270.771 60.2454C270.261 60.2454 269.936 60.0593 269.683 59.8742C268.709 59.1793 267.664 58.7618 266.135 58.7618C263.538 58.7618 261.476 61.0567 261.476 63.8142V63.8614C261.476 66.8286 263.516 69.0081 266.388 69.0081C267.688 69.0081 268.849 68.6829 269.751 68.0352V65.7157H267.339C266.483 65.7157 265.787 65.0454 265.787 64.187C265.787 63.3265 266.483 62.6336 267.339 62.6336H271.421C272.418 62.6336 273.207 63.4214 273.207 64.4173V68.3593C273.207 69.4009 272.812 70.1214 271.952 70.6316C270.632 71.4419 268.709 72.2517 266.275 72.2517C261.22 72.2517 257.744 68.705 257.744 63.9085Z" fill="#B75C16"/>
<path d="M276.641 57.438C276.641 56.4386 277.431 55.6514 278.427 55.6514H278.797C279.656 55.6514 280.166 56.0678 280.652 56.695L287.537 65.7361V57.3668C287.537 56.3929 288.328 55.6047 289.3 55.6047C290.273 55.6047 291.061 56.3924 291.061 57.3668V70.2812C291.061 71.2746 290.273 72.0658 289.277 72.0658H289.16C288.302 72.0658 287.794 71.6474 287.306 71.0222L280.167 61.656V70.3499C280.167 71.3248 279.377 72.112 278.404 72.112C277.431 72.112 276.641 71.3253 276.641 70.3499V57.438Z" fill="#B75C16"/>
<path d="M294.053 69.6811L299.708 56.9057C300.103 56.0237 300.823 55.4908 301.795 55.4908H302.007C302.979 55.4908 303.673 56.0237 304.068 56.9057L309.723 69.6811C309.841 69.934 309.91 70.1653 309.91 70.3966C309.91 71.3488 309.167 72.1135 308.217 72.1135C307.381 72.1135 306.827 71.6263 306.502 70.8848L305.413 68.334H298.271L297.135 71.0011C296.835 71.697 296.231 72.1135 295.488 72.1135C294.561 72.1135 293.845 71.3724 293.845 70.4457C293.845 70.1874 293.936 69.934 294.053 69.6811ZM304.091 65.1801L301.843 59.8257L299.593 65.1801H304.091Z" fill="#B75C16"/>
<path d="M91.3731 62.8502C93.4929 62.8502 95.2148 61.1263 95.2148 59.008C95.2148 56.8903 93.4924 55.1678 91.3731 55.1678C89.2548 55.1678 87.5309 56.8908 87.5309 59.008C87.5309 61.1268 89.2548 62.8502 91.3731 62.8502Z" fill="#DDA527"/>
<path d="M96.849 62.2272C96.2991 61.6743 95.407 61.6743 94.8566 62.2272L91.3737 65.7096L88.2354 62.5709C87.684 62.018 86.7934 62.018 86.2415 62.5709C85.6911 63.1217 85.6911 64.0123 86.2415 64.5632L89.9648 68.287V73.0308C89.9648 73.81 90.596 74.4401 91.3737 74.4401C92.1518 74.4401 92.783 73.81 92.783 73.0308V68.287L96.849 64.2185C97.4004 63.6696 97.4004 62.7761 96.849 62.2272Z" fill="#DDA527"/>
<path d="M102.59 55.1662C104.709 55.1662 106.432 53.4432 106.432 51.325C106.432 49.2067 104.708 47.4843 102.59 47.4843C100.472 47.4843 98.7488 49.2072 98.7488 51.325C98.7488 53.4432 100.472 55.1662 102.59 55.1662Z" fill="#DDA527"/>
<path d="M107.891 55.0858C107.342 54.5329 106.45 54.5329 105.899 55.0858L102.415 58.5673L99.2787 55.4295C98.7253 54.8766 97.8347 54.8786 97.2853 55.4285C96.7334 55.9794 96.7334 56.872 97.2828 57.4218L101.179 61.3182V73.0325C101.179 73.8107 101.81 74.4408 102.588 74.4408C103.367 74.4408 103.997 73.8107 103.997 73.0325V60.9715L107.892 57.0782C108.443 56.5283 108.443 55.6352 107.891 55.0858Z" fill="#DDA527"/>
<path d="M80.5006 55.1662C82.6194 55.1662 84.3423 53.4432 84.3423 51.325C84.3423 49.2067 82.6189 47.4843 80.5006 47.4843C78.3823 47.4843 76.6594 49.2072 76.6594 51.325C76.6594 53.4432 78.3818 55.1662 80.5006 55.1662Z" fill="#DDA527"/>
<path d="M85.8059 55.0858C85.254 54.5329 84.3635 54.5329 83.8121 55.0858L80.3286 58.5673L77.1903 55.4295C76.6389 54.8766 75.7484 54.8766 75.1965 55.4295C74.6466 55.9794 74.6466 56.872 75.1965 57.4218L79.0924 61.3182V73.0325C79.0924 73.8107 79.723 74.4408 80.5012 74.4408C81.2789 74.4408 81.9111 73.8107 81.9111 73.0325V60.9731L85.8064 57.0777C86.3563 56.5283 86.3563 55.6352 85.8059 55.0858Z" fill="#DDA527"/>
<path d="M113.296 75.6601C113.562 75.4022 113.728 75.042 113.728 74.6441V48.0091C113.728 47.5686 113.522 47.1531 113.172 46.8872L92.3992 31.123C91.896 30.7407 91.1976 30.7407 90.6949 31.123L69.924 46.8872C69.5728 47.1531 69.3666 47.5686 69.3666 48.0091V74.6436C69.3666 75.4208 69.9972 76.052 70.7764 76.052M72.1843 76.052V48.71L91.5468 34.0155L110.91 48.71V75.6491" fill="#B75C16"/>
<path d="M110.864 31.0526C110.517 31.0526 110.168 30.9197 109.903 30.6542C109.371 30.1224 109.371 29.2625 109.903 28.7306L115.994 22.6397C116.525 22.1084 117.385 22.1084 117.916 22.6397C118.448 23.171 118.448 24.0315 117.916 24.5628L111.825 30.6542C111.56 30.9202 111.212 31.0526 110.864 31.0526Z" fill="#DDA527"/>
<path d="M72.5958 31.0526C72.2481 31.0526 71.8994 30.9197 71.634 30.6542L65.543 24.5628C65.0112 24.0315 65.0112 23.171 65.543 22.6397C66.0749 22.1084 66.9348 22.1084 67.4656 22.6397L73.5566 28.7306C74.0889 29.2625 74.0889 30.1224 73.5566 30.6542C73.2917 30.9202 72.9435 31.0526 72.5958 31.0526Z" fill="#DDA527"/>
<path d="M91.7645 26.3336C91.0129 26.3336 90.4043 25.7255 90.4043 24.9734V16.3593C90.4043 15.6077 91.0129 14.9996 91.7645 14.9996C92.5156 14.9996 93.1246 15.6077 93.1246 16.3593V24.9734C93.1246 25.7255 92.5156 26.3336 91.7645 26.3336Z" fill="#DDA527"/>
<path d="M129.925 50.4587H121.312C120.561 50.4587 119.952 49.8511 119.952 49.0986C119.952 48.3475 120.561 47.7394 121.312 47.7394H129.925C130.677 47.7394 131.286 48.3475 131.286 49.0986C131.286 49.8511 130.677 50.4587 129.925 50.4587Z" fill="#DDA527"/>
<path d="M63.6368 50.4587H55.0222C54.2706 50.4587 53.662 49.8511 53.662 49.0986C53.662 48.3475 54.2706 47.7394 55.0222 47.7394H63.6368C64.3884 47.7394 64.9969 48.3475 64.9969 49.0986C64.9964 49.8511 64.3884 50.4587 63.6368 50.4587Z" fill="#DDA527"/>
<path d="M141.873 85.0007C141.714 85.0007 141.549 84.9731 141.391 84.9124C125.388 78.8681 108.522 75.8031 91.2628 75.8031C74.2919 75.8031 57.6924 78.7693 41.9232 84.6184C41.2208 84.8808 40.4371 84.5196 40.1757 83.8157C39.9143 83.1112 40.2735 82.329 40.9779 82.0666C57.0502 76.1047 73.9683 73.0828 91.2633 73.0828C108.852 73.0828 126.041 76.207 142.354 82.3677C143.056 82.6341 143.41 83.4193 143.145 84.1217C142.939 84.6666 142.422 85.0007 141.873 85.0007Z" fill="#DDA527"/>
</svg>
