<svg width="83" height="30" viewBox="0 0 83 30" fill="none" xmlns="http://www.w3.org/2000/svg">
<path d="M8.8388 12.3839C8.09063 12.6895 7.27334 12.8589 6.41546 12.8589C5.86804 12.8589 5.33598 12.7896 4.82806 12.661C4.52747 13.6878 4.36511 14.7752 4.36511 15.8999C4.36511 20.1931 6.71824 23.9345 10.2024 25.9013C8.33198 23.8982 7.18668 21.2068 7.18668 18.2471C7.18668 16.0978 7.79114 14.0891 8.83771 12.3839M15.8115 4.42847C14.7112 4.42847 13.6482 4.58349 12.6411 4.87374C12.7651 5.37178 12.8298 5.8929 12.8298 6.42832C12.8298 7.25729 12.6729 8.04887 12.3888 8.77669C14.1177 7.67837 16.1681 7.0418 18.3665 7.0418C20.9687 7.0418 23.3635 7.93233 25.2635 9.42645C23.2011 6.40743 19.7378 4.42627 15.8115 4.42627" fill="url(#paint0_linear_3229_19024)"/>
<path d="M6.41544 0C2.87203 0 0 2.87829 0 6.42943C0 9.43086 2.05254 11.9529 4.82803 12.661C5.92726 8.90974 8.88924 5.95668 12.6411 4.87485C11.9478 2.07461 9.4235 0 6.41544 0Z" fill="url(#paint1_linear_3229_19024)"/>
<path d="M12.6422 4.87366C8.89031 5.95549 5.92833 8.90855 4.8291 12.6598C5.33703 12.7895 5.86799 12.8577 6.41651 12.8577C7.27438 12.8577 8.09167 12.6895 8.83985 12.3827C9.73393 10.926 10.9505 9.69134 12.3909 8.77552C12.6762 8.0477 12.8319 7.25611 12.8319 6.42714C12.8319 5.89063 12.7661 5.3695 12.6433 4.87256" fill="url(#paint2_linear_3229_19024)"/>
<path d="M25.7616 9.21777C27.0671 11.1297 27.8317 13.4429 27.8317 15.9342C27.8317 22.5098 22.5133 27.8398 15.9519 27.8398C13.8369 27.8398 11.8501 27.2857 10.13 26.3149C12.2473 28.583 15.2608 30.0002 18.6035 30.0002C25.0123 30.0002 30.2068 24.7944 30.2068 18.3716C30.2068 14.6555 28.468 11.3474 25.7616 9.21887" fill="url(#paint3_linear_3229_19024)"/>
<path d="M18.3676 7.04297C16.1691 7.04297 14.1188 7.67954 12.3899 8.77786C11.7492 10.4127 10.4602 11.721 8.83878 12.3851C7.79221 14.0903 7.18774 16.0989 7.18774 18.2483C7.18774 21.208 8.33305 23.8993 10.2035 25.9025C11.8611 26.8381 13.7754 27.3724 15.8126 27.3724C22.1348 27.3724 27.259 22.237 27.259 15.901C27.259 13.4999 26.5229 11.2714 25.2646 9.42982C23.3646 7.9357 20.9697 7.04517 18.3676 7.04517" fill="url(#paint4_linear_3229_19024)"/>
<path d="M17.343 10.3511C16.9305 10.5545 16.5378 10.7645 16.1582 10.9931C15.7797 11.2218 15.4177 11.467 15.0765 11.7385C14.7364 12.0101 14.4161 12.3059 14.1232 12.6313C13.8259 12.9545 13.5659 13.3129 13.3015 13.6922C13.3465 13.4657 13.4134 13.2415 13.5067 13.0282C13.5505 12.9193 13.6054 12.8171 13.658 12.7126C13.6855 12.661 13.7162 12.6115 13.7458 12.5609C13.7754 12.5103 13.8051 12.4598 13.8391 12.4125C14.098 12.0211 14.4249 11.6737 14.7924 11.3823C15.1599 11.091 15.568 10.8535 15.9969 10.6743C16.2119 10.5853 16.4324 10.5116 16.6562 10.4555C16.7681 10.4269 16.8822 10.4038 16.9963 10.3852C17.1104 10.3665 17.2256 10.3533 17.3419 10.3511H17.343Z" fill="white"/>
<path d="M17.1664 11.7432C17.0424 12.1686 16.9239 12.582 16.8504 12.9943C16.8142 13.1999 16.789 13.4033 16.7868 13.6012C16.7846 13.798 16.8065 13.9893 16.868 14.1553C16.8976 14.2389 16.9371 14.3147 16.9876 14.384C17.0358 14.4543 17.0973 14.5148 17.1664 14.5698C17.3046 14.6797 17.4823 14.7578 17.6743 14.8128C17.8674 14.8677 18.0736 14.9029 18.2843 14.9271C18.496 14.9524 18.7132 14.9645 18.9348 14.9843C18.7264 15.0634 18.5113 15.1173 18.2886 15.1514C18.067 15.1844 17.8378 15.1921 17.6041 15.1646C17.3715 15.136 17.1313 15.0645 16.9152 14.9216C16.8076 14.8501 16.71 14.7589 16.6288 14.6555C16.5487 14.5511 16.4851 14.4335 16.4412 14.3125C16.3535 14.0684 16.3381 13.8178 16.3579 13.5814C16.3776 13.345 16.4325 13.1185 16.5071 12.9042C16.5817 12.6898 16.676 12.4853 16.7857 12.2907C16.8965 12.0972 17.0194 11.9114 17.1675 11.7443L17.1664 11.7432Z" fill="white"/>
<path d="M19.3385 15.3381C19.6204 15.2117 19.9122 15.1117 20.2095 15.027C20.5079 14.9446 20.8118 14.8764 21.131 14.8489C21.2923 14.8368 21.4558 14.8313 21.6379 14.8687C21.7289 14.8896 21.8309 14.9182 21.933 15.0039C21.9834 15.0468 22.0306 15.1095 22.0569 15.1809C22.0833 15.2513 22.0898 15.325 22.0844 15.3865C22.0734 15.5119 22.0306 15.6031 21.9889 15.6867L21.9352 15.7878C21.9176 15.8197 21.9023 15.8527 21.8847 15.8857C21.8189 16.0165 21.7564 16.1495 21.6993 16.2848C21.4722 16.8246 21.3 17.393 21.2737 17.968C21.2594 18.2549 21.2879 18.543 21.3735 18.82C21.4569 19.0982 21.6104 19.3565 21.8112 19.5918C21.5468 19.4335 21.3175 19.196 21.1672 18.908C21.0148 18.6221 20.9358 18.2967 20.9149 17.9746C20.8919 17.6502 20.9259 17.3281 20.9906 17.0148C21.0564 16.7014 21.1563 16.3991 21.2802 16.1066C21.3439 15.9615 21.4119 15.8186 21.4865 15.679C21.5062 15.6438 21.5238 15.6097 21.5446 15.5745L21.6017 15.4756C21.6313 15.425 21.651 15.3733 21.6554 15.3458C21.6587 15.3316 21.6565 15.3283 21.6576 15.3261C21.6576 15.3261 21.6598 15.3239 21.6543 15.3162C21.6412 15.3008 21.5962 15.2744 21.5402 15.2579C21.425 15.2249 21.2813 15.2106 21.1387 15.2062C20.8491 15.1974 20.5485 15.2205 20.2468 15.2458C19.9452 15.2722 19.6424 15.3063 19.3352 15.3381H19.3385Z" fill="white"/>
<path d="M19.843 19.4894C19.8277 19.8291 19.8167 20.1655 19.8101 20.502C19.8101 20.5855 19.809 20.6702 19.8101 20.7537C19.8101 20.8373 19.809 20.9208 19.8101 21.0044C19.8123 21.1715 19.8178 21.3386 19.8244 21.5046C19.831 21.6706 19.8441 21.8367 19.8595 22.0016C19.8738 22.1665 19.8935 22.3303 19.9209 22.4919C19.9747 22.8162 20.0526 23.134 20.1743 23.4297L20.2489 23.6122L20.0592 23.6287C19.9791 23.6364 19.8946 23.6463 19.8123 23.6584C19.73 23.6705 19.6478 23.6859 19.5666 23.7035C19.4854 23.7211 19.4064 23.742 19.3307 23.7661C19.2561 23.7903 19.1826 23.8211 19.1322 23.8574L18.8634 24.052L18.9457 23.7376C18.9709 23.6408 18.9917 23.532 19.0071 23.4275C19.0225 23.322 19.0345 23.2164 19.0433 23.1098C19.0587 22.8965 19.0543 22.6832 19.0225 22.4732C18.9917 22.2632 18.9259 22.0587 18.8162 21.8762C18.7076 21.6937 18.5453 21.542 18.3522 21.4365C18.4553 21.4738 18.554 21.5266 18.6451 21.5926C18.735 21.6585 18.8162 21.7388 18.8853 21.829C19.0247 22.0093 19.1124 22.2247 19.1673 22.4446C19.221 22.6656 19.2408 22.8921 19.2408 23.1175C19.2408 23.2307 19.2353 23.3429 19.2243 23.455C19.2122 23.5682 19.1991 23.6771 19.1749 23.7936L18.9885 23.6738C19.074 23.6034 19.1607 23.5649 19.2474 23.5298C19.334 23.4946 19.4207 23.4704 19.5073 23.4473C19.594 23.4242 19.6807 23.4055 19.7684 23.389C19.8562 23.3726 19.9418 23.3583 20.0328 23.3462L19.9176 23.5463C19.7684 23.2241 19.6785 22.8811 19.628 22.5392C19.6017 22.3677 19.5852 22.1962 19.5721 22.0236C19.56 21.852 19.56 21.6794 19.56 21.509C19.56 21.3375 19.5699 21.1671 19.583 20.9967C19.5896 20.912 19.5973 20.8263 19.6061 20.7416C19.616 20.657 19.6269 20.5723 19.6379 20.4877C19.6851 20.1501 19.7487 19.8148 19.8441 19.4883L19.843 19.4894Z" fill="white"/>
<path d="M16.5663 21.3598C16.4906 21.296 16.4105 21.2378 16.3293 21.1839C16.2481 21.1289 16.167 21.0761 16.0814 21.0289C15.9991 20.9783 15.9136 20.9332 15.8291 20.8881C15.7446 20.842 15.6536 20.8079 15.5713 20.7628C15.4846 20.7221 15.3969 20.6858 15.3102 20.6474C15.2224 20.6111 15.1314 20.5814 15.0436 20.5462L14.9778 20.5198C14.9558 20.5121 14.9328 20.5044 14.9098 20.4978L14.7748 20.4539L14.641 20.4077C14.596 20.3934 14.5499 20.3813 14.505 20.3681C14.4139 20.3428 14.324 20.3142 14.234 20.289C14.1418 20.267 14.0497 20.2461 13.9586 20.2219L13.8215 20.1867L13.6822 20.1592C13.5889 20.1416 13.4968 20.1196 13.4046 20.101C13.3125 20.0801 13.2171 20.0702 13.1238 20.0537L12.843 20.0042C12.6532 19.9822 12.4645 19.9547 12.2758 19.9283L11.385 19.8063L12.0597 19.2104L12.0871 19.1862L12.1233 19.1521C12.1485 19.1291 12.1727 19.1049 12.1979 19.0785C12.2473 19.0279 12.2955 18.974 12.3405 18.918C12.4327 18.8058 12.5193 18.6882 12.595 18.564C12.6718 18.4397 12.7431 18.3111 12.8024 18.177C12.866 18.0439 12.9121 17.9032 12.956 17.7603C12.9976 17.6174 13.0306 17.4689 13.0536 17.3183C13.0668 17.2424 13.0722 17.1666 13.0799 17.0885C13.0832 17.05 13.0832 17.0116 13.0854 16.972C13.0887 16.9324 13.0909 16.8939 13.0909 16.8544L13.0931 16.7356C13.0931 16.696 13.0909 16.6565 13.0887 16.6158C13.0865 16.5355 13.0799 16.4553 13.0744 16.3739C13.07 16.2925 13.0558 16.2123 13.0492 16.1287C13.0404 16.0463 13.0251 15.9649 13.0163 15.8803L13.0591 15.8638C13.1841 16.1716 13.2741 16.4948 13.3202 16.8258C13.3333 16.9082 13.3377 16.9918 13.3443 17.0753C13.3465 17.1589 13.352 17.2424 13.3476 17.326C13.3454 17.4931 13.3279 17.6602 13.2971 17.8251C13.2379 18.155 13.1216 18.4738 12.9614 18.7674C12.8814 18.9136 12.7903 19.0554 12.6883 19.1873C12.5852 19.3204 12.4766 19.4457 12.3471 19.5589L12.3241 19.4809C12.5215 19.5062 12.719 19.5293 12.9154 19.5567C13.1106 19.5952 13.307 19.6271 13.5012 19.6711L13.7908 19.7425L13.9356 19.7788L14.0782 19.8228L14.3634 19.9108L14.6432 20.0152C15.014 20.1592 15.376 20.3318 15.7117 20.5462C15.794 20.6023 15.8784 20.6562 15.9574 20.7166C16.0364 20.7782 16.1165 20.8365 16.1911 20.9035C16.3425 21.0344 16.4851 21.1729 16.6058 21.3378L16.5685 21.3631L16.5663 21.3598Z" fill="white"/>
<path d="M36.0013 19.2431C35.885 19.3564 35.6952 19.4696 35.3398 19.4696C35.2718 19.4696 34.9865 19.4663 34.7671 19.3234C34.7024 19.2816 34.6421 19.2256 34.5982 19.1662C34.4731 18.9991 34.4589 18.8089 34.4523 18.744L34.7518 18.7055C34.7551 18.7682 34.7605 18.943 34.8944 19.0837C34.969 19.1607 35.1083 19.2508 35.354 19.2508C35.3836 19.2508 35.4637 19.2508 35.5471 19.2267C35.636 19.2025 35.8762 19.12 35.8762 18.8309C35.8762 18.6912 35.817 18.6319 35.7698 18.5934C35.6864 18.5285 35.5767 18.5043 35.4791 18.4834L35.2981 18.445C35.1467 18.412 34.9778 18.3768 34.8384 18.2987C34.5861 18.1624 34.5532 17.9711 34.5532 17.8469C34.5532 17.6798 34.6278 17.5401 34.7518 17.4368C34.9657 17.2587 35.2268 17.2642 35.3123 17.2642C35.5142 17.2642 35.7095 17.2972 35.8729 17.4214C35.9706 17.4962 36.0188 17.5676 36.0419 17.6083C36.0978 17.7039 36.122 17.8018 36.1395 17.9084L35.8576 17.926C35.8543 17.8843 35.8488 17.8425 35.8367 17.8007C35.795 17.6523 35.6612 17.4797 35.3178 17.4797C35.184 17.4797 35.003 17.5093 34.9108 17.6193C34.8659 17.6699 34.8395 17.7413 34.8395 17.8095C34.8395 17.8392 34.845 17.9051 34.89 17.9645C34.9701 18.0745 35.1335 18.1074 35.2553 18.1371L35.4868 18.1932C35.5405 18.2053 35.5965 18.2196 35.6502 18.235C35.715 18.2504 35.9706 18.3064 36.0978 18.5208C36.1274 18.5714 36.1746 18.6637 36.1746 18.8122C36.1746 18.8957 36.1625 19.0826 35.9991 19.2431H36.0013Z" fill="#333333"/>
<path d="M36.6748 17.5887V17.3149H36.903V17.5887H36.6748ZM36.6748 19.4148V18.0142H36.903V19.4148H36.6748Z" fill="#333333"/>
<path d="M38.5004 19.228C38.4291 19.3379 38.2689 19.4599 37.9716 19.4599C37.9299 19.4599 37.7105 19.4566 37.5558 19.3588C37.5317 19.3434 37.4966 19.3203 37.4549 19.2697C37.354 19.1477 37.3364 19.0169 37.3276 18.963L37.5975 18.9245C37.5975 19.0169 37.6063 19.0971 37.6743 19.1719C37.7577 19.2642 37.8707 19.2785 37.9859 19.2785C38.0155 19.2785 38.1548 19.2818 38.2469 19.1983C38.3095 19.1422 38.3117 19.0762 38.3117 19.0433C38.3117 19.0279 38.3084 18.9773 38.2853 18.9388C38.2349 18.8585 38.0977 18.8344 38.021 18.8201L37.8849 18.7937C37.7094 18.7585 37.6293 18.7277 37.5558 18.6837C37.4428 18.6156 37.3869 18.5199 37.3869 18.3858C37.3869 18.344 37.3924 18.2495 37.4615 18.1571C37.6041 17.9702 37.8794 17.9702 37.9299 17.9702C38.2239 17.9702 38.3841 18.1164 38.4521 18.2176C38.508 18.3033 38.5201 18.3935 38.5267 18.432L38.2711 18.4617C38.2678 18.3935 38.2656 18.3638 38.2502 18.3308C38.2151 18.2539 38.0988 18.1527 37.897 18.1527C37.6951 18.1527 37.6205 18.2693 37.6205 18.3583C37.6205 18.3759 37.6238 18.4001 37.6414 18.4331C37.6864 18.5078 37.7928 18.5397 37.9584 18.5793L38.0956 18.6123C38.1372 18.6211 38.1811 18.6365 38.2228 18.6475C38.4071 18.7035 38.5607 18.8047 38.5607 19.0191C38.5607 19.0542 38.5552 19.1444 38.4982 19.2302L38.5004 19.228Z" fill="#333333"/>
<path d="M39.3483 19.4387C39.2144 19.4387 39.1464 19.4057 39.1113 19.353C39.0751 19.2991 39.0784 19.243 39.0784 19.121V18.2107H38.8524V18.0139H39.0784V17.5708H39.3219V18.0139H39.5743V18.2107H39.3219V19.0132C39.3219 19.1111 39.3165 19.1683 39.3395 19.21C39.3571 19.243 39.3867 19.2518 39.4251 19.2518C39.4514 19.2518 39.5084 19.243 39.5732 19.2188V19.4156C39.5556 19.4189 39.4393 19.4398 39.3472 19.4398L39.3483 19.4387Z" fill="#333333"/>
<path d="M41.1617 19.1828C41.0904 19.2894 40.9357 19.4598 40.6219 19.4598C40.476 19.4598 40.3817 19.4268 40.3279 19.4037C40.1557 19.329 39.9363 19.1388 39.9363 18.7023C39.9363 18.4439 40.0229 18.2977 40.0932 18.212C40.2204 18.0569 40.4135 17.9712 40.6121 17.9712C40.6834 17.9712 40.7667 17.9866 40.8315 18.0097C40.917 18.0394 41.0893 18.1229 41.1847 18.3428C41.2231 18.4351 41.2527 18.5484 41.2527 18.7595H40.1908C40.1875 19.009 40.306 19.152 40.3926 19.2113C40.464 19.2586 40.5561 19.2828 40.645 19.2828C40.7722 19.2828 40.838 19.2355 40.8797 19.197C40.894 19.185 40.9302 19.1498 40.9565 19.1047C40.9916 19.042 41.007 18.9739 41.0125 18.9563L41.2527 18.9893C41.2406 19.0189 41.2143 19.1025 41.1606 19.1861L41.1617 19.1828ZM40.9741 18.4483C40.9269 18.2757 40.7777 18.1537 40.5945 18.1537C40.3422 18.1537 40.2171 18.3615 40.1974 18.5847H40.996C40.9905 18.5132 40.9839 18.4802 40.9752 18.4483H40.9741Z" fill="#333333"/>
<path d="M43.3788 19.4145V18.5933C43.3788 18.4569 43.3996 18.2986 43.2515 18.2217C43.234 18.2129 43.1835 18.192 43.1243 18.192C42.9882 18.1953 42.8303 18.2898 42.7886 18.424C42.7743 18.469 42.771 18.5251 42.771 18.6263V19.4145H42.5396V18.6263C42.5396 18.4954 42.5637 18.3261 42.4331 18.2393C42.409 18.2217 42.3585 18.1942 42.2818 18.1942C42.2675 18.1942 42.2346 18.1942 42.1962 18.2063C42.1007 18.2305 41.9856 18.3041 41.9494 18.4031C41.9318 18.4481 41.9285 18.4888 41.9285 18.5812V19.4145H41.7058V18.0139H41.9285L41.9318 18.2008C41.9614 18.1656 41.9856 18.1414 42.0207 18.1084C42.1183 18.0227 42.2137 17.9688 42.3498 17.9688C42.3969 17.9688 42.5396 17.9809 42.6405 18.0996C42.6767 18.1381 42.6997 18.1832 42.7271 18.2272C42.7447 18.2118 42.7601 18.1942 42.7743 18.1799C42.816 18.1381 42.9762 17.9655 43.1956 17.9688C43.3711 17.9688 43.4808 18.0787 43.5192 18.1238C43.6201 18.2426 43.6146 18.3888 43.6146 18.5372V19.4145H43.3799H43.3788Z" fill="#333333"/>
<path d="M45.2426 19.4334C45.2306 19.4334 45.1472 19.4334 45.0945 19.3982C45.0704 19.3807 45.0529 19.3532 45.0474 19.3444C45.009 19.2905 45.0057 19.2553 45.0002 19.2256C44.9355 19.2971 44.7929 19.4543 44.5219 19.4543C44.4264 19.4543 44.365 19.4367 44.3288 19.4246C44.1621 19.3686 44.0469 19.2344 44.0469 19.053C44.0469 18.9882 44.0644 18.854 44.1983 18.7496C44.3409 18.6429 44.5866 18.6034 44.7654 18.5924L44.9794 18.577C44.9794 18.5385 44.9794 18.5 44.9761 18.4615C44.9706 18.3604 44.9519 18.1526 44.6678 18.1526C44.6228 18.1526 44.4363 18.1526 44.3804 18.3219C44.365 18.367 44.365 18.3989 44.365 18.4472L44.1182 18.4318C44.1182 18.4055 44.1237 18.3549 44.1423 18.2955C44.1873 18.1614 44.3178 17.9712 44.6557 17.9712C44.6974 17.9712 44.7742 17.9745 44.8751 18.0009C44.9311 18.0163 45.1187 18.0723 45.1867 18.2625C45.213 18.3373 45.2163 18.4088 45.2163 18.5627V19.0211C45.2163 19.0508 45.2163 19.0838 45.2196 19.1135C45.2229 19.1465 45.2251 19.2201 45.3238 19.2201C45.3534 19.2201 45.3688 19.2146 45.3951 19.208V19.407C45.3238 19.4312 45.2821 19.4334 45.2437 19.4334H45.2426ZM44.9783 18.7584V18.732C44.8686 18.7496 44.5899 18.7859 44.4791 18.8331C44.4341 18.8507 44.3069 18.9101 44.3069 19.0475C44.3069 19.152 44.3837 19.2553 44.5713 19.2553C44.6985 19.2553 44.9804 19.2014 44.9804 18.8419C44.9804 18.8155 44.9772 18.7859 44.9772 18.7584H44.9783Z" fill="#333333"/>
<path d="M46.7346 19.4148V17.3149H47.0166V19.4148H46.7346Z" fill="#333333"/>
<path d="M48.48 19.4149V18.5221C48.48 18.4803 48.492 18.344 48.3736 18.255C48.3385 18.2286 48.2726 18.1923 48.1629 18.1923C48.0587 18.1923 47.9764 18.2253 47.9018 18.2967C47.8843 18.3143 47.8426 18.3594 47.8185 18.4243C47.7921 18.4902 47.7921 18.5496 47.7921 18.6178V19.4149H47.5541V18.0142H47.7921V18.2198C47.8218 18.1692 47.8514 18.1362 47.8667 18.1219C47.9172 18.0681 48.039 17.9702 48.232 17.9702C48.2946 17.9702 48.5052 17.9878 48.6292 18.1637C48.7213 18.2912 48.7147 18.4287 48.7147 18.5804V19.416H48.48V19.4149Z" fill="#333333"/>
<path d="M49.6012 19.4387C49.4674 19.4387 49.3994 19.4057 49.3642 19.353C49.328 19.2991 49.3313 19.243 49.3313 19.121V18.2107H49.1053V18.0139H49.3313V17.5708H49.5749V18.0139H49.8272V18.2107H49.5749V19.0132C49.5749 19.1111 49.5694 19.1683 49.5924 19.21C49.61 19.243 49.6396 19.2518 49.678 19.2518C49.7043 19.2518 49.7614 19.243 49.8261 19.2188V19.4156C49.8085 19.4189 49.6923 19.4398 49.6001 19.4398L49.6012 19.4387Z" fill="#333333"/>
<path d="M51.4146 19.1828C51.3433 19.2894 51.1886 19.4598 50.8749 19.4598C50.7289 19.4598 50.6346 19.4268 50.5808 19.4037C50.4086 19.329 50.1892 19.1388 50.1892 18.7023C50.1892 18.4439 50.2759 18.2977 50.3461 18.212C50.4733 18.0569 50.6664 17.9712 50.865 17.9712C50.9363 17.9712 51.0197 17.9866 51.0844 18.0097C51.17 18.0394 51.3422 18.1229 51.4376 18.3428C51.476 18.4351 51.5056 18.5484 51.5056 18.7595H50.4437C50.4404 19.009 50.5589 19.152 50.6456 19.2113C50.7169 19.2586 50.809 19.2828 50.8979 19.2828C51.0251 19.2828 51.091 19.2355 51.1327 19.197C51.1469 19.185 51.1831 19.1498 51.2094 19.1047C51.2446 19.042 51.2599 18.9739 51.2654 18.9563L51.5056 18.9893C51.4936 19.0189 51.4673 19.1025 51.4135 19.1861L51.4146 19.1828ZM51.227 18.4483C51.1798 18.2757 51.0306 18.1537 50.8474 18.1537C50.5951 18.1537 50.47 18.3615 50.4503 18.5847H51.2489C51.2435 18.5132 51.2369 18.4802 51.2281 18.4483H51.227Z" fill="#333333"/>
<path d="M53.2092 19.7036C53.1325 19.9653 52.9306 20.0368 52.8352 20.0632C52.788 20.0752 52.7079 20.0961 52.5916 20.0961C52.5499 20.0961 52.4644 20.0928 52.3569 20.0632C52.019 19.9708 51.9707 19.7036 51.9531 19.575H52.2197C52.2197 19.608 52.2197 19.6915 52.279 19.7685C52.3799 19.9048 52.5576 19.9026 52.6059 19.9026C52.6388 19.9026 52.8428 19.9059 52.935 19.7597C52.9887 19.674 52.9975 19.5728 52.9942 19.3727L52.9909 19.2122C52.8308 19.4321 52.6465 19.4596 52.5335 19.4596C52.3909 19.4596 52.2845 19.4145 52.2395 19.3914C52.0881 19.3111 51.8862 19.1209 51.8862 18.7219C51.8862 18.6559 51.8895 18.4041 52.0321 18.2128C52.1506 18.0578 52.2965 17.9688 52.5368 17.9688C52.5719 17.9688 52.6432 17.9742 52.7266 18.0039C52.7891 18.0281 52.89 18.0809 52.9931 18.2029V18.0127H53.24V19.3397C53.24 19.5299 53.2367 19.6014 53.2071 19.7025L53.2092 19.7036ZM52.9745 18.4811C52.912 18.2909 52.7485 18.1809 52.5565 18.1831C52.494 18.1831 52.4293 18.1985 52.3755 18.2249C52.2625 18.281 52.132 18.4272 52.132 18.7153C52.132 18.8758 52.1704 19.0539 52.3075 19.1616C52.3843 19.221 52.4764 19.2452 52.5741 19.2452C52.7167 19.2452 52.7968 19.1913 52.8406 19.1528C52.9273 19.0759 53.0041 18.945 53.0041 18.6944C53.0041 18.668 53.0008 18.5668 52.9745 18.48V18.4811Z" fill="#333333"/>
<path d="M54.3162 18.2526C54.1769 18.2768 54.0694 18.3714 54.0343 18.5088C54.0134 18.5803 54.0134 18.6308 54.0134 18.7672V19.4158H53.7765V18.0151H54.0134V18.2713C54.0464 18.2086 54.088 18.1548 54.144 18.1108C54.1999 18.0657 54.3107 17.9976 54.4918 17.9976V18.2537C54.4062 18.2416 54.3579 18.2449 54.3162 18.2537V18.2526Z" fill="#333333"/>
<path d="M55.9519 19.4334C55.9398 19.4334 55.8564 19.4334 55.8038 19.3982C55.7796 19.3807 55.7621 19.3532 55.7566 19.3444C55.7182 19.2905 55.7149 19.2553 55.7094 19.2256C55.6436 19.2971 55.5021 19.4543 55.2311 19.4543C55.1357 19.4543 55.0742 19.4367 55.038 19.4246C54.8724 19.3686 54.7561 19.2344 54.7561 19.053C54.7561 18.9882 54.7737 18.854 54.9075 18.7496C55.0501 18.6429 55.2958 18.6034 55.4747 18.5924L55.6886 18.577C55.6886 18.5385 55.6886 18.5 55.6853 18.4615C55.6798 18.3604 55.6612 18.1526 55.377 18.1526C55.332 18.1526 55.1456 18.1526 55.0896 18.3219C55.0742 18.367 55.0742 18.3989 55.0742 18.4472L54.8274 18.4318C54.8274 18.4055 54.8329 18.3549 54.8515 18.2955C54.8965 18.1614 55.0271 17.9712 55.365 17.9712C55.4066 17.9712 55.4834 17.9745 55.5844 18.0009C55.6403 18.0163 55.8279 18.0723 55.8959 18.2625C55.9222 18.3373 55.9255 18.4088 55.9255 18.5627V19.0211C55.9255 19.0508 55.9255 19.0838 55.9288 19.1135C55.9321 19.1465 55.9343 19.2201 56.033 19.2201C56.0627 19.2201 56.078 19.2146 56.1044 19.208V19.407C56.033 19.4312 55.9914 19.4334 55.953 19.4334H55.9519ZM55.6875 18.7584V18.732C55.5778 18.7496 55.2991 18.7859 55.1894 18.8331C55.1445 18.8507 55.0172 18.9101 55.0172 19.0475C55.0172 19.152 55.094 19.2553 55.2816 19.2553C55.4088 19.2553 55.6908 19.2014 55.6908 18.8419C55.6908 18.8155 55.6875 18.7859 55.6875 18.7584Z" fill="#333333"/>
<path d="M57.5305 19.4148V19.2367C57.4592 19.3203 57.3286 19.4599 57.0522 19.4599C56.7757 19.4599 56.6485 19.3324 56.5804 19.2488C56.5004 19.1532 56.4082 18.9927 56.4082 18.7101C56.4082 18.532 56.4411 18.3649 56.5508 18.2198C56.6133 18.134 56.768 17.9702 57.05 17.9702C57.2485 17.9702 57.3878 18.0625 57.4471 18.1098C57.4822 18.1395 57.503 18.1637 57.5305 18.1989V17.3149H57.7685V19.4148H57.5305ZM57.5184 18.5309C57.4712 18.3286 57.3165 18.189 57.1059 18.1857C57.0434 18.1857 56.8953 18.1945 56.7823 18.3319C56.6868 18.4451 56.6638 18.576 56.6638 18.7189C56.6638 18.7728 56.6605 18.9509 56.7702 19.0971C56.8832 19.2433 57.0313 19.2488 57.0993 19.2488C57.1827 19.2488 57.2595 19.2312 57.3253 19.1895C57.4295 19.1235 57.5392 18.9817 57.5359 18.7134C57.5359 18.687 57.536 18.6068 57.5184 18.532V18.5309Z" fill="#333333"/>
<path d="M59.435 19.2243C59.3582 19.3166 59.2068 19.4596 58.9161 19.4596C58.8327 19.4596 58.6013 19.4508 58.4323 19.2749C58.3435 19.1858 58.2272 19.0165 58.2272 18.7219C58.2272 18.5404 58.2743 18.359 58.3873 18.2128C58.5234 18.0369 58.7044 17.9688 58.9249 17.9688C59.0203 17.9688 59.1212 17.9863 59.2035 18.0226C59.367 18.0908 59.6039 18.2898 59.5985 18.7153C59.5985 18.7922 59.5897 19.0308 59.435 19.2243ZM59.2715 18.3557C59.2507 18.3173 59.2178 18.2755 59.186 18.2491C59.085 18.1633 58.9753 18.16 58.9304 18.16C58.4817 18.16 58.485 18.6504 58.485 18.7307C58.485 18.7988 58.4937 18.8527 58.497 18.8736C58.5113 18.9747 58.5826 19.2716 58.915 19.2694C58.9797 19.2694 59.141 19.254 59.2474 19.0935C59.3363 18.9593 59.3429 18.7427 59.3429 18.7131C59.3461 18.6746 59.3461 18.4932 59.2715 18.3557Z" fill="#333333"/>
<path d="M60.5978 18.2526C60.4585 18.2768 60.351 18.3714 60.3159 18.5088C60.2951 18.5803 60.2951 18.6308 60.2951 18.7672V19.4158H60.0581V18.0151H60.2951V18.2713C60.328 18.2086 60.3697 18.1548 60.4256 18.1108C60.4816 18.0657 60.5924 17.9976 60.7734 17.9976V18.2537C60.6878 18.2416 60.6395 18.2449 60.5978 18.2537V18.2526Z" fill="#333333"/>
<path d="M63.1319 19.4148V19.2367C63.0606 19.3203 62.9301 19.4599 62.6536 19.4599C62.3771 19.4599 62.2499 19.3324 62.1819 19.2488C62.1018 19.1532 62.0096 18.9927 62.0096 18.7101C62.0096 18.532 62.0426 18.3649 62.1523 18.2198C62.2148 18.134 62.3695 17.9702 62.6514 17.9702C62.85 17.9702 62.9893 18.0625 63.0485 18.1098C63.0836 18.1395 63.1045 18.1637 63.1319 18.1989V17.3149H63.37V19.4148H63.1319ZM63.1198 18.5309C63.0727 18.3286 62.918 18.189 62.7074 18.1857C62.6448 18.1857 62.4967 18.1945 62.3837 18.3319C62.2883 18.4451 62.2653 18.576 62.2653 18.7189C62.2653 18.7728 62.262 18.9509 62.3717 19.0971C62.4847 19.2433 62.6328 19.2488 62.7008 19.2488C62.7841 19.2488 62.8609 19.2312 62.9268 19.1895C63.031 19.1235 63.1407 18.9817 63.1374 18.7134C63.1374 18.687 63.1374 18.6068 63.1198 18.532V18.5309Z" fill="#333333"/>
<path d="M65.0529 19.1828C64.9816 19.2894 64.8269 19.4598 64.5132 19.4598C64.3673 19.4598 64.2729 19.4268 64.2192 19.4037C64.0469 19.329 63.8275 19.1388 63.8275 18.7023C63.8275 18.4439 63.9142 18.2977 63.9844 18.212C64.1116 18.0569 64.3047 17.9712 64.5033 17.9712C64.5746 17.9712 64.658 17.9866 64.7227 18.0097C64.8083 18.0394 64.9805 18.1229 65.0759 18.3428C65.1143 18.4351 65.144 18.5484 65.144 18.7595H64.082C64.0787 19.009 64.1972 19.152 64.2839 19.2113C64.3552 19.2586 64.4473 19.2828 64.5362 19.2828C64.6635 19.2828 64.7293 19.2355 64.771 19.197C64.7852 19.185 64.8214 19.1498 64.8478 19.1047C64.8829 19.042 64.8982 18.9739 64.9037 18.9563L65.144 18.9893C65.1319 19.0189 65.1056 19.1025 65.0518 19.1861L65.0529 19.1828ZM64.8653 18.4483C64.8181 18.2757 64.6689 18.1537 64.4857 18.1537C64.2334 18.1537 64.1084 18.3615 64.0886 18.5847H64.8872C64.8818 18.5132 64.8752 18.4802 64.8664 18.4483H64.8653Z" fill="#333333"/>
<path d="M66.5569 19.4148V17.3149H66.8388V19.4148H66.5569Z" fill="#333333"/>
<path d="M68.3011 19.4149V18.5221C68.3011 18.4803 68.3132 18.344 68.1947 18.255C68.1596 18.2286 68.0938 18.1923 67.9841 18.1923C67.8799 18.1923 67.7976 18.2253 67.723 18.2967C67.7055 18.3143 67.6638 18.3594 67.6396 18.4243C67.6133 18.4902 67.6133 18.5496 67.6133 18.6178V19.4149H67.3752V18.0142H67.6133V18.2198C67.6429 18.1692 67.6725 18.1362 67.6879 18.1219C67.7384 18.0681 67.8601 17.9702 68.0532 17.9702C68.1157 17.9702 68.3264 17.9878 68.4503 18.1637C68.5425 18.2912 68.5359 18.4287 68.5359 18.5804V19.416H68.3011V19.4149Z" fill="#333333"/>
<path d="M69.6813 17.5357C69.6725 17.5324 69.6045 17.5203 69.554 17.5203C69.5277 17.5203 69.4443 17.5203 69.4026 17.6005C69.3785 17.6423 69.3763 17.6775 69.3763 17.7698V18.0139H69.6407V18.2107H69.3763V19.4157H69.1448V18.2107H68.9133V18.0139H69.1448V17.8919C69.1448 17.7017 69.1448 17.6126 69.1799 17.5236C69.2545 17.3334 69.4586 17.3301 69.5123 17.3301C69.5419 17.3301 69.6045 17.3334 69.6845 17.3477L69.6813 17.5346V17.5357Z" fill="#333333"/>
<path d="M71.1589 19.2243C71.0821 19.3166 70.9307 19.4596 70.64 19.4596C70.5566 19.4596 70.3251 19.4508 70.1562 19.2749C70.0673 19.1858 69.951 19.0165 69.951 18.7219C69.951 18.5404 69.9982 18.359 70.1112 18.2128C70.2472 18.0369 70.4283 17.9688 70.6488 17.9688C70.7442 17.9688 70.8451 17.9863 70.9274 18.0226C71.0909 18.0908 71.3278 18.2898 71.3223 18.7153C71.3223 18.7922 71.3136 19.0308 71.1589 19.2243ZM70.9954 18.3557C70.9746 18.3173 70.9417 18.2755 70.9099 18.2491C70.8089 18.1633 70.6992 18.16 70.6542 18.16C70.2056 18.16 70.2088 18.6504 70.2088 18.7307C70.2088 18.7988 70.2176 18.8527 70.2209 18.8736C70.2352 18.9747 70.3065 19.2716 70.6389 19.2694C70.7036 19.2694 70.8649 19.254 70.9713 19.0935C71.0601 18.9593 71.0667 18.7427 71.0667 18.7131C71.07 18.6746 71.07 18.4932 70.9954 18.3557Z" fill="#333333"/>
<path d="M72.3217 18.2526C72.1824 18.2768 72.0749 18.3714 72.0398 18.5088C72.0189 18.5803 72.0189 18.6308 72.0189 18.7672V19.4158H71.782V18.0151H72.0189V18.2713C72.0518 18.2086 72.0935 18.1548 72.1495 18.1108C72.2054 18.0657 72.3162 17.9976 72.4972 17.9976V18.2537C72.4117 18.2416 72.3634 18.2449 72.3217 18.2537V18.2526Z" fill="#333333"/>
<path d="M74.53 19.4145V18.5933C74.53 18.4569 74.5509 18.2986 74.4028 18.2217C74.3852 18.2129 74.3348 18.192 74.2755 18.192C74.1395 18.1953 73.9815 18.2898 73.9398 18.424C73.9256 18.469 73.9223 18.5251 73.9223 18.6263V19.4145H73.6908V18.6263C73.6908 18.4954 73.7149 18.3261 73.5844 18.2393C73.5603 18.2217 73.5098 18.1942 73.433 18.1942C73.4187 18.1942 73.3858 18.1942 73.3474 18.2063C73.252 18.2305 73.1368 18.3041 73.1006 18.4031C73.083 18.4481 73.0797 18.4888 73.0797 18.5812V19.4145H72.8571V18.0139H73.0797L73.083 18.2008C73.1127 18.1656 73.1368 18.1414 73.1719 18.1084C73.2695 18.0227 73.365 17.9688 73.501 17.9688C73.5482 17.9688 73.6908 17.9809 73.7917 18.0996C73.8279 18.1381 73.851 18.1832 73.8784 18.2272C73.8959 18.2118 73.9113 18.1942 73.9256 18.1799C73.9672 18.1381 74.1274 17.9655 74.3468 17.9688C74.5224 17.9688 74.632 18.0787 74.6704 18.1238C74.7714 18.2426 74.7659 18.3888 74.7659 18.5372V19.4145H74.5311H74.53Z" fill="#333333"/>
<path d="M76.394 19.4334C76.3819 19.4334 76.2986 19.4334 76.2459 19.3982C76.2218 19.3807 76.2042 19.3532 76.1987 19.3444C76.1603 19.2905 76.157 19.2553 76.1516 19.2256C76.0868 19.2971 75.9442 19.4543 75.6733 19.4543C75.5778 19.4543 75.5164 19.4367 75.4802 19.4246C75.3134 19.3686 75.1982 19.2344 75.1982 19.053C75.1982 18.9882 75.2158 18.854 75.3496 18.7496C75.4922 18.6429 75.738 18.6034 75.9168 18.5924L76.1307 18.577C76.1307 18.5385 76.1307 18.5 76.1274 18.4615C76.1219 18.3604 76.1033 18.1526 75.8192 18.1526C75.7742 18.1526 75.5877 18.1526 75.5317 18.3219C75.5164 18.367 75.5164 18.3989 75.5164 18.4472L75.2696 18.4318C75.2696 18.4055 75.275 18.3549 75.2937 18.2955C75.3387 18.1614 75.4692 17.9712 75.8071 17.9712C75.8488 17.9712 75.9256 17.9745 76.0265 18.0009C76.0825 18.0163 76.27 18.0723 76.3381 18.2625C76.3644 18.3373 76.3677 18.4088 76.3677 18.5627V19.0211C76.3677 19.0508 76.3677 19.0838 76.371 19.1135C76.3743 19.1465 76.3765 19.2201 76.4752 19.2201C76.5048 19.2201 76.5202 19.2146 76.5465 19.208V19.407C76.4752 19.4312 76.4335 19.4334 76.3951 19.4334H76.394ZM76.1296 18.7584V18.732C76.0199 18.7496 75.7413 18.7859 75.6305 18.8331C75.5855 18.8507 75.4582 18.9101 75.4582 19.0475C75.4582 19.152 75.535 19.2553 75.7226 19.2553C75.8499 19.2553 76.1318 19.2014 76.1318 18.8419C76.1318 18.8155 76.1285 18.7859 76.1285 18.7584H76.1296Z" fill="#333333"/>
<path d="M77.966 19.3346C77.8059 19.4599 77.6073 19.4599 77.5448 19.4599C77.5031 19.4599 77.3934 19.4599 77.2804 19.4182C77.1114 19.3588 76.8503 19.1708 76.8503 18.7255C76.8536 18.2759 77.0972 18.0769 77.2749 18.012C77.3879 17.9702 77.4822 17.9702 77.5305 17.9702C77.9013 17.9702 78.0702 18.1725 78.1361 18.3154C78.1569 18.3605 78.1657 18.3924 78.1745 18.4408L77.9134 18.465C77.9079 18.4408 77.8958 18.3671 77.8541 18.3011C77.7565 18.1494 77.5897 18.1439 77.5338 18.1439C77.3199 18.1439 77.1125 18.2868 77.1125 18.7123C77.1125 18.9597 77.1926 19.0993 77.2727 19.1763C77.3528 19.251 77.4449 19.2774 77.5513 19.2774C77.6139 19.2774 77.6731 19.2686 77.7291 19.2423C77.8837 19.1741 77.9221 19.0367 77.9463 18.8882L78.2019 18.9124C78.1635 19.1477 78.0417 19.2785 77.9671 19.3379L77.966 19.3346Z" fill="#333333"/>
<path d="M78.634 17.5887V17.3149H78.8622V17.5887H78.634ZM78.634 19.4148V18.0142H78.8622V19.4148H78.634Z" fill="#333333"/>
<path d="M80.5209 19.2246C80.4442 19.3169 80.2928 19.4598 80.002 19.4598C79.9187 19.4598 79.6872 19.451 79.5183 19.2751C79.4294 19.1861 79.3131 19.0168 79.3131 18.7221C79.3131 18.5407 79.3603 18.3593 79.4733 18.2131C79.6093 18.0372 79.7903 17.969 80.0108 17.969C80.1063 17.969 80.2072 17.9866 80.2895 18.0229C80.4529 18.091 80.6899 18.29 80.6844 18.7155C80.6844 18.7925 80.6756 19.0311 80.5209 19.2246ZM80.3575 18.356C80.3366 18.3175 80.3037 18.2758 80.2719 18.2494C80.171 18.1636 80.0613 18.1603 80.0163 18.1603C79.5676 18.1603 79.5709 18.6507 79.5709 18.7309C79.5709 18.7991 79.5797 18.853 79.583 18.8738C79.5972 18.975 79.6686 19.2718 80.001 19.2696C80.0657 19.2696 80.2269 19.2542 80.3334 19.0937C80.4222 18.9596 80.4288 18.743 80.4288 18.7133C80.4321 18.6748 80.4321 18.4934 80.3575 18.356ZM80.0372 17.8624H79.9154L80.0372 17.4336H80.2928L80.0372 17.8624Z" fill="#333333"/>
<path d="M82.0666 19.4149V18.5221C82.0666 18.4803 82.0787 18.344 81.9602 18.255C81.924 18.2286 81.8593 18.1923 81.7496 18.1923C81.6454 18.1923 81.5631 18.2253 81.4885 18.2967C81.471 18.3143 81.4293 18.3594 81.4051 18.4243C81.3788 18.4902 81.3788 18.5496 81.3788 18.6178V19.4149H81.1418V18.0142H81.3788V18.2198C81.4084 18.1692 81.438 18.1362 81.4534 18.1219C81.5039 18.0681 81.6256 17.9702 81.8187 17.9702C81.8812 17.9702 82.0919 17.9878 82.2158 18.1637C82.308 18.2912 82.3025 18.4287 82.3025 18.5804V19.416H82.0677L82.0666 19.4149Z" fill="#333333"/>
<path d="M38.4993 22.2016C38.428 22.3115 38.2678 22.4336 37.9705 22.4336C37.9288 22.4336 37.7094 22.4303 37.5547 22.3324C37.5306 22.317 37.4955 22.2939 37.4538 22.2434C37.3529 22.1213 37.3353 21.9905 37.3265 21.9366L37.5964 21.8981C37.5964 21.9905 37.6052 22.0708 37.6732 22.1455C37.7566 22.2379 37.8696 22.2522 37.9848 22.2522C38.0144 22.2522 38.1537 22.2555 38.2459 22.1719C38.3084 22.1158 38.3106 22.0499 38.3106 22.0169C38.3106 22.0015 38.3073 21.9509 38.2842 21.9124C38.2338 21.8322 38.0967 21.808 38.0199 21.7937L37.8838 21.7673C37.7083 21.7321 37.6282 21.7014 37.5547 21.6574C37.4417 21.5892 37.3858 21.4936 37.3858 21.3594C37.3858 21.3177 37.3913 21.2231 37.4604 21.1307C37.603 20.9438 37.8783 20.9438 37.9288 20.9438C38.2228 20.9438 38.383 21.0901 38.451 21.1912C38.5069 21.277 38.519 21.3671 38.5256 21.4056L38.27 21.4353C38.2667 21.3671 38.2645 21.3374 38.2491 21.3045C38.214 21.2275 38.0978 21.1264 37.8959 21.1264C37.694 21.1264 37.6194 21.2429 37.6194 21.3319C37.6194 21.3495 37.6227 21.3737 37.6403 21.4067C37.6853 21.4815 37.7917 21.5133 37.9573 21.5529L38.0945 21.5859C38.1361 21.5947 38.18 21.6101 38.2217 21.6211C38.406 21.6772 38.5596 21.7783 38.5596 21.9927C38.5596 22.0279 38.5541 22.118 38.4971 22.2038L38.4993 22.2016Z" fill="#333333"/>
<path d="M40.1306 22.1984C40.0538 22.2908 39.9024 22.4337 39.6117 22.4337C39.5283 22.4337 39.2968 22.4249 39.1279 22.249C39.039 22.1599 38.9227 21.9906 38.9227 21.696C38.9227 21.5146 38.9699 21.3332 39.0829 21.1869C39.22 21.011 39.401 20.9429 39.6204 20.9429C39.7159 20.9429 39.8168 20.9605 39.8991 20.9967C40.0625 21.0649 40.2995 21.2639 40.294 21.6894C40.294 21.7663 40.2852 22.0049 40.1306 22.1984ZM39.9671 21.3299C39.9463 21.2914 39.9133 21.2496 39.8804 21.2232C39.7795 21.1375 39.6698 21.1342 39.6248 21.1342C39.1772 21.1342 39.1794 21.6245 39.1794 21.7048C39.1794 21.7729 39.1882 21.8268 39.1915 21.8477C39.2069 21.9488 39.2782 22.2468 39.6106 22.2435C39.6753 22.2435 39.8366 22.2281 39.943 22.0676C40.0318 21.9335 40.0384 21.7169 40.0384 21.6872C40.0417 21.6487 40.0417 21.4673 39.9671 21.3299Z" fill="#333333"/>
<path d="M41.9648 22.2016C41.8814 22.3115 41.7926 22.3588 41.7454 22.3797C41.6982 22.4006 41.6061 22.4336 41.4689 22.4336C41.3033 22.4336 41.2111 22.3863 41.1486 22.35C41.0839 22.3115 41.0356 22.2697 40.9917 22.2071V22.3885H40.7537V20.2886H40.9917V21.1813C41.0038 21.1637 41.0213 21.134 41.0564 21.101C41.1661 20.9911 41.3208 20.9438 41.4722 20.9438C41.5677 20.9438 41.775 20.9592 41.9439 21.1549C42.024 21.2506 42.1162 21.4045 42.1162 21.687C42.1162 21.764 42.1162 22.0026 41.9648 22.2016ZM41.7991 21.3781C41.7574 21.3066 41.651 21.1604 41.4316 21.1604C41.2627 21.1604 41.1672 21.2407 41.1234 21.288C41.0521 21.3627 40.9895 21.4727 40.9862 21.6925C40.9862 21.8476 41.0191 21.9421 41.0521 22.0015C41.0905 22.0784 41.198 22.2302 41.4316 22.2302C41.5117 22.2302 41.5918 22.2126 41.6576 22.1675C41.7553 22.1015 41.865 21.9498 41.865 21.6771C41.865 21.6321 41.8682 21.499 41.8002 21.377L41.7991 21.3781Z" fill="#333333"/>
<path d="M43.1101 21.2267C42.9707 21.2509 42.8632 21.3455 42.8281 21.4829C42.8073 21.5544 42.8073 21.6049 42.8073 21.7413V22.3899H42.5703V20.9893H42.8073V21.2454C42.8402 21.1828 42.8819 21.1289 42.9378 21.0849C42.9938 21.0398 43.1046 20.9717 43.2856 20.9717V21.2278C43.2 21.2158 43.1517 21.2191 43.1101 21.2278V21.2267Z" fill="#333333"/>
<path d="M44.7951 22.1564C44.7238 22.263 44.5691 22.4334 44.2553 22.4334C44.1094 22.4334 44.0151 22.4005 43.9613 22.3774C43.7891 22.3026 43.5697 22.1124 43.5697 21.6759C43.5697 21.4176 43.6553 21.2714 43.7266 21.1856C43.8538 21.0306 44.0469 20.9448 44.2455 20.9448C44.3168 20.9448 44.4002 20.9602 44.4649 20.9833C44.5504 21.013 44.7227 21.0965 44.8181 21.3164C44.8565 21.4088 44.8861 21.522 44.8861 21.7331H43.8231C43.8198 21.9827 43.9394 22.1256 44.025 22.185C44.0963 22.2323 44.1884 22.2564 44.2773 22.2564C44.4045 22.2564 44.4704 22.2092 44.5121 22.1707C44.5274 22.1586 44.5625 22.1234 44.5888 22.0783C44.6239 22.0157 44.6393 21.9475 44.6448 21.9299L44.885 21.9629C44.873 21.9926 44.8466 22.0761 44.7929 22.1597L44.7951 22.1564ZM44.6086 21.422C44.5614 21.2494 44.4122 21.1273 44.229 21.1273C43.9767 21.1273 43.8516 21.3351 43.8319 21.5583H44.6305C44.625 21.4868 44.6185 21.4539 44.6097 21.422H44.6086Z" fill="#333333"/>
<path d="M47.1186 22.3885H46.8421L46.1323 20.2886H46.4296L46.9847 22.0433L47.5607 20.2886H47.858L47.1186 22.3885Z" fill="#333333"/>
<path d="M49.0274 22.3886L49.0241 22.1742C49.012 22.1918 48.9978 22.2127 48.9648 22.2457C48.8519 22.3589 48.7092 22.4238 48.5491 22.4238C48.4986 22.4238 48.2825 22.415 48.175 22.2391C48.0949 22.1049 48.1037 21.9532 48.1037 21.8081V20.9868H48.3384V21.7839C48.3384 21.9323 48.3384 21.9983 48.3714 22.0665C48.401 22.1258 48.4756 22.2006 48.627 22.2006C48.6807 22.2006 48.8584 22.1885 48.9594 22.0401C49.0307 21.9356 49.0274 21.8081 49.0274 21.6893V20.9879H49.2589V22.3886H49.0274Z" fill="#333333"/>
<path d="M49.8041 22.3885V20.2886H50.0301V22.3885H49.8041Z" fill="#333333"/>
<path d="M51.4869 22.3885V21.4958C51.4869 21.454 51.499 21.3177 51.3805 21.2286C51.3454 21.2022 51.2796 21.1659 51.1699 21.1659C51.0657 21.1659 50.9834 21.1989 50.9088 21.2704C50.8912 21.288 50.8496 21.333 50.8254 21.3979C50.7991 21.4639 50.7991 21.5232 50.7991 21.5914V22.3885H50.561V20.9878H50.7991V21.1934C50.8287 21.1428 50.8583 21.1099 50.8737 21.0956C50.9241 21.0417 51.0459 20.9438 51.239 20.9438C51.3015 20.9438 51.5122 20.9614 51.6361 21.1373C51.7283 21.2649 51.7217 21.4023 51.7217 21.554V22.3896H51.4869V22.3885Z" fill="#333333"/>
<path d="M53.4068 22.1564C53.3355 22.263 53.1808 22.4334 52.867 22.4334C52.7211 22.4334 52.6268 22.4005 52.573 22.3774C52.4008 22.3026 52.1814 22.1124 52.1814 21.6759C52.1814 21.4176 52.267 21.2714 52.3383 21.1856C52.4655 21.0306 52.6586 20.9448 52.8572 20.9448C52.9285 20.9448 53.0118 20.9602 53.0766 20.9833C53.1621 21.013 53.3344 21.0965 53.4298 21.3164C53.4682 21.4088 53.4978 21.522 53.4978 21.7331H52.4348C52.4315 21.9827 52.5511 22.1256 52.6367 22.185C52.708 22.2323 52.8001 22.2564 52.889 22.2564C53.0162 22.2564 53.0821 22.2092 53.1237 22.1707C53.1391 22.1586 53.1742 22.1234 53.2005 22.0783C53.2356 22.0157 53.251 21.9475 53.2565 21.9299L53.4967 21.9629C53.4847 21.9926 53.4583 22.0761 53.4046 22.1597L53.4068 22.1564ZM53.2203 21.422C53.1731 21.2494 53.0239 21.1273 52.8407 21.1273C52.5884 21.1273 52.4633 21.3351 52.4436 21.5583H53.2422C53.2367 21.4868 53.2302 21.4539 53.2214 21.422H53.2203Z" fill="#333333"/>
<path d="M54.4929 21.2267C54.3535 21.2509 54.246 21.3455 54.2109 21.4829C54.1901 21.5544 54.1901 21.6049 54.1901 21.7413V22.3899H53.952V20.9893H54.1901V21.2454C54.223 21.1828 54.2647 21.1289 54.3206 21.0849C54.3766 21.0398 54.4863 20.9717 54.6684 20.9717V21.2278C54.5828 21.2158 54.5346 21.2191 54.4929 21.2278V21.2267Z" fill="#333333"/>
<path d="M56.1274 22.4071C56.1153 22.4071 56.032 22.4071 55.9793 22.3719C55.9552 22.3543 55.9376 22.3268 55.9321 22.318C55.8937 22.2641 55.8904 22.229 55.885 22.1993C55.8202 22.2707 55.6776 22.4279 55.4067 22.4279C55.3112 22.4279 55.2498 22.4104 55.2136 22.3983C55.0468 22.3422 54.9316 22.2081 54.9316 22.0267C54.9316 21.9607 54.9492 21.8277 55.083 21.7232C55.2256 21.6166 55.4714 21.577 55.6502 21.566L55.8641 21.5506C55.8641 21.5121 55.8641 21.4736 55.8608 21.4352C55.8553 21.334 55.8367 21.1262 55.5526 21.1262C55.5076 21.1262 55.3211 21.1262 55.2651 21.2955C55.2498 21.3406 55.2498 21.3725 55.2498 21.4209L55.0029 21.4055C55.0029 21.3791 55.0084 21.3285 55.0271 21.2692C55.0721 21.135 55.2026 20.9448 55.5405 20.9448C55.5822 20.9448 55.659 20.9481 55.7599 20.9745C55.8158 20.9899 56.0034 21.046 56.0715 21.2362C56.0978 21.3109 56.1011 21.3824 56.1011 21.5363V21.9948C56.1011 22.0245 56.1011 22.0574 56.1044 22.0871C56.1077 22.1201 56.1099 22.1938 56.2086 22.1938C56.2382 22.1938 56.2536 22.1883 56.2799 22.1817V22.3807C56.2086 22.4049 56.1669 22.4071 56.1285 22.4071H56.1274ZM55.863 21.732V21.7056C55.7533 21.7232 55.4747 21.7595 55.3639 21.8068C55.3189 21.8244 55.1916 21.8837 55.1916 22.0212C55.1916 22.1256 55.2684 22.229 55.456 22.229C55.5833 22.229 55.8652 22.1751 55.8652 21.8156C55.8652 21.7892 55.8619 21.7595 55.8619 21.732H55.863Z" fill="#333333"/>
<path d="M57.8727 22.2016C57.7894 22.3115 57.7005 22.3588 57.6533 22.3797C57.6062 22.4006 57.514 22.4336 57.3769 22.4336C57.2112 22.4336 57.1191 22.3863 57.0565 22.35C56.9918 22.3115 56.9436 22.2697 56.8997 22.2071V22.3885H56.6616V20.2886H56.8997V21.1813C56.9117 21.1637 56.9293 21.134 56.9644 21.101C57.0741 20.9911 57.2288 20.9438 57.3802 20.9438C57.4756 20.9438 57.683 20.9592 57.8519 21.1549C57.932 21.2506 58.0241 21.4045 58.0241 21.687C58.0241 21.764 58.0241 22.0026 57.8727 22.2016ZM57.7071 21.3781C57.6654 21.3066 57.559 21.1604 57.3396 21.1604C57.1706 21.1604 57.0752 21.2407 57.0313 21.288C56.96 21.3627 56.8975 21.4727 56.8942 21.6925C56.8942 21.8476 56.9271 21.9421 56.96 22.0015C56.9984 22.0784 57.1059 22.2302 57.3396 22.2302C57.4197 22.2302 57.4998 22.2126 57.5656 22.1675C57.6632 22.1015 57.7729 21.9498 57.7729 21.6771C57.7729 21.6321 57.7762 21.499 57.7082 21.377L57.7071 21.3781Z" fill="#333333"/>
<path d="M58.4893 20.5623V20.2886H58.7174V20.5623H58.4893ZM58.4893 22.3885V20.9878H58.7174V22.3885H58.4893Z" fill="#333333"/>
<path d="M59.2495 22.3885V20.2886H59.4755V22.3885H59.2495Z" fill="#333333"/>
<path d="M60.0208 20.5623V20.2886H60.2489V20.5623H60.0208ZM60.0208 22.3885V20.9878H60.2489V22.3885H60.0208Z" fill="#333333"/>
<path d="M61.8188 22.3885V22.2104C61.7475 22.2939 61.6169 22.4336 61.3405 22.4336C61.064 22.4336 60.9368 22.306 60.8688 22.2225C60.7887 22.1268 60.6965 21.9663 60.6965 21.6837C60.6965 21.5056 60.7294 21.3385 60.8391 21.1934C60.9017 21.1076 61.0564 20.9438 61.3383 20.9438C61.5369 20.9438 61.6762 21.0362 61.7354 21.0835C61.7705 21.1131 61.7914 21.1373 61.8188 21.1725V20.2886H62.0568V22.3885H61.8188ZM61.8067 21.5045C61.7596 21.3022 61.6049 21.1626 61.3942 21.1593C61.3317 21.1593 61.1836 21.1681 61.0706 21.3055C60.9752 21.4188 60.9521 21.5496 60.9521 21.6925C60.9521 21.7464 60.9488 21.9245 61.0586 22.0707C61.1715 22.217 61.3196 22.2225 61.3877 22.2225C61.471 22.2225 61.5478 22.2049 61.6136 22.1631C61.7179 22.0971 61.8276 21.9553 61.8243 21.687C61.8243 21.6607 61.8243 21.5804 61.8067 21.5056V21.5045Z" fill="#333333"/>
<path d="M63.6892 22.4071C63.6771 22.4071 63.5937 22.4071 63.5411 22.3719C63.5169 22.3543 63.4994 22.3268 63.4939 22.318C63.4555 22.2641 63.4522 22.229 63.4467 22.1993C63.382 22.2707 63.2394 22.4279 62.9684 22.4279C62.873 22.4279 62.8115 22.4104 62.7753 22.3983C62.6086 22.3422 62.4934 22.2081 62.4934 22.0267C62.4934 21.9607 62.511 21.8277 62.6448 21.7232C62.7874 21.6166 63.0332 21.577 63.212 21.566L63.4259 21.5506C63.4259 21.5121 63.4259 21.4736 63.4226 21.4352C63.4171 21.334 63.3985 21.1262 63.1143 21.1262C63.0694 21.1262 62.8829 21.1262 62.8269 21.2955C62.8116 21.3406 62.8115 21.3725 62.8115 21.4209L62.5647 21.4055C62.5647 21.3791 62.5702 21.3285 62.5889 21.2692C62.6338 21.135 62.7644 20.9448 63.1023 20.9448C63.144 20.9448 63.2207 20.9481 63.3217 20.9745C63.3776 20.9899 63.5652 21.046 63.6332 21.2362C63.6596 21.3109 63.6628 21.3824 63.6628 21.5363V21.9948C63.6628 22.0245 63.6628 22.0574 63.6661 22.0871C63.6694 22.1201 63.6716 22.1938 63.7704 22.1938C63.8 22.1938 63.8153 22.1883 63.8417 22.1817V22.3807C63.7704 22.4049 63.7287 22.4071 63.6903 22.4071H63.6892ZM63.4248 21.732V21.7056C63.3151 21.7232 63.0364 21.7595 62.9256 21.8068C62.8807 21.8244 62.7534 21.8837 62.7534 22.0212C62.7534 22.1256 62.8302 22.229 63.0178 22.229C63.145 22.229 63.427 22.1751 63.427 21.8156C63.427 21.7892 63.4237 21.7595 63.4237 21.732H63.4248Z" fill="#333333"/>
<path d="M65.2679 22.3885V22.2104C65.1966 22.2939 65.066 22.4336 64.7896 22.4336C64.5131 22.4336 64.3859 22.306 64.3179 22.2225C64.2378 22.1268 64.1456 21.9663 64.1456 21.6837C64.1456 21.5056 64.1785 21.3385 64.2882 21.1934C64.3508 21.1076 64.5044 20.9438 64.7863 20.9438C64.9849 20.9438 65.1242 21.0362 65.1834 21.0835C65.2196 21.1131 65.2394 21.1373 65.2668 21.1725V20.2886H65.5038V22.3885H65.2668H65.2679ZM65.2558 21.5045C65.2087 21.3022 65.054 21.1626 64.8433 21.1593C64.7808 21.1593 64.6327 21.1681 64.5197 21.3055C64.4243 21.4188 64.4012 21.5496 64.4012 21.6925C64.4012 21.7464 64.398 21.9245 64.5077 22.0707C64.6206 22.217 64.7687 22.2225 64.8368 22.2225C64.9201 22.2225 64.9969 22.2049 65.0628 22.1631C65.167 22.0971 65.2767 21.9553 65.2734 21.687C65.2734 21.6607 65.2734 21.5804 65.2558 21.5056V21.5045Z" fill="#333333"/>
<path d="M66.2047 22.8527H66.0654C66.1158 22.7065 66.163 22.5438 66.163 22.3888H66.0325V22.0645H66.3265V22.2426C66.3265 22.4536 66.2914 22.6592 66.2047 22.8527Z" fill="#333333"/>
<path d="M69.2435 22.3885L68.6708 21.4957H68.1311V22.3885H67.8579V20.2886H68.639C68.7037 20.2886 68.7728 20.2853 68.8376 20.2886C69.1283 20.3007 69.2654 20.393 69.3543 20.4997C69.4102 20.5678 69.4815 20.6932 69.4815 20.901C69.4815 20.9867 69.4694 21.2726 69.2029 21.41C69.1524 21.4364 69.1019 21.4573 68.9889 21.4782L69.577 22.3885H69.2446H69.2435ZM69.0383 20.5799C68.9286 20.514 68.7981 20.5206 68.673 20.5206H68.13V21.2616H68.6884C68.8452 21.2616 69.0328 21.2649 69.1392 21.1186C69.1864 21.0527 69.2051 20.9823 69.2051 20.901C69.2051 20.8416 69.1996 20.6778 69.0383 20.5799Z" fill="#333333"/>
<path d="M69.9587 20.5623V20.2886H70.1869V20.5623H69.9587ZM69.9587 22.3885V20.9878H70.1869V22.3885H69.9587Z" fill="#333333"/>
<path d="M71.861 22.1564C71.7897 22.263 71.635 22.4334 71.3213 22.4334C71.1754 22.4334 71.081 22.4005 71.0273 22.3774C70.855 22.3026 70.6356 22.1124 70.6356 21.6759C70.6356 21.4176 70.7223 21.2714 70.7925 21.1856C70.9198 21.0306 71.1128 20.9448 71.3114 20.9448C71.3827 20.9448 71.4661 20.9602 71.5308 20.9833C71.6164 21.013 71.7886 21.0965 71.884 21.3164C71.9224 21.4088 71.9521 21.522 71.9521 21.7331H70.8901C70.8868 21.9827 71.0053 22.1256 71.092 22.185C71.1633 22.2323 71.2554 22.2564 71.3443 22.2564C71.4716 22.2564 71.5374 22.2092 71.5791 22.1707C71.5933 22.1586 71.6295 22.1234 71.6559 22.0783C71.691 22.0157 71.7063 21.9475 71.7118 21.9299L71.9521 21.9629C71.94 21.9926 71.9137 22.0761 71.8599 22.1597L71.861 22.1564ZM71.6734 21.422C71.6262 21.2494 71.477 21.1273 71.2938 21.1273C71.0415 21.1273 70.9165 21.3351 70.8967 21.5583H71.6953C71.6899 21.4868 71.6833 21.4539 71.6745 21.422H71.6734Z" fill="#333333"/>
<path d="M73.478 22.2016C73.4067 22.3115 73.2465 22.4336 72.9493 22.4336C72.9076 22.4336 72.6882 22.4303 72.5335 22.3324C72.5093 22.317 72.4742 22.2939 72.4326 22.2434C72.3316 22.1213 72.3141 21.9905 72.3053 21.9366L72.5752 21.8981C72.5752 21.9905 72.5839 22.0708 72.652 22.1455C72.7353 22.2379 72.8483 22.2522 72.9635 22.2522C72.9931 22.2522 73.1325 22.2555 73.2246 22.1719C73.2871 22.1158 73.2893 22.0499 73.2893 22.0169C73.2893 22.0015 73.286 21.9509 73.263 21.9124C73.2125 21.8322 73.0765 21.808 72.9986 21.7937L72.8615 21.7673C72.686 21.7321 72.6059 21.7014 72.5324 21.6574C72.4194 21.5892 72.3634 21.4936 72.3634 21.3594C72.3634 21.3177 72.3689 21.2231 72.438 21.1307C72.5807 20.9438 72.856 20.9438 72.9065 20.9438C73.2005 20.9438 73.3606 21.0901 73.4287 21.1912C73.4846 21.277 73.4967 21.3671 73.5033 21.4056L73.2477 21.4353C73.2444 21.3671 73.2422 21.3374 73.2268 21.3045C73.1906 21.2275 73.0754 21.1264 72.8736 21.1264C72.6717 21.1264 72.5971 21.2429 72.5971 21.3319C72.5971 21.3495 72.6004 21.3737 72.618 21.4067C72.6629 21.4815 72.7693 21.5133 72.935 21.5529L73.071 21.5859C73.1127 21.5947 73.1577 21.6101 73.1983 21.6211C73.3826 21.6772 73.5362 21.7783 73.5362 21.9927C73.5362 22.0279 73.5307 22.118 73.4736 22.2038L73.478 22.2016Z" fill="#333333"/>
<path d="M75.2256 22.6778C75.1488 22.9394 74.947 23.0109 74.8515 23.0373C74.8043 23.0494 74.7243 23.0703 74.608 23.0703C74.5663 23.0703 74.4807 23.067 74.3732 23.0373C74.0353 22.9449 73.9871 22.6778 73.9695 22.5491H74.2361C74.2361 22.5821 74.2361 22.6657 74.2953 22.7426C74.3963 22.879 74.574 22.8768 74.6222 22.8768C74.6552 22.8768 74.8592 22.8801 74.9513 22.7338C75.0051 22.6481 75.0139 22.5469 75.0106 22.3468L75.0073 22.1863C74.8471 22.4062 74.6628 22.4337 74.5498 22.4337C74.4072 22.4337 74.3008 22.3886 74.2558 22.3655C74.1044 22.2853 73.9026 22.0951 73.9026 21.696C73.9026 21.63 73.9059 21.3782 74.0485 21.1869C74.167 21.0319 74.3129 20.9429 74.5531 20.9429C74.5882 20.9429 74.6595 20.9484 74.7429 20.9781C74.8054 21.0022 74.9064 21.055 75.0095 21.177V20.9868H75.2563V22.3139C75.2563 22.5041 75.253 22.5755 75.2234 22.6767L75.2256 22.6778ZM74.9908 21.4552C74.9283 21.265 74.7649 21.1551 74.5729 21.1573C74.5103 21.1573 74.4456 21.1727 74.3919 21.199C74.2789 21.2551 74.1483 21.4013 74.1483 21.6894C74.1483 21.8499 74.1867 22.028 74.3239 22.1357C74.4006 22.1951 74.4928 22.2193 74.5904 22.2193C74.733 22.2193 74.8131 22.1654 74.857 22.127C74.9437 22.05 75.0205 21.9192 75.0205 21.6685C75.0205 21.6421 75.0172 21.541 74.9908 21.4541V21.4552Z" fill="#333333"/>
<path d="M76.926 22.1984C76.8492 22.2908 76.6978 22.4337 76.4071 22.4337C76.3237 22.4337 76.0922 22.4249 75.9233 22.249C75.8344 22.1599 75.7181 21.9906 75.7181 21.696C75.7181 21.5146 75.7653 21.3332 75.8783 21.1869C76.0154 21.011 76.1964 20.9429 76.4158 20.9429C76.5113 20.9429 76.6122 20.9605 76.6945 20.9967C76.858 21.0649 77.0949 21.2639 77.0894 21.6894C77.0894 21.7663 77.0806 22.0049 76.926 22.1984ZM76.7625 21.3299C76.7417 21.2914 76.7088 21.2496 76.6758 21.2232C76.5749 21.1375 76.4652 21.1342 76.4202 21.1342C75.9726 21.1342 75.9748 21.6245 75.9748 21.7048C75.9748 21.7729 75.9836 21.8268 75.9869 21.8477C76.0023 21.9488 76.0736 22.2468 76.406 22.2435C76.4707 22.2435 76.632 22.2281 76.7384 22.0676C76.8272 21.9335 76.8338 21.7169 76.8338 21.6872C76.8371 21.6487 76.8371 21.4673 76.7625 21.3299Z" fill="#333333"/>
<path d="M78.9829 22.645C78.9588 22.711 78.927 22.8055 78.8941 22.8649C78.814 23.0221 78.7251 23.0826 78.5463 23.0826C78.4991 23.0826 78.4311 23.0793 78.3357 23.0529V22.8385C78.3686 22.8473 78.4125 22.8627 78.4871 22.8627C78.5079 22.8627 78.5672 22.866 78.6176 22.833C78.701 22.7791 78.7394 22.6516 78.7657 22.5713L78.825 22.3987L78.35 20.9893H78.6023L78.9522 22.1019L79.323 20.9893H79.5699L78.9818 22.6461L78.9829 22.645Z" fill="#333333"/>
<path d="M37.4767 25.3626L37.2485 24.7205H36.4499L36.2151 25.3626H35.9178L36.7165 23.2627H37.0072L37.7696 25.3626H37.4756H37.4767ZM36.8591 23.6079L36.5388 24.4853H37.1652L36.8591 23.6079Z" fill="#333333"/>
<path d="M39.1915 25.3625V25.1844C39.1202 25.2679 38.9896 25.4075 38.7132 25.4075C38.4367 25.4075 38.3095 25.28 38.2414 25.1965C38.1614 25.1008 38.0692 24.9403 38.0692 24.6577C38.0692 24.4796 38.1021 24.3125 38.2118 24.1674C38.2744 24.0816 38.429 23.9178 38.711 23.9178C38.9095 23.9178 39.0489 24.0102 39.1081 24.0575C39.1432 24.0871 39.1641 24.1113 39.1915 24.1465V23.2637H39.4295V25.3636H39.1915V25.3625ZM39.1794 24.4785C39.1322 24.2762 38.9776 24.1366 38.7669 24.1333C38.7044 24.1333 38.5563 24.1421 38.4433 24.2795C38.3479 24.3928 38.3248 24.5236 38.3248 24.6665C38.3248 24.7204 38.3215 24.8985 38.4312 25.0447C38.5442 25.191 38.6923 25.1965 38.7603 25.1965C38.8437 25.1965 38.9205 25.1789 38.9863 25.1371C39.0906 25.0711 39.2003 24.9293 39.197 24.661C39.197 24.6347 39.197 24.5544 39.1794 24.4796V24.4785Z" fill="#333333"/>
<path d="M41.0608 25.3812C41.0487 25.3812 40.9653 25.3812 40.9127 25.346C40.8885 25.3284 40.871 25.3009 40.8655 25.2921C40.8271 25.2383 40.8238 25.2031 40.8183 25.1734C40.7525 25.2449 40.611 25.4021 40.34 25.4021C40.2446 25.4021 40.1831 25.3845 40.1469 25.3724C39.9813 25.3163 39.865 25.1822 39.865 25.0008C39.865 24.9359 39.8825 24.8018 40.0164 24.6973C40.159 24.5907 40.4047 24.5511 40.5835 24.5401L40.7975 24.5258C40.7975 24.4873 40.7975 24.4489 40.7942 24.4093C40.7887 24.3081 40.77 24.1004 40.4859 24.1004C40.4409 24.1004 40.2544 24.1004 40.1985 24.2697C40.1831 24.3147 40.1831 24.3466 40.1831 24.395L39.9363 24.3796C39.9363 24.3532 39.9418 24.3026 39.9604 24.2433C40.0054 24.1091 40.136 23.9189 40.4738 23.9189C40.5155 23.9189 40.5923 23.9222 40.6932 23.9486C40.7492 23.964 40.9368 24.0201 41.0048 24.2103C41.0311 24.2851 41.0344 24.3565 41.0344 24.5104V24.9689C41.0344 24.9986 41.0344 25.0316 41.0377 25.0612C41.041 25.0942 41.0432 25.1679 41.1419 25.1679C41.1716 25.1679 41.1869 25.1624 41.2132 25.1558V25.3548C41.1419 25.379 41.1002 25.3812 41.0618 25.3812H41.0608ZM40.7964 24.7061V24.6797C40.6867 24.6973 40.408 24.7336 40.2983 24.7809C40.2533 24.7985 40.1261 24.8579 40.1261 24.9953C40.1261 25.0997 40.2029 25.2031 40.3905 25.2031C40.5177 25.2031 40.7997 25.1492 40.7997 24.7897C40.7997 24.7633 40.7964 24.7336 40.7964 24.7061Z" fill="#333333"/>
<path d="M42.8028 25.1724C42.7282 25.2681 42.5867 25.4077 42.2982 25.4077C42.2302 25.4077 42.0491 25.4022 41.8945 25.2703C41.8769 25.256 41.8561 25.2351 41.8264 25.1988V26.0289H41.595V23.9619H41.8264L41.8297 24.1609C41.8473 24.1401 41.889 24.0895 41.9482 24.0455C42.0941 23.9323 42.2685 23.918 42.3256 23.918C42.4682 23.918 42.5724 23.9718 42.6196 23.9982C42.7655 24.0785 42.9553 24.272 42.9553 24.6678C42.9553 24.7447 42.9553 24.9767 42.8039 25.1735L42.8028 25.1724ZM42.6755 24.4226C42.6426 24.3336 42.5362 24.128 42.2576 24.1401C42.1808 24.1434 42.1007 24.1664 42.0382 24.2082C41.9405 24.2742 41.8275 24.416 41.8275 24.6876C41.8275 24.8811 41.8835 24.9822 41.9372 25.0537C41.9756 25.1009 42.0261 25.1394 42.0831 25.1636C42.1161 25.1779 42.1753 25.1988 42.2675 25.1988C42.4726 25.1988 42.5582 25.1097 42.6086 25.0383C42.7128 24.8921 42.7128 24.7107 42.7128 24.6579C42.7128 24.6282 42.7128 24.5216 42.6777 24.4226H42.6755Z" fill="#333333"/>
<path d="M43.7617 25.3866C43.6279 25.3866 43.5599 25.3536 43.5248 25.2997C43.4886 25.2459 43.4919 25.1898 43.4919 25.0678V24.1574H43.2659V23.9606H43.4919V23.5176H43.7354V23.9606H43.9877V24.1574H43.7354V24.96C43.7354 25.0579 43.7299 25.115 43.7529 25.1568C43.7705 25.1898 43.8001 25.1986 43.8385 25.1986C43.8648 25.1986 43.9219 25.1898 43.9866 25.1656V25.3624C43.9691 25.3657 43.8528 25.3866 43.7606 25.3866H43.7617Z" fill="#333333"/>
<path d="M45.5235 25.3812C45.5115 25.3812 45.4281 25.3812 45.3754 25.346C45.3513 25.3284 45.3337 25.3009 45.3283 25.2921C45.2899 25.2383 45.2866 25.2031 45.2811 25.1734C45.2164 25.2449 45.0737 25.4021 44.8028 25.4021C44.7073 25.4021 44.6459 25.3845 44.6097 25.3724C44.4429 25.3163 44.3278 25.1822 44.3278 25.0008C44.3278 24.9359 44.3453 24.8018 44.4791 24.6973C44.6218 24.5907 44.8675 24.5511 45.0463 24.5401L45.2602 24.5258C45.2602 24.4873 45.2602 24.4489 45.2569 24.4093C45.2515 24.3081 45.2328 24.1004 44.9487 24.1004C44.9037 24.1004 44.7172 24.1004 44.6613 24.2697C44.6459 24.3147 44.6459 24.3466 44.6459 24.395L44.3991 24.3796C44.3991 24.3532 44.4046 24.3026 44.4232 24.2433C44.4682 24.1091 44.5987 23.9189 44.9366 23.9189C44.9783 23.9189 45.0551 23.9222 45.156 23.9486C45.212 23.964 45.3996 24.0201 45.4676 24.2103C45.4939 24.2851 45.4972 24.3565 45.4972 24.5104V24.9689C45.4972 24.9986 45.4972 25.0316 45.5005 25.0612C45.5038 25.0942 45.506 25.1679 45.6047 25.1679C45.6343 25.1679 45.6497 25.1624 45.676 25.1558V25.3548C45.6047 25.379 45.563 25.3812 45.5246 25.3812H45.5235ZM45.2591 24.7061V24.6797C45.1494 24.6973 44.8708 24.7336 44.76 24.7809C44.715 24.7985 44.5878 24.8579 44.5878 24.9953C44.5878 25.0997 44.6645 25.2031 44.8521 25.2031C44.9794 25.2031 45.2613 25.1492 45.2613 24.7897C45.2613 24.7633 45.258 24.7336 45.258 24.7061H45.2591Z" fill="#333333"/>
<path d="M47.0966 25.2824C46.9365 25.4077 46.7379 25.4077 46.6754 25.4077C46.6337 25.4077 46.524 25.4077 46.411 25.3659C46.242 25.3065 45.981 25.1185 45.981 24.6733C45.9842 24.2247 46.2278 24.0246 46.4055 23.9597C46.5185 23.918 46.6128 23.918 46.6611 23.918C47.0319 23.918 47.2009 24.1203 47.2667 24.2632C47.2875 24.3083 47.2963 24.3401 47.3051 24.3885L47.044 24.4127C47.0385 24.3885 47.0264 24.3149 46.9847 24.2489C46.8871 24.0972 46.7204 24.0917 46.6644 24.0917C46.4505 24.0917 46.2431 24.2346 46.2431 24.6601C46.2431 24.9075 46.3232 25.0471 46.4033 25.124C46.4834 25.1988 46.5755 25.2252 46.682 25.2252C46.7445 25.2252 46.8037 25.2164 46.8597 25.19C47.0144 25.1218 47.0528 24.9844 47.0769 24.836L47.3325 24.8602C47.2941 25.0955 47.1723 25.2263 47.0977 25.2857L47.0966 25.2824Z" fill="#333333"/>
<path d="M47.7648 23.5365V23.2627H47.993V23.5365H47.7648ZM47.7648 25.3626V23.9619H47.993V25.3626H47.7648Z" fill="#333333"/>
<path d="M49.6517 25.1723C49.5749 25.2647 49.4235 25.4076 49.1328 25.4076C49.0494 25.4076 48.8179 25.3988 48.649 25.2229C48.5601 25.1338 48.4438 24.9645 48.4438 24.6699C48.4438 24.4885 48.491 24.3071 48.604 24.1608C48.74 23.9849 48.9211 23.9168 49.1416 23.9168C49.237 23.9168 49.3379 23.9344 49.4202 23.9706C49.5837 24.0388 49.8206 24.2378 49.8151 24.6633C49.8151 24.7402 49.8064 24.9788 49.6517 25.1723ZM49.4882 24.3038C49.4674 24.2653 49.4345 24.2235 49.4027 24.1971C49.3017 24.1114 49.192 24.1081 49.147 24.1081C48.6984 24.1081 48.7017 24.5984 48.7017 24.6787C48.7017 24.7468 48.7104 24.8007 48.7137 24.8216C48.728 24.9227 48.7993 25.2196 49.1317 25.2174C49.1964 25.2174 49.3577 25.202 49.4641 25.0415C49.5529 24.9073 49.5595 24.6908 49.5595 24.6611C49.5628 24.6226 49.5628 24.4412 49.4882 24.3038ZM49.1679 23.8101H49.0461L49.1679 23.3813H49.4235L49.1679 23.8101Z" fill="#333333"/>
<path d="M51.1974 25.3626V24.4699C51.1974 24.4281 51.2094 24.2918 51.091 24.2027C51.0559 24.1763 50.99 24.1401 50.8803 24.1401C50.7761 24.1401 50.6938 24.173 50.6192 24.2445C50.6017 24.2621 50.56 24.3072 50.5359 24.372C50.5095 24.4369 50.5095 24.4974 50.5095 24.5655V25.3626H50.2715V23.9619H50.5095V24.1675C50.5392 24.117 50.5688 24.084 50.5841 24.0697C50.6346 24.0158 50.7564 23.918 50.9494 23.918C51.012 23.918 51.2226 23.9356 51.3466 24.1115C51.4387 24.239 51.4321 24.3764 51.4321 24.5281V25.3637H51.1974V25.3626Z" fill="#333333"/>
<path d="M54.02 25.3812C54.0079 25.3812 53.9245 25.3812 53.8719 25.346C53.8478 25.3284 53.8302 25.3009 53.8247 25.2921C53.7863 25.2383 53.783 25.2031 53.7775 25.1734C53.7117 25.2449 53.5702 25.4021 53.2992 25.4021C53.2038 25.4021 53.1424 25.3845 53.1062 25.3724C52.9405 25.3163 52.8242 25.1822 52.8242 25.0008C52.8242 24.9359 52.8418 24.8018 52.9756 24.6973C53.1182 24.5907 53.364 24.5511 53.5428 24.5401L53.7567 24.5258C53.7567 24.4873 53.7567 24.4489 53.7534 24.4093C53.7479 24.3081 53.7293 24.1004 53.4451 24.1004C53.4002 24.1004 53.2137 24.1004 53.1577 24.2697C53.1424 24.3147 53.1424 24.3466 53.1424 24.395L52.8955 24.3796C52.8955 24.3532 52.901 24.3026 52.9197 24.2433C52.9646 24.1091 53.0952 23.9189 53.4331 23.9189C53.4748 23.9189 53.5516 23.9222 53.6525 23.9486C53.7084 23.964 53.896 24.0201 53.964 24.2103C53.9904 24.2851 53.9937 24.3565 53.9937 24.5104V24.9689C53.9937 24.9986 53.9937 25.0316 53.9969 25.0612C54.0002 25.0942 54.0024 25.1679 54.1012 25.1679C54.1308 25.1679 54.1461 25.1624 54.1725 25.1558V25.3548C54.1012 25.379 54.0595 25.3812 54.0211 25.3812H54.02ZM53.7556 24.7061V24.6797C53.6459 24.6973 53.3673 24.7336 53.2575 24.7809C53.2126 24.7985 53.0853 24.8579 53.0853 24.9953C53.0853 25.0997 53.1621 25.2031 53.3497 25.2031C53.477 25.2031 53.7589 25.1492 53.7589 24.7897C53.7589 24.7633 53.7556 24.7336 53.7556 24.7061Z" fill="#333333"/>
<path d="M54.5597 25.3626V23.2627H54.7857V25.3626H54.5597Z" fill="#333333"/>
<path d="M58.2305 24.7676C58.1767 24.905 57.9957 25.247 57.5832 25.3679C57.4351 25.413 57.3046 25.4152 57.2475 25.4152C56.8767 25.4152 56.6661 25.2667 56.5531 25.1623C56.4138 25.0315 56.224 24.7698 56.224 24.3113C56.224 23.6572 56.6189 23.2075 57.2837 23.2075C57.4022 23.2075 57.7971 23.2163 58.0549 23.5198C58.1405 23.6209 58.1943 23.7275 58.2392 23.8496L57.9573 23.9057C57.9222 23.8045 57.8893 23.7484 57.8619 23.7089C57.7873 23.6044 57.6095 23.4296 57.2804 23.4296C57.23 23.4296 57.1027 23.4351 56.9744 23.489C56.5356 23.6759 56.5323 24.1794 56.5323 24.2949C56.5323 24.8006 56.7725 25.0381 56.9777 25.1249C57.0314 25.1458 57.1323 25.1788 57.2837 25.1788C57.3188 25.1788 57.4022 25.1788 57.4977 25.1524C57.581 25.1282 57.7763 25.048 57.8926 24.8314C57.9255 24.7687 57.9518 24.7005 57.9782 24.5642L58.2809 24.5994C58.2754 24.6291 58.2601 24.6917 58.2305 24.7654V24.7676Z" fill="#333333"/>
<path d="M59.7849 25.3812C59.7728 25.3812 59.6894 25.3812 59.6368 25.346C59.6126 25.3284 59.5951 25.3009 59.5896 25.2921C59.5512 25.2383 59.5479 25.2031 59.5424 25.1734C59.4766 25.2449 59.3351 25.4021 59.0641 25.4021C58.9687 25.4021 58.9073 25.3845 58.871 25.3724C58.7054 25.3163 58.5891 25.1822 58.5891 25.0008C58.5891 24.9359 58.6067 24.8018 58.7405 24.6973C58.8831 24.5907 59.1288 24.5511 59.3077 24.5401L59.5216 24.5258C59.5216 24.4873 59.5216 24.4489 59.5183 24.4093C59.5128 24.3081 59.4942 24.1004 59.21 24.1004C59.165 24.1004 58.9786 24.1004 58.9226 24.2697C58.9072 24.3147 58.9072 24.3466 58.9072 24.395L58.6604 24.3796C58.6604 24.3532 58.6659 24.3026 58.6846 24.2433C58.7295 24.1091 58.8601 23.9189 59.198 23.9189C59.2396 23.9189 59.3164 23.9222 59.4174 23.9486C59.4733 23.964 59.6609 24.0201 59.7289 24.2103C59.7553 24.2851 59.7585 24.3565 59.7585 24.5104V24.9689C59.7585 24.9986 59.7585 25.0316 59.7618 25.0612C59.7651 25.0942 59.7673 25.1679 59.8661 25.1679C59.8957 25.1679 59.911 25.1624 59.9374 25.1558V25.3548C59.8661 25.379 59.8244 25.3812 59.786 25.3812H59.7849ZM59.5205 24.7061V24.6797C59.4108 24.6973 59.1321 24.7336 59.0224 24.7809C58.9775 24.7985 58.8502 24.8579 58.8502 24.9953C58.8502 25.0997 58.927 25.2031 59.1146 25.2031C59.2418 25.2031 59.5238 25.1492 59.5238 24.7897C59.5238 24.7633 59.5205 24.7336 59.5205 24.7061Z" fill="#333333"/>
<path d="M61.99 25.3628V24.5415C61.99 24.4052 62.0108 24.2469 61.8627 24.1699C61.8452 24.1611 61.7947 24.1402 61.7355 24.1402C61.5994 24.1435 61.4415 24.2381 61.3998 24.3722C61.3844 24.4173 61.3822 24.4733 61.3822 24.5745V25.3628H61.1508V24.5745C61.1508 24.4437 61.1749 24.2744 61.0443 24.1875C61.0202 24.1699 60.9697 24.1424 60.893 24.1424C60.8776 24.1424 60.8458 24.1424 60.8063 24.1545C60.7109 24.1787 60.5957 24.2524 60.5595 24.3513C60.5419 24.3964 60.5386 24.4371 60.5386 24.5294V25.3628H60.3159V23.9621H60.5386L60.5419 24.149C60.5715 24.1138 60.5957 24.0896 60.6308 24.0567C60.7284 23.9709 60.8238 23.917 60.9599 23.917C61.007 23.917 61.1497 23.9291 61.2506 24.0479C61.2857 24.0864 61.3098 24.1314 61.3362 24.1754C61.3537 24.1611 61.3691 24.1424 61.3833 24.1281C61.425 24.0864 61.5852 23.9137 61.8046 23.917C61.9801 23.917 62.0898 24.027 62.1282 24.0721C62.2291 24.1908 62.2237 24.337 62.2237 24.4854V25.3628H61.9889H61.99Z" fill="#333333"/>
<path d="M63.9667 25.1757C63.8834 25.2856 63.7945 25.3329 63.7473 25.3538C63.7002 25.3747 63.608 25.4077 63.4709 25.4077C63.3052 25.4077 63.2131 25.3604 63.1506 25.3241C63.0858 25.2856 63.0376 25.2439 62.9937 25.1812V25.3626H62.7556V23.2627H62.9937V24.1554C63.0057 24.1378 63.0233 24.1082 63.0584 24.0752C63.1681 23.9652 63.3228 23.918 63.4742 23.918C63.5696 23.918 63.777 23.9333 63.9459 24.129C64.026 24.2247 64.1181 24.3786 64.1181 24.6612C64.1181 24.7381 64.1181 24.9767 63.9667 25.1757ZM63.8011 24.3522C63.7594 24.2808 63.653 24.1356 63.4336 24.1356C63.2646 24.1356 63.1692 24.2159 63.1253 24.2632C63.054 24.3379 62.9915 24.4479 62.9882 24.6678C62.9882 24.8228 63.0211 24.9173 63.054 24.9767C63.0924 25.0537 63.1999 25.2054 63.4336 25.2054C63.5137 25.2054 63.5937 25.1878 63.6596 25.1427C63.7572 25.0767 63.8669 24.9261 63.8669 24.6524C63.8669 24.6073 63.8702 24.4743 63.8022 24.3522H63.8011Z" fill="#333333"/>
<path d="M64.5833 23.5365V23.2627H64.8114V23.5365H64.5833ZM64.5833 25.3626V23.9619H64.8114V25.3626H64.5833Z" fill="#333333"/>
<path d="M66.4702 25.1725C66.3934 25.2649 66.242 25.4078 65.9513 25.4078C65.8679 25.4078 65.6364 25.399 65.4675 25.2231C65.3786 25.1341 65.2623 24.9647 65.2623 24.6701C65.2623 24.4887 65.3095 24.3073 65.4225 24.1611C65.5585 23.9852 65.7395 23.917 65.96 23.917C66.0555 23.917 66.1564 23.9346 66.2387 23.9709C66.4021 24.039 66.6391 24.238 66.6336 24.6635C66.6336 24.7405 66.6248 24.979 66.4702 25.1725ZM66.3067 24.304C66.2859 24.2655 66.2529 24.2237 66.2211 24.1973C66.1202 24.1116 66.0105 24.1083 65.9655 24.1083C65.5168 24.1083 65.5201 24.5986 65.5201 24.6789C65.5201 24.7471 65.5289 24.8009 65.5322 24.8218C65.5465 24.923 65.6178 25.2198 65.9502 25.2176C66.0149 25.2176 66.1762 25.2022 66.2826 25.0417C66.3714 24.9076 66.378 24.691 66.378 24.6613C66.3813 24.6228 66.3813 24.4414 66.3067 24.304Z" fill="#333333"/>
<path d="M70.0049 24.7676C69.9511 24.905 69.7701 25.247 69.3576 25.3679C69.2095 25.413 69.079 25.4152 69.0219 25.4152C68.6511 25.4152 68.4405 25.2667 68.3275 25.1623C68.1882 25.0315 67.9984 24.7698 67.9984 24.3113C67.9984 23.6572 68.3933 23.2075 69.0581 23.2075C69.1766 23.2075 69.5716 23.2163 69.8294 23.5198C69.9149 23.6209 69.9687 23.7275 70.0137 23.8496L69.7317 23.9057C69.6966 23.8045 69.6637 23.7484 69.6363 23.7089C69.5617 23.6044 69.384 23.4296 69.0548 23.4296C69.0044 23.4296 68.8771 23.4351 68.7488 23.489C68.31 23.6759 68.3067 24.1794 68.3067 24.2949C68.3067 24.8006 68.5469 25.0381 68.7521 25.1249C68.8058 25.1458 68.9068 25.1788 69.0581 25.1788C69.0932 25.1788 69.1766 25.1788 69.2721 25.1524C69.3554 25.1282 69.5507 25.048 69.667 24.8314C69.6999 24.7687 69.7262 24.7005 69.7526 24.5642L70.0553 24.5994C70.0499 24.6291 70.0345 24.6917 70.0049 24.7654V24.7676Z" fill="#333333"/>
<path d="M70.4678 25.3626V23.2627H70.6938V25.3626H70.4678Z" fill="#333333"/>
<path d="M71.239 23.5365V23.2627H71.4672V23.5365H71.239ZM71.239 25.3626V23.9619H71.4672V25.3626H71.239Z" fill="#333333"/>
<path d="M73.6635 25.3628V24.5415C73.6635 24.4052 73.6843 24.2469 73.5362 24.1699C73.5186 24.1611 73.4682 24.1402 73.4089 24.1402C73.2729 24.1435 73.1149 24.2381 73.0732 24.3722C73.059 24.4173 73.0557 24.4733 73.0557 24.5745V25.3628H72.8242V24.5745C72.8242 24.4437 72.8484 24.2744 72.7178 24.1875C72.6937 24.1699 72.6432 24.1424 72.5664 24.1424C72.5522 24.1424 72.5193 24.1424 72.4809 24.1545C72.3854 24.1787 72.2702 24.2524 72.234 24.3513C72.2165 24.3964 72.2132 24.4371 72.2132 24.5294V25.3628H71.9905V23.9621H72.2132L72.2165 24.149C72.2461 24.1138 72.2702 24.0896 72.3053 24.0567C72.403 23.9709 72.4984 23.917 72.6344 23.917C72.6816 23.917 72.8242 23.9291 72.9252 24.0479C72.9614 24.0864 72.9844 24.1314 73.0118 24.1754C73.0294 24.1611 73.0447 24.1424 73.059 24.1281C73.1007 24.0864 73.2608 23.9137 73.4802 23.917C73.6558 23.917 73.7655 24.027 73.8039 24.0721C73.9048 24.1908 73.8993 24.337 73.8993 24.4854V25.3628H73.6645H73.6635Z" fill="#333333"/>
<path d="M75.5273 25.3811C75.5152 25.3811 75.4319 25.3811 75.3792 25.3459C75.3551 25.3283 75.3375 25.3008 75.332 25.292C75.2936 25.2382 75.2903 25.203 75.2849 25.1733C75.219 25.2448 75.0775 25.402 74.8066 25.402C74.7111 25.402 74.6497 25.3844 74.6135 25.3723C74.4478 25.3162 74.3315 25.1821 74.3315 25.0007C74.3315 24.9358 74.3491 24.8017 74.4829 24.6972C74.6255 24.5906 74.8713 24.551 75.0501 24.54L75.264 24.5257C75.264 24.4872 75.264 24.4488 75.2607 24.4092C75.2552 24.308 75.2366 24.1003 74.9525 24.1003C74.9075 24.1003 74.721 24.1002 74.665 24.2696C74.6497 24.3146 74.6497 24.3465 74.6497 24.3949L74.4028 24.3795C74.4028 24.3531 74.4083 24.3025 74.427 24.2432C74.472 24.109 74.6025 23.9188 74.9404 23.9188C74.9821 23.9188 75.0589 23.9221 75.1598 23.9485C75.2157 23.9639 75.4033 24.02 75.4714 24.2102C75.4977 24.285 75.501 24.3564 75.501 24.5103V24.9688C75.501 24.9985 75.501 25.0315 75.5043 25.0611C75.5076 25.0941 75.5098 25.1678 75.6085 25.1678C75.6381 25.1678 75.6535 25.1623 75.6798 25.1557V25.3547C75.6085 25.3789 75.5668 25.3811 75.5284 25.3811H75.5273ZM75.2629 24.706V24.6796C75.1532 24.6972 74.8746 24.7335 74.7649 24.7808C74.7199 24.7984 74.5926 24.8578 74.5926 24.9952C74.5926 25.0996 74.6694 25.203 74.857 25.203C74.9843 25.203 75.2662 25.1491 75.2662 24.7896C75.2662 24.7632 75.2629 24.7335 75.2629 24.706ZM75.0314 23.8111H74.9097L75.0314 23.3823H75.2871L75.0314 23.8111Z" fill="#333333"/>
<path d="M76.4115 25.3866C76.2777 25.3866 76.2097 25.3536 76.1745 25.2997C76.1383 25.2459 76.1416 25.1898 76.1416 25.0678V24.1574H75.9156V23.9606H76.1416V23.5176H76.3852V23.9606H76.6375V24.1574H76.3852V24.96C76.3852 25.0579 76.3797 25.115 76.4027 25.1568C76.4203 25.1898 76.4499 25.1986 76.4883 25.1986C76.5146 25.1986 76.5717 25.1898 76.6364 25.1656V25.3624C76.6188 25.3657 76.5026 25.3866 76.4104 25.3866H76.4115Z" fill="#333333"/>
<path d="M77.0884 23.5365V23.2627H77.3166V23.5365H77.0884ZM77.0884 25.3626V23.9619H77.3166V25.3626H77.0884Z" fill="#333333"/>
<path d="M78.8798 25.2824C78.7197 25.4077 78.5211 25.4077 78.4586 25.4077C78.4169 25.4077 78.3072 25.4077 78.1942 25.3659C78.0253 25.3065 77.7642 25.1185 77.7642 24.6733C77.7675 24.2247 78.011 24.0246 78.1887 23.9597C78.3017 23.918 78.3961 23.918 78.4443 23.918C78.8151 23.918 78.9841 24.1203 79.0499 24.2632C79.0707 24.3083 79.0795 24.3401 79.0883 24.3885L78.8272 24.4127C78.8217 24.3885 78.8096 24.3149 78.7679 24.2489C78.6703 24.0972 78.5036 24.0917 78.4476 24.0917C78.2337 24.0917 78.0264 24.2346 78.0264 24.6601C78.0264 24.9075 78.1064 25.0471 78.1865 25.124C78.2666 25.1988 78.3588 25.2252 78.4652 25.2252C78.5277 25.2252 78.5869 25.2164 78.6429 25.19C78.7976 25.1218 78.836 24.9844 78.859 24.836L79.1146 24.8602C79.0762 25.0955 78.9544 25.2263 78.8798 25.2857V25.2824Z" fill="#333333"/>
<path d="M80.6702 25.1725C80.5934 25.2649 80.442 25.4078 80.1513 25.4078C80.068 25.4078 79.8365 25.399 79.6675 25.2231C79.5787 25.1341 79.4624 24.9647 79.4624 24.6701C79.4624 24.4887 79.5096 24.3073 79.6226 24.1611C79.7597 23.9852 79.9407 23.917 80.1601 23.917C80.2556 23.917 80.3565 23.9346 80.4388 23.9709C80.6022 24.039 80.8392 24.238 80.8337 24.6635C80.8337 24.7405 80.8249 24.979 80.6702 25.1725ZM80.5068 24.304C80.4859 24.2655 80.453 24.2237 80.4201 24.1973C80.3192 24.1116 80.2095 24.1083 80.1645 24.1083C79.7169 24.1083 79.7191 24.5986 79.7191 24.6789C79.7191 24.7471 79.7279 24.8009 79.7312 24.8218C79.7465 24.923 79.8178 25.2198 80.1502 25.2176C80.215 25.2176 80.3762 25.2022 80.4826 25.0417C80.5715 24.9076 80.5781 24.691 80.5781 24.6613C80.5814 24.6228 80.5814 24.4414 80.5068 24.304Z" fill="#333333"/>
<path d="M40.1842 8.28311C39.8837 7.78178 39.0576 7.30463 38.1076 7.30463C36.8811 7.30463 36.2931 7.81916 36.2931 8.47112C36.2931 9.23632 37.1937 9.4496 38.2447 9.57494C40.0713 9.80032 41.7738 10.2775 41.7738 12.3719C41.7738 14.3278 40.0471 15.1688 38.0955 15.1688C36.3062 15.1688 34.9295 14.6169 34.2789 13.0117L35.6557 12.2971C36.0441 13.2624 37.0577 13.689 38.1207 13.689C39.1838 13.689 40.1349 13.3251 40.1349 12.3719C40.1349 11.544 39.2715 11.2054 38.1076 11.0801C36.3183 10.8668 34.6662 10.3907 34.6662 8.42164C34.6662 6.61639 36.4434 5.87647 38.0571 5.86328C39.4207 5.86328 40.8348 6.25248 41.4985 7.60587L40.1842 8.28311Z" fill="#1587ED"/>
<path d="M44.3135 14.9425V6.16357H45.9524V14.9414H44.3135V14.9425Z" fill="#1587ED"/>
<path d="M48.7675 14.9425V6.16357H50.4064V14.9414H48.7675V14.9425Z" fill="#1587ED"/>
<path d="M57.9639 14.9799H56.2492L52.6082 6.16357H54.4599L57.1005 12.9976L59.7531 6.16357H61.6049L57.9639 14.9799Z" fill="#1587ED"/>
<path d="M71.6405 14.9424H69.6757L67.123 12.008H65.5334V14.9424H63.8812V6.15137C65.2701 6.15137 66.6589 6.16346 68.0477 6.16346C70.1124 6.17555 71.2006 7.55533 71.2006 9.07254C71.2006 10.2764 70.6499 11.4924 68.9857 11.831L71.6383 14.828V14.9413L71.6405 14.9424ZM65.5345 7.70705V10.5161H68.0499C69.1009 10.5161 69.5518 9.81355 69.5518 9.11102C69.5518 8.40849 69.0888 7.70705 68.0499 7.70705H65.5345Z" fill="#1587ED"/>
<path d="M79.7849 13.2866H75.2048L74.4544 14.9424H72.6652L76.5947 6.16455H78.396L82.3256 14.9424H80.5232L79.7849 13.2866ZM77.4954 8.00719L75.8685 11.7441H79.1223L77.4954 8.00719Z" fill="#1587ED"/>
<defs>
<linearGradient id="paint0_linear_3229_19024" x1="4.36511" y1="15.1654" x2="25.2646" y2="15.1654" gradientUnits="userSpaceOnUse">
<stop stop-color="#6BB23C"/>
<stop offset="0.99" stop-color="#1ECFAB"/>
<stop offset="1" stop-color="#1E89AB"/>
</linearGradient>
<linearGradient id="paint1_linear_3229_19024" x1="0.0109703" y1="6.35248" x2="12.7014" y2="6.35248" gradientUnits="userSpaceOnUse">
<stop stop-color="#FDF35D"/>
<stop offset="1" stop-color="#FCC570"/>
</linearGradient>
<linearGradient id="paint2_linear_3229_19024" x1="0.0109418" y1="8.73704" x2="12.7014" y2="8.73704" gradientUnits="userSpaceOnUse">
<stop stop-color="#D6E43A"/>
<stop offset="1" stop-color="#D5B74C"/>
</linearGradient>
<linearGradient id="paint3_linear_3229_19024" x1="6.77528" y1="19.6601" x2="30.2737" y2="19.6601" gradientUnits="userSpaceOnUse">
<stop stop-color="#9A7C5F"/>
<stop offset="1" stop-color="#4597CE"/>
</linearGradient>
<linearGradient id="paint4_linear_3229_19024" x1="7.23601" y1="17.3512" x2="29.3522" y2="17.3512" gradientUnits="userSpaceOnUse">
<stop stop-color="#73633C"/>
<stop offset="1" stop-color="#1E89AB"/>
</linearGradient>
</defs>
</svg>
