<svg width="119" height="31" viewBox="0 0 119 31" fill="none" xmlns="http://www.w3.org/2000/svg">
<path fill-rule="evenodd" clip-rule="evenodd" d="M36.2904 16.6206C36.3233 16.5007 36.3537 16.38 36.3824 16.2585C36.3824 16.2568 36.3833 16.2543 36.3841 16.2526C36.5976 15.3445 36.7031 14.3774 36.6803 13.3554C36.6668 12.7596 36.6086 12.1452 36.5031 11.514C36.5031 11.5123 36.5031 11.5106 36.5023 11.5089C36.4997 11.492 36.4964 11.4752 36.4938 11.4591C36.4938 11.4625 36.4947 11.465 36.4955 11.4684C36.4955 11.4684 36.4955 11.4676 36.4955 11.4667C36.4896 11.4338 36.4837 11.4 36.4778 11.3671C36.4719 11.3351 36.466 11.3022 36.4601 11.2701C36.4525 11.2296 36.444 11.1882 36.4364 11.1477C36.4153 11.0397 36.3926 10.9308 36.3689 10.8211C36.3655 10.8051 36.3622 10.789 36.358 10.7722C36.3444 10.7106 36.3301 10.649 36.3158 10.5865C36.3056 10.5443 36.2955 10.5013 36.2854 10.4591C36.2744 10.4135 36.2634 10.3679 36.2516 10.3215C36.228 10.2278 36.2027 10.1333 36.1774 10.0388C36.1613 10.1114 36.1453 10.1823 36.1284 10.2523C36.1233 10.2751 36.1174 10.297 36.1124 10.319C36.1006 10.3671 36.0887 10.4143 36.0769 10.4616C36.0702 10.4869 36.0634 10.5122 36.0575 10.5367C36.0457 10.5806 36.0339 10.6245 36.0221 10.6684C36.0153 10.6928 36.0086 10.7173 36.0018 10.7409C35.9883 10.7874 35.9748 10.8329 35.9613 10.8785C35.9554 10.8988 35.9495 10.9182 35.9436 10.9384C35.9233 11.0034 35.9039 11.0667 35.8828 11.13C35.8828 11.1317 35.882 11.1325 35.8811 11.1342C35.8609 11.1958 35.8398 11.2557 35.8195 11.3157C35.8128 11.3351 35.806 11.3536 35.7993 11.373C35.7841 11.4152 35.7689 11.4566 35.7537 11.4979C35.7453 11.519 35.7377 11.541 35.7292 11.5621C35.714 11.6009 35.6988 11.6389 35.6837 11.6777C35.6752 11.6988 35.6668 11.719 35.6583 11.7393C35.6415 11.7798 35.6246 11.8195 35.6077 11.8591C35.6001 11.876 35.5934 11.8929 35.5858 11.9098C35.5613 11.9655 35.5368 12.0203 35.5115 12.0752C35.5098 12.0786 35.509 12.0811 35.5073 12.0836C35.4836 12.1343 35.4592 12.1849 35.4347 12.2347C35.4263 12.2516 35.4178 12.2676 35.4094 12.2845C35.3917 12.3199 35.3731 12.3562 35.3545 12.3908C35.3452 12.4094 35.3351 12.4279 35.325 12.4457C35.3073 12.4786 35.2895 12.5115 35.2718 12.5436C35.2617 12.5613 35.2516 12.579 35.2423 12.5967C35.2229 12.6313 35.2026 12.6651 35.1832 12.6988C35.1748 12.7132 35.1663 12.7275 35.1579 12.7419C35.1292 12.7891 35.1005 12.8364 35.071 12.882C35.0684 12.8862 35.0659 12.8904 35.0634 12.8938C35.0364 12.9351 35.0102 12.9765 34.9824 13.017C34.9722 13.0322 34.9621 13.0465 34.952 13.0609C34.9317 13.0904 34.9115 13.12 34.8904 13.1495C34.8786 13.1655 34.8676 13.1816 34.8558 13.1976C34.8355 13.2255 34.8153 13.2525 34.795 13.2795C34.7832 13.2947 34.7722 13.3107 34.7604 13.3259C34.7385 13.3546 34.7165 13.3833 34.6937 13.4111C34.6836 13.4238 34.6743 13.4364 34.6642 13.4483C34.6321 13.4879 34.6001 13.5276 34.5671 13.5656C34.5621 13.5715 34.557 13.5765 34.552 13.5824C34.5241 13.6153 34.4954 13.6474 34.4676 13.6795C34.4557 13.693 34.4439 13.7056 34.4321 13.7183C34.4102 13.7428 34.3882 13.7664 34.3654 13.79C34.3519 13.8044 34.3384 13.8179 34.3249 13.8322C34.303 13.855 34.2819 13.877 34.26 13.8989C34.2465 13.9124 34.2329 13.9259 34.2194 13.9394C34.1958 13.9622 34.1722 13.985 34.1486 14.0078C34.1367 14.0187 34.1249 14.0306 34.1131 14.0415C34.0785 14.0744 34.0431 14.1065 34.0076 14.1377C33.9992 14.1453 33.9907 14.1521 33.9823 14.1597C33.9545 14.1842 33.9266 14.2086 33.8979 14.2323C33.8836 14.2441 33.8692 14.2559 33.8549 14.2677C33.8321 14.2863 33.8093 14.3048 33.7865 14.3234C33.7705 14.3361 33.7553 14.3487 33.7393 14.3605C33.7173 14.3783 33.6945 14.3951 33.6717 14.412C33.6557 14.4238 33.6405 14.4356 33.6245 14.4475C33.6009 14.4652 33.5764 14.4829 33.5519 14.4998C33.5376 14.5099 33.5232 14.5209 33.5089 14.531C33.4717 14.5572 33.4346 14.5833 33.3966 14.6086C33.384 14.6171 33.3713 14.6255 33.3586 14.6331C33.3325 14.6508 33.3055 14.6677 33.2793 14.6846C33.2624 14.6956 33.2447 14.7065 33.2278 14.7167C33.2051 14.731 33.1831 14.7445 33.1603 14.758C33.1451 14.7673 33.1308 14.7757 33.1156 14.785C33.0599 14.8179 33.0042 14.85 32.9485 14.8812C32.9375 14.8871 32.9257 14.893 32.9147 14.8998C32.8565 14.931 32.7983 14.9623 32.7392 14.9926C32.7316 14.9969 32.724 15.0002 32.7156 15.0044C32.6582 15.0331 32.6008 15.061 32.5434 15.088C32.5358 15.0914 32.5274 15.0956 32.5198 15.099C32.4599 15.1268 32.3999 15.153 32.3392 15.1791C32.3265 15.1842 32.3147 15.1901 32.3021 15.1952C32.243 15.2196 32.1839 15.2441 32.1248 15.2669C32.1105 15.2728 32.097 15.2779 32.0826 15.2838C32.0236 15.3066 31.9645 15.3285 31.9046 15.3505C31.8902 15.3555 31.8759 15.3606 31.8624 15.3656C31.8016 15.3867 31.7408 15.4078 31.6801 15.4281C31.6683 15.4323 31.6556 15.4357 31.6438 15.4399C31.5822 15.4593 31.5206 15.4787 31.459 15.4973C31.4497 15.4998 31.4412 15.5024 31.432 15.5049C31.3704 15.5235 31.3088 15.5403 31.2471 15.5581C31.2345 15.5614 31.2227 15.5648 31.21 15.5682C31.1476 15.5851 31.0851 15.6011 31.0218 15.6171C31.0066 15.6214 30.9906 15.6247 30.9754 15.629C30.9138 15.6441 30.8513 15.6593 30.7897 15.6737C30.7737 15.6771 30.7568 15.6813 30.7408 15.6846C30.6783 15.699 30.6159 15.7125 30.5534 15.726C30.5374 15.7294 30.5214 15.7328 30.5062 15.7361C30.442 15.7496 30.3779 15.7623 30.3138 15.775C30.3011 15.7775 30.2893 15.78 30.2766 15.7817C30.2159 15.7935 30.1551 15.8045 30.0943 15.8155C30.0825 15.8171 30.0716 15.8197 30.0597 15.8214C29.9948 15.8332 29.9289 15.8442 29.8631 15.8543C29.8471 15.8568 29.831 15.8593 29.815 15.8619C29.7517 15.872 29.6884 15.8821 29.6251 15.8914C29.6066 15.8939 29.588 15.8973 29.5686 15.8999C29.5061 15.9091 29.4445 15.9184 29.3821 15.9269C29.3627 15.9294 29.3433 15.9319 29.3238 15.9353C29.2614 15.9437 29.1989 15.9522 29.1365 15.9606C29.1179 15.9631 29.0994 15.9657 29.0808 15.9674C29.0226 15.975 28.9643 15.9826 28.9061 15.9893C28.885 15.9918 28.8639 15.9944 28.842 15.9969C28.7871 16.0037 28.7323 16.0104 28.6774 16.0163C28.6571 16.0188 28.6369 16.0214 28.6175 16.0231C28.5576 16.0298 28.4976 16.0366 28.4369 16.0433C28.4124 16.0458 28.3871 16.0492 28.3626 16.0518C28.3078 16.0577 28.2521 16.0636 28.1972 16.0695C28.1634 16.0729 28.1305 16.0771 28.0968 16.0805C28.0613 16.0838 28.0267 16.088 27.9913 16.0914C27.647 16.1277 27.3035 16.1632 26.9617 16.2011C26.9549 16.2011 26.9482 16.2028 26.9414 16.2037C26.868 16.2121 26.7954 16.2205 26.722 16.229C26.7136 16.2298 26.7043 16.2307 26.6959 16.2324C26.6233 16.2408 26.5507 16.2492 26.4781 16.2585C26.4714 16.2594 26.4638 16.2602 26.457 16.261C26.3828 16.2703 26.3077 16.2796 26.2334 16.2897C26.2326 16.2897 26.2317 16.2897 26.2309 16.2897C26.1583 16.299 26.0857 16.3092 26.0131 16.3193C26.0055 16.3201 25.9971 16.3218 25.9895 16.3227C25.9203 16.3328 25.8519 16.3429 25.7827 16.353C25.7751 16.3539 25.7684 16.3547 25.7608 16.3564C25.7566 16.3564 25.7524 16.3581 25.7473 16.3581C25.6747 16.3691 25.603 16.3809 25.5312 16.3927C25.5186 16.3944 25.5059 16.3969 25.4933 16.3986C25.4224 16.4104 25.3523 16.4222 25.2823 16.4349C25.2688 16.4374 25.2553 16.44 25.2418 16.4425C25.1726 16.4552 25.1034 16.4687 25.035 16.4822C25.0215 16.4847 25.0072 16.4881 24.9937 16.4906C24.9253 16.5041 24.857 16.5184 24.7894 16.5336C24.7759 16.5362 24.7624 16.5395 24.7489 16.5429C24.6806 16.5581 24.6131 16.5733 24.5455 16.5902C24.5329 16.5936 24.5194 16.5961 24.5067 16.5995C24.4392 16.6163 24.3717 16.6332 24.305 16.6509C24.2924 16.6543 24.2806 16.6577 24.2679 16.6611C24.2004 16.6796 24.1337 16.6982 24.067 16.7176C24.0561 16.721 24.0443 16.7244 24.0333 16.7277C23.9658 16.748 23.8991 16.7682 23.8333 16.7902C23.8231 16.7936 23.8122 16.7969 23.802 16.8003C23.7354 16.8223 23.6687 16.845 23.6029 16.8687C23.5936 16.8721 23.5835 16.8754 23.5742 16.8788C23.5075 16.9033 23.4408 16.9278 23.375 16.9539C23.3666 16.9573 23.3581 16.9607 23.3497 16.964C23.283 16.9902 23.2172 17.0181 23.1514 17.0467C23.1446 17.0501 23.137 17.0527 23.1303 17.056C23.0636 17.0856 22.9978 17.1151 22.932 17.1463C22.9261 17.1489 22.9201 17.1522 22.9142 17.1548C22.8476 17.1868 22.7817 17.2197 22.7168 17.2543C22.7125 17.2569 22.7075 17.2594 22.7033 17.2619C22.6374 17.2974 22.5716 17.3337 22.5066 17.3708C22.5033 17.3725 22.5007 17.3742 22.4973 17.3759C22.4315 17.4147 22.3657 17.4544 22.3015 17.4957C22.2999 17.4966 22.2982 17.4974 22.2965 17.4991C22.2307 17.5413 22.1657 17.5852 22.1015 17.6299C22.0281 17.6814 21.9555 17.7354 21.8847 17.7894C21.861 17.8071 21.8382 17.8257 21.8155 17.8443C21.7682 17.8814 21.7209 17.9177 21.6754 17.9556C21.6484 17.9776 21.6222 18.0004 21.596 18.0223C21.5547 18.0569 21.5133 18.0924 21.4728 18.1278C21.4458 18.1523 21.4188 18.1759 21.3918 18.2004C21.353 18.2358 21.315 18.2713 21.277 18.3067C21.2509 18.332 21.2247 18.3574 21.1985 18.3827C21.1614 18.419 21.1243 18.4561 21.088 18.4932C21.0627 18.5185 21.0382 18.5447 21.0129 18.57C20.9757 18.608 20.9403 18.6468 20.904 18.6865C20.8812 18.7118 20.8576 18.7371 20.8348 18.7624C20.7968 18.8046 20.7605 18.8468 20.7234 18.8899C20.7032 18.9127 20.6837 18.9363 20.6635 18.9591C20.6205 19.0106 20.5783 19.062 20.5361 19.1144C20.5242 19.1295 20.5116 19.1439 20.4998 19.1591C20.4458 19.2274 20.3926 19.2966 20.3403 19.3667C20.3335 19.376 20.3276 19.3844 20.3209 19.3937C20.2761 19.4545 20.2322 19.5152 20.1892 19.5768C20.174 19.5988 20.1588 19.6216 20.1436 19.6435C20.1099 19.6924 20.077 19.7414 20.0441 19.7903C20.0272 19.8165 20.0103 19.8427 19.9934 19.8688C19.9639 19.9152 19.9343 19.9617 19.9056 20.0081C19.8888 20.0359 19.8719 20.0638 19.855 20.0916C19.8272 20.1372 19.8002 20.1836 19.7732 20.2292C19.7563 20.257 19.7402 20.2857 19.7242 20.3136C19.6972 20.36 19.671 20.4072 19.6457 20.4545C19.6305 20.4824 19.6153 20.5102 19.6001 20.5381C19.574 20.587 19.5478 20.636 19.5225 20.6857C19.509 20.7119 19.4955 20.7372 19.482 20.7634C19.4541 20.8174 19.4271 20.8723 19.401 20.9271C19.3925 20.944 19.3841 20.9609 19.3757 20.9786C19.374 20.9811 19.3731 20.9845 19.3714 20.9879C19.3166 21.101 19.2643 21.2149 19.2136 21.3288C19.206 21.3465 19.1976 21.3643 19.19 21.3828C19.1411 21.4942 19.0946 21.6048 19.0499 21.717C19.0423 21.7356 19.0347 21.755 19.0271 21.7736C18.9824 21.8867 18.9385 21.9997 18.8972 22.1128C18.8929 22.1255 18.8879 22.1381 18.8837 22.15C18.8423 22.2639 18.8026 22.377 18.7647 22.4901C18.7621 22.4968 18.7596 22.5044 18.7579 22.5112C18.7199 22.6251 18.6836 22.739 18.649 22.8521C18.6431 22.8707 18.6381 22.8884 18.6322 22.907C18.5993 23.0158 18.568 23.1247 18.5376 23.2327C18.5317 23.253 18.5267 23.2732 18.5208 23.2926C18.4912 23.4006 18.4625 23.5078 18.4364 23.615C18.4322 23.631 18.4288 23.6471 18.4246 23.6623C18.3967 23.7737 18.3706 23.8842 18.3452 23.9939C17.8541 21.8267 16.8101 19.1937 14.5889 17.6307C14.5476 17.6012 14.5054 17.5725 14.4623 17.5447C14.4505 17.5371 14.4387 17.5286 14.426 17.521C14.3923 17.4991 14.3585 17.4771 14.3239 17.456C14.3138 17.4501 14.3037 17.4434 14.2944 17.4375C14.2514 17.4113 14.2083 17.386 14.1653 17.3607C14.1551 17.3548 14.1442 17.3489 14.1341 17.343C14.0995 17.3236 14.0649 17.3041 14.0302 17.2856C14.0167 17.2788 14.0041 17.2712 13.9906 17.2645C13.9484 17.2417 13.9053 17.2197 13.8632 17.1986C13.8598 17.197 13.8564 17.1953 13.8522 17.1936C13.8083 17.1716 13.7644 17.1505 13.7205 17.1303C13.7062 17.1235 13.6927 17.1176 13.6783 17.1109C13.6429 17.0948 13.6074 17.0788 13.572 17.0628C13.5602 17.0577 13.5484 17.0518 13.5366 17.0467C13.491 17.0273 13.4454 17.0079 13.3998 16.9894C13.3872 16.9843 13.3745 16.9792 13.3619 16.9742C13.3264 16.9598 13.291 16.9463 13.2555 16.932C13.2403 16.9261 13.2251 16.9202 13.2091 16.9142C13.1669 16.8982 13.1239 16.8822 13.0808 16.867C13.0732 16.8645 13.0656 16.8611 13.058 16.8585C13.0142 16.8425 12.9694 16.8273 12.9247 16.813C12.9087 16.8079 12.8926 16.802 12.8758 16.7969C12.8403 16.7851 12.8049 16.7742 12.7686 16.7632C12.7542 16.759 12.7399 16.7539 12.7255 16.7497C12.6783 16.7353 12.631 16.721 12.5829 16.7075C12.5686 16.7033 12.5534 16.699 12.539 16.6948C12.5027 16.6847 12.4673 16.6746 12.431 16.6644C12.4133 16.6594 12.3964 16.6552 12.3787 16.6501C12.3365 16.6391 12.2951 16.6282 12.2529 16.6172C12.2403 16.6138 12.2276 16.6104 12.215 16.6079C12.1711 16.5969 12.1264 16.586 12.0825 16.5758C12.0639 16.5716 12.0453 16.5674 12.0268 16.5632C11.9922 16.5547 11.9567 16.5471 11.9213 16.5395C11.9044 16.5362 11.8875 16.5319 11.8706 16.5286C11.8225 16.5184 11.7736 16.5083 11.7255 16.4982C11.7078 16.4948 11.69 16.4914 11.6723 16.4872C11.6377 16.4805 11.6031 16.4737 11.5685 16.467C11.5483 16.4627 11.5289 16.4594 11.5086 16.4552C11.4689 16.4476 11.4293 16.4408 11.3896 16.4332C11.3694 16.4298 11.3499 16.4265 11.3297 16.4222C11.2883 16.4146 11.247 16.4079 11.2056 16.4011C11.1845 16.3978 11.1626 16.3944 11.1415 16.3902C11.1086 16.3851 11.0757 16.3792 11.0428 16.3741C11.0225 16.3708 11.0022 16.3674 10.9812 16.3649C10.933 16.3573 10.8849 16.3497 10.836 16.3429C10.8149 16.3395 10.7938 16.337 10.7735 16.3336C10.7415 16.3286 10.7086 16.3243 10.6765 16.3201C10.6537 16.3167 10.6301 16.3134 10.6073 16.3108C10.5727 16.3058 10.5372 16.3016 10.5026 16.2965C10.4714 16.2923 10.4402 16.2881 10.409 16.2838C10.3744 16.2796 10.3398 16.2746 10.3052 16.2703C10.2799 16.267 10.2537 16.2636 10.2284 16.261C10.2005 16.2577 10.1718 16.2543 10.144 16.2509C10.1178 16.2475 10.0925 16.245 10.0663 16.2416C10.0216 16.2366 9.97604 16.2307 9.93047 16.2256C9.90008 16.2222 9.8697 16.2189 9.84017 16.2155C9.81738 16.2129 9.79459 16.2104 9.77181 16.2079C9.74058 16.2045 9.70936 16.2011 9.67813 16.1978C9.66125 16.1961 9.64438 16.1944 9.6275 16.1918C9.22917 16.148 8.8283 16.1075 8.42828 16.0644C8.42575 16.0644 8.42237 16.0644 8.41984 16.0636C8.36245 16.0577 8.30422 16.0509 8.24684 16.0442C8.24346 16.0442 8.23924 16.0442 8.23587 16.0433C8.17679 16.0366 8.11687 16.0298 8.0578 16.0231C8.05273 16.0231 8.04683 16.0214 8.04176 16.0214C7.99113 16.0155 7.94049 16.0096 7.88901 16.0037C7.87635 16.002 7.86454 16.0011 7.85188 15.9994C7.79534 15.9927 7.73964 15.9859 7.6831 15.9783C7.6274 15.9716 7.5717 15.964 7.51515 15.9564C7.50165 15.9547 7.48815 15.953 7.47465 15.9513C7.42992 15.9454 7.38519 15.9395 7.34046 15.9328C7.3278 15.9311 7.31514 15.9294 7.30249 15.9277C7.24847 15.9201 7.19362 15.9125 7.13961 15.9041C7.12864 15.9024 7.11767 15.9007 7.1067 15.899C7.06281 15.8923 7.01808 15.8855 6.9742 15.8788C6.95816 15.8762 6.94297 15.8737 6.92694 15.8712C6.87715 15.8636 6.82651 15.8551 6.77672 15.8467C6.7725 15.8467 6.76744 15.845 6.76322 15.8442C6.71005 15.8349 6.65688 15.8264 6.60456 15.8163C6.58853 15.8138 6.57249 15.8104 6.55646 15.8079C6.51595 15.8003 6.47544 15.7927 6.43493 15.7851C6.42059 15.7825 6.40624 15.78 6.39105 15.7766C6.33872 15.7665 6.28724 15.7564 6.23492 15.7463C6.22226 15.7437 6.2096 15.7412 6.19695 15.7387C6.15644 15.7302 6.11509 15.7218 6.07458 15.7125C6.0577 15.7091 6.04082 15.7049 6.02394 15.7015C5.97837 15.6914 5.93364 15.6813 5.88807 15.6711C5.88047 15.6695 5.87288 15.6678 5.86528 15.6661C5.81465 15.6543 5.76317 15.6416 5.71253 15.629C5.6965 15.6247 5.67962 15.6205 5.66359 15.6163C5.62561 15.607 5.58763 15.5969 5.5505 15.5868C5.53531 15.5825 5.51927 15.5783 5.50408 15.5749C5.45429 15.5614 5.40534 15.5479 5.35555 15.5336C5.34205 15.5294 5.32855 15.526 5.31504 15.5218C5.27707 15.5108 5.23909 15.4998 5.20111 15.488C5.18424 15.483 5.16736 15.4779 5.15048 15.472C5.10828 15.4593 5.06693 15.4458 5.02558 15.4323C5.01714 15.4298 5.00786 15.4264 4.99857 15.4239C4.95047 15.4078 4.90152 15.3918 4.85342 15.3749C4.83738 15.369 4.82135 15.364 4.80531 15.3581C4.76987 15.3454 4.73358 15.3327 4.69814 15.3192C4.68295 15.3133 4.66775 15.3083 4.65256 15.3024C4.6053 15.2846 4.55804 15.2661 4.51163 15.2475C4.49897 15.2424 4.48547 15.2365 4.47281 15.2315C4.43652 15.2171 4.40107 15.2019 4.36479 15.1867C4.34875 15.18 4.33187 15.1724 4.31584 15.1656C4.27702 15.1488 4.23735 15.131 4.19853 15.1133C4.19009 15.1091 4.18081 15.1057 4.17237 15.1015C4.1268 15.0804 4.08123 15.0585 4.03566 15.0365C4.02046 15.0289 4.00527 15.0213 3.98924 15.0137C3.95548 14.9969 3.92173 14.98 3.88881 14.9631C3.87447 14.9555 3.86012 14.9487 3.84577 14.9412C3.80104 14.9175 3.75716 14.8939 3.71328 14.8694C3.70146 14.8627 3.68965 14.8559 3.67783 14.8492C3.64407 14.8298 3.60947 14.8103 3.57572 14.7901C3.55968 14.7808 3.5428 14.7707 3.52677 14.7606C3.50314 14.7462 3.47951 14.7319 3.45588 14.7175C3.43985 14.7074 3.42297 14.6973 3.40693 14.6871C3.37824 14.6686 3.35039 14.65 3.3217 14.6314C3.31072 14.6247 3.29975 14.6171 3.28878 14.6103C3.25081 14.585 3.21283 14.5589 3.17485 14.5318C3.16135 14.5226 3.14869 14.5133 3.13519 14.5032C3.10987 14.4846 3.08455 14.4669 3.05924 14.4475C3.04404 14.4365 3.0297 14.4247 3.01451 14.4137C2.99088 14.396 2.96809 14.3783 2.94446 14.3597C2.92927 14.3479 2.91492 14.3361 2.89973 14.3242C2.8761 14.3048 2.85247 14.2854 2.82884 14.266C2.81534 14.255 2.80184 14.2441 2.78834 14.2323C2.75795 14.2069 2.72842 14.1816 2.69888 14.1555C2.69213 14.1496 2.68538 14.1436 2.67863 14.1377C2.64234 14.1057 2.60689 14.0736 2.57145 14.0407C2.56048 14.0306 2.54951 14.0196 2.53853 14.0095C2.51406 13.9858 2.48959 13.9622 2.46511 13.9386C2.45245 13.9259 2.43895 13.9124 2.42629 13.8998C2.40351 13.877 2.38156 13.8542 2.35962 13.8314C2.34696 13.8179 2.33346 13.8044 2.3208 13.7909C2.29802 13.7664 2.27523 13.7419 2.25244 13.7175C2.24147 13.7048 2.22966 13.693 2.21869 13.6803C2.18915 13.6474 2.15961 13.6137 2.13092 13.5799C2.1267 13.5748 2.12248 13.5706 2.1191 13.5656C2.08619 13.5267 2.05328 13.4871 2.02121 13.4474C2.01193 13.4356 2.00264 13.4238 1.99336 13.412C1.97057 13.3833 1.94779 13.3546 1.925 13.325C1.91403 13.3098 1.90222 13.2955 1.89124 13.2803C1.87099 13.2525 1.84989 13.2246 1.82964 13.1968C1.81867 13.1816 1.80685 13.1655 1.79588 13.1495C1.77478 13.12 1.75368 13.0896 1.73343 13.0592C1.72415 13.0449 1.71402 13.0314 1.70474 13.017C1.67689 12.9757 1.64988 12.9343 1.62288 12.8921C1.62034 12.8887 1.61781 12.8854 1.61613 12.8811C1.58659 12.8347 1.55789 12.7883 1.5292 12.7402C1.52076 12.7267 1.51232 12.7123 1.50473 12.698C1.48447 12.6642 1.46506 12.6296 1.44481 12.595C1.43468 12.5773 1.4254 12.5596 1.41527 12.5419C1.39755 12.509 1.37898 12.4769 1.36126 12.4431C1.35113 12.4246 1.34185 12.406 1.33172 12.3874C1.31316 12.352 1.29543 12.3165 1.27687 12.2811C1.26843 12.2642 1.25999 12.2482 1.25155 12.2313C1.22708 12.1815 1.2026 12.1317 1.17897 12.0802C1.17728 12.0769 1.17644 12.0743 1.17475 12.0718C1.14944 12.0178 1.12496 11.9629 1.10049 11.9072C1.09289 11.8904 1.08614 11.8735 1.07855 11.8566C1.06167 11.8169 1.04479 11.7773 1.02791 11.7376C1.01947 11.7165 1.01103 11.6963 1.00259 11.6752C0.987402 11.6372 0.972211 11.5992 0.957864 11.5612C0.949425 11.5393 0.940986 11.5182 0.933391 11.4963C0.9182 11.4557 0.903009 11.4144 0.887819 11.373C0.881067 11.3536 0.873472 11.3342 0.866721 11.3148C0.845623 11.2549 0.825368 11.195 0.805114 11.1334C0.805114 11.1317 0.80427 11.1308 0.803426 11.1291C0.782328 11.0667 0.762918 11.0026 0.742664 10.9376C0.736756 10.9173 0.730849 10.8971 0.724097 10.8768C0.710595 10.8321 0.697092 10.7865 0.684433 10.7409C0.677682 10.7165 0.67093 10.692 0.664179 10.6675C0.652364 10.6245 0.640549 10.5806 0.628734 10.5359C0.621983 10.5106 0.615231 10.4852 0.60848 10.4599C0.596665 10.4127 0.58485 10.3654 0.573035 10.3181C0.567971 10.2953 0.562064 10.2734 0.557001 10.2506C0.540122 10.1806 0.524087 10.1088 0.508053 10.0371C0.481891 10.1308 0.457417 10.2245 0.433788 10.3181C0.421129 10.3671 0.409314 10.416 0.397499 10.465C0.388216 10.503 0.378933 10.5418 0.369649 10.5798C0.353615 10.6456 0.339268 10.7122 0.324077 10.7781C0.32239 10.7874 0.319858 10.7975 0.31817 10.8068C0.289477 10.9376 0.262471 11.0675 0.237997 11.1975C0.233778 11.2203 0.229558 11.2422 0.225338 11.265C0.218587 11.3005 0.212679 11.3359 0.205928 11.3714C0.200021 11.4026 0.194113 11.4346 0.18905 11.4659C0.18905 11.4659 0.18905 11.4667 0.18905 11.4676C0.18905 11.465 0.18905 11.4633 0.189893 11.4608C0.0784955 12.1106 0.017733 12.7427 0.00423017 13.3554C0.000854476 13.4955 1.05739e-05 13.6348 0.00169842 13.7732C0.00169842 13.7732 0.00169842 13.7732 0.00169842 13.774C0.0135134 14.7825 0.151917 15.7353 0.394967 16.6282C0.850686 18.3008 1.67604 19.7616 2.7301 20.9761C2.74108 20.9887 2.75289 21.0022 2.76386 21.0149C2.90733 21.1786 3.05502 21.3381 3.20692 21.4934C3.21874 21.506 3.2314 21.5179 3.24321 21.5297C3.3141 21.6014 3.38499 21.6714 3.45757 21.7415C3.46348 21.7466 3.46854 21.7525 3.47445 21.7575C3.55293 21.8326 3.63226 21.9069 3.71328 21.9795C3.72425 21.9888 3.73437 21.998 3.74535 22.0082C3.81624 22.0715 3.88713 22.1348 3.95886 22.1964C3.97152 22.2073 3.98502 22.2192 3.99768 22.2301C4.07954 22.2993 4.1614 22.3677 4.2441 22.4352C4.25001 22.4394 4.25508 22.4436 4.26098 22.4487C4.33694 22.5095 4.41373 22.5694 4.49137 22.6285C4.5091 22.642 4.52598 22.6555 4.5437 22.6681C4.58589 22.6993 4.62725 22.7314 4.66944 22.7618C4.66944 22.7618 4.67029 22.7618 4.67113 22.7626C4.79519 22.8538 4.92178 22.9432 5.04836 23.0293C5.06777 23.0428 5.08803 23.0563 5.10744 23.069C5.18086 23.1179 5.25513 23.1669 5.32939 23.2141C5.34289 23.2226 5.35555 23.231 5.36906 23.2395C5.45429 23.2935 5.54037 23.3466 5.6273 23.3981C5.64671 23.4099 5.66696 23.4217 5.68637 23.4336C5.75726 23.4758 5.82815 23.5163 5.89904 23.5568C5.92014 23.5686 5.94039 23.5804 5.96149 23.5922C6.04841 23.6403 6.13534 23.6876 6.22311 23.734C6.2383 23.7424 6.25433 23.75 6.26952 23.7576C6.34379 23.7964 6.41805 23.8344 6.49316 23.8707C6.51764 23.8825 6.54127 23.8943 6.56574 23.9062C6.6552 23.9492 6.74381 23.9922 6.83411 24.0327C11.1812 26.016 14.6362 26.4548 16.0118 28.6828C16.0244 28.7039 16.0371 28.725 16.0498 28.7461C16.086 28.8085 16.1223 28.871 16.1561 28.9359C16.2109 29.0423 16.2599 29.1511 16.3038 29.2617C16.4346 29.5925 16.5173 29.9385 16.562 30.2896C16.665 30.2693 16.7637 30.2482 16.8582 30.2263C17.5511 30.066 18.0212 29.8693 18.298 29.7292C18.4068 29.6744 18.4735 29.633 18.5182 29.6035C18.568 29.633 18.6415 29.6761 18.763 29.7351C19.0145 29.8575 19.3968 30.0238 19.882 30.1757C19.947 29.747 20.0702 29.3275 20.2719 28.9359C20.3074 28.8676 20.3453 28.8009 20.3842 28.7359C20.396 28.7157 20.4086 28.6954 20.4213 28.676C20.4508 28.6296 20.4804 28.584 20.5116 28.5385C20.5251 28.519 20.5386 28.4988 20.5529 28.4794C22.0382 26.4253 25.6334 25.9535 29.8454 24.0327C29.9365 23.9914 30.0277 23.9475 30.1188 23.9036C30.1424 23.8918 30.1661 23.8808 30.1889 23.869C30.2716 23.8285 30.3534 23.7863 30.4353 23.7441C30.4446 23.7391 30.453 23.7348 30.4623 23.7298C30.5526 23.6825 30.6429 23.6327 30.7324 23.5829C30.7526 23.572 30.7729 23.5601 30.7931 23.5483C30.8724 23.5028 30.9518 23.4572 31.0311 23.4099C31.0421 23.4032 31.0539 23.3964 31.0649 23.3897C31.1552 23.3357 31.2446 23.28 31.3341 23.2226C31.3484 23.2133 31.3628 23.204 31.3771 23.1947C31.4581 23.1424 31.5391 23.0892 31.6185 23.0352C31.6286 23.0285 31.6387 23.0217 31.6489 23.015C31.6565 23.0099 31.6649 23.0048 31.6725 22.9989C31.7552 22.9424 31.837 22.8842 31.9181 22.8259C31.924 22.8217 31.9299 22.8175 31.9358 22.8124C31.9417 22.8082 31.9476 22.804 31.9535 22.7998C31.9704 22.7871 31.9873 22.7753 32.0041 22.7626C32.0666 22.7171 32.1282 22.6707 32.189 22.6242C32.1966 22.6183 32.205 22.6124 32.2126 22.6065C32.2328 22.5905 32.2539 22.5753 32.2742 22.5593C32.2759 22.5576 32.2776 22.5567 32.2793 22.555C32.4354 22.4335 32.589 22.3069 32.7392 22.177C32.7443 22.1727 32.7493 22.1677 32.7552 22.1635C32.9291 22.0132 33.0987 21.8571 33.265 21.6968C33.2683 21.6942 33.2709 21.6909 33.2743 21.6883C33.4413 21.5254 33.6042 21.3567 33.7629 21.1837C33.7637 21.1828 33.7646 21.1811 33.7663 21.1803C34.8279 20.014 35.6761 18.608 36.1782 16.9944C36.1782 16.9944 36.1782 16.9936 36.1782 16.9927C36.2153 16.8729 36.2508 16.7514 36.2845 16.629C36.2854 16.6248 36.2871 16.6206 36.2879 16.6172L36.2904 16.6206ZM18.5216 29.5891C18.509 29.5866 18.4955 29.5858 18.5157 29.5858C18.5284 29.5858 18.5267 29.5866 18.5216 29.5891Z" fill="#6BC1BF"/>
<path fill-rule="evenodd" clip-rule="evenodd" d="M35.671 17.8319C35.244 18.4395 34.7283 19.0074 34.1072 19.4935C31.9594 21.1746 29.9095 21.5147 27.9103 21.8472C25.1295 22.3089 22.4492 22.7545 19.758 26.834L19.6314 26.7513C22.3589 22.6161 25.0721 22.1654 27.8858 21.6979C29.8656 21.3687 31.8961 21.032 34.0135 19.3745C34.6211 18.8986 35.1267 18.3424 35.5461 17.7449C35.8693 17.2842 36.1411 16.7997 36.3681 16.3103C36.3723 16.2934 36.3773 16.2765 36.3807 16.2596C36.3807 16.2579 36.3816 16.2554 36.3824 16.2537C36.5639 15.4807 36.6668 14.6638 36.6795 13.808C36.3022 14.7001 35.768 15.4815 35.1418 16.16C34.1384 17.247 32.9021 18.0698 31.7121 18.6657C30.5939 19.2252 29.004 19.529 27.4123 19.8336C25.5068 20.1982 23.597 20.5636 22.5201 21.362C21.8686 21.8447 21.2298 22.5739 20.6719 23.4752C20.1369 24.3402 19.6778 25.3639 19.3562 26.4821L19.2102 26.4407C19.536 25.309 20.001 24.2727 20.5428 23.3958C21.1108 22.4777 21.7631 21.735 22.4298 21.2405C23.5345 20.421 25.4612 20.0522 27.3845 19.6843C28.9669 19.3813 30.5467 19.0792 31.6446 18.5306C32.8202 17.9424 34.0405 17.1306 35.0304 16.0579C35.7258 15.3043 36.3073 14.4207 36.6786 13.397C36.6786 13.3835 36.6786 13.3709 36.6786 13.3582C36.6651 12.7801 36.6094 12.1843 36.5098 11.5733C36.3292 12.5134 35.9107 13.3844 35.3334 14.1439C34.4304 15.3322 33.1401 16.2495 31.7687 16.7398C30.8699 17.0605 29.7416 17.2816 28.5457 17.5162C26.1406 17.988 23.4619 18.5129 21.8838 20.005C19.5714 22.1924 19.0626 25.0888 18.8625 26.2306L18.8499 26.3023L18.7005 26.2762L18.7132 26.2044C18.9157 25.0491 19.4305 22.1173 21.7808 19.8953C23.391 18.372 26.0924 17.842 28.517 17.3669C29.707 17.1339 30.8294 16.9137 31.718 16.5964C33.0641 16.1153 34.3291 15.2165 35.2136 14.0519C35.8659 13.1937 36.3098 12.1911 36.4271 11.1075C36.4086 11.013 36.3892 10.9176 36.3681 10.8222C36.3647 10.8062 36.3613 10.7902 36.3571 10.7733C36.3436 10.7117 36.3292 10.6501 36.3149 10.5876C36.3048 10.5454 36.2946 10.5024 36.2845 10.4602C36.2735 10.4146 36.2626 10.369 36.2508 10.3226C36.2271 10.2289 36.2018 10.1344 36.1765 10.0399C36.1605 10.1125 36.1444 10.1834 36.1275 10.2534C36.1225 10.2762 36.1166 10.2981 36.1115 10.3201C36.0997 10.3682 36.0879 10.4155 36.0761 10.4627C36.0693 10.488 36.0626 10.5133 36.0567 10.5378C36.0448 10.5817 36.033 10.6256 36.0212 10.6695C36.0145 10.6939 36.0077 10.7184 36.001 10.7421C35.9875 10.7885 35.974 10.834 35.9604 10.8796C35.9545 10.8999 35.9486 10.9193 35.9427 10.9395C35.9225 11.0045 35.9031 11.0678 35.882 11.1311C35.882 11.1328 35.8811 11.1336 35.8803 11.1353C35.86 11.1969 35.8389 11.2568 35.8187 11.3168C35.8119 11.3362 35.8052 11.3547 35.7984 11.3742C35.7832 11.4163 35.768 11.4577 35.7528 11.4991C35.7444 11.5201 35.7368 11.5421 35.7284 11.5632C35.7132 11.602 35.698 11.64 35.6828 11.6788C35.6744 11.6999 35.6659 11.7202 35.6575 11.7404C35.6406 11.7809 35.6237 11.8206 35.6068 11.8603C35.5993 11.8771 35.5925 11.894 35.5849 11.9109C35.5604 11.9666 35.536 12.0214 35.5106 12.0763C35.509 12.0797 35.5081 12.0822 35.5064 12.0847C35.4828 12.1354 35.4583 12.186 35.4338 12.2358C35.4254 12.2527 35.417 12.2687 35.4085 12.2856C35.3908 12.321 35.3722 12.3573 35.3537 12.3919C35.3444 12.4105 35.3343 12.4291 35.3241 12.4468C35.3064 12.4797 35.2887 12.5126 35.271 12.5447C35.2608 12.5624 35.2507 12.5801 35.2414 12.5978C35.222 12.6324 35.2018 12.6662 35.1824 12.7C35.1739 12.7143 35.1655 12.7286 35.157 12.743C35.1283 12.7903 35.0996 12.8375 35.0701 12.8831C35.0676 12.8873 35.065 12.8915 35.0625 12.8949C35.0355 12.9363 35.0093 12.9776 34.9815 13.0181C34.9714 13.0333 34.9612 13.0477 34.9511 13.062C34.9309 13.0915 34.9106 13.1211 34.8895 13.1506C34.8777 13.1666 34.8667 13.1827 34.8549 13.1987C34.8347 13.2266 34.8144 13.2536 34.7941 13.2806C34.7823 13.2958 34.7714 13.3118 34.7595 13.327C34.7376 13.3557 34.7157 13.3844 34.6929 13.4122C34.6828 13.4249 34.6735 13.4375 34.6633 13.4494C34.6313 13.489 34.5992 13.5287 34.5663 13.5667C34.5612 13.5726 34.5562 13.5776 34.5511 13.5835C34.5233 13.6165 34.4946 13.6485 34.4667 13.6806C34.4549 13.6941 34.4431 13.7068 34.4313 13.7194C34.4093 13.7439 34.3874 13.7675 34.3646 13.7911C34.3511 13.8055 34.3376 13.819 34.3241 13.8333C34.3021 13.8561 34.281 13.8781 34.2591 13.9C34.2456 13.9135 34.2321 13.927 34.2186 13.9405C34.195 13.9633 34.1713 13.9861 34.1477 14.0089C34.1359 14.0199 34.1241 14.0317 34.1123 14.0426C34.0777 14.0756 34.0422 14.1076 34.0068 14.1388C33.9983 14.1464 33.9899 14.1532 33.9814 14.1608C33.9536 14.1853 33.9258 14.2097 33.8971 14.2334C33.8827 14.2452 33.8684 14.257 33.854 14.2688C33.8312 14.2874 33.8084 14.3059 33.7857 14.3245C33.7696 14.3372 33.7544 14.3498 33.7384 14.3616C33.7165 14.3794 33.6937 14.3962 33.6709 14.4131C33.6549 14.4249 33.6397 14.4368 33.6236 14.4486C33.6 14.4663 33.5755 14.484 33.551 14.5009C33.5367 14.511 33.5224 14.522 33.508 14.5321C33.4709 14.5583 33.4337 14.5844 33.3958 14.6098C33.3831 14.6182 33.3704 14.6266 33.3578 14.6342C33.3316 14.652 33.3046 14.6688 33.2785 14.6857C33.2616 14.6967 33.2439 14.7077 33.227 14.7178C33.2042 14.7321 33.1823 14.7456 33.1595 14.7591C33.1443 14.7684 33.1299 14.7769 33.1147 14.7861C33.059 14.819 33.0033 14.8511 32.9476 14.8823C32.9367 14.8882 32.9249 14.8942 32.9139 14.9009C32.8557 14.9321 32.7974 14.9634 32.7383 14.9937C32.7308 14.998 32.7232 15.0013 32.7147 15.0056C32.6573 15.0342 32.5999 15.0621 32.5426 15.0891C32.535 15.0925 32.5265 15.0967 32.5189 15.1001C32.459 15.1279 32.3991 15.1541 32.3383 15.1802C32.3257 15.1853 32.3139 15.1912 32.3012 15.1963C32.2421 15.2208 32.183 15.2452 32.124 15.268C32.1096 15.2739 32.0961 15.279 32.0818 15.2849C32.0227 15.3077 31.9636 15.3296 31.9037 15.3516C31.8894 15.3566 31.875 15.3617 31.8615 15.3668C31.8007 15.3879 31.74 15.409 31.6792 15.4292C31.6674 15.4334 31.6547 15.4368 31.6429 15.441C31.5813 15.4604 31.5197 15.4798 31.4581 15.4984C31.4488 15.5009 31.4404 15.5035 31.4311 15.506C31.3695 15.5246 31.3079 15.5414 31.2463 15.5592C31.2336 15.5625 31.2218 15.5659 31.2092 15.5693C31.1467 15.5862 31.0843 15.6022 31.021 15.6182C31.0058 15.6225 30.9897 15.6258 30.9745 15.6301C30.9129 15.6452 30.8505 15.6604 30.7889 15.6748C30.7728 15.6782 30.756 15.6824 30.7399 15.6858C30.6775 15.7001 30.615 15.7136 30.5526 15.7271C30.5366 15.7305 30.5205 15.7339 30.5053 15.7372C30.4412 15.7507 30.377 15.7634 30.3129 15.7761C30.3003 15.7786 30.2884 15.7811 30.2758 15.7828C30.215 15.7946 30.1543 15.8056 30.0935 15.8166C30.0817 15.8183 30.0707 15.8208 30.0589 15.8225C29.9939 15.8343 29.9281 15.8453 29.8623 15.8554C29.8462 15.8579 29.8302 15.8605 29.8142 15.863C29.7509 15.8731 29.6876 15.8832 29.6243 15.8925C29.6057 15.8951 29.5871 15.8984 29.5677 15.901C29.5053 15.9102 29.4437 15.9195 29.3812 15.928C29.3618 15.9305 29.3424 15.933 29.323 15.9364C29.2605 15.9448 29.1981 15.9533 29.1356 15.9617C29.1171 15.9643 29.0985 15.9668 29.0799 15.9685C29.0217 15.9761 28.9635 15.9837 28.9052 15.9904C28.8841 15.9929 28.863 15.9955 28.8411 15.998C28.7863 16.0048 28.7314 16.0115 28.6765 16.0174C28.6563 16.02 28.636 16.0225 28.6166 16.0242C28.5567 16.0309 28.4968 16.0377 28.436 16.0444C28.4115 16.047 28.3862 16.0503 28.3618 16.0529C28.3069 16.0588 28.2512 16.0647 28.1963 16.0706C28.1626 16.074 28.1297 16.0782 28.0959 16.0816C28.0605 16.0849 28.0259 16.0892 27.9904 16.0925C27.6461 16.1288 27.3026 16.1643 26.9608 16.2022C26.9541 16.2022 26.9473 16.2039 26.9406 16.2048C26.8672 16.2132 26.7946 16.2217 26.7212 16.2301C26.7127 16.2309 26.7034 16.2318 26.695 16.2335C26.6224 16.2419 26.5499 16.2503 26.4773 16.2596C26.4705 16.2605 26.4629 16.2613 26.4562 16.2622C26.3819 16.2714 26.3068 16.2807 26.2325 16.2909C26.2317 16.2909 26.2309 16.2909 26.23 16.2909C26.1574 16.3001 26.0849 16.3103 26.0123 16.3204C26.0047 16.3212 25.9962 16.3229 25.9886 16.3238C25.9194 16.3339 25.8511 16.344 25.7819 16.3541C25.7743 16.355 25.7675 16.3558 25.7599 16.3575C25.7557 16.3575 25.7515 16.3592 25.7464 16.3592C25.6739 16.3702 25.6021 16.382 25.5304 16.3938C25.5177 16.3955 25.5051 16.398 25.4924 16.3997C25.4215 16.4115 25.3515 16.4233 25.2814 16.436C25.2679 16.4385 25.2544 16.4411 25.2409 16.4436C25.1717 16.4563 25.1025 16.4698 25.0342 16.4833C25.0207 16.4858 25.0063 16.4892 24.9928 16.4917C24.9245 16.5052 24.8561 16.5196 24.7886 16.5347C24.7751 16.5373 24.7616 16.5407 24.7481 16.544C24.6797 16.5592 24.6122 16.5744 24.5447 16.5913C24.532 16.5947 24.5185 16.5972 24.5059 16.6006C24.4384 16.6175 24.3708 16.6343 24.3042 16.6521C24.2915 16.6554 24.2797 16.6588 24.267 16.6622C24.1995 16.6807 24.1329 16.6993 24.0662 16.7187C24.0552 16.7221 24.0434 16.7255 24.0324 16.7288C23.9649 16.7491 23.8982 16.7694 23.8324 16.7913C23.8223 16.7947 23.8113 16.7981 23.8012 16.8014C23.7345 16.8234 23.6679 16.8462 23.602 16.8698C23.5927 16.8732 23.5826 16.8765 23.5733 16.8799C23.5067 16.9044 23.44 16.9289 23.3742 16.955C23.3657 16.9584 23.3573 16.9618 23.3488 16.9651C23.2822 16.9913 23.2164 17.0192 23.1505 17.0479C23.1438 17.0512 23.1362 17.0538 23.1294 17.0571C23.0628 17.0867 22.9969 17.1162 22.9311 17.1474C22.9252 17.15 22.9193 17.1533 22.9134 17.1559C22.8467 17.1879 22.7809 17.2209 22.7159 17.2555C22.7117 17.258 22.7066 17.2605 22.7024 17.2631C22.6366 17.2985 22.5708 17.3348 22.5058 17.3719C22.5024 17.3736 22.4999 17.3753 22.4965 17.377C22.4307 17.4158 22.3648 17.4555 22.3007 17.4968C22.299 17.4977 22.2973 17.4985 22.2956 17.5002C22.2298 17.5424 22.1648 17.5863 22.1007 17.631C22.0273 17.6825 21.9547 17.7365 21.8838 17.7905C21.8602 17.8082 21.8374 17.8268 21.8146 17.8454C21.7673 17.8825 21.7201 17.9188 21.6745 17.9568C21.6475 17.9787 21.6213 18.0015 21.5952 18.0234C21.5538 18.058 21.5125 18.0935 21.472 18.1289C21.445 18.1534 21.418 18.177 21.3909 18.2015C21.3521 18.2369 21.3141 18.2724 21.2762 18.3078C21.25 18.3331 21.2238 18.3585 21.1977 18.3838C21.1606 18.4201 21.1234 18.4572 21.0871 18.4943C21.0618 18.5197 21.0373 18.5458 21.012 18.5711C20.9749 18.6091 20.9394 18.6479 20.9032 18.6876C20.8804 18.7129 20.8567 18.7382 20.834 18.7635C20.796 18.8057 20.7597 18.8479 20.7226 18.891C20.7023 18.9138 20.6829 18.9374 20.6626 18.9602C20.6196 19.0117 20.5774 19.0631 20.5352 19.1155C20.5234 19.1307 20.5107 19.145 20.4989 19.1602C20.4449 19.2286 20.3917 19.2978 20.3394 19.3678C20.3327 19.3771 20.3268 19.3855 20.32 19.3948C20.2753 19.4556 20.2314 19.5163 20.1884 19.5779C20.1732 19.5999 20.158 19.6227 20.1428 19.6446C20.109 19.6936 20.0761 19.7425 20.0432 19.7914C20.0263 19.8176 20.0094 19.8438 19.9926 19.8699C19.963 19.9164 19.9335 19.9628 19.9048 20.0092C19.8879 20.037 19.871 20.0649 19.8542 20.0927C19.8263 20.1383 19.7993 20.1847 19.7723 20.2303C19.7554 20.2581 19.7394 20.2868 19.7234 20.3147C19.6963 20.3611 19.6702 20.4084 19.6449 20.4556C19.6297 20.4835 19.6145 20.5113 19.5993 20.5392C19.5731 20.5881 19.547 20.6371 19.5217 20.6869C19.5082 20.713 19.4946 20.7383 19.4811 20.7645C19.4533 20.8185 19.4263 20.8734 19.4001 20.9282C19.3917 20.9451 19.3832 20.962 19.3748 20.9797C19.3731 20.9822 19.3723 20.9856 19.3706 20.989C19.3157 21.1021 19.2634 21.216 19.2128 21.3299C19.2052 21.3476 19.1967 21.3654 19.1891 21.3839C19.1402 21.4953 19.0938 21.6059 19.0491 21.7181C19.0415 21.7367 19.0339 21.7561 19.0263 21.7747C18.9815 21.8878 18.9377 22.0008 18.8963 22.1139C18.8921 22.1266 18.887 22.1392 18.8828 22.1511C18.8414 22.265 18.8018 22.3781 18.7638 22.4912C18.7613 22.4979 18.7587 22.5055 18.7571 22.5123C18.7191 22.6262 18.6828 22.7401 18.6482 22.8532C18.6423 22.8718 18.6372 22.8895 18.6313 22.9081C18.5984 23.0169 18.5672 23.1258 18.5368 23.2338C18.5309 23.2541 18.5258 23.2743 18.5199 23.2937C18.4904 23.4018 18.4617 23.5089 18.4355 23.6161C18.4313 23.6321 18.4279 23.6482 18.4237 23.6634C18.3959 23.7748 18.3697 23.8853 18.3444 23.995C17.8532 21.8278 16.8093 19.1948 14.5881 17.6318C14.5467 17.6023 14.5045 17.5736 14.4615 17.5458C14.4497 17.5382 14.4379 17.5297 14.4252 17.5221C14.3914 17.5002 14.3577 17.4783 14.3231 17.4572C14.313 17.4512 14.3028 17.4445 14.2935 17.4386C14.2505 17.4124 14.2075 17.3871 14.1644 17.3618C14.1543 17.3559 14.1433 17.35 14.1332 17.3441C14.0986 17.3247 14.064 17.3052 14.0294 17.2867C14.0159 17.2799 14.0032 17.2723 13.9897 17.2656C13.9475 17.2428 13.9045 17.2209 13.8623 17.1998C13.8589 17.1981 13.8555 17.1964 13.8513 17.1947C13.8074 17.1728 13.7636 17.1517 13.7197 17.1314C13.7053 17.1246 13.6918 17.1187 13.6775 17.112C13.642 17.096 13.6066 17.0799 13.5711 17.0639C13.5593 17.0588 13.5475 17.0529 13.5357 17.0479C13.4901 17.0284 13.4446 17.009 13.399 16.9905C13.3863 16.9854 13.3737 16.9803 13.361 16.9753C13.3256 16.9609 13.2901 16.9474 13.2547 16.9331C13.2395 16.9272 13.2243 16.9213 13.2083 16.9154C13.1661 16.8993 13.123 16.8833 13.08 16.8681C13.0724 16.8656 13.0648 16.8622 13.0572 16.8597C13.0133 16.8436 12.9686 16.8284 12.9239 16.8141C12.9078 16.809 12.8918 16.8031 12.8749 16.798C12.8395 16.7862 12.804 16.7753 12.7677 16.7643C12.7534 16.7601 12.739 16.755 12.7247 16.7508C12.6774 16.7364 12.6302 16.7221 12.5821 16.7086C12.5677 16.7044 12.5525 16.7002 12.5382 16.6959C12.5019 16.6858 12.4664 16.6757 12.4302 16.6656C12.4124 16.6605 12.3956 16.6563 12.3778 16.6512C12.3356 16.6402 12.2943 16.6293 12.2521 16.6183C12.2394 16.6149 12.2268 16.6115 12.2141 16.609C12.1702 16.598 12.1255 16.5871 12.0816 16.5769C12.0631 16.5727 12.0445 16.5685 12.0259 16.5643C11.9913 16.5558 11.9559 16.5482 11.9204 16.5407C11.9036 16.5373 11.8867 16.5331 11.8698 16.5297C11.8217 16.5196 11.7727 16.5094 11.7246 16.4993C11.7069 16.4959 11.6892 16.4925 11.6715 16.4883C11.6369 16.4816 11.6023 16.4748 11.5677 16.4681C11.5474 16.4639 11.528 16.4605 11.5077 16.4563C11.4681 16.4487 11.4284 16.4419 11.3888 16.4343C11.3685 16.4309 11.3491 16.4276 11.3288 16.4233C11.2875 16.4158 11.2461 16.409 11.2048 16.4022C11.1837 16.3989 11.1617 16.3955 11.1406 16.3913C11.1077 16.3862 11.0748 16.3803 11.0419 16.3752C11.0216 16.3719 11.0014 16.3685 10.9803 16.366C10.9322 16.3584 10.8841 16.3508 10.8351 16.344C10.814 16.3406 10.7929 16.3381 10.7727 16.3347C10.7406 16.3297 10.7077 16.3255 10.6756 16.3212C10.6529 16.3179 10.6292 16.3145 10.6064 16.312C10.5718 16.3069 10.5364 16.3027 10.5018 16.2976C10.4706 16.2934 10.4393 16.2892 10.4081 16.2849C10.3735 16.2807 10.3389 16.2757 10.3043 16.2714C10.279 16.2681 10.2528 16.2647 10.2275 16.2622C10.1997 16.2588 10.171 16.2554 10.1431 16.252C10.117 16.2487 10.0916 16.2461 10.0655 16.2427C10.0208 16.2377 9.97518 16.2318 9.92961 16.2267C9.89923 16.2233 9.86885 16.22 9.83931 16.2166C9.81653 16.2141 9.79374 16.2115 9.77095 16.209C9.73973 16.2056 9.7085 16.2022 9.67728 16.1989C9.6604 16.1972 9.64352 16.1955 9.62664 16.193C9.22831 16.1491 8.82745 16.1086 8.42743 16.0655C8.42489 16.0655 8.42152 16.0655 8.41899 16.0647C8.3616 16.0588 8.30337 16.052 8.24598 16.0453C8.24261 16.0453 8.23839 16.0453 8.23501 16.0444C8.17594 16.0377 8.11602 16.0309 8.05694 16.0242C8.05188 16.0242 8.04597 16.0225 8.04091 16.0225C7.99027 16.0166 7.93964 16.0107 7.88816 16.0048C7.8755 16.0031 7.86369 16.0022 7.85103 16.0005C7.79448 15.9938 7.73878 15.987 7.68224 15.9794C7.62654 15.9727 7.57084 15.9651 7.5143 15.9575C7.5008 15.9558 7.48729 15.9541 7.47379 15.9524C7.42906 15.9465 7.38434 15.9406 7.33961 15.9339C7.32695 15.9322 7.31429 15.9305 7.30163 15.9288C7.24762 15.9212 7.19277 15.9136 7.13875 15.9052C7.12778 15.9035 7.11681 15.9018 7.10584 15.9001C7.06196 15.8934 7.01723 15.8866 6.97334 15.8799C6.95731 15.8773 6.94212 15.8748 6.92609 15.8723C6.87629 15.8647 6.82566 15.8562 6.77587 15.8478C6.77165 15.8478 6.76658 15.8461 6.76236 15.8453C6.7092 15.836 6.65603 15.8275 6.60371 15.8174C6.58767 15.8149 6.57164 15.8115 6.5556 15.809C6.51509 15.8014 6.47459 15.7938 6.43408 15.7862C6.41973 15.7837 6.40538 15.7811 6.39019 15.7777C6.33787 15.7676 6.28639 15.7575 6.23407 15.7474C6.22141 15.7448 6.20875 15.7423 6.19609 15.7398C6.15558 15.7313 6.11423 15.7229 6.07372 15.7136C6.05684 15.7102 6.03997 15.706 6.02309 15.7026C5.97751 15.6925 5.93279 15.6824 5.88722 15.6723C5.87962 15.6706 5.87202 15.6689 5.86443 15.6672C5.81379 15.6554 5.76231 15.6427 5.71168 15.6301C5.69564 15.6258 5.67877 15.6216 5.66273 15.6174C5.62475 15.6081 5.58678 15.598 5.54965 15.5879C5.53445 15.5836 5.51842 15.5794 5.50323 15.576C5.45344 15.5625 5.40449 15.549 5.3547 15.5347C5.3412 15.5305 5.32769 15.5271 5.31419 15.5229C5.27621 15.5119 5.23824 15.5009 5.20026 15.4891C5.18338 15.4841 5.1665 15.479 5.14962 15.4739C5.10743 15.4613 5.06608 15.4478 5.02472 15.4343C5.01628 15.4317 5.007 15.4284 4.99772 15.4258C4.94962 15.4098 4.90067 15.3938 4.85256 15.3769C4.83653 15.371 4.82049 15.3659 4.80446 15.36C4.76902 15.3473 4.73273 15.3347 4.69728 15.3212C4.68209 15.3153 4.6669 15.3102 4.65171 15.3043C4.60445 15.2866 4.55719 15.268 4.51077 15.2495C4.49812 15.2444 4.48461 15.2385 4.47195 15.2334C4.43567 15.2191 4.40022 15.2039 4.36393 15.1887C4.3479 15.1819 4.33102 15.1743 4.31498 15.1676C4.27616 15.1507 4.2365 15.133 4.19768 15.1153C4.18924 15.111 4.17996 15.1077 4.17152 15.1035C4.12595 15.0824 4.08037 15.0604 4.0348 15.0385C4.01961 15.0309 4.00442 15.0233 3.98839 15.0157C3.95463 14.9988 3.92087 14.9819 3.88796 14.965C3.87361 14.9575 3.85927 14.9507 3.84492 14.9431C3.80019 14.9195 3.75631 14.8958 3.71242 14.8714C3.70061 14.8646 3.68879 14.8579 3.67698 14.8511C3.64322 14.8317 3.60862 14.8123 3.57486 14.792C3.55883 14.7828 3.54195 14.7726 3.52591 14.7625C3.50229 14.7482 3.47866 14.7338 3.45503 14.7195C3.43899 14.7093 3.42211 14.6992 3.40608 14.6891C3.37738 14.6705 3.34953 14.652 3.32084 14.6334C3.30987 14.6266 3.2989 14.619 3.28793 14.6123C3.24995 14.587 3.21198 14.5608 3.174 14.5338C3.1605 14.5245 3.14784 14.5152 3.13433 14.5051C3.10902 14.4865 3.0837 14.4688 3.05838 14.4494C3.04319 14.4384 3.02884 14.4266 3.01365 14.4157C2.99002 14.3979 2.96724 14.3802 2.94361 14.3616C2.92842 14.3498 2.91407 14.338 2.89888 14.3262C2.87525 14.3068 2.85162 14.2874 2.82799 14.268C2.81449 14.257 2.80098 14.246 2.78748 14.2342C2.7571 14.2089 2.72756 14.1836 2.69803 14.1574C2.69127 14.1515 2.68452 14.1456 2.67777 14.1397C2.64148 14.1076 2.60604 14.0756 2.57059 14.0426C2.55962 14.0325 2.54865 14.0215 2.53768 14.0114C2.51321 13.9878 2.48873 13.9642 2.46426 13.9405C2.4516 13.9279 2.4381 13.9144 2.42544 13.9017C2.40265 13.8789 2.38071 13.8561 2.35877 13.8333C2.34611 13.8198 2.33261 13.8063 2.31995 13.7928C2.29716 13.7684 2.27438 13.7439 2.25159 13.7194C2.24062 13.7068 2.2288 13.6949 2.21783 13.6823C2.1883 13.6494 2.15876 13.6156 2.13006 13.5819C2.12584 13.5768 2.12163 13.5726 2.11825 13.5675C2.08534 13.5287 2.05242 13.489 2.02035 13.4494C2.01107 13.4375 2.00179 13.4257 1.9925 13.4139C1.96972 13.3852 1.94693 13.3565 1.92415 13.327C1.91318 13.3118 1.90136 13.2975 1.89039 13.2823C1.87014 13.2544 1.84904 13.2266 1.82878 13.1987C1.81781 13.1835 1.806 13.1675 1.79503 13.1515C1.77393 13.1219 1.75283 13.0915 1.73258 13.0612C1.72329 13.0468 1.71317 13.0333 1.70388 13.019C1.67603 12.9776 1.64903 12.9363 1.62202 12.8941C1.61949 12.8907 1.61696 12.8873 1.61527 12.8831C1.58573 12.8367 1.55704 12.7903 1.52835 12.7422C1.51991 12.7286 1.51147 12.7143 1.50387 12.7C1.48362 12.6662 1.46421 12.6316 1.44395 12.597C1.43383 12.5793 1.42454 12.5616 1.41442 12.5438C1.39669 12.5109 1.37813 12.4788 1.36041 12.4451C1.35028 12.4265 1.341 12.408 1.33087 12.3894C1.3123 12.3539 1.29458 12.3185 1.27601 12.2831C1.26757 12.2662 1.25913 12.2501 1.2507 12.2333C1.22622 12.1835 1.20175 12.1337 1.17812 12.0822C1.17643 12.0788 1.17559 12.0763 1.1739 12.0738C1.14858 12.0198 1.12411 11.9649 1.09963 11.9092C1.09204 11.8923 1.08529 11.8754 1.07769 11.8586C1.06081 11.8189 1.04393 11.7792 1.02706 11.7396C1.01862 11.7185 1.01018 11.6982 1.00174 11.6771C0.986547 11.6391 0.971357 11.6012 0.95701 11.5632C0.948571 11.5412 0.940132 11.5201 0.932536 11.4982C0.917346 11.4577 0.902155 11.4163 0.886964 11.375C0.880213 11.3556 0.872618 11.3362 0.865866 11.3168C0.844768 11.2568 0.824514 11.1969 0.80426 11.1353C0.80426 11.1336 0.803416 11.1328 0.802572 11.1311C0.782318 11.0687 0.762064 11.0045 0.741809 10.9395C0.735902 10.9193 0.729994 10.899 0.723243 10.8788C0.70974 10.834 0.696237 10.7885 0.683579 10.7429C0.676827 10.7184 0.670076 10.6939 0.663324 10.6695C0.651509 10.6264 0.639695 10.5825 0.62788 10.5378C0.621128 10.5125 0.614377 10.4872 0.607625 10.4619C0.59581 10.4146 0.583996 10.3673 0.572181 10.3201C0.567117 10.2973 0.561209 10.2754 0.556146 10.2526C0.539267 10.1825 0.523233 10.1108 0.507198 10.0391C0.481037 10.1327 0.456563 10.2264 0.432933 10.3201C0.420274 10.369 0.408459 10.418 0.396644 10.4669C0.387361 10.5049 0.378078 10.5437 0.368795 10.5817C0.35276 10.6475 0.338414 10.7142 0.323223 10.78C0.321535 10.7893 0.319003 10.7994 0.317315 10.8087C0.288622 10.9395 0.261616 11.0695 0.237143 11.1995C0.232923 11.2222 0.228703 11.2442 0.224484 11.267C0.217732 11.3024 0.211825 11.3379 0.205074 11.3733C0.199166 11.4045 0.193259 11.4366 0.188195 11.4678C0.188195 11.4678 0.188195 11.4687 0.188195 11.4695C0.188195 11.467 0.188195 11.4653 0.189039 11.4628C0.0776411 12.1126 0.0168785 12.7447 0.00337571 13.3574C1.32042e-08 13.4975 -0.000843929 13.6367 0.000843919 13.7751C0.000843919 13.7751 0.000843919 13.7751 0.000843919 13.776C0.0126589 14.7844 0.151062 15.7372 0.394113 16.6301C0.850675 18.3028 1.67519 19.7636 2.72925 20.978C2.74022 20.9907 2.75204 21.0042 2.76301 21.0168C2.90647 21.1805 3.05416 21.34 3.20607 21.4953C3.21788 21.508 3.23054 21.5198 3.24236 21.5316C3.31325 21.6034 3.38414 21.6734 3.45671 21.7434C3.46262 21.7485 3.46768 21.7544 3.47359 21.7595C3.55208 21.8346 3.63141 21.9089 3.71242 21.9814C3.72339 21.9907 3.73352 22 3.74449 22.0101C3.81538 22.0734 3.88627 22.1367 3.958 22.1983C3.97066 22.2093 3.98417 22.2211 3.99682 22.2321C4.07869 22.3013 4.16055 22.3696 4.24325 22.4372C4.24916 22.4414 4.25422 22.4456 4.26013 22.4507C4.33608 22.5114 4.41288 22.5713 4.49052 22.6304C4.50824 22.6439 4.52512 22.6574 4.54284 22.6701C4.58504 22.7013 4.62639 22.7334 4.66859 22.7637C4.66859 22.7637 4.66943 22.7638 4.67028 22.7646C4.79433 22.8557 4.92092 22.9452 5.04751 23.0313C5.06692 23.0448 5.08717 23.0583 5.10659 23.0709C5.18001 23.1199 5.25427 23.1688 5.32854 23.2161C5.34204 23.2245 5.3547 23.233 5.3682 23.2414C5.45344 23.2954 5.53952 23.3486 5.62644 23.4001C5.64585 23.4119 5.66611 23.4237 5.68552 23.4355C5.75641 23.4777 5.8273 23.5182 5.89819 23.5587C5.91928 23.5705 5.93954 23.5824 5.96064 23.5942C6.04756 23.6423 6.13448 23.6895 6.22225 23.7359C6.23744 23.7444 6.25348 23.752 6.26867 23.7596C6.34293 23.7984 6.4172 23.8364 6.49231 23.8727C6.51678 23.8845 6.54041 23.8963 6.56489 23.9081C6.65434 23.9511 6.74295 23.9942 6.83325 24.0347C11.1803 26.0179 14.6353 26.4568 16.0109 28.6847C16.0236 28.7058 16.0362 28.7269 16.0489 28.748C16.0852 28.8105 16.1215 28.8729 16.1552 28.9379C16.2101 29.0442 16.259 29.1531 16.3029 29.2637C16.4337 29.5945 16.5164 29.9405 16.5612 30.2916C16.6641 30.2713 16.7629 30.2502 16.8574 30.2283C17.5502 30.0679 18.0203 29.8713 18.2971 29.7312C18.406 29.6763 18.4727 29.635 18.5174 29.6054C18.5672 29.635 18.6406 29.678 18.7621 29.7371C19.0136 29.8595 19.3959 30.0257 19.8812 30.1776C19.9461 29.7489 20.0694 29.3295 20.2711 28.9379C20.3065 28.8695 20.3445 28.8029 20.3833 28.7379C20.3951 28.7176 20.4078 28.6974 20.4204 28.678C20.45 28.6316 20.4795 28.586 20.5107 28.5404C20.5242 28.521 20.5377 28.5007 20.5521 28.4813C22.0374 26.4272 25.6325 25.9555 29.8445 24.0347C29.9357 23.9933 30.0268 23.9495 30.118 23.9056C30.1416 23.8938 30.1652 23.8828 30.188 23.871C30.2707 23.8305 30.3526 23.7883 30.4344 23.7461C30.4437 23.741 30.4522 23.7368 30.4614 23.7317C30.5517 23.6845 30.642 23.6347 30.7315 23.5849C30.7518 23.5739 30.772 23.5621 30.7923 23.5503C30.8716 23.5047 30.9509 23.4591 31.0302 23.4119C31.0412 23.4051 31.053 23.3984 31.064 23.3916C31.1543 23.3376 31.2438 23.2819 31.3332 23.2245C31.3476 23.2152 31.3619 23.206 31.3763 23.1967C31.4573 23.1444 31.5383 23.0912 31.6176 23.0372C31.6277 23.0304 31.6379 23.0237 31.648 23.0169C31.6556 23.0119 31.664 23.0068 31.6716 23.0009C31.7543 22.9443 31.8362 22.8861 31.9172 22.8279C31.9231 22.8237 31.929 22.8194 31.9349 22.8144C31.9408 22.8102 31.9467 22.8059 31.9527 22.8017C31.9695 22.7891 31.9864 22.7773 32.0033 22.7646C32.0657 22.719 32.1273 22.6726 32.1881 22.6262C32.1957 22.6203 32.2041 22.6144 32.2117 22.6085C32.232 22.5924 32.2531 22.5772 32.2733 22.5612C32.275 22.5595 32.2767 22.5587 32.2784 22.557C32.4345 22.4355 32.5881 22.3089 32.7383 22.1789C32.7434 22.1747 32.7485 22.1696 32.7544 22.1654C32.9282 22.0152 33.0979 21.8591 33.2641 21.6987C33.2675 21.6962 33.27 21.6928 33.2734 21.6903C33.4405 21.5274 33.6034 21.3586 33.762 21.1856C33.7629 21.1848 33.7637 21.1831 33.7654 21.1822C34.8186 20.0261 35.6609 18.6336 36.1638 17.036C36.0128 17.3061 35.8482 17.5711 35.6676 17.8293L35.671 17.8319ZM16.4886 27.8222C13.9695 24.601 10.7533 24.0001 7.80292 23.449C6.72101 23.2465 5.67455 23.0515 4.70741 22.7367C4.5766 22.6405 4.44832 22.5418 4.32089 22.4405C5.39436 22.8456 6.58936 23.0684 7.82993 23.3005C10.8073 23.8566 14.0522 24.4634 16.6067 27.7302L16.4877 27.8239L16.4886 27.8222ZM17.0228 26.8163C16.7772 26.4095 16.4025 25.8854 15.8345 25.2516C15.3856 24.7503 14.8151 24.1799 14.091 23.5444C12.6141 22.2481 10.971 22.0515 9.18443 21.8371C7.17757 21.5966 4.99097 21.3341 2.63811 19.4927C2.01698 19.0066 1.50134 18.4395 1.07432 17.831C0.878525 17.5517 0.700457 17.2639 0.540111 16.9719C0.464158 16.728 0.396644 16.4799 0.33757 16.2267C0.572181 16.744 0.856583 17.2571 1.19837 17.7432C1.6178 18.3399 2.12331 18.8969 2.73178 19.3729C5.05089 21.1873 7.21555 21.4472 9.20215 21.6861C11.0132 21.9029 12.6783 22.103 14.1906 23.4304C14.9189 24.0701 15.4944 24.6449 15.9476 25.1504C16.5232 25.7934 16.903 26.3251 17.1528 26.7369L17.0228 26.8154V26.8163ZM17.4211 26.3369C17.0844 25.3976 16.5536 24.3081 15.9392 23.3528C15.405 22.5215 14.8083 21.7941 14.2243 21.3611C13.1475 20.562 11.2377 20.1965 9.33211 19.8328C7.74047 19.5281 6.15136 19.2243 5.03232 18.6648C3.84154 18.0698 2.60604 17.247 1.60261 16.1592C0.963761 15.4663 0.418586 14.6671 0.0396644 13.7506C0.0379766 13.6122 0.0388205 13.4721 0.0421962 13.3321C0.412679 14.3836 1.00427 15.2874 1.71401 16.0571C2.70393 17.1297 3.92425 17.9416 5.09983 18.5298C6.19862 19.0792 7.77845 19.3813 9.35996 19.6834C11.2824 20.0514 13.2091 20.4193 14.3138 21.2396C14.9138 21.6844 15.5223 22.4262 16.0658 23.2709C16.6852 24.2347 17.222 25.336 17.5629 26.2863L17.4203 26.3378L17.4211 26.3369ZM17.6709 25.8179C17.6591 25.7512 17.6439 25.6576 17.627 25.5571C17.4304 24.3689 17.0515 22.0743 14.8623 20.0033C13.2851 18.5104 10.6056 17.9855 8.20041 17.5145C7.00457 17.2799 5.87624 17.0588 4.97746 16.7381C3.60524 16.2478 2.31488 15.3305 1.41189 14.1422C0.817762 13.3607 0.391581 12.462 0.220264 11.4906C0.246426 11.332 0.275963 11.1716 0.308876 11.0104C0.410147 12.1312 0.861647 13.1675 1.53257 14.0502C2.417 15.214 3.68204 16.1136 5.0281 16.5947C5.91675 16.912 7.03917 17.1322 8.2291 17.3652C10.6545 17.8403 13.3551 18.3703 14.9662 19.8936C17.1933 22 17.5781 24.3275 17.7773 25.5327C17.7916 25.6187 17.8051 25.6989 17.8211 25.7917L17.6718 25.8179H17.6709ZM18.5216 29.5894C18.5089 29.5869 18.4954 29.586 18.5157 29.586C18.5284 29.586 18.5267 29.5869 18.5216 29.5894ZM31.7012 22.9756C30.4918 23.4693 29.1812 23.7182 27.8394 23.9731C25.2274 24.4693 22.4973 24.9883 20.2027 27.3876L20.093 27.283C22.4214 24.8474 25.1759 24.3242 27.8115 23.8237C29.3964 23.5224 30.9383 23.2296 32.3088 22.5308C32.1105 22.6853 31.9071 22.8338 31.7012 22.9747V22.9756Z" fill="#6BC1BF"/>
<path d="M18.276 15.7971C20.3757 15.7971 22.0779 14.095 22.0779 11.9952C22.0779 9.89552 20.3757 8.19336 18.276 8.19336C16.1763 8.19336 14.4741 9.89552 14.4741 11.9952C14.4741 14.095 16.1763 15.7971 18.276 15.7971Z" fill="#222952"/>
<path fill-rule="evenodd" clip-rule="evenodd" d="M33.8962 10.1629C33.8962 3.43095 30.7307 2.71868 25.3447 1.60892V1.53043C24.9464 0.8958 24.3135 0.5 23.5227 0.5C22.4146 0.5 21.5412 1.37177 21.5412 2.40136C21.5412 3.43095 22.4155 4.30103 23.5227 4.30103C23.9978 4.30103 24.3962 4.14238 24.7126 3.82591L24.7886 3.90523C30.0167 5.01499 31.3653 5.25382 31.3653 10.1629C31.3653 13.9665 29.4665 19.1127 26.4545 22.8378C25.9794 22.8378 25.5042 22.9965 25.1051 23.3914C23.6046 25.0548 21.1488 27.0347 18.2946 27.0347C15.4404 27.0347 12.9905 25.0548 11.4841 23.4708C11.0858 23.075 10.6107 22.8378 10.1355 22.8378C7.12864 19.1127 5.14711 13.9665 5.14711 10.1629C5.14711 5.25382 6.57165 5.01499 11.7998 3.90523V3.82591C12.1171 4.14238 12.5914 4.30103 13.0665 4.30103C14.1746 4.30103 15.0472 3.4301 15.0472 2.40136C15.0472 1.37262 14.1737 0.5 13.0656 0.5C12.1972 0.5 11.5643 0.8958 11.2428 1.53043H11.166C5.86107 2.71868 2.61365 3.35162 2.61365 10.1629C2.61365 14.5201 4.67113 20.1449 8.15316 24.3409C8.07637 24.8151 8.15316 25.3713 8.5515 25.7679C11.0841 28.4601 13.9383 30.0441 16.8692 30.4399C16.8692 30.4399 18.3376 30.5732 19.4001 30.4399H19.5588C22.5716 30.1226 25.5026 28.5394 28.0352 25.7679C28.4335 25.292 28.5095 24.816 28.4335 24.2624C31.8387 20.1449 33.8962 14.5201 33.8962 10.1629Z" fill="#222952"/>
<path fill-rule="evenodd" clip-rule="evenodd" d="M26.4537 22.8379C25.9786 22.8379 25.5034 22.9965 25.1043 23.3915C23.6038 25.0549 21.1479 27.0347 18.2938 27.0347C15.4396 27.0347 12.9897 25.0549 11.4833 23.4708C11.085 23.075 10.6099 22.8379 10.1347 22.8379C8.45785 23.0708 8.15404 24.3418 8.15404 24.3418C8.07724 24.816 8.15404 25.3722 8.55237 25.7688C11.085 28.461 13.9391 30.045 16.8701 30.4408C16.8701 30.4408 18.3385 30.5741 19.401 30.4408H19.5597C22.5725 30.1235 25.5034 28.5403 28.0361 25.7688C28.4344 25.2929 28.5103 24.8169 28.4344 24.2633C27.7955 22.9586 26.4545 22.8387 26.4545 22.8387L26.4537 22.8379Z" fill="#222952"/>
<path d="M18.276 15.7971C20.3757 15.7971 22.0779 14.095 22.0779 11.9952C22.0779 9.89552 20.3757 8.19336 18.276 8.19336C16.1763 8.19336 14.4741 9.89552 14.4741 11.9952C14.4741 14.095 16.1763 15.7971 18.276 15.7971Z" fill="#222952"/>
<path d="M46.6833 22.8197V8.74072H49.9681V14.288H56.878V8.74072H60.1628V22.8197H56.878V16.9521H49.9681V22.8197H46.6833Z" fill="#222952"/>
<path d="M62.7001 16.1301C62.7001 13.367 64.2429 11.9043 67.5266 11.9043H68.6278C71.9125 11.9043 73.4743 13.3659 73.4743 16.1301V17.6129C73.4743 18.1924 73.194 18.4727 72.5733 18.4727H65.7635V18.6529C65.7635 19.7942 66.3041 20.2758 67.6066 20.2758H71.9326C72.5132 20.2758 72.7935 20.5161 72.8736 21.0767L73.1139 22.8187H67.5266C64.2218 22.8187 62.7001 21.4171 62.7001 18.6729V16.129V16.1301ZM70.4709 16.3515V16.0912C70.4709 14.9099 69.9704 14.4482 68.5888 14.4482H67.6467C66.2651 14.4482 65.7646 14.9087 65.7646 16.0912V16.3515H70.4709Z" fill="#222952"/>
<path d="M75.8558 8.17871H79.0205V22.8194H75.8558V8.17871Z" fill="#222952"/>
<path d="M81.9214 8.17871H85.086V22.8194H81.9214V8.17871Z" fill="#222952"/>
<path d="M87.9882 10.6229V8H91.2729V10.6229H87.9882ZM88.0482 22.8198V12.0857H91.2129V22.8198H88.0482Z" fill="#222952"/>
<path d="M105.291 18.8743C105.291 21.5383 103.768 23 100.665 23H98.2808C95.1762 23 93.6545 21.5383 93.6545 18.8743V16.03C93.6545 13.3659 95.1773 11.9043 98.2808 11.9043H100.665C103.769 11.9043 105.291 13.3659 105.291 16.03V18.8743ZM96.8192 18.7152C96.8192 19.9165 97.3798 20.4371 98.7213 20.4371H100.223C101.566 20.4371 102.125 19.9165 102.125 18.7152V16.1902C102.125 14.9888 101.564 14.4683 100.223 14.4683H98.7213C97.3787 14.4683 96.8192 14.9888 96.8192 16.1902V18.7152Z" fill="#222952"/>
<path d="M107.67 12.0855H109.493C109.994 12.0855 110.174 12.2045 110.314 12.6061L110.514 13.2468H110.594C111.075 12.3858 112.077 11.9053 113.439 11.9053H114.46C117.144 11.9053 118.345 13.4481 118.345 16.031V22.8207H115.181V16.1522C115.181 14.9498 114.7 14.4492 113.359 14.4492H112.658C111.315 14.4492 110.835 14.9498 110.835 16.1522V22.8207H107.67V12.0866V12.0855Z" fill="#222952"/>
</svg>
