<svg width="97" height="31" viewBox="0 0 97 31" fill="none" xmlns="http://www.w3.org/2000/svg">
<path d="M44.1438 17.8255H44.1363C43.8389 17.5791 43.4611 17.451 43.0751 17.4657C42.5679 17.4657 42.2262 17.5719 42.0362 17.7841V17.7013C42.0362 17.5305 41.9588 17.1484 41.4441 17.1484C40.9294 17.1484 40.8074 17.5103 40.8074 17.7013V22.8036C40.8074 22.9734 40.8848 23.3671 41.4112 23.3671C41.9375 23.3671 42.0659 22.9957 42.0659 22.8036V22.7272L42.0341 19.2252C42.0341 18.7689 42.2739 18.5407 42.7536 18.5407C42.8956 18.5366 43.0361 18.5699 43.1611 18.6373C43.1872 18.6503 43.2111 18.6671 43.2322 18.6872L43.2651 18.7126C43.3267 18.7825 43.3837 18.8562 43.4359 18.9334C43.5421 19.0682 43.8212 19.2963 44.235 18.9663C44.304 18.9195 44.3626 18.8591 44.4074 18.7888C44.4522 18.7185 44.4821 18.6398 44.4954 18.5576C44.5087 18.4753 44.5051 18.3912 44.4848 18.3104C44.4645 18.2296 44.4279 18.1538 44.3772 18.0876C44.3051 17.9953 44.2271 17.9078 44.1438 17.8255Z" fill="#002C5D"/>
<path d="M34.2979 17.1396C33.7991 17.1396 33.2983 17.2988 33.1433 17.614V17.1895H33.137C33.1221 17.0207 33.0308 16.7056 32.5777 16.7056C32.1246 16.7056 31.9856 17.0069 31.9739 17.1895L31.9675 17.233V24.9553C31.9675 25.0859 32.0471 25.4721 32.5745 25.4721C33.1019 25.4721 33.2219 25.1039 33.2219 24.9182V23.025C33.398 23.2489 33.572 23.3604 34.1345 23.3604C34.8996 23.3604 35.9332 23.0017 35.9332 21.5499V18.9458C35.9332 18.1127 35.6212 17.1396 34.2979 17.1396ZM34.7309 21.2783C34.7309 21.9532 34.4698 22.2949 33.9509 22.2949C33.5678 22.2949 33.3354 22.1039 33.2452 21.7112C33.2293 21.6147 33.2219 21.2263 33.2219 20.6309V20.1258C33.2219 19.5835 33.2367 18.8906 33.2685 18.7834C33.3641 18.4374 33.6092 18.2613 34.0114 18.2613C34.4942 18.2613 34.7362 18.9649 34.7362 19.6408L34.7309 21.2783Z" fill="#002C5D"/>
<path d="M38.5405 17.1392H38.2275C37.7615 17.1402 37.314 17.3215 36.9787 17.6452C36.6434 17.9688 36.4463 18.4096 36.4287 18.8753H36.4234V18.9528C36.4234 19.1119 36.4977 19.5088 37.0071 19.5088C37.4698 19.5088 37.5685 19.1629 37.612 18.9782L37.6247 18.9156C37.6753 18.7459 37.7535 18.5856 37.8561 18.4413C37.9222 18.3762 38.0015 18.326 38.0886 18.2942C38.1757 18.2623 38.2687 18.2495 38.3612 18.2566C38.8833 18.2566 39.1444 18.5994 39.1444 19.2743V20.0171C38.8347 19.8911 38.5022 19.8311 38.1681 19.841C37.3891 19.841 36.364 20.3058 36.364 21.7299C36.364 23.0596 37.4199 23.3557 38.1023 23.3557C38.6552 23.3557 39.1253 23.1806 39.1401 22.8325V23.0596C39.1401 23.2251 39.2144 23.5966 39.7206 23.5966C40.2268 23.5966 40.3414 23.2442 40.3414 23.0596V18.9453C40.3414 18.4669 40.1513 18.008 39.813 17.6697C39.4747 17.3314 39.0158 17.1413 38.5374 17.1413L38.5405 17.1392ZM38.2508 22.3634C38.0486 22.3632 37.854 22.2865 37.706 22.1487C37.558 22.0109 37.4675 21.8223 37.4528 21.6206L37.4464 21.6058L37.4528 21.5898C37.4501 21.5786 37.448 21.5673 37.4464 21.5559C37.4466 21.3968 37.494 21.2414 37.5825 21.1093C37.671 20.9771 37.7967 20.8742 37.9437 20.8135C38.0907 20.7528 38.2524 20.737 38.4084 20.7681C38.5644 20.7993 38.7076 20.876 38.82 20.9885C38.9324 21.1011 39.0089 21.2444 39.0398 21.4004C39.0708 21.5564 39.0548 21.7181 38.9939 21.865C38.933 22.0119 38.8299 22.1375 38.6976 22.2258C38.5654 22.3142 38.4099 22.3613 38.2508 22.3613V22.3634Z" fill="#002C5D"/>
<path d="M47.0015 17.1392H46.6831C46.4471 17.1378 46.2132 17.1841 45.9955 17.2753C45.7778 17.3665 45.5807 17.5006 45.416 17.6698C45.2529 17.8263 45.1224 18.0136 45.0322 18.2209C44.942 18.4282 44.8939 18.6514 44.8907 18.8774H44.8791V18.9549C44.8791 19.1141 44.9523 19.511 45.4574 19.511C45.9254 19.511 46.0199 19.165 46.0708 18.9804L46.0804 18.9178C46.1286 18.7475 46.2062 18.587 46.3096 18.4434C46.3759 18.3783 46.4554 18.3282 46.5427 18.2963C46.63 18.2645 46.7231 18.2517 46.8158 18.2588C47.3379 18.2588 47.5979 18.6015 47.5979 19.2764V20.0193C47.2877 19.8927 46.9543 19.8326 46.6195 19.8431C45.8405 19.8431 44.825 20.3079 44.825 21.7321C44.825 23.0618 45.8766 23.3578 46.5611 23.3578C47.1161 23.3578 47.5799 23.1827 47.5979 22.8347V23.0618C47.5979 23.2273 47.6722 23.5987 48.1784 23.5987C48.6846 23.5987 48.8002 23.2464 48.8002 23.0618V18.9454C48.8002 18.4669 48.6102 18.008 48.2718 17.6697C47.9335 17.3314 47.4747 17.1413 46.9962 17.1413L47.0015 17.1392ZM46.7128 22.3635C46.5103 22.3637 46.3151 22.2873 46.1667 22.1494C46.0182 22.0116 45.9274 21.8227 45.9127 21.6206L45.9053 21.6058V21.5899C45.9053 21.5824 45.9053 21.5697 45.9053 21.5559C45.9055 21.397 45.9527 21.2417 46.0411 21.1096C46.1295 20.9776 46.255 20.8746 46.4018 20.8138C46.5487 20.753 46.7102 20.737 46.8661 20.7679C47.022 20.7988 47.1652 20.8752 47.2777 20.9874C47.3902 21.0997 47.467 21.2427 47.4983 21.3985C47.5296 21.5543 47.5141 21.7159 47.4536 21.8628C47.3932 22.0098 47.2906 22.1356 47.1588 22.2243C47.0269 22.313 46.8718 22.3607 46.7128 22.3614V22.3635Z" fill="#002C5D"/>
<path d="M3.05625 14.1799H3.58685C3.98829 14.1799 4.3858 14.1008 4.75667 13.9472C5.12754 13.7935 5.46451 13.5683 5.74832 13.2844C6.03213 13.0005 6.25723 12.6634 6.41076 12.2925C6.56429 11.9216 6.64324 11.5241 6.6431 11.1226V9.63694C6.6431 9.36315 6.5147 8.73279 5.66468 8.73279C4.81466 8.73279 4.60984 9.33025 4.60984 9.63694V10.5782C4.60984 11.718 4.19598 12.2921 3.36081 12.2921C2.47931 12.2921 2.03785 11.7225 2.03644 10.5835V4.01682C2.03644 2.88133 2.44818 2.30722 3.26212 2.30722C4.1606 2.30722 4.60984 3.01823 4.60984 4.44024V5.07696C4.60984 5.57678 5.0651 5.99383 5.63921 5.99383C6.21331 5.99383 6.6431 5.59695 6.6431 5.12683V3.56156C6.64254 2.75068 6.32053 1.97308 5.74765 1.3992C5.17476 0.825323 4.39773 0.501966 3.58685 0.5H3.05625C2.24575 0.501404 1.46887 0.824144 0.895957 1.39746C0.323042 1.97077 0.000841597 2.74787 0 3.55838V11.129C0.000139064 11.53 0.0793255 11.9272 0.233031 12.2976C0.386736 12.668 0.611947 13.0045 0.895787 13.2879C1.17963 13.5712 1.51653 13.7959 1.88724 13.9489C2.25795 14.102 2.65519 14.1805 3.05625 14.1799Z" fill="#002C5D"/>
<path d="M10.5046 14.1791H11.0352C11.8453 14.1785 12.622 13.8567 13.195 13.2841C13.768 12.7115 14.0904 11.935 14.0915 11.125V6.71675C14.0904 5.90614 13.7682 5.12898 13.1954 4.55539C12.6226 3.98179 11.8458 3.65849 11.0352 3.65625H10.5046C9.69372 3.65793 8.91657 3.98102 8.34348 4.5547C7.77039 5.12839 7.44811 5.90587 7.44727 6.71675V11.125C7.44783 11.9354 7.77022 12.7123 8.34356 13.2851C8.91689 13.8578 9.69422 14.1794 10.5046 14.1791ZM9.48267 7.17519C9.48267 6.03546 9.89867 5.46347 10.7243 5.46347C11.6115 5.46347 12.0547 6.03405 12.054 7.17519V10.571C12.054 11.7076 11.638 12.2817 10.8071 12.2817C9.92095 12.2817 9.48267 11.7076 9.48267 10.571V7.17519Z" fill="#002C5D"/>
<path d="M68.3797 3.65625H67.8491C67.0387 3.65878 66.2624 3.98223 65.69 4.55582C65.1176 5.12942 64.7958 5.90642 64.7949 6.71675V11.125C64.7955 11.9348 65.1174 12.7113 65.6901 13.284C66.2627 13.8566 67.0392 14.1785 67.8491 14.1791H68.3797C69.1894 14.178 69.9657 13.8559 70.5384 13.2834C71.1111 12.7109 71.4335 11.9347 71.4349 11.125V6.71675C71.4332 5.90649 71.1109 5.12981 70.5385 4.55637C69.9661 3.98293 69.1899 3.65933 68.3797 3.65625ZM69.3995 10.5774C69.3995 11.7139 68.9856 12.2881 68.1547 12.2881C67.2697 12.2881 66.8303 11.7139 66.8303 10.5774V7.18156C66.8303 6.04183 67.2449 5.47126 68.074 5.46984C68.9577 5.46984 69.3995 6.04041 69.3995 7.18156V10.5774Z" fill="#002C5D"/>
<path d="M23.3369 3.65661C22.8682 3.65382 22.4051 3.75911 21.9836 3.96432C21.5622 4.16953 21.1937 4.46913 20.9068 4.83985C20.7699 4.565 20.0122 3.65661 18.9107 3.65661C17.7879 3.65661 17.3783 4.06199 17.1671 4.31561V3.86248C17.1671 3.5802 17.0366 2.92969 16.1632 2.92969C15.2899 2.92969 15.084 3.55049 15.084 3.86248V13.2265C15.084 13.5141 15.2156 14.1816 16.1102 14.1816C17.0048 14.1816 17.2159 13.5512 17.2159 13.2265V12.6068L17.1671 6.62585C17.1544 5.85011 17.5651 5.46808 18.4002 5.46808C19.316 5.46808 19.7416 5.90211 19.7416 6.6163V13.269C19.7416 13.5459 19.8679 14.1795 20.7221 14.1795C21.5764 14.1795 21.777 13.5788 21.777 13.269V6.80519C21.777 6.44332 21.9892 5.46808 23.1056 5.46808C23.9906 5.46808 24.4342 5.78113 24.4342 6.82217V13.2881C24.4342 13.5597 24.5562 14.1795 25.3956 14.1795C26.2351 14.1795 26.4324 13.5916 26.4324 13.2881V6.70225C26.4367 5.86391 26.2128 3.65661 23.3369 3.65661Z" fill="#002C5D"/>
<path d="M31.5562 3.65701C30.7126 3.65701 29.8668 3.92762 29.5951 4.46565V3.7557C29.5771 3.46281 29.4168 2.93115 28.64 2.93115C27.8632 2.93115 27.6404 3.44477 27.616 3.7557V3.82468V16.8944C27.616 17.1067 27.7507 17.7689 28.64 17.7689C29.5293 17.7689 29.7352 17.1449 29.7352 16.8223V13.6111C30.0355 13.9889 30.3284 14.1799 31.2792 14.1799C32.5824 14.1799 34.3249 13.5729 34.3249 11.1215V6.72176C34.3228 5.30293 33.7996 3.65701 31.5562 3.65701ZM32.2884 10.6609C32.2884 11.8092 31.8498 12.3833 30.9725 12.3833C30.322 12.3833 29.9241 12.0511 29.7744 11.3974C29.749 11.234 29.7331 10.5792 29.7331 9.5679V8.69877C29.7331 7.78614 29.7617 6.62201 29.8158 6.42674C29.9793 5.84308 30.391 5.54701 31.0649 5.54701C31.8809 5.54701 32.2884 6.73662 32.2884 7.88165V10.6609Z" fill="#002C5D"/>
<path d="M42.2262 13.6857V4.61239C42.2262 4.32375 42.0936 3.65731 41.2054 3.65731C40.3171 3.65731 40.1049 4.2866 40.1049 4.61239V11.2205C40.1049 11.9941 39.7006 12.3878 38.8887 12.3878C37.9963 12.3878 37.5474 11.8158 37.5474 10.6772V4.56676C37.5474 4.29297 37.4243 3.65625 36.5668 3.65625C35.7094 3.65625 35.5152 4.25583 35.5152 4.56676V11.1388C35.4978 11.9311 35.7814 12.7005 36.3089 13.2919C36.8395 13.883 37.5187 14.1823 38.3624 14.1823C39.206 14.1823 39.8831 13.8332 40.1908 13.4851C40.1908 13.7599 40.3193 14.5983 41.1725 14.5983C42.0257 14.5983 42.2262 13.9923 42.2262 13.6857Z" fill="#002C5D"/>
<path d="M48.2748 12.4779H47.7559C47.3378 12.4779 47.0682 12.4694 46.9589 12.4344C46.6278 12.3517 46.4665 12.1161 46.4665 11.4931V5.46446H47.1075C47.3569 5.46446 47.9182 5.35197 47.9182 4.59852C47.9182 3.84507 47.3877 3.65618 47.1075 3.65618H46.4602V2.92182C46.4602 2.64804 46.3328 2.01025 45.4818 2.01025C44.6307 2.01025 44.4206 2.6162 44.4206 2.92182V3.65618H43.8995C43.6555 3.65618 43.0898 3.77078 43.0898 4.52424C43.0898 5.27769 43.6204 5.46446 43.8995 5.46446H44.4206V12.1882C44.4206 13.537 45.538 14.2289 47.7463 14.2608H47.8853L47.9151 14.2682V14.2608H48.2748C48.5157 14.2608 49.0728 14.1546 49.0728 13.4022C49.0728 12.6498 48.5412 12.4779 48.2748 12.4779Z" fill="#002C5D"/>
<path d="M62.9535 0.5C62.0791 0.5 61.8721 1.11868 61.8721 1.43598V2.01327V4.94219C61.5771 4.55803 61.1165 4.36383 60.3238 4.36383C59.9222 4.36276 59.5244 4.44148 59.1535 4.59541C58.7826 4.74935 58.446 4.97544 58.1632 5.26055C57.8754 5.54056 57.6476 5.87626 57.4938 6.24718C57.34 6.61809 57.2634 7.01646 57.2686 7.41797V11.1322C57.2686 11.5333 57.3476 11.9306 57.5011 12.3012C57.6547 12.6718 57.8798 13.0085 58.1635 13.2921C58.4472 13.5758 58.784 13.8007 59.1547 13.9541C59.5254 14.1075 59.9226 14.1864 60.3238 14.1863C61.1664 14.1863 61.7257 13.9306 61.9963 13.4084V13.7268C61.9963 13.9921 62.1194 14.6076 62.9439 14.6076C63.7685 14.6076 63.9606 14.025 63.9606 13.7268V1.43598C63.9585 1.15264 63.8301 0.5 62.9535 0.5ZM61.87 11.0834C61.8729 11.2468 61.8389 11.4087 61.7706 11.5572C61.7022 11.7056 61.6013 11.8368 61.4752 11.9408C61.2273 12.1682 60.9021 12.2927 60.5658 12.2889C59.7168 12.2889 59.2987 11.7148 59.2987 10.5782V7.88277C59.2987 6.73951 59.7447 6.16787 60.6369 6.16787C61.4625 6.16787 61.87 6.55627 61.87 7.33519V11.0834Z" fill="#002C5D"/>
<path d="M82.5675 3.65625H82.0369C81.2264 3.6585 80.4498 3.98183 79.8771 4.55545C79.3045 5.12907 78.9825 5.90623 78.9817 6.71675V11.125C78.9823 11.935 79.3043 12.7117 79.8772 13.2843C80.4501 13.857 81.2269 14.1788 82.0369 14.1791H82.5675C83.4058 14.1791 84.0712 13.8236 84.7227 13.2845C85.4815 12.6563 85.6035 11.3425 85.6035 11.3425L85.6099 11.1483V11.0624C85.6099 10.779 85.4772 10.1391 84.6156 10.1391C83.7539 10.1391 83.6446 10.7504 83.5979 11.0624L83.5873 11.1218C83.4493 11.9103 83.0036 12.3018 82.6322 12.3018C81.9859 12.3018 81.7153 12.1798 81.4341 11.9272C81.1529 11.6747 81.0096 11.23 81.0096 10.5795V9.18404H85.612V6.721C85.6129 5.91067 85.2924 5.13306 84.7209 4.55858C84.1495 3.9841 83.3735 3.65962 82.5632 3.65625H82.5675ZM83.5873 7.50098H81.0139V7.20384C81.0139 6.04713 81.4277 5.46843 82.2555 5.46772C83.1416 5.46772 83.5873 6.04289 83.5873 7.18899V7.50098Z" fill="#002C5D"/>
<path d="M92.8317 8.86963C92.195 8.33903 91.4097 8.07161 90.4971 8.07161C89.3722 8.07161 88.7991 7.65562 88.7991 6.82258C88.7958 6.6459 88.8312 6.47063 88.9029 6.30911C88.9746 6.14759 89.0808 6.00373 89.2141 5.88766C89.4864 5.65592 89.8339 5.53141 90.1914 5.53746C90.6371 5.53746 91.1051 5.7497 91.4224 6.29516C91.495 6.49377 91.5469 6.69931 91.5774 6.90854C91.6283 7.20037 91.918 7.82435 92.8253 7.68003C93.7327 7.5357 93.7263 6.87776 93.6743 6.54667C93.6743 6.52863 93.6605 6.49148 93.6594 6.47026C93.6594 6.47026 93.4058 5.22123 92.6492 4.52508C92.0731 3.99081 91.3123 3.70059 90.5268 3.71538H89.958C89.1056 3.71762 88.2888 4.05722 87.686 4.65995C87.0833 5.26267 86.7437 6.0795 86.7415 6.93188C86.7415 7.81056 87.0726 8.53005 87.7284 9.06171C88.3439 9.57745 89.1079 9.83851 90.0312 9.83851C91.1592 9.83851 91.7291 10.263 91.7291 11.0833C91.7292 11.2572 91.6913 11.429 91.618 11.5866C91.5446 11.7443 91.4377 11.884 91.3046 11.9959C91.0402 12.2384 90.6946 12.3732 90.3358 12.3737C89.2342 12.3737 88.9891 11.0918 88.9732 10.9782C88.9371 10.679 88.6983 10.0094 87.7698 10.1399C86.8412 10.2704 86.8221 10.956 86.8242 11.2902C86.8317 11.3912 86.8458 11.4915 86.8667 11.5906C86.8879 11.703 86.9463 11.9736 86.9463 11.9736C87.1208 12.5296 87.4476 13.0256 87.8897 13.4052C88.4721 13.9191 89.2237 14.1999 90.0004 14.1937H90.5692C91.4223 14.1923 92.2401 13.8533 92.844 13.2508C93.4479 12.6483 93.7887 11.8313 93.7921 10.9782C93.7868 10.1017 93.4652 9.39068 92.8317 8.86963Z" fill="#002C5D"/>
<path d="M49.4031 6.72119L49.4053 6.7366V6.72339V6.72119H49.4031Z" fill="#002C5D"/>
<path d="M52.9887 3.65638H52.4634C52.0621 3.65262 51.6643 3.73077 51.2943 3.88605C50.9242 4.04133 50.5897 4.27047 50.3113 4.55946C50.0352 4.82427 49.8141 5.14109 49.661 5.49169C49.5078 5.84229 49.4255 6.21973 49.4188 6.60227H49.4061V6.72643C49.4061 7.0034 49.5356 7.68151 50.3909 7.68151C51.1772 7.68151 51.3386 7.08936 51.4213 6.76782L51.4415 6.67125C51.5235 6.38105 51.6549 6.10715 51.8299 5.86155C52.0198 5.65674 52.3064 5.55274 52.6863 5.55274C53.5703 5.55274 54.0075 6.12579 54.0075 7.27295V8.52941C53.5915 8.33627 53.0386 8.24076 52.3573 8.24076C51.0393 8.24076 49.3191 9.02924 49.3191 11.436C49.3191 13.6826 51.0987 14.1814 52.2544 14.1814C53.1925 14.1814 53.9799 13.8906 54.0075 13.2995V13.6858C54.0075 13.9649 54.1412 14.6005 54.9891 14.6005C55.837 14.6005 56.0439 13.9978 56.0439 13.6858V6.72112C56.0434 5.91013 55.7216 5.13237 55.149 4.55801C54.5765 3.98365 53.7997 3.65947 52.9887 3.65638ZM52.4984 12.5004C52.1563 12.501 51.8267 12.3717 51.5761 12.1387C51.3256 11.9057 51.1728 11.5863 51.1486 11.245L51.138 11.2142L51.1454 11.1983C51.1454 11.1782 51.138 11.1622 51.138 11.14C51.1378 10.8708 51.2174 10.6077 51.3667 10.3838C51.5161 10.16 51.7285 9.98544 51.9771 9.88231C52.2257 9.77917 52.4992 9.75208 52.7632 9.80445C53.0272 9.85683 53.2697 9.98631 53.4601 10.1765C53.6504 10.3668 53.7801 10.6092 53.8327 10.8731C53.8853 11.137 53.8584 11.4106 53.7554 11.6593C53.6525 11.9079 53.4781 12.1205 53.2544 12.27C53.0306 12.4195 52.7676 12.4994 52.4984 12.4994V12.5004Z" fill="#002C5D"/>
<path d="M78.0572 4.82643L78.0445 4.80946C77.5616 4.39983 76.9684 4.1982 76.25 4.1982C75.3925 4.1982 74.8099 4.37861 74.5011 4.73517V4.58766C74.5011 4.30645 74.3664 3.65381 73.4951 3.65381C72.6239 3.65381 72.4148 4.27037 72.4148 4.58766V13.2248C72.4148 13.5134 72.5464 14.1799 73.442 14.1799C74.3377 14.1799 74.5033 13.5495 74.5033 13.2248V7.16956C74.5033 6.39701 74.9065 6.01498 75.7151 6.01498C75.9542 6.00744 76.1914 6.05998 76.4049 6.16779C76.4484 6.19432 76.4866 6.22722 76.5291 6.25693C76.5443 6.27324 76.5606 6.28849 76.5779 6.30256C76.6852 6.41726 76.7821 6.54119 76.8676 6.67292C77.0459 6.89896 77.5234 7.28842 78.2249 6.73129C78.8616 6.2251 78.712 5.56397 78.4594 5.24561C78.3387 5.09364 78.2041 4.9533 78.0572 4.82643Z" fill="#002C5D"/>
<path d="M71.2561 20.1367C70.4156 20.1367 70.2172 20.7257 70.2172 21.0324V27.3041C70.2172 28.031 69.833 28.4013 69.0626 28.4013C68.22 28.4013 67.7955 27.8569 67.7955 26.7777V20.9942C67.7955 20.7321 67.6756 20.1367 66.8649 20.1367C66.0541 20.1367 65.8631 20.6981 65.8631 20.9942V27.2245C65.8487 27.9757 66.1172 28.7049 66.6155 29.2673C66.8575 29.5432 67.1574 29.7624 67.4938 29.9091C67.8302 30.0559 68.1948 30.1266 68.5617 30.1162C69.3725 30.1162 70.0071 29.7851 70.2957 29.4477C70.2957 29.7077 70.4209 30.5004 71.2285 30.5004C72.0361 30.5004 72.2282 29.9358 72.2282 29.6387V21.0324C72.2282 20.7575 72.0998 20.1367 71.2561 20.1367Z" fill="#002C5D"/>
<path d="M53.8372 19.1208H56.5061C56.7831 19.1208 57.3912 18.9935 57.3912 18.1657C57.3912 17.338 56.8064 17.1406 56.5061 17.1406H53.8266C52.4651 17.1406 50.9285 18.2952 50.9285 20.0388V27.2135C50.9285 28.436 51.8984 30.1138 53.8266 30.1138H56.5061C56.7831 30.1138 57.3912 29.9865 57.3912 29.1587C57.3912 28.331 56.8064 28.1336 56.5061 28.1336H53.8181C53.2313 28.1336 53.0052 27.4343 53.0052 26.6914V24.3971H56.5072C56.7842 24.3971 57.3922 24.2708 57.3922 23.442C57.3922 22.6132 56.8075 22.418 56.5072 22.418H53.0052V20.4781C53.0052 19.47 53.2949 19.1962 53.8372 19.1208Z" fill="#002C5D"/>
<path d="M93.0579 21.2393L93.0441 21.2255C92.5836 20.8403 92.0211 20.6503 91.3409 20.6503C90.5291 20.6503 89.973 20.8223 89.6823 21.1576V21.0218C89.6823 20.749 89.5549 20.1367 88.7272 20.1367C87.8994 20.1367 87.7031 20.7151 87.7031 21.0218V29.2068C87.7031 29.4785 87.8305 30.1131 88.6784 30.1131C89.5263 30.1131 89.7226 29.5156 89.7226 29.2068V29.0858H89.73L89.6823 23.4615C89.6823 22.7292 90.0611 22.3642 90.8305 22.3642C91.058 22.356 91.2835 22.4095 91.4831 22.5191C91.5257 22.5389 91.5651 22.565 91.5998 22.5966L91.6476 22.638C91.7497 22.7476 91.8417 22.8662 91.9224 22.9924C92.0933 23.2131 92.5475 23.5739 93.2097 23.0423C93.8103 22.5658 93.6745 21.9471 93.4357 21.633C93.3171 21.4949 93.191 21.3635 93.0579 21.2393Z" fill="#002C5D"/>
<path d="M76.6846 20.1655H76.1848C75.4169 20.1678 74.6813 20.4741 74.1387 21.0174C73.5962 21.5608 73.2909 22.2969 73.2898 23.0647V27.213C73.288 27.5939 73.3616 27.9714 73.5064 28.3238C73.6512 28.6761 73.8642 28.9963 74.1333 29.2659C74.4025 29.5355 74.7223 29.7492 75.0744 29.8946C75.4265 30.0401 75.8038 30.1143 76.1848 30.1132H76.6867C77.4557 30.1115 78.1926 29.8045 78.7353 29.2596C79.2779 28.7148 79.582 27.9767 79.5806 27.2077V26.451C79.5806 26.1931 79.4586 25.5893 78.6531 25.5893C77.8477 25.5893 77.6524 26.1613 77.6524 26.451V26.6866C77.6524 27.7712 77.2594 28.3141 76.4734 28.3155C75.6351 28.3155 75.2138 27.7711 75.2138 26.693V23.5009C75.2138 22.4185 75.6011 21.8815 76.3747 21.8815C77.23 21.8815 77.6482 22.5511 77.6482 23.8978V23.9604C77.6482 24.4337 78.0811 24.8274 78.6276 24.8274C79.1742 24.8274 79.5764 24.4485 79.5764 24.0039V23.0743C79.5755 22.3055 79.2705 21.5683 78.7278 21.0236C78.1852 20.479 77.4491 20.1713 76.6803 20.1677L76.6846 20.1655Z" fill="#002C5D"/>
<path d="M63.6967 17.1392C62.87 17.1392 62.6737 17.7271 62.6737 18.0253V21.3468C62.3893 20.9881 61.9542 20.7961 61.2071 20.7961C60.8261 20.7948 60.4485 20.8691 60.0964 21.0149C59.7443 21.1606 59.4246 21.3748 59.1559 21.645C58.8825 21.9101 58.6663 22.2282 58.5203 22.5798C58.3743 22.9315 58.3017 23.3092 58.3069 23.6899V27.2089C58.3075 27.9779 58.6132 28.7153 59.157 29.2591C59.7008 29.8028 60.4381 30.1086 61.2071 30.1092C62.003 30.1092 62.5315 29.8566 62.7905 29.3663V29.6645C62.7905 29.9107 62.9061 30.4912 63.6904 30.4912C64.4746 30.4912 64.656 29.9436 64.656 29.6645V18.0253C64.656 17.7525 64.5276 17.1392 63.6967 17.1392ZM62.6737 27.1771C62.675 27.3314 62.6419 27.4841 62.577 27.6242C62.512 27.7642 62.4167 27.888 62.2981 27.9868C62.0627 28.2006 61.7554 28.3177 61.4374 28.3147C60.6362 28.3147 60.2383 27.7703 60.2383 26.6878V24.141C60.2383 23.049 60.6628 22.5163 61.5032 22.5163C62.2843 22.5163 62.6705 22.8845 62.6705 23.6104L62.6737 27.1771Z" fill="#002C5D"/>
<path d="M84.0768 20.1367H83.5738C82.8272 20.1409 82.1109 20.4322 81.5734 20.9502C81.0358 21.4682 80.7181 22.1732 80.6862 22.9191H80.6778V23.039C80.6778 23.298 80.7987 23.9411 81.6042 23.9411C82.3576 23.9411 82.5094 23.3786 82.5879 23.0825L82.606 22.9764C82.6857 22.7032 82.8113 22.4456 82.9774 22.2145C83.1546 22.0203 83.4305 21.9237 83.7839 21.9237C84.6255 21.9237 85.0489 22.4681 85.0489 23.5505V24.7486C84.6456 24.5661 84.1203 24.4674 83.4772 24.4674C82.2282 24.4674 80.5918 25.2102 80.5918 27.4982C80.5918 29.628 82.2897 30.1056 83.3785 30.1056C84.271 30.1056 85.016 29.8254 85.0489 29.263V29.628C85.0489 29.8954 85.1635 30.4897 85.9679 30.4897C86.7723 30.4897 86.9686 29.9252 86.9686 29.628V28.8852V23.0274C86.9655 22.2602 86.6594 21.5254 86.117 20.983C85.5745 20.4405 84.8397 20.1344 84.0726 20.1313L84.0768 20.1367ZM83.6131 28.5116C83.2894 28.5119 82.9774 28.3903 82.7393 28.1711C82.5012 27.9519 82.3543 27.651 82.3279 27.3284V27.304V27.2796C82.3279 27.2658 82.3279 27.2477 82.3279 27.2286C82.3267 26.9732 82.4013 26.7231 82.5424 26.5102C82.6835 26.2972 82.8847 26.1309 83.1204 26.0325C83.3562 25.9341 83.6158 25.9079 83.8665 25.9572C84.1171 26.0066 84.3475 26.1293 84.5283 26.3098C84.709 26.4903 84.8321 26.7204 84.8819 26.971C84.9317 27.2216 84.906 27.4813 84.8079 27.7172C84.7099 27.9531 84.5439 28.1545 84.3312 28.296C84.1185 28.4374 83.8685 28.5125 83.6131 28.5116Z" fill="#002C5D"/>
<path d="M95.2651 3.33752C95.3341 3.31739 95.3946 3.27552 95.4379 3.21815C95.4811 3.16078 95.5046 3.09099 95.5049 3.01916C95.5061 2.97467 95.4979 2.93044 95.4809 2.88931C95.4639 2.84819 95.4385 2.81108 95.4062 2.78039C95.3022 2.69956 95.1713 2.66159 95.0402 2.67427C94.936 2.67363 94.8319 2.68215 94.7292 2.69974V3.93922H94.8916V3.3927H95.0444C95.193 3.3927 95.2566 3.46168 95.2969 3.63466C95.3143 3.73766 95.342 3.83863 95.3797 3.93604H95.5474C95.5062 3.82432 95.4746 3.70929 95.4529 3.59221C95.4456 3.53739 95.4245 3.48531 95.3917 3.4408C95.3588 3.39628 95.3153 3.36076 95.2651 3.33752ZM95.0582 3.2696H94.8916V2.81329C94.9439 2.79969 94.9979 2.79397 95.0518 2.79631C95.2227 2.79631 95.3415 2.86847 95.3415 3.02977C95.3415 3.17197 95.2301 3.2696 95.0582 3.2696Z" fill="#002C5D"/>
<path d="M95.1367 2.10547C94.8992 2.10568 94.6672 2.1763 94.4699 2.30841C94.2726 2.44051 94.119 2.62816 94.0284 2.84761C93.9377 3.06706 93.9142 3.30846 93.9608 3.54127C94.0075 3.77408 94.1221 3.98783 94.2902 4.15549C94.4583 4.32316 94.6723 4.43719 94.9053 4.48318C95.1382 4.52916 95.3795 4.50503 95.5988 4.41383C95.818 4.32263 96.0052 4.16847 96.1368 3.97084C96.2684 3.77321 96.3384 3.54099 96.338 3.30357C96.3378 3.146 96.3066 2.99001 96.2462 2.8445C96.1857 2.699 96.0972 2.56684 95.9856 2.45557C95.8741 2.3443 95.7417 2.25611 95.596 2.19604C95.4503 2.13597 95.2942 2.10519 95.1367 2.10547ZM95.1367 4.31383C94.9369 4.31362 94.7417 4.25419 94.5757 4.14305C94.4097 4.03191 94.2804 3.87406 94.2041 3.68944C94.1278 3.50482 94.1079 3.30172 94.147 3.10582C94.1861 2.90992 94.2824 2.73001 94.4237 2.58883C94.5651 2.44765 94.7451 2.35153 94.941 2.31264C95.137 2.27374 95.3401 2.29381 95.5246 2.37031C95.7091 2.4468 95.8669 2.57629 95.9778 2.7424C96.0888 2.90852 96.148 3.1038 96.148 3.30357C96.1477 3.5716 96.0411 3.82856 95.8514 4.01799C95.6618 4.20742 95.4047 4.31383 95.1367 4.31383Z" fill="#002C5D"/>
</svg>
