<svg width="126" height="30" viewBox="0 0 126 30" fill="none" xmlns="http://www.w3.org/2000/svg">
<path d="M20.5782 10.7962C19.963 10.561 19.4118 10.3038 18.9238 10.023C18.4357 9.743 18.019 9.40858 17.6758 9.01977C17.3318 8.63096 17.0657 8.16498 16.8754 7.62256C16.6857 7.08014 16.5909 6.42894 16.5909 5.6697C16.5909 4.74729 16.7489 3.93365 17.0657 3.22807C17.3818 2.52248 17.8294 1.93081 18.4085 1.4516C18.987 0.972389 19.6837 0.610775 20.4974 0.366024C21.3103 0.122008 22.2231 0 23.2367 0C24.1591 0 25.0227 0.0808487 25.8275 0.244016C26.6323 0.406448 27.4776 0.642379 28.3639 0.949604C28.2552 1.99843 27.9656 3.02962 27.4959 4.0417C27.2247 3.93292 26.9484 3.82488 26.6683 3.7161C26.3876 3.60732 26.0892 3.51765 25.7731 3.44489C25.4563 3.37286 25.0991 3.31406 24.7015 3.26849C24.3039 3.22366 23.8511 3.20087 23.3455 3.20087C23.0375 3.20087 22.7259 3.22807 22.4098 3.28246C22.0938 3.33684 21.8086 3.43607 21.5558 3.58086C21.3022 3.72565 21.0942 3.93806 20.9318 4.2181C20.7693 4.49886 20.6877 4.86488 20.6877 5.3169C20.6877 5.67852 20.7509 5.98133 20.8774 6.22535C21.0038 6.46936 21.1758 6.67736 21.3926 6.84935C21.6094 7.02134 21.8542 7.16613 22.1254 7.28299C22.3966 7.40059 22.6678 7.51378 22.939 7.62182L24.5663 8.24583C25.2535 8.51704 25.8775 8.7978 26.4383 9.08665C26.9983 9.3755 27.4731 9.73344 27.8619 10.1583C28.2508 10.5831 28.5536 11.0991 28.7711 11.7047C28.988 12.3103 29.0967 13.0571 29.0967 13.942C29.0967 14.8269 28.9292 15.7052 28.5947 16.4652C28.2596 17.2244 27.776 17.8756 27.1431 18.4181C26.5096 18.9605 25.7275 19.386 24.7963 19.6933C23.8651 20.0005 22.7935 20.1541 21.5822 20.1541C20.9854 20.1541 20.4518 20.1365 19.9814 20.1004C19.511 20.0637 19.0634 20.0056 18.6386 19.924C18.2138 19.8425 17.7934 19.7388 17.3773 19.6117C16.9613 19.4853 16.527 19.3316 16.075 19.1501C16.1293 18.6261 16.2286 18.0785 16.3734 17.5089C16.5181 16.9393 16.6894 16.3652 16.8886 15.7861C17.6478 16.094 18.3622 16.3248 19.0318 16.4777C19.7006 16.6313 20.4158 16.7085 21.175 16.7085C22.3143 16.7085 23.2095 16.4961 23.8607 16.0705C24.5119 15.6457 24.8375 14.9989 24.8375 14.1309C24.8375 13.6965 24.7603 13.3356 24.6067 13.0453C24.4531 12.7564 24.2539 12.5124 24.0099 12.3133C23.7659 12.1148 23.4895 11.9472 23.1823 11.812C22.8751 11.676 22.5583 11.5452 22.2327 11.418L20.5782 10.794V10.7962Z" fill="#1A3E97"/>
<path d="M31.9441 0.325765C32.6129 0.216987 33.2737 0.162598 33.9241 0.162598C34.5746 0.162598 35.2442 0.216987 35.9314 0.325765V19.8301C35.2442 19.9389 34.5842 19.9933 33.9513 19.9933C33.2818 19.9933 32.6129 19.9389 31.9441 19.8301V0.325765Z" fill="#1A3E97"/>
<path d="M39.6211 0.325426C39.9643 0.271037 40.2995 0.235022 40.6244 0.216648C40.95 0.199008 41.2844 0.189453 41.6283 0.189453C41.9356 0.189453 42.2524 0.199008 42.578 0.216648C42.9036 0.235022 43.238 0.271037 43.5812 0.325426V10.444C43.5812 11.5472 43.6224 12.4917 43.7032 13.2789C43.7848 14.0653 43.948 14.7165 44.192 15.2317C44.436 15.7469 44.7792 16.1269 45.2224 16.3709C45.6656 16.615 46.2397 16.737 46.9452 16.737C47.6508 16.737 48.2205 16.615 48.6541 16.3709C49.0877 16.1269 49.4273 15.7469 49.6713 15.2317C49.9153 14.7165 50.0785 14.0653 50.1601 13.2789C50.2417 12.4924 50.2821 11.5472 50.2821 10.444V0.325426C50.6437 0.271037 50.9877 0.235022 51.3125 0.216648C51.6381 0.199008 51.9542 0.189453 52.2622 0.189453C52.5878 0.189453 52.9178 0.199008 53.2522 0.216648C53.5866 0.235022 53.9254 0.271037 54.2694 0.325426V11.2841C54.2694 12.6049 54.1606 13.8117 53.9438 14.9054C53.727 15.9998 53.3374 16.9354 52.7774 17.713C52.2166 18.4907 51.4662 19.0919 50.5261 19.5167C49.5853 19.9415 48.3917 20.1539 46.9452 20.1539C45.4988 20.1539 44.3044 19.9415 43.3644 19.5167C42.4236 19.0919 41.6732 18.4907 41.1124 17.713C40.5516 16.9354 40.1628 15.9998 39.946 14.9054C39.7291 13.8117 39.6204 12.6041 39.6204 11.2841V0.325426H39.6211Z" fill="#1A3E97"/>
<path d="M68.6464 9.7114C69.3152 9.60262 69.9664 9.54823 70.5992 9.54823C71.2321 9.54823 71.8921 9.60262 72.5793 9.7114V19.2868C71.6385 19.6308 70.6573 19.8608 69.6357 19.9784C68.614 20.096 67.7232 20.1548 66.964 20.1548C65.3728 20.1548 63.9799 19.9064 62.7863 19.4088C61.5927 18.9112 60.5983 18.2152 59.803 17.32C59.0063 16.4248 58.4102 15.3627 58.0126 14.1331C57.6142 12.9034 57.4158 11.5658 57.4158 10.1186C57.4158 8.67139 57.6238 7.3293 58.0398 6.09011C58.4558 4.85166 59.057 3.78004 59.8434 2.87527C60.6299 1.97124 61.5971 1.26565 62.7459 0.759242C63.894 0.253571 65.2008 0 66.6656 0C67.5336 0 68.3428 0.0543891 69.0933 0.162432C69.8437 0.271211 70.6257 0.497587 71.4401 0.840826C71.4033 1.38325 71.2945 1.91244 71.1145 2.42766C70.9337 2.94289 70.7345 3.46326 70.5177 3.98731C69.8841 3.77049 69.324 3.61688 68.8353 3.52647C68.3472 3.43607 67.7681 3.3905 67.0992 3.3905C65.3632 3.3905 64.0292 3.95644 63.098 5.08612C62.166 6.21653 61.7007 7.89377 61.7007 10.1178C61.7007 12.3419 62.1616 14.0015 63.084 15.0959C64.0057 16.1903 65.3625 16.7371 67.1529 16.7371C67.4601 16.7371 67.7357 16.7195 67.9805 16.6835C68.2245 16.6475 68.4457 16.6115 68.6449 16.5747V9.7114H68.6464Z" fill="#1A3E97"/>
<path d="M79.5779 3.68948H76.3498C76.2954 3.43664 76.255 3.16028 76.2278 2.86188C76.2006 2.56347 76.1866 2.26948 76.1866 1.98063C76.1866 1.40219 76.241 0.850218 76.3498 0.326172H83.5387V14.6489C83.5387 15.6441 83.3807 16.4893 83.0639 17.1853C82.7471 17.8821 82.3135 18.4517 81.7622 18.8942C81.2103 19.3374 80.5591 19.6586 79.8086 19.857C79.0582 20.0562 78.2394 20.1554 77.3538 20.1554C77.0458 20.1554 76.6622 20.1282 76.2006 20.0746C75.739 20.0209 75.3002 19.9386 74.8842 19.8305C74.8666 19.7041 74.8526 19.5777 74.8438 19.4506C74.8342 19.3241 74.8306 19.1882 74.8306 19.0434C74.8306 18.2121 74.9834 17.3801 75.2914 16.5481C75.4906 16.5848 75.7074 16.6289 75.9426 16.6841C76.1778 16.7377 76.4218 16.7649 76.6746 16.7649C76.9819 16.7649 77.3075 16.7473 77.6515 16.7113C77.9947 16.6752 78.3071 16.5665 78.5871 16.3857C78.8671 16.2048 79.1023 15.938 79.2919 15.5853C79.4823 15.2325 79.5771 14.7305 79.5771 14.0793V3.68948H79.5779Z" fill="#1A3E97"/>
<path d="M97.5828 15.8345H91.9653V19.5792H97.5828V15.8345Z" fill="#1A3E97"/>
<path d="M103.2 8.57861H97.5828V12.3234H103.2V8.57861Z" fill="#3F5878"/>
<path d="M108.818 0.85498H103.2V4.59974H108.818V0.85498Z" fill="#656572"/>
<path d="M1.58757 28.5535V29.1834C1.58757 29.6589 1.34356 29.9022 0.856261 29.9022H0.725433C0.244016 29.9022 0 29.6582 0 29.1893V28.333H0.350589V29.201C0.350589 29.4509 0.481417 29.57 0.737193 29.57H0.844501C1.10028 29.57 1.2311 29.4509 1.2311 29.201V28.5653C1.2311 28.333 1.15393 28.2323 0.992969 28.1074L0.380724 27.6495C0.0955484 27.4415 0.00661489 27.2335 0.00661489 26.9064V26.389C0.00661489 25.9135 0.244751 25.6694 0.737928 25.6694H0.851116C1.33253 25.6694 1.57655 25.9134 1.57655 26.3831V27.1144H1.22596V26.3713C1.22596 26.1215 1.10101 26.0031 0.839356 26.0031H0.750423C0.488767 26.0031 0.363819 26.1222 0.363819 26.3713V26.9005C0.363819 27.1262 0.440993 27.2335 0.601955 27.3584L1.2142 27.8097C1.4935 28.0177 1.58831 28.2081 1.58831 28.5528L1.58757 28.5535Z" fill="#656572"/>
<path d="M3.63894 25.7056H3.28174V29.8671H3.63894V25.7056Z" fill="#656572"/>
<path d="M6.93157 28.5535V29.1834C6.93157 29.6589 6.68755 29.9022 6.20026 29.9022H6.06943C5.58801 29.9022 5.34399 29.6582 5.34399 29.1893V28.333H5.69458V29.201C5.69458 29.4509 5.82541 29.57 6.08119 29.57H6.1885C6.44427 29.57 6.5751 29.4509 6.5751 29.201V28.5653C6.5751 28.333 6.49793 28.2323 6.33696 28.1074L5.72472 27.6495C5.43954 27.4415 5.35061 27.2335 5.35061 26.9064V26.389C5.35061 25.9135 5.58875 25.6694 6.08192 25.6694H6.19511C6.67653 25.6694 6.92054 25.9134 6.92054 26.3831V27.1144H6.56995V26.3713C6.56995 26.1215 6.44501 26.0031 6.18335 26.0031H6.09442C5.83276 26.0031 5.70781 26.1222 5.70781 26.3713V26.9005C5.70781 27.1262 5.78499 27.2335 5.94595 27.3584L6.55819 27.8097C6.83749 28.0177 6.9323 28.2081 6.9323 28.5528L6.93157 28.5535Z" fill="#656572"/>
<path d="M9.01254 29.8671V26.0385H8.35913V25.7056H10.0231V26.0385H9.36974V29.8671H9.01254Z" fill="#656572"/>
<path d="M12.8115 25.7056V26.0385H11.9141V27.5783H12.7821V27.9113H11.9141V29.5341H12.8233V29.8671H11.5569V25.7056H12.8115Z" fill="#656572"/>
<path d="M14.8092 26.3296L14.8269 29.0351V29.8671H14.488V25.7056H15.0113L15.6949 29.2372L16.3784 25.7056H16.8959V29.8671H16.5445V29.0226L16.557 26.3296L15.8617 29.8671H15.5104L14.8092 26.3296Z" fill="#656572"/>
<path d="M19.6182 25.6938H19.1904L18.4944 29.8671H18.8406L18.9589 29.0821H19.8438L19.9695 29.8671H20.3142L19.6182 25.6938ZM19.0118 28.7492L19.3977 26.2811L19.7909 28.7492H19.0118Z" fill="#656572"/>
<path d="M24.1782 25.7056H23.8218V29.8671H24.1782V25.7056Z" fill="#656572"/>
<path d="M27.1866 29.8671L26.2472 26.4369L26.259 28.0774V29.8671H25.9202V25.7056H26.3722L27.2762 29.0402L27.2703 27.4592V25.7056H27.6084V29.8671H27.1866Z" fill="#656572"/>
<path d="M29.7906 29.8671V26.0385H29.1365V25.7056H30.8012V26.0385H30.1471V29.8671H29.7906Z" fill="#656572"/>
<path d="M33.5896 25.7056V26.0385H32.6922V27.5783H33.5602V27.9113H32.6922V29.5341H33.6013V29.8671H32.335V25.7056H33.5896Z" fill="#656572"/>
<path d="M36.0563 28.0305V27.6975H36.8766V29.1719C36.8766 29.6533 36.6326 29.9032 36.1511 29.9032H35.9667C35.4794 29.9032 35.2354 29.654 35.2354 29.1719V26.3958C35.2354 25.9203 35.4794 25.6704 35.9667 25.6704H36.1511C36.6326 25.6704 36.8707 25.9203 36.8707 26.39V27.0022H36.5201V26.3841C36.5201 26.1283 36.3952 26.0041 36.1335 26.0041H35.9792C35.7175 26.0041 35.5926 26.129 35.5926 26.3841V29.1903C35.5926 29.446 35.7175 29.571 35.9792 29.571H36.1453C36.401 29.571 36.5253 29.446 36.5253 29.1903V28.0312H36.0556L36.0563 28.0305Z" fill="#656572"/>
<path d="M39.7497 27.8811C39.993 27.7922 40.1414 27.6136 40.1414 27.2277V26.4303C40.1414 25.9496 39.8981 25.707 39.4094 25.707H38.5833V29.8678H38.9405V28.048H39.3454C39.6482 28.048 39.7916 28.1854 39.7916 28.4823V29.8678H40.1473V28.4699C40.1473 28.1251 40.0113 27.9539 39.7497 27.8819V27.8811ZM39.3506 27.7209H38.9405V26.0378H39.3976C39.6593 26.0378 39.785 26.1561 39.785 26.4126V27.2917C39.785 27.5849 39.6409 27.7209 39.3506 27.7209Z" fill="#656572"/>
<path d="M42.8631 25.6938H42.4353L41.7407 29.8671H42.0854L42.2038 29.0821H43.0887L43.2129 29.8671H43.5591L42.8631 25.6938ZM42.2574 28.7492L42.6448 26.2811L43.0365 28.7492H42.2574Z" fill="#656572"/>
<path d="M45.8905 25.707H45.1584V29.8678H45.8905C46.4851 29.8678 46.7754 29.576 46.7754 28.9814V26.592C46.7754 25.9973 46.4851 25.707 45.8905 25.707ZM46.419 28.9807C46.419 29.3555 46.2404 29.5326 45.8714 29.5326H45.5157V26.0385H45.8714C46.2404 26.0385 46.419 26.2171 46.419 26.592V28.9814V28.9807Z" fill="#656572"/>
<path d="M49.386 25.6694H49.1957C48.7069 25.6694 48.4636 25.9193 48.4636 26.3941V29.1709C48.4636 29.6531 48.7069 29.903 49.1957 29.903H49.386C49.8733 29.903 50.1166 29.6531 50.1166 29.1709V26.3941C50.1166 25.9193 49.8733 25.6694 49.386 25.6694ZM49.7601 29.1893C49.7601 29.4451 49.6345 29.5693 49.3728 29.5693H49.2067C48.945 29.5693 48.8208 29.4451 48.8208 29.1893V26.3824C48.8208 26.1266 48.945 26.0024 49.2067 26.0024H49.3728C49.6345 26.0024 49.7601 26.1266 49.7601 26.3824V29.1893Z" fill="#656572"/>
<path d="M55.3423 29.1715C55.3423 29.6529 55.0983 29.9028 54.6051 29.9028H54.4508C53.9628 29.9028 53.7195 29.6537 53.7195 29.1715V25.7061H54.0759V29.184C54.0759 29.4457 54.2068 29.5706 54.4684 29.5706H54.5934C54.855 29.5706 54.9859 29.4457 54.9859 29.184V25.7061H55.3423V29.1715Z" fill="#656572"/>
<path d="M58.333 29.8671L57.3937 26.4369L57.4055 28.0774V29.8671H57.0667V25.7056H57.5187L58.422 29.0402L58.4161 27.4592V25.7056H58.7549V29.8671H58.333Z" fill="#656572"/>
<path d="M60.8474 25.7056H60.491V29.8671H60.8474V25.7056Z" fill="#656572"/>
<path d="M64.1895 28.2921V29.1719C64.1895 29.6533 63.9455 29.9032 63.4582 29.9032H63.298C62.8099 29.9032 62.5667 29.654 62.5667 29.1719V26.3958C62.5667 25.9203 62.8107 25.6704 63.298 25.6704H63.4582C63.9396 25.6704 64.1777 25.9144 64.1777 26.39V27.1566H63.8264V26.3833C63.8264 26.1276 63.7015 26.0034 63.4406 26.0034H63.3097C63.0481 26.0034 62.9231 26.1283 62.9231 26.3833V29.1895C62.9231 29.4453 63.0481 29.5703 63.3097 29.5703H63.4523C63.714 29.5703 63.8389 29.4453 63.8389 29.1895V28.2921H64.1895Z" fill="#656572"/>
<path d="M66.7686 25.6694H66.5782C66.0909 25.6694 65.8462 25.9193 65.8462 26.3941V29.1709C65.8462 29.6531 66.0909 29.903 66.5782 29.903H66.7686C67.2559 29.903 67.5006 29.6531 67.5006 29.1709V26.3941C67.5006 25.9193 67.2559 25.6694 66.7686 25.6694ZM67.1434 29.1893C67.1434 29.4451 67.0192 29.5693 66.7576 29.5693H66.59C66.3298 29.5693 66.2041 29.4451 66.2041 29.1893V26.3824C66.2041 26.1266 66.3298 26.0024 66.59 26.0024H66.7576C67.0192 26.0024 67.1434 26.1266 67.1434 26.3824V29.1893Z" fill="#656572"/>
<path d="M73.6547 25.8032H72.9226V29.964H73.6547C74.2493 29.964 74.5396 29.6737 74.5396 29.0791V26.6896C74.5396 26.095 74.2493 25.8032 73.6547 25.8032ZM74.1838 29.0783C74.1838 29.4532 74.0067 29.6318 73.6363 29.6318H73.2806V26.1362H73.6363C74.0067 26.1362 74.1838 26.3133 74.1838 26.6896V29.0791V29.0783Z" fill="#656572"/>
<path d="M77.5066 25.8032V26.1354H76.6092V27.6752H77.4772V28.0082H76.6092V29.631H77.5183V29.964H76.252V25.8032H77.5066Z" fill="#656572"/>
<path d="M81.8827 28.1271V27.7942H82.703V29.2686C82.703 29.75 82.459 29.9999 81.9783 29.9999H81.7938C81.3058 29.9999 81.0625 29.7507 81.0625 29.2686V26.4925C81.0625 26.017 81.3065 25.7671 81.7938 25.7671H81.9783C82.4597 25.7671 82.6978 26.017 82.6978 26.4866V27.0989H82.3473V26.4808C82.3473 26.225 82.2223 26.1008 81.9607 26.1008H81.8063C81.5447 26.1008 81.4197 26.2257 81.4197 26.4808V29.2869C81.4197 29.5427 81.5447 29.6677 81.8063 29.6677H81.9724C82.2282 29.6677 82.3524 29.5427 82.3524 29.2869V28.1279H81.8827V28.1271Z" fill="#656572"/>
<path d="M85.6636 25.8032V26.1354H84.7661V27.6752H85.6342V28.0082H84.7661V29.631H85.6753V29.964H84.4097V25.8032H85.6636Z" fill="#656572"/>
<path d="M88.8857 28.6507V29.2806C88.8857 29.7561 88.6417 29.9994 88.1544 29.9994H88.0235C87.5421 29.9994 87.2988 29.7554 87.2988 29.2865V28.4302H87.6494V29.2982C87.6494 29.5481 87.7802 29.6672 88.036 29.6672H88.1426C88.3984 29.6672 88.5292 29.5481 88.5292 29.2982V28.6625C88.5292 28.4302 88.452 28.3295 88.2918 28.2046L87.6795 27.7467C87.3936 27.5387 87.3047 27.3307 87.3047 27.0036V26.4862C87.3047 26.0106 87.5428 25.7666 88.036 25.7666H88.1492C88.6306 25.7666 88.8746 26.0106 88.8746 26.4803V27.2116H88.5233V26.4685C88.5233 26.2186 88.3984 26.1003 88.1367 26.1003H88.0478C87.7861 26.1003 87.6612 26.2194 87.6612 26.4685V26.9977C87.6612 27.2233 87.7384 27.3307 87.8986 27.4556L88.5108 27.9069C88.7901 28.1149 88.8857 28.3052 88.8857 28.65V28.6507Z" fill="#656572"/>
<path d="M90.9664 29.964V26.1354H90.3123V25.8032H91.977V26.1354H91.3236V29.964H90.9664Z" fill="#656572"/>
<path d="M93.874 25.8022H93.5176V29.9637H93.874V25.8022Z" fill="#656572"/>
<path d="M96.5135 25.7671H96.3231C95.8344 25.7671 95.5911 26.017 95.5911 26.4933V29.2686C95.5911 29.7507 95.8344 29.9992 96.3231 29.9992H96.5135C97.0008 29.9992 97.2441 29.7507 97.2441 29.2686V26.4933C97.2441 26.017 97.0008 25.7671 96.5135 25.7671ZM96.8883 29.2855C96.8883 29.5427 96.7641 29.6669 96.501 29.6669H96.3349C96.0732 29.6669 95.949 29.5427 95.949 29.2855V26.48C95.949 26.2243 96.0732 26.1 96.3349 26.1H96.501C96.7641 26.1 96.8883 26.2243 96.8883 26.48V29.2855Z" fill="#656572"/>
<path d="M100.223 29.964L99.2836 26.5338L99.2954 28.1743V29.964H98.9565V25.8032H99.4086L100.313 29.1379L100.306 27.5569V25.8032H100.646V29.964H100.223Z" fill="#656572"/>
<path d="M105.086 29.2148C105.086 29.7205 104.854 29.9637 104.343 29.9637H104.129V29.6308H104.326C104.611 29.6308 104.724 29.5058 104.724 29.2148V25.8022H105.087V29.2148H105.086Z" fill="#656572"/>
<path d="M108.421 29.2687C108.421 29.7501 108.177 30 107.684 30H107.529C107.041 30 106.797 29.7508 106.797 29.2687V25.8032H107.154V29.2812C107.154 29.5428 107.285 29.6678 107.546 29.6678H107.671C107.933 29.6678 108.064 29.5428 108.064 29.2812V25.8032H108.42V29.2687H108.421Z" fill="#656572"/>
<path d="M110.877 25.8032H110.145V29.964H110.877C111.472 29.964 111.762 29.6737 111.762 29.0791V26.6896C111.762 26.095 111.472 25.8032 110.877 25.8032ZM111.406 29.0783C111.406 29.4532 111.227 29.6318 110.858 29.6318H110.501V26.1362H110.858C111.227 26.1362 111.406 26.3133 111.406 26.6896V29.0791V29.0783Z" fill="#656572"/>
<path d="M113.837 25.8022H113.481V29.9637H113.837V25.8022Z" fill="#656572"/>
<path d="M117.178 28.3888V29.2686C117.178 29.75 116.934 29.9999 116.447 29.9999H116.287C115.799 29.9999 115.555 29.7507 115.555 29.2686V26.4925C115.555 26.017 115.799 25.7671 116.287 25.7671H116.447C116.928 25.7671 117.167 26.0111 117.167 26.4866V27.2532H116.815V26.48C116.815 26.2243 116.69 26.1 116.429 26.1H116.298C116.037 26.1 115.912 26.225 115.912 26.48V29.2862C115.912 29.542 116.037 29.6669 116.298 29.6669H116.441C116.703 29.6669 116.828 29.542 116.828 29.2862V28.3888H117.178Z" fill="#656572"/>
<path d="M119.224 25.8022H118.867V29.9637H119.224V25.8022Z" fill="#656572"/>
<path d="M121.952 25.7915H121.524L120.83 29.9633H121.173L121.293 29.1783H122.178L122.303 29.9633H122.648L121.952 25.7915ZM121.346 28.8468L121.733 26.3802L122.125 28.8468H121.346Z" fill="#656572"/>
<path d="M124.604 25.8032V29.631H125.454V29.964H124.247V25.8032H124.604Z" fill="#656572"/>
<path d="M54.2444 25.1064L54.4472 25.1432L54.7728 24.5545L54.5222 24.3413L54.2444 25.1064Z" fill="#656572"/>
<path d="M96.1731 25.1064L96.3752 25.1432L96.7015 24.5545L96.4509 24.3413L96.1731 25.1064Z" fill="#656572"/>
</svg>
