<svg width="42" height="31" viewBox="0 0 42 31" fill="none" xmlns="http://www.w3.org/2000/svg">
<path d="M35.9032 17.9604C35.8605 17.8053 35.938 17.6457 36.0823 17.5744C36.5743 17.3315 36.8992 16.8242 36.8992 16.2603L36.8525 6.52409C36.8496 5.98078 36.4169 5.53781 35.8736 5.52299L27.6156 5.29723L26.8711 3.27051L35.4734 3.42672C36.6233 3.44781 37.5588 4.40045 37.5588 5.55035V16.2598C37.5588 17.0801 37.0839 17.8178 36.3667 18.169C36.1809 18.2597 35.9585 18.1593 35.9038 17.9604H35.9032Z" fill="url(#paint0_linear_3272_18447)"/>
<path d="M11.9769 16.999V21.3803C11.9769 21.7366 11.7991 21.931 11.4428 21.9629C11.2455 21.9806 11.0482 21.9983 10.8516 22.0159C10.6902 22.0302 10.5699 22.0028 10.4918 21.9338C10.4131 21.8649 10.3339 21.7605 10.2529 21.6197C9.89663 21.0878 9.54032 20.5559 9.18457 20.0223C9.11787 19.9043 9.05744 19.7754 9.00271 19.6352C8.94798 19.4949 8.89952 19.353 8.85676 19.2093C8.84023 19.2105 8.82369 19.2122 8.80716 19.2133C8.83111 19.3587 8.84878 19.508 8.86075 19.6614C8.87272 19.8148 8.87842 19.9624 8.87842 20.1049V22.1853C8.40353 22.2246 7.92863 22.2622 7.45374 22.2987V17.9175C7.45374 17.5611 7.63218 17.3696 7.98792 17.3417C8.18518 17.3263 8.38186 17.3103 8.57912 17.2943C8.74046 17.2812 8.85961 17.3097 8.93544 17.3793C9.01126 17.4488 9.09221 17.5537 9.17773 17.694C9.51979 18.2019 9.86185 18.7093 10.2033 19.2167C10.27 19.3296 10.335 19.4545 10.3995 19.5913C10.4639 19.7281 10.5243 19.8723 10.5813 20.024C10.5979 20.0223 10.6144 20.0211 10.6309 20.0194C10.6115 19.8695 10.5967 19.7207 10.5847 19.5748C10.5728 19.4288 10.5665 19.2823 10.5671 19.1346C10.5648 18.4653 10.5625 17.7955 10.5597 17.1262C11.0323 17.0845 11.5049 17.0424 11.9775 16.999H11.9769Z" fill="#002C69"/>
<path d="M14.5414 18.0129C15.2113 17.9496 15.6862 18.0106 15.9661 18.1976C16.2466 18.3846 16.3886 18.6873 16.3937 19.1041C16.3983 19.4359 16.2996 19.6856 16.0978 19.8521C15.896 20.0185 15.534 20.1269 15.0112 20.1765C14.3727 20.2375 13.7336 20.2979 13.0951 20.3577C13.0951 20.1229 13.0951 19.8874 13.0951 19.6525C13.5939 19.6058 14.0922 19.559 14.591 19.5117C14.7524 19.4963 14.855 19.4712 14.8972 19.4365C14.94 19.4017 14.961 19.3247 14.961 19.2061C14.961 19.0921 14.9325 19.0214 14.8755 18.9935C14.8185 18.9661 14.7216 18.9581 14.5836 18.9713C14.4457 18.9798 14.3413 19.0037 14.2701 19.0437C14.1988 19.0836 14.1498 19.1605 14.1241 19.2745C14.0979 19.3886 14.0848 19.5642 14.0848 19.8019C14.0848 20.0202 14.1002 20.1896 14.131 20.3104C14.1618 20.4313 14.2222 20.5134 14.3128 20.5567C14.4029 20.6006 14.5357 20.6143 14.7119 20.5972C14.8544 20.5835 15.0545 20.5596 15.3139 20.5259C15.5728 20.4917 15.8538 20.4433 16.1583 20.3811C16.2033 20.6759 16.2483 20.9712 16.2934 21.2659C16.1269 21.3674 15.949 21.4512 15.7592 21.5162C15.5693 21.5818 15.3732 21.6336 15.1714 21.6718C14.9696 21.71 14.7615 21.7391 14.5483 21.7596C14.0546 21.8064 13.6578 21.775 13.3585 21.6656C13.0592 21.5555 12.8442 21.3702 12.7137 21.1097C12.5831 20.8486 12.5176 20.5162 12.5176 20.1126C12.5176 19.6423 12.5837 19.262 12.7171 18.9724C12.8499 18.6822 13.0649 18.4616 13.3619 18.3105C13.6589 18.1594 14.0517 18.0602 14.5409 18.014L14.5414 18.0129Z" fill="#002C69"/>
<path d="M17.455 19.7875C17.6853 19.8057 17.9157 19.8245 18.146 19.8434C18.0935 19.8576 18.0553 19.8958 18.032 19.9574C18.008 20.0189 18.0131 20.0765 18.0462 20.1307C18.0793 20.1848 18.1505 20.2111 18.26 20.2105C18.6921 20.198 19.1243 20.1866 19.5564 20.1752C19.9652 20.166 20.2565 20.2453 20.4327 20.4123C20.6083 20.5794 20.6961 20.8388 20.6961 21.1899C20.6961 21.5269 20.6248 21.788 20.4823 21.9716C20.3397 22.1557 20.1174 22.2908 19.8164 22.3775C19.5142 22.4647 19.122 22.5308 18.6374 22.5759C18.2098 22.6158 17.8632 22.6295 17.5975 22.6169C17.3313 22.6044 17.1249 22.5656 16.9778 22.5012C16.8308 22.4368 16.7298 22.3438 16.6751 22.2201C16.6204 22.0975 16.593 21.943 16.593 21.7578C16.593 21.6107 16.6227 21.4784 16.682 21.361C16.7412 21.2435 16.849 21.1335 17.0063 21.0309C17.1631 20.9283 17.386 20.8296 17.6762 20.7356C17.8803 20.6711 18.0844 20.6067 18.2891 20.5423C18.4504 20.589 18.6118 20.6352 18.7737 20.682C18.6978 20.7293 18.6214 20.7772 18.5456 20.8245C18.4031 20.9374 18.2914 21.0229 18.211 21.0805C18.13 21.1381 18.073 21.1859 18.0399 21.2247C18.0069 21.2635 17.9898 21.3211 17.9903 21.3969C17.9903 21.4585 18.008 21.5046 18.0439 21.5343C18.0793 21.5639 18.1437 21.5805 18.2361 21.5839C18.3284 21.5873 18.4555 21.581 18.6175 21.5656C18.7982 21.5485 18.9379 21.5309 19.0376 21.512C19.1374 21.4932 19.2064 21.4676 19.244 21.4357C19.2822 21.4037 19.301 21.3615 19.301 21.3091C19.301 21.2469 19.2822 21.2053 19.244 21.1825C19.2058 21.1597 19.1454 21.1466 19.0621 21.1426C18.9789 21.1386 18.8734 21.1381 18.7452 21.1403C18.4219 21.1466 18.0992 21.1535 17.7766 21.1603C17.5628 21.1614 17.394 21.1244 17.2709 21.048C17.1472 20.9716 17.0634 20.873 17.0177 20.7515C16.9727 20.6301 16.9607 20.5041 16.9824 20.3736C17.0035 20.243 17.0559 20.1244 17.1392 20.0167C17.2218 19.9089 17.3279 19.8325 17.4562 19.7869L17.455 19.7875ZM18.5947 17.6279C19.041 17.5863 19.3974 17.5897 19.663 17.6393C19.9293 17.6884 20.1214 17.7898 20.24 17.9426C20.3586 18.096 20.4178 18.3098 20.4178 18.5857C20.4178 18.8611 20.3597 19.0863 20.2434 19.2607C20.1271 19.4352 19.9344 19.5714 19.6664 19.6695C19.3979 19.7675 19.0382 19.8382 18.5872 19.8804C18.1408 19.922 17.7823 19.9197 17.5115 19.8713C17.2407 19.8234 17.0457 19.7231 16.9271 19.5708C16.8079 19.4181 16.7492 19.2043 16.7492 18.9289C16.7492 18.6535 16.8097 18.4278 16.9311 18.2528C17.0525 18.0777 17.2481 17.9403 17.5189 17.8406C17.7897 17.7414 18.1483 17.6701 18.5947 17.6285V17.6279ZM18.5872 18.4477C18.4116 18.4643 18.2931 18.4956 18.2309 18.5418C18.1694 18.588 18.138 18.6729 18.138 18.7961C18.138 18.9198 18.1688 18.9996 18.2309 19.0367C18.2925 19.0737 18.4116 19.084 18.5872 19.0674C18.7628 19.0509 18.8803 19.0184 18.9401 18.9705C18.9994 18.9221 19.0291 18.8366 19.0291 18.7128C19.0291 18.5891 18.9994 18.5105 18.9401 18.4751C18.8808 18.4403 18.7634 18.4312 18.5872 18.4477ZM20.8243 17.5225C20.8004 17.7072 20.777 17.8925 20.7531 18.0772C20.4207 18.1638 20.0883 18.2511 19.756 18.3388C19.6682 18.1068 19.5804 17.8754 19.4926 17.6439C19.9367 17.6028 20.3808 17.5624 20.8249 17.5225H20.8243Z" fill="#002C69"/>
<path d="M22.9759 17.237C23.4605 17.1971 23.8487 17.2262 24.1406 17.3248C24.4331 17.4229 24.6429 17.6053 24.7711 17.871C24.8994 18.1367 24.9633 18.5021 24.9633 18.9679C24.9633 19.4239 24.8994 19.7917 24.7711 20.0722C24.6429 20.3526 24.4325 20.5642 24.1406 20.7084C23.8487 20.8526 23.4605 20.9438 22.9759 20.9843C22.4913 21.0242 22.103 20.9974 21.8111 20.9017C21.5193 20.8059 21.3077 20.6286 21.1772 20.3697C21.0466 20.1109 20.9811 19.7535 20.9811 19.2974C20.9811 18.8316 21.0466 18.4559 21.1772 18.1686C21.3077 17.8818 21.5193 17.6646 21.8111 17.5181C22.103 17.3716 22.4913 17.2781 22.9759 17.2376V17.237ZM22.9759 18.2484C22.8619 18.2575 22.7741 18.2877 22.7125 18.3379C22.6509 18.3881 22.6082 18.4759 22.5842 18.6019C22.5603 18.7273 22.5489 18.9137 22.5489 19.1606C22.5489 19.3983 22.5608 19.5762 22.5842 19.6953C22.6082 19.8145 22.6503 19.8926 22.7125 19.9302C22.7741 19.9678 22.8619 19.9821 22.9759 19.9724C23.0899 19.9633 23.1777 19.9342 23.2393 19.8863C23.3008 19.8384 23.3424 19.7529 23.3641 19.6303C23.3852 19.5078 23.396 19.327 23.396 19.0899C23.396 18.843 23.3858 18.6589 23.3641 18.5369C23.3424 18.4149 23.3014 18.3339 23.2393 18.294C23.1777 18.2541 23.0899 18.2387 22.9759 18.2478V18.2484Z" fill="#002C69"/>
<path d="M27.2431 16.9225C27.3902 16.9134 27.5515 16.9106 27.7277 16.914C27.9027 16.9174 28.0789 16.9339 28.255 16.9613C28.4306 16.9892 28.5897 17.0354 28.7322 17.0987C28.6826 17.41 28.6324 17.7213 28.5823 18.0331C28.3542 18.0457 28.1547 18.0565 27.9842 18.0667C27.8132 18.077 27.6519 18.0867 27.4996 18.0958C27.348 18.1055 27.2277 18.1317 27.1399 18.1751C27.0521 18.219 26.99 18.2902 26.9546 18.39C26.9187 18.4898 26.901 18.6323 26.901 18.8176C26.901 19.0029 26.9187 19.1442 26.9546 19.2417C26.99 19.3392 27.0515 19.4042 27.1399 19.4367C27.2277 19.4692 27.348 19.4806 27.4996 19.4715C27.5806 19.4664 27.6815 19.4595 27.8024 19.4498C27.9238 19.4401 28.0578 19.4276 28.2049 19.4122C28.352 19.3968 28.499 19.378 28.6467 19.3558C28.6917 19.6642 28.7368 19.9732 28.7818 20.2816C28.5726 20.4025 28.3309 20.4925 28.0549 20.5535C27.7796 20.6145 27.5036 20.6539 27.2288 20.671C26.7636 20.7001 26.3919 20.6647 26.1137 20.5632C25.8361 20.4612 25.6365 20.2776 25.5151 20.0108C25.3937 19.744 25.3333 19.3825 25.3333 18.927C25.3333 18.4664 25.3948 18.0953 25.5185 17.8131C25.6417 17.5314 25.8435 17.3193 26.124 17.1791C26.4039 17.0388 26.7768 16.9528 27.2425 16.9237L27.2431 16.9225Z" fill="#002C69"/>
<path d="M30.7333 17.9307V20.4232C30.2367 20.4368 29.7407 20.4522 29.2441 20.4699C29.2441 19.6393 29.2441 18.8081 29.2441 17.9774C29.7407 17.9597 30.2367 17.9443 30.7333 17.9307Z" fill="#002C69"/>
<path d="M33.2481 16.6679C33.7321 16.6588 34.1209 16.7153 34.4128 16.8338C34.7047 16.9524 34.9151 17.1503 35.0433 17.4256C35.1711 17.701 35.236 18.0715 35.2355 18.5367C35.2355 18.9923 35.1711 19.356 35.0433 19.6268C34.9151 19.8976 34.7047 20.0943 34.4128 20.2174C34.1204 20.3411 33.7321 20.4055 33.2481 20.4147C32.7635 20.4238 32.3758 20.3736 32.0834 20.2607C31.7915 20.1479 31.58 19.9592 31.4494 19.6929C31.3189 19.4267 31.2533 19.0658 31.2533 18.6097C31.2533 18.1445 31.3183 17.7717 31.4494 17.4917C31.58 17.2118 31.7915 17.0066 32.0834 16.8772C32.3753 16.7478 32.7635 16.6771 33.2481 16.6679ZM33.2481 17.6793C33.1341 17.6816 33.0463 17.7055 32.9847 17.7523C32.9226 17.7985 32.8804 17.884 32.8564 18.0083C32.8325 18.1325 32.8211 18.3178 32.8211 18.5647C32.8211 18.8024 32.8331 18.9809 32.8564 19.1017C32.8804 19.2226 32.9226 19.303 32.9847 19.3446C33.0468 19.3862 33.1341 19.4056 33.2481 19.4033C33.3621 19.401 33.4499 19.3782 33.5115 19.3349C33.5731 19.291 33.6147 19.2089 33.6363 19.0869C33.6574 18.9655 33.6688 18.7859 33.6683 18.5487C33.6683 18.3019 33.6574 18.1166 33.6363 17.9934C33.6147 17.8703 33.5736 17.7865 33.5115 17.7426C33.4499 17.6987 33.3621 17.6776 33.2481 17.6793Z" fill="#002C69"/>
<path d="M22.1609 9.72803C22.1631 10.3415 22.1631 10.3768 22.1631 10.8819C20.731 11.0085 17.8908 11.3648 16.4587 11.468C16.4587 11.0832 16.2295 10.4692 16.2295 10.0849C17.6616 9.98229 20.7288 9.85459 22.1609 9.72803ZM19.7396 11.0056V15.9211C19.2242 15.9644 18.7089 16.0066 18.1935 16.0465V11.1311C18.7089 11.0906 19.2242 11.049 19.7396 11.0056Z" fill="#002C69"/>
<path d="M22.4757 12.1182V14.3051C22.4757 14.3809 22.4968 14.4351 22.5401 14.4664C22.5829 14.4984 22.649 14.5098 22.7396 14.5018C22.8349 14.4932 22.9323 14.4761 23.0315 14.4499C23.1313 14.4242 23.2619 14.3729 23.4232 14.296C23.4517 14.5377 23.4802 14.78 23.5087 15.0217C23.2664 15.2674 23.0264 15.4561 22.7892 15.5872C22.5521 15.7184 22.3001 15.7959 22.0339 15.8199C21.3309 15.8831 20.9797 15.5815 20.9797 14.9168C20.9797 14.0286 20.9797 13.1404 20.9797 12.2527C21.4786 12.2088 21.9768 12.1638 22.4757 12.1182ZM24.7698 11.9038V15.4658C24.3781 15.5029 23.9865 15.5399 23.5942 15.5764C23.5327 15.3398 23.4705 15.1032 23.4089 14.8672C23.3616 14.8433 23.3137 14.8193 23.2664 14.7948V12.0452C23.7675 11.9984 24.2687 11.9511 24.7698 11.9038Z" fill="#002C69"/>
<path d="M36.5082 21.9143C32.6588 22.1594 28.8089 22.5123 24.9596 22.8675L4.75453 24.486C4.41132 24.5134 4.15592 24.8138 4.18328 25.1571C4.20951 25.4831 4.48202 25.7306 4.80356 25.7306C4.82009 25.7306 4.83719 25.73 4.8543 25.7283L11.2281 25.2175C11.4812 25.197 11.7109 25.3634 11.7708 25.6103C11.7719 25.6148 11.7731 25.6188 11.7742 25.6234C11.8483 25.929 11.6345 26.2294 11.3216 26.2591L6.72481 26.6952C6.38217 26.7277 6.13076 27.0316 6.16325 27.3742C6.19404 27.6969 6.46541 27.9386 6.78296 27.9386C6.80291 27.9386 6.82229 27.9374 6.84282 27.9357L10.8843 27.5013C11.2834 27.4586 11.6528 27.718 11.748 28.1079C11.7491 28.113 11.7508 28.1182 11.752 28.1239C11.866 28.5925 11.5433 29.0549 11.0639 29.1096L9.77771 29.2555C9.43508 29.2857 9.18138 29.5879 9.2116 29.9311C9.2401 30.2555 9.51204 30.4995 9.83187 30.4995C9.85011 30.4995 9.86893 30.4989 9.88717 30.4972L17.4724 29.8302C23.6221 29.3644 29.7724 28.7316 35.9221 28.3593C36.3799 28.332 36.7653 27.9808 36.8651 27.4979C37.1455 26.1439 37.426 24.7899 37.7065 23.437C37.8741 22.6292 37.2761 21.8658 36.5099 21.9143H36.5082Z" fill="#00FFFF"/>
<path d="M16.4942 25.6569C16.0181 25.7008 15.5426 25.7441 15.0666 25.7863C15.0096 26.1113 14.9532 26.4356 14.8962 26.7606C15.3346 26.7218 15.7735 26.6825 16.212 26.642C16.188 26.7737 16.1646 26.9048 16.1407 27.0365C15.7028 27.0764 15.265 27.1158 14.8272 27.1545C14.7684 27.4898 14.7097 27.825 14.6516 28.1602C15.135 28.118 15.6179 28.0747 16.1014 28.0302C16.0791 28.1631 16.0569 28.2959 16.0346 28.4287C15.4132 28.4852 14.7918 28.541 14.1704 28.5946C14.3551 27.5377 14.5393 26.4807 14.724 25.4237C15.3363 25.3701 15.9491 25.3143 16.5614 25.2578C16.5392 25.3906 16.517 25.5235 16.4947 25.6563L16.4942 25.6569Z" fill="#1F0E68" stroke="#1F0E68" stroke-width="0.1" stroke-miterlimit="10"/>
<path d="M16.9803 28.342C17.1639 27.2839 17.3475 26.2263 17.531 25.1682C17.6314 25.1585 17.7323 25.1494 17.8326 25.1397C18.2414 25.8871 18.6496 26.634 19.0583 27.3808C19.1952 26.5821 19.3326 25.7834 19.4694 24.9846C19.6068 24.9715 19.7442 24.9584 19.8816 24.9453C19.6997 26.0034 19.5178 27.0615 19.3354 28.1196C19.2299 28.1299 19.1245 28.1396 19.0184 28.1499C18.6142 27.4076 18.2094 26.6647 17.8052 25.9219C17.6673 26.7155 17.5299 27.5096 17.3919 28.3032C17.2545 28.3163 17.1171 28.3289 16.9797 28.3414L16.9803 28.342Z" fill="#1F0E68" stroke="#1F0E68" stroke-width="0.1" stroke-miterlimit="10"/>
<path d="M22.4929 27.4271C22.9433 27.3849 23.3936 27.3427 23.8446 27.3011C23.8207 27.434 23.7973 27.5674 23.7733 27.7002C23.1861 27.7544 22.5989 27.8091 22.0117 27.865C22.1953 26.8068 22.3794 25.7487 22.563 24.6906C22.7004 24.6775 22.8378 24.665 22.9752 24.6519C22.8144 25.5771 22.6537 26.5018 22.4929 27.4271Z" fill="#1F0E68" stroke="#1F0E68" stroke-width="0.1" stroke-miterlimit="10"/>
<path d="M25.1861 24.4492C25.3234 24.4372 25.4608 24.4246 25.5982 24.4127C25.4147 25.4696 25.2305 26.5266 25.0469 27.5842C24.9096 27.5961 24.7722 27.6087 24.6348 27.6212C24.8183 26.5637 25.0025 25.5067 25.1861 24.4492ZM25.1786 24.1464C25.3063 24.135 25.4346 24.1236 25.5623 24.1122C25.7425 23.9001 25.9221 23.6881 26.1022 23.4766C25.9432 23.4902 25.7841 23.5039 25.625 23.5182C25.4762 23.7274 25.3274 23.9366 25.1792 24.1464H25.1786Z" fill="#1F0E68" stroke="#1F0E68" stroke-width="0.1" stroke-miterlimit="10"/>
<path d="M26.1645 27.4863C26.3481 26.4294 26.5317 25.373 26.7152 24.3166C26.8156 24.308 26.9165 24.2994 27.0168 24.2915C27.4256 25.0429 27.8338 25.7954 28.2425 26.5491C28.3794 25.7526 28.5168 24.9562 28.6536 24.1598C28.791 24.1489 28.9284 24.1387 29.0658 24.1284C28.8839 25.1831 28.702 26.2378 28.5196 27.2925C28.4141 27.3005 28.3087 27.309 28.2026 27.317C27.7984 26.5679 27.3937 25.8199 26.9894 25.0731C26.8515 25.8655 26.7141 26.658 26.5761 27.4504C26.4387 27.4624 26.3013 27.4738 26.1639 27.4858L26.1645 27.4863Z" fill="#1F0E68" stroke="#1F0E68" stroke-width="0.1" stroke-miterlimit="10"/>
<path d="M31.9591 24.3254C31.4831 24.3539 31.0076 24.3841 30.5316 24.4166C30.4746 24.7405 30.4181 25.0637 30.3611 25.3875C30.7995 25.3573 31.2385 25.3288 31.6769 25.302C31.653 25.4326 31.6296 25.5637 31.6057 25.6942C31.1678 25.721 30.73 25.7501 30.2921 25.7803C30.2334 26.1144 30.1747 26.4485 30.1165 26.7826C30.6 26.7489 31.0829 26.717 31.5663 26.6868C31.5441 26.8191 31.5218 26.9513 31.4996 27.0836C30.8782 27.1223 30.2568 27.1645 29.6354 27.2096C29.8201 26.1555 30.0042 25.1013 30.1889 24.0478C30.8012 24.005 31.4141 23.9651 32.0264 23.9292C32.0042 24.0615 31.9819 24.1937 31.9597 24.326L31.9591 24.3254Z" fill="#1F0E68" stroke="#1F0E68" stroke-width="0.1" stroke-miterlimit="10"/>
<path d="M34.5554 26.9222C34.5132 26.6907 34.4704 26.4587 34.4282 26.2272C33.9596 26.2472 33.491 26.27 33.0229 26.2945C32.8958 26.5345 32.7687 26.7751 32.6415 27.0157C32.4916 27.0242 32.3411 27.0328 32.1912 27.0413C32.7635 25.9673 33.3359 24.896 33.9089 23.8282C34.0651 23.8208 34.2213 23.814 34.3769 23.8071C34.5685 24.8396 34.7595 25.8726 34.951 26.9062C34.8193 26.9113 34.6876 26.9165 34.5554 26.9222ZM33.2339 25.8954C33.6084 25.876 33.983 25.8584 34.3581 25.8418C34.2646 25.3293 34.1706 24.8174 34.0771 24.3054C33.796 24.8345 33.5149 25.3647 33.2339 25.8954Z" fill="#1F0E68" stroke="#1F0E68" stroke-width="0.1" stroke-miterlimit="10"/>
<path d="M6.33109 21.2569C5.81629 21.2569 5.32657 21.0733 4.93263 20.7295C4.4851 20.3384 4.22627 19.7963 4.20404 19.2022L3.67612 5.1218C3.65389 4.53003 3.86996 3.97133 4.28442 3.54831C4.69889 3.12529 5.25189 2.89725 5.84537 2.90808L13.1609 2.97422L13.056 3.27181C12.6513 3.26269 13.7943 5.25862 13.393 5.29853C12.6153 5.37492 7.14064 5.23183 4.77585 5.28542C4.54439 5.29055 4.36253 5.48495 4.37165 5.71584L4.8836 19.1777C4.89899 19.5825 5.07516 19.9519 5.38016 20.2187C5.64184 20.4473 5.96623 20.5716 6.30715 20.5779C6.40578 20.5796 6.48673 20.656 6.49585 20.754L6.52436 21.0442C6.53519 21.1577 6.44739 21.2586 6.33337 21.2586C6.3328 21.2586 6.33223 21.2586 6.33109 21.2586V21.2569Z" fill="url(#paint1_linear_3272_18447)"/>
<path d="M12.4959 9.68067L8.97504 9.77532C8.40189 9.79073 7.94975 10.2679 7.96516 10.841L8.05981 14.3618C8.07522 14.935 8.55234 15.3871 9.1255 15.3717L12.6463 15.2771C13.2195 15.2617 13.6716 14.7845 13.6562 14.2114L13.5616 10.6906C13.5461 10.1174 13.069 9.66526 12.4959 9.68067Z" stroke="url(#paint2_linear_3272_18447)" stroke-width="2.98" stroke-miterlimit="10"/>
<path d="M12.6219 11.2088C12.5461 11.1181 12.4332 11.0674 12.3152 11.0708L9.70755 11.1409L9.59866 10.7282C9.58326 10.6706 9.53024 10.6307 9.47095 10.6324L8.95615 10.6461C8.88489 10.6478 8.82902 10.7071 8.83073 10.7783C8.83244 10.8496 8.89173 10.9055 8.96299 10.9037L9.37575 10.8929L9.88257 12.8142C9.67106 12.837 9.51827 13.0274 9.54165 13.2389C9.56331 13.439 9.73548 13.5884 9.93673 13.5821L12.1242 13.5234C12.1955 13.5217 12.2513 13.4624 12.2496 13.3911C12.2479 13.3198 12.1886 13.264 12.1174 13.2657L9.92989 13.3244C9.85862 13.3261 9.7999 13.2702 9.79762 13.199C9.79534 13.1277 9.85178 13.069 9.92304 13.0667L12.0951 13.0086C12.2747 13.004 12.4269 12.8769 12.4629 12.7007L12.7046 11.5354C12.7285 11.4197 12.6983 11.2994 12.6225 11.2093L12.6219 11.2088Z" fill="#00FFFF"/>
<path d="M11.7511 14.4335C11.9642 14.4335 12.137 14.2607 12.137 14.0476C12.137 13.8344 11.9642 13.6616 11.7511 13.6616C11.5379 13.6616 11.3651 13.8344 11.3651 14.0476C11.3651 14.2607 11.5379 14.4335 11.7511 14.4335Z" fill="#00FFFF"/>
<path d="M10.3354 14.4716C10.5486 14.4716 10.7214 14.2988 10.7214 14.0857C10.7214 13.8725 10.5486 13.6997 10.3354 13.6997C10.1223 13.6997 9.94946 13.8725 9.94946 14.0857C9.94946 14.2988 10.1223 14.4716 10.3354 14.4716Z" fill="#00FFFF"/>
<path d="M32.1907 9.067L28.6753 9.28263C28.103 9.31774 27.6675 9.81012 27.7026 10.3824L27.9182 13.8979C27.9533 14.4702 28.4457 14.9057 29.018 14.8705L32.5335 14.6549C33.1058 14.6198 33.5412 14.1274 33.5061 13.5551L33.2905 10.0397C33.2554 9.46737 32.763 9.0319 32.1907 9.067Z" stroke="url(#paint3_linear_3272_18447)" stroke-width="2.98" stroke-miterlimit="10"/>
<path d="M39.3834 14.3196C39.2665 14.3196 39.1497 14.2769 39.0579 14.1908C38.8663 14.0112 38.8566 13.7096 39.0362 13.5181L40.2015 12.2758L38.7335 11.4121C38.5072 11.2787 38.4313 10.9874 38.5647 10.7605C38.6981 10.5341 38.99 10.4583 39.2164 10.5917L41.1975 11.757C41.3223 11.8306 41.4067 11.9565 41.4272 12.0996C41.4478 12.2427 41.4021 12.3875 41.3035 12.493L39.7312 14.1691C39.6377 14.2689 39.5111 14.3196 39.384 14.3196H39.3834Z" fill="#00FFFF"/>
<path d="M2.27552 14.8964C2.14953 14.9106 2.01784 14.8742 1.91408 14.7852L0.166709 13.2921C0.056679 13.198 -0.00432217 13.0595 0.000238656 12.9147C0.00479949 12.7699 0.0749222 12.6354 0.190653 12.5487L2.03095 11.1725C2.24132 11.0151 2.53948 11.0579 2.6974 11.2688C2.85475 11.4792 2.81199 11.7773 2.60105 11.9353L1.23736 12.9552L2.53207 14.0612C2.73218 14.2316 2.75555 14.5321 2.58509 14.7322C2.50356 14.828 2.39182 14.8833 2.27552 14.8958V14.8964Z" fill="#00FFFF"/>
<path d="M13.7272 5.31738C13.8549 5.31738 13.969 5.2387 14.0151 5.12012L15.799 0.5H13.9393L11.3351 5.31738H13.7272Z" fill="url(#paint4_linear_3272_18447)"/>
<path d="M17.0636 5.31738H18.7636C18.9797 5.31738 19.1598 5.15091 19.1764 4.93541L19.519 0.5H17.6593L16.6611 4.81055C16.6012 5.06995 16.7979 5.31795 17.0641 5.31795L17.0636 5.31738Z" fill="url(#paint5_linear_3272_18447)"/>
<path d="M22.1905 5.31738H23.7577C24.0633 5.31738 24.289 5.0329 24.2201 4.73587L23.2389 0.5H21.3787L21.7167 4.87954C21.7361 5.12696 21.9419 5.31738 22.1899 5.31738H22.1905Z" fill="url(#paint6_linear_3272_18447)"/>
<path d="M27.3152 5.31738H29.4679L26.9589 0.5H25.0992L26.8312 4.98558C26.9088 5.18568 27.1009 5.31795 27.3158 5.31795L27.3152 5.31738Z" fill="url(#paint7_linear_3272_18447)"/>
<path d="M12.6868 7.66269C13.3937 7.63761 13.9433 7.03558 13.9433 6.32808V6.14166C13.9433 5.98716 13.8185 5.8623 13.664 5.8623H11.6144C11.4599 5.8623 11.3351 5.98716 11.3351 6.14166V6.35887C11.3351 7.09487 11.9445 7.68835 12.6868 7.66212V7.66269Z" fill="url(#paint8_linear_3272_18447)"/>
<path d="M17.8946 7.6631C18.6015 7.63801 19.1511 7.03598 19.1511 6.32849V6.21732C19.1511 6.02177 18.9926 5.86328 18.7971 5.86328H16.8975C16.7019 5.86328 16.5435 6.02177 16.5435 6.21732V6.35984C16.5435 7.09585 17.1529 7.68932 17.8952 7.6631H17.8946Z" fill="url(#paint9_linear_3272_18447)"/>
<path d="M22.1009 5.86328C21.9053 5.86328 21.7468 6.02177 21.7468 6.21732V6.32849C21.7468 7.03541 22.2964 7.63801 23.0033 7.6631C23.745 7.68932 24.3551 7.09585 24.3551 6.35984V6.21732C24.3551 6.02177 24.1966 5.86328 24.001 5.86328H22.1014H22.1009Z" fill="url(#paint10_linear_3272_18447)"/>
<path d="M29.2042 5.86328H27.3046C27.1091 5.86328 26.9506 6.02177 26.9506 6.21732V6.35984C26.9506 7.07988 27.5343 7.66367 28.2544 7.66367C28.9744 7.66367 29.5582 7.07988 29.5582 6.35984V6.21732C29.5582 6.02177 29.3997 5.86328 29.2042 5.86328Z" fill="url(#paint11_linear_3272_18447)"/>
<path d="M32.028 11.2993C32.0936 11.3169 32.1387 11.3808 32.1364 11.4543C32.1347 11.5159 32.0987 11.5672 32.0343 11.5986L31.2385 11.9868L31.9357 12.684C31.9596 12.708 31.9596 12.7467 31.9357 12.7707L31.2698 13.4366C31.2459 13.4605 31.2071 13.4605 31.1832 13.4366L30.4859 12.7393L30.0977 13.5352C30.0658 13.5996 30.0144 13.6361 29.9534 13.6372C29.9517 13.6372 29.9506 13.6372 29.9489 13.6372C29.877 13.6372 29.8155 13.5934 29.7984 13.5289L29.0555 10.7582C29.0384 10.6955 29.0521 10.6357 29.0937 10.5946C29.1348 10.5536 29.1946 10.5393 29.2579 10.5564L32.0286 11.2993H32.028Z" fill="#00FFFF"/>
<path d="M30.3182 15.967C30.6193 15.9545 30.7698 16.1016 30.7698 16.4072V16.7846C30.7698 17.0907 30.6193 17.2492 30.3182 17.2618C30.0988 17.2709 29.8793 17.2811 29.6598 17.2914C29.3588 17.3057 29.2083 17.1603 29.2083 16.8547V16.4773C29.2083 16.1717 29.3588 16.0109 29.6598 15.9967C29.8793 15.9864 30.0988 15.9762 30.3182 15.967Z" fill="#002C69"/>
<defs>
<linearGradient id="paint0_linear_3272_18447" x1="32.2147" y1="18.2032" x2="32.2147" y2="3.27108" gradientUnits="userSpaceOnUse">
<stop stop-color="#F82C93"/>
<stop offset="0.26" stop-color="#F64B75"/>
<stop offset="0.95" stop-color="#F49D28"/>
<stop offset="0.96" stop-color="#F59E37"/>
<stop offset="0.99" stop-color="#FDA77A"/>
</linearGradient>
<linearGradient id="paint1_linear_3272_18447" x1="8.5773" y1="21.2569" x2="8.5773" y2="2.90694" gradientUnits="userSpaceOnUse">
<stop stop-color="#F82C93"/>
<stop offset="0.39" stop-color="#F65A67"/>
<stop offset="0.99" stop-color="#F49D28"/>
</linearGradient>
<linearGradient id="paint2_linear_3272_18447" x1="10.8882" y1="15.4093" x2="10.7332" y2="9.64308" gradientUnits="userSpaceOnUse">
<stop stop-color="#F82C93"/>
<stop offset="0.39" stop-color="#F65A67"/>
<stop offset="0.99" stop-color="#F49D28"/>
</linearGradient>
<linearGradient id="paint3_linear_3272_18447" x1="30.7804" y1="14.8476" x2="30.4272" y2="9.09006" gradientUnits="userSpaceOnUse">
<stop stop-color="#F82C93"/>
<stop offset="0.39" stop-color="#F65A67"/>
<stop offset="0.99" stop-color="#F49D28"/>
</linearGradient>
<linearGradient id="paint4_linear_3272_18447" x1="13.567" y1="6.84183" x2="13.567" y2="0.571263" gradientUnits="userSpaceOnUse">
<stop stop-color="#F82C93"/>
<stop offset="0.19" stop-color="#F64F71"/>
<stop offset="0.42" stop-color="#F57051"/>
<stop offset="0.64" stop-color="#F4893A"/>
<stop offset="0.84" stop-color="#F4972C"/>
<stop offset="1" stop-color="#F49D28"/>
</linearGradient>
<linearGradient id="paint5_linear_3272_18447" x1="18.0846" y1="6.84183" x2="18.0846" y2="0.571263" gradientUnits="userSpaceOnUse">
<stop stop-color="#F82C93"/>
<stop offset="0.19" stop-color="#F74679"/>
<stop offset="0.56" stop-color="#F5754D"/>
<stop offset="0.84" stop-color="#F49232"/>
<stop offset="1" stop-color="#F49D28"/>
</linearGradient>
<linearGradient id="paint6_linear_3272_18447" x1="22.8056" y1="6.84183" x2="22.8056" y2="0.571263" gradientUnits="userSpaceOnUse">
<stop stop-color="#F82C93"/>
<stop offset="0.21" stop-color="#F64977"/>
<stop offset="0.56" stop-color="#F5764C"/>
<stop offset="0.84" stop-color="#F49231"/>
<stop offset="1" stop-color="#F49D28"/>
</linearGradient>
<linearGradient id="paint7_linear_3272_18447" x1="27.2833" y1="6.84183" x2="27.2833" y2="0.571263" gradientUnits="userSpaceOnUse">
<stop stop-color="#F82C93"/>
<stop offset="0.12" stop-color="#F73C83"/>
<stop offset="0.52" stop-color="#F57052"/>
<stop offset="0.83" stop-color="#F49033"/>
<stop offset="1" stop-color="#F49D28"/>
</linearGradient>
<linearGradient id="paint8_linear_3272_18447" x1="12.6389" y1="6.84174" x2="12.6389" y2="0.571171" gradientUnits="userSpaceOnUse">
<stop stop-color="#F82C93"/>
<stop offset="0.28" stop-color="#F64C74"/>
<stop offset="1" stop-color="#F49D28"/>
</linearGradient>
<linearGradient id="paint9_linear_3272_18447" x1="17.8467" y1="6.84215" x2="17.8467" y2="0.571577" gradientUnits="userSpaceOnUse">
<stop stop-color="#F82C93"/>
<stop offset="0.14" stop-color="#F73F80"/>
<stop offset="0.53" stop-color="#F57150"/>
<stop offset="0.83" stop-color="#F49133"/>
<stop offset="1" stop-color="#F49D28"/>
</linearGradient>
<linearGradient id="paint10_linear_3272_18447" x1="23.0507" y1="6.84215" x2="23.0507" y2="0.571577" gradientUnits="userSpaceOnUse">
<stop stop-color="#F82C93"/>
<stop offset="0.28" stop-color="#F64C74"/>
<stop offset="1" stop-color="#F49D28"/>
</linearGradient>
<linearGradient id="paint11_linear_3272_18447" x1="28.2544" y1="6.84215" x2="28.2544" y2="0.571578" gradientUnits="userSpaceOnUse">
<stop stop-color="#F82C93"/>
<stop offset="0.01" stop-color="#F72F90"/>
<stop offset="0.22" stop-color="#F6566A"/>
<stop offset="0.43" stop-color="#F5754D"/>
<stop offset="0.63" stop-color="#F48B38"/>
<stop offset="0.83" stop-color="#F4982C"/>
<stop offset="1" stop-color="#F49D28"/>
</linearGradient>
</defs>
</svg>
