<svg xmlns="http://www.w3.org/2000/svg" width="48" height="48" viewBox="0 0 48 48" fill="none"><path d="M0 5C0 2.23858 2.23858 0 5 0H24C37.2548 0 48 10.7452 48 24C48 37.2548 37.2548 48 24 48C10.7452 48 0 37.2548 0 24V5Z" fill="#E85846"></path><g clip-path="url(#clip0_6796_2281)"><path d="M29.1638 25C29.5978 26.441 30.9208 27.5 32.5008 27.5C34.4308 27.5 36.0008 25.93 36.0008 24C36.0008 22.07 34.4308 20.5 32.5008 20.5C30.9208 20.5 29.5978 21.559 29.1638 23H28.0008V18C28.0008 17.285 28.5048 16.687 29.1758 16.538C29.6208 17.959 30.9348 19 32.5008 19C34.4308 19 36.0008 17.43 36.0008 15.5C36.0008 13.57 34.4308 12 32.5008 12C30.9078 12 29.5748 13.076 29.1528 14.535C27.3878 14.713 26.0008 16.189 26.0008 18V23H25.0008C24.4478 23 24.0008 23.447 24.0008 24C24.0008 24.553 24.4478 25 25.0008 25H26.0008V30C26.0008 31.811 27.3888 33.287 29.1528 33.465C29.5748 34.924 30.9078 36 32.5008 36C34.4308 36 36.0008 34.43 36.0008 32.5C36.0008 30.57 34.4308 29 32.5008 29C30.9348 29 29.6208 30.041 29.1758 31.462C28.5048 31.313 28.0008 30.715 28.0008 30V25H29.1638ZM32.5008 22.5C33.3278 22.5 34.0008 23.173 34.0008 24C34.0008 24.827 33.3278 25.5 32.5008 25.5C31.6738 25.5 31.0008 24.827 31.0008 24C31.0008 23.173 31.6738 22.5 32.5008 22.5ZM32.5008 14C33.3278 14 34.0008 14.673 34.0008 15.5C34.0008 16.327 33.3278 17 32.5008 17C31.6738 17 31.0008 16.327 31.0008 15.5C31.0008 14.673 31.6738 14 32.5008 14ZM32.5008 31C33.3278 31 34.0008 31.673 34.0008 32.5C34.0008 33.327 33.3278 34 32.5008 34C31.6738 34 31.0008 33.327 31.0008 32.5C31.0008 31.673 31.6738 31 32.5008 31ZM23.6328 20.756C23.3588 20.277 22.7458 20.112 22.2678 20.389L21.2908 20.952C20.6858 20.3 19.8978 19.826 19.0018 19.621V18.5C19.0018 17.947 18.5548 17.5 18.0018 17.5C17.4488 17.5 17.0018 17.947 17.0018 18.5V19.621C16.1058 19.826 15.3168 20.299 14.7128 20.952L13.7358 20.389C13.2568 20.113 12.6458 20.278 12.3708 20.756C12.0948 21.235 12.2598 21.846 12.7378 22.121L13.7208 22.687C13.5918 23.105 13.5028 23.54 13.5028 24C13.5028 24.46 13.5918 24.895 13.7208 25.313L12.7378 25.879C12.2588 26.154 12.0938 26.766 12.3708 27.244C12.5558 27.565 12.8918 27.745 13.2378 27.745C13.4068 27.745 13.5788 27.702 13.7358 27.611L14.7128 27.048C15.3178 27.7 16.1058 28.174 17.0018 28.379V29.5C17.0018 30.053 17.4488 30.5 18.0018 30.5C18.5548 30.5 19.0018 30.053 19.0018 29.5V28.379C19.8978 28.174 20.6868 27.701 21.2908 27.048L22.2678 27.611C22.4248 27.702 22.5968 27.745 22.7658 27.745C23.1118 27.745 23.4488 27.565 23.6328 27.244C23.9088 26.765 23.7438 26.154 23.2658 25.879L22.2828 25.313C22.4118 24.895 22.5008 24.46 22.5008 24C22.5008 23.54 22.4118 23.105 22.2828 22.687L23.2658 22.121C23.7448 21.846 23.9098 21.234 23.6328 20.756ZM18.0008 26.5C16.6218 26.5 15.5008 25.379 15.5008 24C15.5008 22.621 16.6218 21.5 18.0008 21.5C19.3798 21.5 20.5008 22.621 20.5008 24C20.5008 25.379 19.3798 26.5 18.0008 26.5Z" fill="white"></path></g><defs><clipPath id="clip0_6796_2281"><rect width="24" height="24" fill="white" transform="translate(12 12)"></rect></clipPath></defs></svg>