<svg xmlns="http://www.w3.org/2000/svg" width="46" height="47" viewBox="0 0 46 47" fill="none"><rect y="0.625" width="46" height="46" rx="23" fill="#006AFF" fill-opacity="0.08"></rect><rect x="5" y="5.625" width="36" height="36" rx="18" fill="#0094FF"></rect><g clip-path="url(#clip0_7791_29361)"><path d="M28.8333 14.459H17.1667C16.062 14.4603 15.003 14.8997 14.2218 15.6808C13.4407 16.4619 13.0013 17.521 13 18.6257V28.6257C13.0013 29.7303 13.4407 30.7894 14.2218 31.5705C15.003 32.3516 16.062 32.791 17.1667 32.7923H28.8333C29.938 32.791 30.997 32.3516 31.7782 31.5705C32.5593 30.7894 32.9987 29.7303 33 28.6257V18.6257C32.9987 17.521 32.5593 16.4619 31.7782 15.6808C30.997 14.8997 29.938 14.4603 28.8333 14.459ZM17.1667 16.1257H28.8333C29.3323 16.1266 29.8196 16.2769 30.2325 16.5572C30.6453 16.8374 30.9649 17.2348 31.15 17.6982L24.7683 24.0807C24.2987 24.5484 23.6628 24.811 23 24.811C22.3372 24.811 21.7013 24.5484 21.2317 24.0807L14.85 17.6982C15.0351 17.2348 15.3547 16.8374 15.7675 16.5572C16.1804 16.2769 16.6677 16.1266 17.1667 16.1257ZM28.8333 31.1257H17.1667C16.5036 31.1257 15.8677 30.8623 15.3989 30.3934C14.9301 29.9246 14.6667 29.2887 14.6667 28.6257V19.8757L20.0533 25.259C20.8355 26.0392 21.8952 26.4774 23 26.4774C24.1048 26.4774 25.1645 26.0392 25.9467 25.259L31.3333 19.8757V28.6257C31.3333 29.2887 31.0699 29.9246 30.6011 30.3934C30.1323 30.8623 29.4964 31.1257 28.8333 31.1257Z" fill="white"></path></g><defs><clipPath id="clip0_7791_29361"><rect width="20" height="20" fill="white" transform="translate(13 13.625)"></rect></clipPath></defs></svg>