<svg xmlns="http://www.w3.org/2000/svg" width="46" height="47" viewBox="0 0 46 47" fill="none"><rect y="0.625" width="46" height="46" rx="23" fill="#006AFF" fill-opacity="0.08"></rect><rect x="5" y="5.625" width="36" height="36" rx="18" fill="#0094FF"></rect><g clip-path="url(#clip0_7791_29360)"><path d="M27.1667 21.9908C23.9508 21.9908 21.3333 24.6075 21.3333 27.8242C21.3333 31.0225 23.9508 33.625 27.1667 33.625C30.3825 33.625 33 31.0083 33 27.7917C33 24.5933 30.3825 21.9908 27.1667 21.9908ZM27.1667 31.9583C24.8692 31.9583 23 30.1033 23 27.8242C23 25.5267 24.8692 23.6575 27.1667 23.6575C29.4642 23.6575 31.3333 25.5125 31.3333 27.7917C31.3333 30.0892 29.4642 31.9583 27.1667 31.9583ZM28.5892 28.0358C28.915 28.3617 28.915 28.8883 28.5892 29.2142C28.4267 29.3767 28.2133 29.4583 28 29.4583C27.7867 29.4583 27.5733 29.3767 27.4108 29.2142L26.5775 28.3808C26.4208 28.2242 26.3333 28.0125 26.3333 27.7917V26.125C26.3333 25.665 26.7058 25.2917 27.1667 25.2917C27.6275 25.2917 28 25.665 28 26.125V27.4467L28.5892 28.0358ZM33 19.4583V21.125C33 21.585 32.6275 21.9583 32.1667 21.9583C31.7058 21.9583 31.3333 21.585 31.3333 21.125V19.4583C31.3333 18.08 30.2117 16.9583 28.8333 16.9583H17.1667C15.7883 16.9583 14.6667 18.08 14.6667 19.4583V20.2917H22.1667C22.6267 20.2917 23 20.665 23 21.125C23 21.585 22.6267 21.9583 22.1667 21.9583H14.6667V29.4583C14.6667 30.8367 15.7883 31.9583 17.1667 31.9583H20.5C20.96 31.9583 21.3333 32.3317 21.3333 32.7917C21.3333 33.2517 20.96 33.625 20.5 33.625H17.1667C14.8692 33.625 13 31.7558 13 29.4583V19.4583C13 17.1608 14.8692 15.2917 17.1667 15.2917H18V14.4583C18 13.9983 18.3733 13.625 18.8333 13.625C19.2933 13.625 19.6667 13.9983 19.6667 14.4583V15.2917H26.3333V14.4583C26.3333 13.9983 26.7058 13.625 27.1667 13.625C27.6275 13.625 28 13.9983 28 14.4583V15.2917H28.8333C31.1308 15.2917 33 17.1608 33 19.4583Z" fill="white"></path></g><defs><clipPath id="clip0_7791_29360"><rect width="20" height="20" fill="white" transform="translate(13 13.625)"></rect></clipPath></defs></svg>