<svg xmlns="http://www.w3.org/2000/svg" width="48" height="48" viewBox="0 0 48 48" fill="none"><path d="M0 5C0 2.23858 2.23858 0 5 0H24C37.2548 0 48 10.7452 48 24C48 37.2548 37.2548 48 24 48C10.7452 48 0 37.2548 0 24V5Z" fill="#0094FF"></path><path d="M31 20.424V19C31 17.1435 30.2625 15.363 28.9497 14.0503C27.637 12.7375 25.8565 12 24 12C22.1435 12 20.363 12.7375 19.0503 14.0503C17.7375 15.363 17 17.1435 17 19V20.424C16.1094 20.8127 15.3513 21.4525 14.8185 22.2652C14.2857 23.0779 14.0013 24.0282 14 25V31C14.0016 32.3256 14.5289 33.5964 15.4662 34.5338C16.4036 35.4711 17.6744 35.9984 19 36H29C30.3256 35.9984 31.5964 35.4711 32.5338 34.5338C33.4711 33.5964 33.9984 32.3256 34 31V25C33.9987 24.0282 33.7143 23.0779 33.1815 22.2652C32.6487 21.4525 31.8906 20.8127 31 20.424ZM19 19C19 17.6739 19.5268 16.4021 20.4645 15.4645C21.4021 14.5268 22.6739 14 24 14C25.3261 14 26.5979 14.5268 27.5355 15.4645C28.4732 16.4021 29 17.6739 29 19V20H19V19ZM32 31C32 31.7956 31.6839 32.5587 31.1213 33.1213C30.5587 33.6839 29.7956 34 29 34H19C18.2044 34 17.4413 33.6839 16.8787 33.1213C16.3161 32.5587 16 31.7956 16 31V25C16 24.2044 16.3161 23.4413 16.8787 22.8787C17.4413 22.3161 18.2044 22 19 22H29C29.7956 22 30.5587 22.3161 31.1213 22.8787C31.6839 23.4413 32 24.2044 32 25V31Z" fill="white"></path><path d="M24 26C23.7348 26 23.4804 26.1054 23.2929 26.2929C23.1054 26.4804 23 26.7348 23 27V29C23 29.2652 23.1054 29.5196 23.2929 29.7071C23.4804 29.8946 23.7348 30 24 30C24.2652 30 24.5196 29.8946 24.7071 29.7071C24.8946 29.5196 25 29.2652 25 29V27C25 26.7348 24.8946 26.4804 24.7071 26.2929C24.5196 26.1054 24.2652 26 24 26Z" fill="white"></path></svg>