<svg width="14" height="15" viewBox="0 0 14 15" fill="none" xmlns="http://www.w3.org/2000/svg">
<path d="M7 0.625C8.85652 0.625 10.637 1.3625 11.9497 2.67525C13.2625 3.98801 14 5.76848 14 7.625C14 9.48152 13.2625 11.262 11.9497 12.5747C10.637 13.8875 8.85652 14.625 7 14.625C5.14348 14.625 3.36301 13.8875 2.05025 12.5747C0.737498 11.262 0 9.48152 0 7.625C0 5.76848 0.737498 3.98801 2.05025 2.67525C3.36301 1.3625 5.14348 0.625 7 0.625ZM7 5.875C7.09849 5.875 7.19602 5.8556 7.28701 5.81791C7.37801 5.78022 7.46069 5.72497 7.53033 5.65533C7.59997 5.58569 7.65522 5.50301 7.69291 5.41201C7.7306 5.32102 7.75 5.22349 7.75 5.125C7.75 5.02651 7.7306 4.92898 7.69291 4.83799C7.65522 4.74699 7.59997 4.66431 7.53033 4.59467C7.46069 4.52503 7.37801 4.46978 7.28701 4.43209C7.19602 4.3944 7.09849 4.375 7 4.375C6.80135 4.375 6.61084 4.45391 6.47038 4.59438C6.32991 4.73484 6.251 4.92535 6.251 5.124C6.251 5.32265 6.32991 5.51316 6.47038 5.65362C6.61084 5.79409 6.80135 5.873 7 5.873M7.5 7.123C7.5 6.99039 7.44732 6.86321 7.35355 6.76945C7.25979 6.67568 7.13261 6.623 7 6.623C6.86739 6.623 6.74021 6.67568 6.64645 6.76945C6.55268 6.86321 6.5 6.99039 6.5 7.123V10.123C6.5 10.2556 6.55268 10.3828 6.64645 10.4766C6.74021 10.5703 6.86739 10.623 7 10.623C7.13261 10.623 7.25979 10.5703 7.35355 10.4766C7.44732 10.3828 7.5 10.2556 7.5 10.123V7.123Z" fill="#0094FF"/>
</svg>
