<svg xmlns="http://www.w3.org/2000/svg" width="35" height="36" viewBox="0 0 35 36" fill="none"><g clip-path="url(#clip0_6366_8225)"><rect width="35" height="35" transform="translate(0 0.5)" fill="white"></rect><g filter="url(#filter0_d_6366_8225)"><path d="M27.6427 4.05357C27.7849 4.05357 27.9298 4.05914 28.0748 4.07308C30.6561 4.30724 32.56 6.57636 32.3231 9.14375L30.6227 27.7064C30.4638 29.4543 29.332 30.9624 27.6957 31.6147C26.0593 32.267 24.1916 31.952 22.8619 30.7979L12.4307 21.7465L11.9903 24.4923C11.5833 27.0374 9.17757 28.7741 6.61576 28.3699C4.05394 27.9657 2.3089 25.5739 2.71589 23.026L4.48602 11.9537C4.75363 10.2783 5.91607 8.87613 7.52173 8.2991C9.1274 7.71928 10.9226 8.05379 12.2077 9.17162L22.1037 17.7575L22.9707 8.29631C23.1937 5.87388 25.2398 4.05078 27.6399 4.05078L27.6427 4.05357Z" fill="url(#paint0_linear_6366_8225)"></path><path style="mix-blend-mode:multiply" d="M23.8962 19.3155C25.2258 20.4696 27.0908 20.7846 28.7299 20.1323C30.3662 19.48 31.498 17.9691 31.6569 16.2241L32.3426 8.74491C32.3565 6.34757 30.5195 4.29867 28.0748 4.07567C27.9298 4.06173 27.7877 4.05615 27.6427 4.05615C25.2426 4.05615 23.1937 5.87646 22.9735 8.30168L22.1065 17.7628L23.8934 19.3211L23.8962 19.3155Z" fill="url(#paint1_linear_6366_8225)"></path><path style="mix-blend-mode:multiply" d="M6.61575 28.3728C9.17478 28.777 11.5833 27.0431 11.9903 24.4952L12.4279 21.7522L10.4794 20.0629C9.1915 18.9478 7.39907 18.6133 5.79341 19.1904C4.18774 19.7702 3.02531 21.1696 2.7577 22.8449L2.67686 23.3411C2.45385 25.7663 4.15987 27.9825 6.61296 28.37L6.61575 28.3728Z" fill="url(#paint2_linear_6366_8225)"></path></g></g><defs><filter id="filter0_d_6366_8225" x="-0.363018" y="1.03078" width="37.726" height="35.9389" filterUnits="userSpaceOnUse" color-interpolation-filters="sRGB"><feGaussianBlur stdDeviation="2.01"></feGaussianBlur></filter><linearGradient id="paint0_linear_6366_8225" x1="30.3885" y1="30.285" x2="6.10005" y2="3.82499" gradientUnits="userSpaceOnUse"><stop stop-color="#7946ED"></stop><stop offset="0.26" stop-color="#9037E0"></stop><stop offset="0.82" stop-color="#CB11C1"></stop><stop offset="1" stop-color="#E104B6"></stop></linearGradient><linearGradient id="paint1_linear_6366_8225" x1="27.0071" y1="28.1662" x2="27.2998" y2="7.98947" gradientUnits="userSpaceOnUse"><stop stop-color="#2800EE"></stop><stop offset="0.11" stop-color="#411EF0"></stop><stop offset="0.55" stop-color="#A695F7"></stop><stop offset="0.86" stop-color="#E6E1FD"></stop><stop offset="1" stop-color="white"></stop></linearGradient><linearGradient id="paint2_linear_6366_8225" x1="11.8843" y1="11.5774" x2="7.00602" y2="24.6541" gradientUnits="userSpaceOnUse"><stop stop-color="#2800EE"></stop><stop offset="0.11" stop-color="#411EF0"></stop><stop offset="0.55" stop-color="#A695F7"></stop><stop offset="0.86" stop-color="#E6E1FD"></stop><stop offset="1" stop-color="white"></stop></linearGradient><clipPath id="clip0_6366_8225"><rect width="35" height="35" fill="white" transform="translate(0 0.5)"></rect></clipPath></defs></svg>