<svg xmlns="http://www.w3.org/2000/svg" width="25" height="25" viewBox="0 0 25 25" fill="none"><path fill-rule="evenodd" clip-rule="evenodd" d="M21.4234 11.9101C21.501 11.9875 21.5626 12.0794 21.6046 12.1807C21.6466 12.2819 21.6682 12.3905 21.6682 12.5001C21.6682 12.6097 21.6466 12.7182 21.6046 12.8195C21.5626 12.9207 21.501 13.0127 21.4234 13.0901L14.7567 19.7567C14.6002 19.9132 14.388 20.0011 14.1667 20.0011C13.9454 20.0011 13.7332 19.9132 13.5767 19.7567C13.4202 19.6003 13.3323 19.388 13.3323 19.1667C13.3323 18.9454 13.4202 18.7332 13.5767 18.5767L18.8217 13.3334L4.16672 13.3334C3.94571 13.3334 3.73375 13.2456 3.57747 13.0893C3.42119 12.9331 3.33339 12.7211 3.33339 12.5001C3.33339 12.2791 3.42119 12.0671 3.57747 11.9108C3.73375 11.7545 3.94571 11.6667 4.16672 11.6667H18.8217L13.5767 6.42341C13.4992 6.34593 13.4378 6.25395 13.3959 6.15272C13.3539 6.05148 13.3323 5.94298 13.3323 5.83341C13.3323 5.72384 13.3539 5.61534 13.3959 5.5141C13.4378 5.41287 13.4992 5.32089 13.5767 5.24341C13.6542 5.16593 13.7462 5.10447 13.8474 5.06254C13.9486 5.02061 14.0571 4.99902 14.1667 4.99902C14.2763 4.99902 14.3848 5.02061 14.486 5.06254C14.5873 5.10447 14.6792 5.16593 14.7567 5.24341L21.4234 11.9101Z" fill="#002C69"></path></svg>