<svg xmlns="http://www.w3.org/2000/svg" width="25" height="25" viewBox="0 0 25 25" fill="none"><path fill-rule="evenodd" clip-rule="evenodd" d="M3.57661 13.0899C3.499 13.0125 3.43743 12.9206 3.39542 12.8193C3.35341 12.7181 3.33179 12.6095 3.33179 12.4999C3.33179 12.3903 3.35341 12.2818 3.39542 12.1805C3.43743 12.0793 3.499 11.9873 3.57661 11.9099L10.2433 5.24326C10.3998 5.08678 10.612 4.99887 10.8333 4.99887C11.0546 4.99887 11.2668 5.08678 11.4233 5.24326C11.5798 5.39973 11.6677 5.61196 11.6677 5.83326C11.6677 6.05455 11.5798 6.26678 11.4233 6.42326L6.17828 11.6666L20.8333 11.6666C21.0543 11.6666 21.2663 11.7544 21.4225 11.9107C21.5788 12.0669 21.6666 12.2789 21.6666 12.4999C21.6666 12.7209 21.5788 12.9329 21.4225 13.0892C21.2663 13.2455 21.0543 13.3333 20.8333 13.3333H6.17828L11.4233 18.5766C11.5008 18.6541 11.5622 18.7461 11.6041 18.8473C11.6461 18.9485 11.6677 19.057 11.6677 19.1666C11.6677 19.2762 11.6461 19.3847 11.6041 19.4859C11.5622 19.5871 11.5008 19.6791 11.4233 19.7566C11.3458 19.8341 11.2538 19.8955 11.1526 19.9375C11.0514 19.9794 10.9429 20.001 10.8333 20.001C10.7237 20.001 10.6152 19.9794 10.514 19.9375C10.4127 19.8955 10.3208 19.8341 10.2433 19.7566L3.57661 13.0899Z" fill="#002C69"></path></svg>