<svg xmlns="http://www.w3.org/2000/svg" width="46" height="47" viewBox="0 0 46 47" fill="none"><rect y="0.625" width="46" height="46" rx="23" fill="#006AFF" fill-opacity="0.08"></rect><rect x="5" y="5.625" width="36" height="36" rx="18" fill="#0094FF"></rect><g clip-path="url(#clip0_7791_29495)"><path d="M23.0013 18.625C22.342 18.625 21.6976 18.8205 21.1494 19.1868C20.6012 19.553 20.174 20.0736 19.9217 20.6827C19.6694 21.2918 19.6034 21.962 19.732 22.6086C19.8606 23.2552 20.1781 23.8492 20.6443 24.3154C21.1105 24.7815 21.7044 25.099 22.351 25.2276C22.9976 25.3562 23.6678 25.2902 24.2769 25.0379C24.886 24.7856 25.4066 24.3584 25.7729 23.8102C26.1391 23.2621 26.3346 22.6176 26.3346 21.9583C26.3346 21.0743 25.9834 20.2264 25.3583 19.6013C24.7332 18.9762 23.8854 18.625 23.0013 18.625ZM23.0013 23.625C22.6717 23.625 22.3494 23.5273 22.0754 23.3441C21.8013 23.161 21.5877 22.9007 21.4615 22.5961C21.3354 22.2916 21.3024 21.9565 21.3667 21.6332C21.431 21.3099 21.5897 21.0129 21.8228 20.7798C22.0559 20.5467 22.3529 20.388 22.6762 20.3237C22.9995 20.2594 23.3346 20.2924 23.6391 20.4185C23.9437 20.5447 24.204 20.7583 24.3871 21.0324C24.5702 21.3065 24.668 21.6287 24.668 21.9583C24.668 22.4004 24.4924 22.8243 24.1798 23.1368C23.8673 23.4494 23.4433 23.625 23.0013 23.625Z" fill="white"></path><path d="M23.0003 33.6247C22.2985 33.6283 21.6062 33.4637 20.9811 33.1448C20.3561 32.8258 19.8166 32.3617 19.4078 31.7914C16.2319 27.4105 14.6211 24.1172 14.6211 22.0022C14.6211 19.7799 15.5039 17.6486 17.0753 16.0772C18.6467 14.5058 20.778 13.623 23.0003 13.623C25.2226 13.623 27.3538 14.5058 28.9252 16.0772C30.4966 17.6486 31.3794 19.7799 31.3794 22.0022C31.3794 24.1172 29.7686 27.4105 26.5928 31.7914C26.1839 32.3617 25.6444 32.8258 25.0194 33.1448C24.3943 33.4637 23.702 33.6283 23.0003 33.6247ZM23.0003 15.4422C21.2606 15.4442 19.5928 16.1362 18.3627 17.3663C17.1325 18.5964 16.4406 20.2642 16.4386 22.0039C16.4386 23.6789 18.0161 26.7764 20.8794 30.7255C21.1225 31.0604 21.4414 31.3329 21.81 31.5208C22.1786 31.7087 22.5865 31.8066 23.0003 31.8066C23.414 31.8066 23.8219 31.7087 24.1905 31.5208C24.5591 31.3329 24.878 31.0604 25.1211 30.7255C27.9844 26.7764 29.5619 23.6789 29.5619 22.0039C29.5599 20.2642 28.868 18.5964 27.6379 17.3663C26.4077 16.1362 24.7399 15.4442 23.0003 15.4422Z" fill="white"></path></g><defs><clipPath id="clip0_7791_29495"><rect width="20" height="20" fill="white" transform="translate(13 13.625)"></rect></clipPath></defs></svg>