<svg xmlns="http://www.w3.org/2000/svg" width="48" height="48" viewBox="0 0 48 48" fill="none"><path d="M0 5C0 2.23858 2.23858 0 5 0H24C37.2548 0 48 10.7452 48 24C48 37.2548 37.2548 48 24 48C10.7452 48 0 37.2548 0 24V5Z" fill="#FFC046"></path><g clip-path="url(#clip0_6796_2261)"><path d="M24 36C21.6266 36 19.3066 35.2962 17.3332 33.9776C15.3598 32.6591 13.8217 30.7849 12.9135 28.5922C12.0052 26.3995 11.7676 23.9867 12.2306 21.6589C12.6936 19.3312 13.8365 17.193 15.5147 15.5147C17.193 13.8365 19.3312 12.6936 21.6589 12.2306C23.9867 11.7676 26.3995 12.0052 28.5922 12.9135C30.7849 13.8217 32.6591 15.3598 33.9776 17.3332C35.2962 19.3066 36 21.6266 36 24C35.9966 27.1815 34.7312 30.2318 32.4815 32.4815C30.2318 34.7312 27.1815 35.9966 24 36ZM24 14C22.0222 14 20.0888 14.5865 18.4443 15.6853C16.7998 16.7841 15.5181 18.3459 14.7612 20.1732C14.0043 22.0004 13.8063 24.0111 14.1922 25.9509C14.578 27.8907 15.5304 29.6725 16.9289 31.0711C18.3275 32.4696 20.1093 33.422 22.0491 33.8079C23.9889 34.1937 25.9996 33.9957 27.8268 33.2388C29.6541 32.4819 31.2159 31.2002 32.3147 29.5557C33.4135 27.9112 34 25.9778 34 24C33.9971 21.3487 32.9426 18.8069 31.0679 16.9322C29.1931 15.0574 26.6513 14.0029 24 14ZM29.666 27.746L28.336 26.252C27.1135 27.2813 25.5945 27.8936 24 28C22.4064 27.8937 20.8882 27.2821 19.666 26.254L18.334 27.746C19.9219 29.1025 21.9142 29.8951 24 30C26.0858 29.8951 28.0781 29.1025 29.666 27.746ZM22 23V22C22 21.4696 21.7893 20.9609 21.4142 20.5858C21.0391 20.2107 20.5304 20 20 20C19.4696 20 18.9609 20.2107 18.5858 20.5858C18.2107 20.9609 18 21.4696 18 22V23H22ZM26 22V23H30V22C30 21.4696 29.7893 20.9609 29.4142 20.5858C29.0391 20.2107 28.5304 20 28 20C27.4696 20 26.9609 20.2107 26.5858 20.5858C26.2107 20.9609 26 21.4696 26 22Z" fill="white"></path></g><defs><clipPath id="clip0_6796_2261"><rect width="24" height="24" fill="white" transform="translate(12 12)"></rect></clipPath></defs></svg>