<svg xmlns="http://www.w3.org/2000/svg" width="19" height="15" viewBox="0 0 19 15" fill="none"><path fill-rule="evenodd" clip-rule="evenodd" d="M0.57661 8.08992C0.499005 8.01251 0.437433 7.92055 0.395423 7.81931C0.353412 7.71807 0.331787 7.60954 0.331787 7.49992C0.331787 7.39031 0.353412 7.28178 0.395423 7.18053C0.437433 7.07929 0.499005 6.98733 0.57661 6.90992L7.24328 0.243257C7.39975 0.0867786 7.61198 -0.0011282 7.83328 -0.0011282C8.05457 -0.0011282 8.2668 0.0867786 8.42328 0.243257C8.57975 0.399734 8.66766 0.611964 8.66766 0.833257C8.66766 1.05455 8.57975 1.26678 8.42328 1.42326L3.17828 6.66659L17.8333 6.66659C18.0543 6.66659 18.2663 6.75439 18.4225 6.91067C18.5788 7.06695 18.6666 7.27891 18.6666 7.49992C18.6666 7.72094 18.5788 7.9329 18.4225 8.08918C18.2663 8.24546 18.0543 8.33326 17.8333 8.33326H3.17828L8.42328 13.5766C8.50076 13.6541 8.56222 13.7461 8.60415 13.8473C8.64608 13.9485 8.66766 14.057 8.66766 14.1666C8.66766 14.2762 8.64608 14.3847 8.60415 14.4859C8.56222 14.5871 8.50076 14.6791 8.42328 14.7566C8.3458 14.8341 8.25382 14.8955 8.15258 14.9375C8.05135 14.9794 7.94285 15.001 7.83328 15.001C7.7237 15.001 7.6152 14.9794 7.51397 14.9375C7.41274 14.8955 7.32076 14.8341 7.24328 14.7566L0.57661 8.08992Z" fill="#002C69"></path></svg>