<svg width="64" height="65" viewBox="0 0 64 65" fill="none" xmlns="http://www.w3.org/2000/svg">
<path d="M44.5 28.875C45.8256 28.8733 47.0964 28.346 48.0337 27.4087C48.971 26.4714 49.4983 25.2006 49.5 23.875V20.125H45.75C44.4702 20.1269 43.2403 20.6221 42.3162 21.5075C41.6687 20.3325 40.718 19.3526 39.5632 18.6698C38.4084 17.987 37.0916 17.6262 35.75 17.625H32V21.375C32.0023 23.3634 32.7932 25.2697 34.1993 26.6757C35.6053 28.0818 37.5116 28.8727 39.5 28.875H40.75V45.125H25.75V38.875H27C28.3256 38.8733 29.5964 38.346 30.5337 37.4087C31.471 36.4714 31.9983 35.2006 32 33.875V30.125H28.25C26.9702 30.1269 25.7403 30.6221 24.8162 31.5075C24.1687 30.3325 23.218 29.3526 22.0632 28.6698C20.9084 27.987 19.5916 27.6262 18.25 27.625H14.5V31.375C14.5023 33.3634 15.2932 35.2697 16.6993 36.6757C18.1053 38.0818 20.0116 38.8727 22 38.875H23.25V45.125H14.5V47.625H49.5V45.125H43.25V28.875H44.5ZM43.25 25.125C43.2507 24.4622 43.5143 23.8267 43.983 23.358C44.4517 22.8893 45.0872 22.6257 45.75 22.625H47V23.875C46.9993 24.5378 46.7357 25.1733 46.267 25.642C45.7983 26.1107 45.1628 26.3743 44.5 26.375H43.25V25.125ZM25.75 35.125C25.7507 34.4622 26.0143 33.8267 26.483 33.358C26.9517 32.8893 27.5872 32.6257 28.25 32.625H29.5V33.875C29.4993 34.5378 29.2357 35.1733 28.767 35.642C28.2983 36.1107 27.6628 36.3743 27 36.375H25.75V35.125ZM23.25 36.375H22C20.6744 36.3733 19.4036 35.846 18.4663 34.9087C17.529 33.9714 17.0017 32.7006 17 31.375V30.125H18.25C19.5756 30.1267 20.8464 30.654 21.7837 31.5913C22.721 32.5286 23.2483 33.7994 23.25 35.125V36.375ZM40.75 26.375H39.5C38.1744 26.3733 36.9036 25.846 35.9663 24.9087C35.029 23.9714 34.5017 22.7006 34.5 21.375V20.125H35.75C37.0756 20.1267 38.3464 20.654 39.2837 21.5913C40.221 22.5286 40.7483 23.7994 40.75 25.125V26.375Z" fill="#006AFF"/>
</svg>
