<svg width="65" height="65" viewBox="0 0 65 65" fill="none" xmlns="http://www.w3.org/2000/svg">
<path d="M32.3333 28.334C32 27.9173 31.5694 27.5907 31.0417 27.354C30.5139 27.1173 29.9444 26.9995 29.3333 27.0007C28.3333 27.0007 27.4722 27.3618 26.75 28.084C26.0278 28.8062 25.6667 29.6673 25.6667 30.6673C25.6667 31.5284 25.8817 32.334 26.3117 33.084C26.7417 33.834 27.7767 34.959 29.4167 36.459L31.2083 38.1257C31.5139 38.4312 31.8889 38.584 32.3333 38.584C32.7778 38.584 33.1528 38.4312 33.4583 38.1257L35.2083 36.5007C36.8194 35.0007 37.8544 33.8618 38.3133 33.084C38.7722 32.3062 39.0011 31.5007 39 30.6673C39 29.6673 38.6389 28.8062 37.9167 28.084C37.1944 27.3618 36.3333 27.0007 35.3333 27.0007C34.75 27.0007 34.1872 27.119 33.645 27.3557C33.1028 27.5923 32.6656 27.9184 32.3333 28.334ZM32.3333 49.0423H31.9167C31.7778 49.0423 31.6528 49.0145 31.5417 48.959C27.9028 47.8201 24.9028 45.5629 22.5417 42.1873C20.1806 38.8118 19 35.0829 19 31.0007V23.1257C19 22.4312 19.2017 21.8062 19.605 21.2507C20.0083 20.6951 20.5289 20.2923 21.1667 20.0423L31.1667 16.2923C31.5556 16.1534 31.9444 16.084 32.3333 16.084C32.7222 16.084 33.1111 16.1534 33.5 16.2923L43.5 20.0423C44.1389 20.2923 44.66 20.6951 45.0633 21.2507C45.4667 21.8062 45.6678 22.4312 45.6667 23.1257V31.0007C45.6667 35.084 44.4861 38.8134 42.125 42.189C39.7639 45.5645 36.7639 47.8212 33.125 48.959C32.9861 49.0145 32.7222 49.0423 32.3333 49.0423ZM32.3333 45.6673C35.2222 44.7507 37.6111 42.9173 39.5 40.1673C41.3889 37.4173 42.3333 34.3618 42.3333 31.0007V23.1257L32.3333 19.3757L22.3333 23.1257V31.0007C22.3333 34.3618 23.2778 37.4173 25.1667 40.1673C27.0556 42.9173 29.4444 44.7507 32.3333 45.6673Z" fill="#006AFF"/>
</svg>
