<svg width="65" height="65" viewBox="0 0 65 65" fill="none" xmlns="http://www.w3.org/2000/svg">
<path d="M26.0827 42.625H38.5827V45.125H26.0827V42.625ZM28.5827 47.625H36.0827V50.125H28.5827V47.625ZM32.3327 15.125C29.0175 15.125 25.8381 16.442 23.4939 18.7862C21.1497 21.1304 19.8327 24.3098 19.8327 27.625C19.7482 29.4417 20.0962 31.2525 20.8481 32.9084C21.6 34.5643 22.7343 36.018 24.1577 37.15C25.4077 38.3125 26.0827 38.975 26.0827 40.125H28.5827C28.5827 37.825 27.1952 36.5375 25.8452 35.3C24.6769 34.4053 23.7458 33.2378 23.1335 31.8998C22.5211 30.5618 22.2462 29.094 22.3327 27.625C22.3327 24.9728 23.3863 22.4293 25.2617 20.5539C27.137 18.6786 29.6806 17.625 32.3327 17.625C34.9849 17.625 37.5284 18.6786 39.4038 20.5539C41.2792 22.4293 42.3327 24.9728 42.3327 27.625C42.4179 29.095 42.141 30.5635 41.5264 31.9017C40.9118 33.2398 39.9783 34.4067 38.8077 35.3C37.4702 36.55 36.0827 37.8 36.0827 40.125H38.5827C38.5827 38.975 39.2452 38.3125 40.5077 37.1375C41.9302 36.0075 43.064 34.5559 43.8159 32.9021C44.5678 31.2484 44.9163 29.4397 44.8327 27.625C44.8327 25.9835 44.5094 24.358 43.8812 22.8415C43.253 21.3249 42.3323 19.9469 41.1716 18.7862C40.0108 17.6254 38.6328 16.7047 37.1163 16.0765C35.5997 15.4483 33.9743 15.125 32.3327 15.125Z" fill="#006AFF"/>
</svg>
