<svg width="64" height="65" viewBox="0 0 64 65" fill="none" xmlns="http://www.w3.org/2000/svg">
<path d="M41.1663 32.5C43.5975 32.5 45.9291 33.4658 47.6482 35.1849C49.3672 36.9039 50.333 39.2355 50.333 41.6667C50.333 44.0978 49.3672 46.4294 47.6482 48.1485C45.9291 49.8676 43.5975 50.8333 41.1663 50.8333C38.7352 50.8333 36.4036 49.8676 34.6845 48.1485C32.9654 46.4294 31.9997 44.0978 31.9997 41.6667C31.9997 39.2355 32.9654 36.9039 34.6845 35.1849C36.4036 33.4658 38.7352 32.5 41.1663 32.5ZM41.1663 35.8333L41.0163 35.845C40.8498 35.8754 40.6965 35.9558 40.5768 36.0755C40.4572 36.1952 40.3768 36.3485 40.3463 36.515L40.333 36.6667V40.8333H36.163L36.013 40.8467C35.8465 40.8771 35.6932 40.9575 35.5735 41.0772C35.4538 41.1969 35.3734 41.3502 35.343 41.5167L35.3297 41.6667L35.343 41.8167C35.3734 41.9832 35.4538 42.1365 35.5735 42.2562C35.6932 42.3758 35.8465 42.4562 36.013 42.4867L36.163 42.5H40.333V46.6717L40.3463 46.8217C40.3768 46.9882 40.4572 47.1415 40.5768 47.2612C40.6965 47.3808 40.8498 47.4612 41.0163 47.4917L41.1663 47.505L41.3163 47.4917C41.4828 47.4612 41.6361 47.3808 41.7558 47.2612C41.8755 47.1415 41.9559 46.9882 41.9863 46.8217L41.9997 46.6717V42.5L46.173 42.5017L46.323 42.4883C46.4895 42.4579 46.6428 42.3775 46.7625 42.2578C46.8822 42.1381 46.9626 41.9848 46.993 41.8183L47.0063 41.6683L46.993 41.5183C46.9625 41.3516 46.8818 41.1981 46.7618 41.0784C46.6418 40.9587 46.4882 40.8784 46.3213 40.8483L46.1713 40.835H41.9997V36.6683L41.9863 36.5183C41.9562 36.3515 41.876 36.1979 41.7562 36.0779C41.6365 35.9578 41.4831 35.8772 41.3163 35.8467L41.1663 35.8333ZM35.7563 29.1667C37.148 29.1667 38.3613 29.9233 39.008 31.05C38.1327 31.2264 37.2828 31.5114 36.478 31.8983C36.2679 31.7469 36.0153 31.6658 35.7563 31.6667H28.253C27.9215 31.6667 27.6035 31.7984 27.3691 32.0328C27.1347 32.2672 27.003 32.5851 27.003 32.9167V39.9983C27.003 42.3483 28.6263 44.3217 30.813 44.8567C31.0988 45.7901 31.5109 46.68 32.038 47.5017L32.0047 47.5C30.0151 47.5 28.107 46.7096 26.7002 45.3028C25.2934 43.896 24.503 41.9879 24.503 39.9983V32.9167C24.503 31.9221 24.8981 30.9683 25.6014 30.265C26.3046 29.5618 27.2584 29.1667 28.253 29.1667H35.7563ZM24.343 29.1667C23.6739 29.8633 23.2037 30.7266 22.9813 31.6667H19.083C18.7515 31.6667 18.4335 31.7984 18.1991 32.0328C17.9647 32.2672 17.833 32.5851 17.833 32.9167V37.4983C17.8329 38.1281 17.9755 38.7498 18.2501 39.3166C18.5247 39.8833 18.9242 40.3805 19.4186 40.7708C19.9129 41.161 20.4892 41.4342 21.1043 41.5697C21.7193 41.7052 22.3571 41.6996 22.9697 41.5533C23.1113 42.3933 23.3697 43.195 23.7247 43.94C22.7368 44.2043 21.7014 44.2378 20.6985 44.038C19.6956 43.8382 18.7521 43.4105 17.9409 42.7878C17.1297 42.1651 16.4727 41.3642 16.0204 40.447C15.5682 39.5298 15.333 38.5209 15.333 37.4983V32.9167C15.3329 31.9665 15.6935 31.0516 16.342 30.3571C16.9904 29.6625 17.8784 29.24 18.8263 29.175L19.083 29.1667H24.343ZM44.9163 29.1667C45.9109 29.1667 46.8647 29.5618 47.568 30.265C48.2713 30.9683 48.6663 31.9221 48.6663 32.9167V33.85C46.6513 31.9111 43.9627 30.8297 41.1663 30.8333L40.758 30.8417C40.5026 30.2197 40.1323 29.6514 39.6663 29.1667H44.9163ZM42.833 19.1667C43.9381 19.1667 44.9979 19.6057 45.7793 20.3871C46.5607 21.1685 46.9997 22.2283 46.9997 23.3333C46.9997 24.4384 46.5607 25.4982 45.7793 26.2796C44.9979 27.061 43.9381 27.5 42.833 27.5C41.7279 27.5 40.6681 27.061 39.8867 26.2796C39.1053 25.4982 38.6663 24.4384 38.6663 23.3333C38.6663 22.2283 39.1053 21.1685 39.8867 20.3871C40.6681 19.6057 41.7279 19.1667 42.833 19.1667ZM31.9997 17.5C33.3258 17.5 34.5975 18.0268 35.5352 18.9645C36.4729 19.9021 36.9997 21.1739 36.9997 22.5C36.9997 23.8261 36.4729 25.0979 35.5352 26.0355C34.5975 26.9732 33.3258 27.5 31.9997 27.5C30.6736 27.5 29.4018 26.9732 28.4641 26.0355C27.5265 25.0979 26.9997 23.8261 26.9997 22.5C26.9997 21.1739 27.5265 19.9021 28.4641 18.9645C29.4018 18.0268 30.6736 17.5 31.9997 17.5ZM21.1663 19.1667C22.2714 19.1667 23.3312 19.6057 24.1126 20.3871C24.894 21.1685 25.333 22.2283 25.333 23.3333C25.333 24.4384 24.894 25.4982 24.1126 26.2796C23.3312 27.061 22.2714 27.5 21.1663 27.5C20.0613 27.5 19.0015 27.061 18.2201 26.2796C17.4387 25.4982 16.9997 24.4384 16.9997 23.3333C16.9997 22.2283 17.4387 21.1685 18.2201 20.3871C19.0015 19.6057 20.0613 19.1667 21.1663 19.1667ZM42.833 21.6667C42.391 21.6667 41.9671 21.8423 41.6545 22.1548C41.3419 22.4674 41.1663 22.8913 41.1663 23.3333C41.1663 23.7754 41.3419 24.1993 41.6545 24.5118C41.9671 24.8244 42.391 25 42.833 25C43.275 25 43.699 24.8244 44.0115 24.5118C44.3241 24.1993 44.4997 23.7754 44.4997 23.3333C44.4997 22.8913 44.3241 22.4674 44.0115 22.1548C43.699 21.8423 43.275 21.6667 42.833 21.6667ZM31.9997 20C31.3366 20 30.7007 20.2634 30.2319 20.7322C29.7631 21.2011 29.4997 21.837 29.4997 22.5C29.4997 23.163 29.7631 23.7989 30.2319 24.2678C30.7007 24.7366 31.3366 25 31.9997 25C32.6627 25 33.2986 24.7366 33.7674 24.2678C34.2363 23.7989 34.4997 23.163 34.4997 22.5C34.4997 21.837 34.2363 21.2011 33.7674 20.7322C33.2986 20.2634 32.6627 20 31.9997 20ZM21.1663 21.6667C20.7243 21.6667 20.3004 21.8423 19.9878 22.1548C19.6753 22.4674 19.4997 22.8913 19.4997 23.3333C19.4997 23.7754 19.6753 24.1993 19.9878 24.5118C20.3004 24.8244 20.7243 25 21.1663 25C21.6084 25 22.0323 24.8244 22.3449 24.5118C22.6574 24.1993 22.833 23.7754 22.833 23.3333C22.833 22.8913 22.6574 22.4674 22.3449 22.1548C22.0323 21.8423 21.6084 21.6667 21.1663 21.6667Z" fill="#006AFF"/>
</svg>
