<svg width="65" height="65" viewBox="0 0 65 65" fill="none" xmlns="http://www.w3.org/2000/svg">
<path d="M24.3324 35.834C23.6049 35.8351 22.8863 35.9949 22.227 36.3023C21.5676 36.6098 20.9832 37.0574 20.5147 37.614C20.0462 38.1706 19.7048 38.8227 19.5143 39.5248C19.3238 40.227 19.2888 40.9622 19.4118 41.6793C19.5348 42.3963 19.8128 43.0779 20.2264 43.6764C20.64 44.275 21.1792 44.776 21.8064 45.1446C22.4337 45.5133 23.1338 45.7406 23.8579 45.8107C24.582 45.8808 25.3128 45.7921 25.9991 45.5507" stroke="#006AFF" stroke-width="2.5" stroke-linecap="round" stroke-linejoin="round"/>
<path d="M19.7729 38.5083C18.7755 38.0281 17.9133 37.3071 17.2643 36.4104C16.6152 35.5137 16.1997 34.4695 16.0551 33.372C15.9106 32.2745 16.0416 31.1583 16.4363 30.1242C16.8311 29.09 17.4771 28.1704 18.3162 27.4483M18.3662 27.3133C17.8196 26.4954 17.58 25.5104 17.6899 24.5329C17.7998 23.5553 18.252 22.6481 18.9665 21.9719C19.681 21.2957 20.6117 20.8941 21.5939 20.8383C22.576 20.7824 23.5463 21.0758 24.3329 21.6666M24.7295 21.775C24.4637 21.21 24.3281 20.5926 24.333 19.9682C24.3378 19.3439 24.483 18.7286 24.7576 18.1679C25.0322 17.6072 25.4294 17.1153 25.9196 16.7288C26.4099 16.3422 26.9808 16.0707 27.5901 15.9344C28.1995 15.7982 28.8316 15.8006 29.4399 15.9415C30.0481 16.0824 30.6169 16.3582 31.1043 16.7485C31.5916 17.1388 31.985 17.6337 32.2553 18.1964C32.5257 18.7592 32.6661 19.3756 32.6662 20M32.6662 20V45.8333M32.6662 20C32.6663 19.3756 32.8067 18.7592 33.0771 18.1964C33.3474 17.6337 33.7408 17.1388 34.2281 16.7485C34.7155 16.3582 35.2843 16.0824 35.8925 15.9415C36.5008 15.8006 37.1329 15.7982 37.7423 15.9344C38.3516 16.0707 38.9225 16.3422 39.4128 16.7288C39.903 17.1153 40.3002 17.6072 40.5748 18.1679C40.8494 18.7286 40.9945 19.3439 40.9994 19.9682C41.0043 20.5926 40.8687 21.21 40.6029 21.775M32.6662 45.8333C32.6662 46.7174 32.315 47.5652 31.6899 48.1903C31.0648 48.8154 30.2169 49.1666 29.3329 49.1666C28.4488 49.1666 27.601 48.8154 26.9758 48.1903C26.3507 47.5652 25.9995 46.7174 25.9995 45.8333M32.6662 45.8333C32.6662 46.7174 33.0174 47.5652 33.6425 48.1903C34.2676 48.8154 35.1155 49.1666 35.9995 49.1666M32.6662 24.1666C32.6662 25.4927 33.193 26.7645 34.1307 27.7022C35.0683 28.6399 36.3401 29.1666 37.6662 29.1666M47.0162 27.4483C47.7439 28.0734 48.3277 28.8485 48.7276 29.7205C49.1274 30.5925 49.3339 31.5407 49.3329 32.5C49.3329 33.6716 49.0312 34.7733 48.4995 35.73M46.9662 27.3133C47.5128 26.4954 47.7524 25.5104 47.6425 24.5329C47.5326 23.5553 47.0804 22.6481 46.3659 21.9719C45.6514 21.2957 44.7207 20.8941 43.7385 20.8383C42.7564 20.7824 41.7861 21.0758 40.9995 21.6666M43.7779 39.1666L40.9995 44.1666H47.6662L44.8879 49.1666" stroke="#006AFF" stroke-width="2.5" stroke-linecap="round" stroke-linejoin="round"/>
</svg>
