<svg width="65" height="65" viewBox="0 0 65 65" fill="none" xmlns="http://www.w3.org/2000/svg">
<path d="M29.666 21.625C29.666 20.8294 29.9821 20.0663 30.5447 19.5037C31.1073 18.9411 31.8704 18.625 32.666 18.625C33.4617 18.625 34.2247 18.9411 34.7873 19.5037C35.3499 20.0663 35.666 20.8294 35.666 21.625C35.666 22.4206 35.3499 23.1837 34.7873 23.7463C34.2247 24.3089 33.4617 24.625 32.666 24.625C31.8704 24.625 31.1073 24.3089 30.5447 23.7463C29.9821 23.1837 29.666 22.4206 29.666 21.625ZM32.666 16.625C31.3399 16.625 30.0682 17.1518 29.1305 18.0895C28.1928 19.0271 27.666 20.2989 27.666 21.625C27.666 22.9511 28.1928 24.2229 29.1305 25.1605C30.0682 26.0982 31.3399 26.625 32.666 26.625C33.9921 26.625 35.2639 26.0982 36.2015 25.1605C37.1392 24.2229 37.666 22.9511 37.666 21.625C37.666 20.2989 37.1392 19.0271 36.2015 18.0895C35.2639 17.1518 33.9921 16.625 32.666 16.625ZM41.666 22.625C41.666 22.0946 41.8767 21.5859 42.2518 21.2108C42.6269 20.8357 43.1356 20.625 43.666 20.625C44.1964 20.625 44.7052 20.8357 45.0802 21.2108C45.4553 21.5859 45.666 22.0946 45.666 22.625C45.666 23.1554 45.4553 23.6641 45.0802 24.0392C44.7052 24.4143 44.1964 24.625 43.666 24.625C43.1356 24.625 42.6269 24.4143 42.2518 24.0392C41.8767 23.6641 41.666 23.1554 41.666 22.625ZM43.666 18.625C42.6052 18.625 41.5877 19.0464 40.8376 19.7966C40.0874 20.5467 39.666 21.5641 39.666 22.625C39.666 23.6859 40.0874 24.7033 40.8376 25.4534C41.5877 26.2036 42.6052 26.625 43.666 26.625C44.7269 26.625 45.7443 26.2036 46.4944 25.4534C47.2446 24.7033 47.666 23.6859 47.666 22.625C47.666 21.5641 47.2446 20.5467 46.4944 19.7966C45.7443 19.0464 44.7269 18.625 43.666 18.625ZM21.666 20.625C21.1356 20.625 20.6269 20.8357 20.2518 21.2108C19.8767 21.5859 19.666 22.0946 19.666 22.625C19.666 23.1554 19.8767 23.6641 20.2518 24.0392C20.6269 24.4143 21.1356 24.625 21.666 24.625C22.1964 24.625 22.7052 24.4143 23.0802 24.0392C23.4553 23.6641 23.666 23.1554 23.666 22.625C23.666 22.0946 23.4553 21.5859 23.0802 21.2108C22.7052 20.8357 22.1964 20.625 21.666 20.625ZM17.666 22.625C17.666 21.5641 18.0874 20.5467 18.8376 19.7966C19.5877 19.0464 20.6051 18.625 21.666 18.625C22.7269 18.625 23.7443 19.0464 24.4944 19.7966C25.2446 20.5467 25.666 21.5641 25.666 22.625C25.666 23.6859 25.2446 24.7033 24.4944 25.4534C23.7443 26.2036 22.7269 26.625 21.666 26.625C20.6051 26.625 19.5877 26.2036 18.8376 25.4534C18.0874 24.7033 17.666 23.6859 17.666 22.625ZM22.666 42.625C22.732 42.625 22.8 42.625 22.866 42.621C23.002 43.297 23.208 43.951 23.474 44.571C22.6256 44.6863 21.7623 44.6187 20.9421 44.3727C20.122 44.1267 19.364 43.708 18.7191 43.1447C18.0742 42.5815 17.5573 41.8867 17.2032 41.1072C16.8491 40.3276 16.6659 39.4812 16.666 38.625V31.125C16.666 29.745 17.786 28.625 19.166 28.625H23.424C23.0233 29.2232 22.7729 29.9093 22.694 30.625H19.166C19.0334 30.625 18.9062 30.6777 18.8125 30.7714C18.7187 30.8652 18.666 30.9924 18.666 31.125V38.625C18.666 39.6859 19.0874 40.7033 19.8376 41.4534C20.5877 42.2036 21.6051 42.625 22.666 42.625ZM46.666 31.625C47.6685 32.3766 48.3523 33.4772 48.582 34.709L48.666 34.725V31.125C48.666 29.745 47.546 28.625 46.166 28.625H41.908C42.3 29.209 42.558 29.891 42.638 30.625H46.166C46.2986 30.625 46.4258 30.6777 46.5196 30.7714C46.6133 30.8652 46.666 30.9924 46.666 31.125V31.625ZM43.666 32.625H39.666C38.8704 32.625 38.1073 32.9411 37.5447 33.5037C36.9821 34.0663 36.666 34.8294 36.666 35.625V36.625H35.666C34.8704 36.625 34.1073 36.9411 33.5447 37.5037C32.9821 38.0663 32.666 38.8294 32.666 39.625V42.625H36.666V41.625C36.666 41.3598 36.7714 41.1054 36.9589 40.9179C37.1464 40.7304 37.4008 40.625 37.666 40.625C37.9312 40.625 38.1856 40.7304 38.3731 40.9179C38.5607 41.1054 38.666 41.3598 38.666 41.625V42.625H44.666V41.625C44.666 41.3598 44.7714 41.1054 44.9589 40.9179C45.1464 40.7304 45.4008 40.625 45.666 40.625C45.9312 40.625 46.1856 40.7304 46.3731 40.9179C46.5607 41.1054 46.666 41.3598 46.666 41.625V42.625H50.666V39.625C50.666 38.8294 50.3499 38.0663 49.7873 37.5037C49.2247 36.9411 48.4617 36.625 47.666 36.625H46.666V35.625C46.666 34.8294 46.3499 34.0663 45.7873 33.5037C45.2247 32.9411 44.4617 32.625 43.666 32.625ZM27.166 30.625C27.0334 30.625 26.9062 30.6777 26.8125 30.7714C26.7187 30.8652 26.666 30.9924 26.666 31.125V40.625C26.666 43.237 28.336 45.461 30.666 46.285V47.625C30.666 47.885 30.686 48.139 30.724 48.387C28.9937 47.9533 27.4578 46.954 26.3603 45.5477C25.2627 44.1415 24.6664 42.4089 24.666 40.625V31.125C24.666 29.745 25.786 28.625 27.166 28.625H38.166C39.376 28.625 40.386 29.485 40.616 30.625H27.166ZM38.666 36.625V35.625C38.666 35.3598 38.7714 35.1054 38.9589 34.9179C39.1464 34.7304 39.4008 34.625 39.666 34.625H43.666C43.9312 34.625 44.1856 34.7304 44.3731 34.9179C44.5607 35.1054 44.666 35.3598 44.666 35.625V36.625H38.666ZM46.666 44.625V45.625C46.666 45.8902 46.5607 46.1446 46.3731 46.3321C46.1856 46.5196 45.9312 46.625 45.666 46.625C45.4008 46.625 45.1464 46.5196 44.9589 46.3321C44.7714 46.1446 44.666 45.8902 44.666 45.625V44.625H38.666V45.625C38.666 45.8902 38.5607 46.1446 38.3731 46.3321C38.1856 46.5196 37.9312 46.625 37.666 46.625C37.4008 46.625 37.1464 46.5196 36.9589 46.3321C36.7714 46.1446 36.666 45.8902 36.666 45.625V44.625H32.666V47.625C32.666 48.4206 32.9821 49.1837 33.5447 49.7463C34.1073 50.3089 34.8704 50.625 35.666 50.625H47.666C48.4617 50.625 49.2247 50.3089 49.7873 49.7463C50.3499 49.1837 50.666 48.4206 50.666 47.625V44.625H46.666Z" fill="#006AFF"/>
</svg>
