<svg width="41" height="41" viewBox="0 0 41 41" fill="none" xmlns="http://www.w3.org/2000/svg">
<path d="M17.1045 9.5C17.1045 8.70435 17.4206 7.94129 17.9832 7.37868C18.5458 6.81607 19.3088 6.5 20.1045 6.5C20.9001 6.5 21.6632 6.81607 22.2258 7.37868C22.7884 7.94129 23.1045 8.70435 23.1045 9.5C23.1045 10.2956 22.7884 11.0587 22.2258 11.6213C21.6632 12.1839 20.9001 12.5 20.1045 12.5C19.3088 12.5 18.5458 12.1839 17.9832 11.6213C17.4206 11.0587 17.1045 10.2956 17.1045 9.5ZM20.1045 4.5C18.7784 4.5 17.5066 5.02678 16.569 5.96447C15.6313 6.90215 15.1045 8.17392 15.1045 9.5C15.1045 10.8261 15.6313 12.0979 16.569 13.0355C17.5066 13.9732 18.7784 14.5 20.1045 14.5C21.4306 14.5 22.7023 13.9732 23.64 13.0355C24.5777 12.0979 25.1045 10.8261 25.1045 9.5C25.1045 8.17392 24.5777 6.90215 23.64 5.96447C22.7023 5.02678 21.4306 4.5 20.1045 4.5ZM29.1045 10.5C29.1045 9.96957 29.3152 9.46086 29.6903 9.08579C30.0654 8.71071 30.5741 8.5 31.1045 8.5C31.6349 8.5 32.1436 8.71071 32.5187 9.08579C32.8938 9.46086 33.1045 9.96957 33.1045 10.5C33.1045 11.0304 32.8938 11.5391 32.5187 11.9142C32.1436 12.2893 31.6349 12.5 31.1045 12.5C30.5741 12.5 30.0654 12.2893 29.6903 11.9142C29.3152 11.5391 29.1045 11.0304 29.1045 10.5ZM31.1045 6.5C30.0436 6.5 29.0262 6.92143 28.2761 7.67157C27.5259 8.42172 27.1045 9.43913 27.1045 10.5C27.1045 11.5609 27.5259 12.5783 28.2761 13.3284C29.0262 14.0786 30.0436 14.5 31.1045 14.5C32.1654 14.5 33.1828 14.0786 33.9329 13.3284C34.6831 12.5783 35.1045 11.5609 35.1045 10.5C35.1045 9.43913 34.6831 8.42172 33.9329 7.67157C33.1828 6.92143 32.1654 6.5 31.1045 6.5ZM9.10449 8.5C8.57406 8.5 8.06535 8.71071 7.69028 9.08579C7.31521 9.46086 7.10449 9.96957 7.10449 10.5C7.10449 11.0304 7.31521 11.5391 7.69028 11.9142C8.06535 12.2893 8.57406 12.5 9.10449 12.5C9.63493 12.5 10.1436 12.2893 10.5187 11.9142C10.8938 11.5391 11.1045 11.0304 11.1045 10.5C11.1045 9.96957 10.8938 9.46086 10.5187 9.08579C10.1436 8.71071 9.63493 8.5 9.10449 8.5ZM5.10449 10.5C5.10449 9.43913 5.52592 8.42172 6.27606 7.67157C7.02621 6.92143 8.04363 6.5 9.10449 6.5C10.1654 6.5 11.1828 6.92143 11.9329 7.67157C12.6831 8.42172 13.1045 9.43913 13.1045 10.5C13.1045 11.5609 12.6831 12.5783 11.9329 13.3284C11.1828 14.0786 10.1654 14.5 9.10449 14.5C8.04363 14.5 7.02621 14.0786 6.27606 13.3284C5.52592 12.5783 5.10449 11.5609 5.10449 10.5ZM10.1045 30.5C10.1705 30.5 10.2385 30.5 10.3045 30.496C10.4405 31.172 10.6465 31.826 10.9125 32.446C10.0641 32.5613 9.20076 32.4937 8.38062 32.2477C7.56049 32.0017 6.8025 31.583 6.1576 31.0197C5.5127 30.4565 4.99582 29.7617 4.6417 28.9822C4.28757 28.2026 4.1044 27.3562 4.10449 26.5V19C4.10449 17.62 5.22449 16.5 6.60449 16.5H10.8625C10.4618 17.0982 10.2113 17.7843 10.1325 18.5H6.60449C6.47188 18.5 6.34471 18.5527 6.25094 18.6464C6.15717 18.7402 6.10449 18.8674 6.10449 19V26.5C6.10449 27.5609 6.52592 28.5783 7.27606 29.3284C8.02621 30.0786 9.04363 30.5 10.1045 30.5ZM34.1045 19.5C35.107 20.2516 35.7908 21.3522 36.0205 22.584L36.1045 22.6V19C36.1045 17.62 34.9845 16.5 33.6045 16.5H29.3465C29.7385 17.084 29.9965 17.766 30.0765 18.5H33.6045C33.7371 18.5 33.8643 18.5527 33.958 18.6464C34.0518 18.7402 34.1045 18.8674 34.1045 19V19.5ZM31.1045 20.5H27.1045C26.3088 20.5 25.5458 20.8161 24.9832 21.3787C24.4206 21.9413 24.1045 22.7044 24.1045 23.5V24.5H23.1045C22.3088 24.5 21.5458 24.8161 20.9832 25.3787C20.4206 25.9413 20.1045 26.7044 20.1045 27.5V30.5H24.1045V29.5C24.1045 29.2348 24.2098 28.9804 24.3974 28.7929C24.5849 28.6054 24.8393 28.5 25.1045 28.5C25.3697 28.5 25.6241 28.6054 25.8116 28.7929C25.9991 28.9804 26.1045 29.2348 26.1045 29.5V30.5H32.1045V29.5C32.1045 29.2348 32.2098 28.9804 32.3974 28.7929C32.5849 28.6054 32.8393 28.5 33.1045 28.5C33.3697 28.5 33.6241 28.6054 33.8116 28.7929C33.9991 28.9804 34.1045 29.2348 34.1045 29.5V30.5H38.1045V27.5C38.1045 26.7044 37.7884 25.9413 37.2258 25.3787C36.6632 24.8161 35.9001 24.5 35.1045 24.5H34.1045V23.5C34.1045 22.7044 33.7884 21.9413 33.2258 21.3787C32.6632 20.8161 31.9001 20.5 31.1045 20.5ZM14.6045 18.5C14.4719 18.5 14.3447 18.5527 14.2509 18.6464C14.1572 18.7402 14.1045 18.8674 14.1045 19V28.5C14.1045 31.112 15.7745 33.336 18.1045 34.16V35.5C18.1045 35.76 18.1245 36.014 18.1625 36.262C16.4322 35.8283 14.8963 34.829 13.7988 33.4227C12.7012 32.0165 12.1049 30.2839 12.1045 28.5V19C12.1045 17.62 13.2245 16.5 14.6045 16.5H25.6045C26.8145 16.5 27.8245 17.36 28.0545 18.5H14.6045ZM26.1045 24.5V23.5C26.1045 23.2348 26.2098 22.9804 26.3974 22.7929C26.5849 22.6054 26.8393 22.5 27.1045 22.5H31.1045C31.3697 22.5 31.6241 22.6054 31.8116 22.7929C31.9991 22.9804 32.1045 23.2348 32.1045 23.5V24.5H26.1045ZM34.1045 32.5V33.5C34.1045 33.7652 33.9991 34.0196 33.8116 34.2071C33.6241 34.3946 33.3697 34.5 33.1045 34.5C32.8393 34.5 32.5849 34.3946 32.3974 34.2071C32.2098 34.0196 32.1045 33.7652 32.1045 33.5V32.5H26.1045V33.5C26.1045 33.7652 25.9991 34.0196 25.8116 34.2071C25.6241 34.3946 25.3697 34.5 25.1045 34.5C24.8393 34.5 24.5849 34.3946 24.3974 34.2071C24.2098 34.0196 24.1045 33.7652 24.1045 33.5V32.5H20.1045V35.5C20.1045 36.2956 20.4206 37.0587 20.9832 37.6213C21.5458 38.1839 22.3088 38.5 23.1045 38.5H35.1045C35.9001 38.5 36.6632 38.1839 37.2258 37.6213C37.7884 37.0587 38.1045 36.2956 38.1045 35.5V32.5H34.1045Z" fill="#006AFF"/>
</svg>
