<svg xmlns="http://www.w3.org/2000/svg" width="23" height="22" viewBox="0 0 23 22" fill="none"><path fill-rule="evenodd" clip-rule="evenodd" d="M6.97949 0.000976562H15.2295C19.0259 0.000976562 22.1045 3.0796 22.1045 6.87598V15.126C22.1045 18.9224 19.0259 22.001 15.2295 22.001H6.97949C3.18312 22.001 0.104492 18.9224 0.104492 15.126V6.87598C0.104492 3.0796 3.18312 0.000976562 6.97949 0.000976562ZM15.2295 19.9385C17.8832 19.9385 20.042 17.7797 20.042 15.126V6.87598C20.042 4.22223 17.8832 2.06348 15.2295 2.06348H6.97949C4.32574 2.06348 2.16699 4.22223 2.16699 6.87598V15.126C2.16699 17.7797 4.32574 19.9385 6.97949 19.9385H15.2295Z" fill="white"></path><path fill-rule="evenodd" clip-rule="evenodd" d="M5.60449 11.001C5.60449 7.9636 8.06712 5.50098 11.1045 5.50098C14.1419 5.50098 16.6045 7.9636 16.6045 11.001C16.6045 14.0384 14.1419 16.501 11.1045 16.501C8.06712 16.501 5.60449 14.0384 5.60449 11.001ZM7.66699 11.001C7.66699 12.8957 9.20974 14.4385 11.1045 14.4385C12.9992 14.4385 14.542 12.8957 14.542 11.001C14.542 9.10485 12.9992 7.56348 11.1045 7.56348C9.20974 7.56348 7.66699 9.10485 7.66699 11.001Z" fill="white"></path><circle cx="17.017" cy="5.08834" r="0.732875" fill="white"></circle></svg>