<svg xmlns="http://www.w3.org/2000/svg" width="25" height="25" viewBox="0 0 25 25" fill="none"><path d="M12.9853 9.63691C11.2715 9.63691 9.87286 11.0355 9.87286 12.7493C9.87286 14.4632 11.2715 15.8618 12.9853 15.8618C14.6991 15.8618 16.0977 14.4632 16.0977 12.7493C16.0977 11.0355 14.6991 9.63691 12.9853 9.63691ZM22.3203 12.7493C22.3203 11.4605 22.3319 10.1833 22.2596 8.89675C22.1872 7.4024 21.8463 6.07617 20.7535 4.98344C19.6585 3.88836 18.3346 3.5498 16.8402 3.47742C15.5514 3.40504 14.2742 3.41671 12.9876 3.41671C11.6988 3.41671 10.4216 3.40504 9.13503 3.47742C7.64068 3.5498 6.31446 3.8907 5.22172 4.98344C4.12664 6.07851 3.78808 7.4024 3.7157 8.89675C3.64332 10.1856 3.65499 11.4628 3.65499 12.7493C3.65499 14.0359 3.64332 15.3154 3.7157 16.602C3.78808 18.0963 4.12898 19.4225 5.22172 20.5153C6.31679 21.6103 7.64068 21.9489 9.13503 22.0213C10.4239 22.0937 11.7011 22.082 12.9876 22.082C14.2765 22.082 15.5537 22.0937 16.8402 22.0213C18.3346 21.9489 19.6608 21.608 20.7535 20.5153C21.8486 19.4202 22.1872 18.0963 22.2596 16.602C22.3343 15.3154 22.3203 14.0382 22.3203 12.7493ZM12.9853 17.5383C10.3352 17.5383 8.19639 15.3995 8.19639 12.7493C8.19639 10.0992 10.3352 7.96045 12.9853 7.96045C15.6354 7.96045 17.7742 10.0992 17.7742 12.7493C17.7742 15.3995 15.6354 17.5383 12.9853 17.5383ZM17.9703 8.88274C17.3516 8.88274 16.8519 8.38307 16.8519 7.76431C16.8519 7.14556 17.3516 6.64589 17.9703 6.64589C18.5891 6.64589 19.0888 7.14556 19.0888 7.76431C19.0889 7.91124 19.0601 8.05676 19.004 8.19253C18.9479 8.32831 18.8655 8.45168 18.7616 8.55557C18.6577 8.65946 18.5343 8.74184 18.3986 8.79798C18.2628 8.85412 18.1173 8.88292 17.9703 8.88274Z" fill="#656572"></path></svg>