<svg xmlns="http://www.w3.org/2000/svg" width="33" height="33" viewBox="0 0 33 33" fill="none"><g clip-path="url(#clip0_7384_34582)"><path fill-rule="evenodd" clip-rule="evenodd" d="M8.625 16.6243C8.625 16.3591 8.73036 16.1047 8.91789 15.9172C9.10543 15.7297 9.35978 15.6243 9.625 15.6243H21.211L16.917 11.3323C16.7292 11.1445 16.6237 10.8899 16.6237 10.6243C16.6237 10.3588 16.7292 10.1041 16.917 9.91631C17.1048 9.72854 17.3594 9.62305 17.625 9.62305C17.8906 9.62305 18.1452 9.72854 18.333 9.91631L24.333 15.9163C24.4261 16.0092 24.5 16.1196 24.5504 16.241C24.6008 16.3625 24.6268 16.4928 24.6268 16.6243C24.6268 16.7558 24.6008 16.8861 24.5504 17.0076C24.5 17.1291 24.4261 17.2394 24.333 17.3323L18.333 23.3323C18.1452 23.5201 17.8906 23.6256 17.625 23.6256C17.3594 23.6256 17.1048 23.5201 16.917 23.3323C16.7292 23.1445 16.6237 22.8899 16.6237 22.6243C16.6237 22.3588 16.7292 22.1041 16.917 21.9163L21.211 17.6243H9.625C9.35978 17.6243 9.10543 17.519 8.91789 17.3314C8.73036 17.1439 8.625 16.8895 8.625 16.6243Z" fill="white"></path><rect x="0.625" y="0.625" width="32" height="32" rx="16" fill="#006AFF"></rect><path d="M21.958 16.624L13.0691 22.2692L13.0691 10.9788L21.958 16.624Z" fill="white"></path></g><defs><clipPath id="clip0_7384_34582"><rect width="32" height="32" fill="white" transform="translate(0.625 0.625)"></rect></clipPath></defs></svg>