<svg xmlns="http://www.w3.org/2000/svg" width="33" height="33" viewBox="0 0 33 33" fill="none"><g clip-path="url(#clip0_4843_15295)"><path fill-rule="evenodd" clip-rule="evenodd" d="M8.33203 16.6243C8.33203 16.3591 8.43739 16.1047 8.62492 15.9172C8.81246 15.7297 9.06681 15.6243 9.33203 15.6243H20.918L16.624 11.3323C16.4363 11.1445 16.3308 10.8899 16.3308 10.6243C16.3308 10.3588 16.4363 10.1041 16.624 9.91631C16.8118 9.72854 17.0665 9.62305 17.332 9.62305C17.5976 9.62305 17.8523 9.72854 18.04 9.91631L24.04 15.9163C24.1332 16.0092 24.207 16.1196 24.2575 16.241C24.3079 16.3625 24.3338 16.4928 24.3338 16.6243C24.3338 16.7558 24.3079 16.8861 24.2575 17.0076C24.207 17.1291 24.1332 17.2394 24.04 17.3323L18.04 23.3323C17.8523 23.5201 17.5976 23.6256 17.332 23.6256C17.0665 23.6256 16.8118 23.5201 16.624 23.3323C16.4363 23.1445 16.3308 22.8899 16.3308 22.6243C16.3308 22.3588 16.4363 22.1041 16.624 21.9163L20.918 17.6243H9.33203C9.06681 17.6243 8.81246 17.519 8.62492 17.3314C8.43739 17.1439 8.33203 16.8895 8.33203 16.6243Z" fill="white"></path><rect x="0.332031" y="0.625" width="32" height="32" rx="16" fill="#0194FF"></rect><path d="M21.6641 16.624L12.7752 22.2692L12.7752 10.9788L21.6641 16.624Z" fill="white"></path></g><defs><clipPath id="clip0_4843_15295"><rect width="32" height="32" fill="white" transform="translate(0.332031 0.625)"></rect></clipPath></defs></svg>