<svg xmlns="http://www.w3.org/2000/svg" width="25" height="25" viewBox="0 0 25 25" fill="none"><path d="M6.32096 3.41602C4.85013 3.41602 3.6543 4.61185 3.6543 6.08268V19.416C3.6543 20.8869 4.85013 22.0827 6.32096 22.0827H19.6543C21.1251 22.0827 22.321 20.8869 22.321 19.416V6.08268C22.321 4.61185 21.1251 3.41602 19.6543 3.41602H6.32096ZM18.7001 6.91602L14.3751 11.8577L19.4626 18.5827H15.4793L12.3626 14.5035L8.7918 18.5827H6.81263L11.4376 13.2952L6.55846 6.91602H10.6418L13.4626 10.6452L16.721 6.91602H18.7001ZM17.1251 17.3993L10.046 8.03685H8.8668L16.0251 17.3993H17.121H17.1251Z" fill="#656572"></path></svg>