<svg xmlns="http://www.w3.org/2000/svg" width="25" height="25" viewBox="0 0 25 25" fill="none"><path d="M21.2922 3.41602H4.68767C4.41464 3.41602 4.15279 3.52448 3.95973 3.71754C3.76666 3.9106 3.6582 4.17245 3.6582 4.44549V21.0516C3.6582 21.3247 3.76666 21.5865 3.95973 21.7796C4.15279 21.9726 4.41464 22.0811 4.68767 22.0811H13.6235V14.8542H11.1939V12.0366H13.6235V9.95869C13.6235 7.54815 15.0964 6.23518 17.2472 6.23518C17.973 6.23259 18.6984 6.2696 19.4202 6.34605V8.86587H17.933C16.7626 8.86587 16.5361 9.42179 16.5361 10.2374V12.0366H19.3252L18.9625 14.8542H16.5361V22.0827H21.2875C21.5604 22.0823 21.822 21.9737 22.015 21.7807C22.2079 21.5877 22.3165 21.3261 22.3169 21.0532V4.44707C22.3174 4.17458 22.2097 3.91305 22.0177 3.71978C21.8256 3.52651 21.5647 3.41727 21.2922 3.41602Z" fill="#656572"></path></svg>