<svg xmlns="http://www.w3.org/2000/svg" width="18" height="18" viewBox="0 0 18 18" fill="none"><path fill-rule="evenodd" clip-rule="evenodd" d="M6.85734 6.474H9.95234V8.01567C10.3982 7.129 11.5415 6.33234 13.259 6.33234C16.5515 6.33234 17.3332 8.09734 17.3332 11.3357V17.3332H13.9998V12.0732C13.9998 10.229 13.554 9.189 12.419 9.189C10.8448 9.189 10.1907 10.3098 10.1907 12.0723V17.3332H6.85734V6.474V6.474ZM1.1415 17.1915H4.47484V6.33234H1.1415V17.1915V17.1915ZM4.95234 2.7915C4.95246 3.0709 4.89705 3.34753 4.78933 3.60533C4.6816 3.86312 4.52371 4.09693 4.32484 4.29317C3.92184 4.69369 3.37635 4.91788 2.80817 4.9165C2.241 4.91612 1.69676 4.6925 1.29317 4.294C1.09501 4.0971 0.937659 3.86302 0.830124 3.6052C0.722588 3.34737 0.666987 3.07086 0.666504 2.7915C0.666504 2.22734 0.891504 1.68734 1.294 1.289C1.69724 0.889969 2.2417 0.666255 2.809 0.666504C3.37734 0.666504 3.92234 0.890671 4.32484 1.289C4.7265 1.68734 4.95234 2.22734 4.95234 2.7915Z" fill="#006AFF"></path></svg>