<svg xmlns="http://www.w3.org/2000/svg" width="21" height="20" viewBox="0 0 21 20" fill="none"><path fill-rule="evenodd" clip-rule="evenodd" d="M8.48869 7.47449H11.5837V9.01616C12.0295 8.12949 13.1729 7.33283 14.8904 7.33283C18.1829 7.33283 18.9645 9.09783 18.9645 12.3362V18.3337H15.6312V13.0737C15.6312 11.2295 15.1854 10.1895 14.0504 10.1895C12.4762 10.1895 11.822 11.3103 11.822 13.0728V18.3337H8.48869V7.47449ZM2.77285 18.192H6.10619V7.33283H2.77285V18.192ZM6.58369 3.79199C6.58381 4.07139 6.5284 4.34802 6.42067 4.60581C6.31295 4.86361 6.15506 5.09742 5.95618 5.29366C5.55319 5.69418 5.00769 5.91837 4.43952 5.91699C3.87234 5.91661 3.32811 5.69299 2.92452 5.29449C2.72636 5.09759 2.56901 4.86351 2.46147 4.60569C2.35394 4.34786 2.29833 4.07135 2.29785 3.79199C2.29785 3.22783 2.52285 2.68783 2.92535 2.28949C3.32859 1.89046 3.87305 1.66674 4.44035 1.66699C5.00869 1.66699 5.55368 1.89116 5.95618 2.28949C6.35785 2.68783 6.58369 3.22783 6.58369 3.79199Z" fill="white"></path></svg>