<svg xmlns="http://www.w3.org/2000/svg" width="50" height="67" viewBox="0 0 50 67" fill="none"><g clip-path="url(#clip0_2390_16628)"><path d="M33.5056 45.3353C33.0528 45.2375 31.0962 44.8462 27.7327 45.5961C27.7003 45.9221 27.668 46.2482 27.668 46.5905C27.668 46.9817 27.7165 47.3567 27.765 47.7153C30.3361 45.1397 33.4248 45.3353 33.4894 45.3353" fill="#E1E1E1"></path><path d="M26.3085 56.4527C25.8557 55.4746 25.597 54.3987 25.5808 53.2576C25.5646 51.1057 26.3893 49.1658 27.7638 47.7313C27.6992 47.3563 27.6668 46.9814 27.6668 46.6065C27.6668 46.2641 27.683 45.9381 27.7315 45.6121C28.5724 45.4327 27.02 45.6936 25.031 46.3782C9.65259 51.6926 13.5659 65.0926 14.0349 66.1359C15.086 66.6576 16.1209 66.8695 17.1558 66.9184C17.0911 66.576 17.0265 66.2011 16.9779 65.8099C16.8971 65.1578 16.8971 64.4731 16.9294 63.7722C16.9779 63.4298 16.9941 63.0875 17.075 62.7452C17.1558 62.4191 17.2043 62.0768 17.3175 61.7834C17.4146 61.4736 17.5116 61.1802 17.6571 60.9194C17.7865 60.6585 17.8997 60.3977 18.0452 60.2021C18.1908 59.9902 18.3201 59.7945 18.4333 59.6315C18.5788 59.4848 18.692 59.3544 18.7891 59.2403C18.9831 59.0284 19.0963 58.898 19.0963 58.898C19.0963 58.898 18.9993 59.0284 18.8376 59.2729C18.7567 59.387 18.6597 59.5337 18.5303 59.6967C18.4333 59.876 18.3363 60.0717 18.2231 60.2999C18.0937 60.5118 18.029 60.7726 17.932 61.0335C17.835 61.2943 17.7865 61.5877 17.7218 61.8812C17.6409 62.1746 17.6409 62.4843 17.6086 62.8104C17.5763 63.1201 17.6086 63.4461 17.6086 63.7722C17.6571 64.4079 17.7541 65.0437 17.8997 65.6305C18.0129 66.087 18.1422 66.5108 18.2716 66.8858C19.9372 66.7717 21.5704 66.3478 23.2199 66.0707C23.1875 66.0218 23.1552 65.9729 23.139 65.9077C22.7994 65.2719 22.5083 64.5383 22.2658 63.8048C22.1849 63.4298 22.0556 63.0549 21.9909 62.6799C21.9424 62.305 21.8615 61.9464 21.8615 61.5714C21.8615 61.2128 21.8292 60.8705 21.8615 60.5281C21.8939 60.2021 21.8939 59.8924 21.9747 59.6152C22.0394 59.3381 22.1041 59.0773 22.1526 58.8653C22.2334 58.6534 22.3143 58.4578 22.3628 58.3111C22.476 58.0014 22.5569 57.8383 22.5569 57.8383C22.5569 57.8383 22.5083 58.0177 22.4275 58.3437C22.379 58.5067 22.3305 58.686 22.282 58.9142C22.2496 59.1425 22.2334 59.387 22.2011 59.6641C22.1526 59.9413 22.1849 60.2347 22.2011 60.5607C22.2011 60.8705 22.2496 61.2128 22.2981 61.5388C22.3305 61.8812 22.4598 62.2235 22.5407 62.5658C22.6215 62.9082 22.7832 63.2342 22.9126 63.5765C23.2199 64.2286 23.5594 64.8644 23.9475 65.4349C24.0607 65.6143 24.1901 65.7773 24.3195 65.9403C26.0659 65.761 27.8285 65.9077 29.6558 66.9999C26.6642 63.0712 25.9042 59.5011 26.2923 56.4364" fill="white"></path><path d="M33.5039 45.335C33.5039 45.335 33.5686 45.335 33.5848 45.3513L33.5039 45.335Z" fill="white"></path><path d="M32.311 24.1915C32.4566 23.8655 32.6021 23.5395 32.8123 23.2297C32.9255 22.9037 33.0549 22.6103 33.1843 22.3168C32.1817 20.3769 30.9365 18.5838 29.465 16.9862C29.465 16.9862 29.465 16.9862 29.4811 16.9862C29.368 16.8721 29.2548 16.758 29.1416 16.6439C29.0445 16.546 28.9637 16.4482 28.8667 16.3504C24.8886 12.2913 20.2476 9.35699 17.6441 0.977914C17.4178 0.146527 16.9326 0.0161133 16.9326 0.0161133C16.4799 0.228035 15.5905 0.570371 15.5905 0.570371C14.4747 1.30395 13.4559 2.16794 12.5504 3.12974C11.4346 4.25456 10.5128 5.55869 9.78516 7.00954C14.1351 11.6066 18.6629 13.1227 22.9805 15.519C23.1099 15.5842 23.2392 15.6657 23.3524 15.731C23.498 15.8125 23.6597 15.894 23.8052 15.9918C23.8052 15.9918 23.8052 15.9918 23.8052 16.0081C27.4921 18.1925 30.6293 21.3061 32.8608 25.0881C32.683 24.7947 32.5212 24.5013 32.3272 24.2241" fill="#E1E1E1"></path><path d="M35.8181 32.6196C35.2198 29.8972 34.2172 27.3704 32.875 25.1045C34.2172 27.3867 35.2198 29.9135 35.8181 32.6196Z" fill="white"></path><path d="M46.2472 17.818C38.5176 14.3294 34.2162 20.4263 34.2162 20.4263L34.2647 20.4589C33.6826 21.225 33.1813 22.1542 32.8093 23.2301C32.6153 23.5399 32.4536 23.8659 32.3242 24.1919C34.0868 26.9143 35.3643 30.028 35.995 33.435C36.7065 37.2007 36.5448 40.9175 35.7039 44.4061C35.7039 44.4061 45.0021 42.189 43.5144 29.3759C43.7731 25.8221 45.8591 22.6922 46.4736 21.9749C48.026 21.6163 50.015 19.546 50.015 19.546C50.015 19.546 49.061 18.0788 46.2634 17.8343" fill="white"></path><path d="M23.786 15.9755C23.6405 15.894 23.4788 15.7962 23.3333 15.7147C23.2039 15.6495 23.0907 15.568 22.9613 15.5028C17.5765 12.5359 11.8682 10.922 6.61269 3.03199C6.12757 2.24951 5.57776 2.24951 5.57776 2.24951C5.17349 2.60815 4.34879 3.24392 4.34879 3.24392C3.41088 4.33613 2.63469 5.55876 1.97168 6.84659C1.48656 7.75949 1.11463 8.73759 0.791218 9.73199C1.01761 10.1884 1.29251 10.7264 1.6321 11.3459C1.907 11.786 2.16573 12.2914 2.50532 12.7804C2.82873 13.2858 3.18449 13.8074 3.57259 14.3128C3.94452 14.8507 4.3973 15.3398 4.83391 15.8614C5.28669 16.3831 5.78798 16.8395 6.27311 17.3449C6.80674 17.7687 7.30804 18.2741 7.87401 18.649C8.43999 19.024 8.97362 19.4478 9.57194 19.7249C10.1541 20.0347 10.7039 20.3444 11.286 20.5237C11.852 20.7193 12.3695 20.9639 12.9031 21.0454C13.4206 21.1595 13.8895 21.2573 14.31 21.3551C14.7466 21.3877 15.1185 21.404 15.4258 21.4366C16.0564 21.4692 16.4122 21.5018 16.4122 21.5018C16.4122 21.5018 16.0564 21.5181 15.4258 21.5507C15.1023 21.5507 14.7304 21.5833 14.2938 21.5996C13.8572 21.5507 13.3559 21.5181 12.8223 21.4529C12.2725 21.4366 11.7065 21.241 11.092 21.1106C10.4613 20.9965 9.86302 20.7356 9.21619 20.4911C8.55318 20.2792 7.95487 19.9043 7.29186 19.5782C6.64503 19.2522 6.06289 18.7957 5.43223 18.4045C4.85008 17.9481 4.25176 17.5079 3.71813 17.0189C3.18449 16.5298 2.65086 16.0408 2.1819 15.5191C1.69678 15.03 1.26017 14.5084 0.855901 14.0193C0.564827 13.6933 0.322266 13.351 0.0797044 13.0412C-0.0173202 13.9378 -0.0496617 14.8344 -0.00114945 15.7473C0.0311921 16.6765 0.112046 17.622 0.289924 18.5675C0.451632 19.4641 0.694193 20.3281 0.985267 21.1758C1.08229 21.2573 1.16315 21.3388 1.26017 21.4203C1.61593 21.6974 1.98785 22.0398 2.42446 22.3332C2.8449 22.6429 3.29769 22.969 3.78281 23.2624C4.26793 23.5884 4.7854 23.8656 5.31903 24.159C5.85267 24.4524 6.41864 24.6807 6.96845 24.9415C7.5506 25.1208 8.11657 25.3816 8.69872 25.512C9.28087 25.6425 9.86302 25.8381 10.4452 25.8707C11.0111 25.9522 11.5771 26.0337 12.1108 26.0011C12.6444 26.0011 13.1619 26.0337 13.6146 25.9196C14.0836 25.8544 14.504 25.7892 14.8921 25.724C15.264 25.6099 15.5875 25.512 15.8462 25.4305C16.3798 25.2675 16.6871 25.1697 16.6871 25.1697C16.6871 25.1697 16.396 25.3001 15.8947 25.5283C15.636 25.6425 15.3287 25.7892 14.973 25.9522C14.601 26.0663 14.1644 26.1804 13.7117 26.3108C13.2427 26.4738 12.7252 26.5064 12.1754 26.588C11.6256 26.7021 11.0273 26.6858 10.4128 26.6858C9.79833 26.7184 9.16767 26.6043 8.52084 26.5554C7.87401 26.4901 7.24335 26.3108 6.59652 26.1804C5.96586 25.9848 5.31903 25.8218 4.72071 25.5772C4.1224 25.3327 3.50791 25.1208 2.9581 24.8437C2.86108 24.8111 2.79639 24.7622 2.69937 24.7133C3.57259 26.1478 4.62369 27.4356 5.8365 28.5605C6.79057 29.3756 8.26211 30.4841 10.2673 31.5926C10.429 31.6741 10.5745 31.7719 10.7362 31.8371C14.1483 33.6303 18.951 35.2931 25.1444 35.4072C30.3999 35.8636 34.1677 39.6782 35.6877 44.4057C36.5448 40.9172 36.6903 37.2004 35.9788 33.4347C34.5558 25.8055 29.9309 19.6271 23.786 15.9755Z" fill="white"></path><path d="M33.5871 45.3513C33.5871 45.3513 33.5386 45.3513 33.5062 45.335C33.4254 45.335 33.3607 45.335 33.2799 45.335C31.113 45.3513 29.1563 46.2642 27.7656 47.7313C27.9112 48.6931 28.2184 49.5897 28.6712 50.3885C28.7197 50.307 28.7844 50.2255 28.8329 50.1603C28.9137 50.0625 28.9784 49.9483 29.0431 49.8505C29.2048 49.6386 29.3504 49.4267 29.5121 49.2311C29.6091 49.117 29.6899 49.0028 29.787 48.905C29.884 48.7909 29.9648 48.6768 30.0619 48.579C30.1751 48.4486 30.2883 48.3182 30.4176 48.1878C30.5308 48.0573 30.6602 47.9269 30.7734 47.7965C30.8704 47.6824 30.9836 47.5846 31.0806 47.4868C31.1453 47.4216 31.2262 47.3401 31.2909 47.2749C31.4526 47.1118 31.6143 46.9651 31.776 46.8347C31.8407 46.7858 31.9053 46.7206 31.9539 46.6717C32.0509 46.5902 32.1317 46.5087 32.2126 46.4435C32.2773 46.3946 32.3258 46.3457 32.3905 46.2968C32.5198 46.199 32.633 46.1011 32.7462 46.0033C32.7947 45.9544 32.8594 45.9055 32.9079 45.8729C32.9726 45.824 33.0211 45.7914 33.0696 45.7425C33.1343 45.6936 33.1828 45.661 33.2313 45.6284C33.2799 45.5958 33.3284 45.5632 33.3769 45.5306C33.4254 45.498 33.4577 45.4654 33.4901 45.4491C33.5224 45.4328 33.5224 45.4165 33.5386 45.4165C33.5709 45.4002 33.5871 45.3839 33.5871 45.3839C33.5871 45.3839 33.5871 45.3839 33.5709 45.3839" fill="#E1E1E1"></path><path d="M28.6859 50.372C28.1361 49.4428 28.0067 48.6766 27.7803 47.7148C24.6594 50.9752 25.5811 54.7735 26.3088 56.4363C26.9233 54.1377 27.4246 52.0674 28.6859 50.372Z" fill="#E1E1E1"></path></g><defs><clipPath id="clip0_2390_16628"><rect width="50" height="67" fill="white"></rect></clipPath></defs></svg>