<svg width="286" height="58" viewBox="0 0 286 58" fill="none" xmlns="http://www.w3.org/2000/svg">
<path d="M40.7765 47.5238V40.2857C38.7448 42.635 36.3955 44.5079 33.7289 45.9048C31.0622 47.3016 28.2369 48 25.2527 48C21.9511 48 18.84 47.3969 15.9193 46.1905C13.0622 44.9841 10.5225 43.2698 8.30031 41.0476C6.07808 38.8889 4.33205 36.3492 3.06221 33.4286C1.85586 30.4445 1.25269 27.3333 1.25269 24.0952C1.25269 20.8571 1.85586 17.7778 3.06221 14.8571C4.33205 11.873 6.07808 9.26984 8.30031 7.04762C10.5225 4.8254 13.0622 3.11111 15.9193 1.90476C18.84 0.698409 21.9511 0.095238 25.2527 0.095238C28.3003 0.095238 31.1574 0.730152 33.8241 2C36.5543 3.26984 38.8717 5.04762 40.7765 7.33333V1.04762H49.3479V47.5238H40.7765ZM25.2527 8.57143C23.1574 8.57143 21.1257 8.98412 19.1574 9.80952C17.2527 10.5714 15.6019 11.6508 14.2051 13.0476C12.8083 14.4444 11.6971 16.127 10.8717 18.0952C10.1098 20 9.72888 22 9.72888 24.0952C9.72888 26.1905 10.1098 28.1905 10.8717 30.0952C11.6971 32 12.8083 33.6508 14.2051 35.0476C15.6019 36.4445 17.2527 37.5555 19.1574 38.381C21.1257 39.1429 23.1574 39.5238 25.2527 39.5238C27.3479 39.5238 29.3479 39.1429 31.2527 38.381C33.1574 37.5555 34.8083 36.4445 36.2051 35.0476C37.6019 33.6508 38.6812 32 39.4431 30.0952C40.2686 28.1905 40.6812 26.1905 40.6812 24.0952C40.6812 22 40.2686 20 39.4431 18.0952C38.6812 16.127 37.6019 14.4444 36.2051 13.0476C34.8083 11.6508 33.1574 10.5714 31.2527 9.80952C29.3479 8.98412 27.3479 8.57143 25.2527 8.57143ZM50.8903 27.3333C50.8903 28.8571 51.43 30.4445 52.5093 32.0952C53.6522 33.746 54.9538 35.1429 56.4141 36.2857C59.0808 38.381 62.1919 39.4286 65.7474 39.4286C71.3983 39.4286 76.0014 36.6984 79.557 31.2381L86.795 35.5238C84.3189 39.5238 81.2713 42.6031 77.6522 44.7619C74.0331 46.9207 70.0649 48 65.7474 48C62.5093 48 59.43 47.3969 56.5093 46.1905C53.5888 44.9207 51.0173 43.1746 48.795 40.9524C46.5729 38.7302 44.8269 36.1588 43.557 33.2381C42.3507 30.3174 41.7474 27.2381 41.7474 24C41.7474 20.7619 42.3507 17.6826 43.557 14.7619C44.8269 11.7778 46.5729 9.1746 48.795 6.95238C50.9538 4.73016 53.4935 3.01587 56.4141 1.80952C59.3983 0.603171 62.5093 0 65.7474 0C68.9855 0 72.065 0.603171 74.9855 1.80952C77.9697 3.01587 80.5411 4.73016 82.6998 6.95238C87.3983 11.7778 89.7474 17.365 89.7474 23.7143C89.7474 24.8571 89.6522 26.0635 89.4617 27.3333H50.8903ZM65.7474 7.80952C63.1443 7.80952 60.6998 8.38095 58.4141 9.52381C56.1284 10.6667 54.2871 12.1905 52.8903 14.0952C51.557 15.9365 50.8903 17.9048 50.8903 20H80.6046C80.6046 17.9048 79.9062 15.9365 78.5093 14.0952C77.176 12.1905 75.3665 10.6667 73.0808 9.52381C70.7951 8.38095 68.3507 7.80952 65.7474 7.80952Z" fill="white"/>
<rect x="0.5" y="54" width="90" height="4" fill="#F4DB00"/>
<path d="M123.22 20.44C123.22 22.816 121.276 25.168 117.652 25.168C114.292 25.168 111.916 23.296 111.868 20.536H114.196C114.34 21.928 115.324 23.32 117.652 23.32C119.764 23.32 121.012 22.12 121.012 20.536C121.012 16.024 111.964 18.904 111.964 12.688C111.964 9.928 114.196 8.056 117.508 8.056C120.7 8.056 122.788 9.808 123.052 12.352H120.652C120.508 11.224 119.452 9.952 117.412 9.928C115.612 9.88 114.196 10.816 114.196 12.616C114.196 16.936 123.22 14.248 123.22 20.44ZM126.434 25V11.848H128.618V25H126.434ZM127.562 9.712C126.722 9.712 126.074 9.064 126.074 8.224C126.074 7.384 126.722 6.736 127.562 6.736C128.354 6.736 129.002 7.384 129.002 8.224C129.002 9.064 128.354 9.712 127.562 9.712ZM141.796 21.424C141.796 23.584 139.9 25.216 136.996 25.216C133.924 25.216 131.764 23.536 131.62 21.136H133.876C133.996 22.408 135.124 23.368 136.972 23.368C138.7 23.368 139.66 22.504 139.66 21.424C139.66 18.496 131.884 20.2 131.884 15.304C131.884 13.288 133.78 11.632 136.708 11.632C139.612 11.632 141.532 13.192 141.676 15.76H139.492C139.396 14.44 138.388 13.48 136.636 13.48C135.028 13.48 134.068 14.248 134.068 15.304C134.068 18.424 141.7 16.72 141.796 21.424ZM145.359 21.4V13.648H143.655V11.848H145.359V8.536H147.543V11.848H150.975V13.648H147.543V21.4C147.543 22.696 148.023 23.152 149.367 23.152H150.975V25H149.007C146.679 25 145.359 24.04 145.359 21.4ZM159.213 13.48C157.077 13.48 155.301 14.896 155.061 17.464H163.365C163.389 14.896 161.469 13.48 159.213 13.48ZM165.357 20.944C164.685 23.344 162.573 25.216 159.309 25.216C155.565 25.216 152.805 22.576 152.805 18.4C152.805 14.248 155.469 11.632 159.309 11.632C163.125 11.632 165.621 14.32 165.621 17.92C165.621 18.4 165.597 18.784 165.549 19.24H155.037C155.205 21.904 157.077 23.368 159.309 23.368C161.277 23.368 162.525 22.36 163.005 20.944H165.357ZM187.488 25V17.56C187.488 14.872 186.048 13.504 183.888 13.504C181.68 13.504 180.168 14.92 180.168 17.752V25H178.008V17.56C178.008 14.872 176.568 13.504 174.408 13.504C172.2 13.504 170.688 14.92 170.688 17.752V25H168.504V11.848H170.688V13.744C171.552 12.352 173.112 11.608 174.84 11.608C177 11.608 178.8 12.568 179.664 14.536C180.432 12.64 182.304 11.608 184.32 11.608C187.32 11.608 189.648 13.48 189.648 17.248V25H187.488ZM192.415 18.376C192.415 14.272 195.127 11.632 198.655 11.632C201.103 11.632 202.783 12.88 203.551 14.248V11.848H205.759V25H203.551V22.552C202.759 23.968 201.055 25.216 198.631 25.216C195.127 25.216 192.415 22.456 192.415 18.376ZM203.551 18.4C203.551 15.352 201.487 13.528 199.087 13.528C196.687 13.528 194.647 15.28 194.647 18.376C194.647 21.472 196.687 23.296 199.087 23.296C201.487 23.296 203.551 21.496 203.551 18.4ZM215.032 18.376C215.032 14.272 217.744 11.632 221.296 11.632C223.36 11.632 225.256 12.688 226.168 14.2V7.24H228.376V25H226.168V22.528C225.376 23.992 223.672 25.216 221.272 25.216C217.744 25.216 215.032 22.456 215.032 18.376ZM226.168 18.4C226.168 15.352 224.104 13.528 221.704 13.528C219.304 13.528 217.264 15.28 217.264 18.376C217.264 21.472 219.304 23.296 221.704 23.296C224.104 23.296 226.168 21.496 226.168 18.4ZM237.659 13.48C235.523 13.48 233.747 14.896 233.507 17.464H241.811C241.835 14.896 239.915 13.48 237.659 13.48ZM243.803 20.944C243.131 23.344 241.019 25.216 237.755 25.216C234.011 25.216 231.251 22.576 231.251 18.4C231.251 14.248 233.915 11.632 237.755 11.632C241.571 11.632 244.067 14.32 244.067 17.92C244.067 18.4 244.043 18.784 243.995 19.24H233.483C233.651 21.904 235.523 23.368 237.755 23.368C239.723 23.368 240.971 22.36 241.451 20.944H243.803ZM123.484 49L122.476 46.024H116.188L115.18 49H110.884L116.98 32.152H121.732L127.828 49H123.484ZM121.42 42.856L119.332 36.688L117.268 42.856H121.42ZM133.787 37.504C134.531 36.328 135.947 35.416 137.915 35.416C141.203 35.416 143.819 38.056 143.819 42.28C143.819 46.504 141.203 49.192 137.915 49.192C135.947 49.192 134.531 48.256 133.787 47.128V55.384H129.683V35.608H133.787V37.504ZM139.643 42.28C139.643 40.144 138.251 38.992 136.691 38.992C135.155 38.992 133.763 40.168 133.763 42.304C133.763 44.44 135.155 45.616 136.691 45.616C138.251 45.616 139.643 44.416 139.643 42.28ZM159.076 42.304C159.076 46.552 156.004 49.192 152.068 49.192C148.132 49.192 145.156 46.552 145.156 42.304C145.156 38.056 148.204 35.416 152.116 35.416C156.052 35.416 159.076 38.056 159.076 42.304ZM149.332 42.304C149.332 44.56 150.58 45.64 152.068 45.64C153.532 45.64 154.9 44.56 154.9 42.304C154.9 40.024 153.556 38.968 152.116 38.968C150.628 38.968 149.332 40.024 149.332 42.304ZM167.422 43.984L170.494 35.608H174.934L166.534 55.36H162.118L165.19 48.544L159.742 35.608H164.326L167.422 43.984ZM189.522 42.304C189.522 46.552 186.45 49.192 182.514 49.192C178.578 49.192 175.602 46.552 175.602 42.304C175.602 38.056 178.65 35.416 182.562 35.416C186.498 35.416 189.522 38.056 189.522 42.304ZM179.778 42.304C179.778 44.56 181.026 45.64 182.514 45.64C183.978 45.64 185.346 44.56 185.346 42.304C185.346 40.024 184.002 38.968 182.562 38.968C181.074 38.968 179.778 40.024 179.778 42.304ZM207.105 32.152V35.44H200.889V38.848H206.385V42.016H200.889V45.712H207.105V49H196.785V32.152H207.105ZM220.641 45.112C220.641 47.44 218.577 49.192 215.217 49.192C211.641 49.192 209.241 47.2 209.049 44.608H213.105C213.201 45.544 214.041 46.168 215.169 46.168C216.225 46.168 216.777 45.688 216.777 45.088C216.777 42.928 209.481 44.488 209.481 39.568C209.481 37.288 211.425 35.416 214.929 35.416C218.385 35.416 220.305 37.336 220.569 39.976H216.777C216.657 39.064 215.961 38.464 214.809 38.464C213.849 38.464 213.321 38.848 213.321 39.496C213.321 41.632 220.569 40.12 220.641 45.112ZM222.336 42.304C222.336 38.08 225.12 35.416 229.056 35.416C232.416 35.416 234.792 37.264 235.488 40.456H231.12C230.784 39.52 230.112 38.92 228.984 38.92C227.52 38.92 226.512 40.072 226.512 42.304C226.512 44.536 227.52 45.688 228.984 45.688C230.112 45.688 230.76 45.136 231.12 44.152H235.488C234.792 47.248 232.416 49.192 229.056 49.192C225.12 49.192 222.336 46.552 222.336 42.304ZM250.787 42.304C250.787 46.552 247.715 49.192 243.779 49.192C239.843 49.192 236.867 46.552 236.867 42.304C236.867 38.056 239.915 35.416 243.827 35.416C247.763 35.416 250.787 38.056 250.787 42.304ZM241.043 42.304C241.043 44.56 242.291 45.64 243.779 45.64C245.243 45.64 246.611 44.56 246.611 42.304C246.611 40.024 245.267 38.968 243.827 38.968C242.339 38.968 241.043 40.024 241.043 42.304ZM252.965 49V31.24H257.069V49H252.965ZM259.227 42.28C259.227 38.056 261.843 35.416 265.131 35.416C267.123 35.416 268.539 36.328 269.259 37.504V35.608H273.363V49H269.259V47.104C268.515 48.28 267.099 49.192 265.107 49.192C261.843 49.192 259.227 46.504 259.227 42.28ZM269.259 42.304C269.259 40.168 267.891 38.992 266.331 38.992C264.795 38.992 263.403 40.144 263.403 42.28C263.403 44.416 264.795 45.616 266.331 45.616C267.891 45.616 269.259 44.44 269.259 42.304ZM280.436 42.784V49H276.332V35.608H280.436V37.84C281.372 36.424 282.836 35.464 284.636 35.464V39.808H283.508C281.564 39.808 280.436 40.48 280.436 42.784Z" fill="white"/>
</svg>
