<svg xmlns="http://www.w3.org/2000/svg" width="25" height="25" viewBox="0 0 25 25" fill="none"><path opacity="0.5" d="M12.9754 7.80409C13.8793 8.44993 14.9867 8.82993 16.1827 8.82993V6.52968C15.9563 6.52977 15.7306 6.50616 15.5091 6.45922V8.26985C14.3132 8.26985 13.206 7.88989 12.3019 7.2441V11.9383C12.3019 14.2866 10.3972 16.1901 8.04788 16.1901C7.17129 16.1901 6.3565 15.9252 5.67969 15.4709C6.45218 16.2604 7.52947 16.7501 8.72126 16.7501C11.0708 16.7501 12.9755 14.8466 12.9755 12.4982V7.80409H12.9754ZM13.8063 5.48342C13.3444 4.97899 13.041 4.3271 12.9754 3.60639V3.31055H12.3371C12.4978 4.22653 13.0459 5.00909 13.8063 5.48342ZM7.16563 13.669C6.9075 13.3308 6.76798 12.917 6.76864 12.4915C6.76864 11.4175 7.63981 10.5467 8.71463 10.5467C8.9149 10.5466 9.114 10.5773 9.30491 10.6378V8.28611C9.08181 8.25557 8.85667 8.24255 8.63163 8.24734V10.0778C8.44062 10.0173 8.24143 9.98653 8.04106 9.98669C6.96629 9.98669 6.09516 10.8574 6.09516 11.9316C6.09516 12.6911 6.53058 13.3486 7.16563 13.669Z" fill="#656572"></path><path d="M12.3014 7.24405C13.2056 7.88984 14.3127 8.2698 15.5087 8.2698V6.45917C14.8411 6.31703 14.2501 5.96839 13.8058 5.48342C13.0453 5.00904 12.4973 4.22648 12.3366 3.31055H10.66V12.4981C10.6562 13.5692 9.78655 14.4365 8.71405 14.4365C8.0821 14.4365 7.52061 14.1354 7.16505 13.6689C6.5301 13.3486 6.09464 12.691 6.09464 11.9316C6.09464 10.8576 6.96576 9.98673 8.04053 9.98673C8.24645 9.98673 8.44492 10.0188 8.6311 10.0778V8.24739C6.32301 8.29506 4.4668 10.18 4.4668 12.4982C4.4668 13.6554 4.92902 14.7045 5.67925 15.471C6.35607 15.9252 7.17081 16.1902 8.04745 16.1902C10.3968 16.1902 12.3014 14.2865 12.3014 11.9383L12.3014 7.24405Z" fill="#656572"></path><path d="M15.5084 6.45856V5.96909C14.9064 5.96996 14.3163 5.80147 13.8055 5.48286C14.2576 5.97756 14.853 6.31871 15.5084 6.45866M12.3363 3.30994C12.321 3.22242 12.3092 3.13431 12.301 3.04584V2.75H9.98607V11.9377C9.98239 13.0087 9.11272 13.8759 8.04018 13.8759C7.73612 13.8764 7.43622 13.8053 7.1647 13.6685C7.52026 14.1348 8.08175 14.4359 8.7137 14.4359C9.78615 14.4359 10.6559 13.5687 10.6597 12.4976V3.30999L12.3363 3.30994ZM8.63089 8.24678V7.72561C8.43745 7.6992 8.24243 7.68597 8.04719 7.68602C5.69758 7.68602 3.79297 9.58962 3.79297 11.9377C3.79297 13.4098 4.54151 14.7072 5.679 15.4704C4.92877 14.7039 4.46654 13.6548 4.46654 12.4976C4.46654 10.1794 6.32271 8.29445 8.63089 8.24678Z" fill="#D1D1D1"></path></svg>