<svg xmlns="http://www.w3.org/2000/svg" width="25" height="25" viewBox="0 0 25 25" fill="none"><path d="M19.1774 19.9405H16.362V15.5312C16.362 14.4796 16.3431 13.1269 14.8974 13.1269C13.4517 13.1269 13.2064 14.272 13.2064 15.4557V19.9409H10.3918V10.8736H13.0949V12.1121H13.1322C13.6839 11.1703 14.7078 10.6076 15.7989 10.6475C18.6525 10.6475 19.1779 12.5247 19.1779 14.9659L19.177 19.9405H19.1774ZM7.21562 9.63321C6.31284 9.63321 5.58165 8.90199 5.58165 7.99917C5.58165 7.09634 6.31284 6.36512 7.21562 6.36512C8.11841 6.36512 8.84959 7.09634 8.84959 7.99917C8.84959 8.90199 8.11841 9.63321 7.21562 9.63321ZM8.62269 19.9405H5.80461V10.8731H8.62269V19.9405ZM20.581 3.751H4.39008C3.6251 3.74266 2.9975 4.35625 2.98828 5.12082V21.3792C2.9975 22.1451 3.6251 22.7582 4.39008 22.7499H20.5814C21.3482 22.7591 21.9784 22.146 21.9885 21.3792V5.11995C21.9771 4.35318 21.3468 3.74003 20.581 3.75012" fill="#656572"></path></svg>