<svg width="230" height="31" viewBox="0 0 230 31" fill="none" xmlns="http://www.w3.org/2000/svg">
<g clip-path="url(#clip0_3231_19678)">
<path d="M29.7619 25.2619V21.6429C28.746 22.8175 27.5714 23.754 26.2381 24.4524C24.9048 25.1508 23.4921 25.5 22 25.5C20.3492 25.5 18.7937 25.1984 17.3333 24.5952C15.9048 23.992 14.6349 23.1349 13.5238 22.0238C12.4127 20.9444 11.5397 19.6746 10.9048 18.2143C10.3016 16.7222 10 15.1667 10 13.5476C10 11.9286 10.3016 10.3889 10.9048 8.92857C11.5397 7.4365 12.4127 6.13492 13.5238 5.02381C14.6349 3.9127 15.9048 3.05556 17.3333 2.45238C18.7937 1.8492 20.3492 1.54762 22 1.54762C23.5238 1.54762 24.9524 1.86508 26.2857 2.5C27.6508 3.13492 28.8095 4.02381 29.7619 5.16667V2.02381H34.0476V25.2619H29.7619ZM22 5.78571C20.9524 5.78571 19.9365 5.99206 18.9524 6.40476C18 6.78571 17.1746 7.3254 16.4762 8.02381C15.7778 8.72222 15.2222 9.56348 14.8095 10.5476C14.4286 11.5 14.2381 12.5 14.2381 13.5476C14.2381 14.5952 14.4286 15.5952 14.8095 16.5476C15.2222 17.5 15.7778 18.3254 16.4762 19.0238C17.1746 19.7222 18 20.2778 18.9524 20.6905C19.9365 21.0714 20.9524 21.2619 22 21.2619C23.0476 21.2619 24.0476 21.0714 25 20.6905C25.9524 20.2778 26.7778 19.7222 27.4762 19.0238C28.1746 18.3254 28.7143 17.5 29.0952 16.5476C29.5079 15.5952 29.7143 14.5952 29.7143 13.5476C29.7143 12.5 29.5079 11.5 29.0952 10.5476C28.7143 9.56348 28.1746 8.72222 27.4762 8.02381C26.7778 7.3254 25.9524 6.78571 25 6.40476C24.0476 5.99206 23.0476 5.78571 22 5.78571ZM34.8188 15.1667C34.8188 15.9286 35.0887 16.7222 35.6283 17.5476C36.1998 18.373 36.8506 19.0714 37.5807 19.6429C38.914 20.6905 40.4696 21.2143 42.2474 21.2143C45.0728 21.2143 47.3744 19.8492 49.1521 17.119L52.7712 19.2619C51.5331 21.2619 50.0093 22.8016 48.1998 23.881C46.3902 24.9603 44.4061 25.5 42.2474 25.5C40.6283 25.5 39.0887 25.1984 37.6283 24.5952C36.168 23.9603 34.8823 23.0873 33.7712 21.9762C32.6601 20.8651 31.7871 19.5794 31.1521 18.119C30.549 16.6587 30.2474 15.119 30.2474 13.5C30.2474 11.881 30.549 10.3413 31.1521 8.88095C31.7871 7.38889 32.6601 6.0873 33.7712 4.97619C34.8506 3.86508 36.1204 3.00793 37.5807 2.40476C39.0728 1.80159 40.6283 1.5 42.2474 1.5C43.8664 1.5 45.4061 1.80159 46.8664 2.40476C48.3585 3.00793 49.6442 3.86508 50.7236 4.97619C53.0728 7.38889 54.2474 10.1825 54.2474 13.3571C54.2474 13.9286 54.1998 14.5318 54.1045 15.1667H34.8188ZM42.2474 5.40476C40.9458 5.40476 39.7236 5.69048 38.5807 6.2619C37.4378 6.83333 36.5172 7.59524 35.8188 8.54762C35.1521 9.46824 34.8188 10.4524 34.8188 11.5H49.6759C49.6759 10.4524 49.3268 9.46824 48.6283 8.54762C47.9617 7.59524 47.0569 6.83333 45.914 6.2619C44.7712 5.69048 43.549 5.40476 42.2474 5.40476Z" fill="#005CBB"/>
<rect x="12.1237" y="27.5" width="40" height="2" fill="#F4DB00"/>
<path d="M71.6673 10.84C71.6673 12.226 70.5333 13.598 68.4193 13.598C66.4593 13.598 65.0733 12.506 65.0453 10.896H66.4033C66.4873 11.708 67.0613 12.52 68.4193 12.52C69.6513 12.52 70.3793 11.82 70.3793 10.896C70.3793 8.264 65.1013 9.944 65.1013 6.318C65.1013 4.708 66.4033 3.616 68.3353 3.616C70.1973 3.616 71.4153 4.638 71.5693 6.122H70.1693C70.0853 5.464 69.4693 4.722 68.2793 4.708C67.2293 4.68 66.4033 5.226 66.4033 6.276C66.4033 8.796 71.6673 7.228 71.6673 10.84ZM73.5421 13.5V5.828H74.8161V13.5H73.5421ZM74.2001 4.582C73.7101 4.582 73.3321 4.204 73.3321 3.714C73.3321 3.224 73.7101 2.846 74.2001 2.846C74.6621 2.846 75.0401 3.224 75.0401 3.714C75.0401 4.204 74.6621 4.582 74.2001 4.582ZM82.5034 11.414C82.5034 12.674 81.3974 13.626 79.7034 13.626C77.9114 13.626 76.6514 12.646 76.5674 11.246H77.8834C77.9534 11.988 78.6114 12.548 79.6894 12.548C80.6974 12.548 81.2574 12.044 81.2574 11.414C81.2574 9.706 76.7214 10.7 76.7214 7.844C76.7214 6.668 77.8274 5.702 79.5354 5.702C81.2294 5.702 82.3494 6.612 82.4334 8.11H81.1594C81.1034 7.34 80.5154 6.78 79.4934 6.78C78.5554 6.78 77.9954 7.228 77.9954 7.844C77.9954 9.664 82.4474 8.67 82.5034 11.414ZM84.5819 11.4V6.878H83.5879V5.828H84.5819V3.896H85.8559V5.828H87.8579V6.878H85.8559V11.4C85.8559 12.156 86.1359 12.422 86.9199 12.422H87.8579V13.5H86.7099C85.3519 13.5 84.5819 12.94 84.5819 11.4ZM92.6635 6.78C91.4175 6.78 90.3815 7.606 90.2415 9.104H95.0855C95.0995 7.606 93.9795 6.78 92.6635 6.78ZM96.2475 11.134C95.8555 12.534 94.6235 13.626 92.7195 13.626C90.5355 13.626 88.9255 12.086 88.9255 9.65C88.9255 7.228 90.4795 5.702 92.7195 5.702C94.9455 5.702 96.4015 7.27 96.4015 9.37C96.4015 9.65 96.3875 9.874 96.3595 10.14H90.2275C90.3255 11.694 91.4175 12.548 92.7195 12.548C93.8675 12.548 94.5955 11.96 94.8755 11.134H96.2475ZM109.157 13.5V9.16C109.157 7.592 108.317 6.794 107.057 6.794C105.769 6.794 104.887 7.62 104.887 9.272V13.5H103.627V9.16C103.627 7.592 102.787 6.794 101.527 6.794C100.239 6.794 99.3571 7.62 99.3571 9.272V13.5H98.0831V5.828H99.3571V6.934C99.8611 6.122 100.771 5.688 101.779 5.688C103.039 5.688 104.089 6.248 104.593 7.396C105.041 6.29 106.133 5.688 107.309 5.688C109.059 5.688 110.417 6.78 110.417 8.978V13.5H109.157ZM112.031 9.636C112.031 7.242 113.613 5.702 115.671 5.702C117.099 5.702 118.079 6.43 118.527 7.228V5.828H119.815V13.5H118.527V12.072C118.065 12.898 117.071 13.626 115.657 13.626C113.613 13.626 112.031 12.016 112.031 9.636ZM118.527 9.65C118.527 7.872 117.323 6.808 115.923 6.808C114.523 6.808 113.333 7.83 113.333 9.636C113.333 11.442 114.523 12.506 115.923 12.506C117.323 12.506 118.527 11.456 118.527 9.65ZM125.224 9.636C125.224 7.242 126.806 5.702 128.878 5.702C130.082 5.702 131.188 6.318 131.72 7.2V3.14H133.008V13.5H131.72V12.058C131.258 12.912 130.264 13.626 128.864 13.626C126.806 13.626 125.224 12.016 125.224 9.636ZM131.72 9.65C131.72 7.872 130.516 6.808 129.116 6.808C127.716 6.808 126.526 7.83 126.526 9.636C126.526 11.442 127.716 12.506 129.116 12.506C130.516 12.506 131.72 11.456 131.72 9.65ZM138.423 6.78C137.177 6.78 136.141 7.606 136.001 9.104H140.845C140.859 7.606 139.739 6.78 138.423 6.78ZM142.007 11.134C141.615 12.534 140.383 13.626 138.479 13.626C136.295 13.626 134.685 12.086 134.685 9.65C134.685 7.228 136.239 5.702 138.479 5.702C140.705 5.702 142.161 7.27 142.161 9.37C142.161 9.65 142.147 9.874 142.119 10.14H135.987C136.085 11.694 137.177 12.548 138.479 12.548C139.627 12.548 140.355 11.96 140.635 11.134H142.007ZM71.8213 27.5L71.2333 25.764H67.5653L66.9773 27.5H64.4713L68.0273 17.672H70.7993L74.3553 27.5H71.8213ZM70.6173 23.916L69.3993 20.318L68.1953 23.916H70.6173ZM77.8316 20.794C78.2656 20.108 79.0916 19.576 80.2396 19.576C82.1576 19.576 83.6836 21.116 83.6836 23.58C83.6836 26.044 82.1576 27.612 80.2396 27.612C79.0916 27.612 78.2656 27.066 77.8316 26.408V31.224H75.4376V19.688H77.8316V20.794ZM81.2476 23.58C81.2476 22.334 80.4356 21.662 79.5256 21.662C78.6296 21.662 77.8176 22.348 77.8176 23.594C77.8176 24.84 78.6296 25.526 79.5256 25.526C80.4356 25.526 81.2476 24.826 81.2476 23.58ZM92.5835 23.594C92.5835 26.072 90.7915 27.612 88.4955 27.612C86.1995 27.612 84.4635 26.072 84.4635 23.594C84.4635 21.116 86.2415 19.576 88.5235 19.576C90.8195 19.576 92.5835 21.116 92.5835 23.594ZM86.8995 23.594C86.8995 24.91 87.6275 25.54 88.4955 25.54C89.3495 25.54 90.1475 24.91 90.1475 23.594C90.1475 22.264 89.3635 21.648 88.5235 21.648C87.6555 21.648 86.8995 22.264 86.8995 23.594ZM97.4516 24.574L99.2436 19.688H101.834L96.9336 31.21H94.3576L96.1496 27.234L92.9716 19.688H95.6456L97.4516 24.574ZM110.343 23.594C110.343 26.072 108.551 27.612 106.255 27.612C103.959 27.612 102.223 26.072 102.223 23.594C102.223 21.116 104.001 19.576 106.283 19.576C108.579 19.576 110.343 21.116 110.343 23.594ZM104.659 23.594C104.659 24.91 105.387 25.54 106.255 25.54C107.109 25.54 107.907 24.91 107.907 23.594C107.907 22.264 107.123 21.648 106.283 21.648C105.415 21.648 104.659 22.264 104.659 23.594ZM120.6 17.672V19.59H116.974V21.578H120.18V23.426H116.974V25.582H120.6V27.5H114.58V17.672H120.6ZM128.496 25.232C128.496 26.59 127.292 27.612 125.332 27.612C123.246 27.612 121.846 26.45 121.734 24.938H124.1C124.156 25.484 124.646 25.848 125.304 25.848C125.92 25.848 126.242 25.568 126.242 25.218C126.242 23.958 121.986 24.868 121.986 21.998C121.986 20.668 123.12 19.576 125.164 19.576C127.18 19.576 128.3 20.696 128.454 22.236H126.242C126.172 21.704 125.766 21.354 125.094 21.354C124.534 21.354 124.226 21.578 124.226 21.956C124.226 23.202 128.454 22.32 128.496 25.232ZM129.485 23.594C129.485 21.13 131.109 19.576 133.405 19.576C135.365 19.576 136.751 20.654 137.157 22.516H134.609C134.413 21.97 134.021 21.62 133.363 21.62C132.509 21.62 131.921 22.292 131.921 23.594C131.921 24.896 132.509 25.568 133.363 25.568C134.021 25.568 134.399 25.246 134.609 24.672H137.157C136.751 26.478 135.365 27.612 133.405 27.612C131.109 27.612 129.485 26.072 129.485 23.594ZM146.082 23.594C146.082 26.072 144.29 27.612 141.994 27.612C139.698 27.612 137.962 26.072 137.962 23.594C137.962 21.116 139.74 19.576 142.022 19.576C144.318 19.576 146.082 21.116 146.082 23.594ZM140.398 23.594C140.398 24.91 141.126 25.54 141.994 25.54C142.848 25.54 143.646 24.91 143.646 23.594C143.646 22.264 142.862 21.648 142.022 21.648C141.154 21.648 140.398 22.264 140.398 23.594ZM147.352 27.5V17.14H149.746V27.5H147.352ZM151.005 23.58C151.005 21.116 152.531 19.576 154.449 19.576C155.611 19.576 156.437 20.108 156.857 20.794V19.688H159.251V27.5H156.857V26.394C156.423 27.08 155.597 27.612 154.435 27.612C152.531 27.612 151.005 26.044 151.005 23.58ZM156.857 23.594C156.857 22.348 156.059 21.662 155.149 21.662C154.253 21.662 153.441 22.334 153.441 23.58C153.441 24.826 154.253 25.526 155.149 25.526C156.059 25.526 156.857 24.84 156.857 23.594ZM163.377 23.874V27.5H160.983V19.688H163.377V20.99C163.923 20.164 164.777 19.604 165.827 19.604V22.138H165.169C164.035 22.138 163.377 22.53 163.377 23.874Z" fill="#003164"/>
</g>
<defs>
<clipPath id="clip0_3231_19678">
<rect width="230" height="30" fill="white" transform="translate(0 0.5)"/>
</clipPath>
</defs>
</svg>