<svg xmlns="http://www.w3.org/2000/svg" width="84" height="100" viewBox="0 0 84 100" fill="none"><g clip-path="url(#clip0_2260_16168)"><path d="M6.80403 42.3145C5.57349 42.3145 4.5529 42.1415 3.73838 41.7954C2.92385 41.4494 2.31539 40.9984 1.91104 40.4424C1.5067 39.8864 1.29286 39.2974 1.26953 38.6773C1.26953 38.5723 1.30452 38.4848 1.37451 38.4129C1.44449 38.3429 1.53197 38.3079 1.63889 38.3079H4.43238C4.59567 38.3079 4.72592 38.3352 4.81923 38.3876C4.91254 38.4401 5.01168 38.514 5.1186 38.6073C5.22358 38.7356 5.34605 38.8561 5.48796 38.9669C5.62792 39.0778 5.81066 39.1672 6.03227 39.2313C6.25388 39.2955 6.51243 39.3285 6.80597 39.3285C7.34445 39.3285 7.76046 39.2547 8.054 39.1089C8.34754 38.9631 8.49334 38.7609 8.49334 38.5023C8.49334 38.3041 8.41364 38.1388 8.25618 38.0105C8.09872 37.8822 7.83239 37.7636 7.4572 37.6587C7.08202 37.5537 6.57269 37.4429 5.92924 37.3243C5.02723 37.1727 4.2477 36.9472 3.59258 36.6478C2.93552 36.3484 2.43592 35.9441 2.08989 35.4347C1.74386 34.9254 1.57085 34.2956 1.57085 33.5452C1.57085 32.7948 1.78468 32.1106 2.21236 31.5254C2.64003 30.9403 3.23683 30.4834 4.0047 30.1549C4.77063 29.8264 5.66486 29.6631 6.6835 29.6631C7.52719 29.6631 8.27367 29.7739 8.92296 29.9974C9.57225 30.221 10.1204 30.5107 10.5656 30.8664C11.0108 31.2241 11.351 31.6071 11.5843 32.0172C11.8175 32.4274 11.942 32.8201 11.9536 33.1953C11.9536 33.3003 11.9147 33.3916 11.8389 33.4674C11.7631 33.5433 11.6776 33.5821 11.5843 33.5821H8.6508C8.51084 33.5821 8.39225 33.5588 8.29894 33.5122C8.20563 33.4655 8.11232 33.3897 8.01707 33.2847C7.95875 33.1214 7.81295 32.9737 7.57773 32.8454C7.34251 32.7171 7.04508 32.6529 6.68156 32.6529C6.28304 32.6529 5.97978 32.721 5.76789 32.8551C5.556 32.9892 5.45102 33.1856 5.45102 33.4441C5.45102 33.6191 5.51517 33.7726 5.64347 33.901C5.77178 34.0293 6.00117 34.1439 6.32775 34.2431C6.65629 34.3422 7.11312 34.4511 7.69826 34.5677C8.81021 34.731 9.71027 34.9662 10.3945 35.2695C11.0788 35.5747 11.5804 35.9732 11.8972 36.4651C12.2141 36.9569 12.3716 37.5712 12.3716 38.3099C12.3716 39.1419 12.1305 39.8553 11.6504 40.4541C11.1702 41.0509 10.5112 41.5116 9.67333 41.8324C8.83548 42.1551 7.87905 42.3164 6.80014 42.3164L6.80403 42.3145Z" fill="#0092B5"></path><path d="M14.1639 42.1397C14.0356 42.1397 13.9267 42.095 13.8392 42.0075C13.7517 41.9201 13.707 41.8112 13.707 41.6829V33.4599C13.707 33.3316 13.7517 33.2227 13.8392 33.1352C13.9267 33.0478 14.0356 33.003 14.1639 33.003H16.7649C16.8932 33.003 17.004 33.0478 17.0993 33.1352C17.1926 33.2227 17.2392 33.3316 17.2392 33.4599V41.6829C17.2392 41.8112 17.1926 41.9201 17.0993 42.0075C17.006 42.095 16.8951 42.1397 16.7649 42.1397H14.1639ZM14.1989 31.8619C14.0706 31.8619 13.9617 31.8172 13.8742 31.7297C13.7867 31.6423 13.742 31.5334 13.742 31.4051V29.5603C13.742 29.432 13.7867 29.3212 13.8742 29.2259C13.9617 29.1326 14.0706 29.0859 14.1989 29.0859H16.728C16.8563 29.0859 16.9671 29.1326 17.0623 29.2259C17.1556 29.3192 17.2023 29.43 17.2023 29.5603V31.4051C17.2023 31.5334 17.1556 31.6423 17.0623 31.7297C16.969 31.8172 16.8582 31.8619 16.728 31.8619H14.1989Z" fill="#0092B5"></path><path d="M19.5057 42.1396C19.3774 42.1396 19.2685 42.0948 19.181 42.0074C19.0935 41.9199 19.0488 41.811 19.0488 41.6827V33.4597C19.0488 33.3314 19.0935 33.2225 19.181 33.1351C19.2685 33.0476 19.3774 33.0029 19.5057 33.0029H21.9123C22.0406 33.0029 22.1495 33.0476 22.2369 33.1351C22.3244 33.2225 22.3691 33.3314 22.3691 33.4597V34.039C22.5908 33.7571 22.9135 33.4908 23.3353 33.24C23.7571 32.9873 24.2548 32.8512 24.8283 32.8279C26.1988 32.7929 27.1241 33.2848 27.6043 34.3034C27.8745 33.8816 28.2574 33.5297 28.7551 33.2498C29.2528 32.9679 29.7835 32.8279 30.3453 32.8279C30.9537 32.8279 31.5019 32.9659 31.9879 33.24C32.4739 33.5161 32.8627 33.9379 33.1563 34.5056C33.4498 35.0732 33.5956 35.8139 33.5956 36.7275V41.6827C33.5956 41.811 33.5509 41.9199 33.4634 42.0074C33.3759 42.0948 33.2671 42.1396 33.1388 42.1396H30.5727C30.4444 42.1396 30.3355 42.0948 30.2481 42.0074C30.1606 41.9199 30.1159 41.811 30.1159 41.6827V36.8344C30.1159 36.5292 30.0692 36.2862 29.9759 36.1055C29.8826 35.9247 29.7621 35.7886 29.6163 35.7011C29.4705 35.6136 29.2975 35.5689 29.0972 35.5689C28.9106 35.5689 28.7395 35.6136 28.5879 35.7011C28.4363 35.7886 28.3158 35.9247 28.2283 36.1055C28.1408 36.2862 28.0961 36.5292 28.0961 36.8344V41.6827C28.0961 41.811 28.0514 41.9199 27.9639 42.0074C27.8764 42.0948 27.7676 42.1396 27.6393 42.1396H25.0752C24.9468 42.1396 24.838 42.0948 24.7505 42.0074C24.663 41.9199 24.6183 41.811 24.6183 41.6827V36.8344C24.6183 36.5292 24.5717 36.2862 24.4784 36.1055C24.385 35.9247 24.2645 35.7886 24.1187 35.7011C23.9729 35.6136 23.7999 35.5689 23.5997 35.5689C23.4131 35.5689 23.242 35.6156 23.0904 35.7089C22.9387 35.8022 22.8143 35.9363 22.721 36.1132C22.6277 36.2882 22.581 36.5292 22.581 36.8344V41.6827C22.581 41.811 22.5363 41.9199 22.4488 42.0074C22.3614 42.0948 22.2525 42.1396 22.1242 42.1396H19.5057Z" fill="#0092B5"></path><path d="M35.7908 45.4776C35.6625 45.4776 35.5537 45.4329 35.4662 45.3454C35.3787 45.2579 35.334 45.149 35.334 45.0207V33.4599C35.334 33.3316 35.3787 33.2228 35.4662 33.1353C35.5537 33.0478 35.6625 33.0031 35.7908 33.0031H38.2674C38.3957 33.0031 38.5046 33.0478 38.5921 33.1353C38.6796 33.2228 38.7243 33.3316 38.7243 33.4599V34.0392C39.0062 33.6874 39.3619 33.3977 39.7954 33.1703C40.2289 32.9428 40.7616 32.8281 41.3934 32.8281C41.9435 32.8281 42.4392 32.9098 42.8786 33.075C43.3179 33.2383 43.7009 33.4871 44.0294 33.8215C44.3579 34.1559 44.6145 34.5796 44.8031 35.0948C44.9897 35.61 45.1025 36.2126 45.1375 36.9046C45.1491 37.1515 45.1549 37.3731 45.1549 37.5714C45.1549 37.7697 45.1491 37.9991 45.1375 38.2557C45.1141 38.9108 45.0091 39.4921 44.8206 39.9956C44.634 40.4991 44.3754 40.9248 44.0469 41.2689C43.7183 41.6149 43.3315 41.8754 42.8883 42.0503C42.4431 42.2253 41.9454 42.3147 41.3953 42.3147C40.8452 42.3147 40.3825 42.2234 39.9723 42.0426C39.5621 41.8618 39.2219 41.576 38.9537 41.1911V45.0207C38.9537 45.149 38.907 45.2579 38.8137 45.3454C38.7204 45.4329 38.6135 45.4776 38.4968 45.4776H35.7908ZM40.1998 39.5737C40.505 39.5737 40.7421 39.5115 40.9112 39.389C41.0804 39.2666 41.2048 39.0955 41.2806 38.8797C41.3564 38.6639 41.407 38.4132 41.4303 38.1332C41.4653 37.758 41.4653 37.3829 41.4303 37.0096C41.407 36.7277 41.3564 36.4789 41.2806 36.2631C41.2048 36.0473 41.0804 35.8763 40.9112 35.7538C40.7421 35.6313 40.505 35.5691 40.1998 35.5691C39.8945 35.5691 39.6516 35.6333 39.4708 35.7616C39.29 35.8899 39.1597 36.061 39.0839 36.2709C39.0081 36.4809 38.9634 36.7161 38.9517 36.9746C38.9401 37.2215 38.9342 37.4392 38.9342 37.6336C38.9342 37.828 38.9401 38.0458 38.9517 38.2926C38.9634 38.5395 39.0139 38.7553 39.1014 38.9419C39.1889 39.1286 39.3211 39.2821 39.496 39.3988C39.671 39.5154 39.9062 39.5737 40.1978 39.5737H40.1998Z" fill="#0092B5"></path><path d="M51.268 42.3147C50.2377 42.3147 49.3668 42.1631 48.6592 41.8579C47.9497 41.5527 47.4092 41.1056 47.0341 40.5146C46.6589 39.9236 46.4489 39.2121 46.4023 38.3801C46.3906 38.1332 46.3848 37.865 46.3848 37.5714C46.3848 37.2779 46.3906 37.0096 46.4023 36.7627C46.4489 35.919 46.6725 35.2056 47.069 34.6185C47.4676 34.0334 48.0196 33.5882 48.7292 33.283C49.4387 32.9778 50.2844 32.8262 51.268 32.8262C52.2517 32.8262 53.0973 32.9778 53.8069 33.283C54.5145 33.5882 55.0685 34.0334 55.467 34.6185C55.8655 35.2037 56.0871 35.919 56.1338 36.7627C56.1571 37.0096 56.1688 37.2779 56.1688 37.5714C56.1688 37.865 56.1571 38.1332 56.1338 38.3801C56.0871 39.2121 55.8753 39.9236 55.502 40.5146C55.1268 41.1056 54.5845 41.5546 53.8768 41.8579C53.1673 42.1631 52.2983 42.3147 51.268 42.3147ZM51.268 39.8381C51.7015 39.8381 51.999 39.7098 52.1642 39.4512C52.3275 39.1946 52.4208 38.8078 52.4461 38.2926C52.4577 38.1177 52.4636 37.8766 52.4636 37.5714C52.4636 37.2662 52.4577 37.0271 52.4461 36.8502C52.4228 36.3467 52.3294 35.9637 52.1642 35.6994C52.0009 35.435 51.7015 35.3047 51.268 35.3047C50.8345 35.3047 50.5526 35.4369 50.3894 35.6994C50.2261 35.9637 50.125 36.3467 50.09 36.8502C50.0783 37.0252 50.0725 37.2662 50.0725 37.5714C50.0725 37.8766 50.0783 38.1157 50.09 38.2926C50.125 38.8078 50.2241 39.1946 50.3894 39.4512C50.5526 39.7098 50.8462 39.8381 51.268 39.8381Z" fill="#0092B5"></path><path d="M61.7056 42.3147C60.9086 42.3147 60.2302 42.2292 59.6683 42.0601C59.1065 41.8909 58.6458 41.6771 58.2901 41.4186C57.9324 41.162 57.6719 40.8937 57.5086 40.6196C57.3453 40.3455 57.2559 40.1005 57.2442 39.8906C57.2325 39.7623 57.2714 39.6534 57.3589 39.5659C57.4464 39.4785 57.5436 39.4338 57.6486 39.4338H60.1952C60.2068 39.4338 60.2243 39.4376 60.2477 39.4435C60.271 39.4493 60.2943 39.4649 60.3176 39.4882C60.4693 39.5348 60.6131 39.6107 60.7473 39.7156C60.8814 39.8206 61.033 39.9159 61.2041 39.9975C61.3732 40.0792 61.5754 40.12 61.8106 40.12C62.0089 40.12 62.1877 40.0753 62.3471 39.9878C62.5065 39.9003 62.5843 39.774 62.5843 39.6107C62.5843 39.4707 62.5396 39.3463 62.4521 39.2413C62.3646 39.1363 62.18 39.0333 61.8981 38.9342C61.6162 38.835 61.1652 38.7262 60.5451 38.6095C59.9716 38.4929 59.4467 38.3199 58.9724 38.0905C58.4981 37.8611 58.1229 37.5539 57.8488 37.169C57.5727 36.7822 57.4367 36.3078 57.4367 35.746C57.4367 35.2659 57.5941 34.8032 57.911 34.358C58.2279 33.9129 58.6983 33.5474 59.3262 33.2597C59.9522 32.972 60.722 32.8301 61.6356 32.8301C62.3258 32.8301 62.9381 32.9117 63.4708 33.077C64.0034 33.2403 64.4544 33.4463 64.8238 33.6913C65.1931 33.9362 65.4731 34.2006 65.6674 34.4825C65.8599 34.7643 65.9629 35.0151 65.9746 35.2387C65.9863 35.367 65.9513 35.4758 65.8696 35.5633C65.788 35.6508 65.6947 35.6955 65.5878 35.6955H63.2861C63.2511 35.6955 63.2122 35.6936 63.1714 35.6858C63.1306 35.6799 63.0975 35.6663 63.0742 35.6411C62.9109 35.6061 62.7612 35.538 62.6271 35.4389C62.4929 35.3397 62.3491 35.2464 62.1975 35.157C62.0458 35.0695 61.8514 35.0248 61.6182 35.0248C61.4179 35.0248 61.2585 35.0715 61.136 35.1648C61.0136 35.2581 60.9514 35.3825 60.9514 35.5341C60.9514 35.6624 60.9922 35.781 61.0738 35.886C61.1555 35.991 61.3441 36.0901 61.6356 36.1854C61.9292 36.2787 62.3919 36.3778 63.0236 36.4847C63.844 36.6131 64.4991 36.8269 64.991 37.1263C65.4828 37.4256 65.8346 37.7736 66.0446 38.1721C66.2545 38.5706 66.3615 38.9691 66.3615 39.3677C66.3615 39.9645 66.1826 40.4855 65.8249 40.9306C65.4672 41.3758 64.9404 41.7179 64.2445 41.959C63.5466 42.1981 62.7009 42.3186 61.7056 42.3186V42.3147Z" fill="#0092B5"></path><path d="M68.1873 42.1397C68.059 42.1397 67.9501 42.095 67.8627 42.0075C67.7752 41.9201 67.7305 41.8112 67.7305 41.6829V33.4599C67.7305 33.3316 67.7752 33.2227 67.8627 33.1352C67.9501 33.0478 68.059 33.003 68.1873 33.003H70.7883C70.9166 33.003 71.0274 33.0478 71.1227 33.1352C71.216 33.2227 71.2627 33.3316 71.2627 33.4599V41.6829C71.2627 41.8112 71.216 41.9201 71.1227 42.0075C71.0294 42.095 70.9186 42.1397 70.7883 42.1397H68.1873ZM68.2223 31.8619C68.094 31.8619 67.9851 31.8172 67.8976 31.7297C67.8102 31.6423 67.7655 31.5334 67.7655 31.4051V29.5603C67.7655 29.432 67.8102 29.3212 67.8976 29.2259C67.9851 29.1326 68.094 29.0859 68.2223 29.0859H70.7514C70.8797 29.0859 70.9905 29.1326 71.0858 29.2259C71.1791 29.3192 71.2257 29.43 71.2257 29.5603V31.4051C71.2257 31.5334 71.1791 31.6423 71.0858 31.7297C70.9925 31.8172 70.8817 31.8619 70.7514 31.8619H68.2223Z" fill="#0092B5"></path><path d="M77.6567 42.3147C76.6264 42.3147 75.7555 42.1631 75.0479 41.8579C74.3383 41.5527 73.7979 41.1056 73.4227 40.5146C73.0475 39.9236 72.8376 39.2121 72.7909 38.3801C72.7793 38.1332 72.7734 37.865 72.7734 37.5714C72.7734 37.2779 72.7793 37.0096 72.7909 36.7627C72.8376 35.919 73.0611 35.2056 73.4577 34.6185C73.8562 34.0334 74.4083 33.5882 75.1179 33.283C75.8274 32.9778 76.6731 32.8262 77.6567 32.8262C78.6404 32.8262 79.486 32.9778 80.1955 33.283C80.9031 33.5882 81.4572 34.0334 81.8557 34.6185C82.2542 35.2037 82.4758 35.919 82.5225 36.7627C82.5458 37.0096 82.5575 37.2779 82.5575 37.5714C82.5575 37.865 82.5458 38.1332 82.5225 38.3801C82.4758 39.2121 82.2639 39.9236 81.8907 40.5146C81.5155 41.1056 80.9731 41.5546 80.2655 41.8579C79.556 42.1631 78.687 42.3147 77.6567 42.3147ZM77.6567 39.8381C78.0902 39.8381 78.3876 39.7098 78.5529 39.4512C78.7162 39.1946 78.8095 38.8078 78.8348 38.2926C78.8464 38.1177 78.8522 37.8766 78.8522 37.5714C78.8522 37.2662 78.8464 37.0271 78.8348 36.8502C78.8114 36.3467 78.7181 35.9637 78.5529 35.6994C78.3896 35.435 78.0902 35.3047 77.6567 35.3047C77.2232 35.3047 76.9413 35.4369 76.778 35.6994C76.6147 35.9637 76.5136 36.3467 76.4787 36.8502C76.467 37.0252 76.4612 37.2662 76.4612 37.5714C76.4612 37.8766 76.467 38.1157 76.4787 38.2926C76.5136 38.8078 76.6128 39.1946 76.778 39.4512C76.9413 39.7098 77.2349 39.8381 77.6567 39.8381Z" fill="#0092B5"></path><path d="M4.98387 79.6252C4.46872 79.6252 4.02161 79.5338 3.64642 79.3511C3.27123 79.1683 2.96408 78.9195 2.72497 78.6046C2.48587 78.2896 2.30702 77.9319 2.19038 77.5276C2.07374 77.1252 2.0057 76.6975 1.98626 76.2465C1.97654 76.0968 1.97266 75.9549 1.97266 75.8247C1.97266 75.6944 1.97654 75.5525 1.98626 75.4028C2.0057 74.9616 2.07374 74.5397 2.19038 74.1354C2.30702 73.733 2.48587 73.3714 2.72497 73.0526C2.96408 72.7338 3.27123 72.483 3.64642 72.3003C4.02161 72.1175 4.46678 72.0262 4.98387 72.0262C5.53791 72.0262 5.99668 72.1253 6.36215 72.3216C6.72762 72.518 7.02893 72.7629 7.26221 73.0526V69.8159C7.26221 69.7225 7.29332 69.6448 7.35358 69.5826C7.41384 69.5223 7.4916 69.4912 7.58491 69.4912H8.26141C8.35473 69.4912 8.43248 69.5223 8.49275 69.5826C8.55301 69.6428 8.58412 69.7206 8.58412 69.8159V79.1605C8.58412 79.2538 8.55301 79.3316 8.49275 79.3938C8.43248 79.456 8.35473 79.4852 8.26141 79.4852H7.62768C7.52465 79.4852 7.44494 79.4541 7.38857 79.3938C7.33219 79.3336 7.30498 79.2558 7.30498 79.1605V78.5696C7.06976 78.8689 6.76455 79.1217 6.38937 79.3219C6.01418 79.5241 5.54568 79.6252 4.98193 79.6252H4.98387ZM5.27936 78.486C5.74786 78.486 6.12304 78.3771 6.40492 78.1613C6.6868 77.9456 6.89674 77.6715 7.03865 77.3371C7.17862 77.0047 7.25444 76.6645 7.26416 76.3165C7.27388 76.1668 7.27776 75.986 7.27776 75.7741C7.27776 75.5622 7.27193 75.3834 7.26416 75.2318C7.25444 74.9032 7.17668 74.5805 7.03088 74.2617C6.88508 73.9429 6.6693 73.6805 6.38354 73.4744C6.09777 73.2684 5.72842 73.1653 5.27936 73.1653C4.80114 73.1653 4.42012 73.2703 4.14019 73.4822C3.85831 73.6941 3.65614 73.9701 3.53561 74.3123C3.41314 74.6544 3.34316 75.0238 3.32372 75.4164C3.314 75.6886 3.314 75.9608 3.32372 76.2329C3.34316 76.6275 3.41314 76.995 3.53561 77.3371C3.65808 77.6792 3.86026 77.9553 4.14019 78.1672C4.42206 78.3791 4.80114 78.484 5.27936 78.484V78.486Z" fill="#28B2AF"></path><path d="M13.6115 79.6254C12.6356 79.6254 11.8619 79.3279 11.2885 78.7311C10.7169 78.1363 10.402 77.3217 10.3456 76.2895C10.3359 76.167 10.332 76.0096 10.332 75.8171C10.332 75.6247 10.3359 75.4672 10.3456 75.3447C10.3826 74.6779 10.5381 74.0947 10.8102 73.5932C11.0824 73.0917 11.4556 72.7048 11.93 72.4326C12.4043 72.1605 12.9603 72.0244 13.5979 72.0244C14.3113 72.0244 14.9081 72.1741 15.3922 72.4754C15.8762 72.7767 16.2437 73.2025 16.4964 73.7565C16.7491 74.3105 16.8755 74.9579 16.8755 75.6985V75.9376C16.8755 76.0407 16.8443 76.1204 16.7841 76.1767C16.7238 76.2331 16.6461 76.2603 16.5528 76.2603H11.6831V76.3867C11.7025 76.7716 11.7861 77.1312 11.9358 77.4637C12.0855 77.7961 12.3032 78.0663 12.5909 78.2724C12.8767 78.4784 13.213 78.5814 13.5979 78.5814C13.9362 78.5814 14.2161 78.529 14.4416 78.4259C14.6671 78.3229 14.8498 78.2082 14.9898 78.0818C15.1298 77.9555 15.225 77.8544 15.2717 77.7786C15.3553 77.6658 15.4214 77.5978 15.468 77.5745C15.5147 77.5511 15.5905 77.5395 15.6935 77.5395H16.3836C16.4672 77.5395 16.5411 77.5647 16.6014 77.6172C16.6616 77.6697 16.6888 77.7416 16.6791 77.835C16.6694 77.9749 16.5955 78.1479 16.4536 78.3482C16.3136 78.5503 16.1134 78.7486 15.8549 78.9469C15.5963 79.1432 15.2775 79.3065 14.8984 79.4329C14.5194 79.5593 14.0897 79.6234 13.6115 79.6234V79.6254ZM11.6831 75.2903H15.5399V75.2475C15.5399 74.8257 15.4622 74.4505 15.3067 74.122C15.1511 73.7934 14.9295 73.5329 14.6379 73.3405C14.3463 73.148 14.0003 73.0528 13.596 73.0528C13.1916 73.0528 12.8475 73.15 12.5618 73.3405C12.276 73.5329 12.0583 73.7934 11.9067 74.122C11.757 74.4505 11.6811 74.8257 11.6811 75.2475V75.2903H11.6831Z" fill="#28B2AF"></path><path d="M25.3637 79.6253C24.8291 79.6253 24.3198 79.5573 23.8377 79.4212C23.3536 79.2851 22.9259 79.081 22.5507 78.8089C22.1756 78.5367 21.8781 78.1985 21.6565 77.796C21.4368 77.3936 21.3163 76.9232 21.2969 76.3886C21.2969 76.305 21.3241 76.2311 21.3805 76.1709C21.4368 76.1106 21.5107 76.0795 21.606 76.0795H23.5052C23.6355 76.0795 23.7366 76.1126 23.8085 76.1787C23.8785 76.2448 23.9368 76.342 23.9834 76.4741C24.0398 76.7366 24.1312 76.9504 24.2575 77.1137C24.3839 77.277 24.5491 77.3995 24.7494 77.4792C24.9515 77.5589 25.179 77.5978 25.4317 77.5978C25.9002 77.5978 26.2618 77.4461 26.5164 77.1409C26.7692 76.8357 26.8955 76.3886 26.8955 75.7976V71.7308H22.335C22.2416 71.7308 22.16 71.6978 22.0881 71.6317C22.0161 71.5656 21.9831 71.482 21.9831 71.379V69.9852C21.9831 69.8821 22.0181 69.7985 22.0881 69.7324C22.1581 69.6663 22.2397 69.6333 22.335 69.6333H29.1466C29.2497 69.6333 29.3372 69.6663 29.4071 69.7324C29.4771 69.7985 29.5121 69.8821 29.5121 69.9852V75.8676C29.5121 76.6841 29.3372 77.3723 28.9853 77.9302C28.6334 78.4881 28.1455 78.9099 27.5215 79.1977C26.8975 79.4834 26.1782 79.6273 25.3617 79.6273L25.3637 79.6253Z" fill="#28B2AF"></path><path d="M33.905 79.625C33.3704 79.625 32.8941 79.5026 32.4762 79.2596C32.0582 79.0166 31.7316 78.6569 31.4983 78.1826C31.2631 77.7083 31.1465 77.129 31.1465 76.4447V72.5179C31.1465 72.4148 31.1795 72.3312 31.2456 72.2651C31.3117 72.1991 31.3953 72.166 31.4983 72.166H33.2576C33.3607 72.166 33.4481 72.1991 33.5181 72.2651C33.5881 72.3312 33.6231 72.4148 33.6231 72.5179V76.3592C33.6231 77.2787 34.0313 77.7374 34.8478 77.7374C35.2327 77.7374 35.5399 77.6189 35.7693 77.3778C35.9986 77.1368 36.1133 76.7985 36.1133 76.3572V72.5159C36.1133 72.4129 36.1464 72.3293 36.2125 72.2632C36.2786 72.1971 36.3622 72.1641 36.4652 72.1641H38.2245C38.3275 72.1641 38.4131 72.1971 38.4772 72.2632C38.5433 72.3293 38.5764 72.4129 38.5764 72.5159V79.1313C38.5764 79.2246 38.5433 79.3082 38.4772 79.3781C38.4111 79.4481 38.3275 79.4831 38.2245 79.4831H36.5916C36.4982 79.4831 36.4166 79.4481 36.3447 79.3781C36.2727 79.3082 36.2397 79.2265 36.2397 79.1313V78.5967C35.9948 78.9349 35.6798 79.1896 35.2891 79.3645C34.9003 79.5376 34.4376 79.625 33.903 79.625H33.905Z" fill="#28B2AF"></path><path d="M43.6175 79.6254C42.5094 79.6254 41.6288 79.326 40.9717 78.7253C40.3147 78.1246 39.9725 77.2343 39.9453 76.0523V75.5605C39.9725 74.8199 40.1397 74.1842 40.4449 73.6535C40.7501 73.1228 41.172 72.7204 41.7124 72.4424C42.2509 72.1663 42.8827 72.0264 43.6058 72.0264C44.432 72.0264 45.1143 72.1916 45.6528 72.5182C46.1913 72.8467 46.5976 73.2919 46.8698 73.8556C47.1419 74.4194 47.278 75.0609 47.278 75.7841V76.1223C47.278 76.2253 47.2449 76.3109 47.1788 76.375C47.1127 76.4411 47.0292 76.4742 46.9261 76.4742H42.4219V76.5733C42.4317 76.8455 42.4803 77.0943 42.5697 77.3198C42.6591 77.5453 42.7893 77.7242 42.9643 77.8544C43.1373 77.9866 43.3512 78.0507 43.6039 78.0507C43.7905 78.0507 43.948 78.0196 44.0763 77.9594C44.2026 77.8991 44.3076 77.8291 44.3931 77.7475C44.4767 77.6678 44.5428 77.5997 44.5895 77.5434C44.6731 77.4403 44.7411 77.3762 44.7936 77.3529C44.8461 77.3295 44.9277 77.3179 45.0405 77.3179H46.7862C46.8795 77.3179 46.9572 77.3451 47.0175 77.4015C47.0778 77.4578 47.105 77.5336 47.0953 77.627C47.0855 77.7864 47.0058 77.9788 46.8561 78.2043C46.7065 78.4298 46.4887 78.6534 46.201 78.873C45.9153 79.0927 45.5556 79.2735 45.1241 79.4154C44.6925 79.5554 44.191 79.6273 43.6175 79.6273V79.6254ZM42.4219 75.0803H44.8014V75.0531C44.8014 74.744 44.7567 74.4777 44.6672 74.258C44.5778 74.0384 44.4417 73.8673 44.259 73.7448C44.0763 73.6224 43.8585 73.5621 43.6039 73.5621C43.3492 73.5621 43.149 73.6224 42.9701 73.7448C42.7913 73.8673 42.6552 74.0384 42.5619 74.258C42.4686 74.4777 42.4219 74.744 42.4219 75.0531V75.0803Z" fill="#28B2AF"></path><path d="M51.9633 79.6254C51.2693 79.6254 50.655 79.499 50.1204 79.2463C49.5858 78.9936 49.1601 78.6242 48.8471 78.1421C48.5322 77.66 48.3611 77.0788 48.3339 76.4042C48.3242 76.2545 48.3203 76.064 48.3203 75.8346C48.3203 75.6052 48.3242 75.4147 48.3339 75.2651C48.3611 74.5808 48.5303 73.9956 48.8413 73.5135C49.1504 73.0314 49.5761 72.6621 50.1146 72.4094C50.6531 72.1566 51.2713 72.0303 51.9653 72.0303C52.6126 72.0303 53.1686 72.1216 53.6332 72.3044C54.0978 72.4871 54.473 72.7146 54.7588 72.9867C55.0445 73.2589 55.2603 73.5388 55.4061 73.8246C55.5519 74.1103 55.6297 74.3611 55.6374 74.5769C55.6472 74.6702 55.6141 74.7518 55.5383 74.8238C55.4625 74.8937 55.3789 74.9287 55.2856 74.9287H53.4991C53.396 74.9287 53.3163 74.9054 53.26 74.8588C53.2036 74.8121 53.1511 74.7421 53.1044 74.6469C52.9917 74.3553 52.8478 74.1492 52.6748 74.0267C52.5018 73.9043 52.2782 73.844 52.0061 73.844C51.6309 73.844 51.3413 73.9665 51.141 74.2095C50.9388 74.4544 50.828 74.8296 50.8105 75.335C50.8008 75.7102 50.8008 76.0446 50.8105 76.3342C50.8378 76.8494 50.9505 77.2265 51.1488 77.4598C51.3451 77.695 51.6309 77.8117 52.008 77.8117C52.2996 77.8117 52.529 77.7475 52.6981 77.6211C52.8673 77.4948 53.0033 77.2907 53.1064 77.0088C53.153 76.9155 53.2055 76.8455 53.2619 76.7969C53.3183 76.7483 53.398 76.7269 53.501 76.7269H55.2875C55.3808 76.7269 55.4664 76.76 55.5402 76.8261C55.6161 76.8922 55.6472 76.9757 55.6394 77.0788C55.6297 77.2285 55.583 77.4112 55.4994 77.627C55.4158 77.8428 55.2836 78.0683 55.1048 78.3035C54.9259 78.5387 54.6946 78.7545 54.4088 78.9508C54.1231 79.1472 53.7771 79.3105 53.3746 79.4368C52.9703 79.5632 52.5018 79.6273 51.9672 79.6273L51.9633 79.6254Z" fill="#28B2AF"></path><path d="M60.2796 79.6254C59.1715 79.6254 58.2909 79.326 57.6338 78.7253C56.9768 78.1246 56.6346 77.2343 56.6074 76.0523V75.5605C56.6346 74.8199 56.8018 74.1842 57.107 73.6535C57.4122 73.1228 57.8341 72.7204 58.3745 72.4424C58.913 72.1663 59.5448 72.0264 60.2679 72.0264C61.0941 72.0264 61.7764 72.1916 62.3149 72.5182C62.8534 72.8467 63.2597 73.2919 63.5319 73.8556C63.804 74.4194 63.9401 75.0609 63.9401 75.7841V76.1223C63.9401 76.2253 63.907 76.3109 63.841 76.375C63.7749 76.4411 63.6913 76.4742 63.5882 76.4742H59.084V76.5733C59.0938 76.8455 59.1424 77.0943 59.2318 77.3198C59.3212 77.5453 59.4515 77.7242 59.6264 77.8544C59.7994 77.9866 60.0133 78.0507 60.266 78.0507C60.4526 78.0507 60.6101 78.0196 60.7384 77.9594C60.8647 77.8991 60.9697 77.8291 61.0552 77.7475C61.1388 77.6678 61.2049 77.5997 61.2516 77.5434C61.3352 77.4403 61.4032 77.3762 61.4557 77.3529C61.5082 77.3295 61.5898 77.3179 61.7026 77.3179H63.4483C63.5416 77.3179 63.6193 77.3451 63.6796 77.4015C63.7399 77.4578 63.7671 77.5336 63.7574 77.627C63.7476 77.7864 63.6679 77.9788 63.5182 78.2043C63.3686 78.4298 63.1508 78.6534 62.8631 78.873C62.5774 79.0927 62.2177 79.2735 61.7862 79.4154C61.3546 79.5554 60.8531 79.6273 60.2796 79.6273V79.6254ZM59.084 75.0803H61.4635V75.0531C61.4635 74.744 61.4188 74.4777 61.3293 74.258C61.2399 74.0384 61.1038 73.8673 60.9211 73.7448C60.7384 73.6224 60.5206 73.5621 60.266 73.5621C60.0113 73.5621 59.8111 73.6224 59.6322 73.7448C59.4534 73.8673 59.3173 74.0384 59.224 74.258C59.1307 74.4777 59.084 74.744 59.084 75.0531V75.0803Z" fill="#28B2AF"></path><path d="M68.2727 79.6254C67.6623 79.6254 67.1452 79.5573 66.7175 79.4213C66.2899 79.2852 65.9438 79.118 65.6756 78.9217C65.4073 78.7253 65.209 78.5212 65.0768 78.3093C64.9446 78.0974 64.8747 77.9127 64.8649 77.7533C64.8552 77.6503 64.8883 77.5667 64.9641 77.5006C65.0399 77.4345 65.1196 77.4015 65.2032 77.4015H66.807C66.8342 77.4015 66.8614 77.4073 66.8847 77.4151C66.9081 77.4248 66.9333 77.4423 66.9625 77.4715C67.085 77.5375 67.2055 77.6192 67.328 77.7183C67.4504 77.8175 67.5904 77.903 67.7498 77.9788C67.9092 78.0546 68.1017 78.0916 68.3272 78.0916C68.5896 78.0916 68.8093 78.0371 68.9881 77.9302C69.167 77.8233 69.2564 77.6697 69.2564 77.4734C69.2564 77.3237 69.2136 77.1993 69.13 77.1002C69.0464 77.001 68.8754 76.9058 68.6168 76.8124C68.3583 76.7191 67.9714 76.6239 67.4563 76.5306C66.9683 76.4178 66.5406 76.2701 66.1752 76.0873C65.8097 75.9046 65.5278 75.6655 65.3315 75.37C65.1351 75.0745 65.036 74.7149 65.036 74.2931C65.036 73.9179 65.1585 73.5563 65.4015 73.2103C65.6445 72.8623 66.0022 72.5785 66.4707 72.3588C66.9392 72.1391 67.5204 72.0283 68.2163 72.0283C68.7509 72.0283 69.2194 72.0925 69.6238 72.2188C70.0262 72.3452 70.3644 72.5065 70.6366 72.7048C70.9088 72.9031 71.1148 73.1033 71.2567 73.3094C71.3967 73.5155 71.4725 73.704 71.4822 73.8732C71.4919 73.9665 71.4628 74.0501 71.3986 74.12C71.3325 74.19 71.2587 74.225 71.1731 74.225H69.7093C69.6724 74.225 69.6335 74.2172 69.5966 74.2036C69.5596 74.19 69.5266 74.1725 69.4974 74.155C69.3847 74.0987 69.2719 74.0248 69.1592 73.9295C69.0464 73.8362 68.9162 73.7507 68.7646 73.6768C68.6149 73.601 68.4263 73.5641 68.2008 73.5641C67.9481 73.5641 67.7498 73.6204 67.6098 73.7332C67.4699 73.8459 67.3979 73.9917 67.3979 74.1686C67.3979 74.2911 67.4368 74.4039 67.5185 74.5069C67.5982 74.6099 67.7615 74.7032 68.0103 74.7888C68.2591 74.8724 68.646 74.9676 69.1708 75.0706C69.8182 75.1737 70.3333 75.3409 70.7182 75.5702C71.1032 75.7996 71.3772 76.0679 71.5425 76.3731C71.7058 76.6783 71.7894 76.9991 71.7894 77.3373C71.7894 77.7883 71.6533 78.1868 71.3811 78.5329C71.109 78.8808 70.7124 79.1491 70.1914 79.3416C69.6704 79.534 69.0309 79.6293 68.2708 79.6293L68.2727 79.6254Z" fill="#28B2AF"></path><path d="M77.5341 82.1581C77.4583 82.1581 77.3941 82.1308 77.3377 82.0745C77.2814 82.0181 77.2542 81.952 77.2542 81.8781C77.2542 81.8412 77.258 81.8023 77.2678 81.7654C77.2775 81.7284 77.295 81.6818 77.3241 81.6254L78.4069 79.0496L75.7184 72.7026C75.6718 72.5898 75.6484 72.5101 75.6484 72.4635C75.6484 72.3799 75.6757 72.3079 75.732 72.2516C75.7884 72.1952 75.8584 72.168 75.9439 72.168H76.634C76.7371 72.168 76.8148 72.1913 76.8673 72.238C76.9179 72.2846 76.9548 72.341 76.9723 72.4071L79.1107 77.5295L81.3054 72.4071C81.3326 72.341 81.3734 72.2846 81.424 72.238C81.4745 72.1913 81.5523 72.168 81.6553 72.168H82.3163C82.3999 72.168 82.4718 72.1952 82.5282 72.2516C82.5845 72.3079 82.6118 72.374 82.6118 72.4479C82.6118 72.4946 82.5884 72.5801 82.5418 72.7006L78.545 81.9189C78.5177 81.985 78.4769 82.0414 78.4264 82.0881C78.3739 82.1347 78.2981 82.1581 78.1931 82.1581H77.5321H77.5341Z" fill="#28B2AF"></path><path d="M1.90395 60.3584C1.77759 60.3584 1.66484 60.3118 1.5657 60.2165C1.46461 60.1232 1.41602 60.0066 1.41602 59.8686V47.6837C1.41602 47.5457 1.46656 47.4291 1.5657 47.3358C1.66679 47.2424 1.77954 47.1938 1.90395 47.1938H4.4039C4.62941 47.1938 4.7927 47.2444 4.89379 47.3435C4.99293 47.4446 5.06291 47.5263 5.09985 47.5885L8.97419 53.8131V47.6837C8.97419 47.5457 9.02473 47.4291 9.12388 47.3358C9.22302 47.2424 9.34354 47.1938 9.48157 47.1938H12.3023C12.4403 47.1938 12.5569 47.2405 12.6502 47.3358C12.7436 47.431 12.7922 47.5457 12.7922 47.6837V59.8686C12.7922 60.0066 12.7455 60.1232 12.6502 60.2165C12.555 60.3098 12.4403 60.3584 12.3023 60.3584H9.81982C9.59432 60.3584 9.42714 60.306 9.32216 60.199C9.21524 60.0921 9.14332 60.0144 9.10638 59.9638L5.23204 54.0775V59.8686C5.23204 60.0066 5.18538 60.1232 5.09013 60.2165C4.99487 60.3098 4.88018 60.3584 4.74216 60.3584H1.90201H1.90395Z" fill="#0092B5"></path><path d="M17.9792 60.5469C17.2891 60.5469 16.6728 60.4147 16.1266 60.1523C15.5823 59.8899 15.1546 59.5341 14.8474 59.0889C14.5403 58.6438 14.3867 58.1461 14.3867 57.594C14.3867 56.692 14.7541 55.9805 15.487 55.4595C16.2199 54.9405 17.2016 54.5789 18.4302 54.3787L20.6113 54.0404V53.9082C20.6113 53.5194 20.5491 53.2279 20.4228 53.0335C20.2964 52.8391 20.0476 52.7419 19.6704 52.7419C19.408 52.7419 19.1942 52.7924 19.0309 52.8915C18.8676 52.9926 18.7179 53.1365 18.5799 53.3231C18.4535 53.4611 18.2922 53.5292 18.0919 53.5292H15.4404C15.314 53.5292 15.211 53.4922 15.1293 53.4164C15.0477 53.3406 15.0127 53.2415 15.0263 53.1151C15.038 52.8896 15.1332 52.6233 15.3082 52.3161C15.4831 52.009 15.7572 51.7077 16.1266 51.4141C16.4959 51.1206 16.9761 50.8756 17.5651 50.6812C18.1541 50.4868 18.8617 50.3896 19.6899 50.3896C20.518 50.3896 21.2509 50.483 21.8516 50.6715C22.4523 50.8601 22.948 51.1225 23.3368 51.4608C23.7256 51.799 24.0133 52.2092 24.2018 52.6933C24.3904 53.1754 24.4837 53.7119 24.4837 54.3009V59.8665C24.4837 60.0045 24.4371 60.1212 24.3418 60.2145C24.2466 60.3078 24.1319 60.3564 23.9938 60.3564H21.2664C21.1284 60.3564 21.0098 60.3098 20.9088 60.2145C20.8077 60.1212 20.7591 60.0045 20.7591 59.8665V59.2658C20.5958 59.5166 20.38 59.7363 20.1098 59.9248C19.8396 60.1134 19.5266 60.2631 19.1689 60.3758C18.8112 60.4886 18.4127 60.545 17.9753 60.545L17.9792 60.5469ZM19.0698 58.0839C19.3827 58.0839 19.6588 58.0178 19.8979 57.8856C20.1351 57.7534 20.3217 57.5513 20.4519 57.2752C20.5841 56.9992 20.6502 56.6551 20.6502 56.241V56.1088L19.2972 56.3713C18.8326 56.4587 18.5079 56.5851 18.3194 56.7464C18.1308 56.9097 18.0375 57.0983 18.0375 57.3102C18.0375 57.4599 18.0822 57.5921 18.1697 57.7048C18.2572 57.8176 18.3796 57.9089 18.5371 57.977C18.6946 58.045 18.8715 58.08 19.0736 58.08L19.0698 58.0839Z" fill="#0092B5"></path><path d="M31.0855 60.5469C30.1446 60.5469 29.3028 60.3798 28.5564 60.0493C27.8099 59.7169 27.215 59.2289 26.7699 58.5835C26.3247 57.9381 26.0778 57.1567 26.0273 56.243C26.0156 56.0428 26.0078 55.792 26.0078 55.4907C26.0078 55.1894 26.0136 54.9327 26.0273 54.7189C26.0778 53.7916 26.3227 53.0043 26.7601 52.3589C27.1995 51.7135 27.7943 51.2236 28.5466 50.8932C29.299 50.5607 30.1446 50.3955 31.0855 50.3955C32.0264 50.3955 32.8059 50.5277 33.4649 50.7901C34.1239 51.0526 34.6566 51.3792 35.0628 51.768C35.4711 52.1567 35.7743 52.5455 35.9746 52.9343C36.1748 53.3231 36.2817 53.6497 36.2934 53.9122C36.305 54.0502 36.2584 54.1668 36.1534 54.2601C36.0465 54.3534 35.9299 54.402 35.8054 54.402H32.7787C32.6407 54.402 32.5337 54.3709 32.4599 54.3087C32.3841 54.2465 32.316 54.1513 32.2538 54.0269C32.1274 53.7508 31.9836 53.5467 31.8222 53.4164C31.6589 53.2843 31.4393 53.2182 31.1632 53.2182C30.7744 53.2182 30.4867 53.3523 30.2982 53.6225C30.1096 53.8927 30.0105 54.2893 29.9968 54.8161C29.9716 55.3293 29.9716 55.7745 29.9968 56.1516C30.0221 56.6901 30.1252 57.0886 30.3079 57.3452C30.4887 57.6018 30.7744 57.7301 31.1632 57.7301C31.4762 57.7301 31.7075 57.664 31.8592 57.5318C32.0089 57.3997 32.1411 57.1975 32.2538 56.9214C32.3043 56.797 32.3704 56.6998 32.4521 56.6298C32.5337 56.5618 32.6426 56.5268 32.7806 56.5268H35.8074C35.9318 56.5268 36.0484 56.5773 36.1554 56.6765C36.2623 56.7776 36.3089 56.8962 36.2953 57.0342C36.2837 57.2091 36.2176 57.4444 36.097 57.7398C35.9785 58.0353 35.7957 58.3425 35.5527 58.6613C35.3078 58.9801 34.9851 59.2853 34.5846 59.573C34.1842 59.8607 33.6943 60.0959 33.1169 60.2787C32.5396 60.4595 31.8631 60.5508 31.0855 60.5508V60.5469Z" fill="#0092B5"></path><path d="M38.2321 60.3585C38.094 60.3585 37.9774 60.3119 37.8841 60.2166C37.7908 60.1214 37.7422 60.0067 37.7422 59.8687V51.0683C37.7422 50.9303 37.7888 50.8136 37.8841 50.7203C37.9794 50.627 38.094 50.5784 38.2321 50.5784H41.0158C41.1539 50.5784 41.2724 50.6251 41.3735 50.7203C41.4746 50.8136 41.5232 50.9303 41.5232 51.0683V59.8687C41.5232 60.0067 41.4727 60.1233 41.3735 60.2166C41.2724 60.3099 41.1539 60.3585 41.0158 60.3585H38.2321ZM38.269 49.3576C38.131 49.3576 38.0143 49.3109 37.921 49.2157C37.8277 49.1204 37.7811 49.0057 37.7811 48.8677V46.8926C37.7811 46.7546 37.8277 46.636 37.921 46.5349C38.0143 46.4339 38.131 46.3853 38.269 46.3853H40.977C41.115 46.3853 41.2336 46.4358 41.3347 46.5349C41.4357 46.636 41.4843 46.7546 41.4843 46.8926V48.8677C41.4843 49.0057 41.4338 49.1224 41.3347 49.2157C41.2336 49.309 41.115 49.3576 40.977 49.3576H38.269Z" fill="#0092B5"></path><path d="M48.366 60.5469C47.2618 60.5469 46.3326 60.3836 45.5745 60.059C44.8163 59.7324 44.237 59.2542 43.8346 58.6205C43.4342 57.9867 43.2067 57.2266 43.1581 56.3363C43.1445 56.0738 43.1387 55.7842 43.1387 55.4712C43.1387 55.1582 43.1445 54.8705 43.1581 54.6061C43.2087 53.7041 43.4458 52.9382 43.8735 52.3123C44.2992 51.6863 44.8921 51.21 45.6503 50.8834C46.4084 50.5568 47.3143 50.3936 48.368 50.3936C49.4216 50.3936 50.3255 50.5568 51.0856 50.8834C51.8438 51.21 52.4367 51.6863 52.8624 52.3123C53.2882 52.9402 53.5273 53.7041 53.5778 54.6061C53.6031 54.8686 53.6147 55.1582 53.6147 55.4712C53.6147 55.7842 53.6011 56.0738 53.5778 56.3363C53.5273 57.2266 53.3018 57.9887 52.9013 58.6205C52.5009 59.2542 51.9196 59.7324 51.1615 60.059C50.4033 60.3856 49.4721 60.5469 48.3699 60.5469H48.366ZM48.366 57.8954C48.8287 57.8954 49.1494 57.7573 49.3244 57.4813C49.4994 57.2052 49.6004 56.7912 49.6257 56.241C49.6374 56.0525 49.6452 55.7959 49.6452 55.4693C49.6452 55.1427 49.6393 54.8861 49.6257 54.6975C49.6004 54.159 49.4994 53.7489 49.3244 53.465C49.1494 53.1832 48.8287 53.0412 48.366 53.0412C47.9034 53.0412 47.602 53.1832 47.4251 53.465C47.2502 53.7469 47.1433 54.1571 47.1063 54.6975C47.0927 54.8861 47.0869 55.1427 47.0869 55.4693C47.0869 55.7959 47.0927 56.0525 47.1063 56.241C47.1433 56.7931 47.2502 57.2072 47.4251 57.4813C47.6001 57.7573 47.915 57.8954 48.366 57.8954Z" fill="#0092B5"></path><path d="M55.7184 60.3584C55.5804 60.3584 55.4637 60.3117 55.3704 60.2165C55.2771 60.1212 55.2285 60.0065 55.2285 59.8685V51.0681C55.2285 50.9301 55.2752 50.8134 55.3704 50.7201C55.4657 50.6268 55.5804 50.5782 55.7184 50.5782H58.4458C58.5838 50.5782 58.7005 50.6249 58.7938 50.7201C58.8871 50.8154 58.9337 50.9301 58.9337 51.0681V51.7446C59.2603 51.3694 59.6919 51.0487 60.2304 50.7862C60.7688 50.5238 61.3831 50.3916 62.0732 50.3916C62.7634 50.3916 63.3641 50.5491 63.9161 50.862C64.4682 51.175 64.9134 51.6455 65.2516 52.2714C65.5899 52.8993 65.759 53.6886 65.759 54.6411V59.8685C65.759 60.0065 65.7085 60.1231 65.6093 60.2165C65.5083 60.3098 65.3897 60.3584 65.2516 60.3584H62.2813C62.1432 60.3584 62.0266 60.3117 61.9333 60.2165C61.84 60.1212 61.7933 60.0065 61.7933 59.8685V54.7733C61.7933 54.3107 61.6806 53.953 61.4551 53.7022C61.2296 53.4514 60.9108 53.327 60.4967 53.327C60.0826 53.327 59.756 53.4534 59.5189 53.7022C59.2798 53.953 59.1612 54.3107 59.1612 54.7733V59.8685C59.1612 60.0065 59.1145 60.1231 59.0193 60.2165C58.924 60.3098 58.8093 60.3584 58.6713 60.3584H55.7184Z" fill="#0092B5"></path><path d="M70.6315 60.5469C69.9414 60.5469 69.3252 60.4147 68.7789 60.1523C68.2346 59.8899 67.8069 59.5341 67.4998 59.0889C67.1926 58.6438 67.0391 58.1461 67.0391 57.594C67.0391 56.692 67.4065 55.9805 68.1394 55.4595C68.8722 54.9405 69.8539 54.5789 71.0825 54.3787L73.2637 54.0404V53.9082C73.2637 53.5194 73.2015 53.2279 73.0751 53.0335C72.9487 52.8391 72.6999 52.7419 72.3228 52.7419C72.0603 52.7419 71.8465 52.7924 71.6832 52.8915C71.5199 52.9926 71.3702 53.1365 71.2322 53.3231C71.1059 53.4611 70.9445 53.5292 70.7443 53.5292H68.0927C67.9663 53.5292 67.8633 53.4922 67.7817 53.4164C67.7 53.3406 67.665 53.2415 67.6786 53.1151C67.6903 52.8896 67.7855 52.6233 67.9605 52.3161C68.1355 52.009 68.4096 51.7077 68.7789 51.4141C69.1483 51.1206 69.6284 50.8756 70.2175 50.6812C70.8065 50.4868 71.5141 50.3896 72.3422 50.3896C73.1704 50.3896 73.9032 50.483 74.5039 50.6715C75.1046 50.8601 75.6003 51.1225 75.9891 51.4608C76.3779 51.799 76.6656 52.2092 76.8542 52.6933C77.0428 53.1754 77.1361 53.7119 77.1361 54.3009V59.8665C77.1361 60.0045 77.0894 60.1212 76.9942 60.2145C76.8989 60.3078 76.7842 60.3564 76.6462 60.3564H73.9188C73.7808 60.3564 73.6622 60.3098 73.5611 60.2145C73.46 60.1212 73.4114 60.0045 73.4114 59.8665V59.2658C73.2481 59.5166 73.0323 59.7363 72.7621 59.9248C72.4919 60.1134 72.1789 60.2631 71.8212 60.3758C71.4636 60.4886 71.065 60.545 70.6276 60.545L70.6315 60.5469ZM71.7221 58.0839C72.0351 58.0839 72.3111 58.0178 72.5502 57.8856C72.7874 57.7534 72.974 57.5513 73.1043 57.2752C73.2365 56.9992 73.3026 56.6551 73.3026 56.241V56.1088L71.9495 56.3713C71.4849 56.4587 71.1603 56.5851 70.9717 56.7464C70.7832 56.9097 70.6898 57.0983 70.6898 57.3102C70.6898 57.4599 70.7346 57.5921 70.822 57.7048C70.9095 57.8176 71.032 57.9089 71.1895 57.977C71.3469 58.045 71.5238 58.08 71.726 58.08L71.7221 58.0839Z" fill="#0092B5"></path><path d="M79.4879 60.3585C79.3499 60.3585 79.2333 60.3119 79.14 60.2166C79.0466 60.1214 78.998 60.0067 78.998 59.8687V47.4953C78.998 47.3572 79.0447 47.2406 79.14 47.1473C79.2352 47.054 79.3499 47.0054 79.4879 47.0054H82.2892C82.4136 47.0054 82.5264 47.052 82.6275 47.1473C82.7285 47.2406 82.7771 47.3572 82.7771 47.4953V59.8687C82.7771 60.0067 82.7266 60.1233 82.6275 60.2166C82.5264 60.3099 82.4136 60.3585 82.2892 60.3585H79.4879Z" fill="#0092B5"></path><path d="M27.0355 93.8335C26.9324 93.8335 26.8469 93.7985 26.7827 93.7285C26.7166 93.6585 26.6836 93.5769 26.6836 93.4816V84.3333C26.6836 84.2303 26.7166 84.1467 26.7827 84.0806C26.8488 84.0145 26.9324 83.9814 27.0355 83.9814H33.5089C33.6119 83.9814 33.6955 84.0145 33.7616 84.0806C33.8277 84.1467 33.8607 84.2303 33.8607 84.3333V85.7543C33.8607 85.8574 33.8277 85.9429 33.7616 86.0071C33.6955 86.0732 33.6119 86.1062 33.5089 86.1062H29.1602V88.1746H33.227C33.33 88.1746 33.4136 88.2096 33.4797 88.2796C33.5458 88.3496 33.5789 88.437 33.5789 88.5401V89.9475C33.5789 90.0408 33.5458 90.1244 33.4797 90.1944C33.4136 90.2644 33.33 90.2994 33.227 90.2994H29.1602V93.4797C29.1602 93.573 29.1272 93.6566 29.0611 93.7266C28.995 93.7966 28.9114 93.8316 28.8084 93.8316H27.0355V93.8335Z" fill="#28B2AF"></path><path d="M35.5628 85.459C35.4598 85.459 35.3742 85.4259 35.3101 85.3598C35.244 85.2937 35.2109 85.2102 35.2109 85.1071V83.8397C35.2109 83.7463 35.244 83.6628 35.3101 83.5928C35.3762 83.5228 35.4598 83.4878 35.5628 83.4878H37.2521C37.3454 83.4878 37.429 83.5228 37.499 83.5928C37.569 83.6628 37.604 83.7463 37.604 83.8397V85.1071C37.604 85.2102 37.569 85.2957 37.499 85.3598C37.429 85.4259 37.3454 85.459 37.2521 85.459H35.5628ZM35.5764 93.8336C35.4734 93.8336 35.3878 93.7986 35.3237 93.7286C35.2595 93.6587 35.2245 93.577 35.2245 93.4818V86.8664C35.2245 86.7634 35.2576 86.6798 35.3237 86.6137C35.3898 86.5476 35.4734 86.5146 35.5764 86.5146H37.2366C37.3396 86.5146 37.4251 86.5476 37.4893 86.6137C37.5554 86.6798 37.5884 86.7634 37.5884 86.8664V93.4818C37.5884 93.5751 37.5554 93.6587 37.4893 93.7286C37.4232 93.7986 37.3396 93.8336 37.2366 93.8336H35.5764Z" fill="#28B2AF"></path><path d="M42.263 93.9735C41.6526 93.9735 41.1355 93.9055 40.7078 93.7694C40.2801 93.6333 39.9341 93.4661 39.6658 93.2698C39.3975 93.0735 39.1993 92.8693 39.0671 92.6575C38.9349 92.4456 38.8649 92.2609 38.8552 92.1015C38.8455 91.9984 38.8785 91.9149 38.9543 91.8488C39.0301 91.7827 39.1098 91.7496 39.1934 91.7496H40.7972C40.8244 91.7496 40.8516 91.7554 40.875 91.7632C40.8983 91.7729 40.9236 91.7904 40.9527 91.8196C41.0752 91.8857 41.1957 91.9673 41.3182 92.0665C41.4407 92.1656 41.5806 92.2512 41.74 92.327C41.8994 92.4028 42.0919 92.4397 42.3174 92.4397C42.5798 92.4397 42.7995 92.3853 42.9783 92.2784C43.1572 92.1715 43.2466 92.0179 43.2466 91.8215C43.2466 91.6719 43.2038 91.5474 43.1203 91.4483C43.0367 91.3492 42.8656 91.2539 42.607 91.1606C42.3485 91.0673 41.9616 90.972 41.4465 90.8787C40.9586 90.766 40.5309 90.6182 40.1654 90.4355C39.7999 90.2528 39.5181 90.0136 39.3217 89.7182C39.1254 89.4227 39.0262 89.063 39.0262 88.6412C39.0262 88.266 39.1487 87.9044 39.3917 87.5584C39.6347 87.2104 39.9924 86.9266 40.4609 86.7069C40.9294 86.4873 41.5106 86.3765 42.2066 86.3765C42.7412 86.3765 43.2097 86.4406 43.614 86.567C44.0164 86.6933 44.3547 86.8547 44.6268 87.053C44.899 87.2513 45.1051 87.4515 45.247 87.6575C45.3869 87.8636 45.4627 88.0522 45.4725 88.2213C45.4822 88.3146 45.453 88.3982 45.3889 88.4682C45.3228 88.5382 45.2489 88.5732 45.1634 88.5732H43.6996C43.6626 88.5732 43.6237 88.5654 43.5868 88.5518C43.5499 88.5382 43.5168 88.5207 43.4877 88.5032C43.3749 88.4468 43.2622 88.3729 43.1494 88.2777C43.0367 88.1844 42.9064 88.0988 42.7548 88.025C42.6051 87.9491 42.4165 87.9122 42.191 87.9122C41.9383 87.9122 41.74 87.9686 41.6001 88.0813C41.4601 88.1941 41.3882 88.3399 41.3882 88.5168C41.3882 88.6393 41.4271 88.752 41.5087 88.855C41.5884 88.9581 41.7517 89.0514 42.0005 89.1369C42.2494 89.2205 42.6362 89.3158 43.1611 89.4188C43.8084 89.5218 44.3236 89.689 44.7085 89.9184C45.0934 90.1478 45.3675 90.416 45.5327 90.7213C45.696 91.0265 45.7796 91.3472 45.7796 91.6855C45.7796 92.1365 45.6435 92.535 45.3714 92.881C45.0992 93.229 44.7027 93.4973 44.1817 93.6897C43.6607 93.8822 43.0211 93.9774 42.261 93.9774L42.263 93.9735Z" fill="#28B2AF"></path><path d="M50.3969 93.9735C49.7029 93.9735 49.0886 93.8472 48.554 93.5945C48.0194 93.3417 47.5937 92.9724 47.2807 92.4903C46.9658 92.0082 46.7947 91.4269 46.7675 90.7524C46.7578 90.6027 46.7539 90.4122 46.7539 90.1828C46.7539 89.9534 46.7578 89.7629 46.7675 89.6132C46.7947 88.9289 46.9639 88.3438 47.2749 87.8617C47.584 87.3796 48.0097 87.0102 48.5482 86.7575C49.0867 86.5048 49.7049 86.3784 50.3989 86.3784C51.0462 86.3784 51.6022 86.4698 52.0668 86.6525C52.5314 86.8353 52.9066 87.0627 53.1924 87.3349C53.4781 87.607 53.6939 87.8869 53.8397 88.1727C53.9855 88.4585 54.0633 88.7092 54.071 88.925C54.0807 89.0183 54.0477 89.1 53.9719 89.1719C53.8961 89.2419 53.8125 89.2769 53.7192 89.2769H51.9327C51.8296 89.2769 51.7499 89.2536 51.6936 89.2069C51.6372 89.1602 51.5847 89.0903 51.538 88.995C51.4253 88.7034 51.2814 88.4973 51.1084 88.3749C50.9354 88.2524 50.7118 88.1921 50.4397 88.1921C50.0645 88.1921 49.7748 88.3146 49.5746 88.5576C49.3724 88.8026 49.2616 89.1777 49.2441 89.6832C49.2344 90.0584 49.2344 90.3927 49.2441 90.6824C49.2714 91.1975 49.3841 91.5747 49.5824 91.8079C49.7787 92.0432 50.0645 92.1598 50.4416 92.1598C50.7332 92.1598 50.9626 92.0956 51.1317 91.9693C51.3009 91.8429 51.4369 91.6388 51.54 91.3569C51.5866 91.2636 51.6391 91.1936 51.6955 91.145C51.7519 91.0964 51.8316 91.0751 51.9346 91.0751H53.7211C53.8144 91.0751 53.9 91.1081 53.9738 91.1742C54.0496 91.2403 54.0807 91.3239 54.073 91.4269C54.0633 91.5766 54.0166 91.7593 53.933 91.9751C53.8494 92.1909 53.7172 92.4164 53.5384 92.6516C53.3595 92.8868 53.1282 93.1026 52.8424 93.299C52.5567 93.4953 52.2106 93.6586 51.8082 93.785C51.4039 93.9113 50.9354 93.9755 50.4008 93.9755L50.3969 93.9735Z" fill="#28B2AF"></path><path d="M57.5324 93.9735C57.025 93.9735 56.5721 93.8763 56.1736 93.6858C55.775 93.4933 55.4582 93.2329 55.223 92.9043C54.9877 92.5758 54.8711 92.2045 54.8711 91.7924C54.8711 91.1256 55.1432 90.5988 55.6876 90.21C56.2319 89.8212 56.955 89.5549 57.8551 89.4149L59.6144 89.1466V88.9503C59.6144 88.612 59.5444 88.3554 59.4025 88.1766C59.2625 87.9977 59.004 87.9083 58.6288 87.9083C58.3664 87.9083 58.1525 87.9608 57.9892 88.0638C57.824 88.1669 57.6957 88.3088 57.6024 88.4857C57.5188 88.6081 57.4002 88.6684 57.2505 88.6684H55.674C55.5709 88.6684 55.4912 88.6373 55.4348 88.577C55.3785 88.5168 55.3551 88.4429 55.3649 88.3593C55.3649 88.1902 55.429 87.9958 55.5554 87.7761C55.6817 87.5564 55.8761 87.3368 56.1386 87.121C56.401 86.9052 56.7392 86.7264 57.1514 86.5864C57.5635 86.4464 58.067 86.3745 58.658 86.3745C59.2489 86.3745 59.7738 86.4445 60.2054 86.5864C60.6369 86.7264 60.9888 86.9247 61.2609 87.1774C61.5331 87.4301 61.7333 87.7295 61.8597 88.0716C61.986 88.4137 62.0502 88.7909 62.0502 89.2049V93.4836C62.0502 93.5769 62.0152 93.6605 61.9452 93.7305C61.8752 93.8005 61.7936 93.8355 61.6983 93.8355H60.0654C59.9624 93.8355 59.8768 93.8005 59.8127 93.7305C59.7466 93.6605 59.7135 93.5789 59.7135 93.4836V92.9918C59.5911 93.1706 59.4278 93.3339 59.2217 93.4836C59.0156 93.6333 58.7727 93.7538 58.4966 93.8433C58.2206 93.9327 57.8979 93.9774 57.5324 93.9774V93.9735ZM58.1933 92.3697C58.4655 92.3697 58.7124 92.3114 58.9321 92.1928C59.1517 92.0762 59.3267 91.8935 59.453 91.6446C59.5794 91.3958 59.6435 91.0848 59.6435 90.7096V90.5132L58.448 90.7251C58.0067 90.8009 57.686 90.9156 57.4838 91.0692C57.2816 91.2247 57.1805 91.4055 57.1805 91.6116C57.1805 91.771 57.2272 91.9071 57.3205 92.0198C57.4138 92.1326 57.5382 92.22 57.6937 92.2803C57.8493 92.3406 58.0145 92.3717 58.1933 92.3717V92.3697Z" fill="#28B2AF"></path><path d="M63.9925 93.8338C63.8895 93.8338 63.8039 93.7988 63.7398 93.7288C63.6756 93.6589 63.6406 93.5772 63.6406 93.482V84.1937C63.6406 84.0906 63.6737 84.0051 63.7398 83.9409C63.8059 83.8748 63.8895 83.8418 63.9925 83.8418H65.6526C65.7557 83.8418 65.8412 83.8748 65.9054 83.9409C65.9714 84.007 66.0045 84.0906 66.0045 84.1937V93.482C66.0045 93.5753 65.9714 93.6589 65.9054 93.7288C65.8393 93.7988 65.7557 93.8338 65.6526 93.8338H63.9925Z" fill="#28B2AF"></path><path d="M71.0433 93.9735C69.9352 93.9735 69.0546 93.6741 68.3975 93.0734C67.7404 92.4728 67.3983 91.5824 67.3711 90.4005V89.9087C67.3983 89.168 67.5655 88.5323 67.8707 88.0016C68.1759 87.4709 68.5977 87.0685 69.1382 86.7905C69.6766 86.5145 70.3084 86.3745 71.0316 86.3745C71.8578 86.3745 72.5401 86.5397 73.0786 86.8663C73.6171 87.1949 74.0234 87.64 74.2955 88.2038C74.5677 88.7675 74.7038 89.4091 74.7038 90.1322V90.4705C74.7038 90.5735 74.6707 90.659 74.6046 90.7232C74.5385 90.7893 74.4549 90.8223 74.3519 90.8223H69.8477V90.9215C69.8574 91.1936 69.906 91.4425 69.9955 91.668C70.0849 91.8935 70.2151 92.0723 70.3901 92.2025C70.5631 92.3347 70.7769 92.3989 71.0297 92.3989C71.2163 92.3989 71.3737 92.3678 71.502 92.3075C71.6284 92.2473 71.7334 92.1773 71.8189 92.0956C71.9025 92.0159 71.9686 91.9479 72.0153 91.8915C72.0988 91.7885 72.1669 91.7243 72.2194 91.701C72.2719 91.6777 72.3535 91.666 72.4662 91.666H74.2119C74.3053 91.666 74.383 91.6932 74.4433 91.7496C74.5035 91.806 74.5308 91.8818 74.521 91.9751C74.5113 92.1345 74.4316 92.327 74.2819 92.5525C74.1322 92.778 73.9145 93.0015 73.6268 93.2212C73.341 93.4409 72.9814 93.6216 72.5498 93.7636C72.1183 93.9035 71.6167 93.9755 71.0433 93.9755V93.9735ZM69.8477 89.4285H72.2271V89.4013C72.2271 89.0922 72.1824 88.8259 72.093 88.6062C72.0036 88.3865 71.8675 88.2155 71.6848 88.093C71.502 87.9705 71.2843 87.9103 71.0297 87.9103C70.775 87.9103 70.5748 87.9705 70.3959 88.093C70.2171 88.2155 70.081 88.3865 69.9877 88.6062C69.8944 88.8259 69.8477 89.0922 69.8477 89.4013V89.4285Z" fill="#28B2AF"></path><path d="M79.0364 93.9735C78.426 93.9735 77.9089 93.9055 77.4812 93.7694C77.0535 93.6333 76.7075 93.4661 76.4392 93.2698C76.171 93.0735 75.9727 92.8693 75.8405 92.6575C75.7083 92.4456 75.6383 92.2609 75.6286 92.1015C75.6189 91.9984 75.6519 91.9149 75.7277 91.8488C75.8036 91.7827 75.8833 91.7496 75.9669 91.7496H77.5706C77.5979 91.7496 77.6251 91.7554 77.6484 91.7632C77.6717 91.7729 77.697 91.7904 77.7262 91.8196C77.8486 91.8857 77.9692 91.9673 78.0916 92.0665C78.2141 92.1656 78.3541 92.2512 78.5135 92.327C78.6729 92.4028 78.8653 92.4397 79.0908 92.4397C79.3533 92.4397 79.5729 92.3853 79.7518 92.2784C79.9306 92.1715 80.02 92.0179 80.02 91.8215C80.02 91.6719 79.9773 91.5474 79.8937 91.4483C79.8101 91.3492 79.639 91.2539 79.3805 91.1606C79.1219 91.0673 78.7351 90.972 78.2199 90.8787C77.732 90.766 77.3043 90.6182 76.9388 90.4355C76.5734 90.2528 76.2915 90.0136 76.0952 89.7182C75.8988 89.4227 75.7997 89.063 75.7997 88.6412C75.7997 88.266 75.9221 87.9044 76.1651 87.5584C76.4081 87.2104 76.7658 86.9266 77.2343 86.7069C77.7028 86.4873 78.2841 86.3765 78.98 86.3765C79.5146 86.3765 79.9831 86.4406 80.3875 86.567C80.7899 86.6933 81.1281 86.8547 81.4003 87.053C81.6724 87.2513 81.8785 87.4515 82.0204 87.6575C82.1604 87.8636 82.2362 88.0522 82.2459 88.2213C82.2556 88.3146 82.2265 88.3982 82.1623 88.4682C82.0962 88.5382 82.0223 88.5732 81.9368 88.5732H80.473C80.4361 88.5732 80.3972 88.5654 80.3602 88.5518C80.3233 88.5382 80.2903 88.5207 80.2611 88.5032C80.1483 88.4468 80.0356 88.3729 79.9228 88.2777C79.8101 88.1844 79.6799 88.0988 79.5282 88.025C79.3785 87.9491 79.19 87.9122 78.9645 87.9122C78.7118 87.9122 78.5135 87.9686 78.3735 88.0813C78.2335 88.1941 78.1616 88.3399 78.1616 88.5168C78.1616 88.6393 78.2005 88.752 78.2821 88.855C78.3618 88.9581 78.5251 89.0514 78.774 89.1369C79.0228 89.2205 79.4096 89.3158 79.9345 89.4188C80.5819 89.5218 81.097 89.689 81.4819 89.9184C81.8668 90.1478 82.1409 90.416 82.3062 90.7213C82.4695 91.0265 82.553 91.3472 82.553 91.6855C82.553 92.1365 82.417 92.535 82.1448 92.881C81.8727 93.229 81.4761 93.4973 80.9551 93.6897C80.4341 93.8822 79.7945 93.9774 79.0345 93.9774L79.0364 93.9735Z" fill="#28B2AF"></path><path d="M81.8024 26.8016L60.6345 1.6757C58.3989 -0.559869 54.7754 -0.559869 52.5398 1.6757L32.3613 26.8016H81.8024Z" fill="#ACCE80"></path><path d="M52.136 26.8016L31.4638 1.6757C29.2283 -0.559869 25.6047 -0.559869 23.3691 1.6757L2.20117 26.8016H52.136Z" fill="#76B641"></path><path d="M2.20117 26.8016L12.026 15.1396L22.8637 26.8016H2.20117Z" fill="#28B2AF"></path><path d="M61.1152 26.8016L70.9401 15.1396L81.7777 26.8016H61.1152Z" fill="#28B2AF"></path><path d="M3.23293 25.9676C3.0502 25.9676 2.88496 25.8996 2.73528 25.7615C2.58559 25.6235 2.51172 25.4641 2.51172 25.2814C2.51172 25.19 2.52921 25.1045 2.56226 25.0248C2.59725 24.9451 2.62447 24.8829 2.6478 24.8362L10.4976 13.7633L3.02687 3.10063C2.95883 2.96261 2.92384 2.81487 2.92384 2.65546C2.92384 2.47273 2.99188 2.31332 3.1299 2.1753C3.26598 2.03728 3.42733 1.96924 3.61006 1.96924H5.66679C5.89423 1.96924 6.07891 2.01978 6.21499 2.12281C6.35107 2.22584 6.47743 2.3697 6.59212 2.55049L12.6262 11.1215L18.6253 2.55049C18.7167 2.36775 18.8372 2.2239 18.985 2.12281C19.1327 2.01978 19.3115 1.96924 19.5157 1.96924H21.4694C21.6521 1.96924 21.8115 2.03728 21.9495 2.1753C22.0856 2.31332 22.1556 2.47273 22.1556 2.65546C22.1556 2.81487 22.1089 2.96455 22.0176 3.10063L14.648 13.7964L22.4647 24.8343C22.5094 24.8809 22.5444 24.9431 22.5677 25.0228C22.591 25.1025 22.6027 25.1881 22.6027 25.2794C22.6027 25.4622 22.5347 25.6216 22.3966 25.7596C22.2586 25.8976 22.0875 25.9657 21.8815 25.9657H19.7898C19.5837 25.9657 19.4068 25.9093 19.2591 25.7946C19.1094 25.6799 18.9791 25.5438 18.8644 25.3825L12.4882 16.5043L6.14695 25.3825C6.03226 25.5419 5.90784 25.6799 5.76982 25.7946C5.6318 25.9093 5.46073 25.9657 5.25467 25.9657H3.23099L3.23293 25.9676Z" fill="#0092B5"></path><path d="M32.6763 25.9676C32.4936 25.9676 32.3283 25.8996 32.1786 25.7616C32.0289 25.6235 31.9551 25.4641 31.9551 25.2814C31.9551 25.19 31.9726 25.1045 32.0056 25.0248C32.0406 24.9451 32.0678 24.8829 32.0912 24.8362L39.9409 13.7633L32.4683 3.10258C32.4002 2.96456 32.3653 2.81682 32.3653 2.65741C32.3653 2.47468 32.4333 2.31527 32.5713 2.17725C32.7074 2.03923 32.8687 1.97119 33.0515 1.97119H35.1082C35.3357 1.97119 35.5203 2.02173 35.6564 2.12477C35.7925 2.2278 35.9188 2.37165 36.0335 2.55244L42.0676 11.1234L48.0667 2.55244C48.1581 2.36971 48.2786 2.22585 48.4264 2.12477C48.5741 2.02173 48.753 1.97119 48.9571 1.97119H50.9108C51.0935 1.97119 51.2529 2.03923 51.3909 2.17725C51.527 2.31527 51.597 2.47468 51.597 2.65741C51.597 2.81682 51.5503 2.96651 51.459 3.10258L44.0894 13.7983L51.9061 24.8362C51.9508 24.8829 51.9858 24.9451 52.0091 25.0248C52.0324 25.1045 52.0441 25.19 52.0441 25.2814C52.0441 25.4641 51.9761 25.6235 51.8381 25.7616C51.7 25.8996 51.529 25.9676 51.3229 25.9676H49.2312C49.0251 25.9676 48.8482 25.9112 48.7005 25.7965C48.5508 25.6819 48.4205 25.5458 48.3059 25.3844L41.9296 16.5063L35.5884 25.3844C35.4737 25.5438 35.3493 25.6819 35.2112 25.7965C35.0732 25.9112 34.9021 25.9676 34.6961 25.9676H32.6724H32.6763Z" fill="#0092B5"></path><path d="M62.1216 25.9676C61.9389 25.9676 61.7736 25.8996 61.6239 25.7616C61.4743 25.6235 61.4004 25.4641 61.4004 25.2814C61.4004 25.19 61.4179 25.1045 61.4509 25.0248C61.4859 24.9451 61.5131 24.8829 61.5365 24.8362L69.3862 13.7633L61.9136 3.10258C61.8456 2.96456 61.8106 2.81682 61.8106 2.65741C61.8106 2.47468 61.8786 2.31527 62.0166 2.17725C62.1527 2.03923 62.3141 1.97119 62.4968 1.97119H64.5535C64.781 1.97119 64.9656 2.02173 65.1017 2.12477C65.2378 2.2278 65.3642 2.37165 65.4788 2.55244L71.5129 11.1234L77.5121 2.55244C77.6034 2.36971 77.7239 2.22585 77.8717 2.12477C78.0194 2.02173 78.1983 1.97119 78.4024 1.97119H80.3561C80.5388 1.97119 80.6982 2.03923 80.8362 2.17725C80.9723 2.31527 81.0423 2.47468 81.0423 2.65741C81.0423 2.81682 80.9957 2.96651 80.9043 3.10258L73.5347 13.7983L81.3514 24.8362C81.3961 24.8829 81.4311 24.9451 81.4544 25.0248C81.4778 25.1045 81.4894 25.19 81.4894 25.2814C81.4894 25.4641 81.4214 25.6235 81.2834 25.7616C81.1453 25.8996 80.9743 25.9676 80.7682 25.9676H78.6765C78.4704 25.9676 78.2935 25.9112 78.1458 25.7965C77.9961 25.6819 77.8659 25.5458 77.7512 25.3844L71.3749 16.5063L65.0337 25.3844C64.919 25.5438 64.7946 25.6819 64.6565 25.7965C64.5185 25.9112 64.3475 25.9676 64.1414 25.9676H62.1177H62.1216Z" fill="#0092B5"></path><path d="M83.9547 63.7915H0.0488281V64.6818H83.9547V63.7915Z" fill="#6C3811"></path><path d="M17.079 95.6221L19.1512 99.9999H18.4708L15.5957 95.6823L17.079 95.6221Z" fill="#6C3811"></path><mask id="mask0_2260_16168" style="mask-type:luminance" maskUnits="userSpaceOnUse" x="15" y="95" width="5" height="5"><path d="M17.079 95.6221L19.1512 99.9999H18.4708L15.5957 95.6823L17.079 95.6221Z" fill="white"></path></mask><g mask="url(#mask0_2260_16168)"><path d="M19.1512 95.6221H15.5957V99.9999H19.1512V95.6221Z" fill="#6C3811"></path></g><path d="M19.0653 95.6221L21.1376 99.9999H20.4572L17.582 95.6823L19.0653 95.6221Z" fill="#6C3811"></path><mask id="mask1_2260_16168" style="mask-type:luminance" maskUnits="userSpaceOnUse" x="17" y="95" width="5" height="5"><path d="M19.0653 95.6221L21.1376 99.9999H20.4572L17.582 95.6823L19.0653 95.6221Z" fill="white"></path></mask><g mask="url(#mask1_2260_16168)"><path d="M21.1376 95.6221H17.582V99.9999H21.1376V95.6221Z" fill="#6C3811"></path></g><mask id="mask2_2260_16168" style="mask-type:luminance" maskUnits="userSpaceOnUse" x="22" y="81" width="5" height="3"><path d="M22.6269 82.7295C22.6269 82.7295 23.7175 83.4196 24.2968 82.9706C24.9597 82.3077 26.373 81.7828 26.373 81.7828C25.5915 81.3163 24.1452 81.4212 24.1452 81.4212C24.1452 81.4212 24.2346 82.0083 23.1965 82.4593L22.625 82.7295H22.6269Z" fill="white"></path></mask><g mask="url(#mask2_2260_16168)"><path d="M26.373 81.3164H22.627V83.4217H26.373V81.3164Z" fill="#F3A221"></path></g><path fill-rule="evenodd" clip-rule="evenodd" d="M23.1973 82.4595C24.2354 82.0085 24.146 81.4215 24.146 81.4215C18.6698 77.6599 14.2745 85.2725 14.2745 85.2725C20.2211 82.411 18.1585 93.0251 9.92578 92.887C13.1819 99.6657 26.4729 96.2151 23.798 85.4688C23.5278 84.6718 24.2937 82.9708 24.2937 82.9708C23.7144 83.4199 22.6238 82.7298 22.6238 82.7298L23.1954 82.4595H23.1973Z" fill="#6B360E"></path><path fill-rule="evenodd" clip-rule="evenodd" d="M26.3749 81.7832C26.3749 81.7832 24.3241 82.3917 22.6289 82.7319C22.6289 82.7319 23.7195 83.422 24.2988 82.9729C24.9617 82.31 26.3749 81.7851 26.3749 81.7851" fill="#DB8E1C"></path><path d="M24.1469 81.4175C24.1469 81.4175 24.2285 81.7908 23.6395 82.2145C23.6395 82.2145 23.0835 82.545 22.6267 82.7277C22.6267 82.7277 21.0696 82.1465 19.32 82.5683C19.32 82.5683 17.1467 82.9241 14.2773 85.2724C14.2773 85.2724 18.6455 77.5976 24.1488 81.4175H24.1469Z" fill="#FFE71E"></path><path d="M14.2753 85.2957C14.2753 85.2957 14.2656 85.2957 14.2617 85.2899C14.2539 85.2821 14.252 85.2704 14.2559 85.2626C14.2792 85.2218 16.5945 81.2114 19.9264 80.4552C21.3611 80.1286 22.786 80.4474 24.1585 81.4C24.1623 81.4039 24.1662 81.4077 24.1682 81.4136C24.1721 81.4291 24.2459 81.8063 23.653 82.2339C23.6452 82.2378 23.0893 82.5683 22.6363 82.7491C22.6305 82.751 22.6266 82.751 22.6208 82.7491C22.6052 82.7433 21.05 82.1756 19.3257 82.5897C19.3024 82.5936 17.1213 82.9726 14.2908 85.2899C14.287 85.2937 14.2811 85.2957 14.2772 85.2957H14.2753ZM21.0131 80.3755C20.6554 80.3755 20.2958 80.4163 19.9342 80.498C16.9308 81.1803 14.7535 84.5298 14.3569 85.1771C17.1504 82.9221 19.2907 82.5508 19.3121 82.5469C20.982 82.1426 22.4983 82.6597 22.6227 82.7044C23.0718 82.5255 23.618 82.2009 23.6239 82.197C24.1429 81.8237 24.1293 81.4874 24.1215 81.4311C23.1068 80.7293 22.0648 80.3755 21.0112 80.3755H21.0131Z" fill="#FFE71E"></path><path fill-rule="evenodd" clip-rule="evenodd" d="M9.92773 92.887L17.6861 86.4952C17.6861 86.4952 18.6601 91.1043 14.152 93.406C14.152 93.406 22.0659 94.1136 23.7999 85.4688C23.7999 85.4688 25.6078 91.6214 20.6993 94.8951C20.6993 94.8951 18.0186 97.051 14.0626 96.1567C14.0626 96.1567 11.1077 95.6435 9.92773 92.8889V92.887Z" fill="#0092B5"></path><mask id="mask3_2260_16168" style="mask-type:luminance" maskUnits="userSpaceOnUse" x="6" y="84" width="12" height="9"><path d="M9.9287 92.8871C18.1614 93.0251 20.224 82.413 14.2774 85.2726C9.22109 88.4315 6.81445 92.856 6.81445 92.856L9.9287 92.8852V92.8871Z" fill="white"></path></mask><g mask="url(#mask3_2260_16168)"><path d="M19.7474 82.2554H6.33789V92.8675H19.7474V82.2554Z" fill="#28B2AF"></path></g><path fill-rule="evenodd" clip-rule="evenodd" d="M9.9287 92.8871L6.81445 92.8579L1.83398 95.7175C3.57967 96.5592 5.24566 95.9313 5.24566 95.9313L9.9287 92.889V92.8871Z" fill="#229E98"></path><mask id="mask4_2260_16168" style="mask-type:luminance" maskUnits="userSpaceOnUse" x="1" y="92" width="9" height="5"><path d="M9.9287 92.8871L6.81445 92.8579L1.83398 95.7175C3.57967 96.5592 5.24566 95.9313 5.24566 95.9313L9.9287 92.889V92.8871Z" fill="white"></path></mask><g mask="url(#mask4_2260_16168)"><path d="M9.92674 92.8579H1.83203V96.5592H9.92674V92.8579Z" fill="#229E98"></path></g></g><defs><clipPath id="clip0_2260_16168"><rect width="83.9058" height="100" fill="white" transform="translate(0.0488281)"></rect></clipPath></defs></svg>