<svg xmlns="http://www.w3.org/2000/svg" width="25" height="25" viewBox="0 0 25 25" fill="none"><path d="M10.9883 15.75L16.1783 12.75L10.9883 9.75V15.75ZM22.5483 7.92C22.6783 8.39 22.7683 9.02 22.8283 9.82C22.8983 10.62 22.9283 11.31 22.9283 11.91L22.9883 12.75C22.9883 14.94 22.8283 16.55 22.5483 17.58C22.2983 18.48 21.7183 19.06 20.8183 19.31C20.3483 19.44 19.4883 19.53 18.1683 19.59C16.8683 19.66 15.6783 19.69 14.5783 19.69L12.9883 19.75C8.79828 19.75 6.18828 19.59 5.15828 19.31C4.25828 19.06 3.67828 18.48 3.42828 17.58C3.29828 17.11 3.20828 16.48 3.14828 15.68C3.07828 14.88 3.04828 14.19 3.04828 13.59L2.98828 12.75C2.98828 10.56 3.14828 8.95 3.42828 7.92C3.67828 7.02 4.25828 6.44 5.15828 6.19C5.62828 6.06 6.48828 5.97 7.80828 5.91C9.10828 5.84 10.2983 5.81 11.3983 5.81L12.9883 5.75C17.1783 5.75 19.7883 5.91 20.8183 6.19C21.7183 6.44 22.2983 7.02 22.5483 7.92Z" fill="#656572"></path></svg>