<svg xmlns="http://www.w3.org/2000/svg" width="367" height="44" viewBox="0 0 367 44" fill="none"><path d="M16.0793 33.16V32.16H15.0793V33.16H16.0793ZM16.0793 43V44H17.0793V43H16.0793ZM0.479294 43H-0.520706V44H0.479294V43ZM0.479294 0.999997V-2.86102e-06H-0.520706V0.999997H0.479294ZM16.0793 14.2V13.2H15.0793V14.2H16.0793ZM16.0793 19.96H15.0793V20.96H16.0793V19.96ZM33.4793 2C38.0072 2 41.7638 3.59029 44.3869 6.2343C47.0112 8.8795 48.5593 12.6381 48.5593 17.08H50.5593C50.5593 12.1619 48.8374 7.8805 45.8067 4.8257C42.7748 1.76971 38.4913 -2.86102e-06 33.4793 -2.86102e-06V2ZM48.5593 17.08C48.5593 21.5219 47.0112 25.2805 44.3869 27.9257C41.7638 30.5697 38.0072 32.16 33.4793 32.16V34.16C38.4913 34.16 42.7748 32.3903 45.8067 29.3343C48.8374 26.2795 50.5593 21.9981 50.5593 17.08H48.5593ZM33.4793 32.16H16.0793V34.16H33.4793V32.16ZM15.0793 33.16V43H17.0793V33.16H15.0793ZM16.0793 42H0.479294V44H16.0793V42ZM1.47929 43V0.999997H-0.520706V43H1.47929ZM0.479294 2H33.4793V-2.86102e-06H0.479294V2ZM30.4793 20.96C31.1931 20.96 32.3372 20.9824 33.2749 20.4824C33.7832 20.2112 34.225 19.7954 34.5277 19.1955C34.8225 18.6113 34.9593 17.9053 34.9593 17.08H32.9593C32.9593 17.6947 32.8561 18.0687 32.7422 18.2945C32.6361 18.5046 32.5004 18.6288 32.3337 18.7176C31.9214 18.9376 31.3255 18.96 30.4793 18.96V20.96ZM34.9593 17.08C34.9593 16.2547 34.8225 15.5487 34.5277 14.9645C34.225 14.3646 33.7832 13.9488 33.2749 13.6776C32.3372 13.1776 31.1931 13.2 30.4793 13.2V15.2C31.3255 15.2 31.9214 15.2224 32.3337 15.4424C32.5004 15.5312 32.6361 15.6554 32.7422 15.8655C32.8561 16.0913 32.9593 16.4653 32.9593 17.08H34.9593ZM30.4793 13.2H16.0793V15.2H30.4793V13.2ZM15.0793 14.2V19.96H17.0793V14.2H15.0793ZM16.0793 20.96H30.4793V18.96H16.0793V20.96ZM77.1387 42.6C67.9922 42.6 61.6755 40.8567 57.6499 37.4927C53.6647 34.1624 51.7387 29.0821 51.7387 21.94H49.7387C49.7387 29.4379 51.7726 35.1876 56.3674 39.0273C60.9218 42.8333 67.8051 44.6 77.1387 44.6V42.6ZM51.7387 21.94C51.7387 14.8292 53.6639 9.77994 57.6475 6.47182C61.6731 3.12889 67.9907 1.4 77.1387 1.4V-0.600002C67.8067 -0.600002 60.9242 1.1511 56.3698 4.93318C51.7735 8.75006 49.7387 14.4708 49.7387 21.94H51.7387ZM77.1387 1.4C86.2541 1.4 92.5729 3.14289 96.6072 6.49421C100.6 9.81136 102.539 14.8625 102.539 21.94H104.539C104.539 14.4975 102.487 8.77864 97.8852 4.95579C93.3244 1.1671 86.4432 -0.600002 77.1387 -0.600002V1.4ZM102.539 21.94C102.539 29.0489 100.599 34.1309 96.6048 37.4703C92.5706 40.8427 86.2525 42.6 77.1387 42.6V44.6C86.4448 44.6 93.3268 42.8173 97.8875 39.0047C102.488 35.1591 104.539 29.4111 104.539 21.94H102.539ZM77.1387 31.4C81.844 31.4 84.8651 30.3741 86.69 28.5404C88.5218 26.6997 88.9387 24.2545 88.9387 21.94H86.9387C86.9387 24.0655 86.5455 25.8503 85.2724 27.1296C83.9923 28.4159 81.6134 29.4 77.1387 29.4V31.4ZM88.9387 21.94C88.9387 19.6591 88.5383 17.2391 86.7091 15.4187C84.8899 13.6083 81.8683 12.6 77.1387 12.6V14.6C81.649 14.6 84.0275 15.5717 85.2983 16.8363C86.559 18.0909 86.9387 19.8409 86.9387 21.94H88.9387ZM77.1387 12.6C72.413 12.6 69.3905 13.5916 67.57 15.3945C65.7379 17.2088 65.3387 19.6319 65.3387 21.94H67.3387C67.3387 19.8081 67.7195 18.0612 68.9773 16.8155C70.2468 15.5584 72.6244 14.6 77.1387 14.6V12.6ZM65.3387 21.94C65.3387 24.2818 65.7544 26.7299 67.5891 28.5646C69.4153 30.3909 72.4373 31.4 77.1387 31.4V29.4C72.66 29.4 70.282 28.4291 69.0033 27.1504C67.7329 25.8801 67.3387 24.0982 67.3387 21.94H65.3387ZM105.362 43H104.362V44H105.362V43ZM105.362 0.999997V-2.86102e-06H104.362V0.999997H105.362ZM120.962 14.2V13.2H119.962V14.2H120.962ZM120.962 29.8H119.962V30.8H120.962V29.8ZM136.562 2C141.416 2 146.077 3.60769 149.516 6.87048C152.943 10.1213 155.242 15.0952 155.242 22H157.242C157.242 14.6248 154.771 9.09867 150.893 5.41952C147.027 1.75231 141.848 -2.86102e-06 136.562 -2.86102e-06V2ZM155.242 22C155.242 28.9048 152.943 33.8787 149.516 37.1295C146.077 40.3923 141.416 42 136.562 42V44C141.848 44 147.027 42.2477 150.893 38.5805C154.771 34.9013 157.242 29.3752 157.242 22H155.242ZM136.562 42H105.362V44H136.562V42ZM106.362 43V0.999997H104.362V43H106.362ZM105.362 2H136.562V-2.86102e-06H105.362V2ZM131.762 30.8C133.393 30.8 135.878 30.8203 137.938 29.7043C139.001 29.1289 139.946 28.2578 140.614 26.9705C141.277 25.6951 141.642 24.0642 141.642 22H139.642C139.642 23.8358 139.317 25.1299 138.84 26.0483C138.369 26.9547 137.724 27.5461 136.986 27.9457C135.446 28.7797 133.491 28.8 131.762 28.8V30.8ZM141.642 22C141.642 19.9358 141.277 18.3049 140.614 17.0295C139.946 15.7422 139.001 14.8711 137.938 14.2957C135.878 13.1797 133.393 13.2 131.762 13.2V15.2C133.491 15.2 135.446 15.2203 136.986 16.0543C137.724 16.4539 138.369 17.0453 138.84 17.9517C139.317 18.8701 139.642 20.1642 139.642 22H141.642ZM131.762 13.2H120.962V15.2H131.762V13.2ZM119.962 14.2V29.8H121.962V14.2H119.962ZM120.962 30.8H131.762V28.8H120.962V30.8ZM210.058 19.54V20.54H211.109L211.057 19.4903L210.058 19.54ZM194.098 19.54L193.109 19.6898L193.238 20.54H194.098V19.54ZM194.098 24.34V23.34H193.236L193.109 24.1924L194.098 24.34ZM210.058 24.34L211.057 24.3895L211.109 23.34H210.058V24.34ZM158.438 21.94C158.438 14.8292 160.363 9.77994 164.347 6.47182C168.372 3.12889 174.69 1.4 183.838 1.4V-0.600002C174.506 -0.600002 167.623 1.1511 163.069 4.93318C158.473 8.75006 156.438 14.4708 156.438 21.94H158.438ZM183.838 1.4C192.15 1.4 198.293 2.86007 202.419 5.81085C206.489 8.72257 208.741 13.1923 209.059 19.5897L211.057 19.4903C210.715 12.6277 208.256 7.52742 203.582 4.18414C198.963 0.879925 192.325 -0.600002 183.838 -0.600002V1.4ZM210.058 18.54H194.098V20.54H210.058V18.54ZM195.087 19.3902C194.747 17.1497 193.681 15.3861 191.729 14.2255C189.838 13.101 187.211 12.6 183.838 12.6V14.6C187.065 14.6 189.268 15.089 190.707 15.9445C192.085 16.7639 192.849 17.9703 193.109 19.6898L195.087 19.3902ZM183.838 12.6C179.112 12.6 176.09 13.5916 174.269 15.3945C172.437 17.2088 172.038 19.6319 172.038 21.94H174.038C174.038 19.8081 174.419 18.0612 175.677 16.8155C176.946 15.5584 179.324 14.6 183.838 14.6V12.6ZM172.038 21.94C172.038 24.2818 172.454 26.7299 174.288 28.5646C176.115 30.3909 179.137 31.4 183.838 31.4V29.4C179.359 29.4 176.981 28.4291 175.702 27.1504C174.432 25.8801 174.038 24.0982 174.038 21.94H172.038ZM183.838 31.4C187.215 31.4 189.845 30.8829 191.737 29.7319C193.688 28.5457 194.749 26.7519 195.087 24.4876L193.109 24.1924C192.847 25.9481 192.078 27.1843 190.698 28.0231C189.261 28.8971 187.061 29.4 183.838 29.4V31.4ZM194.098 25.34H210.058V23.34H194.098V25.34ZM209.059 24.2905C208.74 30.7219 206.501 35.2216 202.438 38.1541C198.321 41.1252 192.18 42.6 183.838 42.6V44.6C192.356 44.6 198.995 43.1048 203.608 39.7759C208.274 36.4084 210.715 31.2781 211.057 24.3895L209.059 24.2905ZM183.838 42.6C174.691 42.6 168.375 40.8567 164.349 37.4927C160.364 34.1624 158.438 29.0821 158.438 21.94H156.438C156.438 29.4379 158.472 35.1876 163.067 39.0273C167.621 42.8333 174.504 44.6 183.838 44.6V42.6ZM246.695 43L245.76 43.356L246.006 44H246.695V43ZM243.815 35.44L244.749 35.084L244.504 34.44H243.815V35.44ZM225.935 35.44V34.44H225.246L225 35.084L225.935 35.44ZM223.055 43V44H223.744L223.989 43.356L223.055 43ZM205.895 43L204.971 42.6173L204.398 44H205.895V43ZM223.295 0.999997V-2.86102e-06H222.627L222.371 0.617257L223.295 0.999997ZM246.455 0.999997L247.379 0.617257L247.123 -2.86102e-06H246.455V0.999997ZM263.855 43V44H265.352L264.779 42.6173L263.855 43ZM230.015 24.64L229.08 24.286L228.567 25.64H230.015V24.64ZM239.735 24.64V25.64H241.183L240.67 24.286L239.735 24.64ZM234.875 11.8L235.81 11.446L234.875 8.9751L233.94 11.446L234.875 11.8ZM247.629 42.644L244.749 35.084L242.88 35.796L245.76 43.356L247.629 42.644ZM243.815 34.44H225.935V36.44H243.815V34.44ZM225 35.084L222.12 42.644L223.989 43.356L226.869 35.796L225 35.084ZM223.055 42H205.895V44H223.055V42ZM206.819 43.3827L224.219 1.38274L222.371 0.617257L204.971 42.6173L206.819 43.3827ZM223.295 2H246.455V-2.86102e-06H223.295V2ZM245.531 1.38274L262.931 43.3827L264.779 42.6173L247.379 0.617257L245.531 1.38274ZM263.855 42H246.695V44H263.855V42ZM230.015 25.64H239.735V23.64H230.015V25.64ZM240.67 24.286L235.81 11.446L233.94 12.154L238.8 24.994L240.67 24.286ZM233.94 11.446L229.08 24.286L230.95 24.994L235.81 12.154L233.94 11.446ZM260.856 28.18V27.18H259.856V28.18H260.856ZM276.456 28.18H277.456V27.18H276.456V28.18ZM287.676 27.1L287.644 28.0995L287.645 28.0995L287.676 27.1ZM312.696 15.1V16.1H313.696V15.1H312.696ZM297.096 15.1H296.096V16.1H297.096V15.1ZM287.676 16.3L287.716 15.3008L287.715 15.3008L287.676 16.3ZM260.856 29.18H276.456V27.18H260.856V29.18ZM275.456 28.18C275.456 28.859 275.621 29.5667 276.131 30.2016C276.625 30.8154 277.364 31.2637 278.324 31.599C280.215 32.2597 283.32 32.6 288.276 32.6V30.6C283.332 30.6 280.527 30.2503 278.983 29.7109C278.226 29.4463 277.866 29.1671 277.69 28.9484C277.531 28.7508 277.456 28.521 277.456 28.18H275.456ZM288.276 32.6C292.876 32.6 295.646 32.4542 297.275 32.0796C298.089 31.8923 298.772 31.6165 299.245 31.1403C299.767 30.615 299.896 29.9908 299.896 29.44H297.896C297.896 29.6692 297.852 29.705 297.826 29.7309C297.752 29.806 297.513 29.9726 296.827 30.1304C295.456 30.4458 292.915 30.6 288.276 30.6V32.6ZM299.896 29.44C299.896 28.8631 299.783 28.1944 299.23 27.6466C298.733 27.154 298.011 26.8986 297.176 26.7278C295.496 26.3838 292.587 26.2492 287.706 26.1005L287.645 28.0995C292.605 28.2507 295.305 28.3862 296.775 28.6872C297.516 28.8389 297.754 28.9998 297.823 29.0678C297.836 29.0806 297.896 29.1169 297.896 29.44H299.896ZM287.707 26.1005C278.225 25.8004 271.87 24.8674 267.901 22.8968C265.947 21.9269 264.61 20.7237 263.751 19.2476C262.887 17.7647 262.456 15.9232 262.456 13.6H260.456C260.456 16.1668 260.932 18.3828 262.022 20.2542C263.116 22.1325 264.78 23.5806 267.011 24.6882C271.411 26.8726 278.167 27.7996 287.644 28.0995L287.707 26.1005ZM262.456 13.6C262.456 11.4611 262.977 9.67883 263.964 8.19213C264.953 6.69976 266.452 5.44422 268.499 4.43128C272.624 2.39015 278.842 1.4 287.076 1.4V-0.600002C278.75 -0.600002 272.157 0.389843 267.612 2.63872C265.325 3.77077 263.523 5.23774 262.297 7.08662C261.067 8.94116 260.456 11.1189 260.456 13.6H262.456ZM287.076 1.4C295.224 1.4 301.423 2.3917 305.556 4.60414C307.604 5.70016 309.124 7.0848 310.137 8.78441C311.151 10.4845 311.696 12.5616 311.696 15.1H313.696C313.696 12.2684 313.085 9.82302 311.855 7.75996C310.624 5.69644 308.81 4.07734 306.5 2.84086C301.918 0.38829 295.308 -0.600002 287.076 -0.600002V1.4ZM312.696 14.1H297.096V16.1H312.696V14.1ZM298.096 15.1C298.096 14.2197 297.715 13.4895 297.03 12.954C296.398 12.459 295.536 12.1506 294.553 11.9398C292.582 11.5168 289.675 11.4 285.876 11.4V13.4C289.697 13.4 292.4 13.5232 294.134 13.8952C295.004 14.0819 295.518 14.3097 295.798 14.5292C296.027 14.708 296.096 14.8703 296.096 15.1H298.096ZM285.876 11.4C282.246 11.4 279.92 11.4851 278.5 11.8073C277.785 11.9694 277.143 12.2226 276.689 12.6891C276.193 13.197 276.056 13.8113 276.056 14.38H278.056C278.056 14.1387 278.106 14.1005 278.121 14.0853C278.176 14.0287 278.367 13.8881 278.942 13.7577C280.101 13.4949 282.186 13.4 285.876 13.4V11.4ZM276.056 14.38C276.056 14.9564 276.201 15.6049 276.806 16.0919C277.311 16.4984 278.017 16.6817 278.794 16.8009C280.382 17.0447 283.126 17.1212 287.636 17.2992L287.715 15.3008C283.105 15.1188 280.539 15.0453 279.098 14.8241C278.36 14.7108 278.121 14.5829 278.06 14.5337C278.054 14.5289 278.067 14.5418 278.072 14.5562C278.073 14.5568 278.068 14.5458 278.064 14.5171C278.06 14.4877 278.056 14.4437 278.056 14.38H276.056ZM287.636 17.2992C295.959 17.6309 302.49 18.0838 306.944 19.7562C309.143 20.5817 310.757 21.6776 311.828 23.1359C312.895 24.5873 313.496 26.4953 313.496 29.08H315.496C315.496 26.1747 314.815 23.8227 313.44 21.9516C312.07 20.0874 310.083 18.7983 307.647 17.8838C302.832 16.0762 295.953 15.6291 287.716 15.3008L287.636 17.2992ZM313.496 29.08C313.496 31.8358 312.926 33.9989 311.875 35.7108C310.825 37.4198 309.25 38.7553 307.111 39.7808C302.78 41.8571 296.278 42.6 287.676 42.6V44.6C296.294 44.6 303.202 43.8729 307.976 41.5842C310.389 40.4272 312.29 38.8564 313.579 36.7573C314.866 34.6611 315.496 32.1142 315.496 29.08H313.496ZM287.676 42.6C279.071 42.6 272.58 41.8557 268.259 39.677C266.127 38.6025 264.548 37.1902 263.492 35.3554C262.431 33.5135 261.856 31.1731 261.856 28.18H259.856C259.856 31.4269 260.481 34.134 261.758 36.3533C263.04 38.5798 264.937 40.2425 267.358 41.463C272.142 43.8743 279.061 44.6 287.676 44.6V42.6ZM366.128 0.999997H367.128V-2.86102e-06H366.128V0.999997ZM366.128 14.2V15.2H367.128V14.2H366.128ZM348.128 14.2V13.2H347.128V14.2H348.128ZM348.128 43V44H349.128V43H348.128ZM332.528 43H331.528V44H332.528V43ZM332.528 14.2H333.528V13.2H332.528V14.2ZM314.528 14.2H313.528V15.2H314.528V14.2ZM314.528 0.999997V-2.86102e-06H313.528V0.999997H314.528ZM365.128 0.999997V14.2H367.128V0.999997H365.128ZM366.128 13.2H348.128V15.2H366.128V13.2ZM347.128 14.2V43H349.128V14.2H347.128ZM348.128 42H332.528V44H348.128V42ZM333.528 43V14.2H331.528V43H333.528ZM332.528 13.2H314.528V15.2H332.528V13.2ZM315.528 14.2V0.999997H313.528V14.2H315.528ZM314.528 2H366.128V-2.86102e-06H314.528V2Z" fill="white"></path></svg>