<svg xmlns="http://www.w3.org/2000/svg" width="180" height="80" viewBox="0 0 180 80" fill="none"><mask id="mask0_4133_29163" style="mask-type:luminance" maskUnits="userSpaceOnUse" x="0" y="1" width="180" height="78"><path d="M180 1.30859H0V78.6918H180V1.30859Z" fill="white"></path></mask><g mask="url(#mask0_4133_29163)"><path d="M79.9504 4.12744H51.7322V10.3454H62.0939V37.0975H69.5887V10.3454H79.9504V4.12744Z" fill="#333333"></path><path d="M98.9349 12.957C96.8521 11.9024 94.5546 11.3616 92.2286 11.3783C89.9024 11.395 87.6129 11.9687 85.5446 13.0531C83.5834 14.1247 81.9449 15.7188 80.8041 17.6651C79.6264 19.7139 79.0261 22.0538 79.0699 24.4275C79.0291 26.7878 79.6376 29.1128 80.8266 31.1395C82.0271 33.1283 83.7501 34.7353 85.8009 35.779C90.0209 37.7903 94.8511 38.0188 99.2361 36.415C100.886 35.7618 102.361 34.7208 103.541 33.3768L99.6989 29.1355C98.9076 29.9215 97.9736 30.5433 96.9489 30.9658C95.8321 31.3925 94.6456 31.599 93.4531 31.5743C92.1214 31.6065 90.8001 31.3248 89.5934 30.7505C88.5274 30.229 87.6409 29.3918 87.0501 28.3485C86.7209 27.7703 86.4814 27.1438 86.3401 26.491H105.158C105.19 26.1753 105.221 25.8368 105.248 25.4753C105.275 25.1138 105.298 24.7935 105.298 24.5098C105.365 22.048 104.773 19.6139 103.586 17.4683C102.483 15.5489 100.871 13.9852 98.9349 12.957ZM89.1304 17.7611C90.1269 17.1972 91.2529 16.913 92.3926 16.9376C93.5241 16.9108 94.6419 17.1953 95.6279 17.7611C96.5459 18.3051 97.2986 19.0968 97.8026 20.0488C98.1584 20.7243 98.3944 21.4585 98.4991 22.2176H86.2456C86.3539 21.4678 86.5864 20.7422 86.9331 20.0717C87.4344 19.1041 88.1969 18.3025 89.1304 17.7611Z" fill="#333333"></path><path d="M128.286 14.11C126.189 12.2798 123.244 11.3647 119.452 11.3647C117.478 11.3643 115.513 11.6336 113.61 12.1654C111.86 12.6247 110.201 13.3894 108.708 14.4257L111.296 19.5592C112.274 18.7936 113.379 18.2125 114.558 17.8435C115.82 17.4211 117.14 17.2064 118.468 17.2075C120.409 17.2075 121.85 17.6467 122.79 18.5252C123.269 18.9972 123.642 19.5681 123.886 20.1995C124.129 20.8309 124.237 21.5081 124.201 22.1855H118.481C115.953 22.1855 113.901 22.5073 112.325 23.1509C110.929 23.6603 109.725 24.6029 108.883 25.8457C108.165 27.0272 107.785 28.389 107.785 29.7782C107.785 31.1677 108.165 32.5295 108.883 33.7107C109.673 34.9125 110.778 35.8637 112.073 36.456C113.655 37.175 115.375 37.5222 117.106 37.4717C119.296 37.4717 121.084 37.0477 122.471 36.1997C123.39 35.642 124.154 34.8545 124.691 33.9122V37.0737H131.431V22.643C131.431 18.7723 130.382 15.9279 128.286 14.11ZM122.134 31.6565C121.153 32.2437 120.032 32.5445 118.894 32.5257C117.839 32.586 116.792 32.2972 115.911 31.7022C115.563 31.4492 115.281 31.1127 115.092 30.7225C114.902 30.3322 114.81 29.9002 114.823 29.465C114.817 29.0622 114.899 28.6632 115.063 28.2967C115.227 27.9302 115.469 27.6057 115.772 27.3465C116.405 26.7792 117.569 26.5 119.267 26.5H124.21V29.0897C123.826 30.1612 123.093 31.0667 122.134 31.6565Z" fill="#333333"></path><path d="M178.665 16.2381C177.865 14.6711 176.61 13.3931 175.071 12.5778C173.442 11.7518 171.642 11.339 169.822 11.3744C167.598 11.3315 165.408 11.9363 163.509 13.1177C162.498 13.7533 161.602 14.5629 160.863 15.5106C160.302 14.5673 159.548 13.7588 158.652 13.1405C156.878 11.9449 154.789 11.3288 152.662 11.3744C150.766 11.3396 148.894 11.8029 147.225 12.7196C146.322 13.2252 145.516 13.8916 144.844 14.687V11.7542H137.951V37.0973H145.167V24.3776C145.123 23.1003 145.361 21.8292 145.864 20.6579C146.277 19.7432 146.954 18.9786 147.805 18.4663C148.666 17.9739 149.639 17.7228 150.627 17.7388C152.125 17.7388 153.288 18.2253 154.118 19.1983C154.948 20.1713 155.357 21.6782 155.345 23.7188V37.0973H162.561V24.3776C162.516 23.1006 162.752 21.8295 163.253 20.6579C163.666 19.7419 164.345 18.977 165.199 18.4663C166.059 17.9734 167.033 17.7224 168.021 17.7388C168.676 17.6999 169.332 17.8108 169.94 18.0633C170.548 18.3159 171.093 18.7037 171.534 19.1983C172.364 20.1713 172.781 21.6782 172.784 23.7188V37.0973H180.013V22.5887C180.013 20.0173 179.564 17.9004 178.665 16.2381Z" fill="#333333"></path><path d="M20.4986 19.1703V40.0293C15.1963 39.622 10.2133 37.2925 6.45379 33.4635C2.69429 29.6348 0.407624 24.5602 0.00878906 19.1611L20.4986 19.1703Z" fill="#F05945"></path><path d="M44.3134 19.1714C43.9126 24.5688 41.6251 29.6412 37.8656 33.4682C34.1064 37.2952 29.1246 39.6235 23.8237 40.0305V19.1714H44.3134Z" fill="#FFC947"></path><path d="M11.1076 17.2583C15.4331 17.2583 18.9395 13.6878 18.9395 9.28345C18.9395 4.87905 15.4331 1.30859 11.1076 1.30859C6.78213 1.30859 3.27563 4.87905 3.27563 9.28345C3.27563 13.6878 6.78213 17.2583 11.1076 17.2583Z" fill="#1C3462"></path><path d="M34.0686 17.2583C38.3941 17.2583 41.9006 13.6878 41.9006 9.28345C41.9006 4.87905 38.3941 1.30859 34.0686 1.30859C29.7431 1.30859 26.2368 4.87905 26.2368 9.28345C26.2368 13.6878 29.7431 17.2583 34.0686 17.2583Z" fill="#00E1FF"></path><path d="M0.835938 78.6924V45.0771H7.04578V72.5109H23.878V78.6924H0.835938Z" fill="#333333"></path><path d="M36.1266 45.0771H29.9124V78.6924H36.1266V45.0771Z" fill="#333333"></path><path d="M143.469 45.0771H137.255V78.6924H143.469V45.0771Z" fill="#333333"></path><path d="M159.627 77.3782C157.675 76.521 155.901 75.2927 154.401 73.759C152.858 72.2425 151.648 70.4102 150.851 68.383C149.96 66.318 149.501 64.0867 149.503 61.831C149.503 58.9585 150.225 56.1335 151.601 53.626C152.978 51.1185 154.962 49.0117 157.365 47.5072C159.769 46.0027 162.51 45.1502 165.329 45.0315C168.148 44.9127 170.949 45.5312 173.467 46.8285C175.762 47.9945 177.755 49.697 179.281 51.7972L179.995 52.7122L175.241 56.2812L174.581 55.366C173.603 54.0087 172.323 52.9062 170.846 52.1492C169.369 51.3922 167.737 51.002 166.084 51.0102C164.268 51.0125 162.483 51.487 160.898 52.389C159.314 53.291 157.981 54.5905 157.028 56.164C156.075 57.7375 155.533 59.533 155.453 61.38C155.373 63.227 155.758 65.0642 156.571 66.717C157.384 68.37 158.598 69.784 160.099 70.8247C161.6 71.8655 163.337 72.4982 165.145 72.6635C166.953 72.8285 168.773 72.5202 170.432 71.7677C172.09 71.0155 173.532 69.844 174.621 68.3647L175.282 67.509L179.991 71.0367L179.276 71.9517C177.75 74.049 175.761 75.7515 173.469 76.9215C171.177 78.0915 168.648 78.696 166.084 78.6867C163.875 78.6882 161.688 78.2435 159.649 77.3782" fill="#333333"></path><path d="M63.1138 52.9787V67.0799L48.5058 45.0771H42.4758V78.6924H48.6901V56.6482L63.3428 78.6924H69.3281V52.9787H63.1138Z" fill="#333333"></path><path d="M87.3283 61.1504L104.098 45.0771H95.2008L82.0308 57.6866V45.0771H75.8613V78.6924H82.0308V66.2289L87.3148 61.1319L87.3283 61.1504Z" fill="#666666"></path><path d="M95.6906 62.019L91.0264 66.4343L99.5999 78.6918H107.346L95.6906 62.019Z" fill="#666666"></path><path d="M117.326 78.6226V51.2346H109.216V45.0073H131.656V51.2346H123.541V78.6226H117.326Z" fill="#333333"></path></g></svg>