<svg xmlns="http://www.w3.org/2000/svg" width="18" height="20" viewBox="0 0 18 20" fill="none"><g clip-path="url(#clip0_2499_15564)"><path d="M17.6307 8.19961C15.9109 8.20372 14.2334 7.6674 12.835 6.66641V13.6477C12.8345 14.9407 12.4393 16.2027 11.7022 17.265C10.9651 18.3274 9.92123 19.1393 8.71019 19.5924C7.49916 20.0455 6.17868 20.118 4.92531 19.8003C3.67194 19.4826 2.54542 18.7899 1.6964 17.8147C0.847373 16.8395 0.316306 15.6283 0.174208 14.3431C0.0321097 13.058 0.285754 11.76 0.901224 10.6229C1.51669 9.48578 2.46465 8.56366 3.61835 7.97983C4.77204 7.39601 6.07648 7.17832 7.35723 7.35586V10.8672C6.77116 10.6828 6.14181 10.6884 5.55908 10.8831C4.97635 11.0777 4.47003 11.4515 4.11242 11.9511C3.75481 12.4507 3.56421 13.0505 3.56783 13.6649C3.57145 14.2793 3.7691 14.8768 4.13257 15.3721C4.49604 15.8675 5.00673 16.2353 5.59171 16.4231C6.1767 16.6109 6.80606 16.609 7.38993 16.4178C7.97379 16.2265 8.4823 15.8557 8.84283 15.3582C9.20336 14.8607 9.39748 14.262 9.39747 13.6477V0H12.835C12.8326 0.290289 12.8569 0.580182 12.9076 0.866016C13.0271 1.50409 13.2754 2.1111 13.6375 2.6499C13.9996 3.1887 14.4678 3.64796 15.0135 3.99961C15.7898 4.51293 16.7 4.78652 17.6307 4.78633V8.19961Z" fill="white"></path></g><defs><clipPath id="clip0_2499_15564"><rect width="17.5" height="20" fill="white" transform="translate(0.130859)"></rect></clipPath></defs></svg>