<svg xmlns="http://www.w3.org/2000/svg" width="18" height="21" viewBox="0 0 18 21" fill="none"><path d="M17.7498 8.44961C16.0301 8.45372 14.3525 7.9174 12.9541 6.91641V13.8977C12.9536 15.1907 12.5584 16.4527 11.8213 17.515C11.0842 18.5774 10.0404 19.3893 8.82933 19.8424C7.6183 20.2954 6.29782 20.368 5.04445 20.0503C3.79108 19.7326 2.66456 19.0399 1.81554 18.0647C0.966514 17.0895 0.435447 15.8783 0.293349 14.5931C0.15125 13.308 0.404894 12.01 1.02036 10.8729C1.63583 9.73578 2.58379 8.81366 3.73749 8.22983C4.89118 7.64601 6.19562 7.42831 7.47637 7.60586V11.1172C6.8903 10.9328 6.26096 10.9384 5.67822 11.1331C5.09549 11.3277 4.58917 11.7015 4.23156 12.2011C3.87395 12.7007 3.68335 13.3005 3.68697 13.9149C3.69059 14.5293 3.88824 15.1268 4.25171 15.6221C4.61518 16.1175 5.12587 16.4853 5.71085 16.6731C6.29584 16.8609 6.9252 16.859 7.50907 16.6678C8.09293 16.4765 8.60144 16.1057 8.96197 15.6082C9.3225 15.1107 9.51662 14.512 9.51661 13.8977V0.25H12.9541C12.9517 0.540289 12.976 0.830182 13.0268 1.11602C13.1462 1.75409 13.3946 2.3611 13.7567 2.8999C14.1188 3.4387 14.587 3.89796 15.1326 4.24961C15.9089 4.76293 16.8191 5.03652 17.7498 5.03633V8.44961Z" fill="#006AFF"></path></svg>