<svg xmlns="http://www.w3.org/2000/svg" width="18" height="14" viewBox="0 0 18 14" fill="none"><g clip-path="url(#clip0_3293_148402)"><path d="M9.89134 5.12015C10.3663 4.5804 10.8242 4.06192 11.2788 3.54345C12.247 2.44043 13.2108 1.33293 14.1854 0.236631C14.2635 0.148165 14.4057 0.0876951 14.5223 0.0798564C14.8369 0.0585799 15.1535 0.0720177 15.5461 0.0720177C13.8152 2.04961 12.1389 3.96562 10.438 5.90962C12.3464 8.60837 14.2517 11.3038 16.188 14.0417C16.0521 14.0507 15.9687 14.0596 15.8852 14.0608C14.6935 14.0608 13.5018 14.054 12.309 14.0664C12.0822 14.0686 11.941 14.0014 11.8041 13.8066C10.622 12.1168 9.4292 10.4359 8.23963 8.75283C8.20433 8.70244 8.16261 8.65652 8.1027 8.58374C7.86735 8.84801 7.64484 9.09549 7.42447 9.34633C6.09048 10.8693 4.75862 12.3922 3.42249 13.9129C3.36686 13.9756 3.28342 14.0496 3.21068 14.0529C2.85766 14.0675 2.5025 14.0596 2.07031 14.0596C3.92421 11.9409 5.73211 9.87488 7.55605 7.78979C5.74815 5.22877 3.94667 2.68119 2.11952 0.0966536C2.23933 0.0854555 2.31315 0.0731375 2.38803 0.0731375C3.61505 0.0708979 4.84314 0.0764969 6.07015 0.0664186C6.25629 0.0652988 6.35899 0.140326 6.46275 0.285902C7.56568 1.8514 8.67395 3.41355 9.78009 4.97569C9.80576 5.01264 9.83464 5.04736 9.89134 5.12015ZM3.91993 1.03058C4.02691 1.18511 4.08788 1.27582 4.151 1.3654C4.8442 2.34412 5.53955 3.32284 6.23169 4.30156C8.26744 7.18061 10.3011 10.0608 12.3422 12.9353C12.4031 13.0216 12.5401 13.091 12.6428 13.0944C13.1488 13.11 13.6558 13.1022 14.1629 13.1C14.2185 13.1 14.2731 13.082 14.3565 13.0664C14.2923 12.9701 14.2496 12.9017 14.2025 12.8357C13.1028 11.2803 12.002 9.72595 10.9012 8.17052C9.27195 5.86706 7.64484 3.5636 6.01345 1.26238C5.94927 1.17168 5.85085 1.04402 5.76527 1.04066C5.17369 1.02162 4.58104 1.03058 3.91886 1.03058H3.91993Z" fill="#006AFF"></path></g><defs><clipPath id="clip0_3293_148402"><rect width="18" height="14" fill="white"></rect></clipPath></defs></svg>