<svg xmlns="http://www.w3.org/2000/svg" width="21" height="20" viewBox="0 0 21 20" fill="none"><path fill-rule="evenodd" clip-rule="evenodd" d="M7.23828 0H14.7383C18.1895 0 20.9883 2.79875 20.9883 6.25V13.75C20.9883 17.2013 18.1895 20 14.7383 20H7.23828C3.78703 20 0.988281 17.2013 0.988281 13.75V6.25C0.988281 2.79875 3.78703 0 7.23828 0ZM14.7383 18.125C17.1508 18.125 19.1133 16.1625 19.1133 13.75V6.25C19.1133 3.8375 17.1508 1.875 14.7383 1.875H7.23828C4.82578 1.875 2.86328 3.8375 2.86328 6.25V13.75C2.86328 16.1625 4.82578 18.125 7.23828 18.125H14.7383Z" fill="#006AFF"></path><path fill-rule="evenodd" clip-rule="evenodd" d="M5.98828 10C5.98828 7.23875 8.22703 5 10.9883 5C13.7495 5 15.9883 7.23875 15.9883 10C15.9883 12.7613 13.7495 15 10.9883 15C8.22703 15 5.98828 12.7613 5.98828 10ZM7.86328 10C7.86328 11.7225 9.26578 13.125 10.9883 13.125C12.7108 13.125 14.1133 11.7225 14.1133 10C14.1133 8.27625 12.7108 6.875 10.9883 6.875C9.26578 6.875 7.86328 8.27625 7.86328 10Z" fill="#006AFF"></path><circle cx="16.3635" cy="4.62523" r="0.66625" fill="#006AFF"></circle></svg>