<svg xmlns="http://www.w3.org/2000/svg" width="21" height="20" viewBox="0 0 21 20" fill="none"><path fill-rule="evenodd" clip-rule="evenodd" d="M8.84513 7.47352H11.9401V9.01518C12.386 8.12852 13.5293 7.33185 15.2468 7.33185C18.5393 7.33185 19.321 9.09685 19.321 12.3352V18.3327H15.9876V13.0727C15.9876 11.2285 15.5418 10.1885 14.4068 10.1885C12.8326 10.1885 12.1785 11.3093 12.1785 13.0718V18.3327H8.84513V7.47352ZM3.1293 18.191H6.46263V7.33185H3.1293V18.191ZM6.94013 3.79102C6.94025 4.07041 6.88484 4.34704 6.77712 4.60484C6.6694 4.86263 6.51151 5.09644 6.31263 5.29268C5.90963 5.6932 5.36414 5.91739 4.79596 5.91602C4.22879 5.91563 3.68456 5.69201 3.28096 5.29352C3.08281 5.09661 2.92545 4.86254 2.81792 4.60471C2.71038 4.34688 2.65478 4.07037 2.6543 3.79102C2.6543 3.22685 2.8793 2.68685 3.2818 2.28852C3.68503 1.88948 4.2295 1.66577 4.7968 1.66602C5.36513 1.66602 5.91013 1.89018 6.31263 2.28852C6.7143 2.68685 6.94013 3.22685 6.94013 3.79102Z" fill="#006AFF"></path></svg>