<svg xmlns="http://www.w3.org/2000/svg" width="18" height="21" viewBox="0 0 18 21" fill="none"><g clip-path="url(#clip0_1541_3888)"><path d="M17.7391 8.93008C16.0193 8.93419 14.3418 8.39787 12.9434 7.39688V14.3781C12.9429 15.6711 12.5477 16.9332 11.8106 17.9955C11.0735 19.0578 10.0296 19.8698 8.81859 20.3229C7.60756 20.7759 6.28707 20.8485 5.0337 20.5308C3.78033 20.2131 2.65382 19.5203 1.8048 18.5451C0.955771 17.5699 0.424705 16.3588 0.282606 15.0736C0.140508 13.7884 0.394152 12.4905 1.00962 11.3534C1.62509 10.2163 2.57305 9.29413 3.72674 8.7103C4.88044 8.12648 6.18487 7.90878 7.46563 8.08633V11.5977C6.87955 11.4133 6.25021 11.4189 5.66748 11.6135C5.08475 11.8082 4.57843 12.182 4.22082 12.6816C3.86321 13.1812 3.67261 13.781 3.67623 14.3954C3.67985 15.0097 3.8775 15.6073 4.24097 16.1026C4.60444 16.5979 5.11513 16.9658 5.70011 17.1535C6.2851 17.3413 6.91446 17.3395 7.49832 17.1482C8.08219 16.957 8.59069 16.5862 8.95123 16.0887C9.31176 15.5912 9.50588 14.9925 9.50586 14.3781V0.730469H12.9434C12.941 1.02076 12.9653 1.31065 13.016 1.59648C13.1355 2.23456 13.3838 2.84157 13.7459 3.38036C14.108 3.91916 14.5762 4.37843 15.1219 4.73008C15.8982 5.2434 16.8084 5.51699 17.7391 5.5168V8.93008Z" fill="#006AFF"></path></g><defs><clipPath id="clip0_1541_3888"><rect width="17.5" height="20" fill="white" transform="translate(0.238281 0.730469)"></rect></clipPath></defs></svg>