<svg xmlns="http://www.w3.org/2000/svg" width="36" height="35" viewBox="0 0 36 35" fill="none"><g clip-path="url(#clip0_1_60010)"><path d="M24.4767 17.4657L33.4469 9.67232V25.17L24.4767 17.4657ZM12.9179 18.7854L16.0679 21.5198C16.5623 21.9398 17.2069 22.1936 17.9113 22.1936H17.936H17.9346H17.955C18.6608 22.1936 19.3054 21.9384 19.8056 21.5154L19.8013 21.5184L22.9513 18.784L32.5267 27.0075H3.34688L12.9179 18.7854ZM3.33375 7.82461H32.5442L18.5135 20.0104C18.3558 20.1352 18.1605 20.2031 17.9594 20.2029H17.939H17.9404H17.92C17.7182 20.2032 17.5222 20.1348 17.3644 20.009L17.3658 20.0104L3.33375 7.82461ZM2.42813 9.67086L11.3969 17.4642L2.42813 25.1642V9.67086ZM33.9281 6.11107C33.5781 5.93607 33.1669 5.83398 32.7308 5.83398H3.14854C2.72586 5.83409 2.30899 5.93244 1.93083 6.12128L1.94687 6.11398C1.49417 6.33727 1.11292 6.6827 0.846204 7.11126C0.579484 7.53981 0.437919 8.03442 0.4375 8.53919L0.4375 26.29C0.438272 27.0084 0.723993 27.6972 1.23197 28.2051C1.73995 28.7131 2.42869 28.9988 3.14708 28.9996H32.7265C33.4449 28.9988 34.1336 28.7131 34.6416 28.2051C35.1496 27.6972 35.4353 27.0084 35.436 26.29V8.53919C35.436 7.47898 34.825 6.56023 33.9354 6.11836L33.9194 6.11107H33.9281Z" fill="#006AFF"></path></g><defs><clipPath id="clip0_1_60010"><rect width="35" height="35" fill="white" transform="translate(0.4375)"></rect></clipPath></defs></svg>