<svg width="155" height="31" viewBox="0 0 155 31" fill="none" xmlns="http://www.w3.org/2000/svg">
<path d="M120.443 29.086V23.7031H122.519C122.801 23.7031 123.053 23.7658 123.277 23.8911C123.5 24.0163 123.672 24.1872 123.796 24.4025C123.92 24.6177 123.981 24.8558 123.981 25.1178C123.981 25.4207 123.9 25.6804 123.738 25.898C123.576 26.1155 123.388 26.2681 123.173 26.3558V26.3946C123.414 26.4561 123.622 26.6007 123.796 26.8285C123.97 27.0563 124.058 27.3376 124.058 27.6702C124.058 27.9424 123.998 28.185 123.877 28.4003C123.756 28.6156 123.585 28.7842 123.366 28.9037C123.145 29.0245 122.888 29.0848 122.597 29.0848H120.444L120.443 29.086ZM122.519 26.2715C122.755 26.2715 122.962 26.2192 123.142 26.1144C123.322 26.0096 123.461 25.8695 123.561 25.6952C123.662 25.521 123.712 25.3285 123.712 25.1189C123.712 24.9093 123.661 24.7077 123.558 24.5312C123.455 24.3546 123.313 24.2157 123.131 24.1166C122.949 24.0163 122.745 23.9662 122.519 23.9662H120.712V26.2727H122.519V26.2715ZM122.597 28.824C122.955 28.824 123.244 28.7181 123.461 28.5051C123.679 28.2921 123.788 28.0142 123.788 27.6714C123.788 27.3285 123.679 27.0495 123.461 26.8376C123.244 26.6246 122.955 26.5187 122.597 26.5187H120.713V28.8252H122.597V28.824Z" fill="#666666"/>
<path d="M127.686 25.2433H127.955L126.202 30.1717C126.141 30.346 126.061 30.4656 125.964 30.5294C125.866 30.5932 125.731 30.625 125.556 30.625H125.072V30.379H125.548C125.677 30.379 125.768 30.3528 125.825 30.3016C125.881 30.2503 125.932 30.1603 125.979 30.0328L126.256 29.264L124.741 25.2422H125.01L126.317 28.7172H126.463L127.685 25.2422L127.686 25.2433Z" fill="#666666"/>
<path d="M133.46 29.086H130.323V23.7031H130.592V28.824H133.46V29.086Z" fill="#666666"/>
<path d="M134.621 24.1762H134.283V23.8379H134.621V24.1762ZM134.582 29.0898H134.32V25.2457H134.582V29.0898Z" fill="#666666"/>
<path d="M135.89 29.0903V25.2462H136.105L136.152 25.9308H136.191C136.293 25.736 136.458 25.5606 136.686 25.4046C136.914 25.2485 137.182 25.1699 137.49 25.1699C137.777 25.1699 138.033 25.2337 138.256 25.3624C138.479 25.4911 138.653 25.6768 138.779 25.9194C138.904 26.1631 138.967 26.4513 138.967 26.7839V29.0903H138.706V26.7839C138.706 26.5173 138.653 26.2804 138.547 26.0731C138.443 25.8658 138.297 25.7041 138.109 25.5891C137.922 25.474 137.708 25.4159 137.466 25.4159C137.225 25.4159 137.005 25.4763 136.805 25.597C136.605 25.7178 136.446 25.8818 136.329 26.0891C136.21 26.2964 136.152 26.5287 136.152 26.785V29.0915H135.89V29.0903Z" fill="#666666"/>
<path d="M140.541 29.086H140.28V23.7031H140.541V27.0324L142.671 25.2408H143.032L140.787 27.1246L143.11 29.0848H142.748L140.542 27.2169V29.0848L140.541 29.086Z" fill="#666666"/>
<path d="M145.539 29.086H145.271V23.9651H143.356V23.7031H147.454V23.9651H145.539V29.086Z" fill="#666666"/>
<path d="M148.645 29.086H148.376V23.7031H148.645V29.086Z" fill="#666666"/>
<path d="M151.075 28.8147C150.696 28.5812 150.396 28.2543 150.175 27.8341C149.954 27.4138 149.845 26.9343 149.845 26.3967C149.845 25.859 149.955 25.3795 150.175 24.9592C150.395 24.539 150.696 24.2121 151.075 23.9786C151.454 23.7451 151.874 23.6289 152.336 23.6289C152.899 23.6289 153.39 23.7906 153.808 24.113C154.226 24.4364 154.512 24.8772 154.665 25.4353H154.38C154.237 24.9536 153.983 24.5754 153.619 24.3009C153.255 24.0264 152.828 23.8897 152.336 23.8897C151.93 23.8897 151.558 23.9945 151.217 24.2052C150.877 24.4159 150.607 24.7098 150.41 25.0891C150.213 25.4684 150.114 25.9046 150.114 26.3967C150.114 26.8887 150.213 27.3249 150.41 27.7042C150.607 28.0835 150.876 28.3785 151.217 28.5881C151.558 28.7976 151.931 28.9036 152.336 28.9036C152.832 28.9036 153.262 28.7646 153.624 28.4878C153.985 28.2111 154.238 27.8215 154.381 27.3192H154.666C154.512 27.8933 154.226 28.3443 153.81 28.6723C153.392 29.0004 152.901 29.1644 152.337 29.1644C151.876 29.1644 151.455 29.0482 151.076 28.8147H151.075Z" fill="#666666"/>
<path d="M7.49805 12.0938C9.90018 13.7783 11.5449 16.4743 11.8091 19.5632C9.26576 17.7887 7.75318 15.0175 7.49805 12.0938Z" fill="#00DA00"/>
<path d="M6.95886 9.29492C6.70145 12.2176 5.18773 14.9899 2.64551 16.7633C2.91089 13.6732 4.55445 10.9783 6.95886 9.29492Z" fill="#00E4FF"/>
<path d="M9.11466 7.4251C6.45398 8.66318 3.29784 8.73835 0.490234 7.42282C3.29898 6.10729 6.45512 6.1836 9.11466 7.4251Z" fill="#00B199"/>
<path d="M11.8091 8.35816C9.40585 6.6736 7.76229 3.97761 7.49805 0.888672C10.0414 2.66322 11.554 5.43438 11.8091 8.35816Z" fill="#FF4937"/>
<path d="M12.3496 11.1617C12.607 8.23907 14.1207 5.46677 16.663 3.69336C16.3976 6.78344 14.754 9.47829 12.3496 11.1617Z" fill="#009FFF"/>
<path d="M10.1934 13.027C12.854 11.7889 16.0102 11.7137 18.8178 13.0293C16.009 14.3448 12.8529 14.2685 10.1934 13.027Z" fill="#FFC40D"/>
<path d="M24.499 19.5481V0.892578H32.7874C33.8353 0.892578 34.7864 1.14543 35.6383 1.65228C36.4914 2.15913 37.1623 2.86531 37.6509 3.7708C38.1396 4.67744 38.3833 5.70709 38.3833 6.86202C38.3833 8.01696 38.1384 9.0523 37.6509 9.96691C37.1623 10.8827 36.4914 11.5922 35.6383 12.0991C34.7852 12.6059 33.8353 12.8588 32.7874 12.8588H27.2975V19.5481H24.499ZM32.7077 10.1936C33.5073 10.1936 34.1873 9.88718 34.7465 9.2744C35.3058 8.66162 35.5859 7.8575 35.5859 6.86202C35.5859 5.86654 35.3103 5.06811 34.7602 4.46331C34.2089 3.85964 33.5255 3.55667 32.7077 3.55667H27.2975V10.1924H32.7077V10.1936Z" fill="#666666"/>
<path d="M41.3687 19.5473V6.14258H43.6341L43.9006 7.39547H44.0339C44.3004 6.98657 44.6239 6.67563 45.0066 6.46263C45.3881 6.24964 45.8996 6.14258 46.5385 6.14258H48.8837V8.62102H46.7789C45.8904 8.62102 45.207 8.86135 44.7264 9.34086C44.2469 9.82037 44.0066 10.5049 44.0066 11.3933V19.5485H41.3687V19.5473Z" fill="#666666"/>
<path d="M53.2018 18.9198C52.1893 18.3253 51.3931 17.4984 50.8168 16.4414C50.2393 15.3844 49.9512 14.1805 49.9512 12.8308C49.9512 11.4811 50.2393 10.3034 50.8168 9.24641C51.3943 8.18943 52.1893 7.36366 53.2018 6.76797C54.2144 6.17342 55.342 5.875 56.5858 5.875C57.8296 5.875 58.9526 6.17228 59.9572 6.76797C60.9606 7.36366 61.7511 8.18943 62.3297 9.24641C62.9072 10.3034 63.1953 11.4982 63.1953 12.8308C63.1953 14.1634 62.906 15.3856 62.3297 16.4414C61.7522 17.4984 60.9618 18.3253 59.9572 18.9198C58.9537 19.5155 57.8296 19.8128 56.5858 19.8128C55.342 19.8128 54.2144 19.5155 53.2018 18.9198ZM58.5984 16.8013C59.2112 16.4277 59.6952 15.8947 60.0506 15.2022C60.406 14.5097 60.5836 13.7192 60.5836 12.8308C60.5836 11.9424 60.406 11.1565 60.0506 10.472C59.6952 9.78857 59.2112 9.25894 58.5984 8.88649C57.9856 8.5129 57.3147 8.32724 56.5858 8.32724C55.8568 8.32724 55.1871 8.51404 54.5732 8.88649C53.9604 9.26008 53.4763 9.78857 53.121 10.472C52.7656 11.1565 52.5879 11.9424 52.5879 12.8308C52.5879 13.7192 52.7656 14.5097 53.121 15.2022C53.4763 15.8947 53.9604 16.4277 54.5732 16.8013C55.186 17.1749 55.8568 17.3606 56.5858 17.3606C57.3147 17.3606 57.9845 17.1738 58.5984 16.8013Z" fill="#666666"/>
<path d="M78.1196 19.5481H66.2866V0.892578H69.0851V16.8828H78.1196V19.5481Z" fill="#666666"/>
<path d="M83.1561 3.60859H80.2778V0.943359H83.1561V3.60859ZM83.0228 19.5453H80.3849V6.14057H83.0228V19.5453Z" fill="#666666"/>
<path d="M86.5933 19.5463V6.14152H88.8587L89.1252 7.52767H89.2585C89.5956 7.10169 90.1116 6.71899 90.8041 6.38185C91.4966 6.04471 92.2962 5.875 93.2028 5.875C94.2325 5.875 95.1528 6.11077 95.9614 6.58117C96.7701 7.05271 97.4011 7.71333 97.8533 8.56643C98.3066 9.41954 98.5333 10.3968 98.5333 11.4982V19.5463H95.8954V11.7112C95.8954 10.7522 95.5844 9.95258 94.9626 9.31247C94.3407 8.67236 93.5673 8.35344 92.6447 8.35344C92.0228 8.35344 91.4499 8.50493 90.926 8.80676C90.402 9.10973 89.9886 9.51749 89.6868 10.0323C89.3838 10.5483 89.2334 11.1075 89.2334 11.7112V19.5463H86.5955H86.5933Z" fill="#666666"/>
<path d="M104.822 19.5481H102.184V0.892578H104.822V12.246L110.339 6.14332H113.538L107.515 12.6993L113.804 19.5481H110.606L104.822 13.1789V19.5481Z" fill="#666666"/>
<path d="M122.918 19.5481H120.119V3.55781H114.256V0.892578H128.754V3.55781H122.918V19.5481Z" fill="#666666"/>
<path d="M134.218 19.5481H131.42V0.892578H134.218V19.5481Z" fill="#666666"/>
<path d="M141.959 18.5869C140.6 17.7702 139.52 16.6324 138.72 15.1756C137.921 13.7188 137.521 12.0661 137.521 10.2187C137.521 8.37127 137.921 6.71859 138.72 5.26183C139.52 3.80506 140.6 2.66835 141.959 1.85055C143.317 1.0339 144.823 0.625 146.476 0.625C147.897 0.625 149.184 0.914303 150.34 1.49177C151.495 2.06924 152.459 2.85514 153.232 3.85062C154.006 4.84609 154.542 5.95547 154.844 7.18216H151.939C151.549 6.02723 150.869 5.08984 149.901 4.37C148.933 3.65016 147.791 3.29023 146.476 3.29023C145.356 3.29023 144.325 3.57954 143.385 4.15587C142.443 4.73333 141.697 5.55113 141.146 6.60811C140.595 7.66509 140.321 8.869 140.321 10.2198C140.321 11.5707 140.596 12.7746 141.146 13.8304C141.697 14.8874 142.443 15.7052 143.385 16.2827C144.326 16.8602 145.357 17.1483 146.476 17.1483C147.825 17.1483 148.98 16.7793 149.941 16.0424C150.901 15.3054 151.566 14.3327 151.939 13.1243H154.844C154.542 14.3863 154.009 15.523 153.245 16.5355C152.48 17.5481 151.521 18.3477 150.367 18.9343C149.212 19.5208 147.914 19.8136 146.476 19.8136C144.823 19.8136 143.317 19.4047 141.959 18.588V18.5869Z" fill="#666666"/>
<path d="M101.898 28.2461V23.2709H103.72C104.073 23.2709 104.366 23.3292 104.597 23.4458C104.829 23.5608 105.002 23.7171 105.117 23.9147C105.232 24.1106 105.289 24.3317 105.289 24.5779C105.289 24.7852 105.251 24.9601 105.175 25.1026C105.099 25.2435 104.997 25.3569 104.869 25.4427C104.743 25.5269 104.604 25.5884 104.451 25.6273V25.6759C104.617 25.684 104.778 25.7374 104.935 25.8362C105.093 25.9334 105.225 26.0719 105.328 26.2516C105.432 26.4314 105.484 26.65 105.484 26.9076C105.484 27.1618 105.424 27.3902 105.304 27.5926C105.186 27.7934 105.003 27.953 104.755 28.0712C104.507 28.1878 104.191 28.2461 103.805 28.2461H101.898ZM102.649 27.6023H103.732C104.092 27.6023 104.349 27.5327 104.505 27.3934C104.66 27.2541 104.738 27.08 104.738 26.8711C104.738 26.714 104.698 26.5699 104.619 26.4387C104.54 26.3075 104.426 26.2031 104.279 26.1253C104.133 26.0476 103.96 26.0087 103.759 26.0087H102.649V27.6023ZM102.649 25.4233H103.655C103.823 25.4233 103.974 25.3909 104.109 25.3261C104.245 25.2613 104.353 25.1706 104.432 25.054C104.513 24.9358 104.553 24.7965 104.553 24.6362C104.553 24.4305 104.481 24.258 104.337 24.1187C104.193 23.9794 103.972 23.9098 103.674 23.9098H102.649V25.4233ZM106.374 28.2461V23.2709H108.148C108.535 23.2709 108.855 23.3413 109.11 23.4822C109.364 23.6231 109.554 23.8159 109.68 24.0604C109.807 24.3033 109.87 24.577 109.87 24.8815C109.87 25.1876 109.806 25.4629 109.678 25.7075C109.552 25.9504 109.361 26.1431 109.105 26.2857C108.85 26.4266 108.531 26.497 108.145 26.497H106.926V25.8605H108.077C108.322 25.8605 108.52 25.8184 108.672 25.7342C108.824 25.6484 108.936 25.5318 109.007 25.3844C109.079 25.237 109.114 25.0694 109.114 24.8815C109.114 24.6937 109.079 24.5268 109.007 24.3811C108.936 24.2353 108.824 24.1211 108.67 24.0386C108.518 23.956 108.317 23.9147 108.067 23.9147H107.125V28.2461H106.374ZM110.75 23.2709H111.661L113.245 27.1383H113.303L114.887 23.2709H115.798V28.2461H115.084V24.6459H115.038L113.57 28.2388H112.978L111.51 24.6434H111.464V28.2461H110.75V23.2709Z" fill="#006AFF"/>
</svg>
