<svg xmlns="http://www.w3.org/2000/svg" width="36" height="35" viewBox="0 0 36 35" fill="none"><path d="M27.7812 14.2188C27.7812 11.608 26.7441 9.10423 24.8981 7.25817C23.052 5.41211 20.5482 4.375 17.9375 4.375C15.3268 4.375 12.823 5.41211 10.9769 7.25817C9.13086 9.10423 8.09375 11.608 8.09375 14.2188C8.09375 18.2569 11.3247 23.52 17.9375 29.8244C24.5503 23.52 27.7812 18.2569 27.7812 14.2188ZM17.9375 32.8125C9.91594 25.5216 5.90625 19.3222 5.90625 14.2188C5.90625 11.0279 7.17382 7.96767 9.43012 5.71137C11.6864 3.45507 14.7466 2.1875 17.9375 2.1875C21.1284 2.1875 24.1886 3.45507 26.4449 5.71137C28.7012 7.96767 29.9688 11.0279 29.9688 14.2188C29.9688 19.3222 25.9591 25.5216 17.9375 32.8125Z" fill="#006AFF"></path><path d="M17.9375 15.3125C18.5177 15.3125 19.0741 15.082 19.4843 14.6718C19.8945 14.2616 20.125 13.7052 20.125 13.125C20.125 12.5448 19.8945 11.9884 19.4843 11.5782C19.0741 11.168 18.5177 10.9375 17.9375 10.9375C17.3573 10.9375 16.8009 11.168 16.3907 11.5782C15.9805 11.9884 15.75 12.5448 15.75 13.125C15.75 13.7052 15.9805 14.2616 16.3907 14.6718C16.8009 15.082 17.3573 15.3125 17.9375 15.3125ZM17.9375 17.5C16.7772 17.5 15.6644 17.0391 14.8439 16.2186C14.0234 15.3981 13.5625 14.2853 13.5625 13.125C13.5625 11.9647 14.0234 10.8519 14.8439 10.0314C15.6644 9.21094 16.7772 8.75 17.9375 8.75C19.0978 8.75 20.2106 9.21094 21.0311 10.0314C21.8516 10.8519 22.3125 11.9647 22.3125 13.125C22.3125 14.2853 21.8516 15.3981 21.0311 16.2186C20.2106 17.0391 19.0978 17.5 17.9375 17.5ZM29.75 24.0625L33.25 32.8125H23.4062V30.625H12.4688V32.8125H2.625L6.125 24.0625H29.75ZM27.3941 24.0625H8.48094L5.85594 30.625H30.0191L27.3941 24.0625Z" fill="#006AFF"></path></svg>