<svg width="156" height="31" viewBox="0 0 156 31" fill="none" xmlns="http://www.w3.org/2000/svg">
<path d="M120.776 29.086V23.7031H122.852C123.134 23.7031 123.386 23.7658 123.61 23.8911C123.833 24.0163 124.005 24.1872 124.129 24.4025C124.253 24.6177 124.314 24.8558 124.314 25.1178C124.314 25.4207 124.233 25.6804 124.071 25.898C123.909 26.1155 123.721 26.2681 123.506 26.3558V26.3946C123.747 26.4561 123.955 26.6007 124.129 26.8285C124.303 27.0563 124.391 27.3376 124.391 27.6702C124.391 27.9424 124.331 28.185 124.21 28.4003C124.089 28.6156 123.918 28.7842 123.699 28.9037C123.478 29.0245 123.221 29.0848 122.93 29.0848H120.777L120.776 29.086ZM122.852 26.2715C123.088 26.2715 123.295 26.2192 123.475 26.1144C123.655 26.0096 123.794 25.8695 123.894 25.6952C123.995 25.521 124.045 25.3285 124.045 25.1189C124.045 24.9093 123.994 24.7077 123.891 24.5312C123.789 24.3546 123.646 24.2157 123.464 24.1166C123.282 24.0163 123.078 23.9662 122.852 23.9662H121.045V26.2727H122.852V26.2715ZM122.93 28.824C123.288 28.824 123.577 28.7181 123.794 28.5051C124.012 28.2921 124.121 28.0142 124.121 27.6714C124.121 27.3285 124.012 27.0495 123.794 26.8376C123.577 26.6246 123.288 26.5187 122.93 26.5187H121.046V28.8252H122.93V28.824Z" fill="#666666"/>
<path d="M128.019 25.2433H128.288L126.535 30.1717C126.474 30.346 126.394 30.4656 126.297 30.5294C126.199 30.5932 126.064 30.625 125.889 30.625H125.405V30.379H125.881C126.01 30.379 126.101 30.3528 126.158 30.3016C126.214 30.2503 126.265 30.1603 126.312 30.0328L126.589 29.264L125.074 25.2422H125.343L126.65 28.7172H126.796L128.018 25.2422L128.019 25.2433Z" fill="#666666"/>
<path d="M133.793 29.086H130.656V23.7031H130.925V28.824H133.793V29.086Z" fill="#666666"/>
<path d="M134.954 24.1762H134.616V23.8379H134.954V24.1762ZM134.915 29.0898H134.653V25.2457H134.915V29.0898Z" fill="#666666"/>
<path d="M136.223 29.0903V25.2462H136.438L136.485 25.9308H136.524C136.626 25.736 136.791 25.5606 137.019 25.4046C137.247 25.2485 137.515 25.1699 137.823 25.1699C138.11 25.1699 138.366 25.2337 138.589 25.3624C138.812 25.4911 138.986 25.6768 139.112 25.9194C139.237 26.1631 139.3 26.4513 139.3 26.7839V29.0903H139.039V26.7839C139.039 26.5173 138.986 26.2804 138.88 26.0731C138.776 25.8658 138.63 25.7041 138.442 25.5891C138.255 25.474 138.041 25.4159 137.8 25.4159C137.558 25.4159 137.338 25.4763 137.138 25.597C136.938 25.7178 136.779 25.8818 136.662 26.0891C136.543 26.2964 136.485 26.5287 136.485 26.785V29.0915H136.223V29.0903Z" fill="#666666"/>
<path d="M140.874 29.086H140.613V23.7031H140.874V27.0324L143.004 25.2408H143.365L141.12 27.1246L143.443 29.0848H143.081L140.875 27.2169V29.0848L140.874 29.086Z" fill="#666666"/>
<path d="M145.872 29.086H145.604V23.9651H143.689V23.7031H147.787V23.9651H145.872V29.086Z" fill="#666666"/>
<path d="M148.978 29.086H148.709V23.7031H148.978V29.086Z" fill="#666666"/>
<path d="M151.408 28.8147C151.029 28.5812 150.729 28.2543 150.508 27.8341C150.287 27.4138 150.178 26.9343 150.178 26.3967C150.178 25.859 150.288 25.3795 150.508 24.9592C150.728 24.539 151.029 24.2121 151.408 23.9786C151.787 23.7451 152.207 23.6289 152.669 23.6289C153.233 23.6289 153.723 23.7906 154.141 24.113C154.559 24.4364 154.845 24.8772 154.998 25.4353H154.713C154.57 24.9536 154.316 24.5754 153.952 24.3009C153.588 24.0264 153.161 23.8897 152.669 23.8897C152.263 23.8897 151.891 23.9945 151.55 24.2052C151.21 24.4159 150.94 24.7098 150.743 25.0891C150.546 25.4684 150.447 25.9046 150.447 26.3967C150.447 26.8887 150.546 27.3249 150.743 27.7042C150.94 28.0835 151.209 28.3785 151.55 28.5881C151.891 28.7976 152.264 28.9036 152.669 28.9036C153.165 28.9036 153.595 28.7646 153.957 28.4878C154.318 28.2111 154.571 27.8215 154.714 27.3192H154.999C154.845 27.8933 154.559 28.3443 154.143 28.6723C153.725 29.0004 153.234 29.1644 152.67 29.1644C152.209 29.1644 151.788 29.0482 151.409 28.8147H151.408Z" fill="#666666"/>
<path d="M7.83154 12.0938C10.2337 13.7783 11.8784 16.4743 12.1426 19.5632C9.59925 17.7887 8.08668 15.0175 7.83154 12.0938Z" fill="#00DA00"/>
<path d="M7.29138 9.29492C7.03397 12.2176 5.52025 14.9899 2.97803 16.7633C3.24341 13.6732 4.88697 10.9783 7.29138 9.29492Z" fill="#00E4FF"/>
<path d="M9.44767 7.4251C6.78699 8.66318 3.63085 8.73835 0.823242 7.42282C3.63199 6.10729 6.78813 6.1836 9.44767 7.4251Z" fill="#00B199"/>
<path d="M12.1421 8.35816C9.73886 6.6736 8.0953 3.97761 7.83105 0.888672C10.3744 2.66322 11.887 5.43438 12.1421 8.35816Z" fill="#FF4937"/>
<path d="M12.6826 11.1617C12.94 8.23907 14.4537 5.46677 16.996 3.69336C16.7306 6.78344 15.087 9.47829 12.6826 11.1617Z" fill="#009FFF"/>
<path d="M10.5259 13.027C13.1866 11.7889 16.3427 11.7137 19.1503 13.0293C16.3416 14.3448 13.1854 14.2685 10.5259 13.027Z" fill="#FFC40D"/>
<path d="M24.832 19.5481V0.892578H33.1205C34.1683 0.892578 35.1194 1.14543 35.9713 1.65228C36.8244 2.15913 37.4953 2.86531 37.9839 3.7708C38.4726 4.67744 38.7163 5.70709 38.7163 6.86202C38.7163 8.01696 38.4714 9.0523 37.9839 9.96691C37.4953 10.8827 36.8244 11.5922 35.9713 12.0991C35.1182 12.6059 34.1683 12.8588 33.1205 12.8588H27.6305V19.5481H24.832ZM33.0407 10.1936C33.8403 10.1936 34.5203 9.88718 35.0795 9.2744C35.6388 8.66162 35.919 7.8575 35.919 6.86202C35.919 5.86654 35.6433 5.06811 35.0932 4.46331C34.5419 3.85964 33.8585 3.55667 33.0407 3.55667H27.6305V10.1924H33.0407V10.1936Z" fill="#666666"/>
<path d="M41.7017 19.5473V6.14258H43.9671L44.2336 7.39547H44.3669C44.6334 6.98657 44.9569 6.67563 45.3396 6.46263C45.7212 6.24964 46.2326 6.14258 46.8715 6.14258H49.2167V8.62102H47.1119C46.2234 8.62102 45.5401 8.86135 45.0594 9.34086C44.5799 9.82037 44.3396 10.5049 44.3396 11.3933V19.5485H41.7017V19.5473Z" fill="#666666"/>
<path d="M53.5349 18.9198C52.5223 18.3253 51.7261 17.4984 51.1498 16.4414C50.5723 15.3844 50.2842 14.1805 50.2842 12.8308C50.2842 11.4811 50.5723 10.3034 51.1498 9.24641C51.7273 8.18943 52.5223 7.36366 53.5349 6.76797C54.5474 6.17342 55.675 5.875 56.9188 5.875C58.1626 5.875 59.2856 6.17228 60.2902 6.76797C61.2936 7.36366 62.0841 8.18943 62.6627 9.24641C63.2402 10.3034 63.5283 11.4982 63.5283 12.8308C63.5283 14.1634 63.239 15.3856 62.6627 16.4414C62.0852 17.4984 61.2948 18.3253 60.2902 18.9198C59.2867 19.5155 58.1626 19.8128 56.9188 19.8128C55.675 19.8128 54.5474 19.5155 53.5349 18.9198ZM58.9314 16.8013C59.5442 16.4277 60.0282 15.8947 60.3836 15.2022C60.739 14.5097 60.9166 13.7192 60.9166 12.8308C60.9166 11.9424 60.739 11.1565 60.3836 10.472C60.0282 9.78857 59.5442 9.25894 58.9314 8.88649C58.3186 8.5129 57.6477 8.32724 56.9188 8.32724C56.1898 8.32724 55.5201 8.51404 54.9062 8.88649C54.2934 9.26008 53.8093 9.78857 53.454 10.472C53.0986 11.1565 52.9209 11.9424 52.9209 12.8308C52.9209 13.7192 53.0986 14.5097 53.454 15.2022C53.8093 15.8947 54.2934 16.4277 54.9062 16.8013C55.519 17.1749 56.1898 17.3606 56.9188 17.3606C57.6477 17.3606 58.3175 17.1738 58.9314 16.8013Z" fill="#666666"/>
<path d="M78.4526 19.5481H66.6196V0.892578H69.4181V16.8828H78.4526V19.5481Z" fill="#666666"/>
<path d="M83.4891 3.60859H80.6108V0.943359H83.4891V3.60859ZM83.3558 19.5453H80.7179V6.14057H83.3558V19.5453Z" fill="#666666"/>
<path d="M86.9263 19.5463V6.14152H89.1917L89.4582 7.52767H89.5915C89.9286 7.10169 90.4446 6.71899 91.1371 6.38185C91.8296 6.04471 92.6292 5.875 93.5358 5.875C94.5655 5.875 95.4858 6.11077 96.2945 6.58117C97.1031 7.05271 97.7341 7.71333 98.1863 8.56643C98.6396 9.41954 98.8663 10.3968 98.8663 11.4982V19.5463H96.2284V11.7112C96.2284 10.7522 95.9174 9.95258 95.2956 9.31247C94.6737 8.67236 93.9003 8.35344 92.9777 8.35344C92.3558 8.35344 91.7829 8.50493 91.259 8.80676C90.735 9.10973 90.3216 9.51749 90.0198 10.0323C89.7168 10.5483 89.5664 11.1075 89.5664 11.7112V19.5463H86.9285H86.9263Z" fill="#666666"/>
<path d="M105.155 19.5481H102.517V0.892578H105.155V12.246L110.672 6.14332H113.871L107.848 12.6993L114.137 19.5481H110.939L105.155 13.1789V19.5481Z" fill="#666666"/>
<path d="M123.251 19.5481H120.452V3.55781H114.589V0.892578H129.087V3.55781H123.251V19.5481Z" fill="#666666"/>
<path d="M134.551 19.5481H131.753V0.892578H134.551V19.5481Z" fill="#666666"/>
<path d="M142.292 18.5869C140.933 17.7702 139.853 16.6324 139.053 15.1756C138.254 13.7188 137.854 12.0661 137.854 10.2187C137.854 8.37127 138.254 6.71859 139.053 5.26183C139.853 3.80506 140.933 2.66835 142.292 1.85055C143.65 1.0339 145.156 0.625 146.809 0.625C148.23 0.625 149.517 0.914303 150.673 1.49177C151.828 2.06924 152.792 2.85514 153.565 3.85062C154.339 4.84609 154.875 5.95547 155.177 7.18216H152.272C151.882 6.02723 151.202 5.08984 150.234 4.37C149.266 3.65016 148.124 3.29023 146.809 3.29023C145.689 3.29023 144.658 3.57954 143.718 4.15587C142.776 4.73333 142.03 5.55113 141.479 6.60811C140.928 7.66509 140.654 8.869 140.654 10.2198C140.654 11.5707 140.929 12.7746 141.479 13.8304C142.03 14.8874 142.776 15.7052 143.718 16.2827C144.659 16.8602 145.69 17.1483 146.809 17.1483C148.158 17.1483 149.313 16.7793 150.274 16.0424C151.234 15.3054 151.899 14.3327 152.272 13.1243H155.177C154.875 14.3863 154.342 15.523 153.578 16.5355C152.813 17.5481 151.854 18.3477 150.7 18.9343C149.545 19.5208 148.247 19.8136 146.809 19.8136C145.156 19.8136 143.65 19.4047 142.292 18.588V18.5869Z" fill="#666666"/>
<path d="M87.0628 23.2709H87.8111V26.7982C87.8111 27.1173 87.7479 27.3902 87.6216 27.6169C87.4969 27.8436 87.3211 28.0169 87.0944 28.1368C86.8677 28.255 86.6021 28.3141 86.2976 28.3141C86.0174 28.3141 85.7656 28.2631 85.5421 28.1611C85.3202 28.059 85.1445 27.9109 85.0149 27.7165C84.887 27.5205 84.823 27.2825 84.823 27.0023H85.5688C85.5688 27.14 85.6004 27.259 85.6636 27.3594C85.7283 27.4598 85.8166 27.5384 85.9283 27.595C86.0417 27.6501 86.1713 27.6776 86.317 27.6776C86.4758 27.6776 86.6102 27.6444 86.7203 27.578C86.832 27.51 86.9171 27.4104 86.9754 27.2792C87.0337 27.1481 87.0628 26.9877 87.0628 26.7982V23.2709ZM92.103 23.2709H92.8561V26.5432C92.8561 26.8914 92.7743 27.1999 92.6107 27.4687C92.4472 27.7359 92.2172 27.9465 91.9208 28.1003C91.6244 28.2526 91.2771 28.3287 90.8786 28.3287C90.4819 28.3287 90.1353 28.2526 89.8389 28.1003C89.5425 27.9465 89.3126 27.7359 89.149 27.4687C88.9854 27.1999 88.9036 26.8914 88.9036 26.5432V23.2709H89.6543V26.4824C89.6543 26.7075 89.7037 26.9076 89.8025 27.0825C89.9029 27.2574 90.0446 27.395 90.2276 27.4954C90.4106 27.5942 90.6276 27.6436 90.8786 27.6436C91.1313 27.6436 91.3491 27.5942 91.5321 27.4954C91.7168 27.395 91.8577 27.2574 91.9548 27.0825C92.0536 26.9076 92.103 26.7075 92.103 26.4824V23.2709ZM93.9475 28.2461V23.2709H95.7208C96.1063 23.2709 96.4261 23.3373 96.6804 23.4701C96.9363 23.6029 97.1274 23.7867 97.2537 24.0215C97.3801 24.2548 97.4432 24.5244 97.4432 24.8305C97.4432 25.135 97.3792 25.403 97.2513 25.6346C97.125 25.8646 96.9339 26.0435 96.678 26.1715C96.4237 26.2994 96.1039 26.3634 95.7184 26.3634H94.375V25.7172H95.6504C95.8933 25.7172 96.0909 25.6824 96.2431 25.6127C96.397 25.5431 96.5096 25.4419 96.5808 25.3091C96.6521 25.1763 96.6877 25.0167 96.6877 24.8305C96.6877 24.6426 96.6513 24.4799 96.5784 24.3422C96.5071 24.2046 96.3946 24.0993 96.2407 24.0264C96.0885 23.9519 95.8885 23.9147 95.6407 23.9147H94.6981V28.2461H93.9475ZM96.4035 26.0014L97.6327 28.2461H96.7776L95.5727 26.0014H96.4035ZM99.1073 23.2709V28.2461H98.3566V23.2709H99.1073ZM98.4344 22.7729L99.0028 21.653H99.7681L99.015 22.7729H98.4344ZM101.811 28.2461H100.2V23.2709H101.862C102.35 23.2709 102.768 23.3705 103.118 23.5697C103.468 23.7673 103.736 24.0515 103.922 24.4224C104.11 24.7916 104.204 25.2346 104.204 25.7512C104.204 26.2695 104.109 26.7148 103.92 27.0873C103.732 27.4598 103.46 27.7465 103.103 27.9473C102.747 28.1465 102.316 28.2461 101.811 28.2461ZM100.951 27.5902H101.77C102.149 27.5902 102.464 27.5189 102.715 27.3764C102.966 27.2323 103.154 27.0242 103.278 26.7521C103.403 26.4784 103.465 26.1448 103.465 25.7512C103.465 25.3609 103.403 25.0297 103.278 24.7576C103.155 24.4855 102.971 24.2791 102.727 24.1382C102.482 23.9973 102.179 23.9268 101.816 23.9268H100.951V27.5902ZM105.888 23.2709V28.2461H105.137V23.2709H105.888ZM111.113 24.8888H110.356C110.326 24.7269 110.272 24.5843 110.193 24.4612C110.113 24.3382 110.016 24.2337 109.901 24.1479C109.786 24.062 109.658 23.9973 109.515 23.9535C109.374 23.9098 109.224 23.8879 109.066 23.8879C108.779 23.8879 108.522 23.96 108.295 24.1041C108.07 24.2483 107.892 24.4596 107.761 24.7382C107.631 25.0167 107.567 25.3569 107.567 25.7585C107.567 26.1634 107.631 26.5051 107.761 26.7837C107.892 27.0622 108.071 27.2728 108.298 27.4153C108.525 27.5578 108.78 27.6291 109.063 27.6291C109.22 27.6291 109.369 27.608 109.51 27.5659C109.653 27.5222 109.781 27.4582 109.896 27.374C110.011 27.2898 110.109 27.1869 110.188 27.0655C110.269 26.9424 110.325 26.8015 110.356 26.6428L111.113 26.6452C111.073 26.8897 110.994 27.1149 110.878 27.3205C110.763 27.5246 110.615 27.7011 110.433 27.8501C110.254 27.9975 110.048 28.1117 109.816 28.1926C109.585 28.2736 109.332 28.3141 109.058 28.3141C108.627 28.3141 108.244 28.2121 107.907 28.008C107.57 27.8023 107.304 27.5084 107.11 27.1262C106.917 26.744 106.821 26.2881 106.821 25.7585C106.821 25.2273 106.918 24.7714 107.112 24.3908C107.307 24.0086 107.572 23.7155 107.909 23.5114C108.246 23.3057 108.629 23.2029 109.058 23.2029C109.322 23.2029 109.568 23.2409 109.797 23.3171C110.027 23.3915 110.233 23.5017 110.416 23.6474C110.599 23.7916 110.751 23.9681 110.871 24.177C110.99 24.3843 111.071 24.6216 111.113 24.8888ZM116.333 25.7585C116.333 26.2897 116.236 26.7464 116.042 27.1286C115.848 27.5092 115.581 27.8023 115.243 28.008C114.906 28.2121 114.523 28.3141 114.094 28.3141C113.663 28.3141 113.278 28.2121 112.94 28.008C112.603 27.8023 112.337 27.5084 112.143 27.1262C111.949 26.744 111.851 26.2881 111.851 25.7585C111.851 25.2273 111.949 24.7714 112.143 24.3908C112.337 24.0086 112.603 23.7155 112.94 23.5114C113.278 23.3057 113.663 23.2029 114.094 23.2029C114.523 23.2029 114.906 23.3057 115.243 23.5114C115.581 23.7155 115.848 24.0086 116.042 24.3908C116.236 24.7714 116.333 25.2273 116.333 25.7585ZM115.59 25.7585C115.59 25.3536 115.524 25.0127 115.393 24.7358C115.264 24.4572 115.086 24.2467 114.859 24.1041C114.634 23.96 114.379 23.8879 114.094 23.8879C113.807 23.8879 113.551 23.96 113.326 24.1041C113.101 24.2467 112.923 24.4572 112.792 24.7358C112.662 25.0127 112.597 25.3536 112.597 25.7585C112.597 26.1634 112.662 26.5051 112.792 26.7837C112.923 27.0606 113.101 27.2711 113.326 27.4153C113.551 27.5578 113.807 27.6291 114.094 27.6291C114.379 27.6291 114.634 27.5578 114.859 27.4153C115.086 27.2711 115.264 27.0606 115.393 26.7837C115.524 26.5051 115.59 26.1634 115.59 25.7585Z" fill="#006AFF"/>
</svg>
