<svg xmlns="http://www.w3.org/2000/svg" width="36" height="35" viewBox="0 0 36 35" fill="none"><path d="M9.43312 5.92131C9.32551 5.78288 9.18967 5.66894 9.03464 5.58704C8.87961 5.50515 8.70893 5.45717 8.53393 5.44631C8.35893 5.43545 8.18363 5.46195 8.01966 5.52404C7.85569 5.58614 7.70681 5.68241 7.5829 5.80647L5.69805 7.69314C4.81761 8.57541 4.49313 9.82408 4.87776 10.9196C6.47412 15.4542 9.0709 19.5712 12.4755 22.9652C15.8695 26.3697 19.9865 28.9665 24.521 30.5629C25.6166 30.9475 26.8652 30.6231 27.7475 29.7426L29.6324 27.8578C29.7564 27.7339 29.8527 27.585 29.9148 27.421C29.9769 27.257 30.0034 27.0817 29.9925 26.9067C29.9817 26.7317 29.9337 26.561 29.8518 26.406C29.7699 26.251 29.656 26.1151 29.5175 26.0075L25.3122 22.7373C25.1643 22.6226 24.9923 22.543 24.8091 22.5045C24.626 22.4659 24.4365 22.4695 24.2549 22.5149L20.2628 23.512C19.7299 23.6452 19.1717 23.6381 18.6424 23.4915C18.113 23.3449 17.6307 23.0637 17.2423 22.6753L12.7653 18.1965C12.3766 17.8083 12.0951 17.3261 11.9482 16.7967C11.8012 16.2674 11.7939 15.7091 11.9268 15.176L12.9257 11.1839C12.9711 11.0024 12.9747 10.8129 12.9362 10.6297C12.8977 10.4466 12.8181 10.2746 12.7034 10.1267L9.43312 5.92131ZM6.20663 4.43203C6.52563 4.11293 6.90886 3.86535 7.33087 3.70572C7.75289 3.5461 8.20403 3.47807 8.65435 3.50618C9.10467 3.53428 9.54386 3.65786 9.94276 3.86872C10.3417 4.07957 10.6911 4.37288 10.968 4.72915L14.2382 8.9327C14.8379 9.70377 15.0494 10.7082 14.8124 11.6561L13.8153 15.6482C13.7638 15.8549 13.7665 16.0715 13.8234 16.2769C13.8802 16.4823 13.9892 16.6694 14.1398 16.8203L18.6186 21.2991C18.7696 21.4499 18.9571 21.5591 19.1628 21.6159C19.3685 21.6728 19.5855 21.6754 19.7925 21.6235L23.7828 20.6264C24.2505 20.5095 24.7388 20.5004 25.2106 20.5999C25.6824 20.6993 26.1254 20.9048 26.5061 21.2006L30.7097 24.4709C32.2208 25.6466 32.3594 27.8796 31.0068 29.2304L29.122 31.1152C27.773 32.4642 25.7569 33.0566 23.8776 32.3949C19.0673 30.7024 14.6999 27.9486 11.0992 24.3378C7.48864 20.7376 4.73486 16.3709 3.04213 11.5613C2.38225 9.68372 2.97468 7.6658 4.32361 6.31687L6.20846 4.43203H6.20663Z" fill="#006AFF"></path></svg>