<svg xmlns="http://www.w3.org/2000/svg" width="32" height="33" viewBox="0 0 32 33" fill="none"><g clip-path="url(#clip0_1390_1421)"><path d="M16.0001 31.3572C19.3343 31.3572 22.5319 30.0327 24.8895 27.6751C27.2471 25.3175 28.5716 22.1199 28.5716 18.7858C28.5716 15.4516 27.2471 12.254 24.8895 9.89644C22.5319 7.53884 19.3343 6.21436 16.0001 6.21436C12.666 6.21436 9.4684 7.53884 7.1108 9.89644C4.7532 12.254 3.42871 15.4516 3.42871 18.7858C3.42871 22.1199 4.7532 25.3175 7.1108 27.6751C9.4684 30.0327 12.666 31.3572 16.0001 31.3572Z" fill="#C8DFFF"></path><path d="M16.0001 31.3572C19.3343 31.3572 22.5319 30.0327 24.8895 27.6751C27.2471 25.3175 28.5716 22.1199 28.5716 18.7858C28.5716 15.4516 27.2471 12.254 24.8895 9.89644C22.5319 7.53884 19.3343 6.21436 16.0001 6.21436C12.666 6.21436 9.4684 7.53884 7.1108 9.89644C4.7532 12.254 3.42871 15.4516 3.42871 18.7858C3.42871 22.1199 4.7532 25.3175 7.1108 27.6751C9.4684 30.0327 12.666 31.3572 16.0001 31.3572Z" stroke="#006AFF" stroke-width="2" stroke-linecap="round" stroke-linejoin="round"></path><path d="M1.14258 6.21425C2.74778 4.34969 4.68542 2.79958 6.85686 1.64282" stroke="#006AFF" stroke-width="2" stroke-linecap="round" stroke-linejoin="round"></path><path d="M30.8569 6.21425C29.2517 4.34969 27.314 2.79958 25.1426 1.64282" stroke="#006AFF" stroke-width="2" stroke-linecap="round" stroke-linejoin="round"></path><path d="M16 11.9285V18.7856H21.7143" stroke="#006AFF" stroke-width="2" stroke-linecap="round" stroke-linejoin="round"></path></g><defs><clipPath id="clip0_1390_1421"><rect width="32" height="32" fill="white" transform="translate(0 0.5)"></rect></clipPath></defs></svg>