<svg xmlns="http://www.w3.org/2000/svg" width="32" height="33" viewBox="0 0 32 33" fill="none"><path d="M1.81278 30.6873C1.3841 30.2587 1.1432 29.6775 1.14307 29.0713V13.0713H30.8574V29.0713C30.8574 29.6775 30.6165 30.2589 30.1879 30.6875C29.7592 31.1162 29.1779 31.357 28.5716 31.357H3.42878C2.82262 31.3569 2.24134 31.116 1.81278 30.6873Z" fill="#C8DFFF"></path><path d="M1.81278 5.741C2.24134 5.31232 2.82262 5.07142 3.42878 5.07129H28.5716C29.1779 5.07129 29.7592 5.3121 30.1879 5.74076C30.6165 6.16941 30.8574 6.75079 30.8574 7.357V13.0713H1.14307V7.357C1.1432 6.75084 1.3841 6.16956 1.81278 5.741Z" fill="white"></path><path d="M3.42878 5.07129C2.82257 5.07129 2.24119 5.3121 1.81254 5.74076C1.38388 6.16941 1.14307 6.75079 1.14307 7.357V29.0713C1.14307 29.6775 1.38388 30.2589 1.81254 30.6875C2.24119 31.1162 2.82257 31.357 3.42878 31.357H28.5716C29.1779 31.357 29.7592 31.1162 30.1879 30.6875C30.6165 30.2589 30.8574 29.6775 30.8574 29.0713V7.357C30.8574 6.75079 30.6165 6.16941 30.1879 5.74076C29.7592 5.3121 29.1779 5.07129 28.5716 5.07129H24.0002" stroke="#006AFF" stroke-width="2" stroke-linecap="round" stroke-linejoin="round"></path><path d="M1.14307 13.0713H30.8574" stroke="#006AFF" stroke-width="2" stroke-linecap="round" stroke-linejoin="round"></path><path d="M8 1.64282V8.49996" stroke="#006AFF" stroke-width="2" stroke-linecap="round" stroke-linejoin="round"></path><path d="M24 1.64282V8.49996" stroke="#006AFF" stroke-width="2" stroke-linecap="round" stroke-linejoin="round"></path><path d="M8 5.07129H19.4286" stroke="#006AFF" stroke-width="2" stroke-linecap="round" stroke-linejoin="round"></path></svg>