<svg width="33" height="32" viewBox="0 0 33 32" fill="none" xmlns="http://www.w3.org/2000/svg">
<path d="M16.0492 29.3333C14.2047 29.3333 12.4714 28.9833 10.8492 28.2833C9.22693 27.5833 7.81582 26.6333 6.61582 25.4333C5.41582 24.2333 4.46582 22.8222 3.76582 21.2C3.06582 19.5778 2.71582 17.8444 2.71582 16C2.71582 14.1556 3.06582 12.4222 3.76582 10.8C4.46582 9.17778 5.41582 7.76667 6.61582 6.56667C7.81582 5.36667 9.22693 4.41667 10.8492 3.71667C12.4714 3.01667 14.2047 2.66667 16.0492 2.66667C17.4936 2.66667 18.8603 2.87778 20.1492 3.30001C21.438 3.72223 22.6269 4.31112 23.7158 5.06667L21.7825 7.03334C20.938 6.5 20.038 6.08334 19.0825 5.78334C18.1269 5.48334 17.1158 5.33334 16.0492 5.33334C13.0936 5.33334 10.5769 6.37223 8.49915 8.45C6.42138 10.5278 5.38249 13.0444 5.38249 16C5.38249 18.9556 6.42138 21.4722 8.49915 23.55C10.5769 25.6278 13.0936 26.6667 16.0492 26.6667C19.0047 26.6667 21.5214 25.6278 23.5992 23.55C25.6769 21.4722 26.7158 18.9556 26.7158 16C26.7158 15.6 26.6936 15.2 26.6492 14.8C26.6047 14.4 26.538 14.0111 26.4492 13.6333L28.6158 11.4667C28.8603 12.1778 29.0492 12.9111 29.1825 13.6667C29.3158 14.4222 29.3825 15.2 29.3825 16C29.3825 17.8444 29.0325 19.5778 28.3325 21.2C27.6325 22.8222 26.6825 24.2333 25.4825 25.4333C24.2825 26.6333 22.8714 27.5833 21.2492 28.2833C19.6269 28.9833 17.8936 29.3333 16.0492 29.3333ZM14.1825 22.1333L8.51582 16.4667L10.3825 14.6L14.1825 18.4L27.5158 5.03334L29.3825 6.9L14.1825 22.1333Z" fill="#92A240"/>
</svg>
