<svg width="180" height="164" viewBox="0 0 180 164" fill="none" xmlns="http://www.w3.org/2000/svg">
<g clip-path="url(#clip0_132_14600)">
<path d="M19.1985 139.317C19.1985 136.823 19.0286 132.598 10.3483 132.598C7.01164 132.598 2.2052 133.42 1.21515 138.325H5.51311C5.76735 137.36 6.55976 135.944 10.3761 135.944C13.7972 135.944 15.0415 136.935 15.0415 138.297V139.118C9.24505 139.43 0.197266 140.308 0.197266 146.405C0.197266 150.828 4.7773 151.849 7.1536 151.849C10.7157 151.849 13.2888 150.431 15.0425 149.411C15.0425 150.034 15.1269 150.629 15.2689 151.225H19.539C19.256 150.715 19.1994 149.524 19.1994 148.305V139.318L19.1985 139.317ZM15.0415 146.264C13.4298 147.227 10.9134 148.617 7.77529 148.617C5.73951 148.617 4.72162 147.624 4.74946 146.093C4.7773 144.505 5.99375 143.655 8.56584 143.032C10.5172 142.578 12.6374 142.238 15.0406 142.125V146.265L15.0415 146.264Z" fill="white"/>
<path d="M36.6727 144.789C36.3053 146.405 34.4959 148.275 30.9329 148.275C26.9467 148.275 25.0807 145.385 25.0807 141.925C25.0807 139.034 27.3429 136.141 31.2446 136.141C34.3837 136.141 36.1364 137.955 36.5605 139.402H40.6886C40.4056 136.34 37.5784 132.57 30.9904 132.598C24.6001 132.626 20.8672 137.021 20.8672 141.755C20.8672 149.013 25.5892 151.848 31.3578 151.848C37.9458 151.848 40.4622 147.312 41.0282 144.789H36.6727Z" fill="white"/>
<path d="M60.5083 133.193H56.3801V145.61C55.3335 146.886 54.0057 148.275 50.6681 148.275C47.8974 148.275 46.8229 146.772 46.8229 143.201V133.193H42.666V144.761C42.666 150.26 45.9461 151.848 49.7068 151.848C53.4675 151.848 55.1915 150.26 56.4358 148.985V151.224H60.5073V133.193H60.5083Z" fill="white"/>
<path d="M66.6163 140.139C67.4644 136.681 69.9808 135.944 72.1585 135.944C75.1277 135.944 77.2201 137.106 77.8418 140.139H66.6172H66.6163ZM77.389 145.81C76.7673 147.227 75.0424 148.475 72.4128 148.475C67.2946 148.275 66.6729 144.505 66.5031 143.371H82.252C82.252 136.851 79.0286 132.654 72.243 132.598C65.6272 132.598 62.2617 137.049 62.2617 142.153C62.2617 147.795 66.1356 151.849 72.5538 151.849C78.972 151.849 81.6294 147.313 81.9412 145.81H77.389Z" fill="white"/>
<path d="M99.4437 151.224H103.543V126.814H99.3871V135.064C97.6046 133.787 95.9363 132.597 92.4873 132.597C86.5498 132.597 82.8457 136.623 82.8457 142.094C82.8457 148.219 87.2281 151.847 92.3175 151.847C96.4457 151.847 98.5102 149.806 99.4427 148.899V151.223L99.4437 151.224ZM99.3871 145.668C97.7744 146.887 96.1061 148.275 93.251 148.275C90.0554 148.275 87.0592 146.206 87.0592 142.238C87.0592 138.27 90.2252 136.142 93.393 136.142C96.5607 136.142 98.1149 137.588 99.388 138.637V145.668H99.3871Z" fill="white"/>
<path d="M124.381 133.193H120.225V145.61C119.179 146.886 117.85 148.275 114.542 148.275C111.743 148.275 110.669 146.772 110.669 143.201V133.193H106.512V144.761C106.512 150.26 109.82 151.848 113.552 151.848C117.285 151.848 119.038 150.26 120.282 148.985V151.224H124.382V133.193H124.381Z" fill="white"/>
<path d="M141.828 144.789C141.46 146.405 139.65 148.275 136.059 148.275C132.101 148.275 130.235 145.385 130.235 141.925C130.235 139.034 132.497 136.141 136.399 136.141C139.509 136.141 141.291 137.955 141.686 139.402H145.842C145.559 136.34 142.732 132.57 136.144 132.598C129.753 132.626 126.021 137.021 126.021 141.755C126.021 149.013 130.743 151.848 136.511 151.848C143.099 151.848 145.616 147.312 146.182 144.789H141.828Z" fill="white"/>
<path d="M145.872 137.36H149.095V146.603C149.095 150.544 151.271 151.848 155.231 151.848C156.701 151.848 157.663 151.706 159.726 151.422V147.765C158.653 148.077 156.956 148.274 156.164 148.274C153.76 148.274 153.251 146.886 153.251 145.61V137.36H159.5V133.788H153.251V127.92H149.095V133.788H145.871V137.36H145.872Z" fill="white"/>
<path d="M169.934 151.848C174.854 151.848 180.001 149.382 180.001 142.208C180.001 137.36 177.087 132.597 169.934 132.597C162.781 132.597 159.84 137.359 159.84 142.208C159.84 149.382 165.015 151.848 169.934 151.848ZM169.934 148.274C166.201 148.274 164.081 145.951 164.081 142.123C164.081 137.899 166.739 136.14 169.934 136.14C173.13 136.14 175.786 137.899 175.786 142.123C175.786 145.95 173.638 148.274 169.934 148.274Z" fill="white"/>
<path d="M4.94469 162.437H1.59317L0.896335 163.866H0L2.82076 158.376H3.7171L6.53786 163.866H5.64153L4.94469 162.437ZM4.64591 161.804L3.28563 159.042L1.89195 161.804H4.64591Z" fill="white"/>
<path d="M10.3865 161.006H12.9085V163.468C12.477 163.668 12.013 163.802 11.5816 163.901C11.1501 163.968 10.7187 164.001 10.2872 164.001C9.19228 164.001 8.36276 163.735 7.86448 163.136C7.33373 162.571 7.06836 161.906 7.06836 161.139V160.974C7.06836 160.907 7.06836 160.84 7.10084 160.808C7.16671 160.143 7.43302 159.577 7.89789 159.044C8.39616 158.512 9.15888 158.246 10.1879 158.246C10.9515 158.246 11.5816 158.377 12.0465 158.612C12.5113 158.878 12.7767 159.276 12.876 159.809H12.0465C11.9462 159.477 11.7477 159.21 11.4155 159.078C11.0833 158.944 10.7187 158.878 10.2538 158.878C9.49013 158.878 8.92691 159.111 8.49544 159.543C8.09738 159.976 7.89789 160.508 7.89789 161.139C7.89789 161.771 8.09738 162.271 8.52885 162.704C8.92691 163.17 9.52354 163.402 10.3206 163.402C10.4208 163.402 10.5535 163.402 10.6528 163.37C10.7855 163.37 10.8847 163.37 10.985 163.337C11.1844 163.303 11.3839 163.271 11.5825 163.238C11.7811 163.171 11.9806 163.104 12.1467 163.037V161.64H10.3874V161.008L10.3865 161.006Z" fill="white"/>
<path d="M18.8173 161.704V158.376H19.6135V161.67C19.6135 162.437 19.3815 163.035 18.8832 163.434C18.4183 163.801 17.8217 163.999 17.0581 163.999C16.2944 163.999 15.7303 163.8 15.232 163.434C14.7671 163.035 14.5352 162.436 14.5352 161.67V158.376H15.2979V161.704C15.2979 162.236 15.464 162.636 15.7627 162.935C16.0615 163.236 16.493 163.4 17.0571 163.4C17.6213 163.4 18.0518 163.235 18.3515 162.935C18.6837 162.636 18.8164 162.236 18.8164 161.704H18.8173Z" fill="white"/>
<path d="M25.1554 162.437H21.8039L21.1071 163.866H20.2441L23.0315 158.376H23.9612L26.7811 163.866H25.8523L25.1554 162.437ZM24.8566 161.804L23.4964 159.042L22.1352 161.804H24.8566Z" fill="white"/>
<path d="M43.9728 162.437H40.6203L39.9235 163.866H39.0605L41.8479 158.376H42.7776L45.565 163.866H44.6687L43.9718 162.437H43.9728ZM43.674 161.804L42.3137 159.042L40.9534 161.804H43.6749H43.674Z" fill="white"/>
<path d="M46.5938 158.376H47.3565V163.236H50.5094V163.866H46.5938V158.376Z" fill="white"/>
<path d="M56.0522 162.337H56.9151C56.8492 162.935 56.5504 163.368 56.0188 163.635C55.5205 163.867 54.9563 164.001 54.2595 164.001C53.2973 164.001 52.567 163.702 52.1031 163.136C51.6382 162.571 51.4062 161.906 51.4062 161.139C51.4062 161.041 51.4397 160.94 51.4397 160.84C51.4397 160.741 51.4397 160.64 51.4731 160.542C51.5733 159.976 51.8711 159.444 52.336 158.977C52.8009 158.478 53.5302 158.246 54.4924 158.246C55.1233 158.246 55.6875 158.412 56.118 158.711C56.5829 159.01 56.8149 159.376 56.8483 159.841H55.9519C55.8861 159.476 55.72 159.241 55.4203 159.077C55.1549 158.943 54.8236 158.877 54.4256 158.877C53.7946 158.877 53.2973 159.077 52.8658 159.442C52.4677 159.807 52.2683 160.373 52.2683 161.138C52.2683 161.904 52.4677 162.47 52.8658 162.836C53.2963 163.202 53.7946 163.401 54.4256 163.401C54.7912 163.401 55.1558 163.302 55.4546 163.135C55.7859 162.969 55.9854 162.703 56.0512 162.337H56.0522Z" fill="white"/>
<path d="M62.4564 162.437H59.1049L58.4081 163.866H57.5117L60.3325 158.376H61.2279L64.0487 163.866H63.1523L62.4555 162.437H62.4564ZM62.1586 161.804L60.7983 159.042L59.4046 161.804H62.1595H62.1586Z" fill="white"/>
<path d="M69.3262 158.376H70.0899V163.866H69.0275L65.676 159.209V163.866H64.8789V158.376H65.9747L69.2928 163.068H69.3262V158.376Z" fill="white"/>
<path d="M73.2421 159.042H70.9512V158.376H76.3607V159.042H74.0382V163.866H73.2421V159.042Z" fill="white"/>
<path d="M80.9085 162.437H77.5561L76.8592 163.866H75.9629L78.7837 158.376H79.7125L82.4998 163.866H81.6035L80.9067 162.437H80.9085ZM80.6097 161.804L79.2495 159.042L77.8882 161.804H80.6097Z" fill="white"/>
<path d="M84.1262 163.866H83.3301V158.376H86.0182C86.8468 158.41 87.4118 158.543 87.6772 158.775C87.9426 159.042 88.0762 159.408 88.0762 159.84C88.0762 160.172 87.976 160.473 87.744 160.705C87.512 160.905 87.2133 161.073 86.8152 161.105V161.137C87.1808 161.17 87.4462 161.305 87.5789 161.471C87.7106 161.67 87.8442 161.97 87.9101 162.437C87.9101 162.502 87.9101 162.569 87.9426 162.636V162.802C87.976 163.035 88.0094 163.201 88.0762 163.4C88.1087 163.567 88.1421 163.734 88.2089 163.866H87.3794C87.346 163.767 87.3126 163.666 87.2791 163.5C87.2467 163.367 87.2133 163.234 87.1808 163.067C87.1808 163.001 87.1808 162.934 87.1465 162.868C87.1465 162.801 87.114 162.735 87.114 162.668C87.114 162.568 87.0806 162.468 87.0481 162.369C87.0481 162.269 87.0147 162.169 87.0147 162.102C86.9488 161.903 86.8486 161.736 86.6825 161.603C86.484 161.47 86.1518 161.437 85.6201 161.437H84.1271V163.866L84.1262 163.866ZM84.1262 160.806H85.9189C86.3169 160.806 86.6491 160.739 86.8811 160.605C87.1131 160.507 87.2457 160.274 87.2457 159.907C87.2457 159.574 87.1455 159.342 86.947 159.208C86.7484 159.076 86.3828 159.008 85.9179 159.008H84.1253V160.805L84.1262 160.806Z" fill="white"/>
<path d="M90.2668 158.376H89.4707V163.866H90.2668V158.376Z" fill="white"/>
<path d="M91.8926 158.376H92.6887V163.236H95.8407V163.866H91.8926V158.376Z" fill="white"/>
<path d="M96.9375 158.376H97.7336V163.236H100.887V163.866H96.9375V158.376Z" fill="white"/>
<path d="M106.096 162.437H102.744L102.047 163.866H101.15L103.971 158.376H104.9L107.687 163.866H106.792L106.095 162.437H106.096ZM105.797 161.804L104.437 159.042L103.077 161.804H105.798H105.797Z" fill="white"/>
<path d="M108.553 158.376H110.677C111.904 158.41 112.735 158.643 113.232 159.143C113.696 159.608 113.929 160.306 113.929 161.205C113.929 162.037 113.664 162.703 113.165 163.169C112.634 163.634 111.872 163.866 110.809 163.866H108.553V158.376ZM109.349 163.236H110.843C111.738 163.236 112.336 163.035 112.634 162.603C112.967 162.171 113.099 161.671 113.099 161.138C113.099 160.407 112.932 159.908 112.569 159.542C112.203 159.176 111.573 159.009 110.643 159.009H109.349V163.236Z" fill="white"/>
<path d="M115.055 161.138C115.055 161.04 115.055 160.939 115.087 160.839C115.087 160.74 115.087 160.639 115.121 160.541C115.22 159.975 115.519 159.443 115.983 158.976C116.448 158.477 117.145 158.245 118.141 158.245C119.136 158.245 119.833 158.477 120.297 158.976C120.762 159.442 121.061 159.975 121.16 160.541C121.16 160.639 121.194 160.74 121.194 160.839V161.439C121.194 161.539 121.16 161.639 121.16 161.738C121.061 162.303 120.762 162.836 120.297 163.302C119.833 163.768 119.103 164.001 118.141 164.001C117.179 164.001 116.448 163.769 115.983 163.302C115.519 162.837 115.22 162.304 115.121 161.738C115.087 161.638 115.087 161.538 115.087 161.439C115.055 161.34 115.055 161.239 115.055 161.139V161.138ZM115.884 161.138C115.884 161.805 116.116 162.337 116.515 162.769C116.946 163.169 117.478 163.4 118.141 163.4C118.803 163.4 119.336 163.169 119.733 162.769C120.165 162.336 120.364 161.804 120.364 161.138C120.364 160.473 120.165 159.908 119.733 159.508C119.335 159.076 118.804 158.876 118.141 158.876C117.477 158.876 116.945 159.076 116.515 159.508C116.117 159.907 115.884 160.474 115.884 161.138Z" fill="white"/>
<path d="M32.1896 163.866V161.571L29.5684 158.376H30.5965L32.5543 160.939L34.5465 158.376H35.5411L32.9533 161.571V163.866H32.1896Z" fill="white"/>
<path d="M175.387 158.045H176.581L177.809 156.979H176.251L175.387 158.045Z" fill="white"/>
<path d="M140.242 163.866H143.494C145.22 163.866 145.751 163.068 145.751 162.337C145.751 161.606 145.186 161.105 144.357 161.04V161.006C145.054 160.839 145.519 160.373 145.519 159.741C145.519 159.042 144.921 158.376 143.462 158.376H140.243V163.866H140.242ZM141.802 161.604H143.296C143.694 161.604 144.092 161.771 144.092 162.236C144.092 162.702 143.726 162.836 143.229 162.836H141.802V161.604ZM141.802 159.408H142.93C143.527 159.408 143.859 159.574 143.859 160.007C143.859 160.441 143.461 160.638 142.798 160.638H141.802V159.409V159.408Z" fill="white"/>
<path d="M148.042 161.138C148.042 160.173 148.44 159.375 149.668 159.375C150.897 159.375 151.26 160.173 151.26 161.138C151.26 162.104 150.862 162.903 149.668 162.903C148.475 162.903 148.042 162.104 148.042 161.138ZM146.416 161.138C146.416 162.769 147.378 164 149.669 164C151.96 164 152.92 162.769 152.92 161.138C152.92 159.507 151.958 158.245 149.669 158.245C147.38 158.245 146.416 159.476 146.416 161.138Z" fill="white"/>
<path d="M156.769 161.871H158.196V162.802C157.898 162.869 157.465 162.934 157.068 162.934C155.807 162.934 155.143 162.302 155.143 161.104C155.143 160.106 155.608 159.307 156.869 159.307C157.533 159.307 158.063 159.541 158.097 160.14H159.723C159.69 158.675 158.229 158.243 156.869 158.243C154.844 158.243 153.518 159.142 153.518 161.236C153.518 163.331 155.01 163.998 156.968 163.998C157.865 163.998 158.761 163.899 159.656 163.766V160.838H156.77V161.87L156.769 161.871Z" fill="white"/>
<path d="M162.213 161.138C162.213 160.173 162.611 159.375 163.839 159.375C165.068 159.375 165.431 160.173 165.431 161.138C165.431 162.104 165.033 162.903 163.839 162.903C162.645 162.903 162.213 162.104 162.213 161.138ZM160.586 161.138C160.586 162.769 161.549 164 163.838 164C166.127 164 167.09 162.769 167.09 161.138C167.09 159.507 166.127 158.245 163.838 158.245C161.549 158.245 160.586 159.476 160.586 161.138Z" fill="white"/>
<path d="M169.381 163.866H170.974V159.508H173.063V158.376H167.289V159.508H169.381V163.866Z" fill="white"/>
<path d="M177.245 161.771H175.021L176.149 159.442L177.245 161.771ZM172.367 163.866H174.027L174.558 162.769H177.71L178.241 163.866H180L177.179 158.376H175.287L172.368 163.866H172.367Z" fill="white"/>
<path d="M125.012 158.376H127.135C128.363 158.41 129.192 158.643 129.69 159.143C130.156 159.608 130.387 160.306 130.387 161.205C130.387 162.037 130.156 162.703 129.624 163.169C129.093 163.634 128.33 163.866 127.267 163.866H125.012V158.376ZM125.808 163.236H127.302C128.198 163.236 128.795 163.035 129.093 162.603C129.426 162.171 129.558 161.671 129.558 161.138C129.558 160.407 129.392 159.908 129.027 159.542C128.662 159.176 128.031 159.009 127.102 159.009H125.808V163.236Z" fill="white"/>
<path d="M131.779 158.376H135.862V159.009H132.576V160.74H135.662V161.372H132.576V163.236H135.962V163.866H131.779V158.376Z" fill="white"/>
<path d="M141.149 21.0735C145.481 24.3215 148.674 30.1593 148.183 37.6235C147.687 45.177 144.826 49.8425 141.149 52.0131V46.8381C143.855 45.0801 145.975 41.4637 146.342 35.9069C146.717 30.2186 144.345 25.537 141.149 22.8775V21.0745V21.0735ZM141.149 103.384V100.775L164.972 101.703C165.282 101.708 167.023 101.759 166.649 102.571C166.397 103.124 165.027 103.114 164.612 103.1L141.149 103.383V103.384ZM141.149 81.4411V79.2009C141.758 79.1013 142.412 79.0684 143.119 79.1191C144.121 79.1925 144.98 79.5732 145 80.2218C145.025 81.097 143.665 81.1497 143.109 81.1102C142.37 81.0566 141.719 81.1798 141.15 81.4411H141.149ZM141.149 77.6385L141.217 77.6808C143.129 78.807 144.075 76.5791 144.72 75.2714C150.105 76.9664 154.479 79.7264 156.92 83.8994C158.152 86.0108 160.764 85.0143 159.548 82.9415C156.68 78.0371 151.758 74.7497 145.872 72.6928C147.308 69.05 148.104 65.0171 146.849 62.2627C145.827 60.0122 145.026 58.2815 144.476 57.0914C153.769 52.8498 162.246 46.6303 168.495 37.7955C168.8 37.3603 169.502 36.1382 168.755 35.717C168.065 35.326 167.225 36.3723 166.923 36.8376C161.454 45.2155 153.167 51.2188 143.544 55.1107C142.823 53.6009 141.608 53.4327 141.149 54.1321V55.6775C141.177 55.7612 141.217 55.8439 141.257 55.9295L141.382 56.1974L141.149 56.2876V58.5118C141.517 58.3624 141.887 58.212 142.257 58.0587C142.797 59.2301 143.564 60.8865 144.529 63.0167C145.17 64.4174 144.09 67.9267 142.333 71.623C141.942 71.5243 141.548 71.4275 141.149 71.3372V77.6404V77.6385ZM141.149 42.1227C142.758 40.6026 144.244 36.6073 144.081 33.3913C143.955 30.964 142.529 27.7668 141.149 26.0136V42.1227ZM136.708 18.7854C138.254 19.2611 139.757 20.0329 141.149 21.0735V22.8766C139.765 21.7354 138.239 20.9664 136.708 20.6571V18.7854ZM141.149 52.0122C139.757 52.8319 138.251 53.2954 136.708 53.428V48.0893C138.239 48.1438 139.765 47.7321 141.149 46.8381V52.0131V52.0122ZM141.149 26.0136V42.1227C140.762 42.4855 140.372 42.7083 139.996 42.7478C138.911 42.6594 138.284 37.7871 138.23 34.0954C138.174 30.5786 138.316 25.1469 139.651 24.7502C140.096 24.8771 140.618 25.3386 141.149 26.0136ZM141.149 54.1311V55.6766C140.887 54.9969 140.926 54.4667 141.149 54.1311ZM141.149 56.2867V58.5109C139.682 59.0947 138.2 59.6352 136.708 60.1297V57.8359C138.21 57.3621 139.691 56.847 141.149 56.2867ZM141.149 71.3354V77.6385C140.391 77.1478 139.922 76.1335 140.535 75.0627L140.966 74.2881C139.591 73.9939 138.165 73.756 136.708 73.5718V70.4968C138.214 70.7196 139.7 70.9997 141.149 71.3344V71.3354ZM141.149 79.2009V81.4411C137.495 83.1154 137.195 90.4893 137.045 93.7429C136.933 96 136.914 98.352 136.89 100.613L141.149 100.776V103.385L136.944 103.435C136.879 104.821 136.814 106.157 136.708 107.383V81.7983C137.849 80.4381 139.3 79.4989 141.149 79.2019V79.2009ZM136.708 16.6562V15.7274C136.853 16.0442 136.844 16.3638 136.708 16.6562ZM121.365 34.3539C121.766 20.7342 129.602 16.5932 136.708 18.7854V20.6571C132.035 19.7151 127.366 23.0505 127.075 33.0059C126.79 42.7544 131.744 47.8947 136.708 48.0884V53.427C129.251 54.0569 121 46.886 121.365 34.353V34.3539ZM136.708 15.7274C136.543 15.3664 136.168 15.012 135.547 14.7065C132.015 12.9795 127.971 13.505 124.739 15.7396C123.418 16.6505 122.397 17.5586 121.507 18.3549C120.615 19.1492 119.876 19.8073 119.089 20.2585C117.557 21.1328 115.786 21.2653 112.24 19.7433C103.931 16.1758 91.6228 15.9737 82.8293 16.2773C81.9793 16.3027 79.5177 16.6223 78.7271 16.3807C78.0516 16.173 77.5608 15.5422 76.2896 13.5182C73.1923 8.60915 67.2984 -1.96194 60.2706 0.316792V1.59341C65.4306 0.854512 71.4553 10.5805 73.6228 14.0033C75.3886 16.8178 76.4093 18.7384 80.2544 18.6679C91.222 18.462 100.609 18.9161 110.759 23.278C114.948 25.0773 117.635 25.4045 120.182 24.0592C122.404 22.8898 124.155 20.8846 126.096 19.3194C128.09 17.7156 130.02 16.6834 132.087 17.4421C134.365 18.2768 136.251 17.6244 136.711 16.6552V15.7264L136.708 15.7274ZM136.708 57.8359C122.057 62.4695 105.557 63.1793 92.1267 61.3386C83.374 60.141 70.7288 54.431 60.2687 48.6515V53.7513C69.8575 58.2214 80.6209 62.039 88.4977 63.5459C100.398 65.8284 119.264 65.9356 136.707 60.1297V57.8359H136.708ZM136.708 70.4968V73.5718C124.102 71.9633 109.302 74.2703 101.204 77.1572C99.1424 77.8905 89.7058 83.262 93.1232 86.4122C101.715 94.3408 113.415 85.1093 107.85 80.8404C107.059 80.2369 106.569 79.4566 106.883 78.9039C107.313 78.1452 108.449 78.8155 108.896 79.1539C118.659 86.6397 101.754 98.7243 89.2985 87.2272C82.6381 81.0829 95.9236 75.2141 99.8689 73.8077C108.765 70.6388 123.698 68.5734 136.708 70.4977V70.4968ZM136.708 81.7965C132.54 86.7638 132.526 97.3245 132.38 102.531C132.321 104.815 132.315 112.007 131.49 113.716C127.997 120.997 118.158 119.501 118.84 113.143C119.399 112.082 119.769 110.924 119.809 109.645C119.97 103.788 119.245 100.105 122.262 94.6735C123.438 92.564 121.407 91.2141 120.229 93.3245C117.482 98.2778 116.812 100.398 116.107 105.773C115.885 107.459 115.941 108.538 115.916 109.493C115.539 110.453 115.291 111.35 115.151 112.193C114.62 112.944 113.745 113.899 112.293 115.304C109.851 117.685 103.785 115.796 102.826 113.225C101.315 109.178 104.412 105.545 106.403 102.389C109.576 97.3659 110.862 93.9459 110.862 93.9459C111.724 91.701 109.471 90.9321 108.615 93.1845C107.75 95.4472 106.113 97.4308 104.428 99.4463L81.6796 98.2778C79.1558 98.2665 79.127 101.844 81.6481 101.861L102.35 101.993C101.874 102.617 101.429 103.251 101.035 103.911C92.1824 118.47 109.702 122.953 115.006 117.806L115.837 116.984C119.169 122.941 131.474 121.184 135.673 112.451C136.238 111.28 136.53 109.494 136.709 107.382V81.7974L136.708 81.7965ZM60.2697 104.514V101.029C61.4073 100.886 62.5513 100.531 63.533 99.968C66.7101 98.1368 66.6452 95.2329 64.6651 91.6061C62.5439 87.7321 62.2034 83.8486 61.5771 79.6324C61.4026 78.4696 61.1976 77.3734 60.8774 76.3713C60.7123 75.8571 60.5156 75.3683 60.2706 74.901V69.254C63.8754 71.78 64.82 76.1617 65.7813 82.4583C66.1775 85.0594 66.7166 87.5826 68.0184 89.9581C72.9872 99.0308 66.2267 104.583 60.2715 104.514H60.2697ZM60.2697 33.349V25.803C64.8933 19.2028 65.1494 9.18636 60.6659 6.96403C60.535 6.89728 60.4061 6.839 60.2697 6.77884V3.70575C61.4908 3.95016 62.7276 4.36285 63.9784 4.98236C75.113 10.5128 69.9846 26.2242 60.2697 33.3499V33.349ZM60.2697 0.317732V1.59435C59.6795 1.67989 59.0996 1.89799 58.5438 2.28436C58.4343 2.35862 56.7576 3.65498 56.7465 2.72525C56.7372 2.30692 57.9583 1.5229 58.1838 1.36591C58.889 0.883654 59.5895 0.541469 60.2697 0.317732ZM60.2697 3.70481C56.2872 2.91609 52.5135 4.01973 49.3114 6.18659V8.22748C52.5747 5.91773 56.4988 5.09047 60.2697 6.7779V3.70481ZM60.2697 25.803V33.349C56.9924 35.7565 53.189 37.1845 49.3114 36.9072V31.7377C54.1568 31.8289 57.8275 29.2992 60.2697 25.803ZM60.2697 48.6515V53.7513C56.3215 51.9088 52.5794 49.9563 49.3114 48.0037V42.0531C52.3799 44.0855 56.1564 46.3737 60.2697 48.6524V48.6515ZM60.2697 69.254V74.901C58.9094 72.2576 56.0877 70.4714 49.3114 70.2749V66.682C54.5419 66.7779 57.9593 67.6287 60.2697 69.255V69.254ZM60.2697 101.029V104.514C57.1084 104.479 54.1707 102.854 53.3551 99.3231C53.24 98.8352 53.0387 97.5784 53.7058 97.3358C54.4416 97.0604 54.836 98.3596 54.9362 98.8164C55.3519 100.601 57.7848 101.333 60.2697 101.029ZM49.3114 119.38C51.5726 118.071 53.2205 115.991 53.4646 113.213C53.9118 108.317 50.8582 104.165 50.2634 99.4566C49.5127 93.6094 50.7737 85.8388 52.3205 80.0611C52.9654 77.6385 51.5049 76.7032 50.8878 78.9856C50.3719 80.8978 49.818 82.9697 49.3114 85.1121V107.044C49.6621 108.981 49.882 110.929 49.702 112.903C49.6621 113.34 49.5276 113.766 49.3114 114.173V119.38ZM49.3114 21.9788V10.0512C51.0883 8.41456 52.9153 7.62302 53.6863 8.02913C54.2913 8.57155 54.026 13.1995 52.3456 17.1384C51.5698 18.9546 50.4434 20.6524 49.3114 21.9788ZM49.3114 6.18659V8.22748C46.4359 10.2627 44.0828 13.4543 42.8069 17.0905V13.2174C44.4474 10.4677 46.6836 7.96802 49.3114 6.18659ZM49.3114 10.0503C48.1756 11.0994 47.0659 12.4916 46.2531 14.1433C44.1765 18.4113 44.2878 23.8026 45.6193 24.6712C46.1297 25.004 47.7191 23.8646 49.3104 21.9779V10.0503H49.3114ZM49.3114 31.7368V36.9062C48.8057 36.8733 48.2953 36.8047 47.785 36.7079C45.739 36.3168 44.067 34.9217 42.8069 33.0012V26.0644C43.7264 28.957 45.3373 31.1943 46.8395 31.4792C47.695 31.6409 48.5208 31.7217 49.3104 31.7377L49.3114 31.7368ZM49.3114 42.0522V48.0028C46.8209 46.5137 44.6135 45.02 42.8069 43.5873V38.4432C43.5223 38.3426 44.4613 38.6162 45.6527 39.497C46.7031 40.2839 47.9409 41.1441 49.3104 42.0531L49.3114 42.0522ZM49.3114 66.6811V70.274C48.3297 70.2467 47.2654 70.2524 46.1093 70.2891C44.903 70.3332 43.822 70.0813 42.8069 69.6442V65.6799C43.9278 66.3003 45.0329 66.745 45.9645 66.7177C47.1596 66.6754 48.2749 66.6641 49.3114 66.682V66.6811ZM49.3114 85.1121V107.044C48.866 104.547 48.2016 102.069 47.8852 99.5835C47.3146 95.1116 48.1756 89.9384 49.3114 85.113V85.1121ZM49.3114 114.172V119.379C47.4315 120.463 45.109 121.012 42.8069 120.95V117.571C45.4542 117.581 48.2861 116.119 49.3114 114.172ZM42.8069 84.6768V82.839C43.4824 83.0684 43.6457 83.8759 42.8069 84.6768ZM42.8069 60.6317V56.9993C42.986 57.2268 43.1725 57.4543 43.3609 57.6818C44.3073 58.7948 43.7571 60.0959 42.8069 60.6317ZM42.8069 37.1412L42.8264 37.1337C45.083 36.36 44.8371 34.3718 42.8069 34.8221V37.1412ZM42.8069 13.2155V17.0886C42.7104 17.3678 42.6158 17.646 42.536 17.93C41.7454 20.5715 42.0145 23.5666 42.8069 26.0625V32.9993C40.1393 28.9344 39.3042 22.5119 40.5642 18.2806C41.0746 16.5678 41.8345 14.8475 42.8069 13.2155ZM42.8069 34.8221V37.1412C41.6851 37.537 40.6644 38.6247 39.9342 40.1777V36.2529C40.6793 35.6954 41.5005 35.247 42.4014 34.9358C42.5453 34.8898 42.6807 34.8493 42.8069 34.8221ZM42.8069 38.4423C40.8649 38.7187 40.6848 41.8153 42.0999 43.0045C42.3244 43.1981 42.5647 43.3908 42.8069 43.5873V38.4432V38.4423ZM42.8069 56.9993V60.6317C42.1054 61.0284 41.1896 61.0021 40.4937 60.1814C40.2998 59.952 40.1142 59.7198 39.9342 59.4895V51.9229C40.5744 53.6216 41.5153 55.3372 42.8069 56.9993ZM42.8069 65.678V69.6423C41.8057 69.2117 40.8649 68.596 39.9342 67.9032V63.8505C40.8333 64.4587 41.8252 65.1347 42.8069 65.678ZM42.8069 82.8381V84.6759C42.69 84.7906 42.5508 84.9053 42.3847 85.0171C42.3847 85.0171 41.9338 85.3339 41.2407 85.944C40.773 86.3511 40.3397 86.7628 39.9342 87.1661V84.0808C40.2692 83.8073 40.6088 83.545 40.9586 83.3015C41.7055 82.7854 42.3708 82.6886 42.8069 82.8371V82.8381ZM42.8069 117.571V120.95C41.8354 120.93 40.8649 120.799 39.9342 120.555V116.851C40.7851 117.349 41.7853 117.571 42.8069 117.571ZM39.9342 36.2529V40.1777C38.5915 43.0148 38.212 47.3965 39.9342 51.9229V59.4895C33.3286 51.0609 34.3595 40.439 39.9342 36.2529ZM39.9342 63.8505V67.9032C38.3522 66.7384 36.7915 65.3546 34.9542 64.2726V61.3189C36.1095 61.6949 37.1672 62.18 38.1462 62.7187C38.6676 63.0073 39.2782 63.4115 39.9333 63.8496L39.9342 63.8505ZM39.9342 84.0808V87.1661C39.1334 87.9727 38.4431 88.7699 37.8613 89.5643C37.9606 89.6808 38.058 89.8087 38.1369 89.961C38.1369 89.961 38.3772 90.4 38.6769 91.1727C40.1884 95.0815 40.2033 99.5553 38.1369 103.372C35.1946 108.807 36.1605 114.243 39.6234 116.658C39.7226 116.723 39.8284 116.789 39.9333 116.85V120.554C38.0116 120.057 36.2542 119.083 34.9533 117.602V101.696C35.729 99.0881 36.2486 96.4474 35.5639 93.7401C35.3189 94.399 35.1194 95.0627 34.9533 95.733V89.5567C35.3588 88.972 35.8144 88.376 36.3145 87.7668C37.35 86.5034 38.5869 85.1807 39.9333 84.0799L39.9342 84.0808ZM34.9542 61.3189V64.2726C31.9062 62.4743 28.1139 61.4956 22.2636 63.7001C21.8433 63.858 20.5025 64.3111 20.2213 63.6352C19.9318 62.9349 21.2726 62.3802 21.6837 62.2261C27.3929 60.0742 31.6018 60.2303 34.9542 61.3189ZM34.9542 89.5577V95.7339C34.2388 98.6529 34.2388 101.652 34.0236 104.609C34.3335 103.647 34.6583 102.672 34.9542 101.697V117.603C33.6088 116.07 32.7524 113.989 32.7283 111.329C32.4833 111.96 32.1919 112.577 31.8523 113.192C29.85 116.778 26.3379 118.413 20.8031 117.814C15.0382 117.194 12.7713 113.78 12.3965 110.021V107.666C12.8975 102.266 16.5803 97.192 18.9121 99.4679C19.5579 100.104 19.7769 101.19 18.8471 102.01C9.79934 110.079 24.0767 119.459 28.5101 111.521C30.4568 108.024 30.3918 104.608 30.8317 100.783C31.2121 97.4035 32.0026 93.7598 34.9552 89.5558L34.9542 89.5577Z" fill="white"/>
</g>
<defs>
<clipPath id="clip0_132_14600">
<rect width="180" height="164" fill="white"/>
</clipPath>
</defs>
</svg>
