<svg width="32" height="29" viewBox="0 0 32 29" fill="none" xmlns="http://www.w3.org/2000/svg">
<g clip-path="url(#clip0_11_118)">
<path d="M3.41314 24.6352C3.41314 24.1942 3.38296 23.4472 1.83979 23.4472C1.2466 23.4472 0.392123 23.5926 0.216114 24.4599H0.980195C1.02539 24.2893 1.16627 24.0388 1.84473 24.0388C2.45293 24.0388 2.67414 24.2142 2.67414 24.4549V24.6002C1.64365 24.6553 0.0351562 24.8106 0.0351562 25.8886C0.0351562 26.6707 0.849384 26.8513 1.27184 26.8513C1.90511 26.8513 2.36253 26.6006 2.6743 26.4202C2.6743 26.5304 2.68931 26.6357 2.71455 26.7411H3.47368C3.42337 26.6508 3.41331 26.4402 3.41331 26.2246V24.6354L3.41314 24.6352ZM2.67414 25.8637C2.38761 26.0341 1.94024 26.2798 1.38236 26.2798C1.02044 26.2798 0.839486 26.1042 0.844435 25.8334C0.849384 25.5527 1.06564 25.4024 1.5229 25.2922C1.86981 25.2119 2.24673 25.1519 2.67397 25.1318V25.8639L2.67414 25.8637Z" fill="#00A3E4"/>
<path d="M6.51959 25.6029C6.45427 25.8886 6.1326 26.2195 5.49917 26.2195C4.79051 26.2195 4.45879 25.7083 4.45879 25.0966C4.45879 24.5852 4.86095 24.0737 5.5546 24.0737C6.11264 24.0737 6.42425 24.3946 6.49963 24.6504H7.23353C7.18322 24.109 6.68059 23.4422 5.5094 23.4472C4.37334 23.4522 3.70972 24.2293 3.70972 25.0665C3.70972 26.3499 4.54918 26.8511 5.57472 26.8511C6.74591 26.8511 7.19328 26.0491 7.2939 25.6029H6.51959Z" fill="#00A3E4"/>
<path d="M10.7572 23.5524H10.0233V25.7482C9.8372 25.9737 9.60114 26.2193 9.00779 26.2193C8.51523 26.2193 8.32421 25.9536 8.32421 25.3221V23.5524H7.58521V25.5979C7.58521 26.5703 8.16833 26.8511 8.8369 26.8511C9.50547 26.8511 9.81196 26.5703 10.0332 26.3449V26.7409H10.757V23.5524H10.7572Z" fill="#00A3E4"/>
<path d="M11.8429 24.7807C11.9936 24.1691 12.441 24.0388 12.8282 24.0388C13.356 24.0388 13.728 24.2444 13.8385 24.7807H11.843H11.8429ZM13.758 25.7834C13.6475 26.0341 13.3408 26.2547 12.8734 26.2547C11.9635 26.2194 11.8529 25.5527 11.8227 25.3522H14.6226C14.6226 24.1992 14.0495 23.4571 12.8432 23.4472C11.667 23.4472 11.0687 24.2343 11.0687 25.1368C11.0687 26.1345 11.7574 26.8513 12.8984 26.8513C14.0394 26.8513 14.5119 26.0492 14.5673 25.7834H13.758Z" fill="#00A3E4"/>
<path d="M17.6789 26.7409H18.4077V22.4243H17.6688V23.8832C17.352 23.6575 17.0554 23.447 16.4422 23.447C15.3867 23.447 14.7281 24.159 14.7281 25.1264C14.7281 26.2094 15.5072 26.8509 16.412 26.8509C17.1459 26.8509 17.513 26.49 17.6787 26.3296V26.7407L17.6789 26.7409ZM17.6688 25.7583C17.3821 25.9739 17.0855 26.2194 16.578 26.2194C16.0099 26.2194 15.4772 25.8535 15.4772 25.1519C15.4772 24.4502 16.0401 24.0739 16.6032 24.0739C17.1664 24.0739 17.4427 24.3295 17.669 24.515V25.7583H17.6688Z" fill="#00A3E4"/>
<path d="M22.1123 23.5524H21.3734V25.7482C21.1875 25.9737 20.9512 26.2193 20.3631 26.2193C19.8656 26.2193 19.6746 25.9536 19.6746 25.3221V23.5524H18.9355V25.5979C18.9355 26.5703 19.5236 26.8511 20.1872 26.8511C20.8509 26.8511 21.1625 26.5703 21.3837 26.3449V26.7409H22.1125V23.5524H22.1123Z" fill="#00A3E4"/>
<path d="M25.214 25.6029C25.1485 25.8886 24.8268 26.2195 24.1884 26.2195C23.4847 26.2195 23.153 25.7083 23.153 25.0966C23.153 24.5852 23.5552 24.0737 24.2488 24.0737C24.8017 24.0737 25.1185 24.3946 25.1887 24.6504H25.9276C25.8773 24.109 25.3746 23.4422 24.2034 23.4472C23.0674 23.4522 22.4039 24.2293 22.4039 25.0665C22.4039 26.3499 23.2434 26.8511 24.2688 26.8511C25.44 26.8511 25.8873 26.0491 25.9879 25.6029H25.214Z" fill="#00A3E4"/>
<path d="M25.9327 24.2893H26.5057V25.9237C26.5057 26.6206 26.8925 26.8511 27.5964 26.8511C27.8579 26.8511 28.0288 26.826 28.3956 26.7758V26.1292C28.2048 26.1844 27.9031 26.2193 27.7624 26.2193C27.335 26.2193 27.2444 25.9738 27.2444 25.7482V24.2893H28.3554V23.6576H27.2444V22.62H26.5056V23.6576H25.9325V24.2893H25.9327Z" fill="#00A3E4"/>
<path d="M30.2103 26.8511C31.0849 26.8511 32 26.4151 32 25.1466C32 24.2893 31.482 23.447 30.2103 23.447C28.9387 23.447 28.4158 24.2892 28.4158 25.1466C28.4158 26.4151 29.3357 26.8511 30.2103 26.8511ZM30.2103 26.2193C29.5467 26.2193 29.1698 25.8083 29.1698 25.1314C29.1698 24.3846 29.6422 24.0735 30.2103 24.0735C30.7785 24.0735 31.2507 24.3846 31.2507 25.1314C31.2507 25.8082 30.8688 26.2193 30.2103 26.2193Z" fill="#00A3E4"/>
<path d="M0.879056 28.7236H0.283231L0.159348 28.9764H0L0.501469 28.0056H0.660818L1.16229 28.9764H1.00294L0.879056 28.7236ZM0.825939 28.6117L0.584113 28.1233L0.336347 28.6117H0.825939Z" fill="#00A3E4"/>
<path d="M1.84648 28.4705H2.29483V28.9059C2.21813 28.9413 2.13565 28.9649 2.05894 28.9825C1.98224 28.9943 1.90553 29.0002 1.82883 29.0002C1.63418 29.0002 1.48671 28.9531 1.39812 28.8472C1.30377 28.7473 1.25659 28.6296 1.25659 28.4941V28.4649C1.25659 28.4531 1.25659 28.4413 1.26237 28.4355C1.27408 28.3179 1.32142 28.2179 1.40406 28.1236C1.49265 28.0295 1.62824 27.9825 1.81118 27.9825C1.94694 27.9825 2.05894 28.0058 2.14159 28.0471C2.22423 28.0942 2.27141 28.1647 2.28906 28.2589H2.14159C2.12377 28.2002 2.08847 28.153 2.02942 28.1296C1.97036 28.106 1.90553 28.0942 1.82289 28.0942C1.68713 28.0942 1.587 28.1354 1.5103 28.2119C1.43953 28.2884 1.40406 28.3824 1.40406 28.4941C1.40406 28.6059 1.43953 28.6943 1.51623 28.7708C1.587 28.8532 1.69307 28.8943 1.83477 28.8943C1.85258 28.8943 1.87617 28.8943 1.89382 28.8886C1.91741 28.8886 1.93506 28.8886 1.95288 28.8828C1.98834 28.8768 2.02381 28.871 2.05911 28.8652C2.09441 28.8534 2.12987 28.8416 2.1594 28.8298V28.5826H1.84664V28.4709L1.84648 28.4705Z" fill="#00A3E4"/>
<path d="M3.34514 28.5941V28.0056H3.48667V28.5881C3.48667 28.7236 3.44543 28.8293 3.35685 28.8999C3.27421 28.9648 3.16814 28.9998 3.03238 28.9998C2.89662 28.9998 2.79633 28.9646 2.70774 28.8999C2.6251 28.8293 2.58386 28.7234 2.58386 28.5881V28.0056H2.71946V28.5941C2.71946 28.6882 2.74898 28.7588 2.8021 28.8117C2.85522 28.8649 2.93192 28.894 3.03222 28.894C3.13251 28.894 3.20905 28.8647 3.26233 28.8117C3.32138 28.7588 3.34497 28.6882 3.34497 28.5941H3.34514Z" fill="#00A3E4"/>
<path d="M4.47199 28.7236H3.87617L3.75229 28.9764H3.59888L4.09441 28.0056H4.25969L4.761 28.9764H4.59588L4.47199 28.7236ZM4.41888 28.6117L4.17705 28.1233L3.93506 28.6117H4.41888Z" fill="#00A3E4"/>
<path d="M7.81725 28.7236H7.22126L7.09738 28.9764H6.94397L7.4395 28.0056H7.60479L8.10032 28.9764H7.94097L7.81709 28.7236H7.81725ZM7.76414 28.6117L7.52231 28.1233L7.28048 28.6117H7.7643H7.76414Z" fill="#00A3E4"/>
<path d="M8.28333 28.0056H8.41892V28.8649H8.97944V28.9764H8.28333V28.0056Z" fill="#00A3E4"/>
<path d="M9.96473 28.7059H10.1181C10.1064 28.8116 10.0533 28.8883 9.95879 28.9355C9.87021 28.9764 9.76992 29.0002 9.64604 29.0002C9.47498 29.0002 9.34516 28.9473 9.26268 28.8472C9.18003 28.7473 9.13879 28.6296 9.13879 28.4941C9.13879 28.4767 9.14473 28.4589 9.14473 28.4413C9.14473 28.4237 9.14473 28.4059 9.15067 28.3884C9.16849 28.2884 9.22144 28.1943 9.30408 28.1118C9.38672 28.0235 9.51638 27.9825 9.68744 27.9825C9.79961 27.9825 9.8999 28.0119 9.97644 28.0648C10.0591 28.1176 10.1003 28.1823 10.1063 28.2646H9.94692C9.93521 28.2001 9.90568 28.1585 9.8524 28.1294C9.80522 28.1058 9.74633 28.094 9.67556 28.094C9.56339 28.094 9.47498 28.1294 9.39827 28.1939C9.3275 28.2586 9.29204 28.3587 9.29204 28.494C9.29204 28.6293 9.3275 28.7294 9.39827 28.7942C9.47481 28.8589 9.56339 28.8941 9.67556 28.8941C9.74056 28.8941 9.80539 28.8766 9.8585 28.8471C9.91739 28.8176 9.95286 28.7706 9.96457 28.7059H9.96473Z" fill="#00A3E4"/>
<path d="M11.1033 28.7236H10.5075L10.3836 28.9764H10.2242L10.7257 28.0056H10.8849L11.3864 28.9764H11.227L11.1031 28.7236H11.1033ZM11.0503 28.6117L10.8085 28.1233L10.5608 28.6117H11.0505H11.0503Z" fill="#00A3E4"/>
<path d="M12.3246 28.0056H12.4603V28.9764H12.2715L11.6756 28.1529V28.9764H11.5339V28.0056H11.7287L12.3186 28.8353H12.3246V28.0056Z" fill="#00A3E4"/>
<path d="M13.0209 28.1233H12.6136V28.0056H13.5753V28.1233H13.1625V28.9764H13.0209V28.1233Z" fill="#00A3E4"/>
<path d="M14.3836 28.7236H13.7876L13.6637 28.9764H13.5044L14.0059 28.0056H14.171L14.6665 28.9764H14.5072L14.3833 28.7236H14.3836ZM14.3305 28.6117L14.0887 28.1233L13.8467 28.6117H14.3305Z" fill="#00A3E4"/>
<path d="M14.9559 28.9764H14.8143V28.0056H15.2922C15.4395 28.0116 15.54 28.035 15.5872 28.0761C15.6343 28.1233 15.6581 28.188 15.6581 28.2644C15.6581 28.3231 15.6403 28.3763 15.599 28.4174C15.5578 28.4528 15.5047 28.4824 15.4339 28.488V28.4938C15.4989 28.4997 15.5461 28.5234 15.5697 28.5529C15.5931 28.5881 15.6168 28.6411 15.6286 28.7236C15.6286 28.7352 15.6286 28.747 15.6343 28.7588V28.7882C15.6403 28.8293 15.6462 28.8587 15.6581 28.894C15.6639 28.9234 15.6698 28.953 15.6817 28.9762H15.5342C15.5283 28.9588 15.5223 28.941 15.5164 28.9116C15.5106 28.8881 15.5047 28.8645 15.4989 28.8351C15.4989 28.8233 15.4989 28.8115 15.4928 28.7999C15.4928 28.7881 15.487 28.7763 15.487 28.7645C15.487 28.7468 15.4811 28.7291 15.4753 28.7116C15.4753 28.694 15.4694 28.6762 15.4694 28.6644C15.4577 28.6292 15.4398 28.5997 15.4103 28.5761C15.375 28.5527 15.316 28.5469 15.2214 28.5469H14.956V28.9762L14.9559 28.9764ZM14.9559 28.4352H15.2746C15.3453 28.4352 15.4044 28.4234 15.4456 28.3998C15.4869 28.3823 15.5104 28.3411 15.5104 28.2762C15.5104 28.2174 15.4926 28.1763 15.4573 28.1527C15.422 28.1293 15.357 28.1173 15.2744 28.1173H14.9557V28.435L14.9559 28.4352Z" fill="#00A3E4"/>
<path d="M16.0473 28.0056H15.9058V28.9764H16.0473V28.0056Z" fill="#00A3E4"/>
<path d="M16.3365 28.0056H16.4781V28.8649H17.0384V28.9764H16.3365V28.0056Z" fill="#00A3E4"/>
<path d="M17.2333 28.0056H17.3748V28.8649H17.9353V28.9764H17.2333V28.0056Z" fill="#00A3E4"/>
<path d="M18.8615 28.7236H18.2655L18.1416 28.9764H17.9823L18.4838 28.0056H18.6489L19.1444 28.9764H18.9852L18.8614 28.7236H18.8615ZM18.8084 28.6117L18.5666 28.1233L18.3248 28.6117H18.8086H18.8084Z" fill="#00A3E4"/>
<path d="M19.2981 28.0056H19.6757C19.8939 28.0116 20.0416 28.0528 20.13 28.1411C20.2125 28.2234 20.2539 28.3469 20.2539 28.5058C20.2539 28.6529 20.2067 28.7706 20.1181 28.8531C20.0237 28.9354 19.8881 28.9764 19.6993 28.9764H19.2981V28.0056ZM19.4396 28.8649H19.7052C19.8644 28.8649 19.9706 28.8295 20.0237 28.753C20.0828 28.6765 20.1064 28.5883 20.1064 28.494C20.1064 28.3647 20.0767 28.2764 20.012 28.2117C19.947 28.1471 19.835 28.1175 19.6697 28.1175H19.4396V28.8649Z" fill="#00A3E4"/>
<path d="M20.4543 28.494C20.4543 28.4765 20.4543 28.4588 20.4601 28.4411C20.4601 28.4235 20.4601 28.4057 20.4661 28.3883C20.4837 28.2882 20.5368 28.1941 20.6195 28.1117C20.7021 28.0234 20.826 27.9823 21.003 27.9823C21.18 27.9823 21.3039 28.0234 21.3864 28.1117C21.469 28.1939 21.5221 28.2882 21.5398 28.3883C21.5398 28.4057 21.5457 28.4235 21.5457 28.4411V28.5472C21.5457 28.5648 21.5398 28.5824 21.5398 28.6C21.5221 28.7 21.469 28.7942 21.3864 28.8767C21.3039 28.9589 21.1741 29.0002 21.003 29.0002C20.8319 29.0002 20.7021 28.9591 20.6195 28.8767C20.5368 28.7944 20.4837 28.7001 20.4661 28.6C20.4601 28.5823 20.4601 28.5646 20.4601 28.5472C20.4543 28.5296 20.4543 28.5118 20.4543 28.4942V28.494ZM20.6018 28.494C20.6018 28.6119 20.6431 28.7059 20.714 28.7824C20.7905 28.8531 20.8852 28.8939 21.003 28.8939C21.1208 28.8939 21.2155 28.8531 21.2861 28.7824C21.3628 28.7058 21.3982 28.6117 21.3982 28.494C21.3982 28.3763 21.3628 28.2764 21.2861 28.2057C21.2153 28.1293 21.1209 28.0939 21.003 28.0939C20.885 28.0939 20.7904 28.1293 20.714 28.2057C20.6432 28.2762 20.6018 28.3765 20.6018 28.494Z" fill="#00A3E4"/>
<path d="M5.72272 28.9764V28.5705L5.25671 28.0056H5.43949L5.78755 28.4588L6.14171 28.0056H6.31854L5.85848 28.5705V28.9764H5.72272Z" fill="#00A3E4"/>
<path d="M31.1798 27.9469H31.3921L31.6105 27.7586H31.3334L31.1798 27.9469Z" fill="#00A3E4"/>
<path d="M24.9321 28.9764H25.5103C25.8171 28.9764 25.9115 28.8353 25.9115 28.706C25.9115 28.5766 25.811 28.4882 25.6637 28.4766V28.4706C25.7876 28.4411 25.8702 28.3587 25.8702 28.2468C25.8702 28.1233 25.764 28.0056 25.5045 28.0056H24.9323V28.9764H24.9321ZM25.2094 28.5763H25.475C25.5458 28.5763 25.6165 28.6059 25.6165 28.6882C25.6165 28.7704 25.5515 28.7942 25.4631 28.7942H25.2094V28.5763ZM25.2094 28.188H25.41C25.5161 28.188 25.5751 28.2174 25.5751 28.294C25.5751 28.3707 25.5044 28.4056 25.3864 28.4056H25.2094V28.1881V28.188Z" fill="#00A3E4"/>
<path d="M26.3185 28.494C26.3185 28.3233 26.3893 28.1821 26.6077 28.1821C26.8261 28.1821 26.8906 28.3233 26.8906 28.494C26.8906 28.6647 26.8199 28.806 26.6077 28.806C26.3956 28.806 26.3185 28.6647 26.3185 28.494ZM26.0295 28.494C26.0295 28.7824 26.2006 29 26.6079 29C27.0152 29 27.1859 28.7824 27.1859 28.494C27.1859 28.2056 27.0148 27.9823 26.6079 27.9823C26.2009 27.9823 26.0295 28.2001 26.0295 28.494Z" fill="#00A3E4"/>
<path d="M27.8701 28.6235H28.1238V28.7882C28.0709 28.8 27.9938 28.8115 27.9232 28.8115C27.6991 28.8115 27.5811 28.6998 27.5811 28.4878C27.5811 28.3115 27.6638 28.1702 27.8879 28.1702C28.006 28.1702 28.1002 28.2116 28.1062 28.3174H28.3953C28.3894 28.0585 28.1298 27.982 27.8879 27.982C27.528 27.982 27.2921 28.1409 27.2921 28.5113C27.2921 28.8816 27.5574 28.9997 27.9056 28.9997C28.0649 28.9997 28.2243 28.982 28.3835 28.9586V28.4408H27.8703V28.6233L27.8701 28.6235Z" fill="#00A3E4"/>
<path d="M28.8376 28.494C28.8376 28.3233 28.9084 28.1821 29.1268 28.1821C29.3452 28.1821 29.4099 28.3233 29.4099 28.494C29.4099 28.6647 29.3391 28.806 29.1268 28.806C28.9145 28.806 28.8376 28.6647 28.8376 28.494ZM28.5485 28.494C28.5485 28.7824 28.7197 29 29.1266 29C29.5336 29 29.7048 28.7824 29.7048 28.494C29.7048 28.2056 29.5336 27.9823 29.1266 27.9823C28.7197 27.9823 28.5485 28.2001 28.5485 28.494Z" fill="#00A3E4"/>
<path d="M30.112 28.9764H30.3953V28.2058H30.7668V28.0056H29.7402V28.2058H30.112V28.9764Z" fill="#00A3E4"/>
<path d="M31.5104 28.6059H31.115L31.3156 28.194L31.5104 28.6059ZM30.6432 28.9764H30.9383L31.0327 28.7824H31.593L31.6874 28.9764H32.0001L31.4987 28.0056H31.1623L30.6434 28.9764H30.6432Z" fill="#00A3E4"/>
<path d="M22.2241 28.0056H22.6015C22.8199 28.0116 22.9673 28.0528 23.0558 28.1411C23.1386 28.2234 23.1797 28.3469 23.1797 28.5058C23.1797 28.6529 23.1386 28.7706 23.0441 28.8531C22.9496 28.9354 22.814 28.9764 22.6251 28.9764H22.2241V28.0056ZM22.3657 28.8649H22.6312C22.7906 28.8649 22.8967 28.8295 22.9498 28.753C23.0088 28.6765 23.0324 28.5883 23.0324 28.494C23.0324 28.3647 23.0029 28.2764 22.9379 28.2117C22.8731 28.1471 22.7609 28.1175 22.5958 28.1175H22.3657V28.8649Z" fill="#00A3E4"/>
<path d="M23.4275 28.0056H24.1533V28.1175H23.5692V28.4235H24.1178V28.5352H23.5692V28.8649H24.1711V28.9764H23.4275V28.0056Z" fill="#00A3E4"/>
<path d="M25.0929 3.72644C25.8631 4.30077 26.4307 5.33307 26.3434 6.65295C26.2553 7.98862 25.7466 8.81363 25.0929 9.19746V8.28236C25.5741 7.9715 25.951 7.33201 26.0161 6.34941C26.0828 5.34354 25.6612 4.51571 25.0929 4.04544V3.7266V3.72644ZM25.0929 18.2814V17.8199L29.3281 17.9842C29.3832 17.985 29.6927 17.994 29.6262 18.1376C29.5815 18.2353 29.3379 18.2337 29.2641 18.2312L25.0929 18.2812V18.2814ZM25.0929 14.4012V14.0051C25.2013 13.9874 25.3175 13.9816 25.4432 13.9906C25.6212 14.0036 25.774 14.0709 25.7776 14.1856C25.7821 14.3403 25.5402 14.3497 25.4414 14.3427C25.31 14.3332 25.1943 14.355 25.093 14.4012H25.0929ZM25.0929 13.7288L25.1051 13.7363C25.4449 13.9354 25.6132 13.5414 25.7278 13.3102C26.6852 13.6099 27.4626 14.098 27.8966 14.8359C28.1157 15.2092 28.5801 15.033 28.3638 14.6665C27.8541 13.7993 26.979 13.2179 25.9327 12.8542C26.1879 12.2101 26.3294 11.4969 26.1062 11.0099C25.9246 10.6119 25.7822 10.3059 25.6844 10.0954C27.3365 9.34541 28.8435 8.24562 29.9545 6.68337C30.0088 6.60641 30.1335 6.3903 30.0007 6.31583C29.8779 6.24668 29.7287 6.4317 29.675 6.51398C28.7028 7.99544 27.2294 9.057 25.5188 9.7452C25.3906 9.47823 25.1745 9.44847 25.0929 9.57215V9.84544C25.098 9.86023 25.1051 9.87486 25.1122 9.88999L25.1344 9.93736L25.0929 9.95332V10.3466C25.1584 10.3202 25.2242 10.2936 25.29 10.2665C25.386 10.4736 25.5223 10.7665 25.6938 11.1432C25.8078 11.3909 25.6158 12.0114 25.3034 12.6651C25.2339 12.6476 25.1638 12.6305 25.0929 12.6145V13.7291V13.7288ZM25.0929 7.44854C25.3789 7.17974 25.6432 6.47325 25.6141 5.90457C25.5917 5.47536 25.3383 4.91001 25.0929 4.59999V7.44854ZM24.3034 3.32183C24.5782 3.40594 24.8454 3.54242 25.0929 3.72644V4.04527C24.8469 3.84346 24.5756 3.70749 24.3034 3.6528V3.32183ZM25.0929 9.1973C24.8454 9.34225 24.5777 9.4242 24.3034 9.44764V8.50361C24.5756 8.51325 24.8469 8.44044 25.0929 8.28236V9.19746V9.1973ZM25.0929 4.59999V7.44854C25.0241 7.5127 24.9548 7.5521 24.888 7.55908C24.695 7.54346 24.5837 6.68187 24.5741 6.02908C24.564 5.40721 24.5893 4.44672 24.8266 4.37657C24.9058 4.39901 24.9985 4.48063 25.0929 4.59999ZM25.0929 9.57198V9.84527C25.0464 9.72508 25.0533 9.63133 25.0929 9.57198ZM25.0929 9.95315V10.3465C24.8321 10.4497 24.5686 10.5453 24.3034 10.6327V10.2271C24.5705 10.1433 24.8337 10.0522 25.0929 9.95315ZM25.0929 12.6142V13.7288C24.9583 13.642 24.8748 13.4626 24.9838 13.2733L25.0604 13.1363C24.8159 13.0843 24.5624 13.0422 24.3034 13.0097V12.4659C24.5711 12.5053 24.8354 12.5548 25.0929 12.614V12.6142ZM25.0929 14.0051V14.4012C24.4433 14.6972 24.39 16.0012 24.3633 16.5765C24.3435 16.9756 24.34 17.3915 24.3357 17.7913L25.0929 17.8201V18.2815L24.3455 18.2904C24.3339 18.5354 24.3222 18.7716 24.3034 18.9885V14.4644C24.5063 14.2238 24.7643 14.0578 25.0929 14.0052V14.0051ZM24.3034 2.94531V2.78108C24.3293 2.8371 24.3276 2.89361 24.3034 2.94531ZM21.5758 6.0748C21.6471 3.66643 23.0402 2.93417 24.3034 3.32183V3.6528C23.4727 3.48623 22.6426 4.07602 22.591 5.83642C22.5402 7.56024 23.421 8.4692 24.3034 8.50344V9.44748C22.9778 9.55885 21.5108 8.29083 21.5758 6.07463V6.0748ZM24.3034 2.78108C24.274 2.71724 24.2074 2.65457 24.097 2.60055C23.469 2.29518 22.7502 2.3881 22.1756 2.78324C21.9407 2.94431 21.7593 3.10489 21.6011 3.24569C21.4425 3.38616 21.3111 3.50252 21.1712 3.58231C20.8988 3.73691 20.5839 3.76035 19.9536 3.49122C18.4765 2.86037 16.2883 2.82463 14.725 2.87832C14.5739 2.88281 14.1363 2.93933 13.9957 2.89661C13.8756 2.85987 13.7884 2.74833 13.5624 2.39043C13.0118 1.52237 11.964 -0.346912 10.7146 0.0560344V0.281777C11.6319 0.151119 12.703 1.87096 13.0883 2.47621C13.4022 2.9739 13.5837 3.31352 14.2672 3.30105C16.217 3.26464 17.8859 3.34493 19.6902 4.11625C20.435 4.43442 20.9127 4.49227 21.3655 4.25439C21.7606 4.0476 22.0719 3.69302 22.4169 3.41625C22.7713 3.13266 23.1145 2.95013 23.4819 3.08428C23.8869 3.2319 24.2222 3.11653 24.3039 2.94515V2.78091L24.3034 2.78108ZM24.3034 10.2271C21.6989 11.0465 18.7655 11.172 16.3779 10.8465C14.8218 10.6347 12.5738 9.62501 10.7142 8.60302V9.50483C12.4189 10.2953 14.3324 10.9703 15.7327 11.2368C17.8483 11.6404 21.2022 11.6594 24.3032 10.6327V10.2271H24.3034ZM24.3034 12.4659V13.0097C22.0625 12.7252 19.4312 13.1332 17.9916 13.6437C17.6251 13.7733 15.9475 14.7232 16.555 15.2802C18.0825 16.6822 20.1625 15.0498 19.1731 14.295C19.0325 14.1882 18.9454 14.0503 19.0012 13.9525C19.0777 13.8184 19.2796 13.9369 19.3591 13.9967C21.0946 15.3205 18.0895 17.4574 15.8751 15.4243C14.691 14.3379 17.0529 13.3001 17.7543 13.0514C19.3359 12.491 21.9905 12.1258 24.3034 12.4661V12.4659ZM24.3034 14.464C23.5624 15.3424 23.5599 17.2098 23.534 18.1304C23.5235 18.5344 23.5225 19.8061 23.3758 20.1083C22.7548 21.3959 21.0057 21.1313 21.1268 20.007C21.2263 19.8194 21.2921 19.6146 21.2992 19.3885C21.3277 18.3529 21.1989 17.7016 21.7353 16.7411C21.9443 16.368 21.5833 16.1293 21.3739 16.5025C20.8855 17.3784 20.7664 17.7533 20.641 18.7038C20.6016 19.0018 20.6115 19.1927 20.607 19.3616C20.5401 19.5313 20.496 19.69 20.4711 19.839C20.3768 19.9718 20.2212 20.1407 19.963 20.3892C19.5289 20.8101 18.4504 20.4761 18.28 20.0215C18.0113 19.3059 18.5619 18.6635 18.9159 18.1053C19.4799 17.2172 19.7087 16.6124 19.7087 16.6124C19.8618 16.2154 19.4612 16.0795 19.3092 16.4778C19.1554 16.8779 18.8643 17.2286 18.5647 17.585L14.5206 17.3784C14.0719 17.3764 14.0668 18.0091 14.515 18.0121L18.1954 18.0354C18.1107 18.1457 18.0316 18.2578 17.9616 18.3745C16.3878 20.9491 19.5023 21.7417 20.4454 20.8315L20.593 20.6863C21.1854 21.7397 23.373 21.429 24.1195 19.8847C24.2199 19.6776 24.2717 19.3617 24.3036 18.9884V14.4642L24.3034 14.464ZM10.7144 18.4812V17.865C10.9166 17.8397 11.12 17.7769 11.2946 17.6773C11.8594 17.3535 11.8478 16.84 11.4958 16.1987C11.1187 15.5136 11.0582 14.8269 10.9468 14.0814C10.9158 13.8757 10.8794 13.6819 10.8224 13.5047C10.7931 13.4138 10.7581 13.3273 10.7146 13.2447V12.2462C11.3554 12.6928 11.5234 13.4676 11.6942 14.5811C11.7647 15.041 11.8605 15.4872 12.092 15.9072C12.9753 17.5116 11.7734 18.4933 10.7147 18.4812H10.7144ZM10.7144 5.89709V4.56275C11.5364 3.39564 11.5819 1.62443 10.7848 1.23146C10.7616 1.21966 10.7387 1.20935 10.7144 1.19871V0.655301C10.9315 0.698521 11.1514 0.771497 11.3737 0.881044C13.3532 1.85899 12.4415 4.63722 10.7144 5.89726V5.89709ZM10.7144 0.0562007V0.281944C10.6095 0.297071 10.5064 0.335637 10.4076 0.403958C10.3881 0.41709 10.09 0.646324 10.0881 0.481921C10.0864 0.407948 10.3035 0.26931 10.3436 0.241549C10.4689 0.156272 10.5935 0.0957639 10.7144 0.0562007ZM10.7144 0.655134C10.0064 0.515666 9.33553 0.710822 8.76626 1.09399V1.45488C9.34641 1.04644 10.044 0.90016 10.7144 1.19855V0.655134ZM10.7144 4.56275V5.89709C10.1318 6.32281 9.45562 6.57532 8.76626 6.52628V5.61217C9.62767 5.6283 10.2802 5.18097 10.7144 4.56275ZM10.7144 8.60302V9.50483C10.0125 9.17901 9.34724 8.83375 8.76626 8.48848V7.43624C9.31177 7.79563 9.98315 8.20024 10.7144 8.60318V8.60302ZM10.7144 12.2462V13.2447C10.4726 12.7773 9.97094 12.4614 8.76626 12.4267V11.7913C9.69612 11.8083 10.3037 11.9587 10.7144 12.2463V12.2462ZM10.7144 17.865V18.4812C10.1524 18.475 9.63014 18.1876 9.48514 17.5633C9.46469 17.477 9.42889 17.2547 9.5475 17.2118C9.67831 17.1631 9.74841 17.3929 9.76623 17.4737C9.84013 17.7892 10.2726 17.9187 10.7144 17.865ZM8.76626 21.1098C9.16826 20.8784 9.46122 20.5105 9.50461 20.0193C9.58412 19.1536 9.04124 18.4195 8.93551 17.5869C8.80206 16.5529 9.02623 15.1788 9.30122 14.1572C9.41586 13.7288 9.15622 13.5634 9.04652 13.967C8.95481 14.3051 8.85633 14.6715 8.76626 15.0503V18.9285C8.82861 19.2711 8.86771 19.6156 8.83571 19.9646C8.82861 20.0418 8.8047 20.1172 8.76626 20.1892V21.1098ZM8.76626 3.88652V1.77737C9.08215 1.48796 9.40695 1.34799 9.54403 1.4198C9.65159 1.51572 9.60441 2.33408 9.30567 3.03059C9.16777 3.35175 8.96751 3.65196 8.76626 3.88652ZM8.76626 1.09399V1.45488C8.25506 1.81477 7.83673 2.37913 7.60991 3.02211V2.33724C7.90156 1.85101 8.2991 1.409 8.76626 1.09399ZM8.76626 1.7772C8.56435 1.96272 8.36706 2.2089 8.22256 2.50097C7.85339 3.25567 7.87318 4.20901 8.1099 4.36261C8.20062 4.42145 8.48319 4.21998 8.7661 3.88635V1.7772H8.76626ZM8.76626 5.61201V6.52612C8.67636 6.5203 8.58563 6.50816 8.49491 6.49104C8.13118 6.42189 7.83392 6.1752 7.60991 5.83559V4.60896C7.77338 5.12046 8.05975 5.51609 8.32682 5.56646C8.47891 5.59505 8.62572 5.60935 8.7661 5.61217L8.76626 5.61201ZM8.76626 7.43607V8.48832C8.32352 8.22501 7.93108 7.96086 7.60991 7.70753V6.7979C7.73709 6.78012 7.90403 6.82849 8.11584 6.98425C8.30257 7.12339 8.52262 7.27549 8.7661 7.43624L8.76626 7.43607ZM8.76626 11.7912V12.4265C8.59174 12.4217 8.40253 12.4227 8.19699 12.4292C7.98255 12.437 7.79038 12.3924 7.60991 12.3151V11.6141C7.80918 11.7239 8.00564 11.8025 8.17126 11.7977C8.38373 11.7902 8.582 11.7882 8.76626 11.7913V11.7912ZM8.76626 15.0503V18.9285C8.68708 18.487 8.56897 18.0488 8.51272 17.6093C8.41127 16.8185 8.56435 15.9038 8.76626 15.0505V15.0503ZM8.76626 20.1891V21.1096C8.43206 21.3015 8.01917 21.3986 7.60991 21.3876V20.79C8.08053 20.7918 8.58398 20.5333 8.76626 20.1891ZM7.60991 14.9734V14.6484C7.73 14.6889 7.75903 14.8317 7.60991 14.9734ZM7.60991 10.7215V10.0792C7.64175 10.1194 7.67491 10.1596 7.70839 10.1998C7.87665 10.3967 7.77883 10.6267 7.60991 10.7215ZM7.60991 6.56767L7.61338 6.56634C8.01455 6.42953 7.97084 6.07795 7.60991 6.15758V6.56767ZM7.60991 2.3369V3.02178C7.59276 3.07115 7.57593 3.12035 7.56175 3.17056C7.4212 3.63767 7.46904 4.16728 7.60991 4.60863V5.83526C7.13566 5.11647 6.9872 3.98077 7.21121 3.23256C7.30194 2.92969 7.43704 2.62548 7.60991 2.3369ZM7.60991 6.15758V6.56767C7.41048 6.63766 7.22903 6.82999 7.09921 7.1046V6.41058C7.23167 6.31201 7.37765 6.23272 7.53783 6.17769C7.56339 6.16955 7.58748 6.1624 7.60991 6.15758ZM7.60991 6.79774C7.26466 6.84661 7.23266 7.39418 7.48422 7.60446C7.52413 7.63871 7.56686 7.67278 7.60991 7.70753V6.7979V6.79774ZM7.60991 10.0792V10.7215C7.4852 10.7916 7.32239 10.787 7.19867 10.6419C7.1642 10.6013 7.13121 10.5602 7.09921 10.5195V9.1815C7.21303 9.48189 7.38029 9.78526 7.60991 10.0792ZM7.60991 11.6138V12.3148C7.43192 12.2387 7.26466 12.1298 7.09921 12.0073V11.2907C7.25905 11.3982 7.43539 11.5177 7.60991 11.6138ZM7.60991 14.6482V14.9732C7.58913 14.9935 7.56438 15.0138 7.53486 15.0335C7.53486 15.0335 7.45469 15.0896 7.33147 15.1974C7.24833 15.2694 7.17129 15.3422 7.09921 15.4135V14.868C7.15876 14.8196 7.21913 14.7732 7.28132 14.7302C7.41411 14.6389 7.53238 14.6218 7.60991 14.648V14.6482ZM7.60991 20.79V21.3876C7.4372 21.3839 7.26466 21.3608 7.09921 21.3176V20.6626C7.25047 20.7508 7.42829 20.79 7.60991 20.79ZM7.09921 6.41058V7.1046C6.86051 7.60629 6.79305 8.3811 7.09921 9.1815V10.5195C5.92488 9.02907 6.10814 7.15082 7.09921 6.41058ZM7.09921 11.2907V12.0073C6.81795 11.8013 6.5405 11.5566 6.21388 11.3653V10.843C6.41925 10.9095 6.6073 10.9953 6.78133 11.0905C6.87404 11.1415 6.98258 11.213 7.09904 11.2905L7.09921 11.2907ZM7.09921 14.868V15.4135C6.95685 15.5562 6.83412 15.6971 6.73069 15.8376C6.74834 15.8582 6.76566 15.8808 6.77968 15.9077C6.77968 15.9077 6.82241 15.9854 6.87569 16.122C7.1444 16.8132 7.14704 17.6043 6.77968 18.2792C6.25661 19.2402 6.42833 20.2015 7.04395 20.6286C7.0616 20.64 7.0804 20.6517 7.09904 20.6625V21.3174C6.75741 21.2297 6.44499 21.0574 6.21372 20.7955V17.9828C6.35162 17.5217 6.444 17.0547 6.32226 16.576C6.27871 16.6925 6.24324 16.8099 6.21372 16.9284V15.8363C6.2858 15.7329 6.3668 15.6275 6.45571 15.5198C6.6398 15.2963 6.85969 15.0625 7.09904 14.8678L7.09921 14.868ZM6.21388 10.843V11.3653C5.672 11.0473 4.99782 10.8742 3.95777 11.2641C3.88304 11.292 3.64468 11.3721 3.5947 11.2526C3.54323 11.1287 3.78159 11.0307 3.85467 11.0034C4.86965 10.6229 5.61789 10.6505 6.21388 10.843ZM6.21388 15.8364V16.9286C6.0867 17.4447 6.0867 17.975 6.04843 18.498C6.10353 18.3278 6.16126 18.1554 6.21388 17.983V20.7956C5.97469 20.5245 5.82244 20.1566 5.81815 19.6862C5.7746 19.7977 5.7228 19.907 5.66243 20.0157C5.30645 20.6498 4.68209 20.9389 3.69812 20.833C2.67325 20.7233 2.27026 20.1197 2.20361 19.455V19.0386C2.29269 18.0836 2.9474 17.1864 3.36194 17.5889C3.47675 17.7014 3.51568 17.8934 3.35039 18.0383C1.7419 19.4653 4.28009 21.1238 5.06826 19.7203C5.41434 19.1019 5.40279 18.4978 5.48098 17.8214C5.54861 17.2238 5.68915 16.5795 6.21405 15.8361L6.21388 15.8364Z" fill="#00A3E4"/>
</g>
<defs>
<clipPath id="clip0_11_118">
<rect width="32" height="29" fill="white"/>
</clipPath>
</defs>
</svg>
