<svg width="109" height="22" viewBox="0 0 109 22" fill="none" xmlns="http://www.w3.org/2000/svg">
<path d="M1.278 17V4.4H3.816L7.758 12.464L11.7 4.4H14.22V17H12.438V6.704L7.74 16.1L3.042 6.704V17H1.278ZM16.9259 17V7.838H18.7259V17H16.9259ZM17.8259 6.362C17.5259 6.362 17.2679 6.254 17.0519 6.038C16.8359 5.81 16.7279 5.546 16.7279 5.246C16.7279 4.934 16.8359 4.676 17.0519 4.472C17.2679 4.256 17.5259 4.148 17.8259 4.148C18.1379 4.148 18.4019 4.256 18.6179 4.472C18.8339 4.676 18.9419 4.934 18.9419 5.246C18.9419 5.546 18.8339 5.81 18.6179 6.038C18.4019 6.254 18.1379 6.362 17.8259 6.362ZM21.2058 17V7.838H23.0058V8.774C23.7138 8.03 24.6318 7.658 25.7598 7.658C26.4678 7.658 27.0858 7.808 27.6138 8.108C28.1538 8.408 28.5738 8.828 28.8738 9.368C29.1858 9.908 29.3418 10.532 29.3418 11.24V17H27.5418V11.546C27.5418 10.826 27.3378 10.262 26.9298 9.854C26.5338 9.434 25.9758 9.224 25.2558 9.224C24.7758 9.224 24.3438 9.326 23.9598 9.53C23.5758 9.734 23.2578 10.028 23.0058 10.412V17H21.2058ZM36.1164 17V4.4H38.6544L42.5964 12.464L46.5384 4.4H49.0584V17H47.2764V6.704L42.5784 16.1L37.8804 6.704V17H36.1164ZM51.7643 17V7.838H53.5643V17H51.7643ZM52.6643 6.362C52.3643 6.362 52.1063 6.254 51.8903 6.038C51.6743 5.81 51.5663 5.546 51.5663 5.246C51.5663 4.934 51.6743 4.676 51.8903 4.472C52.1063 4.256 52.3643 4.148 52.6643 4.148C52.9763 4.148 53.2403 4.256 53.4563 4.472C53.6723 4.676 53.7803 4.934 53.7803 5.246C53.7803 5.546 53.6723 5.81 53.4563 6.038C53.2403 6.254 52.9763 6.362 52.6643 6.362ZM56.0443 17V7.838H57.8443V8.774C58.5523 8.03 59.4703 7.658 60.5983 7.658C61.3063 7.658 61.9243 7.808 62.4523 8.108C62.9923 8.408 63.4123 8.828 63.7123 9.368C64.0243 9.908 64.1803 10.532 64.1803 11.24V17H62.3803V11.546C62.3803 10.826 62.1763 10.262 61.7683 9.854C61.3723 9.434 60.8143 9.224 60.0943 9.224C59.6143 9.224 59.1823 9.326 58.7983 9.53C58.4143 9.734 58.0963 10.028 57.8443 10.412V17H56.0443ZM69.5152 17.162C68.8552 17.162 68.2732 17.048 67.7692 16.82C67.2652 16.58 66.8692 16.25 66.5812 15.83C66.2932 15.41 66.1492 14.924 66.1492 14.372C66.1492 13.508 66.4792 12.83 67.1392 12.338C67.7992 11.834 68.7052 11.582 69.8572 11.582C70.7572 11.582 71.5912 11.756 72.3592 12.104V11.132C72.3592 10.472 72.1672 9.98 71.7832 9.656C71.4112 9.332 70.8592 9.17 70.1272 9.17C69.7072 9.17 69.2692 9.236 68.8132 9.368C68.3572 9.488 67.8472 9.68 67.2832 9.944L66.6172 8.594C67.3132 8.27 67.9612 8.036 68.5612 7.892C69.1612 7.736 69.7672 7.658 70.3792 7.658C71.5672 7.658 72.4852 7.94 73.1332 8.504C73.7932 9.068 74.1232 9.872 74.1232 10.916V17H72.3592V16.208C71.9512 16.532 71.5132 16.772 71.0452 16.928C70.5772 17.084 70.0672 17.162 69.5152 17.162ZM67.8772 14.336C67.8772 14.78 68.0632 15.14 68.4352 15.416C68.8192 15.692 69.3172 15.83 69.9292 15.83C70.4092 15.83 70.8472 15.758 71.2432 15.614C71.6512 15.47 72.0232 15.248 72.3592 14.948V13.4C72.0112 13.196 71.6452 13.052 71.2612 12.968C70.8892 12.872 70.4692 12.824 70.0012 12.824C69.3412 12.824 68.8192 12.962 68.4352 13.238C68.0632 13.502 67.8772 13.868 67.8772 14.336ZM79.7072 17.18C78.9152 17.18 78.1712 17.066 77.4752 16.838C76.7912 16.598 76.1972 16.262 75.6932 15.83L76.6832 14.642C77.1512 15.014 77.6312 15.302 78.1232 15.506C78.6272 15.698 79.1372 15.794 79.6532 15.794C80.3012 15.794 80.8292 15.668 81.2372 15.416C81.6452 15.164 81.8492 14.834 81.8492 14.426C81.8492 14.09 81.7292 13.826 81.4892 13.634C81.2492 13.442 80.8772 13.31 80.3732 13.238L78.7172 13.004C77.8052 12.872 77.1212 12.59 76.6652 12.158C76.2092 11.726 75.9812 11.15 75.9812 10.43C75.9812 9.878 76.1312 9.398 76.4312 8.99C76.7312 8.57 77.1512 8.246 77.6912 8.018C78.2312 7.778 78.8612 7.658 79.5812 7.658C80.2412 7.658 80.8772 7.754 81.4892 7.946C82.1012 8.138 82.6892 8.438 83.2532 8.846L82.3352 10.034C81.8312 9.698 81.3392 9.452 80.8592 9.296C80.3912 9.14 79.9172 9.062 79.4372 9.062C78.8852 9.062 78.4412 9.182 78.1052 9.422C77.7692 9.65 77.6012 9.95 77.6012 10.322C77.6012 10.658 77.7152 10.922 77.9432 11.114C78.1832 11.294 78.5732 11.42 79.1132 11.492L80.7692 11.726C81.6812 11.858 82.3712 12.14 82.8392 12.572C83.3072 12.992 83.5412 13.562 83.5412 14.282C83.5412 14.834 83.3732 15.332 83.0372 15.776C82.7012 16.208 82.2452 16.55 81.6692 16.802C81.0932 17.054 80.4392 17.18 79.7072 17.18Z" fill="#28283D"/>
</svg>
