<svg width="218" height="53" viewBox="0 0 218 53" fill="none" xmlns="http://www.w3.org/2000/svg">
<path d="M60.4805 38.79L62.2105 38.64C64.0805 38.45 64.0805 38.21 64.0805 32.35V15.64C64.0805 9.78003 64.0805 9.54002 62.2105 9.35002L60.4805 9.20002V8.15002H73.0105C77.5705 8.15002 84.6805 8.87002 84.6805 16.79C84.6805 23.37 77.3805 26.37 72.8705 26.37H72.0105V25.29C74.0805 25.29 79.6005 24.29 79.6005 17.08C79.6005 11.46 75.8005 9.73002 71.4805 9.73002C70.4697 9.75679 69.4644 9.88748 68.4805 10.12V32.37C68.4805 38.23 68.4805 38.47 71.1205 38.66L72.8505 38.81V39.81H60.4805V38.79Z" fill="white"/>
<path d="M84.2695 27.29C84.2695 18.95 90.7195 13.78 98.1795 13.78C105.28 13.78 111.27 18.3 111.27 26.87C111.27 35.44 105.09 40.42 97.4395 40.42C89.7895 40.42 84.2695 35.63 84.2695 27.29ZM98.1795 39.15C104.74 39.15 107.18 33.51 107.18 27.87C107.18 20.58 103.55 15.05 97.4895 15.05C91.6995 15.05 88.2995 19.88 88.2995 26.56C88.3295 34.44 92.3495 39.15 98.1795 39.15Z" fill="white"/>
<path d="M122.95 25.21C125.95 26.95 129.17 28.57 129.17 33.21C129.17 38.42 124.34 40.43 120.25 40.43C118.124 40.508 116.02 39.9735 114.19 38.89C113.357 36.7203 112.936 34.4141 112.95 32.09L114.19 31.78C114.61 34.56 116.04 39.16 121.33 39.16C121.964 39.2015 122.601 39.1051 123.195 38.8774C123.789 38.6498 124.327 38.2964 124.771 37.8413C125.216 37.3863 125.557 36.8404 125.77 36.2413C125.984 35.6421 126.066 35.0037 126.01 34.37C126.01 31.55 123.66 29.62 120.65 28.27L118.17 26.92C116.956 26.305 115.925 25.3815 115.181 24.2424C114.437 23.1033 114.005 21.7886 113.93 20.43C113.93 15.72 117.87 13.75 121.93 13.75C123.782 13.6954 125.618 14.119 127.26 14.98C127.531 16.7435 127.658 18.526 127.64 20.3101H126.64C126.25 18.3801 125.64 15.02 121.27 15.02C120.713 15.0049 120.158 15.1034 119.641 15.3096C119.123 15.5158 118.653 15.8254 118.259 16.2194C117.865 16.6134 117.555 17.0836 117.349 17.6012C117.143 18.1188 117.044 18.6731 117.06 19.2301C117.06 21.51 118.72 22.7401 120.81 23.9801L122.95 25.21Z" fill="white"/>
<path d="M129.301 38.99L130.691 38.88C132.191 38.72 132.191 38.53 132.191 33.82V20.37C132.191 15.66 132.191 15.47 130.691 15.31L129.301 15.2V14.37H138.681V15.22L137.291 15.33C135.781 15.49 135.781 15.68 135.781 20.39V33.82C135.781 38.53 135.781 38.72 137.291 38.88L138.681 38.99V39.84H129.301V38.99Z" fill="white"/>
<path d="M146.32 38.99L147.74 38.88C149.87 38.72 149.87 38.53 149.87 33.82V15.44H147.87C142.42 15.44 142.35 16.02 141.5 20.5H140.57C140.57 20.34 140.49 19.3 140.49 18.8C140.504 17.3141 140.644 15.832 140.91 14.37H162.42C162.681 15.8361 162.821 17.321 162.84 18.81C162.84 19.31 162.77 20.35 162.77 20.51H161.84C160.99 16.03 160.91 15.45 155.47 15.45H153.47V33.82C153.47 38.53 153.47 38.72 155.63 38.88L157.02 38.99V39.84H146.32V38.99Z" fill="white"/>
<path d="M164.199 38.99L165.579 38.88C167.089 38.72 167.089 38.53 167.089 33.82V20.37C167.089 15.66 167.089 15.47 165.579 15.31L164.199 15.2V14.37H173.579V15.22L172.189 15.33C170.679 15.49 170.679 15.68 170.679 20.39V33.82C170.679 38.53 170.679 38.72 172.189 38.88L173.579 38.99V39.84H164.199V38.99Z" fill="white"/>
<path d="M178.099 18.3C177.519 16.87 177.099 15.44 175.819 15.3L174.699 15.19V14.37H184.309V15.22L183.119 15.33C182.499 15.41 181.379 15.52 181.379 16.33C181.498 16.8576 181.666 17.3731 181.879 17.87L188.559 35.1C189.449 32.78 195.509 17.76 195.509 16.56C195.509 15.79 194.739 15.56 194.009 15.48L192.269 15.25V14.37H200.609V15.22L199.609 15.45C199.168 15.5335 198.764 15.7499 198.449 16.07C197.599 16.92 196.359 20.62 195.399 22.48L192.769 28.81C190.569 34.14 188.639 38.81 188.289 39.81C187.883 40.0652 187.441 40.2605 186.979 40.39L178.099 18.3Z" fill="white"/>
<path d="M192.141 38.99L192.871 38.88C194.341 38.65 194.541 38.22 195.461 35.98L203.461 16.44C203.771 15.67 204.081 14.9 204.391 14.16L205.511 13.78L214.121 36.14C214.701 37.68 215.121 38.57 216.121 38.76L217.671 38.99V39.84H208.091V38.99L209.831 38.68C210.521 38.57 211.031 38.38 211.031 37.95C210.988 37.6704 210.907 37.3979 210.791 37.14L208.091 29.84C206.676 29.5764 205.24 29.4458 203.801 29.45C202.459 29.4687 201.121 29.5991 199.801 29.84L197.801 35.21C197.453 36.0437 197.195 36.9119 197.031 37.8C197.031 38.53 197.531 38.65 197.951 38.68L200.271 38.99V39.84H192.161L192.141 38.99ZM200.251 28.37C201.411 28.3 202.611 28.18 203.761 28.18C205 28.1682 206.239 28.2317 207.471 28.37L203.921 19.03L200.251 28.37Z" fill="white"/>
<path d="M83.3804 49.78C83.309 50.6262 83.1066 51.456 82.7804 52.24C81.8264 52.6204 80.8073 52.8106 79.7804 52.8C77.0004 52.8 74.4004 51.51 74.4004 47.8C74.4004 43.93 77.5104 42.8 79.8004 42.8C80.8332 42.7538 81.862 42.9562 82.8004 43.39C82.9415 44.0946 83.0118 44.8115 83.0104 45.53L82.6204 45.62C82.5968 45.2788 82.5046 44.9457 82.3491 44.641C82.1937 44.3362 81.9783 44.066 81.7159 43.8466C81.4535 43.6271 81.1494 43.4629 80.822 43.3638C80.4945 43.2648 80.1505 43.2329 79.8104 43.27C77.4304 43.27 75.9404 44.83 75.9404 47.55C75.9404 50.03 77.1304 52.32 79.7704 52.32C82.1704 52.32 82.5404 50.85 82.9904 49.69L83.3804 49.78Z" fill="white"/>
<path d="M83.8502 48.7899C83.8388 48.2442 83.9393 47.702 84.1454 47.1965C84.3514 46.6911 84.6588 46.2332 85.0485 45.851C85.4382 45.4688 85.902 45.1704 86.4113 44.9741C86.9207 44.7779 87.4648 44.688 88.0102 44.7099C88.5409 44.672 89.0737 44.7478 89.5728 44.9322C90.0719 45.1166 90.5259 45.4054 90.9045 45.7793C91.2831 46.1532 91.5776 46.6035 91.7683 47.1003C91.9589 47.597 92.0414 48.1288 92.0102 48.6599C92.0231 49.2083 91.9231 49.7534 91.7164 50.2614C91.5097 50.7694 91.2008 51.2295 90.8088 51.6131C90.4168 51.9967 89.95 52.2955 89.4376 52.4911C88.9252 52.6867 88.3781 52.7748 87.8302 52.7499C87.2994 52.7883 86.7665 52.7124 86.2676 52.5272C85.7687 52.3421 85.3153 52.0521 84.938 51.6767C84.5607 51.3013 84.2684 50.8494 84.0808 50.3514C83.8931 49.8534 83.8145 49.3209 83.8502 48.7899ZM88.0102 52.3699C90.0102 52.3699 90.7402 50.6699 90.7402 48.9599C90.7402 46.7599 89.6502 45.0899 87.8102 45.0899C85.9702 45.0899 85.0402 46.5499 85.0402 48.5699C85.0802 50.9499 86.2902 52.3699 88.0102 52.3699Z" fill="white"/>
<path d="M92.6602 52.37L92.9502 52.3C93.0807 52.287 93.2051 52.2385 93.3102 52.16C93.5037 51.5388 93.5948 50.8904 93.5802 50.24L93.7702 47.3C93.7702 46.51 93.8902 45.25 93.8902 44.93L94.2102 44.83C94.5602 45.43 97.2102 50.46 97.5802 51.1C97.9502 50.51 100.58 45.53 100.79 44.93L101.09 44.83C101.09 44.92 101.17 46.23 101.25 47.76L101.36 49.76C101.37 50.5314 101.443 51.3007 101.58 52.06C101.632 52.1277 101.698 52.1827 101.775 52.2209C101.851 52.259 101.935 52.2792 102.02 52.28L102.37 52.35V52.61H99.3702V52.37L99.8202 52.3C100.32 52.24 100.37 52.06 100.37 51.52C100.37 50.23 100.17 47.78 100.17 47.03C99.9702 47.54 98.7802 49.83 97.6302 52.1C97.5702 52.22 97.5202 52.36 97.4602 52.48L97.1402 52.63C96.8802 52.09 95.4002 49.25 94.5902 47.71C94.4802 47.49 94.3702 47.26 94.2802 47.03C94.2802 47.7 94.0802 51.03 94.0802 51.36C94.0802 52.05 94.0802 52.24 94.6302 52.3L95.0902 52.37V52.63H92.6602V52.37Z" fill="white"/>
<path d="M102.909 52.37H103.329C103.779 52.32 103.779 52.26 103.779 50.84V46.7C103.779 45.28 103.779 45.22 103.329 45.17H102.909V44.91H105.909C107.019 44.91 108.749 45.09 108.749 47.01C108.749 48.6 106.969 49.33 105.879 49.33H105.679V49.07C105.937 49.079 106.194 49.0321 106.432 48.9326C106.671 48.833 106.884 48.683 107.059 48.4931C107.234 48.3031 107.366 48.0775 107.445 47.8319C107.524 47.5863 107.55 47.3264 107.519 47.07C107.519 45.71 106.599 45.29 105.519 45.29C105.277 45.2947 105.036 45.3249 104.799 45.38V50.78C104.799 52.2 104.799 52.26 105.439 52.31H105.859V52.57H102.859L102.909 52.37Z" fill="white"/>
<path d="M108.119 52.37H108.339C108.789 52.3 108.849 52.17 109.129 51.49L111.549 45.59C111.649 45.36 111.739 45.12 111.829 44.9L112.169 44.79L114.769 51.54C114.949 52.01 115.059 52.27 115.369 52.33L115.829 52.4V52.66H112.939V52.37L113.459 52.28C113.679 52.28 113.829 52.19 113.829 52.06C113.815 51.9744 113.792 51.8905 113.759 51.81L112.939 49.61C112.514 49.5303 112.082 49.4901 111.649 49.49C111.236 49.4953 110.825 49.5354 110.419 49.61L109.829 51.23C109.723 51.4812 109.642 51.7425 109.589 52.01C109.589 52.23 109.739 52.27 109.869 52.28L110.569 52.37V52.63H108.119V52.37ZM110.569 49.17C110.919 49.17 111.279 49.11 111.629 49.11C112.003 49.1048 112.378 49.1249 112.749 49.17L111.679 46.34L110.569 49.17Z" fill="white"/>
<path d="M115.619 52.37H116.039C116.499 52.37 116.579 51.97 116.579 50.71V44.88L116.849 44.78C117.849 46.01 121.259 49.58 122.529 50.83V46.83C122.529 45.55 122.529 45.23 121.889 45.17H121.459V44.91H124.009V45.17H123.599C123.169 45.17 123.089 45.57 123.089 46.83V52.58L122.839 52.68C122.579 52.41 121.839 51.68 120.639 50.4L117.139 46.7V50.63C117.139 51.91 117.139 52.23 117.749 52.29H118.169V52.55H115.649L115.619 52.37ZM118.189 43.88C118.329 43.65 118.749 42.88 119.369 42.88C119.659 42.9061 119.943 42.9804 120.209 43.1C120.488 43.2365 120.79 43.318 121.099 43.34C121.429 43.34 121.649 42.97 121.749 42.85L121.899 42.99C121.769 43.27 121.429 43.99 120.789 43.99C120.149 43.99 119.449 43.53 119.049 43.53C118.649 43.53 118.469 43.89 118.349 44.04L118.189 43.88Z" fill="white"/>
<path d="M124.52 52.37H124.94C125.4 52.32 125.4 52.26 125.4 50.84V46.7C125.4 45.28 125.4 45.22 124.94 45.17H124.52V44.91H127.36V45.17H126.94C126.48 45.22 126.48 45.28 126.48 46.7V50.76C126.48 52.18 126.48 52.24 126.94 52.29H127.36V52.55H124.52V52.37Z" fill="white"/>
<path d="M127.381 52.37H127.601C128.041 52.3 128.101 52.17 128.381 51.49L130.811 45.59C130.901 45.36 130.991 45.12 131.091 44.9L131.431 44.79L134.031 51.54C134.201 52.01 134.321 52.27 134.621 52.33L135.091 52.4V52.66H132.201V52.37L132.721 52.28C132.931 52.28 133.081 52.19 133.081 52.06C133.072 51.9734 133.048 51.8889 133.011 51.81L132.201 49.61C131.772 49.5309 131.337 49.4908 130.901 49.49C130.491 49.4948 130.083 49.5349 129.681 49.61L129.081 51.23C128.976 51.4808 128.899 51.7424 128.851 52.01C128.851 52.23 129.001 52.27 129.131 52.28L129.831 52.37V52.63H127.381V52.37ZM129.831 49.17C130.181 49.17 130.541 49.11 130.891 49.11C131.265 49.1051 131.639 49.1251 132.011 49.17L130.941 46.34L129.831 49.17Z" fill="white"/>
<path d="M137.68 52.37H138.03C138.41 52.37 138.41 52.28 138.41 51.1V47.71C138.41 46.53 138.41 46.48 138.03 46.44H137.68V46.23H140.85C142.92 46.23 144.16 47.31 144.16 49.23C144.16 51.74 142.29 52.65 140.27 52.65H137.68V52.37ZM139.31 52.12C139.671 52.201 140.039 52.2478 140.41 52.26C142.17 52.26 143.15 51.26 143.15 49.4C143.203 49.0137 143.167 48.6203 143.044 48.2501C142.922 47.8799 142.716 47.5427 142.442 47.2645C142.169 46.9864 141.836 46.7746 141.468 46.6455C141.1 46.5165 140.707 46.4735 140.32 46.52C139.985 46.5305 139.651 46.5606 139.32 46.61L139.31 52.12Z" fill="white"/>
<path d="M144.889 52.37H145.239C145.609 52.37 145.609 52.28 145.609 51.1V47.71C145.609 46.53 145.609 46.48 145.239 46.44H144.889V46.23H149.009C149.077 46.5591 149.114 46.8939 149.119 47.23C149.119 47.45 149.119 47.53 149.119 47.62H148.889C148.679 46.62 148.659 46.44 147.289 46.44H146.489V49.1H147.349C148.109 49.1 148.279 49.1 148.349 48.69L148.399 48.36H148.649V50.1H148.399L148.349 49.77C148.289 49.38 148.119 49.37 147.349 49.37H146.489V52.15C146.834 52.2271 147.186 52.2706 147.539 52.28C149.079 52.28 149.179 51.7 149.369 50.91H149.609C149.582 51.4586 149.478 52.0006 149.299 52.52H144.869L144.889 52.37Z" fill="white"/>
<path d="M156.51 47.0801C157.66 47.7301 158.85 48.3401 158.85 50.0801C158.85 52.0801 157.03 52.7901 155.5 52.7901C154.7 52.8162 153.91 52.6151 153.22 52.2101C152.91 51.3923 152.754 50.5244 152.76 49.6501L153.22 49.5401C153.38 50.5401 153.92 52.3101 155.9 52.3101C156.136 52.3222 156.372 52.2838 156.592 52.1974C156.812 52.1111 157.011 51.9788 157.175 51.8093C157.34 51.6399 157.467 51.4372 157.547 51.2148C157.627 50.9925 157.659 50.7556 157.64 50.5201C157.64 49.5201 156.76 48.7401 155.64 48.2301L154.71 47.7201C154.252 47.4935 153.862 47.149 153.58 46.722C153.299 46.2949 153.137 45.8007 153.11 45.2901C153.11 43.5201 154.59 42.7801 156.11 42.7801C156.805 42.7569 157.495 42.9154 158.11 43.2401C158.215 43.9014 158.265 44.5704 158.26 45.2401H157.9C157.75 44.5101 157.52 43.2401 155.9 43.2401C155.691 43.2346 155.483 43.2717 155.289 43.3491C155.095 43.4266 154.918 43.5428 154.77 43.6906C154.623 43.8384 154.506 44.0148 154.429 44.209C154.352 44.4031 154.314 44.6111 154.32 44.8201C154.32 45.6701 154.94 46.1401 155.72 46.6001L156.51 47.0801Z" fill="white"/>
<path d="M159.559 52.37H159.979C160.429 52.32 160.429 52.26 160.429 50.84V46.7C160.429 45.28 160.429 45.22 159.979 45.17H159.559V44.91H164.559C164.643 45.3182 164.686 45.7335 164.689 46.15C164.689 46.42 164.689 46.51 164.689 46.61H164.409C164.149 45.36 164.129 45.19 162.479 45.19H161.479V48.37H162.479C163.389 48.37 163.599 48.37 163.669 47.89L163.729 47.49H164.029V49.59H163.729L163.669 49.19C163.599 48.71 163.389 48.7 162.479 48.7H161.479V52.06C161.9 52.1493 162.329 52.1995 162.759 52.21C164.609 52.21 164.759 51.51 164.959 50.56H165.249C165.211 51.2209 165.083 51.8735 164.869 52.5H159.529L159.559 52.37Z" fill="white"/>
<path d="M173.21 52.17C172.278 52.523 171.295 52.719 170.3 52.75C167.95 52.75 165.85 51.75 165.85 48.75C165.85 45.75 168.36 44.75 170.2 44.75C171.019 44.7213 171.833 44.8821 172.58 45.22C172.703 45.7884 172.767 46.3683 172.77 46.95L172.46 47.02C172.447 46.7423 172.376 46.4704 172.253 46.2215C172.129 45.9726 171.955 45.7522 171.741 45.5744C171.528 45.3965 171.28 45.2652 171.012 45.1887C170.745 45.1122 170.465 45.0922 170.19 45.13C168.28 45.13 167.08 46.39 167.08 48.57C167.08 50.57 168.08 52.41 170.38 52.41C170.837 52.4101 171.293 52.3598 171.74 52.26V51.83C171.74 50.4 171.74 50.35 170.93 50.3H170.51V49.97H173.51V50.22H173.09C172.87 50.22 172.87 50.32 172.87 51.45C172.87 51.8 172.87 51.87 173.05 51.87H173.17L173.21 52.17Z" fill="white"/>
<path d="M180.379 52.37C180.219 52.2 180.129 52.04 179.949 52.04C179.123 52.4826 178.206 52.7322 177.269 52.77C174.859 52.77 174.659 51.39 174.659 49.77V46.7C174.659 45.28 174.659 45.22 174.199 45.17H173.779V44.91H176.619V45.17H176.199C175.739 45.22 175.739 45.28 175.739 46.7V49.59C175.739 51.26 176.019 52.37 177.829 52.37C178.227 52.375 178.621 52.2946 178.985 52.1341C179.349 51.9737 179.675 51.737 179.939 51.44V46.7C179.939 45.28 179.939 45.22 179.489 45.17H179.069V44.91H181.899V45.17H181.479C181.029 45.22 181.029 45.28 181.029 46.7V52.58L180.679 52.68L180.379 52.37Z" fill="white"/>
<path d="M182.5 52.37H182.92C183.37 52.32 183.37 52.26 183.37 50.84V46.7C183.37 45.28 183.37 45.22 182.92 45.17H182.5V44.91H185.5C186.61 44.91 188.17 45.07 188.17 46.85C188.112 47.2993 187.931 47.7238 187.647 48.0767C187.363 48.4296 186.987 48.6972 186.56 48.85C186.74 49.17 187.12 49.92 187.43 50.48C187.75 51.1339 188.191 51.721 188.73 52.21C188.912 52.2929 189.111 52.3306 189.31 52.32V52.58H188.42C188.065 52.5468 187.726 52.4162 187.44 52.2028C187.154 51.9893 186.933 51.7012 186.8 51.37L186.33 50.48C186.139 50.0807 185.897 49.7076 185.61 49.37C185.392 49.2446 185.14 49.1921 184.89 49.22H184.46V50.76C184.46 52.18 184.46 52.24 184.9 52.29H185.32V52.55H182.5V52.37ZM184.5 48.95H185.16C185.413 48.9707 185.666 48.9353 185.904 48.8463C186.141 48.7574 186.356 48.6172 186.532 48.4356C186.709 48.2541 186.844 48.0358 186.926 47.7963C187.009 47.5567 187.037 47.3019 187.01 47.05C187.034 46.8077 187.003 46.5631 186.921 46.3341C186.838 46.1052 186.704 45.8977 186.531 45.727C186.357 45.5562 186.148 45.4266 185.917 45.3475C185.687 45.2684 185.442 45.242 185.2 45.27C184.957 45.2741 184.716 45.3043 184.48 45.36L184.5 48.95Z" fill="white"/>
<path d="M189.18 48.79C189.169 48.2408 189.27 47.695 189.479 47.1868C189.687 46.6785 189.998 46.2187 190.392 45.8359C190.786 45.4531 191.255 45.1556 191.769 44.9619C192.283 44.7682 192.832 44.6824 193.38 44.71C193.907 44.6779 194.435 44.7581 194.929 44.9452C195.423 45.1324 195.871 45.4222 196.245 45.7956C196.618 46.169 196.908 46.6174 197.095 47.1112C197.282 47.605 197.362 48.1329 197.33 48.66C197.352 49.2099 197.259 49.7582 197.056 50.2697C196.853 50.7812 196.545 51.2445 196.152 51.6298C195.759 52.0151 195.29 52.3138 194.775 52.5068C194.26 52.6997 193.71 52.7826 193.16 52.75C192.629 52.7884 192.097 52.7125 191.598 52.5273C191.099 52.3422 190.645 52.0521 190.268 51.6768C189.891 51.3014 189.598 50.8495 189.411 50.3515C189.223 49.8535 189.145 49.321 189.18 48.79ZM193.38 52.37C195.38 52.37 196.11 50.67 196.11 48.96C196.11 46.76 195.01 45.09 193.18 45.09C191.35 45.09 190.4 46.55 190.4 48.57C190.4 50.95 191.62 52.37 193.38 52.37Z" fill="white"/>
<path d="M201.129 48.16C202.059 48.68 203.009 49.16 203.009 50.57C203.009 52.15 201.549 52.75 200.319 52.75C199.678 52.7747 199.043 52.615 198.489 52.29C198.237 51.636 198.108 50.941 198.109 50.24L198.489 50.14C198.492 50.7188 198.718 51.2742 199.12 51.6899C199.523 52.1056 200.071 52.3494 200.649 52.37C200.836 52.3749 201.022 52.3403 201.195 52.2686C201.367 52.1969 201.523 52.0896 201.651 51.9537C201.779 51.8178 201.877 51.6564 201.939 51.4801C202.001 51.3037 202.025 51.1163 202.009 50.93C202.009 50.08 201.299 49.5 200.389 49.09L199.649 48.68C199.274 48.4934 198.957 48.2091 198.73 47.8572C198.503 47.5052 198.375 47.0986 198.359 46.68C198.359 45.25 199.549 44.68 200.789 44.68C201.349 44.6626 201.904 44.7901 202.399 45.05C202.481 45.5828 202.521 46.1211 202.519 46.66H202.219C202.099 46.08 201.919 45.06 200.599 45.06C200.43 45.0598 200.263 45.094 200.108 45.1607C199.953 45.2273 199.813 45.3249 199.697 45.4476C199.581 45.5703 199.491 45.7154 199.433 45.874C199.375 46.0326 199.35 46.2014 199.359 46.37C199.359 47.06 199.859 47.43 200.489 47.81L201.129 48.16Z" fill="white"/>
<path d="M26.31 1.9013e-06C21.1075 -0.00197586 16.0213 1.53906 11.6947 4.42818C7.36821 7.3173 3.99572 11.4247 2.00389 16.2308C0.0120695 21.0369 -0.509601 26.3258 0.504871 31.4284C1.51934 36.5311 4.02438 41.2182 7.7031 44.8969C11.3818 48.5756 16.069 51.0807 21.1716 52.0951C26.2742 53.1096 31.5631 52.5879 36.3692 50.5961C41.1753 48.6043 45.2827 45.2318 48.1718 40.9053C51.061 36.5787 52.602 31.4925 52.6 26.29C52.6 22.8376 51.92 19.4189 50.5988 16.2293C49.2776 13.0396 47.3411 10.1414 44.8998 7.70016C42.4586 5.25891 39.5604 3.3224 36.3708 2.00121C33.1811 0.680013 29.7625 1.9013e-06 26.31 1.9013e-06ZM25.94 10.92C26.8097 11.5816 27.6348 12.2998 28.41 13.07C28.58 13.22 28.74 13.41 29.34 13.2C30.57 12.83 33.4 11.44 35.42 11.26C35.7221 11.1698 36.0436 11.168 36.3467 11.2548C36.6497 11.3417 36.9216 11.5135 37.13 11.75C38.0088 12.4586 38.8437 13.22 39.63 14.03C38.5489 14.126 37.4761 14.2998 36.42 14.55L36.2 14.6C35.8976 14.6607 35.6165 14.7999 35.3849 15.0035C35.1532 15.2071 34.9791 15.4679 34.88 15.76C34.8413 15.9103 34.8211 16.0648 34.82 16.22C34.8279 16.6131 34.9649 16.9926 35.21 17.3C35.598 17.896 35.9327 18.5251 36.21 19.18C34.5117 19.7035 32.8426 20.3177 31.21 21.02C30.9181 21.1351 30.6574 21.3173 30.4489 21.5518C30.2405 21.7863 30.0901 22.0666 30.01 22.37C29.9988 22.4864 29.9988 22.6036 30.01 22.72C30.0148 23.2412 30.2229 23.74 30.59 24.11C32.6028 26.6412 33.6864 29.7862 33.66 33.02C33.6601 33.8761 33.5763 34.7302 33.41 35.57C32.6 39.57 29.9 42.63 25.41 44.65C23.155 45.5967 20.7102 46.0042 18.27 45.84H18.67C23.2 45.29 26.39 43.72 28.59 39.84C31.59 34.44 29.32 27.84 24.76 24.04C23.4165 23.02 21.9993 22.1008 20.52 21.29C20.16 21.08 19.96 20.76 20.41 20.2C21.552 18.557 22.9263 17.0884 24.49 15.84C24.92 15.54 24.73 15.29 24.55 15.05C23.8812 14.4775 23.1653 13.9623 22.41 13.51C21.92 13.27 21.72 13.01 22.1 12.66C22.9458 11.8718 23.9332 11.2509 25.01 10.83C25.1558 10.7485 25.3229 10.7135 25.4891 10.7296C25.6553 10.7457 25.8126 10.8121 25.94 10.92ZM8.83001 15.6C9.39987 14.4537 10.0691 13.3595 10.83 12.33C10.909 12.2104 11.0258 12.1207 11.1618 12.0754C11.2978 12.03 11.4451 12.0317 11.58 12.08C12.32 12.21 13.58 12.76 15.33 13.23C15.4625 13.2913 15.6124 13.3038 15.7533 13.2654C15.8942 13.227 16.0169 13.1401 16.1 13.02C17.7485 11.3186 19.7389 9.98595 21.94 9.11C22.1455 9.0288 22.3658 8.99217 22.5865 9.00251C22.8071 9.01285 23.0231 9.06994 23.22 9.17C23.61 9.35 24.03 9.54 24.53 9.79C23.4605 10.2385 22.4761 10.8677 21.62 11.65C21.4281 11.8165 21.2743 12.0223 21.1691 12.2536C21.0638 12.4848 21.0096 12.736 21.01 12.99C21.0043 13.0632 21.0043 13.1368 21.01 13.21C21.0722 13.5246 21.2091 13.8197 21.4093 14.0703C21.6094 14.321 21.8669 14.5198 22.16 14.65C22.5602 14.8858 22.9474 15.1428 23.32 15.42C21.9771 16.5998 20.7878 17.9437 19.78 19.42C19.579 19.6448 19.4293 19.9105 19.3413 20.1989C19.2532 20.4873 19.2289 20.7913 19.27 21.09C19.3261 21.3777 19.4448 21.6495 19.6176 21.8863C19.7904 22.123 20.0131 22.3189 20.27 22.46L20.99 22.89C22.1619 23.5356 23.2819 24.2711 24.34 25.09C28.22 28.3 30.68 34.17 27.85 39.2C25.95 42.57 23.2 44.31 18.94 44.83C17.4642 45.0063 15.9684 44.9045 14.53 44.53C15.1103 44.6043 15.6951 44.6377 16.28 44.63C19.49 44.63 22.86 43.47 24.61 40.71C28.99 33.82 23.96 26.71 17.14 24.43C15.14 23.8019 13.0888 23.3502 11.01 23.08C10.28 22.99 10.1 22.76 10.33 22.25C11.0907 20.5827 11.987 18.9806 13.01 17.46C13.08 17.36 13.01 17.12 12.77 17.04C11.6159 16.7053 10.4441 16.4349 9.26001 16.23C8.81001 16.17 8.64001 15.96 8.83001 15.6ZM29.92 49.96C25.6372 50.6826 21.2383 50.2193 17.1999 48.6206C13.1615 47.0218 9.63762 44.3484 7.01001 40.89C10.49 44.26 16.41 49.74 25.39 45.59C38.46 39.75 34.61 26.72 31.01 22.91C30.9223 22.8508 30.8531 22.768 30.8105 22.6711C30.7679 22.5743 30.7536 22.4673 30.7693 22.3626C30.785 22.258 30.8301 22.1599 30.8992 22.0798C30.9683 21.9997 31.0588 21.9408 31.16 21.91C33.0751 21.0842 35.0427 20.386 37.05 19.82C37.3 19.75 37.35 19.63 37.22 19.32C36.8785 18.2288 36.3835 17.1918 35.75 16.24C35.42 15.88 35.57 15.66 35.94 15.57C37.1146 15.2747 38.3123 15.0806 39.52 14.99C39.6588 14.9603 39.8034 14.9742 39.934 15.0296C40.0646 15.0851 40.175 15.1795 40.25 15.3C40.8453 16.3854 41.3214 17.5321 41.67 18.72C41.7094 18.823 41.774 18.9145 41.8578 18.9861C41.9417 19.0577 42.0421 19.1072 42.15 19.13C44.3173 19.1446 46.4815 19.2949 48.63 19.58C48.7487 19.6074 48.8601 19.6599 48.9568 19.7341C49.0534 19.8083 49.1329 19.9024 49.19 20.01C49.69 21.52 50.81 28.81 47.6 36.51C44.01 45.37 36.84 48.9 29.92 49.96Z" fill="white"/>
</svg>
