<svg width="72" height="73" viewBox="0 0 72 73" fill="none" xmlns="http://www.w3.org/2000/svg">
<path d="M36.0164 72.8635C28.8949 72.8668 21.9324 70.7578 16.0097 66.8033C10.087 62.8488 5.47026 57.2265 2.74348 50.6477C0.0166939 44.0689 -0.697595 36.8291 0.690951 29.8443C2.0795 22.8595 5.50849 16.4434 10.5442 11.4077C15.5798 6.37202 21.9959 2.94302 28.9808 1.55447C35.9656 0.165928 43.2054 0.880227 49.7842 3.60701C56.363 6.33379 61.9852 10.9505 65.9397 16.8732C69.8942 22.7959 72.0032 29.7584 72 36.8799C71.9887 46.4199 68.194 55.5659 61.4482 62.3117C54.7024 69.0575 45.5564 72.8523 36.0164 72.8635ZM36.0164 4.49954C29.612 4.49889 23.3513 6.39742 18.0259 9.95502C12.7006 13.5126 8.54978 18.5695 6.09848 24.4862C3.64719 30.4029 3.00548 36.9136 4.25452 43.195C5.50355 49.4764 8.58722 55.2463 13.1156 59.7751C17.6439 64.3039 23.4135 67.3882 29.6948 68.6379C35.9761 69.8875 42.4868 69.2465 48.4038 66.7958C54.3207 64.3451 59.378 60.1948 62.9362 54.8698C66.4943 49.5448 68.3935 43.2843 68.3935 36.8799C68.3839 28.2956 64.9698 20.0655 58.9001 13.9952C52.8304 7.92487 44.6007 4.50993 36.0164 4.49954Z" fill="white"/>
<path d="M58.2739 19.7571C58.1495 19.3284 57.3542 16.936 54.8506 16.396C48.001 14.9497 41.0093 14.2854 34.0099 14.416C33.7612 14.416 33.5648 14.416 33.4241 14.416C27.0652 14.416 17.319 15.0443 8.7215 15.5974L8.25023 15.6269L8.03751 15.9116C7.49424 16.6349 6.96406 17.4105 6.40115 18.2844L5.65496 19.4658H53.3452C54.1372 19.4658 54.9292 19.5247 55.3088 20.1204L55.4201 20.3036C56.0124 21.2691 56.1892 21.5604 56.2022 22.2673C56.0615 22.4276 55.4462 22.5094 54.3761 22.5094H4.15279L3.94988 22.9709C3.7317 23.4989 3.51352 24.0313 3.29534 24.568L2.9026 25.612H7.6317C7.61206 29.3658 7.60879 31.0349 7.6317 34.7756C6.09679 34.7593 4.56188 34.7756 3.02697 34.7756H1.1386L1.10914 35.5185C1.10914 35.9636 1.07642 36.412 1.07642 36.8636V37.8814H23.7433H32.4586H40.1397C40.2867 37.8748 40.4339 37.8858 40.5782 37.9142L44.355 39.0793L48.5899 40.3883C48.5899 40.3883 48.5899 40.4145 48.5899 40.4342C48.7568 42.5778 50.3342 44.0342 52.5171 44.0505C53.3746 44.0505 57.1972 44.0505 58.9252 44.0505C59.0897 45.8225 58.8983 47.6096 58.3622 49.3065C57.1415 49.3065 54.5822 49.3065 54.3204 49.3065C54.1267 49.3022 53.934 49.3364 53.7536 49.4071C53.5731 49.4779 53.4086 49.5838 53.2694 49.7187C53.1303 49.8536 53.0193 50.0148 52.943 50.1929C52.8666 50.371 52.8265 50.5626 52.8248 50.7564C52.8041 50.9583 52.825 51.1624 52.8862 51.356C52.9474 51.5496 53.0477 51.7286 53.1808 51.882C53.3139 52.0353 53.477 52.1598 53.6601 52.2476C53.8431 52.3354 54.0423 52.3848 54.2452 52.3927C54.6424 52.4272 55.0414 52.4359 55.4397 52.4189C56.2294 52.3932 57.02 52.4216 57.8059 52.504C57.7633 52.7756 57.6946 53.0604 57.6161 53.3745C57.5375 53.6887 57.4524 54.0553 57.3837 54.4349C54.6935 54.4349 54.6902 54.4349 52.4746 54.4349H51.9182C51.9639 54.0811 51.9869 53.7247 51.987 53.368C52.004 52.1 51.7279 50.8453 51.1803 49.7015C50.6327 48.5578 49.8283 47.556 48.8299 46.7742C47.8314 45.9925 46.666 45.4519 45.4243 45.1946C44.1826 44.9373 42.8982 44.9702 41.6713 45.2909C37.5804 46.3676 35.0833 50.1182 35.5644 54.4316H15.9608C16.1422 53.1215 16.0072 51.787 15.567 50.5398C15.1268 49.2926 14.3942 48.169 13.4306 47.2631C12.4669 46.3572 11.3003 45.6952 10.0284 45.3328C8.75641 44.9703 7.41612 44.9178 6.1197 45.1796C4.98741 45.4203 3.9168 45.8915 2.97459 46.564L2.5197 46.8913L2.68987 47.4247C2.86441 47.9724 3.05097 48.5178 3.24951 49.0611L3.63242 50.0854L4.46696 49.3818C5.38065 48.6137 6.52693 48.1767 7.72005 48.1414C8.38484 48.128 9.04565 48.2473 9.66379 48.4923C10.2819 48.7373 10.845 49.1031 11.3201 49.5684C11.9561 50.1664 12.4282 50.9175 12.6914 51.75C12.9547 52.5824 13.0001 53.4684 12.8236 54.3234C12.647 55.1784 12.2542 55.9739 11.6828 56.634C11.1113 57.294 10.3802 57.7966 9.55932 58.0938L8.52842 58.4702L9.23532 59.3113C9.59751 59.7476 9.97278 60.1742 10.3611 60.5909L10.7408 61.0033L11.2513 60.7644C12.6465 60.1169 13.8365 59.0978 14.691 57.8189C14.7301 57.7269 14.7994 57.6509 14.8874 57.6033C14.9754 57.5558 15.0769 57.5395 15.1753 57.5571C24.5255 57.5735 26.9571 57.5735 36.3204 57.5571C36.4293 57.5372 36.5417 57.5545 36.6396 57.6061C36.7376 57.6577 36.8153 57.7407 36.8604 57.8418C37.6107 58.9794 38.631 59.9134 39.8303 60.5604C41.0296 61.2075 42.3705 61.5474 43.7332 61.5498H43.7724C45.1407 61.5437 46.4857 61.1963 47.6858 60.5391C48.8859 59.8819 49.9031 58.9357 50.6452 57.7862C50.7761 57.5833 50.8382 57.5604 51.0837 57.5571H52.4321H54.1601H56.1924C56.3135 57.5571 56.4772 57.5571 56.6179 57.5571C57.6848 57.5865 59.1444 57.6225 59.7139 55.7145C59.8022 55.456 61.9001 49.2771 61.9001 38.9451C61.8389 32.3846 60.6111 25.8874 58.2739 19.7571ZM43.7561 48.1513C44.4262 48.1515 45.0896 48.285 45.7076 48.544C46.3257 48.803 46.886 49.1824 47.3561 49.66C48.0769 50.3766 48.5686 51.291 48.769 52.2875C48.9694 53.2839 48.8694 54.3174 48.4817 55.2569C48.094 56.1964 47.436 56.9996 46.5912 57.5647C45.7464 58.1298 44.7528 58.4312 43.7364 58.4309C42.3957 58.3938 41.1225 57.8343 40.1885 56.8717C39.2545 55.9091 38.7337 54.6196 38.7371 53.2783C38.7405 51.9371 39.2679 50.6502 40.2068 49.6924C41.1457 48.7346 42.4217 48.1815 43.7626 48.1513H43.7561ZM58.9153 40.6796C58.5934 40.924 58.1923 41.0406 57.7895 41.0069H56.5917C54.9815 41.0069 53.319 41.0069 52.5957 40.984C51.9673 40.9644 51.6957 40.7025 51.6957 40.1069C51.6957 36.9651 51.6957 34.5105 51.6957 31.9774C51.6957 30.0433 51.6957 28.0502 51.6957 25.6414C52.4779 25.6414 53.5546 25.6414 54.5266 25.6414H56.0157C56.9419 25.6414 59.1052 27.0225 59.1673 39.832V40.0251C59.1703 40.2675 59.0801 40.5018 58.9153 40.6796ZM48.5702 34.288V37.1582L45.8997 36.34L42.2244 35.2207C42.2244 31.2934 42.2244 29.536 42.2244 25.648C44.5971 25.6709 46.6786 25.6676 48.5899 25.648C48.567 27.3367 48.5702 29.0222 48.5899 30.7109L48.5702 34.288ZM23.3702 32.0789V34.7887H19.6917C16.7004 34.7887 13.7124 34.7887 10.7212 34.7887C10.7408 30.9956 10.7212 29.3494 10.7212 25.6251C12.2528 25.6251 13.7844 25.6251 15.303 25.6251H18.7426C20.284 25.6251 21.8222 25.6251 23.3604 25.6087V25.6251C23.3539 28.3873 23.3572 29.9484 23.3604 32.0625L23.3702 32.0789ZM26.4826 25.6251C30.2495 25.6447 34.2717 25.6447 39.1219 25.6251C39.1022 29.3724 39.1022 31.0414 39.1219 34.7887C37.6066 34.7691 36.0881 34.7724 34.5695 34.7887H31.0644C29.5295 34.7887 27.9913 34.7887 26.4564 34.7887C26.4826 31.0447 26.4826 29.3953 26.4826 25.6251Z" fill="white"/>
<path d="M12.4724 41.0658C14.6455 41.5338 15.7713 42.1719 17.3062 43.769C17.9592 44.4594 18.5753 45.1837 19.152 45.9389C20.1928 47.2676 21.1353 48.6781 22.3201 49.8923C22.731 50.3258 23.225 50.6721 23.7727 50.9105C24.3203 51.1489 24.9104 51.2746 25.5077 51.28C27.0259 51.2804 28.5247 50.9393 29.8931 50.2818C30.4233 50.0494 30.4233 50.0429 30.0502 49.6272C27.995 47.261 25.4684 45.4905 22.7226 44.0472C21.9077 43.6185 21.0666 43.2421 20.1404 42.797L20.4382 42.833C20.5331 42.8527 20.6281 42.8756 20.7197 42.9018C23.655 43.7972 26.3576 45.3268 28.6364 47.3821C30.4004 48.9157 31.9532 50.6765 33.2542 52.6185C33.4244 52.8738 33.6306 53.1127 33.9579 52.8901C34.2851 52.6676 34.056 52.4156 33.8989 52.1996C33.2133 51.2841 32.4654 50.4169 31.6604 49.6043C31.4312 49.3597 31.2777 49.0539 31.2186 48.7239C30.2564 44.3287 27.7168 41.429 23.2462 40.3949C20.8244 39.8352 18.3895 39.9105 15.9513 40.2869C14.7738 40.4591 13.6109 40.7195 12.4724 41.0658Z" fill="white"/>
</svg>
