<svg width="30" height="29" viewBox="0 0 30 29" fill="none" xmlns="http://www.w3.org/2000/svg">
<path d="M15.0064 28.4319C12.2234 28.4331 9.50254 27.609 7.18803 26.0636C4.87352 24.5182 3.06935 22.3211 2.00376 19.7502C0.938164 17.1793 0.659029 14.3501 1.20166 11.6205C1.74428 8.89091 3.08429 6.38358 5.05217 4.4157C7.02005 2.44782 9.52738 1.10781 12.257 0.56518C14.9866 0.0225534 17.8158 0.301693 20.3867 1.36729C22.9576 2.43288 25.1547 4.23705 26.7001 6.55156C28.2454 8.86606 29.0696 11.5869 29.0683 14.3699C29.0639 18.098 27.581 21.6722 24.9448 24.3084C22.3087 26.9445 18.7345 28.4275 15.0064 28.4319V28.4319ZM15.0064 1.71608C12.5036 1.71582 10.057 2.45774 7.97595 3.84801C5.89486 5.23828 4.27279 7.21445 3.31485 9.52662C2.35692 11.8388 2.10615 14.3831 2.59425 16.8378C3.08236 19.2925 4.28742 21.5473 6.05704 23.3171C7.82666 25.0869 10.0814 26.2922 12.536 26.7805C14.9906 27.2689 17.535 27.0184 19.8472 26.0607C22.1595 25.103 24.1358 23.4811 25.5263 21.4002C26.9168 19.3192 27.659 16.8727 27.659 14.3699C27.6552 11.0153 26.3211 7.79908 23.9491 5.42687C21.5771 3.05465 18.361 1.72014 15.0064 1.71608Z" fill="#92A240"/>
<path d="M23.7044 7.67848C23.6558 7.51094 23.345 6.57603 22.3666 6.36501C19.6898 5.79981 16.9576 5.54023 14.2223 5.59125C14.1251 5.59125 14.0484 5.59125 13.9934 5.59125C11.5084 5.59125 7.69968 5.8368 4.3399 6.05294L4.15573 6.06446L4.07261 6.17573C3.8603 6.45837 3.65311 6.76148 3.43314 7.10296L3.14153 7.56465H21.7783C22.0878 7.56465 22.3973 7.58767 22.5456 7.82044L22.5891 7.89206C22.8206 8.26935 22.8897 8.38318 22.8948 8.65943C22.8398 8.7221 22.5994 8.75407 22.1811 8.75407H2.5545L2.47521 8.9344C2.38995 9.14074 2.30468 9.34878 2.21942 9.55852L2.06595 9.96651H3.91402C3.90635 11.4335 3.90507 12.0857 3.91402 13.5475C3.3142 13.5411 2.71437 13.5475 2.11455 13.5475H1.3766L1.36508 13.8379C1.36508 14.0118 1.35229 14.187 1.35229 14.3635V14.7613H10.2102H13.6161H16.6177C16.6752 14.7587 16.7327 14.7629 16.7891 14.774L18.265 15.2293L19.92 15.7409C19.92 15.7409 19.92 15.7512 19.92 15.7588C19.9852 16.5965 20.6016 17.1657 21.4547 17.1721C21.7898 17.1721 23.2836 17.1721 23.9589 17.1721C24.0232 17.8645 23.9484 18.5629 23.7389 19.226C23.2618 19.226 22.2617 19.226 22.1594 19.226C22.0837 19.2243 22.0084 19.2377 21.9379 19.2654C21.8674 19.293 21.8031 19.3344 21.7487 19.3871C21.6943 19.4398 21.6509 19.5028 21.6211 19.5724C21.5913 19.642 21.5756 19.7169 21.5749 19.7926C21.5668 19.8716 21.575 19.9513 21.5989 20.027C21.6228 20.1026 21.662 20.1726 21.714 20.2325C21.766 20.2924 21.8298 20.341 21.9013 20.3754C21.9729 20.4097 22.0507 20.429 22.13 20.4321C22.2852 20.4456 22.4411 20.449 22.5968 20.4423C22.9054 20.4323 23.2144 20.4434 23.5215 20.4756C23.5048 20.5817 23.478 20.693 23.4473 20.8158C23.4166 20.9385 23.3833 21.0818 23.3565 21.2301C22.3052 21.2301 22.3039 21.2301 21.4381 21.2301H21.2207C21.2385 21.0919 21.2475 20.9526 21.2475 20.8132C21.2542 20.3177 21.1463 19.8274 20.9323 19.3804C20.7183 18.9334 20.4039 18.542 20.0138 18.2364C19.6236 17.9309 19.1681 17.7197 18.6829 17.6191C18.1976 17.5186 17.6957 17.5315 17.2163 17.6568C15.6176 18.0776 14.6418 19.5432 14.8298 21.2289H7.16892C7.23983 20.7169 7.18706 20.1954 7.01503 19.708C6.843 19.2206 6.55671 18.7815 6.18014 18.4275C5.80357 18.0735 5.34768 17.8148 4.85061 17.6731C4.35354 17.5315 3.82977 17.511 3.32315 17.6133C2.88066 17.7073 2.46228 17.8915 2.09408 18.1543L1.91631 18.2822L1.98281 18.4906C2.05102 18.7047 2.12392 18.9178 2.20151 19.1301L2.35115 19.5304L2.67728 19.2555C3.03434 18.9553 3.48229 18.7845 3.94854 18.7707C4.20834 18.7655 4.46657 18.8121 4.70814 18.9078C4.9497 19.0036 5.16973 19.1466 5.35538 19.3284C5.60394 19.5621 5.78845 19.8556 5.8913 20.1809C5.99416 20.5062 6.01194 20.8524 5.94293 21.1866C5.87393 21.5207 5.72045 21.8316 5.49713 22.0895C5.27382 22.3475 4.98812 22.5439 4.66731 22.66L4.26445 22.8071L4.5407 23.1358C4.68223 23.3063 4.82888 23.473 4.98065 23.6358L5.12901 23.797L5.32853 23.7036C5.87375 23.4506 6.33878 23.0524 6.67269 22.5526V22.5526C6.688 22.5166 6.71506 22.4869 6.74945 22.4683C6.78383 22.4497 6.8235 22.4434 6.86198 22.4503V22.4503C10.5159 22.4567 11.4662 22.4567 15.1252 22.4503C15.1678 22.4425 15.2117 22.4492 15.25 22.4694C15.2882 22.4896 15.3186 22.522 15.3362 22.5615C15.6294 23.0061 16.0282 23.3711 16.4968 23.6239C16.9655 23.8768 17.4895 24.0096 18.022 24.0106H18.0374C18.5721 24.0082 19.0977 23.8724 19.5667 23.6156C20.0357 23.3588 20.4331 22.989 20.7231 22.5398C20.7743 22.4605 20.7986 22.4515 20.8945 22.4503H21.4214H22.0967H22.891C22.9383 22.4503 23.0022 22.4503 23.0572 22.4503C23.4742 22.4618 24.0446 22.4758 24.2671 21.7302C24.3016 21.6292 25.1214 19.2145 25.1214 15.1769C25.0975 12.6132 24.6177 10.0741 23.7044 7.67848V7.67848ZM18.031 18.7746C18.2929 18.7747 18.5521 18.8268 18.7936 18.928C19.0351 19.0293 19.2541 19.1775 19.4378 19.3642C19.7195 19.6442 19.9117 20.0016 19.99 20.3909C20.0683 20.7803 20.0292 21.1842 19.8777 21.5514C19.7262 21.9185 19.469 22.2324 19.1389 22.4532C18.8088 22.674 18.4205 22.7919 18.0233 22.7917V22.7917C17.4994 22.7772 17.0018 22.5586 16.6368 22.1824C16.2718 21.8062 16.0683 21.3023 16.0696 20.7782C16.071 20.254 16.2771 19.7511 16.644 19.3768C17.0109 19.0025 17.5095 18.7864 18.0335 18.7746H18.031ZM23.955 15.8548C23.8292 15.9503 23.6725 15.9958 23.5151 15.9826H23.047C22.4177 15.9826 21.768 15.9826 21.4854 15.9737C21.2398 15.966 21.1337 15.8637 21.1337 15.6309C21.1337 14.4032 21.1337 13.4439 21.1337 12.454C21.1337 11.6982 21.1337 10.9193 21.1337 9.97802C21.4394 9.97802 21.8601 9.97802 22.24 9.97802H22.8219C23.1838 9.97802 24.0292 10.5177 24.0535 15.5235V15.599C24.0547 15.6937 24.0194 15.7853 23.955 15.8548V15.8548ZM19.9123 13.357V14.4786L18.8687 14.1589L17.4324 13.7215C17.4324 12.1867 17.4324 11.5 17.4324 9.98058C18.3597 9.98953 19.1731 9.98825 19.92 9.98058C19.911 10.6405 19.9123 11.2992 19.92 11.9591L19.9123 13.357ZM10.0644 12.4937V13.5527H8.62692C7.45796 13.5527 6.29029 13.5527 5.12134 13.5527C5.12901 12.0704 5.12134 11.4271 5.12134 9.97162C5.71988 9.97162 6.31843 9.97162 6.91186 9.97162H8.25602C8.8584 9.97162 9.45951 9.97162 10.0606 9.96523V9.97162C10.0581 11.051 10.0593 11.6611 10.0606 12.4873L10.0644 12.4937ZM11.2807 9.97162C12.7528 9.9793 14.3246 9.9793 16.22 9.97162C16.2123 11.436 16.2123 12.0883 16.22 13.5527C15.6278 13.545 15.0344 13.5463 14.441 13.5527H13.0712C12.4714 13.5527 11.8703 13.5527 11.2705 13.5527C11.2807 12.0895 11.2807 11.445 11.2807 9.97162Z" fill="#92A240"/>
<path d="M5.80566 16.0055C6.65488 16.1883 7.09484 16.4377 7.69466 17.0619C7.94984 17.3316 8.19061 17.6147 8.41598 17.9098C8.82268 18.4291 9.19103 18.9803 9.654 19.4548C9.81459 19.6242 10.0076 19.7595 10.2217 19.8527C10.4357 19.9458 10.6663 19.9949 10.8997 19.997C11.493 19.9972 12.0787 19.8639 12.6135 19.607C12.8207 19.5161 12.8207 19.5136 12.6749 19.3512C11.8717 18.4265 10.8843 17.7346 9.81131 17.1706C9.49285 17.003 9.16416 16.856 8.80222 16.682L8.91861 16.6961C8.9557 16.7038 8.99279 16.7127 9.0286 16.7229C10.1757 17.0729 11.2318 17.6706 12.1224 18.4738C12.8117 19.0731 13.4185 19.7612 13.9269 20.5201C13.9934 20.6199 14.074 20.7132 14.2019 20.6263C14.3298 20.5393 14.2403 20.4408 14.1789 20.3564C13.911 19.9986 13.6187 19.6598 13.3041 19.3422C13.2145 19.2466 13.1545 19.1271 13.1314 18.9982C12.7554 17.2806 11.763 16.1474 10.0159 15.7433C9.06952 15.5246 8.11799 15.554 7.16518 15.7011C6.70503 15.7684 6.25059 15.8701 5.80566 16.0055V16.0055Z" fill="#92A240"/>
</svg>
