<svg width="230" height="31" viewBox="0 0 230 31" fill="none" xmlns="http://www.w3.org/2000/svg">
<path d="M33.0645 22.2065L34.0102 22.1245C35.0326 22.0207 35.0326 21.8895 35.0326 18.6858V9.55046C35.0326 6.34681 35.0326 6.2156 34.0102 6.11173L33.0645 6.02972V5.45569H39.9146C42.4075 5.45569 46.2946 5.84931 46.2946 10.1792C46.2946 13.7764 42.3037 15.4165 39.8381 15.4165H39.3679V14.8261C40.4996 14.8261 43.5173 14.2794 43.5173 10.3377C43.5173 7.26526 41.4399 6.31947 39.0781 6.31947C38.5256 6.3341 37.976 6.40555 37.438 6.53269V18.6967C37.438 21.9004 37.438 22.0316 38.8813 22.1355L39.8271 22.2175V22.7642H33.0645V22.2065Z" fill="#FF7500"/>
<path d="M46.0703 15.9193C46.0703 11.3598 49.5965 8.53339 53.6749 8.53339C57.5565 8.53339 60.8312 11.0045 60.8312 15.6897C60.8312 20.3749 57.4526 23.0974 53.2703 23.0974C49.0881 23.0974 46.0703 20.4788 46.0703 15.9193ZM53.6749 22.4031C57.2612 22.4031 58.5952 19.3198 58.5952 16.2364C58.5952 12.2509 56.6107 9.22769 53.2977 9.22769C50.1323 9.22769 48.2735 11.8683 48.2735 15.5202C48.2899 19.8282 50.4876 22.4031 53.6749 22.4031Z" fill="#FF7500"/>
<path d="M67.2172 14.7823C68.8573 15.7335 70.6176 16.6192 70.6176 19.1559C70.6176 22.0042 67.9771 23.103 65.7411 23.103C64.5789 23.1456 63.4289 22.8534 62.4281 22.2611C61.9728 21.0749 61.7429 19.8141 61.7502 18.5436L62.4281 18.3741C62.6577 19.8939 63.4395 22.4087 66.3315 22.4087C66.6786 22.4314 67.0264 22.3787 67.3512 22.2542C67.6759 22.1298 67.97 21.9365 68.213 21.6878C68.4561 21.439 68.6424 21.1406 68.7593 20.813C68.8762 20.4854 68.9208 20.1365 68.8901 19.79C68.8901 18.2483 67.6053 17.1932 65.9597 16.4552L64.6039 15.7171C63.9404 15.3808 63.377 14.876 62.9701 14.2533C62.5633 13.6305 62.3273 12.9118 62.2859 12.169C62.2859 9.59409 64.4399 8.51709 66.6595 8.51709C67.6725 8.48722 68.676 8.71881 69.5734 9.18953C69.7216 10.1536 69.7911 11.1281 69.7812 12.1034H69.2345C69.0213 11.0483 68.6878 9.2114 66.2987 9.2114C65.9942 9.20311 65.6912 9.25698 65.4082 9.36971C65.1252 9.48245 64.8682 9.65168 64.6528 9.86708C64.4374 10.0825 64.2681 10.3395 64.1554 10.6225C64.0427 10.9055 63.9888 11.2085 63.9971 11.513C63.9971 12.7595 64.9046 13.4319 66.0472 14.1098L67.2172 14.7823Z" fill="#FF7500"/>
<path d="M70.6875 22.3157L71.4474 22.2556C72.2675 22.1681 72.2675 22.0643 72.2675 19.4893V12.1362C72.2675 9.56126 72.2675 9.45739 71.4474 9.36992L70.6875 9.30978V8.85602H75.8155V9.32071L75.0556 9.38085C74.2301 9.46832 74.2301 9.57219 74.2301 12.1471V19.4893C74.2301 22.0643 74.2301 22.1681 75.0556 22.2556L75.8155 22.3157V22.7804H70.6875V22.3157Z" fill="#FF7500"/>
<path d="M79.9939 22.3157L80.7702 22.2556C81.9347 22.1681 81.9347 22.0643 81.9347 19.4893V9.44099H80.8413C77.8618 9.44099 77.8235 9.75807 77.3588 12.2073H76.8504C76.8504 12.1198 76.8066 11.5512 76.8066 11.2779C76.814 10.4655 76.8908 9.65529 77.0363 8.85602H88.7958C88.9382 9.65754 89.015 10.4693 89.0254 11.2834C89.0254 11.5567 88.9871 12.1253 88.9871 12.2127H88.4787C88.014 9.76354 87.9702 9.44645 84.9962 9.44645H83.9028V19.4893C83.9028 22.0643 83.9028 22.1681 85.0837 22.2556L85.8436 22.3157V22.7804H79.9939V22.3157Z" fill="#FF7500"/>
<path d="M89.7676 22.3157L90.522 22.2556C91.3475 22.1681 91.3475 22.0643 91.3475 19.4893V12.1362C91.3475 9.56126 91.3475 9.45739 90.522 9.36992L89.7676 9.30978V8.85602H94.8956V9.32071L94.1357 9.38085C93.3102 9.46832 93.3102 9.57219 93.3102 12.1471V19.4893C93.3102 22.0643 93.3102 22.1681 94.1357 22.2556L94.8956 22.3157V22.7804H89.7676V22.3157Z" fill="#FF7500"/>
<path d="M97.3666 11.0045C97.0495 10.2228 96.8199 9.44099 96.1201 9.36445L95.5078 9.30431V8.85602H100.762V9.32071L100.111 9.38085C99.7721 9.42458 99.1598 9.48472 99.1598 9.92755C99.2248 10.216 99.3163 10.4978 99.4331 10.7695L103.085 20.1891C103.572 18.9207 106.885 10.7093 106.885 10.0533C106.885 9.63233 106.464 9.50659 106.065 9.46285L105.113 9.33711V8.85602H109.673V9.32071L109.126 9.44645C108.885 9.49212 108.664 9.6104 108.492 9.78541C108.027 10.2501 107.349 12.2729 106.824 13.2897L105.387 16.7504C104.184 19.6643 103.129 22.2173 102.937 22.764C102.715 22.9036 102.474 23.0104 102.221 23.0811L97.3666 11.0045Z" fill="#FF7500"/>
<path d="M105.043 22.3157L105.442 22.2555C106.246 22.1298 106.355 21.8947 106.858 20.6701L111.232 9.98761C111.401 9.56665 111.571 9.14569 111.74 8.74113L112.352 8.53339L117.059 20.7576C117.376 21.5995 117.606 22.0861 118.153 22.1899L119 22.3157V22.7804H113.763V22.3157L114.714 22.1462C115.091 22.0861 115.37 21.9822 115.37 21.7471C115.347 21.5942 115.303 21.4452 115.239 21.3043L113.763 17.3134C112.989 17.1692 112.204 17.0979 111.417 17.1002C110.684 17.1103 109.952 17.1817 109.231 17.3134L108.137 20.2491C107.947 20.7049 107.806 21.1795 107.716 21.6651C107.716 22.0642 107.99 22.1298 108.219 22.1462L109.488 22.3157V22.7804H105.054L105.043 22.3157ZM109.477 16.5097C110.111 16.4715 110.767 16.4059 111.396 16.4059C112.073 16.3994 112.751 16.4341 113.424 16.5097L111.483 11.4036L109.477 16.5097Z" fill="#FF7500"/>
<path d="M45.5832 28.2148C45.5441 28.6773 45.4335 29.131 45.2552 29.5596C44.7336 29.7676 44.1765 29.8716 43.6151 29.8658C42.0952 29.8658 40.6738 29.1605 40.6738 27.1323C40.6738 25.0166 42.3741 24.3988 43.626 24.3988C44.1906 24.3735 44.7531 24.4841 45.2661 24.7213C45.3432 25.1065 45.3817 25.4985 45.3809 25.8913L45.1677 25.9405C45.1548 25.7539 45.1044 25.5718 45.0194 25.4052C44.9344 25.2386 44.8167 25.0909 44.6732 24.9709C44.5297 24.8509 44.3635 24.7612 44.1845 24.707C44.0055 24.6529 43.8174 24.6354 43.6315 24.6557C42.3303 24.6557 41.5157 25.5086 41.5157 26.9956C41.5157 28.3514 42.1663 29.6034 43.6096 29.6034C44.9217 29.6034 45.124 28.7997 45.37 28.1656L45.5832 28.2148Z" fill="#FF7500"/>
<path d="M45.8405 27.6736C45.8343 27.3752 45.8892 27.0788 46.0019 26.8025C46.1146 26.5261 46.2826 26.2758 46.4956 26.0669C46.7087 25.8579 46.9622 25.6948 47.2407 25.5875C47.5192 25.4802 47.8166 25.4311 48.1148 25.4431C48.405 25.4223 48.6962 25.4638 48.9691 25.5646C49.2419 25.6654 49.4901 25.8233 49.6971 26.0277C49.9041 26.2321 50.0651 26.4783 50.1693 26.7499C50.2736 27.0214 50.3187 27.3121 50.3016 27.6025C50.3086 27.9023 50.254 28.2003 50.141 28.478C50.028 28.7558 49.8591 29.0073 49.6448 29.217C49.4305 29.4267 49.1753 29.5901 48.8952 29.697C48.615 29.8039 48.3159 29.8521 48.0164 29.8385C47.7262 29.8595 47.4349 29.818 47.1621 29.7168C46.8894 29.6156 46.6415 29.457 46.4352 29.2518C46.229 29.0466 46.0692 28.7995 45.9666 28.5272C45.864 28.255 45.821 27.9639 45.8405 27.6736ZM48.1148 29.6308C49.2082 29.6308 49.6073 28.7014 49.6073 27.7665C49.6073 26.5638 49.0114 25.6508 48.0055 25.6508C46.9995 25.6508 46.4911 26.449 46.4911 27.5533C46.513 28.8545 47.1745 29.6308 48.1148 29.6308Z" fill="#FF7500"/>
<path d="M50.6562 29.6308L50.8148 29.5925C50.8861 29.5854 50.9542 29.5589 51.0116 29.516C51.1174 29.1764 51.1672 28.8219 51.1592 28.4663L51.2631 26.859C51.2631 26.4271 51.3287 25.7383 51.3287 25.5633L51.5036 25.5087C51.695 25.8367 53.1437 28.5866 53.346 28.9365C53.5483 28.6139 54.9861 25.8914 55.1009 25.5633L55.2649 25.5087C55.2649 25.5579 55.3087 26.274 55.3524 27.1105L55.4125 28.2039C55.4177 28.6256 55.458 29.0462 55.5328 29.4613C55.5611 29.4983 55.5975 29.5284 55.6392 29.5493C55.6809 29.5701 55.7267 29.5812 55.7734 29.5816L55.9647 29.6198V29.762H54.3246V29.6308L54.5706 29.5925C54.844 29.5597 54.8713 29.4613 54.8713 29.1661C54.8713 28.4608 54.762 27.1214 54.762 26.7114C54.6526 26.9902 54.002 28.2422 53.3733 29.4832C53.3405 29.5488 53.3132 29.6253 53.2804 29.6909L53.1055 29.7729C52.9633 29.4777 52.1542 27.9251 51.7114 27.0832C51.6512 26.9629 51.5911 26.8371 51.5419 26.7114C51.5419 27.0777 51.4326 28.8982 51.4326 29.0786C51.4326 29.4558 51.4326 29.5597 51.7332 29.5925L51.9847 29.6308V29.7729H50.6562V29.6308Z" fill="#FF7500"/>
<path d="M56.2617 29.6306H56.4913C56.7373 29.6032 56.7373 29.5704 56.7373 28.7941V26.5308C56.7373 25.7545 56.7373 25.7217 56.4913 25.6943H56.2617V25.5522H57.9018C58.5086 25.5522 59.4544 25.6506 59.4544 26.7003C59.4544 27.5695 58.4813 27.9686 57.8854 27.9686H57.7761V27.8265C57.9171 27.8314 58.0576 27.8057 58.1878 27.7513C58.318 27.6968 58.4349 27.6149 58.5304 27.511C58.626 27.4072 58.6979 27.2839 58.7413 27.1496C58.7848 27.0153 58.7986 26.8732 58.782 26.7331C58.782 25.9895 58.279 25.7599 57.6886 25.7599C57.556 25.7625 57.4241 25.779 57.295 25.8091V28.7613C57.295 29.5376 57.295 29.5704 57.6449 29.5978H57.8745V29.7399H56.2344L56.2617 29.6306Z" fill="#FF7500"/>
<path d="M59.1094 29.6305H59.2296C59.4757 29.5922 59.5085 29.5212 59.6615 29.1494L60.9846 25.9239C61.0392 25.7981 61.0884 25.6669 61.1376 25.5466L61.3235 25.4865L62.7449 29.1767C62.8433 29.4337 62.9035 29.5758 63.0729 29.6086L63.3244 29.6469V29.789H61.7445V29.6305L62.0287 29.5813C62.149 29.5813 62.231 29.5321 62.231 29.461C62.2234 29.4142 62.2105 29.3683 62.1928 29.3243L61.7445 28.1216C61.5119 28.078 61.2758 28.056 61.0392 28.056C60.8136 28.0589 60.5887 28.0808 60.3668 28.1216L60.0442 29.0073C59.9861 29.1446 59.9421 29.2874 59.913 29.4337C59.913 29.554 59.995 29.5758 60.0661 29.5813L60.4488 29.6305V29.7726H59.1094V29.6305ZM60.4488 27.8811C60.6401 27.8811 60.8369 27.8483 61.0283 27.8483C61.2329 27.8454 61.4375 27.8564 61.6406 27.8811L61.0556 26.3339L60.4488 27.8811Z" fill="#FF7500"/>
<path d="M63.209 29.6305H63.4386C63.6901 29.6305 63.7338 29.4119 63.7338 28.723V25.5358L63.8814 25.4811C64.4281 26.1535 66.2924 28.1052 66.9867 28.7886V26.6018C66.9867 25.9021 66.9867 25.7271 66.6368 25.6943H66.4017V25.5522H67.7958V25.6943H67.5716C67.3366 25.6943 67.2928 25.913 67.2928 26.6018V29.7453L67.1562 29.8C67.014 29.6524 66.6095 29.2533 65.9534 28.5535L64.04 26.5308V28.6793C64.04 29.3791 64.04 29.554 64.3735 29.5868H64.6031V29.7289H63.2254L63.209 29.6305ZM64.614 24.9891C64.6905 24.8633 64.9202 24.4424 65.2591 24.4424C65.4178 24.4566 65.573 24.4973 65.7183 24.5626C65.8706 24.6373 66.0358 24.6818 66.2049 24.6938C66.3853 24.6938 66.5056 24.4916 66.5602 24.426L66.6423 24.5025C66.5712 24.6556 66.3853 25.0492 66.0354 25.0492C65.6855 25.0492 65.3028 24.7977 65.0842 24.7977C64.8655 24.7977 64.7671 24.9945 64.7015 25.0765L64.614 24.9891Z" fill="#FF7500"/>
<path d="M68.0742 29.6306H68.3038C68.5553 29.6032 68.5553 29.5704 68.5553 28.7941V26.5308C68.5553 25.7545 68.5553 25.7217 68.3038 25.6943H68.0742V25.5522H69.6268V25.6943H69.3972C69.1457 25.7217 69.1457 25.7545 69.1457 26.5308V28.7504C69.1457 29.5267 69.1457 29.5595 69.3972 29.5868H69.6268V29.729H68.0742V29.6306Z" fill="#FF7500"/>
<path d="M69.6387 29.6305H69.7589C69.9995 29.5922 70.0323 29.5212 70.1854 29.1494L71.5138 25.9239C71.5631 25.7981 71.6123 25.6669 71.6669 25.5466L71.8528 25.4865L73.2742 29.1767C73.3672 29.4337 73.4328 29.5758 73.5968 29.6086L73.8537 29.6469V29.789H72.2738V29.6305L72.558 29.5813C72.6729 29.5813 72.7549 29.5321 72.7549 29.461C72.7498 29.4136 72.7369 29.3674 72.7166 29.3243L72.2738 28.1216C72.0393 28.0783 71.8014 28.0564 71.5631 28.056C71.3393 28.0586 71.1161 28.0805 70.8961 28.1216L70.5681 29.0073C70.5106 29.1443 70.4684 29.2873 70.4423 29.4337C70.4423 29.554 70.5243 29.5758 70.5954 29.5813L70.9781 29.6305V29.7726H69.6387V29.6305ZM70.9781 27.8811C71.1694 27.8811 71.3662 27.8483 71.5576 27.8483C71.7622 27.8455 71.9667 27.8565 72.1699 27.8811L71.5849 26.3339L70.9781 27.8811Z" fill="#FF7500"/>
<path d="M75.2695 29.6307H75.4609C75.6686 29.6307 75.6686 29.5815 75.6686 28.9364V27.0831C75.6686 26.438 75.6686 26.4107 75.4609 26.3888H75.2695V26.274H77.0026C78.1342 26.274 78.8121 26.8644 78.8121 27.9141C78.8121 29.2863 77.7898 29.7838 76.6855 29.7838H75.2695V29.6307ZM76.1607 29.494C76.3583 29.5383 76.5596 29.5639 76.762 29.5706C77.7242 29.5706 78.26 29.0239 78.26 28.007C78.2891 27.7958 78.2694 27.5808 78.2023 27.3784C78.1353 27.176 78.0227 26.9917 77.8733 26.8396C77.7239 26.6875 77.5416 26.5717 77.3404 26.5012C77.1392 26.4306 76.9245 26.4071 76.7128 26.4325C76.5298 26.4383 76.3472 26.4547 76.1661 26.4817L76.1607 29.494Z" fill="#FF7500"/>
<path d="M79.2121 29.6307H79.4034C79.6057 29.6307 79.6057 29.5815 79.6057 28.9364V27.0831C79.6057 26.438 79.6057 26.4107 79.4034 26.3888H79.2121V26.274H81.4645C81.5018 26.4539 81.5219 26.637 81.5246 26.8207C81.5246 26.941 81.5246 26.9847 81.5246 27.0339H81.3989C81.2841 26.4872 81.2732 26.3888 80.5242 26.3888H80.0868V27.843H80.557C80.9725 27.843 81.0654 27.843 81.1037 27.6189L81.131 27.4385H81.2677V28.3897H81.131L81.1037 28.2093C81.0709 27.9961 80.9779 27.9906 80.557 27.9906H80.0868V29.5104C80.2754 29.5526 80.4677 29.5764 80.6609 29.5815C81.5028 29.5815 81.5574 29.2644 81.6613 28.8325H81.7925C81.7779 29.1325 81.7208 29.4288 81.623 29.7127H79.2012L79.2121 29.6307Z" fill="#FF7500"/>
<path d="M85.5639 26.7387C86.1926 27.0941 86.8431 27.4276 86.8431 28.3788C86.8431 29.4722 85.8482 29.8604 85.0117 29.8604C84.5746 29.8747 84.1424 29.7647 83.7652 29.5433C83.5959 29.0963 83.5107 28.6218 83.5138 28.1438L83.7652 28.0836C83.8527 28.6303 84.1479 29.598 85.2304 29.598C85.3594 29.6046 85.4884 29.5836 85.6086 29.5364C85.7289 29.4892 85.8377 29.4169 85.9277 29.3242C86.0178 29.2316 86.087 29.1208 86.1308 28.9992C86.1746 28.8777 86.1919 28.7482 86.1816 28.6194C86.1816 28.0727 85.7006 27.6463 85.0882 27.3674L84.5798 27.0886C84.3292 26.9648 84.1161 26.7764 83.9624 26.543C83.8086 26.3095 83.7198 26.0393 83.7051 25.7601C83.7051 24.7925 84.5142 24.3879 85.3452 24.3879C85.7253 24.3752 86.1022 24.4619 86.4386 24.6394C86.4962 25.001 86.5236 25.3667 86.5206 25.7328H86.3238C86.2418 25.3337 86.116 24.6394 85.2304 24.6394C85.1161 24.6364 85.0025 24.6567 84.8963 24.699C84.7901 24.7414 84.6937 24.8049 84.6129 24.8857C84.5321 24.9665 84.4686 25.063 84.4262 25.1691C84.3839 25.2753 84.3636 25.3889 84.3666 25.5032C84.3666 25.9679 84.7056 26.2248 85.132 26.4763L85.5639 26.7387Z" fill="#FF7500"/>
<path d="M87.2312 29.6306H87.4609C87.7069 29.6032 87.7069 29.5704 87.7069 28.7941V26.5308C87.7069 25.7545 87.7069 25.7217 87.4609 25.6943H87.2312V25.5522H89.9647C90.0104 25.7753 90.0342 26.0023 90.0358 26.2301C90.0358 26.3777 90.0358 26.4269 90.0358 26.4816H89.8827C89.7406 25.7982 89.7297 25.7053 88.8276 25.7053H88.2809V27.4438H88.8276C89.3251 27.4438 89.4399 27.4438 89.4782 27.1813L89.511 26.9627H89.675V28.1107H89.511L89.4782 27.8921C89.4399 27.6296 89.3251 27.6242 88.8276 27.6242H88.2809V29.4611C88.5111 29.5099 88.7454 29.5373 88.9807 29.5431C89.9921 29.5431 90.0741 29.1604 90.1834 28.641H90.342C90.3209 29.0023 90.251 29.3591 90.1342 29.7016H87.2148L87.2312 29.6306Z" fill="#FF7500"/>
<path d="M94.6936 29.5212C94.1845 29.7142 93.6469 29.8213 93.1027 29.8383C91.818 29.8383 90.6699 29.2916 90.6699 27.6515C90.6699 26.0114 92.0421 25.4647 93.0481 25.4647C93.4958 25.449 93.9411 25.5369 94.3492 25.7216C94.4168 26.0324 94.4516 26.3494 94.4531 26.6674L94.2836 26.7057C94.2767 26.5539 94.2382 26.4052 94.1706 26.2692C94.1029 26.1331 94.0077 26.0126 93.891 25.9154C93.7742 25.8182 93.6384 25.7463 93.4924 25.7045C93.3463 25.6627 93.1931 25.6518 93.0426 25.6724C91.9984 25.6724 91.3424 26.3613 91.3424 27.5531C91.3424 28.6465 91.8891 29.6524 93.1465 29.6524C93.3966 29.6524 93.6459 29.6249 93.89 29.5704V29.3353C93.89 28.5535 93.89 28.5262 93.4472 28.4989H93.2175V28.3184H94.8576V28.4551H94.628C94.5078 28.4551 94.5078 28.5098 94.5078 29.1276C94.5078 29.3189 94.5077 29.3572 94.6062 29.3572H94.6718L94.6936 29.5212Z" fill="#FF7500"/>
<path d="M98.6141 29.6306C98.5266 29.5376 98.4774 29.4501 98.379 29.4501C97.927 29.6921 97.4261 29.8285 96.9138 29.8492C95.5963 29.8492 95.4869 29.0948 95.4869 28.2091V26.5308C95.4869 25.7545 95.487 25.7217 95.2355 25.6943H95.0059V25.5522H96.5585V25.6943H96.3289C96.0774 25.7217 96.0774 25.7545 96.0774 26.5308V28.1107C96.0774 29.0237 96.2305 29.6306 97.22 29.6306C97.4374 29.6333 97.653 29.5893 97.852 29.5016C98.051 29.4139 98.2288 29.2845 98.3735 29.1221V26.5308C98.3735 25.7545 98.3735 25.7217 98.1275 25.6943H97.8979V25.5522H99.4451V25.6943H99.2154C98.9694 25.7217 98.9694 25.7545 98.9694 26.5308V29.7454L98.7781 29.8L98.6141 29.6306Z" fill="#FF7500"/>
<path d="M99.7734 29.6306H100.003C100.249 29.6032 100.249 29.5704 100.249 28.7941V26.5308C100.249 25.7545 100.249 25.7217 100.003 25.6943H99.7734V25.5522H101.414C102.02 25.5522 102.873 25.6397 102.873 26.6128C102.841 26.8584 102.742 27.0905 102.587 27.2834C102.432 27.4764 102.226 27.6226 101.993 27.7062C102.091 27.8811 102.299 28.2911 102.469 28.5973C102.643 28.9548 102.885 29.2757 103.179 29.5431C103.279 29.5884 103.387 29.609 103.496 29.6032V29.7454H103.01C102.816 29.7272 102.63 29.6558 102.474 29.5391C102.318 29.4224 102.197 29.2649 102.124 29.0839L101.867 28.5973C101.763 28.379 101.63 28.175 101.474 27.9905C101.355 27.9219 101.217 27.8932 101.08 27.9085H100.845V28.7504C100.845 29.5267 100.845 29.5595 101.086 29.5868H101.315V29.729H99.7734V29.6306ZM100.867 27.7608H101.228C101.366 27.7721 101.505 27.7528 101.634 27.7042C101.764 27.6555 101.881 27.5789 101.978 27.4796C102.075 27.3804 102.148 27.261 102.193 27.1301C102.238 26.9991 102.254 26.8598 102.239 26.7221C102.252 26.5896 102.235 26.4559 102.19 26.3307C102.145 26.2056 102.072 26.0922 101.977 25.9988C101.882 25.9055 101.768 25.8346 101.642 25.7913C101.516 25.7481 101.382 25.7336 101.25 25.749C101.117 25.7512 100.985 25.7677 100.856 25.7982L100.867 27.7608Z" fill="#FF7500"/>
<path d="M103.425 27.6736C103.418 27.3733 103.474 27.0749 103.588 26.7971C103.702 26.5192 103.872 26.2678 104.087 26.0585C104.303 25.8493 104.559 25.6866 104.84 25.5807C105.121 25.4748 105.421 25.428 105.721 25.443C106.009 25.4255 106.297 25.4693 106.567 25.5716C106.837 25.6739 107.082 25.8324 107.287 26.0365C107.491 26.2407 107.649 26.4858 107.752 26.7558C107.854 27.0257 107.898 27.3143 107.88 27.6025C107.892 27.9031 107.841 28.2029 107.73 28.4825C107.619 28.7621 107.451 29.0154 107.236 29.2261C107.021 29.4367 106.765 29.6 106.483 29.7055C106.201 29.811 105.901 29.8563 105.6 29.8385C105.31 29.8595 105.019 29.818 104.746 29.7168C104.473 29.6155 104.225 29.457 104.019 29.2518C103.813 29.0466 103.653 28.7995 103.551 28.5272C103.448 28.255 103.405 27.9639 103.425 27.6736ZM105.721 29.6308C106.814 29.6308 107.213 28.7014 107.213 27.7665C107.213 26.5638 106.612 25.6508 105.611 25.6508C104.611 25.6508 104.091 26.449 104.091 27.5533C104.091 28.8544 104.758 29.6308 105.721 29.6308Z" fill="#FF7500"/>
<path d="M109.958 27.3289C110.466 27.6132 110.985 27.8756 110.985 28.6465C110.985 29.5102 110.187 29.8383 109.515 29.8383C109.164 29.8517 108.817 29.7644 108.514 29.5868C108.377 29.2292 108.306 28.8492 108.307 28.466L108.514 28.4114C108.516 28.7278 108.639 29.0314 108.859 29.2587C109.079 29.486 109.379 29.6192 109.695 29.6305C109.797 29.6332 109.899 29.6143 109.993 29.5751C110.088 29.5358 110.173 29.4772 110.243 29.4029C110.313 29.3286 110.367 29.2404 110.4 29.144C110.434 29.0475 110.447 28.9451 110.439 28.8433C110.439 28.3786 110.051 28.0615 109.553 27.8373L109.149 27.6132C108.944 27.5111 108.77 27.3557 108.646 27.1633C108.522 26.9709 108.452 26.7486 108.443 26.5198C108.443 25.738 109.094 25.4264 109.772 25.4264C110.078 25.4169 110.381 25.4866 110.652 25.6287C110.697 25.9199 110.719 26.2142 110.718 26.5089H110.554C110.488 26.1918 110.39 25.6341 109.668 25.6341C109.576 25.634 109.484 25.6527 109.399 25.6891C109.314 25.7256 109.238 25.779 109.175 25.846C109.111 25.9131 109.062 25.9924 109.03 26.0791C108.998 26.1658 108.985 26.2581 108.99 26.3503C108.99 26.7275 109.263 26.9298 109.608 27.1376L109.958 27.3289Z" fill="#FF7500"/>
<path d="M14.3837 1C11.5395 0.99892 8.75883 1.8414 6.39351 3.42088C4.02819 5.00036 2.18446 7.24588 1.09553 9.87337C0.00659837 12.5009 -0.278598 15.3923 0.276013 18.1819C0.830624 20.9715 2.20013 23.5339 4.21128 25.5451C6.22243 27.5563 8.78488 28.9258 11.5745 29.4804C14.3641 30.035 17.2555 29.7498 19.883 28.6609C22.5105 27.5719 24.756 25.7282 26.3355 23.3629C27.915 20.9976 28.7575 18.2169 28.7564 15.3727C28.7564 13.4853 28.3846 11.6163 27.6623 9.87252C26.94 8.12874 25.8813 6.5443 24.5467 5.20967C23.2121 3.87504 21.6276 2.81636 19.8839 2.09406C18.1401 1.37176 16.2711 1 14.3837 1ZM14.1814 6.96996C14.6568 7.33164 15.1079 7.72429 15.5317 8.14536C15.6247 8.22736 15.7121 8.33124 16.0402 8.21643C16.7126 8.01415 18.2598 7.25424 19.3641 7.15583C19.5292 7.10651 19.705 7.10553 19.8707 7.15301C20.0364 7.20048 20.185 7.29442 20.2989 7.42372C20.7794 7.81112 21.2358 8.22738 21.6657 8.67019C21.0747 8.72267 20.4882 8.81768 19.9108 8.95447L19.7905 8.98181C19.6252 9.01502 19.4715 9.09108 19.3449 9.20238C19.2182 9.31369 19.123 9.45631 19.0689 9.61598C19.0477 9.69815 19.0367 9.78261 19.0361 9.86746C19.0404 10.0823 19.1153 10.2898 19.2493 10.4579C19.4614 10.7837 19.6444 11.1277 19.796 11.4857C18.8675 11.7719 17.955 12.1077 17.0625 12.4916C16.9029 12.5546 16.7604 12.6541 16.6464 12.7824C16.5324 12.9106 16.4502 13.0638 16.4064 13.2297C16.4003 13.2933 16.4003 13.3574 16.4064 13.421C16.4091 13.706 16.5229 13.9786 16.7235 14.1809C17.8239 15.5647 18.4163 17.2841 18.4019 19.052C18.4019 19.52 18.3562 19.987 18.2652 20.4461C17.8224 22.6329 16.3463 24.3058 13.8916 25.4101C12.6588 25.9277 11.3222 26.1504 9.9882 26.0607H10.2069C12.6834 25.76 14.4274 24.9017 15.6301 22.7805C17.2702 19.8283 16.0292 16.2201 13.5363 14.1426C12.8018 13.585 12.027 13.0825 11.2183 12.6392C11.0215 12.5244 10.9121 12.3495 11.1581 12.0433C11.7825 11.1451 12.5338 10.3422 13.3887 9.65971C13.6237 9.4957 13.5199 9.35903 13.4215 9.22782C13.0558 8.91482 12.6645 8.63318 12.2515 8.38591C11.9836 8.2547 11.8743 8.11256 12.0821 7.92121C12.5445 7.49032 13.0843 7.15085 13.6729 6.92075C13.7526 6.87622 13.844 6.85706 13.9349 6.86586C14.0257 6.87465 14.1117 6.91097 14.1814 6.96996ZM4.82736 9.52851C5.1389 8.90181 5.50476 8.30362 5.92076 7.7408C5.96392 7.67539 6.0278 7.62637 6.10214 7.60158C6.17649 7.5768 6.257 7.5777 6.33078 7.60413C6.73534 7.6752 7.42418 7.97588 8.3809 8.23283C8.45336 8.26632 8.5353 8.27317 8.61231 8.25217C8.68932 8.23117 8.75644 8.18366 8.80186 8.11802C9.70307 7.18785 10.7912 6.45931 11.9946 5.98043C12.1069 5.93604 12.2274 5.91601 12.348 5.92166C12.4686 5.92732 12.5867 5.95853 12.6944 6.01323C12.9076 6.11164 13.1372 6.21551 13.4105 6.35219C12.8258 6.59738 12.2877 6.94135 11.8196 7.36905C11.7147 7.46007 11.6307 7.57261 11.5731 7.69901C11.5156 7.82542 11.4859 7.96273 11.4862 8.10162C11.483 8.14165 11.483 8.18187 11.4862 8.2219C11.5201 8.39391 11.595 8.55523 11.7044 8.69225C11.8139 8.82926 11.9546 8.93795 12.1149 9.00914C12.3336 9.13803 12.5453 9.27855 12.749 9.4301C12.0149 10.0751 11.3647 10.8098 10.8137 11.6169C10.7038 11.7398 10.622 11.8851 10.5739 12.0427C10.5257 12.2004 10.5124 12.3666 10.5349 12.5299C10.5656 12.6872 10.6304 12.8358 10.7249 12.9652C10.8194 13.0946 10.9412 13.2017 11.0816 13.2789L11.4752 13.5139C12.1159 13.8669 12.7282 14.269 13.3067 14.7167C15.4279 16.4716 16.7727 19.6807 15.2256 22.4306C14.1868 24.273 12.6834 25.2242 10.3545 25.5085C9.54765 25.6049 8.7299 25.5493 7.94354 25.3445C8.26078 25.3851 8.58047 25.4034 8.90027 25.3992C10.6552 25.3992 12.4975 24.765 13.4543 23.2561C15.8488 19.4894 13.0989 15.6023 9.37043 14.3559C8.27703 14.0125 7.15566 13.7655 6.01916 13.6178C5.62007 13.5686 5.52167 13.4429 5.64741 13.1641C6.06327 12.2525 6.55331 11.3767 7.11256 10.5454C7.15083 10.4907 7.11256 10.3595 6.98135 10.3158C6.3504 10.1328 5.70978 9.98493 5.06244 9.87293C4.81642 9.84013 4.72349 9.72532 4.82736 9.52851ZM16.3572 28.3131C14.0158 28.7081 11.611 28.4549 9.40317 27.5808C7.19538 26.7068 5.26888 25.2452 3.83237 23.3545C5.73488 25.1969 8.97134 28.1928 13.8807 25.924C21.0261 22.7313 18.9213 15.6078 16.9531 13.5249C16.9052 13.4925 16.8674 13.4473 16.8441 13.3943C16.8208 13.3413 16.813 13.2829 16.8216 13.2256C16.8301 13.1684 16.8548 13.1148 16.8926 13.071C16.9304 13.0272 16.9798 12.995 17.0351 12.9782C18.0821 12.5267 19.1578 12.145 20.2552 11.8356C20.3919 11.7973 20.4192 11.7317 20.3481 11.5622C20.1614 10.9657 19.8908 10.3987 19.5445 9.8784C19.3641 9.68158 19.4461 9.56131 19.6484 9.51211C20.2905 9.35065 20.9453 9.24456 21.6056 9.19502C21.6814 9.1788 21.7605 9.18636 21.8319 9.21669C21.9033 9.24702 21.9636 9.29863 22.0046 9.3645C22.3301 9.95791 22.5904 10.5848 22.781 11.2342C22.8025 11.2905 22.8378 11.3405 22.8836 11.3797C22.9295 11.4188 22.9844 11.4459 23.0434 11.4584C24.2282 11.4663 25.4114 11.5485 26.586 11.7044C26.6509 11.7193 26.7118 11.7481 26.7646 11.7886C26.8174 11.8292 26.8609 11.8806 26.8921 11.9395C27.1655 12.765 27.7778 16.7504 26.0229 20.96C24.0602 25.8037 20.1404 27.7336 16.3572 28.3131Z" fill="#FF7500"/>
</svg>
