<svg width="223" height="37" viewBox="0 0 223 37" fill="none" xmlns="http://www.w3.org/2000/svg">
<path d="M0.024 36V2.4H8.952L18.168 20.496L27.384 2.4H36.312V36H29.736V11.28L18.072 33.6L6.456 11.184V36H0.024ZM41.9201 36V10.992H48.4961V36H41.9201ZM45.1841 8.016C44.1601 8.016 43.2801 7.648 42.5441 6.912C41.8081 6.176 41.4401 5.296 41.4401 4.272C41.4401 3.216 41.8081 2.336 42.5441 1.632C43.2801 0.895999 44.1601 0.527999 45.1841 0.527999C46.2401 0.527999 47.1201 0.895999 47.8241 1.632C48.5601 2.336 48.9281 3.216 48.9281 4.272C48.9281 5.296 48.5601 6.176 47.8241 6.912C47.1201 7.648 46.2401 8.016 45.1841 8.016ZM53.6389 36V10.992H60.2149V13.056C62.1029 11.36 64.4389 10.512 67.2229 10.512C69.1749 10.512 70.8869 10.944 72.3589 11.808C73.8629 12.64 75.0309 13.808 75.8629 15.312C76.6949 16.784 77.1109 18.512 77.1109 20.496V36H70.5349V21.456C70.5349 19.824 70.0709 18.544 69.1429 17.616C68.2149 16.656 66.9509 16.176 65.3509 16.176C64.2309 16.176 63.2389 16.4 62.3749 16.848C61.5109 17.264 60.7909 17.872 60.2149 18.672V36H53.6389ZM91.7483 36V10.992H98.3243V12.912C100.116 11.312 102.292 10.512 104.852 10.512C106.484 10.512 107.94 10.848 109.22 11.52C110.5 12.16 111.556 13.072 112.388 14.256C113.412 13.04 114.612 12.112 115.988 11.472C117.396 10.832 118.948 10.512 120.644 10.512C122.532 10.512 124.18 10.944 125.588 11.808C127.028 12.64 128.148 13.808 128.948 15.312C129.78 16.784 130.196 18.512 130.196 20.496V36H123.668V21.456C123.668 19.824 123.236 18.544 122.372 17.616C121.508 16.656 120.356 16.176 118.916 16.176C117.924 16.176 117.012 16.384 116.18 16.8C115.38 17.216 114.692 17.84 114.116 18.672C114.148 18.96 114.18 19.248 114.212 19.536C114.244 19.824 114.26 20.144 114.26 20.496V36H107.684V21.456C107.684 19.824 107.252 18.544 106.388 17.616C105.556 16.656 104.42 16.176 102.98 16.176C101.988 16.176 101.092 16.368 100.292 16.752C99.5243 17.136 98.8683 17.712 98.3243 18.48V36H91.7483ZM135.248 36V10.992H141.824V36H135.248ZM138.512 8.016C137.488 8.016 136.608 7.648 135.872 6.912C135.136 6.176 134.768 5.296 134.768 4.272C134.768 3.216 135.136 2.336 135.872 1.632C136.608 0.895999 137.488 0.527999 138.512 0.527999C139.568 0.527999 140.448 0.895999 141.152 1.632C141.888 2.336 142.256 3.216 142.256 4.272C142.256 5.296 141.888 6.176 141.152 6.912C140.448 7.648 139.568 8.016 138.512 8.016ZM146.967 36V10.992H153.543V13.056C155.431 11.36 157.767 10.512 160.551 10.512C162.503 10.512 164.215 10.944 165.687 11.808C167.191 12.64 168.359 13.808 169.191 15.312C170.023 16.784 170.439 18.512 170.439 20.496V36H163.863V21.456C163.863 19.824 163.399 18.544 162.471 17.616C161.543 16.656 160.279 16.176 158.679 16.176C157.559 16.176 156.567 16.4 155.703 16.848C154.839 17.264 154.119 17.872 153.543 18.672V36H146.967ZM183.388 36.432C181.596 36.432 180.012 36.112 178.636 35.472C177.26 34.8 176.188 33.888 175.42 32.736C174.652 31.584 174.268 30.256 174.268 28.752C174.268 26.352 175.164 24.496 176.956 23.184C178.78 21.84 181.276 21.168 184.444 21.168C186.62 21.168 188.668 21.504 190.588 22.176V20.352C190.588 18.912 190.14 17.824 189.244 17.088C188.348 16.352 187.036 15.984 185.308 15.984C184.252 15.984 183.116 16.16 181.9 16.512C180.684 16.832 179.276 17.344 177.676 18.048L175.276 13.2C177.26 12.304 179.148 11.632 180.94 11.184C182.764 10.736 184.588 10.512 186.412 10.512C189.772 10.512 192.38 11.328 194.236 12.96C196.124 14.56 197.068 16.832 197.068 19.776V36H190.588V34.224C189.564 34.992 188.46 35.552 187.276 35.904C186.092 36.256 184.796 36.432 183.388 36.432ZM180.508 28.608C180.508 29.568 180.924 30.336 181.756 30.912C182.588 31.456 183.692 31.728 185.068 31.728C186.156 31.728 187.164 31.6 188.092 31.344C189.02 31.056 189.852 30.64 190.588 30.096V26.448C189.788 26.128 188.956 25.888 188.092 25.728C187.228 25.568 186.3 25.488 185.308 25.488C183.804 25.488 182.62 25.776 181.756 26.352C180.924 26.896 180.508 27.648 180.508 28.608ZM211.405 36.48C209.101 36.48 206.973 36.192 205.021 35.616C203.069 35.008 201.373 34.144 199.933 33.024L203.197 28.656C204.637 29.616 206.013 30.336 207.325 30.816C208.669 31.296 209.997 31.536 211.309 31.536C212.781 31.536 213.949 31.296 214.813 30.816C215.709 30.304 216.157 29.648 216.157 28.848C216.157 28.208 215.901 27.696 215.389 27.312C214.909 26.928 214.125 26.656 213.037 26.496L208.237 25.776C205.741 25.392 203.853 24.592 202.573 23.376C201.293 22.128 200.653 20.496 200.653 18.48C200.653 16.848 201.069 15.456 201.901 14.304C202.765 13.12 203.965 12.208 205.501 11.568C207.069 10.896 208.925 10.56 211.069 10.56C212.893 10.56 214.669 10.816 216.397 11.328C218.157 11.84 219.805 12.624 221.341 13.68L218.173 17.952C216.797 17.088 215.485 16.464 214.237 16.08C212.989 15.696 211.725 15.504 210.445 15.504C209.261 15.504 208.301 15.728 207.565 16.176C206.861 16.624 206.509 17.216 206.509 17.952C206.509 18.624 206.765 19.152 207.277 19.536C207.789 19.92 208.669 20.192 209.917 20.352L214.717 21.072C217.181 21.424 219.069 22.224 220.381 23.472C221.693 24.688 222.349 26.272 222.349 28.224C222.349 29.824 221.869 31.248 220.909 32.496C219.949 33.712 218.653 34.688 217.021 35.424C215.389 36.128 213.517 36.48 211.405 36.48Z" fill="white"/>
</svg>
