<svg xmlns="http://www.w3.org/2000/svg" width="33" height="33" viewBox="0 0 33 33" fill="none"><path d="M16.0482 29.8332C14.2037 29.8332 12.4704 29.4832 10.8482 28.7832C9.22595 28.0832 7.81484 27.1332 6.61484 25.9332C5.41484 24.7332 4.46484 23.3221 3.76484 21.6998C3.06484 20.0776 2.71484 18.3443 2.71484 16.4998C2.71484 14.6554 3.06484 12.9221 3.76484 11.2998C4.46484 9.67761 5.41484 8.2665 6.61484 7.0665C7.81484 5.8665 9.22595 4.9165 10.8482 4.2165C12.4704 3.5165 14.2037 3.1665 16.0482 3.1665C17.4926 3.1665 18.8593 3.37761 20.1482 3.79984C21.4371 4.22206 22.626 4.81095 23.7148 5.5665L21.7815 7.53317C20.9371 6.99984 20.0371 6.58317 19.0815 6.28317C18.126 5.98317 17.1148 5.83317 16.0482 5.83317C13.0926 5.83317 10.576 6.87206 8.49818 8.94984C6.4204 11.0276 5.38151 13.5443 5.38151 16.4998C5.38151 19.4554 6.4204 21.9721 8.49818 24.0498C10.576 26.1276 13.0926 27.1665 16.0482 27.1665C19.0037 27.1665 21.5204 26.1276 23.5982 24.0498C25.676 21.9721 26.7148 19.4554 26.7148 16.4998C26.7148 16.0998 26.6926 15.6998 26.6482 15.2998C26.6037 14.8998 26.5371 14.5109 26.4482 14.1332L28.6148 11.9665C28.8593 12.6776 29.0482 13.4109 29.1815 14.1665C29.3148 14.9221 29.3815 15.6998 29.3815 16.4998C29.3815 18.3443 29.0315 20.0776 28.3315 21.6998C27.6315 23.3221 26.6815 24.7332 25.4815 25.9332C24.2815 27.1332 22.8704 28.0832 21.2482 28.7832C19.626 29.4832 17.8926 29.8332 16.0482 29.8332ZM14.1815 22.6332L8.51484 16.9665L10.3815 15.0998L14.1815 18.8998L27.5148 5.53317L29.3815 7.39984L14.1815 22.6332Z" fill="#005CBF"></path></svg>