<svg xmlns="http://www.w3.org/2000/svg" width="33" height="32" viewBox="0 0 33 32" fill="none"><path d="M16.0492 29.3332C14.2047 29.3332 12.4714 28.9832 10.8492 28.2832C9.22693 27.5832 7.81582 26.6332 6.61582 25.4332C5.41582 24.2332 4.46582 22.8221 3.76582 21.1998C3.06582 19.5776 2.71582 17.8443 2.71582 15.9998C2.71582 14.1554 3.06582 12.4221 3.76582 10.7998C4.46582 9.17761 5.41582 7.7665 6.61582 6.5665C7.81582 5.3665 9.22693 4.4165 10.8492 3.7165C12.4714 3.0165 14.2047 2.6665 16.0492 2.6665C17.4936 2.6665 18.8603 2.87761 20.1492 3.29984C21.438 3.72206 22.6269 4.31095 23.7158 5.0665L21.7825 7.03317C20.938 6.49984 20.038 6.08317 19.0825 5.78317C18.1269 5.48317 17.1158 5.33317 16.0492 5.33317C13.0936 5.33317 10.5769 6.37206 8.49915 8.44984C6.42138 10.5276 5.38249 13.0443 5.38249 15.9998C5.38249 18.9554 6.42138 21.4721 8.49915 23.5498C10.5769 25.6276 13.0936 26.6665 16.0492 26.6665C19.0047 26.6665 21.5214 25.6276 23.5992 23.5498C25.6769 21.4721 26.7158 18.9554 26.7158 15.9998C26.7158 15.5998 26.6936 15.1998 26.6492 14.7998C26.6047 14.3998 26.538 14.0109 26.4492 13.6332L28.6158 11.4665C28.8603 12.1776 29.0492 12.9109 29.1825 13.6665C29.3158 14.4221 29.3825 15.1998 29.3825 15.9998C29.3825 17.8443 29.0325 19.5776 28.3325 21.1998C27.6325 22.8221 26.6825 24.2332 25.4825 25.4332C24.2825 26.6332 22.8714 27.5832 21.2492 28.2832C19.6269 28.9832 17.8936 29.3332 16.0492 29.3332ZM14.1825 22.1332L8.51582 16.4665L10.3825 14.5998L14.1825 18.3998L27.5158 5.03317L29.3825 6.89984L14.1825 22.1332Z" fill="#6DC034"></path></svg>