<svg width="33" height="32" viewBox="0 0 33 32" fill="none" xmlns="http://www.w3.org/2000/svg">
<path d="M16.0482 29.3333C14.2037 29.3333 12.4704 28.9833 10.8482 28.2833C9.22595 27.5833 7.81484 26.6333 6.61484 25.4333C5.41484 24.2333 4.46484 22.8222 3.76484 21.2C3.06484 19.5778 2.71484 17.8444 2.71484 16C2.71484 14.1555 3.06484 12.4222 3.76484 10.8C4.46484 9.17777 5.41484 7.76666 6.61484 6.56666C7.81484 5.36666 9.22595 4.41666 10.8482 3.71666C12.4704 3.01666 14.2037 2.66666 16.0482 2.66666C17.4926 2.66666 18.8593 2.87777 20.1482 3.29999C21.4371 3.72221 22.626 4.3111 23.7148 5.06666L21.7815 7.03332C20.9371 6.49999 20.0371 6.08332 19.0815 5.78332C18.126 5.48332 17.1148 5.33332 16.0482 5.33332C13.0926 5.33332 10.576 6.37221 8.49818 8.44999C6.4204 10.5278 5.38151 13.0444 5.38151 16C5.38151 18.9555 6.4204 21.4722 8.49818 23.55C10.576 25.6278 13.0926 26.6667 16.0482 26.6667C19.0037 26.6667 21.5204 25.6278 23.5982 23.55C25.676 21.4722 26.7148 18.9555 26.7148 16C26.7148 15.6 26.6926 15.2 26.6482 14.8C26.6037 14.4 26.5371 14.0111 26.4482 13.6333L28.6148 11.4667C28.8593 12.1778 29.0482 12.9111 29.1815 13.6667C29.3148 14.4222 29.3815 15.2 29.3815 16C29.3815 17.8444 29.0315 19.5778 28.3315 21.2C27.6315 22.8222 26.6815 24.2333 25.4815 25.4333C24.2815 26.6333 22.8704 27.5833 21.2482 28.2833C19.626 28.9833 17.8926 29.3333 16.0482 29.3333ZM14.1815 22.1333L8.51484 16.4667L10.3815 14.6L14.1815 18.4L27.5148 5.03332L29.3815 6.89999L14.1815 22.1333Z" fill="#23459D"/>
</svg>
