<svg xmlns="http://www.w3.org/2000/svg" width="33" height="32" viewBox="0 0 33 32" fill="none"><path d="M16.0482 29.3332C14.2037 29.3332 12.4704 28.9832 10.8482 28.2832C9.22595 27.5832 7.81484 26.6332 6.61484 25.4332C5.41484 24.2332 4.46484 22.8221 3.76484 21.1998C3.06484 19.5776 2.71484 17.8443 2.71484 15.9998C2.71484 14.1554 3.06484 12.4221 3.76484 10.7998C4.46484 9.17761 5.41484 7.7665 6.61484 6.5665C7.81484 5.3665 9.22595 4.4165 10.8482 3.7165C12.4704 3.0165 14.2037 2.6665 16.0482 2.6665C17.4926 2.6665 18.8593 2.87761 20.1482 3.29984C21.4371 3.72206 22.626 4.31095 23.7148 5.0665L21.7815 7.03317C20.9371 6.49984 20.0371 6.08317 19.0815 5.78317C18.126 5.48317 17.1148 5.33317 16.0482 5.33317C13.0926 5.33317 10.576 6.37206 8.49818 8.44984C6.4204 10.5276 5.38151 13.0443 5.38151 15.9998C5.38151 18.9554 6.4204 21.4721 8.49818 23.5498C10.576 25.6276 13.0926 26.6665 16.0482 26.6665C19.0037 26.6665 21.5204 25.6276 23.5982 23.5498C25.676 21.4721 26.7148 18.9554 26.7148 15.9998C26.7148 15.5998 26.6926 15.1998 26.6482 14.7998C26.6037 14.3998 26.5371 14.0109 26.4482 13.6332L28.6148 11.4665C28.8593 12.1776 29.0482 12.9109 29.1815 13.6665C29.3148 14.4221 29.3815 15.1998 29.3815 15.9998C29.3815 17.8443 29.0315 19.5776 28.3315 21.1998C27.6315 22.8221 26.6815 24.2332 25.4815 25.4332C24.2815 26.6332 22.8704 27.5832 21.2482 28.2832C19.626 28.9832 17.8926 29.3332 16.0482 29.3332ZM14.1815 22.1332L8.51484 16.4665L10.3815 14.5998L14.1815 18.3998L27.5148 5.03317L29.3815 6.89984L14.1815 22.1332Z" fill="#FF7500"></path></svg>