<svg xmlns="http://www.w3.org/2000/svg" width="32" height="32" viewBox="0 0 32 32" fill="none"><path d="M15.9993 29.3334C14.1549 29.3334 12.4216 28.9834 10.7993 28.2834C9.17713 27.5834 7.76602 26.6334 6.56602 25.4334C5.36602 24.2334 4.41602 22.8222 3.71602 21.2C3.01602 19.5778 2.66602 17.8445 2.66602 16C2.66602 14.1556 3.01602 12.4222 3.71602 10.8C4.41602 9.1778 5.36602 7.76669 6.56602 6.56669C7.76602 5.36669 9.17713 4.41669 10.7993 3.71669C12.4216 3.01669 14.1549 2.66669 15.9993 2.66669C17.4438 2.66669 18.8105 2.8778 20.0993 3.30002C21.3882 3.72224 22.5771 4.31113 23.666 5.06669L21.7327 7.03335C20.8882 6.50002 19.9882 6.08335 19.0327 5.78335C18.0771 5.48335 17.066 5.33335 15.9993 5.33335C13.0438 5.33335 10.5271 6.37224 8.44935 8.45002C6.37157 10.5278 5.33268 13.0445 5.33268 16C5.33268 18.9556 6.37157 21.4722 8.44935 23.55C10.5271 25.6278 13.0438 26.6667 15.9993 26.6667C18.9549 26.6667 21.4716 25.6278 23.5493 23.55C25.6271 21.4722 26.666 18.9556 26.666 16C26.666 15.6 26.6438 15.2 26.5993 14.8C26.5549 14.4 26.4882 14.0111 26.3993 13.6334L28.566 11.4667C28.8105 12.1778 28.9993 12.9111 29.1327 13.6667C29.266 14.4222 29.3327 15.2 29.3327 16C29.3327 17.8445 28.9827 19.5778 28.2827 21.2C27.5827 22.8222 26.6327 24.2334 25.4327 25.4334C24.2327 26.6334 22.8216 27.5834 21.1993 28.2834C19.5771 28.9834 17.8438 29.3334 15.9993 29.3334ZM14.1327 22.1334L8.46602 16.4667L10.3327 14.6L14.1327 18.4L27.466 5.03335L29.3327 6.90002L14.1327 22.1334Z" fill="#3B8341"></path></svg>