<svg width="144" height="37" viewBox="0 0 144 37" fill="none" xmlns="http://www.w3.org/2000/svg">
<path d="M16.1 36.5C12.9333 36.5 10.1833 35.8667 7.85 34.6C5.55 33.3333 3.76667 31.5333 2.5 29.2C1.23333 26.8333 0.6 24.0667 0.6 20.9V0.999998H7.85V20.9C7.85 22.7 8.18333 24.2833 8.85 25.65C9.55 26.9833 10.5167 28.0167 11.75 28.75C13.0167 29.45 14.4833 29.8 16.15 29.8C17.8167 29.8 19.2667 29.45 20.5 28.75C21.7333 28.0167 22.6833 26.9833 23.35 25.65C24.05 24.2833 24.4 22.7 24.4 20.9V0.999998H31.6V20.9C31.6 24.0333 30.9667 26.7833 29.7 29.15C28.4333 31.4833 26.6333 33.3 24.3 34.6C22 35.8667 19.2667 36.5 16.1 36.5ZM55.5805 36.55C52.9805 36.55 50.5638 36.1 48.3305 35.2C46.0971 34.2667 44.1305 32.9833 42.4305 31.35C40.7305 29.6833 39.3971 27.7667 38.4305 25.6C37.4971 23.4 37.0305 21.0333 37.0305 18.5C37.0305 15.9667 37.4971 13.6167 38.4305 11.45C39.3971 9.25 40.7138 7.33333 42.3805 5.7C44.0471 4.03333 45.9971 2.75 48.2305 1.85C50.4971 0.916665 52.9138 0.449999 55.4805 0.449999C58.3805 0.449999 61.1138 1.03333 63.6805 2.2C66.2471 3.33333 68.3638 4.93333 70.0305 7L64.9805 11.65C63.7805 10.15 62.3638 9.01667 60.7305 8.25C59.0971 7.48333 57.3471 7.1 55.4805 7.1C53.9138 7.1 52.4638 7.4 51.1305 8C49.7971 8.56667 48.6305 9.36666 47.6305 10.4C46.6305 11.4 45.8471 12.6 45.2805 14C44.7471 15.3667 44.4805 16.8667 44.4805 18.5C44.4805 20.1333 44.7638 21.65 45.3305 23.05C45.8971 24.45 46.6805 25.6667 47.6805 26.7C48.7138 27.7 49.8971 28.5 51.2305 29.1C52.5971 29.6667 54.0805 29.95 55.6805 29.95C57.3471 29.95 58.8471 29.65 60.1805 29.05C61.5138 28.4167 62.6305 27.55 63.5305 26.45C64.4638 25.3167 65.0805 24.05 65.3805 22.65H55.0305V16.35H73.1305V18.55C73.1305 21.15 72.6805 23.55 71.7805 25.75C70.9138 27.9167 69.6971 29.8167 68.1305 31.45C66.5638 33.05 64.7138 34.3 62.5805 35.2C60.4471 36.1 58.1138 36.55 55.5805 36.55ZM79.0777 36V0.999998H96.6277C98.9277 0.999998 100.944 1.46666 102.678 2.4C104.444 3.33333 105.828 4.63333 106.828 6.3C107.861 7.93333 108.378 9.83333 108.378 12C108.378 14.0667 107.861 15.9167 106.828 17.55C105.828 19.1833 104.444 20.4667 102.678 21.4C100.911 22.3333 98.8944 22.8 96.6277 22.8H86.3277V36H79.0777ZM86.3277 16.8H95.8277C97.3944 16.8 98.6444 16.3667 99.5777 15.5C100.544 14.6333 101.028 13.4833 101.028 12.05C101.028 10.5833 100.544 9.41667 99.5777 8.55C98.6444 7.68333 97.3944 7.25 95.8277 7.25H86.3277V16.8ZM114.111 36V0.999998H131.661C133.961 0.999998 135.978 1.46666 137.711 2.4C139.478 3.33333 140.861 4.63333 141.861 6.3C142.894 7.93333 143.411 9.83333 143.411 12C143.411 14.0667 142.894 15.9167 141.861 17.55C140.861 19.1833 139.478 20.4667 137.711 21.4C135.944 22.3333 133.928 22.8 131.661 22.8H121.361V36H114.111ZM121.361 16.8H130.861C132.428 16.8 133.678 16.3667 134.611 15.5C135.578 14.6333 136.061 13.4833 136.061 12.05C136.061 10.5833 135.578 9.41667 134.611 8.55C133.678 7.68333 132.428 7.25 130.861 7.25H121.361V16.8Z" fill="white"/>
</svg>
