<svg width="51" height="14" viewBox="0 0 51 14" fill="none" xmlns="http://www.w3.org/2000/svg">
<path d="M5.408 13.198C4.316 13.198 3.368 12.97 2.564 12.514C1.76 12.058 1.142 11.416 0.71 10.588C0.278 9.748 0.0620001 8.758 0.0620001 7.618V0.399999H1.952V7.618C1.952 8.398 2.09 9.076 2.366 9.652C2.654 10.228 3.056 10.672 3.572 10.984C4.1 11.296 4.712 11.452 5.408 11.452C6.128 11.452 6.746 11.296 7.262 10.984C7.778 10.672 8.174 10.228 8.45 9.652C8.738 9.076 8.882 8.398 8.882 7.618V0.399999H10.772V7.618C10.772 8.758 10.55 9.748 10.106 10.588C9.674 11.416 9.056 12.058 8.252 12.514C7.448 12.97 6.5 13.198 5.408 13.198ZM19.518 13.198C18.594 13.198 17.73 13.03 16.926 12.694C16.134 12.358 15.438 11.896 14.838 11.308C14.238 10.708 13.77 10.018 13.434 9.238C13.098 8.446 12.93 7.6 12.93 6.7C12.93 5.8 13.092 4.96 13.416 4.18C13.752 3.388 14.22 2.698 14.82 2.11C15.42 1.51 16.116 1.042 16.908 0.705999C17.7 0.37 18.558 0.202 19.482 0.202C20.478 0.202 21.42 0.394 22.308 0.778C23.196 1.162 23.946 1.696 24.558 2.38L23.262 3.64C22.806 3.1 22.242 2.686 21.57 2.398C20.91 2.098 20.214 1.948 19.482 1.948C18.822 1.948 18.21 2.068 17.646 2.308C17.094 2.548 16.608 2.884 16.188 3.316C15.768 3.736 15.438 4.234 15.198 4.81C14.97 5.386 14.856 6.016 14.856 6.7C14.856 7.372 14.97 8.002 15.198 8.59C15.438 9.166 15.768 9.67 16.188 10.102C16.62 10.534 17.118 10.87 17.682 11.11C18.246 11.35 18.858 11.47 19.518 11.47C20.262 11.47 20.934 11.314 21.534 11.002C22.146 10.69 22.644 10.264 23.028 9.724C23.412 9.172 23.646 8.554 23.73 7.87H19.536V6.214H25.71V6.862C25.71 7.762 25.554 8.596 25.242 9.364C24.93 10.132 24.492 10.804 23.928 11.38C23.376 11.956 22.722 12.406 21.966 12.73C21.21 13.042 20.394 13.198 19.518 13.198ZM28.0507 13V0.399999H33.8827C34.7107 0.399999 35.4307 0.561999 36.0427 0.885999C36.6547 1.198 37.1347 1.636 37.4827 2.2C37.8307 2.764 38.0047 3.418 38.0047 4.162C38.0047 4.906 37.8307 5.56 37.4827 6.124C37.1347 6.688 36.6487 7.132 36.0247 7.456C35.4127 7.768 34.6987 7.924 33.8827 7.924H29.9407V13H28.0507ZM29.9407 6.322H33.6847C34.4287 6.322 35.0167 6.13 35.4487 5.746C35.8927 5.35 36.1147 4.828 36.1147 4.18C36.1147 3.532 35.8927 3.016 35.4487 2.632C35.0167 2.248 34.4287 2.056 33.6847 2.056H29.9407V6.322ZM40.3111 13V0.399999H46.1431C46.9711 0.399999 47.6911 0.561999 48.3031 0.885999C48.9151 1.198 49.3951 1.636 49.7431 2.2C50.0911 2.764 50.2651 3.418 50.2651 4.162C50.2651 4.906 50.0911 5.56 49.7431 6.124C49.3951 6.688 48.9091 7.132 48.2851 7.456C47.6731 7.768 46.9591 7.924 46.1431 7.924H42.2011V13H40.3111ZM42.2011 6.322H45.9451C46.6891 6.322 47.2771 6.13 47.7091 5.746C48.1531 5.35 48.3751 4.828 48.3751 4.18C48.3751 3.532 48.1531 3.016 47.7091 2.632C47.2771 2.248 46.6891 2.056 45.9451 2.056H42.2011V6.322Z" fill="#28283D"/>
</svg>
