<svg width="28" height="28" viewBox="0 0 28 28" fill="none" xmlns="http://www.w3.org/2000/svg">
<path d="M14.0482 27.3333C12.2037 27.3333 10.4704 26.9833 8.84818 26.2833C7.22595 25.5833 5.81484 24.6333 4.61484 23.4333C3.41484 22.2333 2.46484 20.8222 1.76484 19.2C1.06484 17.5778 0.714844 15.8444 0.714844 14C0.714844 12.1556 1.06484 10.4222 1.76484 8.8C2.46484 7.17777 3.41484 5.76666 4.61484 4.56666C5.81484 3.36666 7.22595 2.41666 8.84818 1.71666C10.4704 1.01666 12.2037 0.666664 14.0482 0.666664C15.4926 0.666664 16.8593 0.877775 18.1482 1.3C19.4371 1.72222 20.626 2.31111 21.7148 3.06666L19.7815 5.03333C18.9371 4.5 18.0371 4.08333 17.0815 3.78333C16.126 3.48333 15.1148 3.33333 14.0482 3.33333C11.0926 3.33333 8.57595 4.37222 6.49818 6.45C4.4204 8.52777 3.38151 11.0444 3.38151 14C3.38151 16.9556 4.4204 19.4722 6.49818 21.55C8.57595 23.6278 11.0926 24.6667 14.0482 24.6667C17.0037 24.6667 19.5204 23.6278 21.5982 21.55C23.676 19.4722 24.7148 16.9556 24.7148 14C24.7148 13.6 24.6926 13.2 24.6482 12.8C24.6037 12.4 24.5371 12.0111 24.4482 11.6333L26.6148 9.46666C26.8593 10.1778 27.0482 10.9111 27.1815 11.6667C27.3148 12.4222 27.3815 13.2 27.3815 14C27.3815 15.8444 27.0315 17.5778 26.3315 19.2C25.6315 20.8222 24.6815 22.2333 23.4815 23.4333C22.2815 24.6333 20.8704 25.5833 19.2482 26.2833C17.626 26.9833 15.8926 27.3333 14.0482 27.3333ZM12.1815 20.1333L6.51484 14.4667L8.38151 12.6L12.1815 16.4L25.5148 3.03333L27.3815 4.9L12.1815 20.1333Z" fill="#00A3E4"/>
</svg>
