<svg xmlns="http://www.w3.org/2000/svg" width="20" height="21" viewBox="0 0 20 21" fill="none"><path d="M10.0006 8.19199C8.56699 8.19199 7.39707 9.36191 7.39707 10.7955C7.39707 12.2291 8.56699 13.399 10.0006 13.399C11.4342 13.399 12.6041 12.2291 12.6041 10.7955C12.6041 9.36191 11.4342 8.19199 10.0006 8.19199ZM17.8092 10.7955C17.8092 9.71738 17.8189 8.64902 17.7584 7.57285C17.6978 6.32285 17.4127 5.21347 16.4986 4.29941C15.5826 3.38339 14.4752 3.10019 13.2252 3.03964C12.1471 2.9791 11.0787 2.98886 10.0025 2.98886C8.92441 2.98886 7.85605 2.9791 6.77988 3.03964C5.52988 3.10019 4.4205 3.38535 3.50644 4.29941C2.59042 5.21542 2.30722 6.32285 2.24667 7.57285C2.18613 8.65097 2.19589 9.71933 2.19589 10.7955C2.19589 11.8717 2.18613 12.942 2.24667 14.0182C2.30722 15.2682 2.59238 16.3775 3.50644 17.2916C4.42246 18.2076 5.52988 18.4908 6.77988 18.5514C7.858 18.6119 8.92636 18.6021 10.0025 18.6021C11.0807 18.6021 12.149 18.6119 13.2252 18.5514C14.4752 18.4908 15.5846 18.2057 16.4986 17.2916C17.4146 16.3756 17.6978 15.2682 17.7584 14.0182C17.8209 12.942 17.8092 11.8736 17.8092 10.7955ZM10.0006 14.8014C7.78378 14.8014 5.99472 13.0123 5.99472 10.7955C5.99472 8.57871 7.78378 6.78964 10.0006 6.78964C12.2174 6.78964 14.0064 8.57871 14.0064 10.7955C14.0064 13.0123 12.2174 14.8014 10.0006 14.8014ZM14.1705 7.56113C13.6529 7.56113 13.235 7.14316 13.235 6.62558C13.235 6.108 13.6529 5.69003 14.1705 5.69003C14.6881 5.69003 15.1061 6.108 15.1061 6.62558C15.1062 6.74848 15.0821 6.87021 15.0351 6.98378C14.9882 7.09736 14.9193 7.20055 14.8324 7.28746C14.7455 7.37436 14.6423 7.44327 14.5287 7.49023C14.4151 7.53719 14.2934 7.56128 14.1705 7.56113Z" fill="#0094FF"></path></svg>