<svg xmlns="http://www.w3.org/2000/svg" width="20" height="20" viewBox="0 0 20 20" fill="none"><path d="M10.0006 7.39706C8.56699 7.39706 7.39707 8.56699 7.39707 10.0006C7.39707 11.4342 8.56699 12.6041 10.0006 12.6041C11.4342 12.6041 12.6041 11.4342 12.6041 10.0006C12.6041 8.56699 11.4342 7.39706 10.0006 7.39706ZM17.8092 10.0006C17.8092 8.92246 17.8189 7.8541 17.7584 6.77792C17.6978 5.52792 17.4127 4.41855 16.4986 3.50449C15.5826 2.58847 14.4752 2.30527 13.2252 2.24472C12.1471 2.18417 11.0787 2.19394 10.0025 2.19394C8.92441 2.19394 7.85605 2.18417 6.77988 2.24472C5.52988 2.30527 4.4205 2.59042 3.50644 3.50449C2.59042 4.4205 2.30722 5.52792 2.24667 6.77792C2.18613 7.85605 2.19589 8.92441 2.19589 10.0006C2.19589 11.0768 2.18613 12.1471 2.24667 13.2232C2.30722 14.4732 2.59238 15.5826 3.50644 16.4967C4.42246 17.4127 5.52988 17.6959 6.77988 17.7564C7.858 17.817 8.92636 17.8072 10.0025 17.8072C11.0807 17.8072 12.149 17.817 13.2252 17.7564C14.4752 17.6959 15.5846 17.4107 16.4986 16.4967C17.4146 15.5807 17.6978 14.4732 17.7584 13.2232C17.8209 12.1471 17.8092 11.0787 17.8092 10.0006ZM10.0006 14.0064C7.78378 14.0064 5.99472 12.2174 5.99472 10.0006C5.99472 7.78378 7.78378 5.99472 10.0006 5.99472C12.2174 5.99472 14.0064 7.78378 14.0064 10.0006C14.0064 12.2174 12.2174 14.0064 10.0006 14.0064ZM14.1705 6.76621C13.6529 6.76621 13.235 6.34824 13.235 5.83066C13.235 5.31308 13.6529 4.89511 14.1705 4.89511C14.6881 4.89511 15.1061 5.31308 15.1061 5.83066C15.1062 5.95356 15.0821 6.07528 15.0351 6.18886C14.9882 6.30243 14.9193 6.40563 14.8324 6.49253C14.7455 6.57944 14.6423 6.64834 14.5287 6.69531C14.4151 6.74227 14.2934 6.76636 14.1705 6.76621Z" fill="white"></path></svg>