<svg xmlns="http://www.w3.org/2000/svg" width="41" height="41" viewBox="0 0 41 41" fill="none"><path d="M37.4557 15.0498L37.414 14.7698L37.3707 14.7798C37.0745 13.3949 36.3923 12.1221 35.4029 11.1087C34.4135 10.0954 33.1574 9.38285 31.78 9.05362C30.4025 8.72438 28.96 8.79189 27.6193 9.24832C26.2786 9.70476 25.0946 10.5315 24.2042 11.6328C23.3138 12.7341 22.7534 14.0651 22.5879 15.4716C22.4223 16.8781 22.6585 18.3028 23.2689 19.5808C23.8793 20.8587 24.8391 21.9377 26.0372 22.6929C27.2353 23.4481 28.6227 23.8486 30.039 23.8481C30.4107 23.8481 30.7673 23.7915 31.1223 23.7398C31.0073 24.1265 30.889 24.5198 30.699 24.8731C30.509 25.3865 30.2123 25.8315 29.9173 26.2798C29.6707 26.7648 29.2357 27.0931 28.9156 27.5081C28.5807 27.9115 28.124 28.1798 27.7623 28.5148C27.4073 28.8648 26.9423 29.0398 26.5723 29.2865C26.1856 29.5081 25.849 29.7531 25.489 29.8698L24.5907 30.2398L23.8006 30.5681L24.6073 33.7998L25.6023 33.5598C25.9207 33.4798 26.309 33.3865 26.7507 33.2748C27.2023 33.1915 27.684 32.9631 28.2206 32.7548C28.749 32.5165 29.364 32.3581 29.934 31.9765C30.5073 31.6131 31.169 31.3098 31.7523 30.8231C32.3173 30.3215 32.999 29.8865 33.5023 29.2498C34.0523 28.6531 34.5956 28.0265 35.0173 27.3131C35.5056 26.6331 35.8373 25.8865 36.1873 25.1481C36.504 24.4098 36.759 23.6548 36.9673 22.9215C37.3623 21.4515 37.539 20.0548 37.6073 18.8598C37.664 17.6631 37.6306 16.6681 37.5606 15.9481C37.5372 15.6475 37.5022 15.3478 37.4557 15.0498ZM19.1223 15.0498L19.0807 14.7698L19.0373 14.7798C18.7412 13.3949 18.0589 12.1221 17.0696 11.1087C16.0802 10.0954 14.8241 9.38285 13.4466 9.05362C12.0692 8.72438 10.6267 8.79189 9.28599 9.24832C7.94531 9.70476 6.76126 10.5315 5.87085 11.6328C4.98043 12.7341 4.42005 14.0651 4.25453 15.4716C4.08901 16.8781 4.32512 18.3028 4.93555 19.5808C5.54597 20.8587 6.50576 21.9377 7.70386 22.6929C8.90196 23.4481 10.2894 23.8486 11.7057 23.8481C12.0773 23.8481 12.434 23.7915 12.789 23.7398C12.674 24.1265 12.5557 24.5198 12.3657 24.8731C12.1757 25.3865 11.879 25.8315 11.584 26.2798C11.3373 26.7648 10.9023 27.0931 10.5823 27.5081C10.2473 27.9115 9.79065 28.1798 9.42898 28.5148C9.07398 28.8648 8.60898 29.0398 8.23899 29.2865C7.85232 29.5081 7.51565 29.7531 7.15565 29.8698L6.25732 30.2398C5.75565 30.4448 5.46898 30.5648 5.46898 30.5648L6.27565 33.7965L7.27065 33.5565C7.58898 33.4765 7.97732 33.3831 8.41898 33.2715C8.87065 33.1881 9.35232 32.9598 9.88898 32.7515C10.4173 32.5131 11.0323 32.3548 11.6023 31.9731C12.1757 31.6098 12.8373 31.3065 13.4207 30.8198C13.9857 30.3181 14.6673 29.8831 15.1707 29.2465C15.7207 28.6498 16.264 28.0231 16.6856 27.3098C17.174 26.6298 17.5057 25.8831 17.8556 25.1448C18.1723 24.4065 18.4273 23.6515 18.6357 22.9181C19.0307 21.4481 19.2073 20.0515 19.2757 18.8565C19.3323 17.6598 19.299 16.6648 19.229 15.9448C19.2041 15.6453 19.1685 15.3468 19.1223 15.0498Z" fill="#0094FF"></path></svg>