<svg xmlns="http://www.w3.org/2000/svg" width="16" height="17" viewBox="0 0 16 17" fill="none"><g clip-path="url(#clip0_4840_16396)"><path d="M12.3333 1.95833H12V1.625C12 1.35978 11.8946 1.10543 11.7071 0.917893C11.5196 0.730357 11.2652 0.625 11 0.625C10.7348 0.625 10.4804 0.730357 10.2929 0.917893C10.1054 1.10543 10 1.35978 10 1.625V1.95833H6V1.625C6 1.35978 5.89464 1.10543 5.70711 0.917893C5.51957 0.730357 5.26522 0.625 5 0.625C4.73478 0.625 4.48043 0.730357 4.29289 0.917893C4.10536 1.10543 4 1.35978 4 1.625V1.95833H3.66667C2.69421 1.95833 1.76158 2.34464 1.07394 3.03228C0.386308 3.71991 0 4.65254 0 5.625L0 12.9583C0 13.9308 0.386308 14.8634 1.07394 15.5511C1.76158 16.2387 2.69421 16.625 3.66667 16.625H12.3333C13.3058 16.625 14.2384 16.2387 14.9261 15.5511C15.6137 14.8634 16 13.9308 16 12.9583V5.625C16 4.65254 15.6137 3.71991 14.9261 3.03228C14.2384 2.34464 13.3058 1.95833 12.3333 1.95833ZM12.3333 14.625H3.66667C3.22464 14.625 2.80072 14.4494 2.48816 14.1368C2.17559 13.8243 2 13.4004 2 12.9583V7.29167H14V12.9583C14 13.4004 13.8244 13.8243 13.5118 14.1368C13.1993 14.4494 12.7754 14.625 12.3333 14.625Z" fill="#757095"></path></g><defs><clipPath id="clip0_4840_16396"><rect width="16" height="16" fill="white" transform="translate(0 0.625)"></rect></clipPath></defs></svg>