<svg xmlns="http://www.w3.org/2000/svg" width="21" height="21" viewBox="0 0 21 21" fill="none"><g clip-path="url(#clip0_6081_10067)"><path d="M0.9375 16.3333C0.938823 17.4379 1.37823 18.497 2.15935 19.2781C2.94046 20.0592 3.9995 20.4986 5.10417 20.4999H16.7708C17.8755 20.4986 18.9345 20.0592 19.7157 19.2781C20.4968 18.497 20.9362 17.4379 20.9375 16.3333V8.83325H0.9375V16.3333ZM15.1042 12.5833C15.3514 12.5833 15.5931 12.6566 15.7986 12.7939C16.0042 12.9313 16.1644 13.1265 16.259 13.3549C16.3536 13.5833 16.3784 13.8346 16.3301 14.0771C16.2819 14.3196 16.1629 14.5423 15.988 14.7171C15.8132 14.892 15.5905 15.011 15.348 15.0592C15.1056 15.1075 14.8542 15.0827 14.6258 14.9881C14.3974 14.8935 14.2022 14.7333 14.0648 14.5277C13.9275 14.3222 13.8542 14.0805 13.8542 13.8333C13.8542 13.5017 13.9859 13.1838 14.2203 12.9494C14.4547 12.7149 14.7726 12.5833 15.1042 12.5833ZM10.9375 12.5833C11.1847 12.5833 11.4264 12.6566 11.632 12.7939C11.8375 12.9313 11.9977 13.1265 12.0923 13.3549C12.187 13.5833 12.2117 13.8346 12.1635 14.0771C12.1152 14.3196 11.9962 14.5423 11.8214 14.7171C11.6466 14.892 11.4238 15.011 11.1814 15.0592C10.9389 15.1075 10.6876 15.0827 10.4591 14.9881C10.2307 14.8935 10.0355 14.7333 9.89816 14.5277C9.76081 14.3222 9.6875 14.0805 9.6875 13.8333C9.6875 13.5017 9.8192 13.1838 10.0536 12.9494C10.288 12.7149 10.606 12.5833 10.9375 12.5833ZM6.77083 12.5833C7.01806 12.5833 7.25973 12.6566 7.4653 12.7939C7.67086 12.9313 7.83107 13.1265 7.92568 13.3549C8.02029 13.5833 8.04505 13.8346 7.99681 14.0771C7.94858 14.3196 7.82953 14.5423 7.65472 14.7171C7.4799 14.892 7.25717 15.011 7.0147 15.0592C6.77222 15.1075 6.52089 15.0827 6.29248 14.9881C6.06407 14.8935 5.86885 14.7333 5.7315 14.5277C5.59414 14.3222 5.52083 14.0805 5.52083 13.8333C5.52083 13.5017 5.65253 13.1838 5.88695 12.9494C6.12137 12.7149 6.43931 12.5833 6.77083 12.5833Z" fill="#0094FF"></path><path d="M16.7708 2.16667H15.9375V1.33333C15.9375 1.11232 15.8497 0.900358 15.6934 0.744078C15.5371 0.587797 15.3252 0.5 15.1042 0.5C14.8832 0.5 14.6712 0.587797 14.5149 0.744078C14.3586 0.900358 14.2708 1.11232 14.2708 1.33333V2.16667H7.60417V1.33333C7.60417 1.11232 7.51637 0.900358 7.36009 0.744078C7.20381 0.587797 6.99185 0.5 6.77083 0.5C6.54982 0.5 6.33786 0.587797 6.18158 0.744078C6.0253 0.900358 5.9375 1.11232 5.9375 1.33333V2.16667H5.10417C3.9995 2.16799 2.94046 2.6074 2.15935 3.38852C1.37823 4.16963 0.938823 5.22867 0.9375 6.33333L0.9375 7.16667H20.9375V6.33333C20.9362 5.22867 20.4968 4.16963 19.7157 3.38852C18.9345 2.6074 17.8755 2.16799 16.7708 2.16667Z" fill="#0094FF"></path></g><defs><clipPath id="clip0_6081_10067"><rect width="20" height="20" fill="white" transform="translate(0.9375 0.5)"></rect></clipPath></defs></svg>