<svg width="25" height="24" viewBox="0 0 25 24" fill="none" xmlns="http://www.w3.org/2000/svg">
<path d="M11.0883 16.6L18.1383 9.55L16.7383 8.15L11.0883 13.8L8.23828 10.95L6.83828 12.35L11.0883 16.6ZM12.4883 22C11.1049 22 9.80495 21.7375 8.58828 21.2125C7.37161 20.6875 6.31328 19.975 5.41328 19.075C4.51328 18.175 3.80078 17.1167 3.27578 15.9C2.75078 14.6833 2.48828 13.3833 2.48828 12C2.48828 10.6167 2.75078 9.31667 3.27578 8.1C3.80078 6.88333 4.51328 5.825 5.41328 4.925C6.31328 4.025 7.37161 3.3125 8.58828 2.7875C9.80495 2.2625 11.1049 2 12.4883 2C13.8716 2 15.1716 2.2625 16.3883 2.7875C17.6049 3.3125 18.6633 4.025 19.5633 4.925C20.4633 5.825 21.1758 6.88333 21.7008 8.1C22.2258 9.31667 22.4883 10.6167 22.4883 12C22.4883 13.3833 22.2258 14.6833 21.7008 15.9C21.1758 17.1167 20.4633 18.175 19.5633 19.075C18.6633 19.975 17.6049 20.6875 16.3883 21.2125C15.1716 21.7375 13.8716 22 12.4883 22ZM12.4883 20C14.7216 20 16.6133 19.225 18.1633 17.675C19.7133 16.125 20.4883 14.2333 20.4883 12C20.4883 9.76667 19.7133 7.875 18.1633 6.325C16.6133 4.775 14.7216 4 12.4883 4C10.2549 4 8.36328 4.775 6.81328 6.325C5.26328 7.875 4.48828 9.76667 4.48828 12C4.48828 14.2333 5.26328 16.125 6.81328 17.675C8.36328 19.225 10.2549 20 12.4883 20Z" fill="white"/>
</svg>
