<svg xmlns="http://www.w3.org/2000/svg" width="20" height="21" viewBox="0 0 20 21" fill="none"><path d="M6.35786 18.7949H3.24804V8.78028H6.35786V18.7949ZM4.80107 7.41421C3.80679 7.41421 3 6.59028 3 5.59599C3 5.11832 3.18976 4.66021 3.52752 4.32244C3.86529 3.98468 4.3234 3.79492 4.80107 3.79492C5.27875 3.79492 5.73685 3.98468 6.07462 4.32244C6.41239 4.66021 6.60214 5.11832 6.60214 5.59599C6.60214 6.59028 5.79536 7.41421 4.80107 7.41421ZM17.9968 18.7949H14.8939V13.9199C14.8939 12.758 14.8704 11.2681 13.2771 11.2681C11.6604 11.2681 11.4123 12.5303 11.4123 13.8363V18.7949H8.30571V8.78028H11.288V10.1464H11.3314C11.7466 9.35939 12.7607 8.52903 14.2736 8.52903C17.4209 8.52903 17.9995 10.6017 17.9995 13.2937V18.7949H17.9968Z" fill="#0094FF"></path></svg>