<svg xmlns="http://www.w3.org/2000/svg" width="20" height="20" viewBox="0 0 20 20" fill="none"><path d="M6.35786 18H3.24804V7.98536H6.35786V18ZM4.80107 6.61929C3.80679 6.61929 3 5.79536 3 4.80107C3 4.3234 3.18976 3.86529 3.52752 3.52752C3.86529 3.18976 4.3234 3 4.80107 3C5.27875 3 5.73685 3.18976 6.07462 3.52752C6.41239 3.86529 6.60214 4.3234 6.60214 4.80107C6.60214 5.79536 5.79536 6.61929 4.80107 6.61929ZM17.9968 18H14.8939V13.125C14.8939 11.963 14.8704 10.4732 13.2771 10.4732C11.6604 10.4732 11.4123 11.7354 11.4123 13.0414V18H8.30571V7.98536H11.288V9.35143H11.3314C11.7466 8.56446 12.7607 7.73411 14.2736 7.73411C17.4209 7.73411 17.9995 9.80679 17.9995 12.4987V18H17.9968Z" fill="white"></path></svg>