<svg width="16" height="17" viewBox="0 0 16 17" fill="none" xmlns="http://www.w3.org/2000/svg">
<g clip-path="url(#clip0_4856_876)">
<path d="M8.50146 1.44255C7.47285 1.37058 6.44078 1.52039 5.47509 1.88185C4.5094 2.24332 3.63261 2.808 2.90407 3.53768C2.17552 4.26737 1.61221 5.14503 1.25225 6.11129C0.892297 7.07754 0.744093 8.10984 0.817669 9.13834C1.08226 12.9499 4.44928 15.825 8.64966 15.825H12.1997C12.995 15.824 13.7575 15.5077 14.3198 14.9453C14.8822 14.3829 15.1986 13.6205 15.1995 12.8251V8.82936C15.2219 6.97992 14.5438 5.19049 13.3014 3.82032C12.059 2.45016 10.3443 1.60072 8.50146 1.44255ZM7.99989 4.42559C8.23857 4.42559 8.46748 4.52041 8.63625 4.68918C8.80503 4.85795 8.89984 5.08686 8.89984 5.32554C8.89984 5.56422 8.80503 5.79313 8.63625 5.96191C8.46748 6.13068 8.23857 6.22549 7.99989 6.22549C7.76121 6.22549 7.5323 6.13068 7.36353 5.96191C7.19475 5.79313 7.09994 5.56422 7.09994 5.32554C7.09994 5.08686 7.19475 4.85795 7.36353 4.68918C7.5323 4.52041 7.76121 4.42559 7.99989 4.42559ZM9.19983 12.2252C9.19983 12.3843 9.13661 12.5369 9.0241 12.6494C8.91158 12.7619 8.75898 12.8251 8.59986 12.8251C8.44074 12.8251 8.28813 12.7619 8.17562 12.6494C8.0631 12.5369 7.99989 12.3843 7.99989 12.2252V8.62537H7.39992C7.2408 8.62537 7.0882 8.56216 6.97568 8.44964C6.86316 8.33713 6.79995 8.18452 6.79995 8.0254C6.79995 7.86628 6.86316 7.71367 6.97568 7.60116C7.0882 7.48864 7.2408 7.42543 7.39992 7.42543H7.99989C8.31813 7.42543 8.62334 7.55185 8.84837 7.77688C9.0734 8.00192 9.19983 8.30713 9.19983 8.62537V12.2252Z" fill="#0094FF"/>
</g>
<defs>
<clipPath id="clip0_4856_876">
<rect width="16" height="16" fill="white" transform="translate(0 0.625)"/>
</clipPath>
</defs>
</svg>
