<svg xmlns="http://www.w3.org/2000/svg" width="20" height="21" viewBox="0 0 20 21" fill="none"><g clip-path="url(#clip0_1_44037)"><path d="M15.8333 4.12891C16.2754 4.12891 16.6993 4.3045 17.0118 4.61706C17.3244 4.92962 17.5 5.35355 17.5 5.79557V15.7956C17.5 16.2376 17.3244 16.6615 17.0118 16.9741C16.6993 17.2866 16.2754 17.4622 15.8333 17.4622H4.16667C3.72464 17.4622 3.30072 17.2866 2.98816 16.9741C2.67559 16.6615 2.5 16.2376 2.5 15.7956V5.79557C2.5 5.35355 2.67559 4.92962 2.98816 4.61706C3.30072 4.3045 3.72464 4.12891 4.16667 4.12891H15.8333ZM15.8333 10.7956H4.16667V15.7956H15.8333V10.7956ZM15.8333 5.79557H4.16667V9.12891H15.8333V5.79557ZM5.83333 6.62891C6.05435 6.62891 6.26631 6.7167 6.42259 6.87298C6.57887 7.02926 6.66667 7.24123 6.66667 7.46224C6.66667 7.68325 6.57887 7.89521 6.42259 8.0515C6.26631 8.20778 6.05435 8.29557 5.83333 8.29557C5.61232 8.29557 5.40036 8.20778 5.24408 8.0515C5.0878 7.89521 5 7.68325 5 7.46224C5 7.24123 5.0878 7.02926 5.24408 6.87298C5.40036 6.7167 5.61232 6.62891 5.83333 6.62891ZM8.33333 6.62891C8.55435 6.62891 8.76631 6.7167 8.92259 6.87298C9.07887 7.02926 9.16667 7.24123 9.16667 7.46224C9.16667 7.68325 9.07887 7.89521 8.92259 8.0515C8.76631 8.20778 8.55435 8.29557 8.33333 8.29557C8.11232 8.29557 7.90036 8.20778 7.74408 8.0515C7.5878 7.89521 7.5 7.68325 7.5 7.46224C7.5 7.24123 7.5878 7.02926 7.74408 6.87298C7.90036 6.7167 8.11232 6.62891 8.33333 6.62891ZM10.8333 6.62891C11.0543 6.62891 11.2663 6.7167 11.4226 6.87298C11.5789 7.02926 11.6667 7.24123 11.6667 7.46224C11.6667 7.68325 11.5789 7.89521 11.4226 8.0515C11.2663 8.20778 11.0543 8.29557 10.8333 8.29557C10.6123 8.29557 10.4004 8.20778 10.2441 8.0515C10.0878 7.89521 10 7.68325 10 7.46224C10 7.24123 10.0878 7.02926 10.2441 6.87298C10.4004 6.7167 10.6123 6.62891 10.8333 6.62891Z" fill="#0094FF"></path></g><defs><clipPath id="clip0_1_44037"><rect width="20" height="20" fill="white" transform="translate(0 0.794922)"></rect></clipPath></defs></svg>