<svg xmlns="http://www.w3.org/2000/svg" width="20" height="20" viewBox="0 0 20 20" fill="none"><g clip-path="url(#clip0_1_43724)"><path d="M15.8333 3.33398C16.2754 3.33398 16.6993 3.50958 17.0118 3.82214C17.3244 4.1347 17.5 4.55862 17.5 5.00065V15.0007C17.5 15.4427 17.3244 15.8666 17.0118 16.1792C16.6993 16.4917 16.2754 16.6673 15.8333 16.6673H4.16667C3.72464 16.6673 3.30072 16.4917 2.98816 16.1792C2.67559 15.8666 2.5 15.4427 2.5 15.0007V5.00065C2.5 4.55862 2.67559 4.1347 2.98816 3.82214C3.30072 3.50958 3.72464 3.33398 4.16667 3.33398H15.8333ZM15.8333 10.0007H4.16667V15.0007H15.8333V10.0007ZM15.8333 5.00065H4.16667V8.33398H15.8333V5.00065ZM5.83333 5.83398C6.05435 5.83398 6.26631 5.92178 6.42259 6.07806C6.57887 6.23434 6.66667 6.4463 6.66667 6.66732C6.66667 6.88833 6.57887 7.10029 6.42259 7.25657C6.26631 7.41285 6.05435 7.50065 5.83333 7.50065C5.61232 7.50065 5.40036 7.41285 5.24408 7.25657C5.0878 7.10029 5 6.88833 5 6.66732C5 6.4463 5.0878 6.23434 5.24408 6.07806C5.40036 5.92178 5.61232 5.83398 5.83333 5.83398ZM8.33333 5.83398C8.55435 5.83398 8.76631 5.92178 8.92259 6.07806C9.07887 6.23434 9.16667 6.4463 9.16667 6.66732C9.16667 6.88833 9.07887 7.10029 8.92259 7.25657C8.76631 7.41285 8.55435 7.50065 8.33333 7.50065C8.11232 7.50065 7.90036 7.41285 7.74408 7.25657C7.5878 7.10029 7.5 6.88833 7.5 6.66732C7.5 6.4463 7.5878 6.23434 7.74408 6.07806C7.90036 5.92178 8.11232 5.83398 8.33333 5.83398ZM10.8333 5.83398C11.0543 5.83398 11.2663 5.92178 11.4226 6.07806C11.5789 6.23434 11.6667 6.4463 11.6667 6.66732C11.6667 6.88833 11.5789 7.10029 11.4226 7.25657C11.2663 7.41285 11.0543 7.50065 10.8333 7.50065C10.6123 7.50065 10.4004 7.41285 10.2441 7.25657C10.0878 7.10029 10 6.88833 10 6.66732C10 6.4463 10.0878 6.23434 10.2441 6.07806C10.4004 5.92178 10.6123 5.83398 10.8333 5.83398Z" fill="white"></path></g><defs><clipPath id="clip0_1_43724"><rect width="20" height="20" fill="white"></rect></clipPath></defs></svg>