<svg xmlns="http://www.w3.org/2000/svg" width="44" height="44" viewBox="0 0 44 44" fill="none"><rect x="1.1875" y="1.26489" width="41.5" height="41.5" rx="20.75" stroke="#C9E2FF" stroke-width="1.5"></rect><rect x="6.9375" y="7.01489" width="30" height="30" rx="15" fill="#0094FF"></rect><path d="M18.1356 28.0149V26.5109L22.8076 21.7749C23.0316 21.5402 23.2076 21.3216 23.3356 21.1189C23.4742 20.9162 23.5702 20.7189 23.6236 20.5269C23.6876 20.3242 23.7196 20.1216 23.7196 19.9189C23.7196 19.5029 23.5436 19.1562 23.1916 18.8789C22.8502 18.6016 22.4129 18.4629 21.8796 18.4629C21.3676 18.4629 20.8929 18.5696 20.4556 18.7829C20.0182 18.9856 19.5382 19.3376 19.0156 19.8389L17.8316 18.3989C18.4609 17.8122 19.1169 17.3749 19.7996 17.0869C20.4822 16.7882 21.1969 16.6389 21.9436 16.6389C22.7009 16.6389 23.3676 16.7722 23.9436 17.0389C24.5196 17.3056 24.9676 17.6736 25.2876 18.1429C25.6076 18.6122 25.7676 19.1616 25.7676 19.7909C25.7676 20.1536 25.7142 20.4949 25.6076 20.8149C25.5116 21.1349 25.3516 21.4602 25.1276 21.7909C24.9036 22.1109 24.6049 22.4576 24.2316 22.8309L20.8396 26.2389L25.9436 26.2229V28.0149H18.1356Z" fill="white"></path></svg>