<svg xmlns="http://www.w3.org/2000/svg" width="44" height="44" viewBox="0 0 44 44" fill="none"><rect x="1.1875" y="1.26489" width="41.5" height="41.5" rx="20.75" stroke="#C9E2FF" stroke-width="1.5"></rect><rect x="6.9375" y="7.01489" width="30" height="30" rx="15" fill="#0094FF"></rect><path d="M21.7918 28.1909C20.9278 28.1909 20.1225 28.0416 19.3758 27.7429C18.6398 27.4336 18.0211 27.0016 17.5198 26.4469L18.9278 25.1349C19.3545 25.5936 19.7758 25.9136 20.1918 26.0949C20.6185 26.2656 21.1411 26.3509 21.7598 26.3509C22.2078 26.3509 22.5971 26.2869 22.9278 26.1589C23.2691 26.0202 23.5305 25.8282 23.7118 25.5829C23.9038 25.3376 23.9998 25.0549 23.9998 24.7349C23.9998 24.4362 23.9251 24.1802 23.7758 23.9669C23.6265 23.7536 23.4238 23.5882 23.1678 23.4709C22.9118 23.3429 22.6078 23.2789 22.2558 23.2789H20.8478V21.5509H22.0638C22.5651 21.5509 22.9598 21.4229 23.2478 21.1669C23.5358 20.9002 23.6798 20.5376 23.6798 20.0789C23.6798 19.7802 23.5945 19.5136 23.4238 19.2789C23.2531 19.0336 23.0185 18.8416 22.7198 18.7029C22.4318 18.5642 22.1011 18.4949 21.7278 18.4949C21.1731 18.4949 20.6931 18.5909 20.2878 18.7829C19.8931 18.9749 19.4771 19.3162 19.0398 19.8069L17.6158 18.4949C18.1385 17.9082 18.7625 17.4549 19.4878 17.1349C20.2238 16.8042 20.9971 16.6389 21.8078 16.6389C22.5865 16.6389 23.2745 16.7776 23.8718 17.0549C24.4691 17.3216 24.9385 17.6949 25.2798 18.1749C25.6211 18.6549 25.7918 19.2042 25.7918 19.8229C25.7918 20.4202 25.5945 20.9536 25.1998 21.4229C24.8051 21.8816 24.2931 22.2016 23.6638 22.3829C24.4105 22.5322 25.0025 22.8309 25.4398 23.2789C25.8878 23.7269 26.1118 24.2656 26.1118 24.8949C26.1118 25.5242 25.9251 26.0896 25.5518 26.5909C25.1785 27.0922 24.6665 27.4869 24.0158 27.7749C23.3758 28.0522 22.6345 28.1909 21.7918 28.1909Z" fill="white"></path></svg>