<svg xmlns="http://www.w3.org/2000/svg" width="171" height="57" viewBox="0 0 171 57" fill="none"><path d="M28.1239 37.8916C27.7382 37.8152 26.0939 37.4894 23.2773 38.1105C23.2469 38.3854 23.2266 38.6603 23.2266 38.9403C23.2316 39.2611 23.2621 39.5767 23.3078 39.8821C25.4697 37.7338 28.063 37.8865 28.1239 37.8916Z" fill="#B3B3B3"></path><path d="M22.0796 47.1774C21.7041 46.3629 21.4858 45.4567 21.4757 44.4996C21.4554 42.7076 22.1608 41.0785 23.3077 39.8821C23.2621 39.5716 23.2316 39.261 23.2265 38.9403C23.2265 38.6552 23.2468 38.3803 23.2773 38.1105C23.9776 37.9578 22.6784 38.1818 21.0037 38.757C8.08806 43.2014 11.3715 54.3912 11.7674 55.2719C12.6555 55.7047 13.5233 55.8829 14.386 55.9236C14.3251 55.6334 14.2744 55.3279 14.2439 54.997C14.178 54.4574 14.1729 53.8719 14.2033 53.2967C14.2439 53.0116 14.2541 52.7214 14.3201 52.4414C14.386 52.1614 14.4266 51.8865 14.5281 51.637C14.6144 51.3825 14.6905 51.133 14.8123 50.9192C14.929 50.7003 15.0102 50.4865 15.1422 50.3185C15.2589 50.1454 15.3706 49.9825 15.467 49.845C15.5837 49.7178 15.6852 49.6109 15.7664 49.5192C15.9339 49.341 16.0252 49.2392 16.0252 49.2392C16.0252 49.2392 15.944 49.3512 15.8019 49.5498C15.7309 49.6465 15.6497 49.7687 15.5482 49.9061C15.4721 50.0589 15.3858 50.2269 15.2944 50.4101C15.1879 50.5883 15.132 50.8072 15.0559 51.0261C14.9696 51.245 14.924 51.4894 14.8732 51.7389C14.8123 51.9832 14.8072 52.2479 14.7768 52.5127C14.7514 52.7723 14.7768 53.0472 14.7717 53.3119C14.8123 53.8465 14.8884 54.381 15.0153 54.8698C15.1016 55.2567 15.2183 55.6029 15.335 55.9236C16.7306 55.837 18.111 55.4705 19.4965 55.2465C19.4711 55.2007 19.4457 55.165 19.4254 55.1141C19.1362 54.5796 18.8976 53.9738 18.6946 53.3629C18.6185 53.0472 18.5119 52.7418 18.4663 52.4261C18.4206 52.1105 18.3546 51.805 18.3597 51.5047C18.3445 51.2043 18.3242 50.9141 18.3648 50.6392C18.3952 50.3643 18.3952 50.1047 18.4663 49.8756C18.5221 49.6465 18.5728 49.4327 18.6134 49.2443C18.6845 49.0661 18.7454 48.9083 18.7961 48.781C18.8976 48.5265 18.9535 48.3789 18.9535 48.3789C18.9535 48.3789 18.9129 48.5316 18.8469 48.7963C18.8114 48.9287 18.7708 49.0865 18.72 49.2698C18.6997 49.4581 18.6743 49.6669 18.649 49.901C18.6084 50.1301 18.6337 50.3847 18.6388 50.6443C18.6337 50.909 18.6794 51.1839 18.7251 51.4639C18.7555 51.749 18.852 52.029 18.9281 52.3192C19.0042 52.6094 19.1362 52.8843 19.2377 53.1694C19.4914 53.7192 19.7807 54.2487 20.1055 54.717C20.2019 54.8698 20.3085 55.0021 20.41 55.1396C21.8766 54.997 23.3636 55.1192 24.8962 56.0305C22.3993 52.7163 21.765 49.733 22.0796 47.1774Z" fill="white"></path><path d="M28.1948 37.9019C28.2108 37.9072 28.2161 37.9072 28.2161 37.9019C28.2214 37.9072 28.2108 37.9072 28.1948 37.9019Z" fill="white"></path><path d="M28.1238 37.8916C28.1542 37.8967 28.1796 37.9018 28.1898 37.9069L28.1238 37.8916Z" fill="white"></path><path d="M27.124 20.216C27.2407 19.9411 27.3727 19.6713 27.5351 19.4116C27.6315 19.1469 27.7381 18.8924 27.8447 18.648C27.0073 17.024 25.9568 15.5273 24.7185 14.1935C24.7236 14.1884 24.7287 14.1884 24.7337 14.1833C24.6424 14.0865 24.546 13.9949 24.4546 13.8931C24.3785 13.8116 24.3024 13.7302 24.2212 13.6487C20.8768 10.2582 16.9894 7.79927 14.8021 0.804364C14.6194 0.117091 14.1982 0 14.1982 0C13.8227 0.178182 13.0716 0.458182 13.0716 0.458182C12.1378 1.064 11.2852 1.792 10.5189 2.59636C9.58511 3.53818 8.80357 4.62764 8.19458 5.83418C11.8434 9.67273 15.6547 10.9404 19.2833 12.9411C19.3898 12.9971 19.4964 13.0582 19.5979 13.1193C19.7248 13.1905 19.8517 13.2567 19.9785 13.3331C19.9735 13.3382 19.9735 13.3433 19.9633 13.3484C23.0641 15.1811 25.698 17.7775 27.5655 20.9389C27.4234 20.6945 27.2763 20.4553 27.124 20.216Z" fill="#B3B3B3"></path><path d="M30.0625 27.2669C30.0625 27.2618 30.0625 27.2567 30.0625 27.2516C29.5601 24.9862 28.7176 22.8836 27.5961 20.9796C28.7176 22.8887 29.5651 24.9963 30.0625 27.2669Z" fill="white"></path><path d="M38.8319 14.896C32.336 11.9789 28.7328 17.0749 28.7328 17.0749L28.7683 17.1003C28.271 17.7469 27.8548 18.5156 27.5402 19.4116C27.3778 19.6712 27.2407 19.9411 27.124 20.216C28.6008 22.4967 29.6716 25.0982 30.2096 27.9389C30.8033 31.08 30.6765 34.1905 29.966 37.1076C29.966 37.1076 37.7712 35.2545 36.5329 24.5432C36.7511 21.5803 38.4969 18.9534 39.0196 18.3578C40.3137 18.0523 41.9885 16.3316 41.9885 16.3316C41.9885 16.3316 41.1815 15.0996 38.8319 14.896Z" fill="white"></path><path d="M19.9684 13.3484C19.9735 13.3433 19.9735 13.3382 19.9786 13.3331C19.8517 13.2619 19.7248 13.1906 19.598 13.1193C19.4914 13.0582 19.3899 12.9971 19.2782 12.9411C14.7616 10.4568 9.97085 9.10768 5.5506 2.52005C5.14968 1.86332 4.67771 1.86841 4.67771 1.86841C4.33769 2.17386 3.65258 2.69823 3.65258 2.69823C2.87104 3.61459 2.20623 4.63277 1.65814 5.70695C1.24707 6.47059 0.932423 7.28514 0.668528 8.11495C0.8563 8.50186 1.09482 8.94986 1.37394 9.46405C1.60231 9.83059 1.82561 10.248 2.1098 10.6553C2.38385 11.0728 2.67819 11.5106 3.01314 11.9382C3.32778 12.3862 3.70333 12.7986 4.0738 13.2364C4.44934 13.6691 4.87563 14.0611 5.2867 14.4735C5.73837 14.8299 6.15959 15.2473 6.63663 15.563C7.11367 15.8735 7.56534 16.2299 8.06268 16.459C8.54987 16.7135 9.01169 16.9731 9.4938 17.1208C9.97085 17.2837 10.4124 17.4924 10.8488 17.5535C11.2852 17.6451 11.6811 17.7368 12.0363 17.808C12.3967 17.8335 12.7164 17.8539 12.9752 17.8691C13.4979 17.8997 13.7973 17.92 13.7973 17.92C13.7973 17.92 13.4979 17.9353 12.9752 17.9659C12.7113 17.9811 12.3865 17.9964 12.0211 18.0117C11.6506 17.976 11.2396 17.9353 10.7879 17.8946C10.3261 17.8793 9.85412 17.7215 9.34156 17.6095C8.81884 17.5128 8.30628 17.299 7.76833 17.0953C7.21517 16.912 6.7026 16.6015 6.15959 16.3266C5.6115 16.0517 5.1243 15.6699 4.59651 15.339C4.10932 14.9571 3.6069 14.5855 3.15524 14.1782C2.70864 13.7659 2.2519 13.3637 1.86621 12.931C1.45514 12.5186 1.08467 12.091 0.744651 11.6786C0.501056 11.4037 0.292984 11.1288 0.0899874 10.859C0.0138636 11.6022 -0.0216608 12.3557 0.0189386 13.1193C0.0443131 13.9033 0.105212 14.6873 0.25746 15.4815C0.399557 16.235 0.602554 16.9579 0.84615 17.6604C0.922274 17.7266 0.998397 17.7928 1.0796 17.864C1.38409 18.0982 1.69366 18.3782 2.05905 18.6277C2.4143 18.8924 2.79492 19.1622 3.20091 19.4117C3.60183 19.6866 4.04335 19.9106 4.48486 20.16C4.93146 20.3993 5.40342 20.5928 5.87539 20.8066C6.35751 20.9644 6.83455 21.1782 7.33189 21.2902C7.82416 21.4022 8.30628 21.555 8.79347 21.5906C9.27051 21.6517 9.74248 21.723 10.1891 21.6975C10.6357 21.6873 11.067 21.7179 11.4527 21.6364C11.8435 21.5804 12.1987 21.5244 12.5185 21.4786C12.828 21.387 13.097 21.3055 13.3203 21.2393C13.7669 21.1019 14.0206 21.0255 14.0206 21.0255C14.0206 21.0255 13.777 21.1375 13.3507 21.331C13.1325 21.4277 12.8737 21.5448 12.5743 21.6822C12.2546 21.7739 11.8993 21.8757 11.5085 21.9826C11.1178 22.12 10.6763 22.1455 10.2094 22.2219C9.74248 22.3084 9.25021 22.2982 8.73257 22.3033C8.20985 22.3339 7.68714 22.2422 7.14412 22.1913C6.6011 22.1404 6.07331 21.9826 5.52522 21.8808C4.99743 21.723 4.45949 21.5753 3.94692 21.3819C3.43943 21.1833 2.93194 21 2.46505 20.7659C2.38892 20.7353 2.32802 20.6946 2.25698 20.659C2.99284 21.8553 3.87587 22.9397 4.89086 23.8764C5.68762 24.5586 6.93097 25.4902 8.61584 26.4066C8.74779 26.4728 8.87467 26.5491 9.00661 26.6102C9.00661 26.6102 9.00661 26.6153 9.01169 26.6153C11.8739 28.112 15.9136 29.5019 21.1204 29.5935C25.5305 29.9702 28.7024 33.1571 29.966 37.1128C30.6816 34.1957 30.8085 31.0851 30.2147 27.944C29.0069 21.5651 25.1245 16.403 19.9684 13.3484Z" fill="white"></path><path d="M28.1948 37.9018C28.1796 37.8967 28.1542 37.8967 28.1238 37.8866C28.0629 37.8866 28.002 37.8815 27.9411 37.8815C26.1242 37.9018 24.485 38.6655 23.3127 39.8822C23.4396 40.6815 23.6984 41.4298 24.0791 42.1018C24.1247 42.0306 24.1755 41.9695 24.2212 41.9033C24.2821 41.8167 24.343 41.7302 24.4039 41.6437C24.5358 41.4655 24.6677 41.2924 24.7997 41.1295C24.8758 41.0327 24.9469 40.9462 25.0281 40.8546C25.1042 40.7629 25.1854 40.6713 25.2615 40.5796C25.363 40.4676 25.4594 40.3556 25.5559 40.2487C25.6574 40.1367 25.7589 40.0298 25.8604 39.928C25.9466 39.8415 26.0329 39.7549 26.1141 39.6735C26.175 39.6124 26.2359 39.5564 26.2968 39.5004C26.4338 39.368 26.5708 39.2458 26.6977 39.1236C26.7485 39.0778 26.8043 39.0269 26.85 38.9862C26.9261 38.9149 27.0022 38.8538 27.0733 38.7927C27.124 38.752 27.1697 38.7113 27.2154 38.6706C27.3219 38.584 27.4184 38.5026 27.5097 38.4313C27.5604 38.3906 27.6061 38.3549 27.6518 38.3193C27.7025 38.2836 27.7431 38.248 27.7888 38.2124C27.8396 38.1767 27.8802 38.1462 27.9208 38.1157C27.9614 38.0851 28.002 38.0546 28.0375 38.0342C28.0781 38.0036 28.1085 37.9833 28.139 37.9629C28.1644 37.9476 28.1694 37.9375 28.1847 37.9324C28.205 37.9171 28.2202 37.9069 28.2202 37.9069C28.2202 37.9069 28.21 37.9069 28.1948 37.9018Z" fill="#B3B3B3"></path><path d="M24.0842 42.1018C23.6173 41.3229 23.5107 40.6815 23.3178 39.8822C20.6941 42.6058 21.4655 45.7826 22.0897 47.1775C22.6023 45.2531 23.0235 43.5324 24.0842 42.1018Z" fill="#B3B3B3"></path><path d="M65.9885 8.01526V48.0153" stroke="white" stroke-linecap="round"></path><path d="M90.9965 24.0153V12.8153H96.6125C97.3485 12.8153 97.9939 12.9646 98.5485 13.2633C99.1139 13.5619 99.5565 13.9779 99.8765 14.5113C100.197 15.0339 100.357 15.6419 100.357 16.3353C100.357 16.9966 100.197 17.5886 99.8765 18.1113C99.5565 18.6339 99.1139 19.0446 98.5485 19.3433C97.9832 19.6419 97.3379 19.7913 96.6125 19.7913H93.3165V24.0153H90.9965ZM93.3165 17.8713H96.3565C96.8579 17.8713 97.2579 17.7326 97.5565 17.4553C97.8659 17.1779 98.0205 16.8099 98.0205 16.3513C98.0205 15.8819 97.8659 15.5086 97.5565 15.2313C97.2579 14.9539 96.8579 14.8153 96.3565 14.8153H93.3165V17.8713ZM102.048 24.0153V15.6793H104.24V16.6073C104.506 16.2446 104.826 15.9673 105.2 15.7753C105.573 15.5833 105.994 15.4873 106.464 15.4873C106.869 15.4979 107.173 15.5619 107.376 15.6793V17.5993C107.216 17.5246 107.04 17.4713 106.848 17.4393C106.656 17.3966 106.458 17.3753 106.256 17.3753C105.829 17.3753 105.44 17.4819 105.088 17.6953C104.736 17.9086 104.453 18.2126 104.24 18.6073V24.0153H102.048ZM112.635 24.1753C111.803 24.1753 111.051 23.9833 110.379 23.5993C109.707 23.2153 109.173 22.6979 108.779 22.0473C108.384 21.3966 108.187 20.6659 108.187 19.8553C108.187 19.0446 108.379 18.3139 108.763 17.6633C109.157 17.0019 109.691 16.4793 110.363 16.0953C111.045 15.7113 111.803 15.5193 112.635 15.5193C113.467 15.5193 114.219 15.7113 114.891 16.0953C115.573 16.4793 116.107 17.0019 116.491 17.6633C116.885 18.3139 117.083 19.0446 117.083 19.8553C117.083 20.6659 116.885 21.3966 116.491 22.0473C116.107 22.6979 115.579 23.2153 114.907 23.5993C114.235 23.9833 113.477 24.1753 112.635 24.1753ZM112.635 22.2713C113.072 22.2713 113.461 22.1646 113.803 21.9513C114.155 21.7379 114.432 21.4499 114.635 21.0873C114.848 20.7139 114.955 20.3033 114.955 19.8553C114.955 19.3966 114.848 18.9859 114.635 18.6233C114.432 18.2606 114.155 17.9726 113.803 17.7593C113.461 17.5353 113.072 17.4233 112.635 17.4233C112.208 17.4233 111.819 17.5353 111.467 17.7593C111.115 17.9726 110.837 18.2606 110.635 18.6233C110.432 18.9859 110.331 19.3966 110.331 19.8553C110.331 20.3033 110.432 20.7139 110.635 21.0873C110.837 21.4499 111.115 21.7379 111.467 21.9513C111.819 22.1646 112.208 22.2713 112.635 22.2713ZM119.332 27.4553C119.14 27.4553 118.953 27.4446 118.772 27.4233C118.601 27.4126 118.457 27.3966 118.34 27.3753V25.4873C118.553 25.5299 118.809 25.5513 119.108 25.5513C119.908 25.5513 120.462 25.1726 120.772 24.4153L120.9 24.0953L117.652 15.6793H120.068L122.148 21.3593L124.5 15.6793H126.868L123.028 24.6873C122.74 25.3593 122.425 25.8979 122.084 26.3033C121.742 26.7086 121.348 27.0019 120.9 27.1833C120.462 27.3646 119.94 27.4553 119.332 27.4553ZM131.916 24.1753C131.084 24.1753 130.326 23.9833 129.644 23.5993C128.972 23.2153 128.438 22.6979 128.044 22.0473C127.649 21.3966 127.452 20.6659 127.452 19.8553C127.452 19.0446 127.638 18.3139 128.012 17.6633C128.396 17.0126 128.913 16.4953 129.564 16.1113C130.214 15.7273 130.94 15.5353 131.74 15.5353C132.54 15.5353 133.249 15.7326 133.868 16.1273C134.486 16.5219 134.972 17.0553 135.324 17.7273C135.686 18.3993 135.868 19.1619 135.868 20.0153V20.5913H129.692C129.788 20.9219 129.942 21.2206 130.156 21.4873C130.38 21.7539 130.652 21.9619 130.972 22.1113C131.302 22.2606 131.654 22.3353 132.028 22.3353C132.401 22.3353 132.742 22.2766 133.052 22.1593C133.372 22.0419 133.644 21.8766 133.868 21.6633L135.308 22.9753C134.796 23.3913 134.268 23.6953 133.724 23.8873C133.19 24.0793 132.588 24.1753 131.916 24.1753ZM129.66 19.0233H133.708C133.633 18.6926 133.494 18.4046 133.292 18.1593C133.1 17.9033 132.865 17.7059 132.588 17.5673C132.321 17.4179 132.022 17.3433 131.692 17.3433C131.35 17.3433 131.041 17.4126 130.764 17.5513C130.486 17.6899 130.252 17.8873 130.06 18.1433C129.878 18.3886 129.745 18.6819 129.66 19.0233ZM141.577 24.1753C140.756 24.1753 140.014 23.9886 139.353 23.6153C138.692 23.2313 138.169 22.7139 137.785 22.0633C137.401 21.4019 137.209 20.6659 137.209 19.8553C137.209 19.0339 137.401 18.2979 137.785 17.6473C138.169 16.9966 138.692 16.4793 139.353 16.0953C140.014 15.7113 140.756 15.5193 141.577 15.5193C142.238 15.5193 142.868 15.6473 143.465 15.9033C144.073 16.1593 144.596 16.5273 145.033 17.0073L143.689 18.4313C143.38 18.0899 143.054 17.8393 142.713 17.6793C142.382 17.5086 142.02 17.4233 141.625 17.4233C141.198 17.4233 140.814 17.5299 140.473 17.7433C140.142 17.9566 139.876 18.2446 139.673 18.6073C139.481 18.9699 139.385 19.3859 139.385 19.8553C139.385 20.3033 139.481 20.7139 139.673 21.0873C139.876 21.4499 140.153 21.7379 140.505 21.9513C140.857 22.1539 141.246 22.2553 141.673 22.2553C142.046 22.2553 142.393 22.1806 142.713 22.0313C143.044 21.8713 143.358 21.6366 143.657 21.3273L144.969 22.7033C144.542 23.1619 144.03 23.5246 143.433 23.7913C142.836 24.0473 142.217 24.1753 141.577 24.1753ZM150.537 24.1433C149.609 24.1433 148.905 23.9353 148.425 23.5193C147.956 23.0926 147.721 22.4739 147.721 21.6633V17.5033H146.009V15.6793H147.721V13.5513L149.913 13.0553V15.6793H152.297V17.5033H149.913V21.2153C149.913 21.5993 149.998 21.8766 150.169 22.0473C150.34 22.2073 150.638 22.2873 151.065 22.2873C151.278 22.2873 151.47 22.2766 151.641 22.2553C151.822 22.2233 152.02 22.1699 152.233 22.0953V23.9033C152.009 23.9779 151.726 24.0366 151.385 24.0793C151.054 24.1219 150.772 24.1433 150.537 24.1433ZM157.657 24.1753C156.825 24.1753 156.073 23.9833 155.401 23.5993C154.729 23.2153 154.195 22.6979 153.801 22.0473C153.406 21.3966 153.209 20.6659 153.209 19.8553C153.209 19.0446 153.401 18.3139 153.785 17.6633C154.179 17.0019 154.713 16.4793 155.385 16.0953C156.067 15.7113 156.825 15.5193 157.657 15.5193C158.489 15.5193 159.241 15.7113 159.913 16.0953C160.595 16.4793 161.129 17.0019 161.513 17.6633C161.907 18.3139 162.105 19.0446 162.105 19.8553C162.105 20.6659 161.907 21.3966 161.513 22.0473C161.129 22.6979 160.601 23.2153 159.929 23.5993C159.257 23.9833 158.499 24.1753 157.657 24.1753ZM157.657 22.2713C158.094 22.2713 158.483 22.1646 158.825 21.9513C159.177 21.7379 159.454 21.4499 159.657 21.0873C159.87 20.7139 159.977 20.3033 159.977 19.8553C159.977 19.3966 159.87 18.9859 159.657 18.6233C159.454 18.2606 159.177 17.9726 158.825 17.7593C158.483 17.5353 158.094 17.4233 157.657 17.4233C157.23 17.4233 156.841 17.5353 156.489 17.7593C156.137 17.9726 155.859 18.2606 155.657 18.6233C155.454 18.9859 155.353 19.3966 155.353 19.8553C155.353 20.3033 155.454 20.7139 155.657 21.0873C155.859 21.4499 156.137 21.7379 156.489 21.9513C156.841 22.1646 157.23 22.2713 157.657 22.2713ZM166.892 24.1753C166.124 24.1753 165.415 24.0793 164.764 23.8873C164.113 23.6846 163.548 23.3966 163.068 23.0233L164.156 21.5673C164.636 21.8873 165.095 22.1273 165.532 22.2873C165.98 22.4473 166.423 22.5273 166.86 22.5273C167.351 22.5273 167.74 22.4473 168.028 22.2873C168.327 22.1166 168.476 21.8979 168.476 21.6313C168.476 21.4179 168.391 21.2473 168.22 21.1193C168.06 20.9913 167.799 20.9006 167.436 20.8473L165.836 20.6073C165.004 20.4793 164.375 20.2126 163.948 19.8073C163.521 19.3913 163.308 18.8473 163.308 18.1753C163.308 17.6313 163.447 17.1673 163.724 16.7833C164.012 16.3886 164.412 16.0846 164.924 15.8713C165.447 15.6473 166.065 15.5353 166.78 15.5353C167.388 15.5353 167.98 15.6206 168.556 15.7913C169.143 15.9619 169.692 16.2233 170.204 16.5753L169.148 17.9993C168.689 17.7113 168.252 17.5033 167.836 17.3753C167.42 17.2473 166.999 17.1833 166.572 17.1833C166.177 17.1833 165.857 17.2579 165.612 17.4073C165.377 17.5566 165.26 17.7539 165.26 17.9993C165.26 18.2233 165.345 18.3993 165.516 18.5273C165.687 18.6553 165.98 18.7459 166.396 18.7993L167.98 19.0393C168.812 19.1566 169.447 19.4233 169.884 19.8393C170.321 20.2446 170.54 20.7726 170.54 21.4233C170.54 21.9566 170.38 22.4313 170.06 22.8473C169.74 23.2526 169.308 23.5779 168.764 23.8233C168.22 24.0579 167.596 24.1753 166.892 24.1753ZM90.9965 44.0153V32.8153H93.3165V41.9673H99.4445V44.0153H90.9965ZM101.219 44.0153V35.6793H103.411V44.0153H101.219ZM102.307 34.6873C101.966 34.6873 101.673 34.5646 101.427 34.3193C101.182 34.0739 101.059 33.7806 101.059 33.4393C101.059 33.0873 101.182 32.7939 101.427 32.5593C101.673 32.3139 101.966 32.1913 102.307 32.1913C102.659 32.1913 102.953 32.3139 103.187 32.5593C103.433 32.7939 103.555 33.0873 103.555 33.4393C103.555 33.7806 103.433 34.0739 103.187 34.3193C102.953 34.5646 102.659 34.6873 102.307 34.6873ZM105.446 44.0153V35.6793H107.638V36.3673C108.267 35.8019 109.046 35.5193 109.974 35.5193C110.624 35.5193 111.195 35.6633 111.686 35.9513C112.187 36.2286 112.576 36.6179 112.854 37.1193C113.131 37.6099 113.27 38.1859 113.27 38.8473V44.0153H111.078V39.1673C111.078 38.6233 110.923 38.1966 110.614 37.8873C110.304 37.5673 109.883 37.4073 109.35 37.4073C108.976 37.4073 108.646 37.4819 108.358 37.6313C108.07 37.7699 107.83 37.9726 107.638 38.2393V44.0153H105.446ZM115.25 44.0153V32.8153L117.442 32.4473V39.1833L121.042 35.6793H123.522L119.586 39.5033L123.762 44.0153H120.962L117.442 40.2073V44.0153H115.25ZM128.46 44.1433C127.532 44.1433 126.828 43.9353 126.348 43.5193C125.878 43.0926 125.644 42.4739 125.644 41.6633V37.5033H123.932V35.6793H125.644V33.5513L127.836 33.0553V35.6793H130.22V37.5033H127.836V41.2153C127.836 41.5993 127.921 41.8766 128.092 42.0473C128.262 42.2073 128.561 42.2873 128.988 42.2873C129.201 42.2873 129.393 42.2766 129.564 42.2553C129.745 42.2233 129.942 42.1699 130.156 42.0953V43.9033C129.932 43.9779 129.649 44.0366 129.308 44.0793C128.977 44.1219 128.694 44.1433 128.46 44.1433ZM131.609 44.0153V35.6793H133.801V44.0153H131.609ZM132.697 34.6873C132.355 34.6873 132.062 34.5646 131.817 34.3193C131.571 34.0739 131.449 33.7806 131.449 33.4393C131.449 33.0873 131.571 32.7939 131.817 32.5593C132.062 32.3139 132.355 32.1913 132.697 32.1913C133.049 32.1913 133.342 32.3139 133.577 32.5593C133.822 32.7939 133.945 33.0873 133.945 33.4393C133.945 33.7806 133.822 34.0739 133.577 34.3193C133.342 34.5646 133.049 34.6873 132.697 34.6873ZM139.819 44.1753C138.998 44.1753 138.256 43.9886 137.595 43.6153C136.934 43.2313 136.411 42.7139 136.027 42.0633C135.643 41.4019 135.451 40.6659 135.451 39.8553C135.451 39.0339 135.643 38.2979 136.027 37.6473C136.411 36.9966 136.934 36.4793 137.595 36.0953C138.256 35.7113 138.998 35.5193 139.819 35.5193C140.48 35.5193 141.11 35.6473 141.707 35.9033C142.315 36.1593 142.838 36.5273 143.275 37.0073L141.931 38.4313C141.622 38.0899 141.296 37.8393 140.955 37.6793C140.624 37.5086 140.262 37.4233 139.867 37.4233C139.44 37.4233 139.056 37.5299 138.715 37.7433C138.384 37.9566 138.118 38.2446 137.915 38.6073C137.723 38.9699 137.627 39.3859 137.627 39.8553C137.627 40.3033 137.723 40.7139 137.915 41.0873C138.118 41.4499 138.395 41.7379 138.747 41.9513C139.099 42.1539 139.488 42.2553 139.915 42.2553C140.288 42.2553 140.635 42.1806 140.955 42.0313C141.286 41.8713 141.6 41.6366 141.899 41.3273L143.211 42.7033C142.784 43.1619 142.272 43.5246 141.675 43.7913C141.078 44.0473 140.459 44.1753 139.819 44.1753Z" fill="white"></path></svg>