<svg xmlns="http://www.w3.org/2000/svg" width="21" height="21" viewBox="0 0 21 21" fill="none"><g clip-path="url(#clip0_6081_6860)"><path d="M10.9375 0.5C8.95969 0.5 7.02629 1.08649 5.3818 2.1853C3.73731 3.28412 2.45559 4.8459 1.69871 6.67317C0.941833 8.50043 0.743799 10.5111 1.12965 12.4509C1.5155 14.3907 2.46791 16.1725 3.86644 17.5711C5.26496 18.9696 7.04679 19.922 8.9866 20.3079C10.9264 20.6937 12.9371 20.4957 14.7643 19.7388C16.5916 18.9819 18.1534 17.7002 19.2522 16.0557C20.351 14.4112 20.9375 12.4778 20.9375 10.5C20.9346 7.84872 19.8801 5.30684 18.0054 3.4321C16.1307 1.55736 13.5888 0.502868 10.9375 0.5ZM11.7708 10.3992C11.7709 10.5404 11.7351 10.6794 11.6667 10.803C11.5984 10.9266 11.4997 11.0308 11.38 11.1058L8.18 13.1058C8.08699 13.1639 7.98343 13.2032 7.87525 13.2213C7.76708 13.2393 7.6564 13.2359 7.54953 13.2113C7.44267 13.1866 7.34171 13.1411 7.25243 13.0774C7.16314 13.0137 7.08728 12.933 7.02917 12.84C6.97106 12.747 6.93184 12.6434 6.91375 12.5352C6.89566 12.4271 6.89906 12.3164 6.92374 12.2095C6.94843 12.1027 6.99392 12.0017 7.05762 11.9124C7.12132 11.8231 7.20198 11.7473 7.295 11.6892L10.1042 9.9375V6.33333C10.1042 6.11232 10.192 5.90036 10.3482 5.74408C10.5045 5.5878 10.7165 5.5 10.9375 5.5C11.1585 5.5 11.3705 5.5878 11.5268 5.74408C11.683 5.90036 11.7708 6.11232 11.7708 6.33333V10.3992Z" fill="#0094FF"></path></g><defs><clipPath id="clip0_6081_6860"><rect width="20" height="20" fill="white" transform="translate(0.9375 0.5)"></rect></clipPath></defs></svg>