<svg width="36" height="27" viewBox="0 0 36 27" fill="none" xmlns="http://www.w3.org/2000/svg">
<path d="M7.16634 10.1099L3.66634 23.4432V6.77653H31.9997C31.9997 5.89247 31.6485 5.04463 31.0234 4.41951C30.3982 3.79439 29.5504 3.4432 28.6663 3.4432H16.9997L13.6663 0.109863H3.66634C2.78229 0.109863 1.93444 0.461053 1.30932 1.08617C0.684197 1.7113 0.333008 2.55914 0.333008 3.4432V23.4432C0.333008 24.3273 0.684197 25.1751 1.30932 25.8002C1.93444 26.4253 2.78229 26.7765 3.66634 26.7765H28.6663C30.1663 26.7765 31.4997 25.7765 31.833 24.2765L35.6663 10.1099H7.16634ZM28.6663 23.4432H6.99967L9.66634 13.4432H31.333L28.6663 23.4432Z" fill="#0094FF"/>
</svg>
