<svg width="13" height="12" viewBox="0 0 13 12" fill="none" xmlns="http://www.w3.org/2000/svg">
<path fill-rule="evenodd" clip-rule="evenodd" d="M12.501 6.00003C12.501 6.19894 12.422 6.38971 12.2813 6.53036C12.1407 6.67101 11.9499 6.75003 11.751 6.75003L3.06148 6.75003L6.28198 9.96903C6.42281 10.1099 6.50192 10.3009 6.50192 10.5C6.50192 10.6992 6.42281 10.8902 6.28198 11.031C6.14115 11.1719 5.95014 11.251 5.75098 11.251C5.55181 11.251 5.36081 11.1719 5.21998 11.031L0.719976 6.53103C0.650131 6.46136 0.594718 6.3786 0.556908 6.28748C0.519098 6.19636 0.499636 6.09868 0.499636 6.00003C0.499636 5.90138 0.519098 5.8037 0.556908 5.71258C0.594718 5.62146 0.650131 5.5387 0.719976 5.46903L5.21998 0.969029C5.36081 0.828199 5.55181 0.749083 5.75098 0.749083C5.95014 0.749083 6.14115 0.828199 6.28198 0.969029C6.42281 1.10986 6.50192 1.30087 6.50192 1.50003C6.50192 1.69919 6.42281 1.8902 6.28198 2.03103L3.06148 5.25003L11.751 5.25003C11.9499 5.25003 12.1407 5.32905 12.2813 5.4697C12.422 5.61035 12.501 5.80112 12.501 6.00003Z" fill="white"/>
</svg>
