<svg width="28" height="28" viewBox="0 0 28 28" fill="none" xmlns="http://www.w3.org/2000/svg">
<path d="M13.9993 27.3334C12.1549 27.3334 10.4216 26.9834 8.79935 26.2834C7.17713 25.5834 5.76602 24.6334 4.56602 23.4334C3.36602 22.2334 2.41602 20.8222 1.71602 19.2C1.01602 17.5778 0.666016 15.8445 0.666016 14C0.666016 12.1556 1.01602 10.4222 1.71602 8.80002C2.41602 7.1778 3.36602 5.76669 4.56602 4.56669C5.76602 3.36669 7.17713 2.41669 8.79935 1.71669C10.4216 1.01669 12.1549 0.666687 13.9993 0.666687C15.4438 0.666687 16.8105 0.877798 18.0993 1.30002C19.3882 1.72224 20.5771 2.31113 21.666 3.06669L19.7327 5.03335C18.8882 4.50002 17.9882 4.08335 17.0327 3.78335C16.0771 3.48335 15.066 3.33335 13.9993 3.33335C11.0438 3.33335 8.52713 4.37224 6.44935 6.45002C4.37157 8.5278 3.33268 11.0445 3.33268 14C3.33268 16.9556 4.37157 19.4722 6.44935 21.55C8.52713 23.6278 11.0438 24.6667 13.9993 24.6667C16.9549 24.6667 19.4716 23.6278 21.5493 21.55C23.6271 19.4722 24.666 16.9556 24.666 14C24.666 13.6 24.6438 13.2 24.5993 12.8C24.5549 12.4 24.4882 12.0111 24.3993 11.6334L26.566 9.46669C26.8105 10.1778 26.9993 10.9111 27.1327 11.6667C27.266 12.4222 27.3327 13.2 27.3327 14C27.3327 15.8445 26.9827 17.5778 26.2827 19.2C25.5827 20.8222 24.6327 22.2334 23.4327 23.4334C22.2327 24.6334 20.8216 25.5834 19.1993 26.2834C17.5771 26.9834 15.8438 27.3334 13.9993 27.3334ZM12.1327 20.1334L6.46602 14.4667L8.33268 12.6L12.1327 16.4L25.466 3.03335L27.3327 4.90002L12.1327 20.1334Z" fill="#23459D"/>
</svg>
