<svg width="12" height="12" viewBox="0 0 12 12" fill="none" xmlns="http://www.w3.org/2000/svg">
<path fill-rule="evenodd" clip-rule="evenodd" d="M0 5.87497C0 5.67606 0.0790178 5.48529 0.21967 5.34464C0.360322 5.20399 0.551088 5.12497 0.75 5.12497H9.4395L6.219 1.90597C6.07817 1.76514 5.99905 1.57413 5.99905 1.37497C5.99905 1.17581 6.07817 0.984801 6.219 0.843971C6.35983 0.703141 6.55084 0.624023 6.75 0.624023C6.94916 0.624023 7.14017 0.703141 7.281 0.843971L11.781 5.34397C11.8508 5.41364 11.9063 5.4964 11.9441 5.58752C11.9819 5.67864 12.0013 5.77632 12.0013 5.87497C12.0013 5.97362 11.9819 6.0713 11.9441 6.16242C11.9063 6.25354 11.8508 6.3363 11.781 6.40597L7.281 10.906C7.14017 11.0468 6.94916 11.1259 6.75 11.1259C6.55084 11.1259 6.35983 11.0468 6.219 10.906C6.07817 10.7651 5.99905 10.5741 5.99905 10.375C5.99905 10.1758 6.07817 9.9848 6.219 9.84397L9.4395 6.62497H0.75C0.551088 6.62497 0.360322 6.54595 0.21967 6.4053C0.0790178 6.26465 0 6.07388 0 5.87497Z" fill="white"/>
</svg>
