<svg xmlns="http://www.w3.org/2000/svg" width="14" height="17" viewBox="0 0 14 17" fill="none"><path d="M6.9997 0.652344C5.23566 0.654284 3.54442 1.35586 2.29699 2.60316C1.04957 3.85047 0.347821 5.54164 0.345703 7.30568C0.345703 9.01901 1.67237 11.7003 4.28904 15.275C4.60054 15.7018 5.00841 16.0489 5.47944 16.2883C5.95047 16.5276 6.47135 16.6524 6.9997 16.6524C7.52805 16.6524 8.04894 16.5276 8.51997 16.2883C8.991 16.0489 9.39886 15.7018 9.71037 15.275C12.327 11.7003 13.6537 9.01901 13.6537 7.30568C13.6516 5.54164 12.9498 3.85047 11.7024 2.60316C10.455 1.35586 8.76374 0.654284 6.9997 0.652344ZM6.9997 9.95768C6.47229 9.95768 5.95671 9.80128 5.51818 9.50826C5.07965 9.21525 4.73786 8.79877 4.53602 8.3115C4.33419 7.82423 4.28138 7.28805 4.38428 6.77077C4.48717 6.25349 4.74115 5.77833 5.11409 5.40539C5.48703 5.03245 5.96218 4.77848 6.47946 4.67558C6.99675 4.57269 7.53292 4.6255 8.02019 4.82733C8.50746 5.02917 8.92394 5.37096 9.21696 5.80949C9.50997 6.24802 9.66637 6.76359 9.66637 7.29101C9.66637 7.99826 9.38542 8.67653 8.88532 9.17663C8.38522 9.67673 7.70695 9.95768 6.9997 9.95768Z" fill="#757095"></path></svg>