<svg xmlns="http://www.w3.org/2000/svg" width="512" height="806" viewBox="0 0 512 806" fill="none"><path opacity="0.4" d="M-127.203 48.4839C-97.1258 61.5482 -68.3613 77.6794 -42.3771 97.7573L-47.5811 93.7334C-28.7196 108.426 -11.474 125.122 3.24683 143.988L-0.774979 138.781C12.1102 155.471 22.9043 173.665 31.138 193.089C30.2766 191.038 29.4093 188.993 28.5479 186.943C35.6588 203.978 40.7024 221.761 43.2509 240.05L42.3301 233.215C44.4509 249.221 44.635 265.376 42.538 281.389L43.4588 274.553C41.3677 289.722 37.3519 304.522 31.4647 318.656L34.0548 312.51C28.5538 325.479 21.5439 337.705 12.9954 348.909L17.0172 343.703C9.36565 353.581 0.609192 362.497 -9.23441 370.2L-4.03043 366.176C-12.5077 372.702 -21.6443 378.319 -31.4939 382.527L-25.3513 379.936C-31.8266 382.598 -38.4741 384.56 -45.4068 385.582L-38.5751 384.661C-44.189 385.38 -49.7434 385.445 -55.3573 384.697C-53.0821 385.006 -50.8009 385.309 -48.5256 385.618C-53.0108 384.928 -57.3355 383.763 -61.5534 382.081L-55.4108 384.673C-59.2068 383.062 -62.7415 381.083 -66.0623 378.634C-64.3276 379.977 -62.593 381.315 -60.8583 382.658C-63.8108 380.364 -66.4306 377.802 -68.7475 374.872L-64.7257 380.078C-66.7455 377.368 -68.4148 374.503 -69.7752 371.412C-68.9138 373.463 -68.0465 375.508 -67.1851 377.558C-68.7356 373.772 -69.7395 369.891 -70.292 365.843L-69.3712 372.678C-69.8821 368.179 -69.8168 363.721 -69.2643 359.234L-70.1851 366.069C-69.4247 360.737 -68.0108 355.608 -65.997 350.615C-66.8583 352.666 -67.7257 354.71 -68.5871 356.761C-66.3237 351.424 -63.4603 346.49 -59.9375 341.89L-63.9593 347.096C-59.195 341.07 -53.6702 335.809 -47.6048 331.108C-49.3395 332.451 -51.0741 333.789 -52.8088 335.132C-37.387 323.435 -19.4523 315.47 -1.71953 307.981C-3.76904 308.843 -5.81262 309.71 -7.86214 310.572C21.1399 298.417 51.3182 288.896 82.5302 284.569L75.6985 285.49C96.1223 282.768 116.837 282.274 137.291 284.979L130.459 284.057C147.194 286.37 163.56 290.726 179.166 297.217C177.117 296.355 175.073 295.487 173.024 294.625C186.336 300.26 198.925 307.398 210.426 316.177C208.691 314.834 206.956 313.497 205.222 312.153C215.083 319.791 223.964 328.534 231.598 338.407L227.576 333.2C234.509 342.318 240.224 352.208 244.721 362.746L242.131 356.601C247.364 369.148 250.786 382.295 252.616 395.758L251.695 388.922C253.762 404.988 253.549 421.209 251.434 437.257L252.354 430.422C249.842 448.586 244.929 466.286 237.824 483.184L240.414 477.038C230.832 499.494 217.941 520.279 203.041 539.572L207.063 534.365C194.594 550.396 180.841 565.374 166.352 579.591C151.863 593.809 136.144 608.252 119.772 621.007C121.507 619.664 123.241 618.326 124.976 616.983C112.37 626.713 98.9679 635.385 84.2827 641.638C86.3322 640.776 88.3758 639.908 90.4253 639.046C81.0926 642.91 71.4153 645.685 61.4173 647.148L68.249 646.226C59.6173 647.379 50.9618 647.516 42.3242 646.375C44.5994 646.684 46.8806 646.987 49.1559 647.296C42.4846 646.31 35.9915 644.604 29.7657 641.994L35.9083 644.586C30.4845 642.202 25.4528 639.195 20.7597 635.581L25.9637 639.605C21.6271 636.152 17.736 632.282 14.2845 627.943L18.3063 633.15C14.9677 628.805 12.1874 624.163 10.0132 619.129L12.6033 625.275C10.8152 620.918 9.55576 616.442 8.8607 611.782L9.78149 618.618C9.17555 613.833 9.21713 609.09 9.8409 604.311L8.9201 611.146C9.69238 606.047 11.1122 601.173 13.1082 596.424L10.5181 602.57C13.0667 596.774 16.3577 591.419 20.1657 586.367L16.1439 591.574C23.5043 582.052 32.4033 573.939 41.8667 566.557L36.6628 570.581C56.0529 555.608 77.2015 542.621 98.4986 530.579C119.796 518.537 143.214 507.012 166.489 497.181C164.439 498.043 162.396 498.911 160.346 499.773C206.321 480.468 255.206 465.02 304.727 458.28L297.895 459.201C318.8 456.431 339.996 455.558 360.949 458.31L354.117 457.388C366.735 459.13 379.091 462.215 390.872 467.088L384.729 464.497C393.996 468.426 402.711 473.407 410.737 479.493L405.533 475.469C413.292 481.484 420.171 488.432 426.206 496.171L422.185 490.964C429.07 499.969 434.678 509.8 439.151 520.213L436.561 514.068C442.211 527.489 445.9 541.593 447.872 556.012L446.951 549.177C449.191 566.372 448.793 583.68 446.583 600.864L447.504 594.029C442.513 631.165 429.42 666.631 414.973 701.004L417.563 694.858C411.402 709.408 404.565 723.726 394.959 736.357C396.301 734.621 397.638 732.886 398.981 731.15C394.181 737.314 388.81 742.871 382.65 747.686C384.385 746.342 386.119 745.005 387.854 743.662C382.769 747.519 377.345 750.776 371.482 753.302L377.624 750.711C372.89 752.655 368.03 754.057 362.969 754.842C365.244 754.533 367.525 754.23 369.8 753.921C365.048 754.551 360.319 754.622 355.567 754.01C357.842 754.319 360.123 754.622 362.398 754.931C358.305 754.319 354.361 753.237 350.523 751.686C352.573 752.548 354.616 753.415 356.666 754.277C352.293 752.417 348.254 750.033 344.47 747.163L349.674 751.187C345.367 747.81 341.565 743.929 338.196 739.614L342.218 744.821C338.446 739.834 335.357 734.449 332.915 728.69L335.505 734.835C333.123 729.005 331.466 722.96 330.575 716.725L331.495 723.56C330.741 717.664 330.693 711.768 331.46 705.872L330.539 712.707C331.466 706.353 333.283 700.195 335.731 694.263L333.141 700.409C336.147 693.402 340.032 686.893 344.66 680.843L340.638 686.049C346.317 678.792 352.905 672.396 360.177 666.75L354.973 670.774C363.581 664.218 372.955 658.833 382.893 654.571L376.751 657.163C390.587 651.362 405.242 647.92 420.064 645.84L413.232 646.761C437.446 643.516 461.904 643.956 486.272 644.497C499.722 644.794 512.589 632.455 511.971 618.784C511.336 604.596 500.678 593.387 486.272 593.072C433.496 591.901 375.218 592.198 330.806 625.031C309.117 641.067 291.693 661.627 283.543 687.749C275.98 711.994 279.58 738.188 291.242 760.477C302.095 781.22 322.525 799.36 345.889 804.062C375.812 810.089 405.254 798.427 426.664 777.375C447.373 757.005 458.506 729.795 469.193 703.381C479.316 678.37 488.464 652.812 493.912 626.333C497.001 611.325 499.122 595.966 499.739 580.649C500.274 567.371 499.145 554.348 497.28 541.207C493.947 517.747 485.785 494.245 473.03 474.221C459.367 452.776 440.375 434.463 417.462 423.176C393.884 411.568 368.351 406.242 342.159 405.309C317.339 404.424 292.293 407.722 267.996 412.549C243.699 417.375 219.046 424.086 195.218 431.961C144.99 448.562 96.4016 470.904 51.3658 498.673C29.837 511.946 7.61911 526.056 -10.3453 544.018C-19.1018 552.773 -27.3592 562.901 -32.7414 574.117C-38.9434 587.039 -43.1434 601.434 -41.9315 615.931C-39.5137 644.883 -22.7909 670.174 2.10028 685.009C27.8944 700.374 60.1044 701.657 88.5718 693.99C116.814 686.382 141.087 669.924 163.4 651.564C182.564 635.789 200.82 618.63 217.828 600.543C252.954 563.193 283.537 519.352 296.879 469.228C310.115 419.515 307.127 363.299 279.806 318.674C253.917 276.384 208.899 248.3 161.077 237.524C107.273 225.399 51.1044 233.97 -0.180908 252.603C-14.2364 257.709 -28.0602 263.51 -41.6642 269.703C-52.4167 274.595 -63.0504 279.867 -72.8643 286.488C-85.7911 295.208 -96.6208 305.205 -105.757 317.83C-113.789 328.927 -118.423 342.365 -120.235 355.84C-122.326 371.412 -120.068 386.979 -112.494 400.893C-105.787 413.22 -94.2089 423.557 -81.3713 429.114C-72.3712 433.013 -64.5593 435.022 -54.8108 436.235C-47.0226 437.203 -39.5018 436.342 -31.7553 435.206C-17.581 433.12 -3.75122 427.135 8.4805 419.812C50.7955 394.474 80.3084 349.694 90.651 301.799C101.926 249.578 91.5897 195.799 66.8886 148.909C42.6152 102.827 4.27455 65.6018 -38.9909 37.3097C-58.7138 24.394 -79.6604 13.4575 -101.26 4.07831C-107.843 1.21344 -113.843 -0.504296 -121.066 1.48091C-127.025 3.12732 -133.488 7.73965 -136.423 13.303C-139.577 19.2705 -141.158 26.498 -139.019 33.1134C-137.1 39.0452 -133.191 45.8805 -127.209 48.4839H-127.203Z" fill="#F2F8FF"></path></svg>