<svg width="14" height="14" viewBox="0 0 14 14" fill="none" xmlns="http://www.w3.org/2000/svg">
<path d="M7 0C8.85652 0 10.637 0.737498 11.9497 2.05025C13.2625 3.36301 14 5.14348 14 7C14 8.85652 13.2625 10.637 11.9497 11.9497C10.637 13.2625 8.85652 14 7 14C5.14348 14 3.36301 13.2625 2.05025 11.9497C0.737498 10.637 0 8.85652 0 7C0 5.14348 0.737498 3.36301 2.05025 2.05025C3.36301 0.737498 5.14348 0 7 0ZM7 5.25C7.09849 5.25 7.19602 5.2306 7.28701 5.19291C7.37801 5.15522 7.46069 5.09997 7.53033 5.03033C7.59997 4.96069 7.65522 4.87801 7.69291 4.78701C7.7306 4.69602 7.75 4.59849 7.75 4.5C7.75 4.40151 7.7306 4.30398 7.69291 4.21299C7.65522 4.12199 7.59997 4.03931 7.53033 3.96967C7.46069 3.90003 7.37801 3.84478 7.28701 3.80709C7.19602 3.7694 7.09849 3.75 7 3.75C6.80135 3.75 6.61084 3.82891 6.47038 3.96938C6.32991 4.10984 6.251 4.30035 6.251 4.499C6.251 4.69765 6.32991 4.88816 6.47038 5.02862C6.61084 5.16909 6.80135 5.248 7 5.248M7.5 6.498C7.5 6.36539 7.44732 6.23821 7.35355 6.14445C7.25979 6.05068 7.13261 5.998 7 5.998C6.86739 5.998 6.74021 6.05068 6.64645 6.14445C6.55268 6.23821 6.5 6.36539 6.5 6.498V9.498C6.5 9.63061 6.55268 9.75778 6.64645 9.85155C6.74021 9.94532 6.86739 9.998 7 9.998C7.13261 9.998 7.25979 9.94532 7.35355 9.85155C7.44732 9.75778 7.5 9.63061 7.5 9.498V6.498Z" fill="#0094FF"/>
</svg>
