<svg xmlns="http://www.w3.org/2000/svg" width="33" height="33" viewBox="0 0 33 33" fill="none"><g clip-path="url(#clip0_3970_226)"><path d="M1.83182 30.6902C1.40314 30.2617 1.16224 29.6804 1.16211 29.0742V13.0742H30.8764V29.0742C30.8764 29.6804 30.6356 30.2618 30.2069 30.6905C29.7783 31.1191 29.1969 31.3599 28.5907 31.3599H3.44782C2.84166 31.3598 2.26038 31.1189 1.83182 30.6902Z" fill="#C8DFFF"></path><path d="M1.83182 5.74393C2.26038 5.31525 2.84166 5.07435 3.44782 5.07422H28.5907C29.1969 5.07422 29.7783 5.31503 30.2069 5.74369C30.6356 6.17234 30.8764 6.75372 30.8764 7.35993V13.0742H1.16211V7.35993C1.16224 6.75377 1.40314 6.17249 1.83182 5.74393Z" fill="white"></path><path d="M3.44782 5.07422C2.84161 5.07422 2.26023 5.31503 1.83158 5.74369C1.40293 6.17234 1.16211 6.75372 1.16211 7.35993V29.0742C1.16211 29.6804 1.40293 30.2618 1.83158 30.6905C2.26023 31.1191 2.84161 31.3599 3.44782 31.3599H28.5907C29.1969 31.3599 29.7783 31.1191 30.2069 30.6905C30.6356 30.2618 30.8764 29.6804 30.8764 29.0742V7.35993C30.8764 6.75372 30.6356 6.17234 30.2069 5.74369C29.7783 5.31503 29.1969 5.07422 28.5907 5.07422H24.0193" stroke="#006AFF" stroke-width="2" stroke-linecap="round" stroke-linejoin="round"></path><path d="M1.16211 13.0742H30.8764" stroke="#006AFF" stroke-width="2" stroke-linecap="round" stroke-linejoin="round"></path><path d="M8.01953 1.64453V8.50167" stroke="#006AFF" stroke-width="2" stroke-linecap="round" stroke-linejoin="round"></path><path d="M24.0195 1.64453V8.50167" stroke="#006AFF" stroke-width="2" stroke-linecap="round" stroke-linejoin="round"></path><path d="M8.01953 5.07422H19.4481" stroke="#006AFF" stroke-width="2" stroke-linecap="round" stroke-linejoin="round"></path></g><defs><clipPath id="clip0_3970_226"><rect width="32" height="32" fill="white" transform="translate(0.0195312 0.5)"></rect></clipPath></defs></svg>