<svg xmlns="http://www.w3.org/2000/svg" width="65" height="101" viewBox="0 0 65 101" fill="none"><path d="M51.7932 0.5H12.8104C7.72397 0.5 3.59375 4.63022 3.59375 9.71669V76.2275C3.59375 81.3139 7.72397 85.4238 12.7901 85.4238H51.7932C56.8797 85.4238 60.9895 81.2936 60.9895 76.2275V9.71669C60.9895 4.63022 56.8593 0.5 51.7932 0.5ZM51.8542 40.378C53.4819 40.378 54.3975 41.4766 54.3975 41.4766L53.4616 42.616C53.4616 42.616 52.8919 41.8429 51.8542 41.8429C50.7352 41.8429 49.8196 42.7584 49.8196 43.8571C49.8196 44.9761 50.7352 45.8917 51.8542 45.8917C52.9122 45.8917 53.4819 45.0982 53.4819 45.0982L54.4178 46.2376C54.4178 46.2376 53.4819 47.3363 51.8542 47.3363C49.9214 47.3363 48.3547 45.7696 48.3547 43.8571C48.3547 41.9446 49.9214 40.378 51.8542 40.378ZM47.2561 43.8368C47.2561 43.9588 47.2357 44.264 47.2357 44.264H42.2917C42.3527 45.2813 43.1869 45.9527 44.2856 45.9527C45.5267 45.9527 46.0556 45.0168 46.0556 45.0168L47.1136 45.8103C47.1136 45.8103 46.3201 47.3566 44.2652 47.3566C42.2103 47.3566 40.8064 45.9324 40.8064 43.8775C40.8064 42.0463 42.0272 40.3576 44.0618 40.3576C46.544 40.3576 47.2764 42.3515 47.2764 43.8368H47.2561ZM44.7128 21.8835C44.7128 25.5255 43.1258 28.8011 40.6029 31.0799L39.5857 29.7981C41.722 27.8449 43.0648 25.0168 43.0648 21.9039C43.0648 20.0728 42.6172 18.3027 41.7423 16.7157L39.7484 17.9568C40.3995 19.1775 40.725 20.5204 40.725 21.9039C40.725 23.4502 40.2978 24.8947 39.5653 26.1358L38.2225 25.1796C38.7515 24.203 39.077 23.1043 39.077 21.9242C39.077 19.32 37.4697 17.4481 37.4697 17.4481L42.2713 14.4776C42.2713 14.4776 44.7128 17.5092 44.7128 21.9242V21.8835ZM39.4432 46.0545H39.7688V47.2956C39.7688 47.2956 39.4025 47.377 39.016 47.377C38.2225 47.377 37.6528 47.0718 37.3273 46.5021C37.0424 45.9731 37.0017 45.3017 37.0017 44.8337V41.6598H36.1269V40.5407H37.0017V39.2183H38.5277V40.5407H39.8095V41.6801H38.5073V45.0779C38.5073 45.9527 38.7922 46.1155 39.4229 46.1155L39.4432 46.0545ZM31.6101 41.8022C30.5317 41.8022 29.6772 42.6771 29.6569 43.735V47.1735H28.1309V43.8368C28.1309 41.9243 29.6975 40.378 31.6101 40.378C33.5226 40.378 35.0892 41.9446 35.0892 43.8368V47.1735H33.5429V43.6944C33.5429 42.6364 32.668 41.8022 31.6101 41.8022ZM32.3222 34.2539C29.2092 34.2539 26.3608 33.0941 24.1635 31.1816L25.3232 30.0219C27.195 31.6292 29.6365 32.6262 32.3018 32.6262C34.5195 32.6262 36.5745 31.9548 38.2835 30.8154L39.3008 32.0972C37.3069 33.4604 34.8857 34.2742 32.3018 34.2742L32.3222 34.2539ZM26.9712 43.8775C26.9712 45.79 25.4046 47.3363 23.492 47.3363C21.5795 47.3363 20.0129 45.7696 20.0129 43.8775C20.0129 41.9649 21.5795 40.4187 23.492 40.4187C25.4046 40.4187 26.9712 41.9853 26.9712 43.8775ZM36.1472 16.2884C35.0485 15.5356 33.726 15.1084 32.3425 15.1084C28.6192 15.1084 25.5877 18.1399 25.5877 21.8632C25.5877 25.5865 28.6192 28.618 32.3425 28.618C34.2957 28.618 36.0455 27.7839 37.2866 26.4614L38.6294 27.4176C37.0831 29.147 34.8451 30.2457 32.3425 30.2457C27.724 30.2457 23.96 26.4817 23.96 21.8429C23.96 17.204 27.724 13.4603 32.3629 13.4603C34.3161 13.4603 36.1879 14.1521 37.6731 15.3525L36.1675 16.2884H36.1472ZM36.7372 21.8835C36.7372 24.3251 34.7433 26.3189 32.3018 26.3189C29.8603 26.3189 27.8664 24.3251 27.8664 21.8835C27.8664 19.442 29.8603 17.4481 32.3018 17.4481C34.7433 17.4481 36.7372 19.442 36.7372 21.8835ZM32.3425 9.49289C35.7199 9.49289 38.8532 10.8357 41.1726 13.1958L39.7484 14.0911C37.7749 12.1989 35.1502 11.1409 32.3629 11.1409C30.2265 11.1409 28.2326 11.7716 26.5643 12.85L25.5673 11.5275C27.5205 10.2457 29.8603 9.49289 32.3629 9.49289H32.3425ZM24.1838 12.5651L25.3435 13.7248C24.9366 14.0911 24.55 14.4776 24.1838 14.8846L23.0241 13.7248C23.3903 13.3179 23.7769 12.9313 24.1838 12.5651ZM21.9661 15.1084L23.2886 16.1053C22.2102 17.7737 21.5999 19.7472 21.5999 21.8835C21.5999 24.5489 22.5765 26.9904 24.1838 28.8825L23.0241 30.0423C21.1116 27.8652 19.9519 25.0168 19.9519 21.8835C19.9519 19.381 20.7047 17.0616 21.9864 15.1287L21.9661 15.1084ZM16.7169 40.378C18.3445 40.378 19.2601 41.4766 19.2601 41.4766L18.3242 42.616C18.3242 42.616 17.7545 41.8429 16.7169 41.8429C15.5978 41.8429 14.6823 42.7584 14.6823 43.8571C14.6823 44.9761 15.5978 45.8917 16.7169 45.8917C17.8359 45.8917 18.3445 45.0982 18.3445 45.0982L19.2804 46.2376C19.2804 46.2376 18.3445 47.3363 16.7169 47.3363C14.784 47.3363 13.2174 45.7696 13.2174 43.8571C13.2174 41.9446 14.784 40.378 16.7169 40.378ZM11.1421 38.6893C11.6304 38.6893 12.017 39.0758 12.017 39.5641C12.017 40.0524 11.6304 40.439 11.1421 40.439C10.6538 40.439 10.2672 40.0524 10.2672 39.5641C10.2672 39.0758 10.6538 38.6893 11.1421 38.6893ZM11.8745 41.1918V47.1125H10.4096V41.1918H11.8745ZM59.606 76.2275C59.606 80.5408 56.1065 84.0403 51.7932 84.0403H12.8104C8.49711 84.0403 4.99762 80.5408 4.99762 76.2275V52.1786C12.9325 57.143 22.2916 60.0118 32.3425 60.0118C42.3934 60.0118 51.7118 57.1633 59.6264 52.2193V76.2275H59.606Z" fill="#0082CA"></path><path d="M14.3564 71.2426V64.6709H15.5975V71.2426H14.3564Z" fill="#0082CA"></path><path d="M16.8789 70.8155L17.1638 69.7982C17.4079 69.9203 17.6724 70.022 17.9776 70.1238C18.2828 70.2255 18.5676 70.2662 18.8118 70.2662C19.1983 70.2662 19.4832 70.2052 19.6866 70.0831C19.8901 69.961 19.9918 69.7779 19.9918 69.5541C19.9918 69.3913 19.9104 69.2489 19.7477 69.1065C19.5849 68.9844 19.3408 68.8216 19.0152 68.6385L18.7304 68.4554C18.3031 68.1909 17.9572 67.9671 17.6927 67.784C17.4282 67.6009 17.2248 67.3771 17.0417 67.1126C16.8586 66.8481 16.7568 66.5632 16.7568 66.258C16.7568 65.9325 16.8382 65.6273 17.0213 65.3628C17.2044 65.0983 17.4689 64.8949 17.7945 64.7321C18.1404 64.5897 18.5473 64.5083 19.0152 64.5083C19.5646 64.5083 20.1953 64.6711 20.8667 64.9966L20.4598 65.9936C20.1953 65.8715 19.9511 65.7698 19.7477 65.6884C19.5442 65.607 19.3001 65.5866 19.0559 65.5866C18.7711 65.5866 18.5269 65.6477 18.3438 65.7494C18.1607 65.8715 18.059 66.0342 18.059 66.2377C18.059 66.4208 18.1404 66.5836 18.2828 66.7057C18.4252 66.8277 18.6693 66.9905 18.9949 67.194L19.3001 67.3771L19.5849 67.5398C19.9715 67.7636 20.2767 67.9468 20.5005 68.1095C20.7243 68.2723 20.9074 68.4758 21.0702 68.6996C21.2126 68.9437 21.294 69.2082 21.294 69.5337C21.294 69.8796 21.1922 70.2052 21.0091 70.4697C20.826 70.7341 20.5412 70.958 20.1749 71.1004C19.8087 71.2631 19.3611 71.3242 18.8525 71.3242C18.588 71.3242 18.2421 71.2631 17.8352 71.1411C17.4283 71.019 17.1231 70.8969 16.8993 70.7545L16.8789 70.8155Z" fill="#0082CA"></path><path d="M25.0787 64.5083C25.7502 64.5083 26.3198 64.6507 26.8081 64.9559C27.2965 65.2611 27.6627 65.668 27.9272 66.1767C28.1917 66.6853 28.3137 67.2753 28.3137 67.9061C28.3137 68.5775 28.1713 69.1675 27.9068 69.6965C27.6423 70.2052 27.2558 70.6121 26.7675 70.9173C26.2792 71.2021 25.7095 71.3649 25.0787 71.3852C24.4073 71.3852 23.8376 71.2428 23.3493 70.9376C22.861 70.6324 22.4948 70.2255 22.2303 69.7169C21.9658 69.2082 21.8438 68.6385 21.8438 67.9874C21.8438 67.3364 21.9862 66.726 22.2507 66.2174C22.5152 65.6884 22.9017 65.2814 23.39 64.9966C23.8783 64.6914 24.448 64.549 25.0787 64.5286V64.5083ZM23.1662 67.9671C23.1662 68.4147 23.2476 68.842 23.39 69.1879C23.5528 69.5541 23.7563 69.8186 24.0615 70.022C24.3666 70.2255 24.6922 70.3069 25.0787 70.3069C25.445 70.3069 25.7705 70.2255 26.0554 70.0424C26.3402 69.8593 26.5843 69.5948 26.7471 69.2285C26.9099 68.8623 27.0116 68.4147 27.0116 67.9061C27.0116 67.4585 26.9302 67.0515 26.7878 66.7057C26.6454 66.3598 26.4012 66.0749 26.1164 65.8715C25.8315 65.668 25.4857 65.5663 25.1194 65.5663C24.7736 65.5663 24.448 65.668 24.1632 65.8511C23.8783 66.0342 23.6342 66.3191 23.4511 66.6853C23.268 67.0515 23.1866 67.4788 23.1866 67.9468L23.1662 67.9671Z" fill="#0082CA"></path><path d="M35.1112 64.4269L32.2221 71.2835L30.9199 71.2428L33.809 64.3862L35.1315 64.4269H35.1112Z" fill="#0082CA"></path><path d="M38.2021 71.2426V64.6709H39.4432V71.2426H38.2021Z" fill="#0082CA"></path><path d="M41.0928 71.2426V64.6709H45.0195L45.223 65.6475H42.3542V67.4176H44.4905L44.694 68.4145H42.3542V70.266H45.5078L45.7113 71.2426H41.1131H41.0928Z" fill="#0082CA"></path><path d="M51.1425 64.9559L50.7559 65.8511L50.5117 65.7901C50.2676 65.7087 50.0641 65.668 49.9217 65.6273C49.7793 65.5866 49.5962 65.5866 49.3724 65.5866C49.0265 65.5866 48.7213 65.6884 48.4365 65.8715C48.1516 66.0749 47.9482 66.3394 47.7854 66.7057C47.6226 67.0719 47.5412 67.4788 47.5412 67.9671C47.5412 68.3944 47.6023 68.8013 47.7447 69.1472C47.8871 69.5134 48.0906 69.7982 48.3551 70.0017C48.6196 70.2052 48.9248 70.3069 49.291 70.3069C49.7589 70.3069 50.2472 70.2052 50.7355 70.0017L51.2035 70.9376C50.9593 71.0597 50.6542 71.1614 50.3083 71.2428C49.9624 71.3242 49.6369 71.3649 49.352 71.3649C48.6806 71.3649 48.1109 71.2225 47.643 70.9173C47.175 70.6121 46.8088 70.2255 46.585 69.6965C46.3408 69.1879 46.2188 68.5978 46.2188 67.9671C46.2188 67.3364 46.3408 66.7057 46.6053 66.1767C46.8698 65.6477 47.236 65.2408 47.7243 64.9559C48.2126 64.6711 48.762 64.5083 49.3927 64.5083C49.6165 64.5083 49.9014 64.549 50.2472 64.61C50.5931 64.6711 50.878 64.7931 51.1425 64.9356V64.9559Z" fill="#0082CA"></path><path d="M22.3945 74.458C22.8014 74.458 23.1473 74.5394 23.4524 74.6818C23.7576 74.8242 23.9814 75.0277 24.1442 75.2922C24.307 75.5567 24.3884 75.8415 24.3884 76.1671C24.3884 76.5943 24.2866 76.9606 24.0832 77.2657C23.8797 77.5709 23.5338 77.9372 23.0455 78.3441L22.13 79.1172H24.5715L24.6935 80.0735H20.4209V79.2393L22.3741 77.5709C22.6996 77.2861 22.9641 77.0419 23.1066 76.8181C23.249 76.5943 23.3304 76.4112 23.3304 76.2281C23.3304 75.984 23.2286 75.8008 23.0455 75.6788C22.8624 75.5567 22.5979 75.4957 22.2724 75.4957C21.8248 75.4957 21.3365 75.6584 20.7464 75.984L20.5226 74.987C21.0923 74.6615 21.7027 74.4784 22.3945 74.4784V74.458Z" fill="#0082CA"></path><path d="M26.1983 80.3982L27.887 75.6169H25.1403L24.9775 74.5996H28.9043L29.2705 75.1083L27.3784 80.7441L26.1983 80.3982Z" fill="#0082CA"></path><path d="M29.6973 77.3064C29.6973 76.7571 29.8193 76.2688 30.0431 75.8415C30.267 75.4143 30.5925 75.0684 30.9994 74.8242C31.4063 74.5801 31.8743 74.458 32.3829 74.458C32.8916 74.458 33.3595 74.5801 33.7664 74.8242C34.1734 75.0684 34.4989 75.3939 34.7227 75.8415C34.9465 76.2688 35.0686 76.7571 35.0686 77.2861C35.0686 77.8151 34.9465 78.3441 34.7227 78.7713C34.4989 79.219 34.1734 79.5648 33.7664 79.809C33.3595 80.0531 32.8916 80.1752 32.3829 80.1752C31.8743 80.1752 31.4063 80.0531 30.9994 79.809C30.5925 79.5648 30.267 79.219 30.0431 78.7713C29.8193 78.3237 29.6973 77.8354 29.6973 77.2861V77.3064ZM30.8366 77.2861C30.8366 77.632 30.8977 77.9575 31.0401 78.222C31.1622 78.5068 31.3656 78.7307 31.5894 78.8731C31.8336 79.0358 32.0981 79.1172 32.3829 79.1172C32.6678 79.1172 32.9526 79.0358 33.1764 78.8934C33.4206 78.7306 33.6037 78.5272 33.7258 78.2627C33.8478 77.9982 33.9292 77.693 33.9292 77.3471C33.9292 77.0012 33.8682 76.6961 33.7258 76.4316C33.5833 76.1671 33.4002 75.9433 33.1764 75.7805C32.9323 75.6177 32.6678 75.5567 32.3829 75.5567C32.0981 75.5567 31.8336 75.6381 31.5894 75.7805C31.3453 75.9229 31.1622 76.1467 31.0401 76.4112C30.8977 76.6757 30.8366 76.9809 30.8366 77.3064V77.2861Z" fill="#0082CA"></path><path d="M35.5566 77.3064C35.5566 76.7571 35.6787 76.2688 35.9025 75.8415C36.1263 75.4143 36.4519 75.0684 36.8588 74.8242C37.2657 74.5801 37.7337 74.458 38.2423 74.458C38.7509 74.458 39.2189 74.5801 39.6258 74.8242C40.0327 75.0684 40.3583 75.3939 40.5821 75.8415C40.8059 76.2688 40.928 76.7571 40.928 77.2861C40.928 77.8151 40.8059 78.3441 40.5821 78.7713C40.3583 79.219 40.0327 79.5648 39.6258 79.809C39.2189 80.0531 38.7509 80.1752 38.2423 80.1752C37.7337 80.1752 37.2657 80.0531 36.8588 79.809C36.4519 79.5648 36.1263 79.219 35.9025 78.7713C35.6787 78.3237 35.5566 77.8354 35.5566 77.2861V77.3064ZM36.696 77.2861C36.696 77.632 36.757 77.9575 36.8995 78.222C37.0215 78.5068 37.225 78.7307 37.4488 78.8731C37.693 79.0358 37.9575 79.1172 38.2423 79.1172C38.5271 79.1172 38.812 79.0358 39.0358 78.8934C39.2799 78.7306 39.4631 78.5272 39.5851 78.2627C39.7072 77.9982 39.7886 77.693 39.7886 77.3471C39.7886 77.0012 39.7275 76.6961 39.5851 76.4316C39.4427 76.1671 39.2596 75.9433 39.0358 75.7805C38.812 75.6177 38.5271 75.5567 38.2423 75.5567C37.9575 75.5567 37.693 75.6381 37.4488 75.7805C37.2047 75.9229 37.0215 76.1467 36.8995 76.4112C36.757 76.6757 36.696 76.9809 36.696 77.3064V77.2861Z" fill="#0082CA"></path><path d="M42.842 80.0531V75.9636L41.7433 76.3909L41.2754 75.455L43.2693 74.5801H44.1035V80.0531H42.842Z" fill="#0082CA"></path><path d="M5.22137 95.5556C5.18068 95.1283 5.03826 94.8028 4.75342 94.579C4.46857 94.3552 4.082 94.2535 3.57335 94.2535C3.1054 94.2535 2.73917 94.3348 2.43398 94.5179C2.14914 94.6807 2.00672 94.9452 2.00672 95.2708C2.00672 95.5556 2.1288 95.7794 2.3526 95.9218C2.57641 96.0642 3.00367 96.2067 3.63439 96.3491C4.20408 96.4712 4.65169 96.5932 5.01791 96.7357C5.38414 96.8577 5.68933 97.0612 5.93348 97.346C6.17763 97.6309 6.32005 97.9971 6.32005 98.4447C6.32005 99.0347 6.09625 99.523 5.62829 99.9096C5.16033 100.296 4.54996 100.5 3.79716 100.5C2.8409 100.5 2.1288 100.296 1.64049 99.8689C1.17254 99.4417 0.908041 98.8923 0.887695 98.2006L1.74222 98.1192C1.78291 98.6685 1.98637 99.0551 2.37295 99.3196C2.75952 99.5637 3.20713 99.6858 3.75647 99.6858C4.26512 99.6858 4.67203 99.5841 4.97722 99.3806C5.28241 99.1772 5.44518 98.8923 5.44518 98.5261C5.44518 98.1599 5.28241 97.875 4.95688 97.7123C4.63134 97.5495 4.082 97.3664 3.3292 97.2036C2.55606 97.0408 2.00672 96.7967 1.68119 96.5118C1.35565 96.227 1.17254 95.8201 1.17254 95.3318C1.17254 94.7824 1.376 94.3348 1.82361 93.989C2.25087 93.6431 2.8409 93.46 3.57335 93.46C4.30581 93.46 4.93653 93.6431 5.40449 93.989C5.87244 94.3348 6.11659 94.8435 6.13694 95.4946L5.28241 95.5556H5.22137Z" fill="#0082CA"></path><path d="M8.57865 100.358H7.66309V93.542H8.57865V100.358Z" fill="#0082CA"></path><path d="M12.3028 98.323H9.73926V97.4888H12.3028V98.323Z" fill="#0082CA"></path><path d="M19.0976 98.2006C18.8941 98.9737 18.5482 99.5434 18.0599 99.9096C17.5716 100.296 16.9816 100.479 16.2898 100.479C15.1708 100.479 14.357 100.133 13.8483 99.4417C13.3397 98.7499 13.0752 97.8954 13.0752 96.9188C13.0752 95.8404 13.3804 94.9859 13.9704 94.3755C14.5604 93.7652 15.3336 93.46 16.2898 93.46C16.9613 93.46 17.5106 93.6227 17.9989 93.9686C18.4872 94.3145 18.7924 94.8028 18.9959 95.4539L18.121 95.6573C17.9786 95.1894 17.7548 94.8231 17.4496 94.579C17.1444 94.3348 16.7578 94.2128 16.3102 94.2128C15.5574 94.2128 15.0081 94.4569 14.6215 94.9452C14.2349 95.4335 14.0518 96.0846 14.0518 96.9188C14.0518 97.875 14.2553 98.5668 14.6622 99.0347C15.0691 99.5027 15.5981 99.7265 16.2492 99.7265C16.7781 99.7265 17.2054 99.5841 17.5513 99.2992C17.8768 99.0144 18.121 98.5668 18.2431 97.9971L19.1383 98.2209L19.0976 98.2006Z" fill="#0082CA"></path><path d="M25.3238 100.358H20.2373V93.542H25.161V94.3558H21.1325V96.4311H24.8965V97.2449H21.1325V99.544H25.3238V100.358Z" fill="#0082CA"></path><path d="M32.5881 100.358H31.4488C30.7774 99.2797 30.3501 98.6286 30.1873 98.3845C30.0246 98.1403 29.8414 97.9369 29.6787 97.7538C29.4956 97.5706 29.3328 97.4689 29.17 97.4282C29.0073 97.3875 28.8038 97.3672 28.5393 97.3672H27.5017V100.378H26.6064V93.5625H29.6176C30.0246 93.5625 30.3704 93.5828 30.6553 93.6439C30.9401 93.7049 31.1843 93.8066 31.3877 93.9694C31.5912 94.1322 31.754 94.356 31.876 94.6001C31.9981 94.8646 32.0388 95.1291 32.0388 95.414C32.0388 95.9226 31.876 96.3499 31.5505 96.6551C31.225 96.9603 30.757 97.1637 30.1263 97.2451C30.5739 97.4689 31.0012 97.8758 31.4081 98.5065L32.5881 100.358ZM27.4813 96.5533H29.4142C29.8008 96.5533 30.1059 96.5127 30.3501 96.4516C30.5739 96.3906 30.757 96.2482 30.8994 96.065C31.0419 95.8819 31.1029 95.6581 31.1029 95.414C31.1029 95.1088 30.9808 94.8443 30.757 94.6205C30.5332 94.3967 30.167 94.2949 29.638 94.2949H27.4813V96.5533Z" fill="#0082CA"></path><path d="M36.3104 96.6756C37.1649 96.9401 37.5921 97.5301 37.5921 98.4253C37.5921 99.0154 37.3887 99.5037 36.9614 99.8902C36.5342 100.277 36.0052 100.48 35.3541 100.48C34.703 100.48 34.1537 100.277 33.7264 99.8902C33.2992 99.5037 33.0957 98.995 33.0957 98.405C33.0957 97.9777 33.2178 97.5912 33.4416 97.286C33.6654 96.9604 33.9909 96.7773 34.3775 96.6959C33.7061 96.4721 33.3602 96.0042 33.3602 95.2921C33.3602 94.7834 33.5433 94.3765 33.8892 94.0306C34.2554 93.6847 34.7234 93.522 35.2931 93.522C35.8627 93.522 36.3714 93.6847 36.7376 94.051C37.1038 94.4172 37.287 94.8241 37.287 95.3124C37.287 95.9838 36.9614 96.4314 36.29 96.6756H36.3104ZM35.3338 99.7885C35.7203 99.7885 36.0459 99.6664 36.3104 99.4019C36.5749 99.1578 36.6969 98.8119 36.6969 98.405C36.6969 97.9981 36.5545 97.6725 36.29 97.408C36.0255 97.1435 35.6796 97.0215 35.2931 97.0215C34.9065 97.0215 34.5606 97.1639 34.2961 97.4284C34.052 97.6929 33.9095 98.0184 33.9095 98.405C33.9095 98.7916 34.0316 99.1374 34.2961 99.4019C34.5606 99.6664 34.8861 99.8089 35.2931 99.8089L35.3338 99.7885ZM35.3338 96.3501C35.6389 96.3501 35.9034 96.2483 36.1272 96.0449C36.3307 95.8414 36.4528 95.5973 36.4528 95.2921C36.4528 94.9869 36.3511 94.7224 36.1272 94.5189C35.9034 94.3155 35.6389 94.1934 35.3338 94.1934C35.0286 94.1934 34.7437 94.2951 34.5403 94.4986C34.3368 94.702 34.2351 94.9462 34.2351 95.231C34.2351 95.5769 34.3368 95.8414 34.5606 96.0245C34.7844 96.228 35.0286 96.3094 35.3541 96.3094L35.3338 96.3501Z" fill="#0082CA"></path><path d="M41.6006 96.6754C42.0278 96.7568 42.333 96.9603 42.5568 97.2858C42.7806 97.6113 42.8823 97.9572 42.8823 98.3438C42.8823 98.9542 42.6585 99.4628 42.2109 99.8697C41.7633 100.277 41.214 100.46 40.5833 100.46C39.9525 100.46 39.4846 100.277 39.098 99.9308C38.7114 99.5849 38.4876 99.1169 38.4062 98.5472L39.2404 98.4252C39.3218 98.8728 39.4846 99.2187 39.7084 99.4425C39.9322 99.6663 40.217 99.768 40.5833 99.768C40.9698 99.768 41.2954 99.6256 41.5802 99.3611C41.8651 99.0966 41.9871 98.7507 41.9871 98.3641C41.9871 97.9776 41.8651 97.6724 41.6209 97.4079C41.3768 97.1434 41.0512 97.0213 40.6646 97.0213C40.5019 97.0213 40.2984 97.0417 40.0746 97.1027L40.1763 96.3702C40.4002 96.3702 40.5833 96.3702 40.7053 96.3295C40.8274 96.3092 40.9902 96.2482 41.1326 96.1668C41.2954 96.0854 41.4174 95.9633 41.5395 95.8006C41.6616 95.6378 41.7023 95.4547 41.7023 95.2105C41.7023 94.8646 41.5802 94.6205 41.3564 94.417C41.1326 94.2339 40.8681 94.1322 40.5833 94.1322C40.2374 94.1322 39.9729 94.2339 39.7491 94.4577C39.5456 94.6815 39.4032 94.9867 39.3422 95.3733L38.508 95.2105C38.6097 94.6205 38.8539 94.1729 39.2201 93.888C39.5863 93.6032 40.0339 93.4404 40.5426 93.4404C41.1123 93.4404 41.5802 93.6032 41.9668 93.9491C42.3534 94.295 42.5365 94.7222 42.5365 95.2105C42.5365 95.8412 42.2313 96.3092 41.6006 96.5737V96.6754Z" fill="#0082CA"></path><path d="M44.5305 96.8585C44.917 96.2482 45.4664 95.9633 46.1785 95.9633C46.7278 95.9633 47.2161 96.1668 47.6027 96.5737C47.9893 96.9806 48.1927 97.5096 48.1927 98.1607C48.1927 98.8117 47.9893 99.3611 47.6027 99.8087C47.2161 100.256 46.7075 100.48 46.0564 100.48C45.4053 100.48 44.856 100.236 44.3881 99.7477C43.9201 99.2594 43.6963 98.4048 43.6963 97.1637C43.6963 95.9226 43.8997 95.0274 44.327 94.417C44.7339 93.8067 45.3443 93.5015 46.1378 93.5015C46.6464 93.5015 47.0737 93.6439 47.4399 93.9287C47.7858 94.2136 48.0096 94.6408 48.091 95.1902L47.2568 95.2716C47.1144 94.5595 46.7278 94.1932 46.0971 94.1932C45.6698 94.1932 45.3036 94.3967 44.9984 94.824C44.6932 95.2512 44.5305 95.9226 44.5305 96.8382V96.8585ZM46.0157 99.7883C46.4023 99.7883 46.7075 99.6256 46.9516 99.3204C47.1958 99.0152 47.3179 98.6286 47.3179 98.2014C47.3179 97.7741 47.1958 97.4079 46.9516 97.1027C46.7075 96.7975 46.4023 96.6754 45.9954 96.6754C45.6291 96.6754 45.3036 96.8179 45.0391 97.0823C44.7746 97.3468 44.6322 97.7131 44.6322 98.1607C44.6322 98.6083 44.7543 98.9949 45.0188 99.3204C45.2833 99.6459 45.6088 99.8087 46.0157 99.8087V99.7883Z" fill="#0082CA"></path><path d="M52.6079 97.1639C52.4451 97.4284 52.2213 97.6522 51.9365 97.815C51.6516 97.9777 51.3465 98.0591 51.0006 98.0591C50.4309 98.0591 49.9629 97.8557 49.5764 97.4487C49.1898 97.0418 48.9863 96.5128 48.9863 95.8414C48.9863 95.17 49.1898 94.6207 49.5764 94.173C49.9833 93.7458 50.4919 93.522 51.1226 93.522C51.7534 93.522 52.3027 93.7661 52.7707 94.2544C53.2386 94.7427 53.4624 95.5973 53.4624 96.818C53.4624 98.0388 53.259 98.9747 52.8317 99.5647C52.4044 100.155 51.8144 100.48 51.0209 100.48C50.5123 100.48 50.085 100.338 49.7391 100.053C49.3932 99.7682 49.1898 99.3409 49.1084 98.7712L49.9019 98.7102C50.024 99.4223 50.4105 99.7885 51.0413 99.7885C51.5499 99.7885 51.9568 99.5444 52.2213 99.0764C52.4858 98.6084 52.6282 97.9574 52.6282 97.1435L52.6079 97.1639ZM51.204 97.3267C51.6109 97.3267 51.9365 97.1842 52.1806 96.8994C52.4248 96.6145 52.5469 96.2483 52.5469 95.8007C52.5469 95.3531 52.4248 94.9665 52.1806 94.6817C51.9365 94.3968 51.6109 94.2341 51.2447 94.2341C50.8785 94.2341 50.5326 94.3968 50.2681 94.7224C50.0036 95.0479 49.8612 95.4345 49.8612 95.8821C49.8612 96.3094 49.9833 96.6552 50.2478 96.9401C50.5123 97.2249 50.8378 97.347 51.2244 97.347L51.204 97.3267Z" fill="#0082CA"></path><path d="M55.1096 96.8585C55.4961 96.2482 56.0455 95.9633 56.7576 95.9633C57.3069 95.9633 57.7952 96.1668 58.1818 96.5737C58.5684 96.9806 58.7718 97.5096 58.7718 98.1607C58.7718 98.8117 58.5684 99.3611 58.1818 99.8087C57.7952 100.256 57.2866 100.48 56.6355 100.48C55.9844 100.48 55.4351 100.236 54.9672 99.7477C54.4992 99.2594 54.2754 98.4048 54.2754 97.1637C54.2754 95.9226 54.4789 95.0274 54.9061 94.417C55.313 93.8067 55.9234 93.5015 56.7169 93.5015C57.2255 93.5015 57.6528 93.6439 58.019 93.9287C58.3649 94.2136 58.5887 94.6408 58.6701 95.1902L57.8359 95.2716C57.6935 94.5595 57.3069 94.1932 56.6762 94.1932C56.2489 94.1932 55.8827 94.3967 55.5775 94.824C55.2723 95.2512 55.1096 95.9226 55.1096 96.8382V96.8585ZM56.6152 99.7883C57.0017 99.7883 57.3069 99.6256 57.5511 99.3204C57.7952 99.0152 57.9173 98.6286 57.9173 98.2014C57.9173 97.7741 57.7952 97.4079 57.5511 97.1027C57.3069 96.7975 57.0017 96.6754 56.5948 96.6754C56.2286 96.6754 55.9031 96.8179 55.6386 97.0823C55.3741 97.3468 55.2317 97.7131 55.2317 98.1607C55.2317 98.6083 55.3537 98.9949 55.6182 99.3204C55.8827 99.6459 56.2083 99.8087 56.6152 99.8087V99.7883Z" fill="#0082CA"></path><path d="M64.0217 94.2941C63.3503 95.0266 62.7806 95.9422 62.2923 97.0205C61.804 98.0988 61.5191 99.2178 61.4377 100.378H60.5832C60.6036 99.4417 60.8274 98.4244 61.275 97.3257C61.7022 96.227 62.2719 95.2707 62.9637 94.4569H59.627V93.6431H64.042V94.2941H64.0217Z" fill="#0082CA"></path><path d="M32.302 19.0752C30.7557 19.0752 29.5146 20.3163 29.5146 21.8626C29.5146 23.4089 30.7557 24.65 32.302 24.65C33.8483 24.65 35.0894 23.4089 35.0894 21.8626C35.0894 20.3163 33.8483 19.0752 32.302 19.0752Z" fill="#0082CA"></path><path d="M21.458 43.8774C21.458 44.9964 22.3736 45.912 23.5129 45.912C24.6523 45.912 25.5679 44.9964 25.5679 43.8774C25.5679 42.7583 24.6523 41.8428 23.5129 41.8428C22.3736 41.8428 21.458 42.7583 21.458 43.8774Z" fill="#0082CA"></path><path d="M42.333 43.1456H45.7104C45.629 42.2503 44.9576 41.6807 44.0421 41.6807C43.1672 41.6807 42.4551 42.2707 42.333 43.1456Z" fill="#0082CA"></path></svg>