<svg xmlns="http://www.w3.org/2000/svg" width="66" height="101" viewBox="0 0 66 101" fill="none"><path d="M41.7387 81.6821C41.7387 81.6821 41.5535 72.0959 41.8622 70.2126C42.1709 68.3138 42.7421 67.8816 43.7301 67.1098C44.718 66.3379 45.953 66.2607 47.0798 66.2607H49.5189V70.0891H47.0798C46.3389 70.0891 45.7832 70.5676 45.4435 71.5093L45.4744 81.6976H41.7387V81.6821Z" fill="#61ABCA"></path><path d="M21.9642 68.0669C23.1683 69.2709 23.7703 70.722 23.7703 72.4046V81.6821H20.0037V72.4046C20.0037 71.7408 19.7722 71.1851 19.3091 70.722C18.846 70.2589 18.2903 70.0273 17.6265 70.0273C16.9627 70.0273 16.4224 70.2589 15.9747 70.722C15.5116 71.1851 15.2801 71.7408 15.2801 72.4046V81.6821H11.4981V72.4046C11.4981 71.7408 11.2665 71.1851 10.8034 70.722C10.3403 70.2589 9.78457 70.0273 9.12079 70.0273C8.45701 70.0273 7.91672 70.2589 7.46905 70.722C7.00595 71.1851 6.78983 71.7408 6.78983 72.4046V81.6821H3.00781V72.4046C3.00781 70.7065 3.60985 69.2709 4.81392 68.0669C6.01799 66.8628 7.45361 66.2607 9.13623 66.2607C10.8188 66.2607 12.1927 66.8319 13.3814 67.9897C14.5854 66.8319 16.0056 66.2607 17.6265 66.2607C19.2473 66.2607 20.7601 66.8628 21.9642 68.0669Z" fill="#61ABCA"></path><path d="M29.0654 76.0634C28.8801 76.0634 28.7103 76.1406 28.5559 76.295C28.4016 76.4493 28.3398 76.6192 28.3398 76.8198C28.3398 77.5454 28.5868 77.9004 29.0808 77.9004H34.3447V81.6824H29.0808C27.8458 81.6824 26.7961 81.2348 25.9008 80.3549C25.0209 79.475 24.5732 78.4098 24.5732 77.1749V76.8198C24.5732 75.5695 25.0209 74.5043 25.9008 73.609C26.7807 72.7291 27.8458 72.2814 29.0808 72.2814H33.4031C33.2024 71.6639 33.0017 71.2471 32.8319 71.0002C32.5232 70.6142 32.1218 70.429 31.6279 70.429H25.8699V66.647H31.6279C32.7393 66.647 33.789 67.0483 34.777 67.8356C35.7186 68.5766 36.3824 69.4873 36.7683 70.5679L40.6584 81.667H36.6757L34.6998 76.048H29.0808L29.0654 76.0634Z" fill="#61ABCA"></path><path d="M59.0116 73.6862C58.9652 73.9332 58.9344 74.1801 58.9344 74.3963C58.9344 75.6158 59.8297 76.542 61.6049 77.1903C62.9171 77.6689 64.3064 77.9004 65.7883 77.9004V81.667H65.387C63.3339 81.7133 61.3425 81.2193 59.4129 80.2005C57.1437 78.981 55.9859 77.4219 55.9705 75.5077V81.667H52.1885V66.647H55.9705V71.8492L56.0631 71.7566L61.2962 66.647H66.0044L61.3271 71.2935C60.8022 71.8183 60.0304 72.6056 58.9961 73.6707L59.0116 73.6862Z" fill="#61ABCA"></path><path fill-rule="evenodd" clip-rule="evenodd" d="M23.137 100.5V99.1262H18.1972V96.0852H22.4114V94.7113H18.1972V91.7628H23.137V90.3735H16.6689V100.5H23.137Z" fill="#61ABCA"></path><path fill-rule="evenodd" clip-rule="evenodd" d="M31.6426 100.5V99.1262H26.7646V90.3735H25.2363V100.5H31.6426Z" fill="#61ABCA"></path><path d="M34.9159 90.3735H33.3877V100.5H34.9159V90.3735Z" fill="#61ABCA"></path><path fill-rule="evenodd" clip-rule="evenodd" d="M43.7912 91.7628V90.3735H36.6748V91.7628H39.4689V100.5H40.9971V91.7628H43.7912Z" fill="#61ABCA"></path><path fill-rule="evenodd" clip-rule="evenodd" d="M52.0042 100.5V99.1262H47.0644V96.0852H51.2786V94.7113H47.0644V91.7628H52.0042V90.3735H45.5361V100.5H52.0042Z" fill="#61ABCA"></path><path d="M2.65308 60.2096H17.0093V22.0344H2.65308V60.2096ZM19.0007 9.66947C19.0007 12.2165 18.1053 14.3777 16.3147 16.1684C14.524 17.959 12.3628 18.8544 9.81576 18.8544C7.26869 18.8544 5.10754 17.959 3.31686 16.1684C1.52619 14.3777 0.630859 12.2165 0.630859 9.66947C0.630859 7.12239 1.54163 4.96124 3.3323 3.18601C5.10754 1.39534 7.28413 0.5 9.8312 0.5C12.3783 0.5 14.5394 1.39534 16.3301 3.18601C18.1208 4.97668 19.0161 7.13783 19.0161 9.6849L19.0007 9.66947Z" fill="black"></path><path d="M39.1152 11.3058H54.3668V25.7856H44.1476L49.3498 40.713C50.6156 44.2017 52.6378 45.946 55.4165 45.946H64.4624V60.2868H55.3702C51.1868 60.2868 47.2658 58.8512 43.5919 55.9645C39.9179 53.0933 37.3708 49.62 35.9043 45.5601L21.0078 2.70752H36.1205L39.1152 11.2904V11.3058Z" fill="black"></path><path d="M55.169 11.3057H50.9238V25.7854H55.169V11.3057Z" fill="#61ABCA"></path></svg>