<svg xmlns="http://www.w3.org/2000/svg" width="101" height="101" viewBox="0 0 101 101" fill="none"><path fill-rule="evenodd" clip-rule="evenodd" d="M88.0002 27.9556L83.5674 30.2087L84.2041 31.4578C84.4001 31.8496 84.596 32.119 84.7674 32.3149C84.9388 32.4864 85.1348 32.6088 85.3307 32.6823C85.6001 32.7803 85.9185 32.7803 86.2858 32.7313C86.6532 32.6823 87.0451 32.5354 87.4859 32.3149C88.0982 31.9966 88.5145 31.6537 88.7349 31.3108C88.9553 30.9435 89.0533 30.6006 89.0288 30.2577C89.0044 30.0128 88.8819 29.6699 88.637 29.2046L88.0247 27.9801L88.0002 27.9556Z" fill="#005088"></path><path fill-rule="evenodd" clip-rule="evenodd" d="M32.4057 11.0327C32.2587 10.7633 32.0383 10.5919 31.7444 10.5184C31.4505 10.4449 31.0832 10.5184 30.6668 10.7633L28.8545 11.7429L29.8586 13.6532L31.4995 12.7716C31.8424 12.5756 32.1118 12.4042 32.2587 12.2328C32.4302 12.0613 32.5036 11.8654 32.5281 11.645C32.5281 11.4246 32.5281 11.2286 32.4057 11.0572V11.0327Z" fill="#005088"></path><path fill-rule="evenodd" clip-rule="evenodd" d="M100.195 46.5936C100.709 31.4337 84.031 0.232333 50.8214 0.501733C18.7383 0.746642 3.62739 24.0865 0.0517212 46.5936C0.0027394 46.863 0.149689 47.1079 0.247653 47.1079H15.1626C17.1219 30.7235 30.7388 15.5147 51.0173 15.0983C66.5935 14.7799 84.3494 28.9357 85.0841 47.1079H100.513C100.513 47.1079 100.195 46.8875 100.195 46.5936ZM17.6362 31.9236C17.3178 32.5603 16.9259 33.0012 16.4851 33.2461C16.0198 33.5155 15.5055 33.6134 14.9177 33.5889C14.3299 33.54 13.7666 33.393 13.2033 33.0991C12.5911 32.7807 12.1257 32.4134 11.8073 31.9481C11.4645 31.4827 11.293 30.9929 11.293 30.4296C11.293 29.8908 11.391 29.352 11.6604 28.8377C11.9543 28.2499 12.3461 27.8336 12.8605 27.5887C13.3503 27.3438 13.9136 27.2703 14.5258 27.3927L14.3299 28.2499C13.8401 28.1765 13.4238 28.2009 13.1054 28.3724C12.787 28.5193 12.5176 28.8132 12.3217 29.1806C12.1013 29.6214 12.0033 30.0623 12.0767 30.4541C12.1502 30.8705 12.3217 31.2133 12.6155 31.5317C12.9094 31.8256 13.2523 32.095 13.6442 32.2909C14.134 32.5358 14.5993 32.6828 15.0401 32.7318C15.481 32.7807 15.8729 32.6828 16.2157 32.4869C16.5586 32.2664 16.8035 31.997 16.9994 31.6297C17.2198 31.1888 17.2688 30.7725 17.1954 30.3561C17.0974 29.9398 16.828 29.5479 16.3871 29.1806L16.9749 28.5193C17.5137 29.0091 17.8566 29.5479 17.979 30.1357C18.1015 30.7235 17.9791 31.3113 17.6852 31.9236H17.6362ZM22.2895 24.3804L17.7586 19.6781L21.1629 16.3963L21.7017 16.9596L18.9342 19.6291L20.3302 21.0741L22.9262 18.576L23.465 19.1393L20.869 21.6374L22.4119 23.2293L25.3018 20.4373L25.8406 21.0006L22.3385 24.3804H22.2895ZM34.9268 15.0738L33.5308 14.2901C33.1144 14.0697 32.7961 13.8983 32.5512 13.8003C32.3062 13.7023 32.1103 13.6289 31.9634 13.6289C31.8164 13.6289 31.6695 13.6289 31.5225 13.6533C31.4246 13.6778 31.2776 13.7513 31.0817 13.8493L30.2 14.3146L31.5715 16.8617L30.8123 17.2535L27.7509 11.4981L30.298 10.1267C30.8123 9.85726 31.2286 9.71031 31.547 9.66133C31.8654 9.63684 32.1838 9.68582 32.4777 9.88175C32.7716 10.0532 33.0165 10.2981 33.1879 10.6165C33.4083 11.0328 33.4573 11.4492 33.3348 11.8655C33.2124 12.2819 32.894 12.6737 32.4042 13.0411C32.6491 13.0411 32.8695 13.0411 33.0165 13.0901C33.3593 13.1635 33.7022 13.3105 34.0451 13.5309L35.8819 14.5595L34.9268 15.0738ZM43.8415 12.4533L42.9843 12.5757L42.0781 6.89386L39.9474 7.23673L39.825 6.47751L44.9436 5.66931L45.066 6.42853L42.9353 6.7714L43.8415 12.4533ZM52.9031 11.9635L52.0459 11.9145L52.5112 5.39991L53.3684 5.4489L52.9031 11.9635ZM65.4179 8.58373L62.0382 7.55511L61.4504 9.48989L64.3893 10.3961L64.1689 11.1308L61.23 10.2246L60.3728 13.0656L59.5401 12.8207L61.4504 6.57548L65.6628 7.87349L65.4424 8.60822L65.4179 8.58373ZM70.1937 17.278L69.4345 16.8372L72.6917 11.1798L73.4264 11.6206L70.1692 17.278H70.1937ZM80.8472 22.1517L78.2512 19.6536L76.7083 21.2455L79.5982 24.0375L79.0594 24.6008L75.5572 21.221L80.088 16.5188L83.4922 19.8006L82.9534 20.3639L80.186 17.6943L78.79 19.1393L81.386 21.6374L80.8472 22.2007V22.1517ZM89.1251 32.1685C88.8067 32.5358 88.3659 32.8297 87.8516 33.0991C87.4108 33.3195 86.9944 33.4665 86.6026 33.54C86.2107 33.6134 85.8679 33.6134 85.5495 33.5645C85.2311 33.5155 84.9862 33.4175 84.7413 33.2951C84.5208 33.1726 84.3004 32.9767 84.1045 32.7563C83.9085 32.5113 83.7126 32.2175 83.5412 31.8746L82.4636 29.7684L88.268 26.805L89.2966 28.8132C89.517 29.2541 89.6639 29.6214 89.7374 29.8908C89.8354 30.2582 89.8354 30.6255 89.7374 30.9439C89.6394 31.3848 89.419 31.7766 89.1006 32.144L89.1251 32.1685Z" fill="#005088"></path><path d="M15.189 49.5322H0.078125V51.7119H15.189V49.5322Z" fill="#9C9C9A"></path><path d="M100.711 49.5322H85.5996V51.7119H100.711V49.5322Z" fill="#9C9C9A"></path><path fill-rule="evenodd" clip-rule="evenodd" d="M14.2314 73.2391L15.309 75.1739L16.5581 73.7045C16.9255 73.2636 17.2683 72.8963 17.5132 72.6514C17.0969 72.7738 16.6805 72.8718 16.2397 72.9453L14.2314 73.2391Z" fill="#005088"></path><path fill-rule="evenodd" clip-rule="evenodd" d="M21.1865 82.742L22.8274 84.2114L23.5376 82.4236C23.758 81.8848 23.9295 81.4439 24.1009 81.1011C23.758 81.346 23.3907 81.5909 22.9988 81.7868L21.1865 82.7175V82.742Z" fill="#005088"></path><path fill-rule="evenodd" clip-rule="evenodd" d="M100.318 53.8921H85.4026C83.4433 70.2765 69.8263 85.4854 49.5479 85.9017C33.9716 86.2201 16.2157 72.0643 15.481 53.8921H0.0517578C0.0517578 53.8921 0.370133 54.1125 0.370133 54.4064C-0.144176 69.5663 16.5096 100.768 49.7438 100.498C81.8269 100.253 96.9378 76.9135 100.513 54.4064C100.562 54.137 100.415 53.8921 100.318 53.8921ZM10.3869 71.501L15.53 69.6397L9.75015 69.7132L9.48075 68.9785L14.0606 65.3048L8.84398 67.2151L8.5501 66.4314L14.6728 64.2028L15.1137 65.4273L11.2931 68.4642C10.9257 68.7581 10.6808 68.954 10.4849 69.0765C10.7298 69.0765 11.0972 69.0764 11.587 69.052L16.3872 68.9785L16.779 70.0806L10.6563 72.3092L10.3624 71.5255L10.3869 71.501ZM13.4728 77.3789L14.8443 75.7625L13.5218 73.3868L11.44 73.7297L10.9992 72.9215L17.9301 71.9419L18.3709 72.7501L13.9626 78.2605L13.4728 77.4034V77.3789ZM17.0239 82.1791L18.9587 76.3258L14.9177 79.4851L14.4034 78.8238L19.5465 74.8073L20.0853 75.4931L18.1505 81.3464L22.1915 78.1871L22.7058 78.8483L17.5627 82.8648L17.0239 82.1546V82.1791ZM21.7997 86.9058L22.5589 84.9221L20.5262 83.0852L18.6649 84.0894L17.9791 83.4771L24.1998 80.2933L24.8855 80.9056L22.5099 87.5426L21.7752 86.8813L21.7997 86.9058ZM26.9428 90.3835C26.4774 90.2611 26.0366 90.0896 25.6447 89.8202C25.1059 89.4529 24.7141 89.012 24.4202 88.4977C24.1508 87.9834 24.0283 87.4201 24.1018 86.8568C24.1753 86.2691 24.3957 85.7303 24.7386 85.1915C25.106 84.6527 25.5468 84.2608 26.0611 83.9424C26.5999 83.624 27.1387 83.5016 27.702 83.5751C28.2653 83.624 28.8041 83.8445 29.3674 84.2118C29.7592 84.4812 30.0776 84.7751 30.298 85.118C30.5185 85.4609 30.6654 85.8037 30.6899 86.1466C30.7144 86.4895 30.6654 86.8813 30.4939 87.3222L29.7347 87.0528C29.8327 86.7099 29.8817 86.4405 29.8817 86.1956C29.8817 85.9507 29.7837 85.7058 29.6123 85.4609C29.4653 85.216 29.2449 84.9955 28.951 84.8241C28.6326 84.6037 28.3143 84.4567 27.9959 84.4078C27.6775 84.3343 27.4081 84.3588 27.1632 84.4078C26.9183 84.4812 26.6734 84.5792 26.4529 84.7261C26.0856 84.971 25.7672 85.2894 25.5223 85.6813C25.2039 86.1711 25.008 86.6119 24.959 87.0528C24.91 87.4936 24.9835 87.8855 25.2039 88.2773C25.4243 88.6447 25.6937 88.9631 26.0611 89.1835C26.3795 89.4039 26.7223 89.5264 27.0897 89.6243C27.4571 89.6978 27.7755 89.7223 28.0204 89.6978L28.7061 88.6937L27.1142 87.6161L27.5306 86.9793L29.8327 88.5222L28.4857 90.5305C27.9469 90.5795 27.4326 90.5305 26.9673 90.4325L26.9428 90.3835ZM34.4125 91.0938L31.1797 89.5019L30.2001 91.5101L33.8002 93.2735L33.4573 93.9592L29.0735 91.8285L31.9389 85.9507L36.1758 88.0079L35.833 88.6937L32.3797 87.0038L31.4981 88.7916L34.7309 90.3835L34.388 91.0693L34.4125 91.0938ZM40.2168 95.894L41.6373 90.6284L38.38 95.4042L37.6208 95.2082L37.2289 89.3549L35.784 94.7184L34.9758 94.498L36.6656 88.2038L37.9147 88.5467L38.2086 93.3959C38.2331 93.8368 38.2576 94.1796 38.2576 94.4C38.38 94.1796 38.6005 93.8857 38.8699 93.4694L41.5638 89.4774L42.6904 89.7713L41.0005 96.0654L40.1923 95.845L40.2168 95.894ZM47.76 91.2897L43.9394 90.8244L43.6945 92.8081L47.2702 93.249L47.1723 94.0082L43.5966 93.5674L43.3272 95.7715L47.2947 96.2613L47.1967 97.0206L42.372 96.4328L43.1558 89.9672L47.8335 90.5305L47.7355 91.2897H47.76ZM52.6827 96.9716L49.0826 91.9754L49.254 97.094H48.4213L48.2009 90.6039H49.0826L52.6827 95.5756L52.5113 90.457H53.3439L53.5644 96.9471H52.6827V96.9716ZM57.5074 96.4573L56.6502 96.6042L55.7441 90.9223L53.6133 91.2652L53.4909 90.506L58.6095 89.6978L58.7319 90.457L56.6012 90.7999L57.5074 96.4818V96.4573ZM71.9081 91.2897C71.6631 91.6081 71.3203 91.8775 70.9284 92.0979C70.4141 92.3673 69.9243 92.5387 69.508 92.5632C69.0671 92.5877 68.6753 92.5142 68.3079 92.3183C67.9405 92.1224 67.6467 91.8285 67.4507 91.4611L68.1365 91.0203C68.3324 91.2897 68.5283 91.4856 68.7487 91.6081C68.9692 91.7305 69.2386 91.7795 69.557 91.755C69.8753 91.7305 70.1937 91.6326 70.5366 91.4611C70.8305 91.3142 71.0509 91.1183 71.2468 90.9223C71.4182 90.7264 71.5162 90.506 71.5652 90.3101C71.5897 90.0896 71.5652 89.9182 71.4672 89.7223C71.3693 89.5508 71.2468 89.4039 71.0509 89.3304C70.8795 89.2569 70.6345 89.2325 70.3651 89.257C70.1692 89.257 69.7773 89.3549 69.1896 89.5264C68.6018 89.6733 68.1609 89.7468 67.8915 89.7468C67.5487 89.7468 67.2303 89.6733 66.9854 89.5264C66.7405 89.3794 66.5445 89.1835 66.3976 88.9141C66.2507 88.6202 66.1772 88.3018 66.2017 87.9589C66.2262 87.6161 66.3731 87.2977 66.618 87.0038C66.8629 86.7099 67.1813 86.465 67.5732 86.2446C68.014 86.0242 68.4059 85.8772 68.8222 85.8527C69.2141 85.8037 69.5814 85.8772 69.8998 86.0486C70.2182 86.2201 70.4631 86.465 70.659 86.8079L69.9488 87.2487C69.7039 86.9058 69.4345 86.7099 69.1161 86.6364C68.7977 86.563 68.4059 86.6364 67.965 86.8813C67.4997 87.1262 67.2058 87.3956 67.0833 87.665C66.9609 87.9344 66.9609 88.2038 67.0833 88.4488C67.2058 88.6447 67.3527 88.7916 67.5732 88.8406C67.7936 88.8896 68.2589 88.8406 68.9447 88.6447C69.6304 88.4487 70.1202 88.3508 70.4141 88.3263C70.8305 88.3263 71.1733 88.3753 71.4672 88.5222C71.7611 88.6692 71.9815 88.9141 72.153 89.208C72.3244 89.5263 72.3734 89.8447 72.3489 90.2121C72.3244 90.5795 72.1775 90.9223 71.9326 91.2407L71.9081 91.2897ZM75.5327 89.2325L73.8673 87.0283L69.6059 85.5343L70.4386 84.8976L72.6428 85.7058C73.0591 85.8527 73.451 86.0242 73.8429 86.1956C73.7939 85.8037 73.7449 85.3629 73.7204 84.8486L73.5735 82.5464L74.3817 81.9342L74.5776 86.514L76.243 88.7181L75.5572 89.2325H75.5327ZM81.533 83.9669C81.3861 84.3588 81.1656 84.7016 80.8227 85.0445C80.4064 85.4609 79.9901 85.7548 79.5982 85.9017C79.2063 86.0731 78.79 86.0976 78.3736 86.0242C77.9573 85.9507 77.6144 85.7548 77.2961 85.4364L77.8104 84.7996C78.0798 84.9955 78.3247 85.1425 78.5696 85.1915C78.8145 85.2404 79.0839 85.1915 79.4023 85.0935C79.6962 84.971 79.9901 84.7751 80.235 84.5302C80.4554 84.3098 80.6268 84.0649 80.7493 83.82C80.8717 83.5751 80.8962 83.3546 80.8717 83.1342C80.8472 82.9138 80.7493 82.7424 80.6023 82.5954C80.4554 82.4485 80.2839 82.375 80.088 82.3505C79.8921 82.326 79.6717 82.3505 79.4023 82.4975C79.2308 82.5709 78.888 82.7669 78.3492 83.0852C77.8349 83.4036 77.4185 83.5996 77.1736 83.6975C76.8307 83.7955 76.5368 83.82 76.243 83.771C75.9736 83.6975 75.7286 83.5751 75.5082 83.3546C75.2878 83.1342 75.1164 82.8403 75.0429 82.4975C74.9694 82.1546 75.0184 81.8117 75.1654 81.4444C75.3123 81.077 75.5327 80.7586 75.8511 80.4402C76.194 80.0974 76.5368 79.8524 76.9287 79.7055C77.2961 79.5586 77.6634 79.5096 78.0063 79.583C78.3492 79.6565 78.6676 79.828 78.9614 80.0974L78.4226 80.7341C78.1043 80.4647 77.7614 80.3668 77.443 80.3912C77.1246 80.4157 76.7817 80.6117 76.4144 80.979C76.047 81.3464 75.8511 81.6893 75.8021 81.9831C75.7776 82.277 75.8511 82.5464 76.047 82.7179C76.2185 82.8893 76.4144 82.9628 76.6348 82.9383C76.8552 82.9383 77.2716 82.7424 77.8838 82.3505C78.4961 81.9587 78.9369 81.7138 79.2063 81.6158C79.5982 81.4688 79.9656 81.4199 80.2595 81.4933C80.5778 81.5668 80.8717 81.7138 81.1167 81.9587C81.3616 82.2036 81.533 82.4975 81.6065 82.8648C81.6799 83.2322 81.6554 83.5996 81.5085 83.9669H81.533ZM84.3494 81.126L79.7451 77.6728L78.4471 79.3871L77.8349 78.9218L80.9452 74.7828L81.5575 75.2481L80.2595 76.9625L84.8638 80.4157L84.3494 81.1015V81.126ZM86.921 77.6483L81.2146 74.4889L83.4922 70.3745L84.178 70.7418L82.3167 74.1216L84.0556 75.1012L85.7944 71.9419L86.4557 72.3092L84.7168 75.4686L86.6516 76.5462L88.5864 73.044L89.2721 73.4113L86.921 77.6728V77.6483ZM91.6232 67.2886L86.4801 65.4273L90.962 69.0765L90.6926 69.8112L84.8392 69.6887L90.0558 71.599L89.7619 72.3827L83.6392 70.154L84.08 68.9295L88.9537 69.052C89.3946 69.052 89.7374 69.052 89.9578 69.1009C89.7619 68.954 89.468 68.7336 89.1007 68.4152L85.3781 65.4028L85.7699 64.3007L91.8926 66.5294L91.5988 67.3131L91.6232 67.2886Z" fill="#005088"></path><path d="M81.7542 39.2954H18.7881V41.4261H81.7542V39.2954Z" fill="#005088"></path><path d="M81.6324 61.8267H18.8867V63.492H81.6324V61.8267Z" fill="#9C9C9A"></path><path d="M26.1846 44.5361H23.0498V57.9816H26.1846V44.5361Z" fill="#9C9C9A"></path><path fill-rule="evenodd" clip-rule="evenodd" d="M44.7236 44.5361H47.7115L54.8139 52.4467V44.5361H58.0712V57.9816H55.3282C55.0343 57.6388 54.569 57.1 53.9077 56.3897C53.271 55.655 52.6342 54.9203 51.9729 54.1855C51.3362 53.4508 50.5035 52.5202 49.5238 51.4181C48.5442 50.2915 48.0299 49.7282 48.0054 49.7037V58.0061H44.7236V44.5606V44.5361Z" fill="#9C9C9A"></path><path fill-rule="evenodd" clip-rule="evenodd" d="M73.9914 44.462H74.4078V47.6703H77.9834V49.8745H74.4078V53.4257C74.4078 53.891 74.4323 54.2828 74.4813 54.6012C74.5302 54.9196 74.6772 55.189 74.8976 55.3849C75.118 55.6053 75.4609 55.7033 75.9017 55.7033C76.2201 55.7033 76.4895 55.6788 76.7344 55.5809C76.9548 55.5074 77.3712 55.336 77.9834 55.091V57.4177C77.5916 57.5401 77.2732 57.6626 77.0038 57.7361C76.7344 57.8095 76.465 57.883 76.1711 57.9565C75.8772 58.0055 75.5344 58.0299 75.1425 58.0299C73.869 58.0299 72.9383 57.6871 72.3016 56.9768C71.6648 56.2911 71.3464 55.287 71.3464 54.0134V49.85H69.877V49.2622L74.0159 44.4375L73.9914 44.462Z" fill="#9C9C9A"></path><path fill-rule="evenodd" clip-rule="evenodd" d="M64.7069 49.2865C64.1191 49.2865 63.6048 49.5069 63.2129 49.9233C62.8211 50.3396 62.5762 50.8784 62.5027 51.5152H66.9355C66.8866 50.8784 66.6417 50.3641 66.2498 49.9233C65.858 49.5069 65.3436 49.2865 64.7069 49.2865ZM64.5109 47.3272C65.5396 47.3272 66.3967 47.4987 67.0825 47.866C67.7682 48.2334 68.307 48.6987 68.6989 49.2865C69.0908 49.8743 69.3601 50.511 69.5316 51.1723C69.6785 51.8336 69.7765 52.5193 69.7765 53.205H62.4537C62.5517 54.1357 62.8701 54.8459 63.4578 55.3113C64.0211 55.7766 64.8293 56.0215 65.8335 56.0215C67.1315 56.0215 68.3805 55.5562 69.605 54.601V56.6583C68.356 57.5644 66.7641 58.0297 64.8049 58.0297C63.7028 58.0297 62.7231 57.8093 61.866 57.3685C61.0088 56.9277 60.3475 56.3154 59.8577 55.5072C59.3924 54.699 59.1475 53.7683 59.1475 52.6907C59.1475 51.6131 59.3924 50.6825 59.8577 49.8743C60.323 49.0416 60.9842 48.4048 61.7924 47.964C62.6006 47.5232 63.5068 47.3027 64.5109 47.3027" fill="#9C9C9A"></path><path fill-rule="evenodd" clip-rule="evenodd" d="M41.4898 49.7773L41.8817 50.8549H42.8858L42.0776 51.4672L42.396 52.4469L41.4898 51.8591L40.5837 52.4469L40.902 51.4672L40.0693 50.8549H41.1225L41.4898 49.7773Z" fill="#005088"></path><path fill-rule="evenodd" clip-rule="evenodd" d="M40.8062 52.7656L41.1736 53.7942H42.2022L41.3695 54.4065L41.6879 55.3862L40.8062 54.7984L39.8756 55.3862L40.2184 54.4065L39.3857 53.7942H40.4144L40.8062 52.7656Z" fill="#005088"></path><path fill-rule="evenodd" clip-rule="evenodd" d="M38.4781 55.0186L38.87 56.0962H39.8741L39.0414 56.7084L39.3842 57.6881L38.4781 57.1003L37.5474 57.6881L37.8903 56.7084L37.0576 56.0962H38.0862L38.4781 55.0186Z" fill="#005088"></path><path fill-rule="evenodd" clip-rule="evenodd" d="M36.4459 52.2754L36.7887 53.304H37.8418L37.0091 53.9408L37.3275 54.9204L36.4459 54.3326L35.4907 54.9204L35.8336 53.9408L35.0254 53.304H36.0295L36.4459 52.2754Z" fill="#005088"></path><path fill-rule="evenodd" clip-rule="evenodd" d="M40.3394 57.5659L40.6823 58.6435H41.7354L40.9027 59.2803L41.2211 60.2844L40.3394 59.6721L39.3843 60.2844L39.7271 59.2803L38.9189 58.6435H39.9231L40.3394 57.5659Z" fill="#005088"></path><path fill-rule="evenodd" clip-rule="evenodd" d="M35.1723 56.0708L35.5887 57.1729H36.5928L35.7846 57.7607L36.0785 58.7893L35.1723 58.177L34.2907 58.7893L34.609 57.7607L33.7764 57.1729H34.805L35.1723 56.0708Z" fill="#005088"></path><path fill-rule="evenodd" clip-rule="evenodd" d="M32.1597 55.0425L32.527 56.1446H33.5556L32.7475 56.7568L33.0658 57.7365L32.1597 57.1487L31.229 57.7365L31.5719 56.7568L30.7637 56.1446H31.7678L32.1597 55.0425Z" fill="#005088"></path><path fill-rule="evenodd" clip-rule="evenodd" d="M29.8823 52.8135L30.2742 53.8666H31.2783L30.4946 54.4789L30.8374 55.483L29.8823 54.8707L29.0006 55.483L29.2945 54.4789L28.4863 53.8666H29.5394L29.8823 52.8135Z" fill="#005088"></path><path fill-rule="evenodd" clip-rule="evenodd" d="M29.1724 49.728L29.5642 50.8056H30.5928L29.7846 51.4179L30.0785 52.3975L29.1724 51.8342L28.2662 52.3975L28.5846 51.4179L27.7764 50.8056H28.805L29.1724 49.728Z" fill="#005088"></path><path fill-rule="evenodd" clip-rule="evenodd" d="M30.0289 46.7158L30.3962 47.7444H31.4493L30.5922 48.3812L30.935 49.3853L30.0289 48.7975L29.0982 49.3853L29.4166 48.3812L28.6084 47.7444H29.637L30.0289 46.7158Z" fill="#005088"></path><path fill-rule="evenodd" clip-rule="evenodd" d="M32.1597 44.3887L32.5271 45.4418H33.5557L32.7475 46.0541L33.0414 47.0582L32.1597 46.4459L31.2536 47.0582L31.5475 46.0541L30.7393 45.4418H31.7679L32.1597 44.3887Z" fill="#005088"></path><path fill-rule="evenodd" clip-rule="evenodd" d="M35.3178 43.6543L35.7342 44.6829H36.7383L35.9301 45.3197L36.224 46.2993L35.3178 45.7115L34.4362 46.2993L34.7301 45.3197L33.9219 44.6829H34.926L35.3178 43.6543Z" fill="#005088"></path><path fill-rule="evenodd" clip-rule="evenodd" d="M38.6265 44.2905L38.9938 45.3436H40.0224L39.1897 45.9804L39.5326 46.96L38.6265 46.3723L37.6958 46.96L38.0387 45.9804L37.2305 45.3436H38.2346L38.6265 44.2905Z" fill="#005088"></path><path fill-rule="evenodd" clip-rule="evenodd" d="M40.5357 46.667L40.9031 47.6956H41.9317L41.1235 48.3324L41.4174 49.3365L40.5357 48.7242L39.6296 49.3365L39.9234 48.3324L39.1152 47.6956H40.1194L40.5357 46.667Z" fill="#005088"></path></svg>