<svg xmlns="http://www.w3.org/2000/svg" width="25" height="25" viewBox="0 0 25 25" fill="none"><g clip-path="url(#clip0_4023_20413)"><path d="M12.6045 3.19922C10.2175 3.19922 7.92836 4.14743 6.24053 5.83526C4.5527 7.52308 3.60449 9.81227 3.60449 12.1992H0.604492L4.60449 16.1992L8.60449 12.1992H5.60449C5.60449 10.3427 6.34199 8.56223 7.65474 7.24947C8.9675 5.93672 10.748 5.19922 12.6045 5.19922C14.461 5.19922 16.2415 5.93672 17.5542 7.24947C18.867 8.56223 19.6045 10.3427 19.6045 12.1992C19.6045 14.0557 18.867 15.8362 17.5542 17.149C16.2415 18.4617 14.461 19.1992 12.6045 19.1992C11.1045 19.1992 9.69449 18.6992 8.54449 17.8992L7.10449 19.3392C8.64449 20.4992 10.5445 21.1992 12.6045 21.1992C14.9914 21.1992 17.2806 20.251 18.9685 18.5632C20.6563 16.8754 21.6045 14.5862 21.6045 12.1992C21.6045 9.81227 20.6563 7.52308 18.9685 5.83526C17.2806 4.14743 14.9914 3.19922 12.6045 3.19922ZM14.6045 12.1992C14.6045 11.6688 14.3938 11.1601 14.0187 10.785C13.6436 10.4099 13.1349 10.1992 12.6045 10.1992C12.0741 10.1992 11.5654 10.4099 11.1903 10.785C10.8152 11.1601 10.6045 11.6688 10.6045 12.1992C10.6045 12.7297 10.8152 13.2384 11.1903 13.6134C11.5654 13.9885 12.0741 14.1992 12.6045 14.1992C13.1349 14.1992 13.6436 13.9885 14.0187 13.6134C14.3938 13.2384 14.6045 12.7297 14.6045 12.1992Z" fill="#006AFF"></path></g><defs><clipPath id="clip0_4023_20413"><rect width="24" height="24" fill="white" transform="translate(0.604492 0.199219)"></rect></clipPath></defs></svg>