<svg xmlns="http://www.w3.org/2000/svg" width="25" height="25" viewBox="0 0 25 25" fill="none"><path d="M19.6045 21.1992H8.60449V7.19922H19.6045M19.6045 5.19922H8.60449C8.07406 5.19922 7.56535 5.40993 7.19028 5.78501C6.81521 6.16008 6.60449 6.66879 6.60449 7.19922V21.1992C6.60449 21.7297 6.81521 22.2384 7.19028 22.6134C7.56535 22.9885 8.07406 23.1992 8.60449 23.1992H19.6045C20.1349 23.1992 20.6436 22.9885 21.0187 22.6134C21.3938 22.2384 21.6045 21.7297 21.6045 21.1992V7.19922C21.6045 6.66879 21.3938 6.16008 21.0187 5.78501C20.6436 5.40993 20.1349 5.19922 19.6045 5.19922ZM16.6045 1.19922H4.60449C4.07406 1.19922 3.56535 1.40993 3.19028 1.78501C2.81521 2.16008 2.60449 2.66879 2.60449 3.19922V17.1992H4.60449V3.19922H16.6045V1.19922Z" fill="#006AFF"></path></svg>