<svg xmlns="http://www.w3.org/2000/svg" width="21" height="21" viewBox="0 0 21 21" fill="none"><path d="M10.333 1.45898C12.3221 1.45898 14.2298 2.24916 15.6363 3.65568C17.0428 5.06221 17.833 6.96986 17.833 8.95898C17.833 12.064 15.4663 15.3173 10.833 18.7923C10.6888 18.9005 10.5133 18.959 10.333 18.959C10.1527 18.959 9.97725 18.9005 9.83301 18.7923C5.19967 15.3173 2.83301 12.064 2.83301 8.95898C2.83301 6.96986 3.62318 5.06221 5.02971 3.65568C6.43623 2.24916 8.34388 1.45898 10.333 1.45898ZM10.333 6.45898C9.66997 6.45898 9.03408 6.72238 8.56524 7.19122C8.0964 7.66006 7.83301 8.29594 7.83301 8.95898C7.83301 9.62203 8.0964 10.2579 8.56524 10.7268C9.03408 11.1956 9.66997 11.459 10.333 11.459C10.996 11.459 11.6319 11.1956 12.1008 10.7268C12.5696 10.2579 12.833 9.62203 12.833 8.95898C12.833 8.29594 12.5696 7.66006 12.1008 7.19122C11.6319 6.72238 10.996 6.45898 10.333 6.45898Z" fill="#006AFF"></path></svg>