<svg xmlns="http://www.w3.org/2000/svg" width="20" height="20" viewBox="0 0 20 20" fill="none"><path d="M10 0.833496C11.9891 0.833496 13.8968 1.62367 15.3033 3.0302C16.7098 4.43672 17.5 6.34437 17.5 8.3335C17.5 11.4385 15.1333 14.6918 10.5 18.1668C10.3558 18.275 10.1803 18.3335 10 18.3335C9.81969 18.3335 9.64425 18.275 9.5 18.1668C4.86667 14.6918 2.5 11.4385 2.5 8.3335C2.5 6.34437 3.29018 4.43672 4.6967 3.0302C6.10322 1.62367 8.01088 0.833496 10 0.833496ZM10 5.8335C9.33696 5.8335 8.70107 6.09689 8.23223 6.56573C7.76339 7.03457 7.5 7.67045 7.5 8.3335C7.5 8.99654 7.76339 9.63242 8.23223 10.1013C8.70107 10.5701 9.33696 10.8335 10 10.8335C10.663 10.8335 11.2989 10.5701 11.7678 10.1013C12.2366 9.63242 12.5 8.99654 12.5 8.3335C12.5 7.67045 12.2366 7.03457 11.7678 6.56573C11.2989 6.09689 10.663 5.8335 10 5.8335Z" fill="#006AFF"></path></svg>