<svg width="30" height="30" viewBox="0 0 30 30" fill="none" xmlns="http://www.w3.org/2000/svg">
<path d="M8.75 25H21.25" stroke="#006AFF" stroke-width="2" stroke-linecap="round" stroke-linejoin="round"/>
<path d="M12.5 25C19.375 21.875 13.5 17 16.25 12.5" stroke="#006AFF" stroke-width="2" stroke-linecap="round" stroke-linejoin="round"/>
<path d="M11.875 11.7502C13.25 12.7502 14.125 14.5002 14.75 16.3752C12.25 16.8752 10.375 16.8752 8.75 16.0002C7.25 15.2502 5.875 13.6252 5 10.7502C8.5 10.1252 10.5 10.7502 11.875 11.7502Z" stroke="#006AFF" stroke-width="2" stroke-linecap="round" stroke-linejoin="round"/>
<path d="M17.6252 7.5C16.6722 8.98945 16.1928 10.7327 16.2502 12.5C18.6252 12.375 20.3752 11.75 21.6252 10.75C22.8752 9.5 23.6252 7.875 23.7502 5C20.3752 5.125 18.7502 6.25 17.6252 7.5Z" stroke="#006AFF" stroke-width="2" stroke-linecap="round" stroke-linejoin="round"/>
</svg>
