<svg width="30" height="30" viewBox="0 0 30 30" fill="none" xmlns="http://www.w3.org/2000/svg">
<path d="M15 6.24982C15.0015 5.74986 14.903 5.25465 14.7103 4.79332C14.5176 4.33199 14.2345 3.91385 13.8779 3.5635C13.5212 3.21315 13.0981 2.93766 12.6334 2.75323C12.1686 2.56881 11.6718 2.47917 11.1719 2.48958C10.672 2.5 10.1793 2.61027 9.7227 2.8139C9.26609 3.01753 8.8548 3.31042 8.51303 3.67532C8.17127 4.04023 7.90592 4.4698 7.7326 4.93876C7.55927 5.40772 7.48148 5.9066 7.50378 6.40607C6.76903 6.59499 6.08691 6.94863 5.50907 7.44021C4.93123 7.93179 4.47283 8.54841 4.16859 9.24338C3.86434 9.93835 3.72223 10.6934 3.75302 11.4515C3.7838 12.2095 3.98668 12.9506 4.34628 13.6186C3.71401 14.1322 3.21681 14.7926 2.89796 15.5422C2.5791 16.2919 2.44823 17.1081 2.51674 17.9198C2.58524 18.7315 2.85105 19.5143 3.29104 20.1998C3.73102 20.8854 4.33186 21.4531 5.04128 21.8536C4.95368 22.5314 5.00596 23.2199 5.19489 23.8767C5.38382 24.5335 5.7054 25.1446 6.13976 25.6723C6.57412 26.1999 7.11205 26.6329 7.72031 26.9445C8.32857 27.2561 8.99425 27.4397 9.67625 27.484C10.3583 27.5282 11.0421 27.4322 11.6855 27.2018C12.3289 26.9714 12.9183 26.6116 13.4172 26.1445C13.9161 25.6774 14.314 25.113 14.5862 24.4862C14.8585 23.8593 14.9993 23.1833 15 22.4998V6.24982Z" stroke="#006AFF" stroke-width="2" stroke-linecap="round" stroke-linejoin="round"/>
<path d="M15 6.24982C14.9985 5.74986 15.0971 5.25465 15.2898 4.79332C15.4825 4.33199 15.7655 3.91385 16.1222 3.5635C16.4789 3.21315 16.902 2.93766 17.3667 2.75323C17.8314 2.56881 18.3283 2.47917 18.8281 2.48958C19.328 2.5 19.8207 2.61027 20.2773 2.8139C20.734 3.01753 21.1452 3.31042 21.487 3.67532C21.8288 4.04023 22.0941 4.4698 22.2675 4.93876C22.4408 5.40772 22.5186 5.9066 22.4963 6.40607C23.231 6.59499 23.9131 6.94863 24.491 7.44021C25.0688 7.93179 25.5272 8.54841 25.8315 9.24338C26.1357 9.93835 26.2778 10.6934 26.247 11.4515C26.2162 12.2095 26.0134 12.9506 25.6538 13.6186C26.286 14.1322 26.7832 14.7926 27.1021 15.5422C27.421 16.2919 27.5518 17.1081 27.4833 17.9198C27.4148 18.7315 27.149 19.5143 26.709 20.1998C26.269 20.8854 25.6682 21.4531 24.9588 21.8536C25.0464 22.5314 24.9941 23.2199 24.8052 23.8767C24.6162 24.5335 24.2946 25.1446 23.8603 25.6723C23.4259 26.1999 22.888 26.6329 22.2797 26.9445C21.6715 27.2561 21.0058 27.4397 20.3238 27.484C19.6418 27.5282 18.958 27.4322 18.3145 27.2018C17.6711 26.9714 17.0817 26.6116 16.5828 26.1445C16.0839 25.6774 15.686 25.113 15.4138 24.4862C15.1416 23.8593 15.0007 23.1833 15 22.4998V6.24982Z" stroke="#006AFF" stroke-width="2" stroke-linecap="round" stroke-linejoin="round"/>
<path d="M18.75 16.25C17.7006 15.8808 16.7841 15.2087 16.1167 14.3188C15.4492 13.4288 15.0606 12.3608 15 11.25C14.9394 12.3608 14.5508 13.4288 13.8833 14.3188C13.2159 15.2087 12.2994 15.8808 11.25 16.25" stroke="#006AFF" stroke-width="2" stroke-linecap="round" stroke-linejoin="round"/>
<path d="M21.9985 8.125C22.3011 7.60073 22.4722 7.01102 22.4973 6.40625" stroke="#006AFF" stroke-width="2" stroke-linecap="round" stroke-linejoin="round"/>
<path d="M7.50391 6.40625C7.52863 7.01092 7.69932 7.60062 8.00141 8.125" stroke="#006AFF" stroke-width="2" stroke-linecap="round" stroke-linejoin="round"/>
<path d="M4.34619 13.62C4.57487 13.4338 4.81957 13.2681 5.07744 13.125" stroke="#006AFF" stroke-width="2" stroke-linecap="round" stroke-linejoin="round"/>
<path d="M24.9224 13.125C25.1802 13.2681 25.4249 13.4338 25.6536 13.62" stroke="#006AFF" stroke-width="2" stroke-linecap="round" stroke-linejoin="round"/>
<path d="M7.49977 22.5C6.6383 22.5004 5.79135 22.2782 5.04102 21.855" stroke="#006AFF" stroke-width="2" stroke-linecap="round" stroke-linejoin="round"/>
<path d="M24.9587 21.855C24.2084 22.2782 23.3615 22.5004 22.5 22.5" stroke="#006AFF" stroke-width="2" stroke-linecap="round" stroke-linejoin="round"/>
</svg>
