<svg xmlns="http://www.w3.org/2000/svg" width="61" height="45" viewBox="0 0 61 45" fill="none"><path d="M52.4941 26.0629C52.4322 25.8383 52.5445 25.6072 52.7534 25.504C53.4658 25.1523 53.9364 24.4175 53.9364 23.6009L53.8687 9.50128C53.8646 8.71447 53.238 8.07298 52.4512 8.05151L40.4923 7.72457L39.4141 4.78955L51.8716 5.01577C53.5368 5.04631 54.8917 6.4259 54.8917 8.09114V23.6001C54.8917 24.7882 54.2039 25.8565 53.1653 26.3651C52.8962 26.4963 52.5742 26.351 52.4949 26.0629H52.4941Z" fill="white"></path><path d="M17.8453 24.6714V31.0162C17.8453 31.5322 17.5877 31.8137 17.0717 31.8599C16.786 31.8855 16.5004 31.9111 16.2155 31.9367C15.9819 31.9573 15.8077 31.9177 15.6946 31.8178C15.5806 31.7179 15.4659 31.5668 15.3486 31.3629C14.8326 30.5926 14.3166 29.8223 13.8015 29.0496C13.7049 28.8787 13.6173 28.6921 13.5381 28.489C13.4588 28.2859 13.3887 28.0803 13.3267 27.8723C13.3028 27.8739 13.2788 27.8764 13.2549 27.878C13.2896 28.0886 13.3152 28.3049 13.3325 28.527C13.3499 28.749 13.3581 28.9629 13.3581 29.1693V32.1819C12.6704 32.2389 11.9827 32.2934 11.2949 32.3462V26.0014C11.2949 25.4854 11.5533 25.208 12.0685 25.1676C12.3542 25.1453 12.639 25.1222 12.9247 25.099C13.1583 25.0801 13.3309 25.1213 13.4407 25.2221C13.5505 25.3228 13.6677 25.4747 13.7915 25.6778C14.2869 26.4134 14.7823 27.1482 15.2768 27.883C15.3734 28.0465 15.4675 28.2273 15.5608 28.4254C15.6541 28.6236 15.7416 28.8324 15.8242 29.052C15.8481 29.0496 15.8721 29.0479 15.896 29.0454C15.8679 28.8283 15.8465 28.6128 15.8291 28.4015C15.8118 28.1901 15.8027 27.9779 15.8035 27.7641C15.8002 26.7948 15.7969 25.8248 15.7928 24.8555C16.4772 24.7952 17.1617 24.7341 17.8461 24.6714H17.8453Z" fill="white"></path><path d="M21.5598 26.1394C22.5299 26.0478 23.2176 26.1361 23.623 26.4069C24.0292 26.6777 24.2348 27.1161 24.2422 27.7197C24.2488 28.2002 24.106 28.5618 23.8137 28.8028C23.5214 29.0439 22.9972 29.2008 22.2401 29.2726C21.3154 29.361 20.3899 29.4485 19.4652 29.5352C19.4652 29.195 19.4652 28.854 19.4652 28.5139C20.1876 28.4462 20.9092 28.3785 21.6316 28.31C21.8653 28.2877 22.0139 28.2513 22.075 28.201C22.1369 28.1506 22.1674 28.0392 22.1674 27.8674C22.1674 27.7023 22.1262 27.5999 22.0436 27.5595C21.961 27.5199 21.8207 27.5083 21.6209 27.5273C21.4211 27.5397 21.27 27.5743 21.1668 27.6321C21.0636 27.6899 20.9926 27.8014 20.9555 27.9665C20.9175 28.1316 20.8985 28.3859 20.8985 28.7302C20.8985 29.0464 20.9208 29.2916 20.9654 29.4666C21.01 29.6417 21.0975 29.7605 21.2287 29.8233C21.3592 29.8869 21.5515 29.9067 21.8067 29.8819C22.0131 29.8621 22.3028 29.8274 22.6785 29.7787C23.0533 29.7292 23.4603 29.659 23.9012 29.569C23.9664 29.9958 24.0317 30.4235 24.0969 30.8503C23.8558 30.9973 23.5982 31.1187 23.3233 31.2128C23.0484 31.3077 22.7644 31.3829 22.4721 31.4382C22.1798 31.4935 21.8785 31.5356 21.5697 31.5653C20.8547 31.633 20.2801 31.5876 19.8467 31.4291C19.4132 31.2698 19.102 31.0014 18.9129 30.6241C18.7239 30.246 18.6289 29.7647 18.6289 29.1801C18.6289 28.499 18.7247 27.9483 18.9179 27.5289C19.1102 27.1087 19.4215 26.7892 19.8516 26.5704C20.2818 26.3516 20.8506 26.208 21.559 26.1411L21.5598 26.1394Z" fill="white"></path><path d="M25.7796 28.7093C26.1131 28.7357 26.4467 28.763 26.7802 28.7902C26.7042 28.8109 26.6489 28.8662 26.6151 28.9554C26.5804 29.0445 26.5878 29.1279 26.6357 29.2063C26.6836 29.2848 26.7868 29.3228 26.9453 29.3219C27.5711 29.3038 28.1969 29.2872 28.8227 29.2707C29.4147 29.2575 29.8366 29.3723 30.0917 29.6142C30.346 29.8561 30.4731 30.2317 30.4731 30.7403C30.4731 31.2282 30.3699 31.6064 30.1635 31.8722C29.9571 32.1389 29.6351 32.3346 29.1992 32.46C28.7616 32.5864 28.1936 32.6821 27.4919 32.7474C26.8727 32.8051 26.3707 32.825 25.986 32.8068C25.6004 32.7886 25.3015 32.7325 25.0885 32.6392C24.8755 32.5459 24.7294 32.4113 24.6501 32.2322C24.5709 32.0547 24.5312 31.8309 24.5312 31.5626C24.5312 31.3496 24.5742 31.1581 24.66 30.988C24.7459 30.8179 24.9019 30.6586 25.1298 30.51C25.3569 30.3614 25.6797 30.2185 26.0999 30.0823C26.3955 29.989 26.691 29.8957 26.9874 29.8024C27.2211 29.8701 27.4547 29.937 27.6892 30.0047C27.5794 30.0732 27.4687 30.1426 27.3589 30.2111C27.1525 30.3746 26.9907 30.4984 26.8743 30.5818C26.7571 30.6652 26.6745 30.7345 26.6266 30.7907C26.5787 30.8468 26.554 30.9302 26.5548 31.04C26.5548 31.1292 26.5804 31.196 26.6324 31.239C26.6836 31.2819 26.7769 31.3059 26.9106 31.3108C27.0444 31.3158 27.2285 31.3067 27.463 31.2844C27.7247 31.2596 27.927 31.234 28.0714 31.2068C28.2159 31.1795 28.3158 31.1424 28.3703 31.0961C28.4256 31.0499 28.4529 30.9888 28.4529 30.9129C28.4529 30.8229 28.4256 30.7626 28.3703 30.7296C28.315 30.6966 28.2275 30.6776 28.1069 30.6718C27.9864 30.666 27.8337 30.6652 27.6479 30.6685C27.1798 30.6776 26.7125 30.6875 26.2452 30.6974C25.9356 30.699 25.6912 30.6454 25.5129 30.5347C25.3337 30.4241 25.2124 30.2813 25.1463 30.1054C25.0811 29.9296 25.0638 29.7471 25.0951 29.558C25.1257 29.369 25.2016 29.1973 25.3222 29.0412C25.4419 28.8852 25.5955 28.7745 25.7812 28.7085L25.7796 28.7093ZM27.4299 25.5819C28.0764 25.5217 28.5924 25.5266 28.9771 25.5984C29.3627 25.6695 29.6409 25.8164 29.8126 26.0377C29.9844 26.2598 30.0702 26.5694 30.0702 26.969C30.0702 27.3677 29.986 27.6938 29.8176 27.9465C29.6492 28.1991 29.3701 28.3964 28.9821 28.5384C28.5932 28.6804 28.0723 28.7828 27.4192 28.8439C26.7728 28.9042 26.2535 28.9009 25.8613 28.8307C25.4691 28.7613 25.1868 28.616 25.0151 28.3956C24.8425 28.1743 24.7575 27.8647 24.7575 27.466C24.7575 27.0672 24.845 26.7403 25.0208 26.4868C25.1967 26.2333 25.4799 26.0344 25.872 25.8899C26.2642 25.7462 26.7835 25.643 27.4299 25.5828V25.5819ZM27.4192 26.7692C27.1649 26.7931 26.9932 26.8385 26.9032 26.9054C26.814 26.9723 26.7686 27.0953 26.7686 27.2736C26.7686 27.4528 26.8132 27.5683 26.9032 27.622C26.9924 27.6757 27.1649 27.6905 27.4192 27.6666C27.6735 27.6426 27.8436 27.5956 27.9303 27.5262C28.0161 27.4561 28.0591 27.3322 28.0591 27.1531C28.0591 26.9739 28.0161 26.86 27.9303 26.8088C27.8444 26.7584 27.6743 26.7452 27.4192 26.7692ZM30.6589 25.4292C30.6242 25.6967 30.5904 25.965 30.5557 26.2325C30.0744 26.358 29.593 26.4843 29.1117 26.6115C28.9846 26.2754 28.8574 25.9402 28.7303 25.6051C29.3734 25.5456 30.0166 25.487 30.6597 25.4292H30.6589Z" fill="white"></path><path d="M33.7736 25.0158C34.4753 24.958 35.0376 25.0001 35.4603 25.1429C35.8838 25.2849 36.1876 25.5491 36.3734 25.9339C36.5591 26.3186 36.6516 26.8478 36.6516 27.5223C36.6516 28.1828 36.5591 28.7153 36.3734 29.1215C36.1876 29.5277 35.883 29.834 35.4603 30.0429C35.0376 30.2518 34.4753 30.3839 33.7736 30.4425C33.0718 30.5003 32.5096 30.4615 32.0868 30.3228C31.6641 30.1841 31.3578 29.9273 31.1688 29.5525C30.9797 29.1776 30.8848 28.66 30.8848 27.9995C30.8848 27.325 30.9797 26.7809 31.1688 26.3648C31.3578 25.9495 31.6641 25.635 32.0868 25.4228C32.5096 25.2106 33.0718 25.0752 33.7736 25.0166V25.0158ZM33.7736 26.4804C33.6084 26.4936 33.4813 26.5374 33.3921 26.61C33.303 26.6827 33.241 26.8098 33.2064 26.9923C33.1717 27.1739 33.1552 27.4439 33.1552 27.8014C33.1552 28.1456 33.1725 28.4032 33.2064 28.5758C33.241 28.7483 33.3021 28.8614 33.3921 28.9159C33.4813 28.9704 33.6084 28.9911 33.7736 28.977C33.9387 28.9638 34.0658 28.9217 34.155 28.8524C34.2441 28.783 34.3044 28.6592 34.3358 28.4817C34.3663 28.3042 34.382 28.0424 34.382 27.699C34.382 27.3415 34.3672 27.0748 34.3358 26.8982C34.3044 26.7215 34.245 26.6042 34.155 26.5464C34.0658 26.4887 33.9387 26.4664 33.7736 26.4796V26.4804Z" fill="white"></path><path d="M39.9533 24.5603C40.1663 24.5471 40.3999 24.543 40.655 24.5479C40.9085 24.5529 41.1636 24.5768 41.4187 24.6164C41.673 24.6569 41.9034 24.7238 42.1098 24.8154C42.0379 25.2662 41.9653 25.717 41.8926 26.1686C41.5624 26.1867 41.2734 26.2024 41.0266 26.2173C40.7789 26.2322 40.5452 26.2462 40.3248 26.2594C40.1052 26.2734 39.931 26.3114 39.8038 26.3742C39.6767 26.4377 39.5867 26.5409 39.5355 26.6854C39.4835 26.8299 39.4579 27.0363 39.4579 27.3046C39.4579 27.5729 39.4835 27.7777 39.5355 27.9189C39.5867 28.06 39.6759 28.1542 39.8038 28.2012C39.931 28.2483 40.1052 28.2648 40.3248 28.2516C40.442 28.2442 40.5882 28.2342 40.7632 28.2202C40.939 28.2062 41.1331 28.188 41.3461 28.1657C41.5591 28.1434 41.7721 28.1162 41.9859 28.084C42.0511 28.5306 42.1164 28.9781 42.1816 29.4248C41.8786 29.5998 41.5285 29.7302 41.1289 29.8186C40.7302 29.9069 40.3306 29.9639 39.9326 29.9887C39.2589 30.0308 38.7206 29.9796 38.3178 29.8326C37.9157 29.6848 37.6267 29.419 37.4509 29.0326C37.275 28.6462 37.1875 28.1228 37.1875 27.4631C37.1875 26.796 37.2767 26.2586 37.4558 25.8499C37.6342 25.4421 37.9264 25.1349 38.3326 24.9318C38.738 24.7287 39.2779 24.6041 39.9524 24.562L39.9533 24.5603Z" fill="white"></path><path d="M45.0061 26.02V29.6296C44.287 29.6494 43.5687 29.6717 42.8496 29.6973C42.8496 28.4944 42.8496 27.2906 42.8496 26.0877C43.5687 26.0621 44.287 26.0398 45.0061 26.02Z" fill="white"></path><path d="M48.6486 24.1923C49.3495 24.1791 49.9126 24.2608 50.3353 24.4325C50.758 24.6043 51.0626 24.8908 51.2484 25.2895C51.4333 25.6883 51.5274 26.2249 51.5266 26.8986C51.5266 27.5583 51.4333 28.085 51.2484 28.4772C51.0626 28.8693 50.758 29.1542 50.3353 29.3325C49.9117 29.5117 49.3495 29.605 48.6486 29.6182C47.9468 29.6314 47.3854 29.5587 46.9618 29.3953C46.5391 29.2318 46.2328 28.9585 46.0438 28.573C45.8547 28.1874 45.7598 27.6648 45.7598 27.0043C45.7598 26.3306 45.8539 25.7907 46.0438 25.3853C46.2328 24.9799 46.5391 24.6827 46.9618 24.4953C47.3846 24.3079 47.9468 24.2055 48.6486 24.1923ZM48.6486 25.6569C48.4834 25.6602 48.3563 25.6949 48.2671 25.7626C48.1771 25.8295 48.116 25.9533 48.0814 26.1333C48.0467 26.3133 48.0302 26.5816 48.0302 26.9391C48.0302 27.2834 48.0475 27.5418 48.0814 27.7168C48.116 27.8918 48.1771 28.0082 48.2671 28.0685C48.3571 28.1288 48.4834 28.1568 48.6486 28.1535C48.8137 28.1502 48.9408 28.1172 49.03 28.0545C49.1192 27.9909 49.1794 27.872 49.2108 27.6953C49.2413 27.5195 49.2579 27.2594 49.257 26.916C49.257 26.5585 49.2413 26.2902 49.2108 26.1118C49.1794 25.9335 49.12 25.8121 49.03 25.7486C48.9408 25.685 48.8137 25.6544 48.6486 25.6569Z" fill="white"></path><path d="M32.5935 14.1416C32.5968 15.03 32.5968 15.0811 32.5968 15.8126C30.5229 15.9959 26.4097 16.5119 24.3358 16.6613C24.3358 16.1041 24.0039 15.2149 24.0039 14.6584C26.0778 14.5098 30.5196 14.3249 32.5935 14.1416ZM29.0872 15.9918V23.1101C28.3408 23.1729 27.5945 23.234 26.8481 23.2918V16.1734C27.5945 16.1148 28.3408 16.0545 29.0872 15.9918Z" fill="white"></path><path d="M33.0492 17.6029V20.7699C33.0492 20.8797 33.0797 20.9582 33.1425 21.0036C33.2044 21.0498 33.3002 21.0663 33.4315 21.0548C33.5693 21.0424 33.7105 21.0176 33.8542 20.9796C33.9986 20.9425 34.1877 20.8682 34.4214 20.7567C34.4626 21.1068 34.5039 21.4577 34.5452 21.8077C34.1943 22.1635 33.8467 22.4368 33.5033 22.6267C33.1598 22.8166 32.7949 22.9289 32.4094 22.9636C31.3914 23.0552 30.8828 22.6185 30.8828 21.6558C30.8828 20.3695 30.8828 19.0832 30.8828 17.7977C31.6052 17.7342 32.3268 17.669 33.0492 17.6029ZM36.3714 17.2925V22.4509C35.8042 22.5045 35.237 22.5582 34.669 22.611C34.5799 22.2684 34.4899 21.9258 34.4007 21.584C34.3322 21.5493 34.2628 21.5146 34.1943 21.4791V17.4972C34.92 17.4295 35.6457 17.361 36.3714 17.2925Z" fill="white"></path><path d="M53.3713 31.7898C47.7968 32.1448 42.2215 32.6559 36.647 33.1702L7.38681 35.5141C6.88979 35.5537 6.51992 35.9888 6.55955 36.4858C6.59753 36.9581 6.99217 37.3164 7.45781 37.3164C7.48175 37.3164 7.50652 37.3156 7.53129 37.3131L16.7615 36.5733C17.1281 36.5436 17.4608 36.7847 17.5475 37.1422C17.5492 37.1488 17.5508 37.1546 17.5525 37.1612C17.6598 37.6037 17.3502 38.0388 16.8969 38.0817L10.2401 38.7133C9.74391 38.7604 9.37981 39.2004 9.42687 39.6966C9.47146 40.1639 9.86444 40.514 10.3243 40.514C10.3532 40.514 10.3813 40.5123 10.411 40.5098L16.2637 39.8807C16.8416 39.8188 17.3766 40.1944 17.5145 40.7592C17.5161 40.7666 17.5186 40.774 17.5203 40.7823C17.6854 41.4609 17.2181 42.1305 16.5238 42.2097L14.6612 42.4211C14.165 42.4649 13.7976 42.9024 13.8414 43.3994C13.8827 43.8692 14.2765 44.2226 14.7396 44.2226C14.7661 44.2226 14.7933 44.2217 14.8197 44.2193L25.8044 43.2533C34.7102 42.5788 43.6168 41.6624 52.5226 41.1232C53.1855 41.0836 53.7437 40.575 53.8881 39.8758C54.2943 37.915 54.7005 35.9541 55.1067 33.995C55.3495 32.8251 54.4834 31.7196 53.3738 31.7898H53.3713Z" fill="white"></path><path d="M24.3866 37.2093C23.6973 37.2728 23.0087 37.3356 22.3193 37.3967C22.2368 37.8673 22.155 38.337 22.0725 38.8076C22.7074 38.7515 23.3431 38.6945 23.978 38.6359C23.9433 38.8266 23.9094 39.0165 23.8748 39.2072C23.2407 39.265 22.6066 39.322 21.9726 39.3781C21.8875 39.8636 21.8025 40.349 21.7183 40.8345C22.4184 40.7734 23.1177 40.7107 23.8178 40.6463C23.7856 40.8386 23.7534 41.031 23.7212 41.2234C22.8213 41.3051 21.9214 41.386 21.0215 41.4636C21.289 39.9329 21.5556 38.4023 21.8231 36.8716C22.7098 36.794 23.5974 36.7131 24.4841 36.6313C24.4519 36.8237 24.4197 37.0161 24.3875 37.2084L24.3866 37.2093Z" fill="black"></path><path d="M25.0887 41.0977C25.3546 39.5653 25.6204 38.0338 25.8862 36.5015C26.0316 36.4875 26.1777 36.4743 26.323 36.4602C26.915 37.5426 27.5061 38.6242 28.098 39.7057C28.2962 38.549 28.4952 37.3923 28.6933 36.2357C28.8923 36.2167 29.0912 36.1977 29.2902 36.1787C29.0268 37.711 28.7635 39.2434 28.4993 40.7757C28.3465 40.7905 28.1938 40.8046 28.0402 40.8194C27.4549 39.7445 26.8687 38.6687 26.2834 37.593C26.0836 38.7422 25.8846 39.8923 25.6848 41.0415C25.4858 41.0605 25.2869 41.0787 25.0879 41.0968L25.0887 41.0977Z" fill="black"></path><path d="M33.0738 39.7725C33.726 39.7114 34.3782 39.6503 35.0313 39.59C34.9966 39.7824 34.9627 39.9756 34.9281 40.1679C34.0777 40.2464 33.2273 40.3256 32.377 40.4065C32.6428 38.8742 32.9095 37.3419 33.1753 35.8096C33.3743 35.7906 33.5733 35.7724 33.7722 35.7534C33.5394 37.0934 33.3066 38.4325 33.0738 39.7725Z" fill="black"></path><path d="M36.9722 35.4602C37.1712 35.4429 37.3701 35.4247 37.5691 35.4074C37.3033 36.9381 37.0366 38.4687 36.7707 40.0002C36.5718 40.0176 36.3728 40.0357 36.1738 40.0539C36.4397 38.5224 36.7063 36.9917 36.9722 35.4602ZM36.9615 35.0218C37.1464 35.0053 37.3321 34.9888 37.5171 34.9723C37.778 34.6652 38.038 34.3581 38.2989 34.0518C38.0686 34.0716 37.8382 34.0914 37.6079 34.112C37.3924 34.415 37.1769 34.718 36.9623 35.0218H36.9615Z" fill="black"></path><path d="M38.3895 39.8584C38.6553 38.3277 38.9212 36.7979 39.187 35.2681C39.3323 35.2557 39.4785 35.2433 39.6238 35.2317C40.2157 36.3199 40.8069 37.4097 41.3988 38.5011C41.597 37.3477 41.7959 36.1944 41.9941 35.041C42.1931 35.0253 42.392 35.0105 42.591 34.9956C42.3276 36.523 42.0643 38.0503 41.8001 39.5777C41.6473 39.5893 41.4946 39.6017 41.341 39.6132C40.7557 38.5284 40.1695 37.4452 39.5841 36.3636C39.3843 37.5112 39.1854 38.6588 38.9856 39.8064C38.7866 39.8237 38.5876 39.8403 38.3887 39.8576L38.3895 39.8584Z" fill="black"></path><path d="M46.7812 35.2803C46.0918 35.3216 45.4032 35.3654 44.7139 35.4124C44.6313 35.8814 44.5496 36.3495 44.467 36.8184C45.1019 36.7747 45.7376 36.7334 46.3725 36.6946C46.3378 36.8837 46.304 37.0735 46.2693 37.2626C45.6352 37.3014 45.0012 37.3435 44.3671 37.3873C44.2821 37.8711 44.197 38.3549 44.1128 38.8387C44.8129 38.79 45.5122 38.7437 46.2123 38.7C46.1801 38.8915 46.1479 39.0831 46.1157 39.2746C45.2158 39.3308 44.3159 39.3918 43.416 39.4571C43.6835 37.9305 43.9502 36.404 44.2177 34.8783C45.1044 34.8163 45.9919 34.7586 46.8786 34.7065C46.8464 34.8981 46.8142 35.0896 46.782 35.2812L46.7812 35.2803Z" fill="black"></path><path d="M50.541 39.0419C50.4799 38.7067 50.418 38.3706 50.3569 38.0355C49.6782 38.0643 48.9996 38.0974 48.3217 38.1329C48.1376 38.4805 47.9535 38.8289 47.7694 39.1773C47.5523 39.1896 47.3343 39.202 47.1172 39.2144C47.9461 37.659 48.775 36.1077 49.6047 34.5613C49.8309 34.5506 50.0572 34.5407 50.2826 34.5308C50.56 36.0259 50.8365 37.5219 51.1139 39.0187C50.9232 39.0262 50.7325 39.0336 50.541 39.0419ZM48.6272 37.555C49.1696 37.5269 49.7121 37.5013 50.2553 37.4773C50.1199 36.7351 49.9837 35.9937 49.8483 35.2523C49.4413 36.0185 49.0342 36.7863 48.6272 37.555Z" fill="black"></path><path d="M9.66741 30.8373C8.92189 30.8373 8.2127 30.5714 7.6422 30.0736C6.9941 29.5072 6.61928 28.7221 6.58708 27.8618L5.82257 7.471C5.79037 6.61403 6.10328 5.80494 6.70349 5.19234C7.30371 4.57974 8.10454 4.2495 8.964 4.26518L19.5581 4.36095L19.4062 4.79192C18.8201 4.77871 20.4754 7.66915 19.8942 7.72694C18.768 7.83757 10.8398 7.63035 7.41516 7.70795C7.07997 7.71538 6.8166 7.99691 6.82981 8.33128L7.5712 27.8263C7.59349 28.4125 7.8486 28.9475 8.2903 29.3338C8.66925 29.6649 9.13902 29.8449 9.63273 29.854C9.77556 29.8564 9.8928 29.9671 9.90601 30.1091L9.94729 30.5293C9.96298 30.6936 9.83583 30.8397 9.67071 30.8397C9.66989 30.8397 9.66906 30.8397 9.66741 30.8397V30.8373Z" fill="white"></path><path d="M18.5958 14.073L13.497 14.2101C12.667 14.2324 12.0122 14.9234 12.0345 15.7534L12.1716 20.8521C12.1939 21.6821 12.8849 22.3369 13.7149 22.3146L18.8136 22.1775C19.6437 22.1552 20.2984 21.4642 20.2761 20.6342L20.139 15.5355C20.1167 14.7055 19.4258 14.0507 18.5958 14.073Z" stroke="white" stroke-width="2.98" stroke-miterlimit="10"></path><path d="M18.7774 16.2859C18.6676 16.1547 18.5042 16.0812 18.3333 16.0861L14.5569 16.1877L14.3993 15.59C14.377 15.5066 14.3002 15.4488 14.2143 15.4512L13.4688 15.4711C13.3656 15.4735 13.2847 15.5594 13.2872 15.6626C13.2896 15.7658 13.3755 15.8467 13.4787 15.8442L14.0764 15.8286L14.8104 18.6108C14.5041 18.6439 14.2828 18.9196 14.3167 19.2259C14.3481 19.5157 14.5974 19.732 14.8888 19.7229L18.0567 19.6379C18.1599 19.6354 18.2408 19.5495 18.2383 19.4463C18.2358 19.3431 18.15 19.2622 18.0468 19.2647L14.8789 19.3498C14.7757 19.3522 14.6907 19.2713 14.6874 19.1681C14.6841 19.0649 14.7658 18.9799 14.869 18.9766L18.0146 18.8924C18.2746 18.8858 18.4951 18.7017 18.5471 18.4465L18.8971 16.759C18.9318 16.5914 18.8881 16.4172 18.7783 16.2868L18.7774 16.2859Z" fill="white"></path><path d="M17.516 20.9558C17.8247 20.9558 18.0749 20.7055 18.0749 20.3968C18.0749 20.0881 17.8247 19.8379 17.516 19.8379C17.2073 19.8379 16.957 20.0881 16.957 20.3968C16.957 20.7055 17.2073 20.9558 17.516 20.9558Z" fill="white"></path><path d="M15.4691 21.0109C15.7778 21.0109 16.028 20.7607 16.028 20.452C16.028 20.1433 15.7778 19.8931 15.4691 19.8931C15.1604 19.8931 14.9102 20.1433 14.9102 20.452C14.9102 20.7607 15.1604 21.0109 15.4691 21.0109Z" fill="white"></path><path d="M47.117 13.1841L42.026 13.4963C41.1972 13.5472 40.5666 14.2602 40.6174 15.089L40.9297 20.18C40.9805 21.0088 41.6936 21.6394 42.5224 21.5886L47.6134 21.2763C48.4421 21.2255 49.0728 20.5124 49.0219 19.6836L48.7097 14.5926C48.6588 13.7639 47.9458 13.1332 47.117 13.1841Z" stroke="white" stroke-width="2.98" stroke-miterlimit="10"></path><path d="M57.5348 20.7908C57.3656 20.7908 57.1963 20.7289 57.0634 20.6043C56.786 20.3442 56.772 19.9074 57.032 19.63L58.7196 17.8311L56.5936 16.5803C56.2659 16.3871 56.1561 15.9652 56.3492 15.6366C56.5424 15.3088 56.9652 15.199 57.2929 15.3922L60.1619 17.0798C60.3427 17.1863 60.4649 17.3687 60.4946 17.5759C60.5243 17.7832 60.4583 17.9929 60.3155 18.1456L58.0384 20.5729C57.903 20.7174 57.7198 20.7908 57.5356 20.7908H57.5348Z" fill="white"></path><path d="M3.79533 21.6264C3.61287 21.647 3.42216 21.5942 3.2719 21.4654L0.741422 19.3031C0.582081 19.1669 0.493741 18.9663 0.500346 18.7566C0.50695 18.5469 0.6085 18.352 0.776097 18.2265L3.44115 16.2335C3.7458 16.0057 4.17759 16.0676 4.40628 16.3731C4.63415 16.6777 4.57223 17.1095 4.26675 17.3382L2.29191 18.8152L4.16685 20.4169C4.45664 20.6637 4.49049 21.0988 4.24363 21.3886C4.12557 21.5273 3.96376 21.6074 3.79533 21.6255V21.6264Z" fill="white"></path><path d="M20.3803 7.75419C20.5652 7.75419 20.7303 7.64025 20.7972 7.46853L23.3805 0.777832H20.6874L16.916 7.75419H20.3803Z" fill="white"></path><path d="M25.2118 7.75419H27.6737C27.9866 7.75419 28.2475 7.51311 28.2715 7.20103L28.7677 0.777832H26.0745L24.6289 7.02023C24.5422 7.39588 24.8271 7.75501 25.2126 7.75501L25.2118 7.75419Z" fill="white"></path><path d="M32.6346 7.75419H34.9042C35.3468 7.75419 35.6737 7.34221 35.5738 6.91207L34.1529 0.777832H31.459L31.9486 7.12012C31.9766 7.47844 32.2747 7.75419 32.6338 7.75419H32.6346Z" fill="white"></path><path d="M40.0568 7.75419H43.1743L39.5408 0.777832H36.8477L39.3558 7.27369C39.4681 7.56347 39.7464 7.75501 40.0576 7.75501L40.0568 7.75419Z" fill="white"></path><path d="M18.8735 11.1507C19.8973 11.1144 20.6932 10.2426 20.6932 9.21798V8.948C20.6932 8.72426 20.5123 8.54346 20.2886 8.54346H17.3206C17.0968 8.54346 16.916 8.72426 16.916 8.948V9.26256C16.916 10.3284 17.7986 11.1879 18.8735 11.1499V11.1507Z" fill="white"></path><path d="M26.4137 11.1514C27.4375 11.115 28.2333 10.2432 28.2333 9.21862V9.05762C28.2333 8.77444 28.0038 8.54492 27.7206 8.54492H24.9697C24.6865 8.54492 24.457 8.77444 24.457 9.05762V9.26402C24.457 10.3299 25.3396 11.1893 26.4145 11.1514H26.4137Z" fill="white"></path><path d="M32.5049 8.54492C32.2217 8.54492 31.9922 8.77444 31.9922 9.05762V9.21862C31.9922 10.2424 32.7881 11.115 33.8118 11.1514C34.8859 11.1893 35.7693 10.3299 35.7693 9.26402V9.05762C35.7693 8.77444 35.5398 8.54492 35.2566 8.54492H32.5057H32.5049Z" fill="white"></path><path d="M42.7929 8.54492H40.042C39.7588 8.54492 39.5293 8.77444 39.5293 9.05762V9.26402C39.5293 10.3068 40.3747 11.1522 41.4175 11.1522C42.4602 11.1522 43.3056 10.3068 43.3056 9.26402V9.05762C43.3056 8.77444 43.0761 8.54492 42.7929 8.54492Z" fill="white"></path><path d="M46.8815 16.4171C46.9765 16.4427 47.0417 16.5351 47.0384 16.6417C47.0359 16.7308 46.9839 16.8051 46.8906 16.8505L45.7381 17.4128L46.7478 18.4225C46.7824 18.4572 46.7824 18.5133 46.7478 18.548L45.7835 19.5123C45.7488 19.547 45.6926 19.547 45.658 19.5123L44.6483 18.5026L44.086 19.6551C44.0398 19.7484 43.9655 19.8012 43.8771 19.8029C43.8747 19.8029 43.873 19.8029 43.8705 19.8029C43.7665 19.8029 43.6773 19.7393 43.6526 19.646L42.5768 15.6336C42.552 15.5428 42.5719 15.4561 42.6321 15.3966C42.6916 15.3372 42.7783 15.3166 42.8699 15.3413L46.8823 16.4171H46.8815Z" fill="white"></path><path d="M44.4063 23.1769C44.8422 23.1587 45.0602 23.3717 45.0602 23.8142V24.3608C45.0602 24.8041 44.8422 25.0336 44.4063 25.0518C44.0884 25.065 43.7706 25.0799 43.4527 25.0947C43.0168 25.1154 42.7988 24.9048 42.7988 24.4623V23.9158C42.7988 23.4732 43.0168 23.2404 43.4527 23.2198C43.7706 23.2049 44.0884 23.1901 44.4063 23.1769Z" fill="white"></path></svg>