<svg xmlns="http://www.w3.org/2000/svg" width="25" height="25" viewBox="0 0 25 25" fill="none"><path d="M1.10449 11.1992H4.10449V13.1992H1.10449V11.1992ZM5.00449 3.69922L3.60449 5.09922L5.70449 7.19922L7.10449 5.79922L5.00449 3.69922ZM13.1045 1.19922H11.1045V4.19922H13.1045V1.19922ZM20.1045 11.1992V13.1992H23.1045V11.1992H20.1045ZM10.1045 22.1992C10.1045 22.7992 10.5045 23.1992 11.1045 23.1992H13.1045C13.7045 23.1992 14.1045 22.7992 14.1045 22.1992V21.1992H10.1045V22.1992ZM19.2045 3.69922L17.1045 5.79922L18.5045 7.19922L20.6045 5.09922L19.2045 3.69922ZM18.1045 12.1992C18.1045 14.3992 16.9045 16.3992 15.1045 17.3992V19.1992C15.1045 19.7992 14.7045 20.1992 14.1045 20.1992H10.1045C9.50449 20.1992 9.10449 19.7992 9.10449 19.1992V17.3992C7.30449 16.3992 6.10449 14.3992 6.10449 12.1992C6.10449 8.89922 8.80449 6.19922 12.1045 6.19922C15.4045 6.19922 18.1045 8.89922 18.1045 12.1992ZM16.1045 12.1992C16.1045 9.98922 14.3145 8.19922 12.1045 8.19922C9.89449 8.19922 8.10449 9.98922 8.10449 12.1992C8.10449 14.4092 9.89449 16.1992 12.1045 16.1992C14.3145 16.1992 16.1045 14.4092 16.1045 12.1992Z" fill="#006AFF"></path></svg>