<svg xmlns="http://www.w3.org/2000/svg" width="150" height="70" viewBox="0 0 150 70" fill="none"><path d="M35.3815 47.3763L35.2907 47.3603C35.2143 47.3603 35.1378 47.3496 35.0595 47.3496C33.9745 47.3596 32.9023 47.586 31.9058 48.0154C30.9093 48.4448 30.0084 49.0686 29.2559 49.8504C29.4055 50.826 29.7316 51.7662 30.2181 52.625C30.275 52.5414 30.3355 52.4614 30.396 52.3796L30.6254 52.0559C30.789 51.8353 30.9545 51.6207 31.1216 51.412C31.2177 51.2928 31.312 51.1826 31.4062 51.0687C31.5005 50.9549 31.6019 50.8393 31.6997 50.729C31.8242 50.5867 31.9469 50.4498 32.0696 50.3164C32.1924 50.183 32.324 50.0425 32.4503 49.9126L32.7686 49.5925L32.9928 49.3755C33.1706 49.2083 33.3343 49.0535 33.4961 48.9059C33.5619 48.849 33.6259 48.7885 33.6882 48.728L33.9692 48.4862L34.1471 48.3314C34.2805 48.2229 34.4014 48.1233 34.517 48.0326L34.6949 47.8939L34.8728 47.7587L35.0382 47.636L35.184 47.531L35.3103 47.4403L35.3654 47.403L35.4117 47.371C35.4117 47.371 35.3975 47.3798 35.3815 47.3763Z" fill="url(#paint0_linear_4229_46174)"></path><path d="M34.0385 25.2636C34.1835 24.9143 34.3572 24.5775 34.5579 24.2569C34.6753 23.9225 34.8069 23.6077 34.9474 23.3C33.9011 21.2757 32.5848 19.4029 31.0344 17.7329L31.0522 17.7222C30.9366 17.5995 30.8174 17.4804 30.6965 17.3665C30.5755 17.2527 30.5026 17.1638 30.403 17.0659C26.2072 12.8239 21.332 9.75221 18.5876 1.00848C18.3581 0.147626 17.8317 0 17.8317 0C17.355 0.222328 16.4194 0.574496 16.4194 0.574496C15.2516 1.33549 14.177 2.23093 13.2179 3.24244C12.0395 4.42962 11.0557 5.79518 10.3027 7.28881C14.8791 12.0911 19.6548 13.6723 24.2063 16.1695C24.3397 16.2424 24.4695 16.3189 24.6029 16.3936C24.7363 16.4683 24.9213 16.5715 25.0796 16.6604L25.0653 16.6782C28.9912 18.9882 32.2708 22.2513 34.6006 26.1654C34.412 25.863 34.2288 25.5678 34.0385 25.2636Z" fill="url(#paint1_linear_4229_46174)"></path><path d="M37.7255 34.0769C37.7255 34.0769 37.7255 34.0662 37.7255 34.0609C37.1136 31.3004 36.0684 28.6543 34.6289 26.2207C36.0687 28.6598 37.1139 31.3113 37.7255 34.0769Z" fill="url(#paint2_linear_4229_46174)"></path><path d="M25.059 16.6745L25.0732 16.6568C24.9149 16.5643 24.7548 16.4789 24.5965 16.39C24.4383 16.301 24.3333 16.2388 24.1999 16.1676C18.5368 13.0586 12.525 11.3653 6.98636 3.14096C6.48123 2.31924 5.89072 2.32813 5.89072 2.32813C5.46563 2.70698 4.603 3.35973 4.603 3.35973C3.62384 4.51157 2.78387 5.77481 2.10047 7.12331C1.59297 8.08688 1.17617 9.09556 0.855432 10.1363C1.09021 10.6165 1.38902 11.1821 1.74475 11.8207C2.0311 12.2796 2.30857 12.8042 2.6643 13.3147C3.02002 13.8252 3.37575 14.3819 3.7955 14.9155C4.21526 15.4491 4.66347 15.9915 5.12947 16.5358C5.59547 17.0801 6.1344 17.5674 6.6502 18.0814C7.21758 18.5296 7.74228 19.0526 8.34167 19.4421C8.94107 19.8316 9.50312 20.278 10.1203 20.5608C10.6922 20.8925 11.2936 21.1705 11.9167 21.3915C12.5126 21.5978 13.0657 21.8557 13.6171 21.9357L15.1058 22.2559L16.2797 22.3324L17.3131 22.3999L16.2797 22.4533L15.0844 22.5138L13.5353 22.3661C12.9554 22.3466 12.3649 22.1527 11.7193 22.0104C11.0424 21.8546 10.3811 21.6379 9.74323 21.363C9.04779 21.1371 8.40926 20.7476 7.72449 20.4043C7.03972 20.061 6.42787 19.5844 5.768 19.1717C5.15971 18.6951 4.52296 18.2308 3.95914 17.7204C3.39531 17.2099 2.82793 16.703 2.34059 16.1623C1.82478 15.6429 1.36412 15.1111 0.935472 14.5971C0.629548 14.252 0.366311 13.9052 0.111967 13.5691C0.00525672 14.5077 -0.0238912 15.4536 0.0248159 16.3971C0.0584211 18.3308 0.407472 20.2461 1.0582 22.0673C1.15602 22.1527 1.24851 22.2345 1.35345 22.3217C1.7323 22.6134 2.12537 22.9638 2.5807 23.275C3.03603 23.5863 3.50203 23.9402 4.01606 24.255C4.53008 24.5699 5.07078 24.8776 5.62571 25.187C6.18064 25.4965 6.78004 25.7295 7.36876 25.9981C7.97705 26.1938 8.57646 26.4641 9.19542 26.6011C9.81438 26.738 10.4209 26.9354 11.0274 26.9763C11.6061 27.0743 12.1926 27.1183 12.7793 27.108C13.3378 27.0955 13.8803 27.1364 14.3623 27.0315L15.7016 26.8341L16.7048 26.5317L17.5941 26.2649L16.7564 26.6455L15.7746 27.0866L14.4406 27.4655C13.9532 27.6433 13.3983 27.67 12.8149 27.7607C12.2015 27.8509 11.5812 27.8855 10.9616 27.8639C10.3088 27.9012 9.65252 27.7856 8.97131 27.7216C8.29009 27.6576 7.62489 27.4619 6.93656 27.3321C6.27669 27.1346 5.59903 26.9532 4.96051 26.7131C4.32198 26.473 3.68701 26.2329 3.10539 25.9412C3.01113 25.9003 2.92753 25.8505 2.84038 25.8078C3.75567 27.2952 4.86991 28.6506 6.15218 29.8364C7.59898 31.0473 9.16511 32.1081 10.8264 33.0023C10.9918 33.0824 11.1483 33.1802 11.3173 33.2549V33.2638C14.9084 35.1314 19.9703 36.8708 26.4979 36.9882C32.0259 37.4578 36.0047 41.4437 37.5948 46.3865C38.9825 40.7454 38.5117 34.8069 36.2524 29.4549C33.993 24.1029 30.0658 19.6235 25.0554 16.6834L25.059 16.6745Z" fill="url(#paint3_linear_4229_46174)"></path><path d="M48.7163 18.61C40.572 14.962 36.0507 21.333 36.0507 21.333L36.0952 21.3651C35.4327 22.2408 34.9139 23.2164 34.5584 24.2553C34.3577 24.5759 34.184 24.9127 34.0391 25.262C36.0419 28.3522 37.3909 31.8197 38.003 35.4509C38.6151 39.0821 38.4773 42.8002 37.5981 46.3761C37.5981 46.3761 47.3805 44.0639 45.8296 30.6655C46.107 26.9606 48.2965 23.6773 48.9493 22.932C50.5767 22.5496 52.6737 20.401 52.6737 20.401C52.6737 20.401 51.6635 18.8661 48.7163 18.61Z" fill="url(#paint4_linear_4229_46174)"></path><path style="mix-blend-mode:multiply" d="M35.0593 47.3474C35.1376 47.3474 35.2141 47.3563 35.2905 47.3581C34.8067 47.2585 32.7453 46.8494 29.213 47.6302C29.1171 48.3676 29.1315 49.1151 29.2557 49.8482C30.0082 49.0664 30.9091 48.4426 31.9056 48.0132C32.9021 47.5838 33.9743 47.3575 35.0593 47.3474Z" fill="url(#paint5_linear_4229_46174)"></path><path style="mix-blend-mode:multiply" d="M30.2175 52.6243C29.731 51.7655 29.4049 50.8252 29.2553 49.8496C28.1061 51.0349 27.3433 52.5408 27.0677 54.1685C26.7921 55.7963 27.0165 57.4693 27.7114 58.9669C28.0298 56.395 29.1254 54.1735 30.3918 52.3859C30.3349 52.4606 30.2744 52.5407 30.2175 52.6243Z" fill="url(#paint6_linear_4229_46174)"></path><path d="M35.2889 47.3582L35.3742 47.3742C35.1733 47.3369 33.8837 47.0185 31.584 47.2444C33.6774 47.0345 34.926 47.2835 35.2889 47.3582Z" fill="url(#paint7_linear_4229_46174)"></path><path d="M27.7107 58.9673C27.0158 57.4697 26.7913 55.7967 27.0669 54.1689C27.3426 52.5412 28.1053 51.0353 29.2545 49.85C29.1303 49.1169 29.1159 48.3694 29.2118 47.6321C29.9941 47.4582 30.7857 47.3294 31.5827 47.2461C29.8026 47.441 28.0509 47.8409 26.3625 48.4378C10.1645 53.9942 14.282 67.9831 14.7783 69.0787C15.8043 69.5736 16.9215 69.851 18.0598 69.8934C17.9812 69.5094 17.9218 69.1218 17.882 68.7319C17.8035 68.0274 17.7868 67.3174 17.8322 66.61C17.882 66.2543 17.8944 65.8879 17.978 65.5428C18.0397 65.2013 18.1265 64.8649 18.2377 64.5361C18.3283 64.2264 18.4474 63.9257 18.5934 63.6379C18.7086 63.3746 18.8473 63.1222 19.0078 62.8838C19.159 62.6668 19.296 62.4658 19.4169 62.2879L19.7958 61.8806L20.1213 61.5249L19.8438 61.9162L19.5272 62.3609L19.2088 62.9887C19.0853 63.2353 18.9841 63.4924 18.9065 63.7571C18.8048 64.0461 18.7298 64.3438 18.6824 64.6464C18.6176 64.9654 18.5778 65.2889 18.5632 65.614C18.5276 65.9412 18.5632 66.2827 18.5632 66.6154C18.6077 67.2716 18.7094 67.9227 18.8673 68.5612C18.9726 69.0072 19.1057 69.4462 19.2657 69.8756C21.0159 69.7653 22.7447 69.3117 24.486 69.0325C24.4558 68.9756 24.422 68.9276 24.3935 68.8689C24.0246 68.1658 23.7175 67.4321 23.4758 66.6758C23.3833 66.281 23.2481 65.9003 23.193 65.5037C23.1193 65.1222 23.0735 64.7358 23.056 64.3476C23.0239 63.9873 23.0239 63.6248 23.056 63.2644C23.07 62.943 23.1123 62.6234 23.1823 62.3093L23.3601 61.5196C23.4473 61.2955 23.5256 61.0998 23.5878 60.9397C23.7141 60.6196 23.787 60.4382 23.787 60.4382C23.787 60.4382 23.7354 60.6267 23.6483 60.9593C23.6038 61.1229 23.5522 61.315 23.49 61.5516C23.4651 61.7864 23.4349 62.0514 23.4011 62.3395C23.369 62.6486 23.3649 62.9599 23.3886 63.2697C23.3937 63.614 23.4312 63.957 23.5007 64.2942C23.5591 64.6557 23.6441 65.0124 23.755 65.3614C23.8493 65.7171 24.02 66.0729 24.1463 66.4286C24.4531 67.1039 24.8179 67.7514 25.2366 68.3637C25.3593 68.5523 25.4892 68.7195 25.619 68.8884C27.4581 68.7106 29.3203 68.8618 31.2484 70.0001C28.1109 65.895 27.314 62.1634 27.7107 58.9673Z" fill="url(#paint8_linear_4229_46174)"></path><path d="M52.7383 56.2725V42.1484H55.3956V53.6704H62.5972V56.269L52.7383 56.2725Z" fill="white"></path><path d="M68.2969 56.2725V42.1484H70.9648V56.2725H68.2969Z" fill="white"></path><path d="M128.24 56.2725V42.1484H130.899V56.2725H128.24Z" fill="white"></path><path d="M140.927 55.7216C140.09 55.3615 139.33 54.8461 138.686 54.2026C138.025 53.5655 137.508 52.7956 137.167 51.9438C136.787 51.0758 136.592 50.138 136.596 49.1905C136.595 47.9823 136.905 46.7941 137.494 45.7395C138.084 44.685 138.934 43.7991 139.963 43.1667C140.992 42.5342 142.167 42.1762 143.374 42.127C144.581 42.0777 145.781 42.3388 146.858 42.8852C147.842 43.3748 148.696 44.0911 149.348 44.9751L149.653 45.354L147.621 46.8534L147.335 46.4745C146.915 45.9042 146.366 45.4416 145.732 45.1247C145.099 44.8077 144.399 44.6456 143.691 44.6514C142.914 44.6514 142.15 44.8499 141.472 45.2281C140.793 45.6063 140.223 46.1516 139.815 46.8122C139.406 47.4728 139.174 48.2269 139.138 49.0028C139.103 49.7786 139.267 50.5506 139.615 51.2453C139.962 51.9401 140.481 52.5345 141.122 52.9723C141.764 53.4101 142.507 53.6766 143.28 53.7466C144.054 53.8165 144.832 53.6876 145.542 53.3721C146.252 53.0566 146.869 52.5649 147.335 51.9438L147.621 51.5881L149.633 53.0679L149.329 53.4485C148.676 54.3285 147.826 55.043 146.847 55.5345C145.867 56.026 144.786 56.2807 143.691 56.2783C142.742 56.2769 141.802 56.0877 140.927 55.7216Z" fill="white"></path><path d="M85.6162 45.4691V51.392L79.3679 42.1484H76.7871V56.2725H79.4462V47.0094L85.7158 56.2725H88.2735V45.4691H85.6162Z" fill="white"></path><path opacity="0.8" d="M99.091 48.9019L106.268 42.1484H102.458L96.825 47.4452V42.1484H94.1855V56.2725H96.825V51.0362L99.0857 48.893L99.091 48.9019Z" fill="white"></path><path opacity="0.8" d="M102.668 49.2656L100.674 51.1207L104.343 56.2716H107.657L102.668 49.2656Z" fill="white"></path><path d="M116.599 56.2432V44.7373H113.127V42.1191H122.732V44.7373H119.258V56.2432H116.599Z" fill="white"></path><path d="M56.0918 63.5991H53.3243V63.6151C53.4025 64.2109 53.8578 64.6574 54.3665 64.6663C54.6954 64.6512 55.0076 64.5172 55.2452 64.2892L55.809 64.6271C55.6702 64.7835 55.509 64.9183 55.3306 65.0273C55.0409 65.1917 54.7154 65.2827 54.3825 65.2924C54.1526 65.2937 53.9251 65.2454 53.7154 65.1509C53.5058 65.0563 53.319 64.9178 53.1677 64.7445C52.8817 64.4344 52.7098 64.036 52.6804 63.6151C52.6768 63.56 52.6768 63.5048 52.6804 63.4497C52.6809 63.3074 52.6964 63.1655 52.7266 63.0264C52.7971 62.7021 52.9517 62.4022 53.1749 62.1566C53.3289 61.9879 53.5166 61.8532 53.7258 61.7613C53.935 61.6695 54.1612 61.6223 54.3897 61.6231C54.6195 61.6223 54.8469 61.6694 55.0576 61.7612C55.2683 61.8531 55.4575 61.9877 55.6134 62.1566C55.8386 62.4005 55.993 62.7012 56.0598 63.0264C56.0956 63.2151 56.1064 63.4076 56.0918 63.5991ZM55.3804 63.0353V63.0193C55.3157 62.8024 55.185 62.6111 55.0065 62.4721C54.8279 62.3331 54.6104 62.2533 54.3843 62.2438C54.159 62.2558 53.9427 62.3366 53.7646 62.4752C53.5865 62.6139 53.4552 62.8037 53.3883 63.0193V63.0353H55.3804Z" fill="white"></path><path d="M59.8857 61.6387L58.4201 65.2315H57.6909L56.2324 61.6405H56.9617L58.0591 64.3422L59.1494 61.644L59.8857 61.6387Z" fill="white"></path><path d="M63.8518 63.4352C63.8499 63.9338 63.6511 64.4113 63.2986 64.7638C62.9461 65.1163 62.4685 65.3152 61.97 65.317C61.4719 65.317 60.9942 65.1191 60.6419 64.7669C60.2897 64.4147 60.0918 63.9369 60.0918 63.4388C60.0918 62.9407 60.2897 62.4629 60.6419 62.1107C60.9942 61.7585 61.4719 61.5606 61.97 61.5606C62.2169 61.5594 62.4615 61.607 62.6899 61.7007C62.9183 61.7944 63.1259 61.9324 63.3008 62.1066C63.4756 62.2808 63.6143 62.4879 63.7089 62.7159C63.8035 62.9439 63.8521 63.1884 63.8518 63.4352ZM63.1777 63.4352C63.1781 63.1963 63.1075 62.9626 62.9751 62.7638C62.8426 62.565 62.6541 62.4099 62.4334 62.3182C62.2128 62.2265 61.9699 62.2024 61.7355 62.2488C61.5011 62.2952 61.2858 62.41 61.1167 62.5789C60.9476 62.7477 60.8324 62.9629 60.7857 63.1972C60.7389 63.4315 60.7628 63.6744 60.8541 63.8952C60.9455 64.116 61.1003 64.3047 61.2989 64.4375C61.4975 64.5703 61.7311 64.6412 61.97 64.6412C62.1287 64.6419 62.2859 64.6112 62.4326 64.5508C62.5793 64.4905 62.7127 64.4017 62.8249 64.2896C62.9372 64.1775 63.0262 64.0443 63.0867 63.8977C63.1473 63.7511 63.1782 63.5939 63.1777 63.4352Z" fill="white"></path><path d="M64.5527 65.232V59.4746H65.2197V65.232H64.5527Z" fill="white"></path><path d="M66.209 63.693V61.6387H66.8831V63.693C66.8939 63.9478 67.0027 64.1885 67.1868 64.365C67.3709 64.5415 67.6161 64.64 67.8711 64.64C68.1261 64.64 68.3713 64.5415 68.5554 64.365C68.7395 64.1885 68.8483 63.9478 68.8591 63.693V61.6387H69.5332V63.693C69.5327 63.9085 69.4886 64.1217 69.4036 64.3197C69.3186 64.5178 69.1945 64.6966 69.0388 64.8455C68.7209 65.1428 68.3019 65.3081 67.8667 65.3081C67.4315 65.3081 67.0125 65.1428 66.6946 64.8455C66.5404 64.6959 66.418 64.5167 66.3346 64.3186C66.2511 64.1206 66.2084 63.9079 66.209 63.693Z" fill="white"></path><path d="M73.6551 64.5384C73.591 64.6167 73.5288 64.695 73.4576 64.7661C73.1022 65.1127 72.6254 65.3067 72.129 65.3067C71.6326 65.3067 71.1558 65.1127 70.8004 64.7661C70.5373 64.5036 70.3583 64.1689 70.2859 63.8044C70.2135 63.4399 70.2511 63.0621 70.3939 62.719C70.5366 62.376 70.7781 62.083 71.0877 61.8775C71.3973 61.6719 71.761 61.563 72.1326 61.5646C72.3777 61.5616 72.621 61.6073 72.8485 61.6989C73.0759 61.7904 73.2829 61.9262 73.4576 62.0982C73.5267 62.1661 73.5898 62.2399 73.6462 62.3187L73.1126 62.7171C72.9897 62.5513 72.8264 62.4198 72.6382 62.3349C72.4501 62.2501 72.2433 62.2148 72.0377 62.2324C71.8321 62.2501 71.6344 62.32 71.4634 62.4356C71.2925 62.5513 71.154 62.7087 71.061 62.893C70.9681 63.0773 70.9239 63.2823 70.9326 63.4885C70.9413 63.6947 71.0027 63.8952 71.1108 64.071C71.2189 64.2468 71.3702 64.3921 71.5503 64.4929C71.7304 64.5937 71.9333 64.6467 72.1397 64.6469C72.3308 64.6456 72.5188 64.5985 72.688 64.5097C72.8573 64.4209 73.0028 64.293 73.1126 64.1365L73.6551 64.5384Z" fill="white"></path><path d="M74.4121 60.6068C74.4121 60.4888 74.459 60.3757 74.5423 60.2923C74.6257 60.209 74.7388 60.1621 74.8568 60.1621C74.9747 60.1621 75.0878 60.209 75.1712 60.2923C75.2546 60.3757 75.3014 60.4888 75.3014 60.6068C75.3014 60.7247 75.2546 60.8378 75.1712 60.9212C75.0878 61.0046 74.9747 61.0514 74.8568 61.0514C74.7388 61.0514 74.6257 61.0046 74.5423 60.9212C74.459 60.8378 74.4121 60.7247 74.4121 60.6068ZM74.5224 61.633H75.1965V65.2312H74.5224V61.633Z" fill="white"></path><path d="M79.8302 63.4352C79.8274 63.9338 79.6279 64.411 79.2753 64.7634C78.9226 65.1157 78.4451 65.3147 77.9466 65.317C77.4485 65.317 76.9707 65.1191 76.6185 64.7669C76.2662 64.4147 76.0684 63.9369 76.0684 63.4388C76.0684 62.9407 76.2662 62.4629 76.6185 62.1107C76.9707 61.7584 77.4485 61.5606 77.9466 61.5606C78.1935 61.5596 78.4381 61.6074 78.6665 61.7012C78.8948 61.795 79.1024 61.9329 79.2774 62.107C79.4524 62.2812 79.5913 62.4881 79.6861 62.716C79.781 62.944 79.8299 63.1884 79.8302 63.4352ZM79.1543 63.4352C79.1546 63.1963 79.0841 62.9626 78.9516 62.7638C78.8191 62.565 78.6306 62.4099 78.41 62.3182C78.1893 62.2265 77.9465 62.2024 77.7121 62.2488C77.4777 62.2952 77.2623 62.41 77.0933 62.5789C76.9242 62.7477 76.809 62.9629 76.7622 63.1972C76.7155 63.4315 76.7393 63.6744 76.8307 63.8952C76.922 64.116 77.0768 64.3047 77.2754 64.4375C77.4741 64.5703 77.7077 64.6411 77.9466 64.6411C78.1052 64.6418 78.2625 64.6112 78.4092 64.5508C78.5559 64.4905 78.6892 64.4017 78.8015 64.2896C78.9138 64.1775 79.0027 64.0443 79.0633 63.8977C79.1238 63.7511 79.1548 63.5939 79.1543 63.4352Z" fill="white"></path><path d="M83.9752 63.3026V65.2324H83.3011V63.3026C83.3207 63.1521 83.3079 62.9992 83.2637 62.854C83.2194 62.7088 83.1447 62.5748 83.0446 62.4608C82.9444 62.3468 82.8211 62.2554 82.6829 62.1929C82.5446 62.1303 82.3946 62.0979 82.2428 62.0979C82.0911 62.0979 81.9411 62.1303 81.8028 62.1929C81.6646 62.2554 81.5413 62.3468 81.4411 62.4608C81.3409 62.5748 81.2663 62.7088 81.222 62.854C81.1778 62.9992 81.165 63.1521 81.1846 63.3026V65.2324H80.5176V61.6396H81.1917V61.9846C81.4923 61.7328 81.8672 61.5866 82.2589 61.5684C82.4871 61.5664 82.7136 61.6099 82.9249 61.6963C83.1362 61.7828 83.3282 61.9104 83.4897 62.0718C83.8073 62.4021 83.9818 62.8444 83.9752 63.3026Z" fill="white"></path><path d="M87.6728 61.6379H88.3433V65.2307H87.6674V64.8163C87.3342 65.1156 86.9073 65.2898 86.4597 65.309C86.2088 65.3167 85.9589 65.274 85.7248 65.1833C85.4907 65.0926 85.2772 64.9558 85.097 64.7811C84.9168 64.6063 84.7735 64.3971 84.6756 64.1659C84.5778 63.9348 84.5273 63.6863 84.5273 63.4352C84.5273 63.1842 84.5778 62.9357 84.6756 62.7045C84.7735 62.4733 84.9168 62.2641 85.097 62.0894C85.2772 61.9146 85.4907 61.7778 85.7248 61.6871C85.9589 61.5964 86.2088 61.5537 86.4597 61.5614C86.9076 61.5804 87.3348 61.7553 87.6674 62.0559L87.6728 61.6379ZM87.6728 63.4343C87.6714 63.1958 87.5993 62.963 87.4658 62.7653C87.3322 62.5677 87.1431 62.414 86.9223 62.3237C86.7015 62.2333 86.4589 62.2104 86.2251 62.2578C85.9914 62.3052 85.7768 62.4208 85.6086 62.59C85.4404 62.7592 85.3261 62.9744 85.2801 63.2084C85.2341 63.4425 85.2584 63.685 85.35 63.9052C85.4416 64.1255 85.5964 64.3137 85.7949 64.4461C85.9933 64.5785 86.2265 64.6491 86.4651 64.6491C86.786 64.6473 87.0932 64.5184 87.3195 64.2908C87.5458 64.0632 87.6728 63.7553 87.6728 63.4343Z" fill="white"></path><path d="M95.4879 63.3025V65.2323H94.8138V63.3025C94.8138 63.0195 94.7013 62.748 94.5012 62.5479C94.301 62.3478 94.0296 62.2354 93.7466 62.2354C93.4635 62.2354 93.1921 62.3478 92.992 62.5479C92.7918 62.748 92.6794 63.0195 92.6794 63.3025V65.2323H92.0053V63.3025C92.0249 63.152 92.0121 62.9991 91.9678 62.8539C91.9236 62.7088 91.8489 62.5747 91.7488 62.4607C91.6486 62.3467 91.5253 62.2554 91.387 62.1928C91.2488 62.1302 91.0988 62.0979 90.947 62.0979C90.7953 62.0979 90.6453 62.1302 90.507 62.1928C90.3687 62.2554 90.2454 62.3467 90.1453 62.4607C90.0451 62.5747 89.9704 62.7088 89.9262 62.8539C89.882 62.9991 89.8692 63.152 89.8887 63.3025V65.2323H89.2324V61.6395H89.9065V61.9846C90.2071 61.7328 90.582 61.5865 90.9737 61.5684C91.4384 61.5765 91.8809 61.7683 92.2045 62.102C92.2659 62.1616 92.3213 62.2271 92.3699 62.2976C92.4253 62.229 92.4847 62.1636 92.5478 62.102C92.8714 61.7683 93.3139 61.5765 93.7786 61.5684C94.0064 61.5677 94.2322 61.612 94.4428 61.699C94.6534 61.7859 94.8447 61.9136 95.0058 62.0748C95.1668 62.236 95.2943 62.4275 95.3811 62.6382C95.4678 62.8489 95.5119 63.0747 95.511 63.3025H95.4879Z" fill="white"></path><path d="M99.8674 63.4352C99.8656 63.9338 99.6667 64.4113 99.3142 64.7638C98.9617 65.1163 98.4842 65.3152 97.9857 65.317C97.4875 65.317 97.0098 65.1191 96.6575 64.7669C96.3053 64.4147 96.1074 63.9369 96.1074 63.4388C96.1074 62.9407 96.3053 62.4629 96.6575 62.1107C97.0098 61.7585 97.4875 61.5606 97.9857 61.5606C98.2325 61.5594 98.4771 61.607 98.7055 61.7007C98.9339 61.7944 99.1415 61.9324 99.3164 62.1066C99.4912 62.2808 99.63 62.4879 99.7245 62.7159C99.8191 62.9439 99.8677 63.1884 99.8674 63.4352ZM99.1933 63.4352C99.1937 63.1963 99.1232 62.9626 98.9907 62.7638C98.8582 62.565 98.6697 62.4099 98.449 62.3182C98.2284 62.2265 97.9855 62.2024 97.7511 62.2488C97.5167 62.2952 97.3014 62.41 97.1323 62.5789C96.9632 62.7477 96.848 62.9629 96.8013 63.1972C96.7546 63.4315 96.7784 63.6744 96.8697 63.8952C96.9611 64.116 97.1159 64.3047 97.3145 64.4375C97.5132 64.5703 97.7467 64.6412 97.9857 64.6412C98.1443 64.6419 98.3015 64.6112 98.4482 64.5508C98.595 64.4905 98.7283 64.4017 98.8406 64.2896C98.9528 64.1775 99.0418 64.0443 99.1023 63.8977C99.1629 63.7511 99.1938 63.5939 99.1933 63.4352Z" fill="white"></path><path d="M103.079 64.1641C103.081 64.3661 103.019 64.5635 102.902 64.7279C102.782 64.9013 102.616 65.0375 102.423 65.121C102.221 65.21 102.002 65.2554 101.781 65.2544C101.657 65.2529 101.534 65.2398 101.413 65.2152C101.019 65.1366 100.651 64.9584 100.346 64.6977L100.769 64.2352C101.036 64.4905 101.387 64.6408 101.756 64.6585C101.899 64.6586 102.041 64.6289 102.172 64.5714C102.254 64.5391 102.325 64.4831 102.376 64.4106C102.426 64.3381 102.454 64.2523 102.455 64.1641C102.455 63.9204 102.243 63.7728 101.756 63.6856C101.469 63.6344 101.188 63.5527 100.918 63.442C100.765 63.3633 100.636 63.2431 100.547 63.095C100.458 62.9469 100.412 62.7769 100.415 62.6042C100.419 62.4075 100.481 62.2163 100.593 62.0546C100.71 61.9024 100.864 61.7834 101.041 61.7096C101.235 61.6208 101.447 61.5753 101.66 61.5762C101.747 61.5762 101.838 61.5762 101.927 61.5922C102.28 61.6505 102.612 61.7987 102.891 62.0226L102.5 62.4779C102.27 62.2873 101.982 62.1795 101.683 62.172C101.551 62.1679 101.419 62.1947 101.299 62.2503C101.228 62.2804 101.166 62.3294 101.12 62.3921C101.074 62.4547 101.046 62.5287 101.039 62.606C101.039 62.8408 101.228 62.9617 101.706 63.0685C101.99 63.1247 102.268 63.2056 102.537 63.3103C102.686 63.3802 102.815 63.4852 102.914 63.6163C103.024 63.7777 103.081 63.9689 103.079 64.1641Z" fill="white"></path><path d="M108.797 64.5399C108.736 64.619 108.67 64.695 108.601 64.7676C108.426 64.9395 108.219 65.0751 107.992 65.1666C107.765 65.2582 107.521 65.3039 107.276 65.3012C107.025 65.3089 106.775 65.2662 106.541 65.1755C106.307 65.0848 106.094 64.948 105.913 64.7733C105.733 64.5985 105.59 64.3893 105.492 64.1581C105.394 63.9269 105.344 63.6784 105.344 63.4274C105.344 63.1764 105.394 62.9279 105.492 62.6967C105.59 62.4655 105.733 62.2563 105.913 62.0816C106.094 61.9068 106.307 61.77 106.541 61.6793C106.775 61.5886 107.025 61.5459 107.276 61.5536C107.521 61.5509 107.765 61.5966 107.992 61.6882C108.219 61.7797 108.426 61.9154 108.601 62.0872C108.67 62.1552 108.732 62.229 108.788 62.3078L108.254 62.7062C108.131 62.5403 107.968 62.4087 107.78 62.3239C107.592 62.239 107.385 62.2038 107.179 62.2215C106.973 62.2392 106.776 62.3093 106.605 62.4251C106.434 62.5408 106.295 62.6984 106.202 62.8828C106.11 63.0673 106.066 63.2724 106.075 63.4787C106.083 63.6849 106.145 63.8855 106.253 64.0612C106.362 64.237 106.513 64.3821 106.693 64.4827C106.874 64.5833 107.077 64.6361 107.283 64.636C107.474 64.6346 107.662 64.5876 107.831 64.4988C108 64.4099 108.145 64.282 108.254 64.1255L108.797 64.5399Z" fill="white"></path><path d="M112.93 63.4352C112.928 63.9338 112.729 64.4113 112.377 64.7638C112.024 65.1163 111.547 65.3152 111.048 65.317C110.55 65.317 110.072 65.1191 109.72 64.7669C109.368 64.4147 109.17 63.9369 109.17 63.4388C109.17 62.9407 109.368 62.4629 109.72 62.1107C110.072 61.7585 110.55 61.5606 111.048 61.5606C111.295 61.5594 111.54 61.607 111.768 61.7007C111.996 61.7944 112.204 61.9324 112.379 62.1066C112.554 62.2808 112.692 62.4879 112.787 62.7159C112.882 62.9439 112.93 63.1884 112.93 63.4352ZM112.256 63.4352C112.256 63.1963 112.186 62.9626 112.053 62.7638C111.921 62.565 111.732 62.4099 111.512 62.3182C111.291 62.2265 111.048 62.2024 110.814 62.2488C110.579 62.2952 110.364 62.41 110.195 62.5789C110.026 62.7477 109.911 62.9629 109.864 63.1972C109.817 63.4315 109.841 63.6744 109.932 63.8952C110.024 64.116 110.178 64.3047 110.377 64.4375C110.576 64.5703 110.809 64.6412 111.048 64.6412C111.207 64.6419 111.364 64.6112 111.511 64.5508C111.657 64.4905 111.791 64.4017 111.903 64.2896C112.015 64.1775 112.104 64.0443 112.165 63.8977C112.225 63.7511 112.256 63.5939 112.256 63.4352Z" fill="white"></path><path d="M117.076 63.3026V65.2324H116.4V63.3026C116.42 63.1521 116.407 62.9992 116.363 62.854C116.318 62.7088 116.244 62.5748 116.144 62.4608C116.043 62.3468 115.92 62.2554 115.782 62.1928C115.644 62.1303 115.494 62.0979 115.342 62.0979C115.19 62.0979 115.04 62.1303 114.902 62.1928C114.763 62.2554 114.64 62.3468 114.54 62.4608C114.44 62.5748 114.365 62.7088 114.321 62.854C114.277 62.9992 114.264 63.1521 114.283 63.3026V65.2324H113.609V61.6396H114.283V61.9846C114.582 61.7346 114.953 61.5885 115.342 61.5684C115.57 61.5666 115.797 61.6101 116.009 61.6965C116.22 61.7829 116.412 61.9105 116.574 62.0718C116.897 62.3999 117.077 62.8422 117.076 63.3026Z" fill="white"></path><path d="M118.1 64.0386V62.2831H117.566V61.6393H118.1V60.252H118.774V61.6393H119.879V62.2831H118.774V64.0226C118.776 64.1666 118.832 64.3047 118.931 64.4094C119.029 64.5142 119.164 64.578 119.308 64.5882H119.911L120.088 65.2303H119.29C119.133 65.231 118.978 65.2007 118.833 65.141C118.688 65.0814 118.557 64.9936 118.446 64.8828C118.336 64.7719 118.248 64.6403 118.189 64.4954C118.129 64.3505 118.099 64.1953 118.1 64.0386Z" fill="white"></path><path d="M120.727 60.6068C120.727 60.4888 120.773 60.3757 120.857 60.2923C120.94 60.209 121.053 60.1621 121.171 60.1621C121.289 60.1621 121.402 60.209 121.486 60.2923C121.569 60.3757 121.616 60.4888 121.616 60.6068C121.616 60.7247 121.569 60.8378 121.486 60.9212C121.402 61.0046 121.289 61.0514 121.171 61.0514C121.053 61.0514 120.94 61.0046 120.857 60.9212C120.773 60.8378 120.727 60.7247 120.727 60.6068ZM120.835 61.633H121.509V65.2312H120.835V61.633Z" fill="white"></path><path d="M126.008 61.6384V65.4091C126.007 65.9079 125.808 66.386 125.456 66.7387C125.103 67.0914 124.625 67.29 124.126 67.2909C123.771 67.2925 123.422 67.1979 123.116 67.017C122.995 66.9422 122.881 66.8552 122.778 66.7573L123.288 66.3109C123.53 66.4986 123.821 66.6106 124.126 66.6328C124.449 66.63 124.757 66.4998 124.984 66.2706C125.211 66.0413 125.338 65.7317 125.337 65.4091V64.8222C125.004 65.1215 124.577 65.2956 124.13 65.3149C123.879 65.3226 123.629 65.2798 123.395 65.1892C123.161 65.0985 122.947 64.9617 122.767 64.7869C122.587 64.6122 122.443 64.403 122.346 64.1718C122.248 63.9406 122.197 63.6921 122.197 63.4411C122.197 63.19 122.248 62.9415 122.346 62.7104C122.443 62.4792 122.587 62.27 122.767 62.0952C122.947 61.9205 123.161 61.7837 123.395 61.693C123.629 61.6023 123.879 61.5596 124.13 61.5673C124.578 61.5863 125.005 61.7612 125.337 62.0617V61.6384H126.008ZM125.337 63.4349C125.336 63.1963 125.264 62.9635 125.13 62.7658C124.997 62.5682 124.808 62.4145 124.587 62.3242C124.366 62.2339 124.124 62.211 123.89 62.2584C123.656 62.3058 123.441 62.4213 123.273 62.5905C123.105 62.7597 122.991 62.9749 122.945 63.209C122.899 63.443 122.923 63.6855 123.015 63.9058C123.106 64.126 123.261 64.3142 123.459 64.4466C123.658 64.579 123.891 64.6496 124.13 64.6496C124.451 64.6478 124.758 64.519 124.984 64.2913C125.21 64.0637 125.337 63.7558 125.337 63.4349Z" fill="white"></path><path d="M130.389 63.4352C130.387 63.9338 130.188 64.4113 129.836 64.7638C129.483 65.1163 129.006 65.3152 128.507 65.317C128.009 65.317 127.531 65.1191 127.179 64.7669C126.827 64.4147 126.629 63.9369 126.629 63.4388C126.629 62.9407 126.827 62.4629 127.179 62.1107C127.531 61.7585 128.009 61.5606 128.507 61.5606C128.754 61.5594 128.999 61.607 129.227 61.7007C129.455 61.7944 129.663 61.9324 129.838 62.1066C130.013 62.2808 130.151 62.4879 130.246 62.7159C130.341 62.9439 130.389 63.1884 130.389 63.4352ZM129.715 63.4352C129.715 63.1963 129.645 62.9626 129.512 62.7638C129.38 62.565 129.191 62.4099 128.971 62.3182C128.75 62.2265 128.507 62.2024 128.273 62.2488C128.038 62.2952 127.823 62.41 127.654 62.5789C127.485 62.7477 127.37 62.9629 127.323 63.1972C127.276 63.4315 127.3 63.6744 127.391 63.8952C127.483 64.116 127.637 64.3047 127.836 64.4375C128.035 64.5703 128.268 64.6412 128.507 64.6412C128.666 64.6419 128.823 64.6112 128.97 64.5508C129.116 64.4905 129.25 64.4017 129.362 64.2896C129.474 64.1775 129.563 64.0443 129.624 63.8977C129.684 63.7511 129.715 63.5939 129.715 63.4352Z" fill="white"></path><path d="M35.3795 47.3743L35.2888 47.3583C35.2123 47.3583 35.1358 47.3477 35.0576 47.3477C33.9725 47.3577 32.9004 47.584 31.9038 48.0134C30.9073 48.4428 30.0064 49.0666 29.2539 49.8484C29.4036 50.824 29.7296 51.7643 30.2161 52.6231C30.2731 52.5395 30.3335 52.4594 30.394 52.3776L30.6235 52.0539C30.7871 51.8334 30.9525 51.6187 31.1197 51.41C31.2157 51.2909 31.31 51.1806 31.4043 51.0668C31.4985 50.9529 31.5999 50.8373 31.6977 50.727C31.8222 50.5848 31.945 50.4478 32.0677 50.3144C32.1904 50.181 32.322 50.0405 32.4483 49.9107L32.7667 49.5905L32.9908 49.3735C33.1687 49.2063 33.3323 49.0516 33.4942 48.904C33.56 48.847 33.624 48.7866 33.6862 48.7261L33.9673 48.4842L34.1451 48.3295C34.2785 48.221 34.3995 48.1214 34.5151 48.0306L34.6929 47.8919L34.8708 47.7567L35.0362 47.634L35.1821 47.5291L35.3083 47.4384L35.3635 47.401L35.4097 47.369C35.4097 47.369 35.3955 47.3779 35.3795 47.3743Z" fill="#D2D2D2"></path><path d="M34.0365 25.2636C34.1815 24.9142 34.3552 24.5775 34.5559 24.2569C34.6733 23.9225 34.8049 23.6077 34.9454 23.3C33.8992 21.2757 32.5828 19.4029 31.0324 17.7329L31.0502 17.7222C30.9346 17.5995 30.8154 17.4803 30.6945 17.3665C30.5736 17.2527 30.5006 17.1637 30.401 17.0659C26.2053 12.8239 21.33 9.7522 18.5856 1.00848C18.3562 0.147626 17.8297 0 17.8297 0C17.353 0.222328 16.4175 0.574495 16.4175 0.574495C15.2496 1.33549 14.1751 2.23093 13.216 3.24243C12.0376 4.42961 11.0538 5.79517 10.3008 7.28881C14.8772 12.0911 19.6528 13.6723 24.2043 16.1695C24.3377 16.2424 24.4675 16.3189 24.6009 16.3936C24.7343 16.4683 24.9193 16.5715 25.0776 16.6604L25.0634 16.6782C28.9892 18.9882 32.2688 22.2512 34.5986 26.1654C34.4101 25.863 34.2269 25.5677 34.0365 25.2636Z" fill="#D2D2D2"></path><path d="M37.7235 34.0769C37.7235 34.0769 37.7235 34.0662 37.7235 34.0609C37.1116 31.3004 36.0665 28.6543 34.627 26.2207C36.0668 28.6598 37.1119 31.3113 37.7235 34.0769Z" fill="url(#paint9_linear_4229_46174)"></path><path d="M25.057 16.6745L25.0712 16.6567C24.9129 16.5642 24.7529 16.4789 24.5946 16.3899C24.4363 16.301 24.3313 16.2388 24.1979 16.1676C18.5348 13.0586 12.523 11.3653 6.9844 3.14096C6.47927 2.31924 5.88877 2.32813 5.88877 2.32813C5.46367 2.70698 4.60104 3.35973 4.60104 3.35973C3.62189 4.51157 2.78191 5.77481 2.09852 7.12331C1.59102 8.08688 1.17421 9.09555 0.853478 10.1363C1.08826 10.6165 1.38707 11.1821 1.74279 11.8207C2.02915 12.2795 2.30662 12.8042 2.66234 13.3147C3.01807 13.8252 3.37379 14.3819 3.79355 14.9155C4.2133 15.449 4.66151 15.9915 5.12751 16.5358C5.59351 17.0801 6.13244 17.5674 6.64824 18.0814C7.21562 18.5296 7.74031 19.0525 8.33971 19.4421C8.93911 19.8316 9.50115 20.278 10.1183 20.5608C10.6903 20.8925 11.2916 21.1705 11.9148 21.3914C12.5106 21.5978 13.0637 21.8557 13.6151 21.9357L15.1038 22.2559L16.2777 22.3323L17.3111 22.3999L16.2777 22.4533L15.0825 22.5138L13.5333 22.3661C12.9535 22.3466 12.363 22.1527 11.7173 22.0104C11.0405 21.8545 10.3791 21.6379 9.74127 21.363C9.04583 21.1371 8.4073 20.7476 7.72253 20.4043C7.03776 20.061 6.42591 19.5844 5.76604 19.1717C5.15775 18.695 4.52101 18.2308 3.95718 17.7204C3.39336 17.2099 2.82597 16.703 2.33863 16.1623C1.82283 15.6429 1.36217 15.1111 0.933518 14.5971C0.627595 14.252 0.364357 13.9052 0.110014 13.569C0.00330359 14.5077 -0.0258443 15.4536 0.0228628 16.3971C0.0564679 18.3308 0.405518 20.2461 1.05624 22.0673C1.15407 22.1527 1.24656 22.2345 1.3515 22.3217C1.73034 22.6134 2.12342 22.9637 2.57875 23.275C3.03408 23.5863 3.50008 23.9402 4.0141 24.255C4.52812 24.5698 5.06882 24.8775 5.62375 25.187C6.17868 25.4965 6.77808 25.7295 7.3668 25.9981C7.97509 26.1937 8.57449 26.4641 9.19346 26.601C9.81242 26.738 10.4189 26.9354 11.0254 26.9763C11.6041 27.0743 12.1906 27.1183 12.7774 27.1079C13.3359 27.0955 13.8784 27.1364 14.3604 27.0315L15.6997 26.834L16.7028 26.5317L17.5921 26.2649L16.7544 26.6455L15.7726 27.0866L14.4386 27.4654C13.9513 27.6433 13.3963 27.67 12.813 27.7607C12.1996 27.8509 11.5793 27.8854 10.9596 27.8639C10.3069 27.9012 9.65056 27.7856 8.96935 27.7216C8.28813 27.6575 7.62293 27.4619 6.9346 27.3321C6.27473 27.1346 5.59708 26.9532 4.95855 26.7131C4.32002 26.473 3.68505 26.2329 3.10344 25.9412C3.00917 25.9003 2.92558 25.8505 2.83842 25.8078C3.75371 27.2952 4.86795 28.6506 6.15022 29.8364C7.59702 31.0473 9.16315 32.1081 10.8245 33.0023C10.9899 33.0823 11.1464 33.1802 11.3154 33.2549V33.2638C14.9064 35.1313 19.9684 36.8708 26.4959 36.9882C32.0239 37.4578 36.0027 41.4437 37.5928 46.3865C38.9806 40.7453 38.5097 34.8069 36.2504 29.4549C33.991 24.1029 30.0639 19.6235 25.0535 16.6834L25.057 16.6745Z" fill="white"></path><path d="M48.7143 18.6119C40.57 14.964 36.0487 21.335 36.0487 21.335L36.0932 21.367C35.4307 22.2427 34.912 23.2184 34.5565 24.2573C34.3558 24.5779 34.1821 24.9146 34.0371 25.264C36.0399 28.3541 37.3889 31.8216 38.001 35.4528C38.6131 39.084 38.4753 42.8021 37.5961 46.378C37.5961 46.378 47.3786 44.0658 45.8276 30.6674C46.1051 26.9626 48.2946 23.6792 48.9473 22.934C50.5748 22.5516 52.6718 20.403 52.6718 20.403C52.6718 20.403 51.6615 18.868 48.7143 18.6119Z" fill="#ECECEC"></path><path d="M35.0574 47.3494C35.1356 47.3494 35.2121 47.3583 35.2886 47.3601C34.8048 47.2605 32.7434 46.8514 29.211 47.6322C29.1151 48.3695 29.1295 49.117 29.2537 49.8501C30.0062 49.0684 30.9071 48.4446 31.9036 48.0152C32.9001 47.5858 33.9723 47.3594 35.0574 47.3494Z" fill="#ECECEC" style="mix-blend-mode:multiply"></path><path d="M30.2156 52.6243C29.729 51.7655 29.403 50.8252 29.2533 49.8496C28.1041 51.0349 27.3414 52.5408 27.0657 54.1685C26.7901 55.7963 27.0146 57.4693 27.7095 58.9669C28.0278 56.395 29.1235 54.1734 30.3899 52.3859C30.3329 52.4606 30.2725 52.5407 30.2156 52.6243Z" fill="#EAEAEA" style="mix-blend-mode:multiply"></path><path d="M35.2869 47.3602L35.3723 47.3762C35.1713 47.3388 33.8818 47.0205 31.582 47.2463C33.6755 47.0365 34.9241 47.2855 35.2869 47.3602Z" fill="url(#paint10_linear_4229_46174)"></path><path d="M27.7087 58.9672C27.0138 57.4697 26.7893 55.7966 27.065 54.1689C27.3406 52.5412 28.1034 51.0353 29.2526 49.85C29.1284 49.1169 29.114 48.3694 29.2099 47.6321C29.9921 47.4582 30.7837 47.3294 31.5808 47.2461C29.8006 47.441 28.0489 47.8409 26.3605 48.4378C10.1626 53.9942 14.2801 67.9831 14.7763 69.0787C15.8023 69.5736 16.9196 69.8509 18.0579 69.8933C17.9792 69.5094 17.9199 69.1218 17.88 68.7319C17.8015 68.0274 17.7849 67.3174 17.8302 66.61C17.88 66.2543 17.8925 65.8879 17.9761 65.5428C18.0378 65.2013 18.1246 64.8649 18.2357 64.5361C18.3263 64.2264 18.4454 63.9257 18.5915 63.6379C18.7066 63.3745 18.8453 63.1221 19.0059 62.8838C19.1571 62.6668 19.294 62.4658 19.415 62.2879L19.7938 61.8806L20.1193 61.5249L19.8418 61.9162L19.5252 62.3609L19.2069 62.9887C19.0833 63.2353 18.9821 63.4924 18.9045 63.7571C18.8028 64.0461 18.7278 64.3437 18.6804 64.6464C18.6157 64.9653 18.5758 65.2888 18.5612 65.614C18.5257 65.9412 18.5612 66.2827 18.5612 66.6153C18.6057 67.2716 18.7075 67.9226 18.8654 68.5611C18.9707 69.0071 19.1037 69.4461 19.2638 69.8755C21.014 69.7653 22.7428 69.3117 24.4841 69.0325C24.4538 68.9756 24.42 68.9275 24.3916 68.8688C24.0227 68.1658 23.7156 67.432 23.4738 66.6758C23.3813 66.2809 23.2461 65.9003 23.191 65.5037C23.1173 65.1222 23.0715 64.7358 23.054 64.3476C23.0219 63.9872 23.0219 63.6247 23.054 63.2644C23.0681 62.9429 23.1103 62.6233 23.1803 62.3093L23.3582 61.5196C23.4453 61.2955 23.5236 61.0998 23.5858 60.9397C23.7121 60.6196 23.7851 60.4382 23.7851 60.4382C23.7851 60.4382 23.7335 60.6267 23.6463 60.9593C23.6019 61.1229 23.5503 61.315 23.488 61.5516C23.4631 61.7864 23.4329 62.0514 23.3991 62.3395C23.3671 62.6486 23.3629 62.9599 23.3866 63.2697C23.3917 63.614 23.4293 63.957 23.4987 64.2942C23.5571 64.6557 23.6421 65.0124 23.753 65.3614C23.8473 65.7171 24.0181 66.0728 24.1443 66.4286C24.4512 67.1039 24.816 67.7514 25.2346 68.3637C25.3574 68.5522 25.4872 68.7194 25.617 68.8884C27.4561 68.7105 29.3184 68.8617 31.2464 70.0001C28.1089 65.895 27.3121 62.1634 27.7087 58.9672Z" fill="white"></path><defs><linearGradient id="paint0_linear_4229_46174" x1="31.0736" y1="49.9571" x2="41.8717" y2="50.1616" gradientUnits="userSpaceOnUse"><stop stop-color="#008500"></stop><stop offset="0.11" stop-color="#088D07"></stop><stop offset="0.29" stop-color="#1EA219"></stop><stop offset="0.51" stop-color="#42C536"></stop><stop offset="0.75" stop-color="#73F65F"></stop><stop offset="0.8" stop-color="#7DFF67"></stop></linearGradient><linearGradient id="paint1_linear_4229_46174" x1="21.8496" y1="18.4461" x2="27.8169" y2="1.21302" gradientUnits="userSpaceOnUse"><stop stop-color="#008500"></stop><stop offset="0.79" stop-color="#1DD600"></stop></linearGradient><linearGradient id="paint2_linear_4229_46174" x1="35.8348" y1="30.4396" x2="37.304" y2="29.1981" gradientUnits="userSpaceOnUse"><stop stop-color="#008500"></stop><stop offset="0.79" stop-color="#1DD600"></stop></linearGradient><linearGradient id="paint3_linear_4229_46174" x1="10.3171" y1="36.7536" x2="33.1864" y2="11.7559" gradientUnits="userSpaceOnUse"><stop stop-color="#00E1FF"></stop><stop offset="0.79" stop-color="#009CFF"></stop></linearGradient><linearGradient id="paint4_linear_4229_46174" x1="56.8838" y1="22.9587" x2="23.1966" y2="40.5974" gradientUnits="userSpaceOnUse"><stop stop-color="#00E1FF"></stop><stop offset="0.79" stop-color="#007FFF"></stop></linearGradient><linearGradient id="paint5_linear_4229_46174" x1="29.2734" y1="50.2697" x2="35.6907" y2="44.29" gradientUnits="userSpaceOnUse"><stop stop-color="#008500"></stop><stop offset="0.79" stop-color="#1DD600"></stop></linearGradient><linearGradient id="paint6_linear_4229_46174" x1="26.1284" y1="56.274" x2="36.987" y2="47.6708" gradientUnits="userSpaceOnUse"><stop stop-color="#008500"></stop><stop offset="0.79" stop-color="#1DD600"></stop></linearGradient><linearGradient id="paint7_linear_4229_46174" x1="32.3417" y1="48.1639" x2="36.8238" y2="44.8005" gradientUnits="userSpaceOnUse"><stop stop-color="#008500"></stop><stop offset="0.79" stop-color="#1DD600"></stop></linearGradient><linearGradient id="paint8_linear_4229_46174" x1="15.7281" y1="68.4473" x2="39.302" y2="50.3569" gradientUnits="userSpaceOnUse"><stop stop-color="#008500"></stop><stop offset="0.79" stop-color="#1DD600"></stop></linearGradient><linearGradient id="paint9_linear_4229_46174" x1="35.8329" y1="30.4396" x2="37.302" y2="29.1981" gradientUnits="userSpaceOnUse"><stop stop-color="#008500"></stop><stop offset="0.79" stop-color="#1DD600"></stop></linearGradient><linearGradient id="paint10_linear_4229_46174" x1="32.3397" y1="48.1659" x2="36.8218" y2="44.8025" gradientUnits="userSpaceOnUse"><stop stop-color="#008500"></stop><stop offset="0.79" stop-color="#1DD600"></stop></linearGradient></defs></svg>