<svg xmlns="http://www.w3.org/2000/svg" width="51" height="42" viewBox="0 0 51 42" fill="none"><g clip-path="url(#clip0_4229_45521)"><path fill-rule="evenodd" clip-rule="evenodd" d="M49.9708 22.7425C50.0168 22.5814 50.0513 22.4203 50.0973 22.2478C50.385 21.0052 50.5345 19.6937 50.5 18.3016C50.477 17.4848 50.408 16.6564 50.2584 15.7936C50.2584 15.7705 50.2584 15.7475 50.2469 15.7245C50.2469 15.7245 50.2469 15.7245 50.2469 15.736C50.2469 15.69 50.2354 15.644 50.2239 15.598C50.2239 15.552 50.2124 15.5059 50.2009 15.4599C50.2009 15.4024 50.1779 15.3449 50.1664 15.2873C50.1433 15.1378 50.1088 14.9882 50.0743 14.8387C50.0743 14.8156 50.0743 14.7926 50.0628 14.7696C50.0398 14.6891 50.0283 14.5971 50.0053 14.5165C49.9938 14.459 49.9823 14.4015 49.9593 14.3439C49.9478 14.2864 49.9248 14.2174 49.9133 14.1599C49.8787 14.0333 49.8442 13.9068 49.8097 13.7802C49.7867 13.8838 49.7637 13.9758 49.7407 14.0678C49.7407 14.1023 49.7292 14.1254 49.7177 14.1599C49.7062 14.2289 49.6832 14.2864 49.6717 14.3555C49.6717 14.39 49.6486 14.4245 49.6486 14.459C49.6371 14.5165 49.6141 14.574 49.6026 14.6431C49.6026 14.6776 49.5796 14.7121 49.5796 14.7466C49.5566 14.8041 49.5451 14.8732 49.5221 14.9307C49.5221 14.9537 49.5106 14.9882 49.4991 15.0112C49.4761 15.1033 49.4416 15.1838 49.4185 15.2758C49.3955 15.3564 49.361 15.4369 49.338 15.5174C49.338 15.5404 49.315 15.575 49.315 15.598C49.292 15.6555 49.269 15.713 49.2575 15.7705C49.2575 15.8051 49.2345 15.8281 49.223 15.8626C49.2 15.9201 49.1769 15.9661 49.1654 16.0237C49.1654 16.0467 49.1424 16.0812 49.1309 16.1042C49.1079 16.1617 49.0849 16.2192 49.0619 16.2653C49.0619 16.2883 49.0389 16.3113 49.0274 16.3343C48.9929 16.4148 48.9584 16.4838 48.9238 16.5644C48.9238 16.5644 48.9238 16.5644 48.9238 16.5759C48.8893 16.6449 48.8548 16.7139 48.8203 16.783C48.8203 16.806 48.7973 16.829 48.7858 16.852C48.7628 16.898 48.7398 16.944 48.7168 17.0016C48.7052 17.0246 48.6937 17.0476 48.6822 17.0821C48.6592 17.1281 48.6362 17.1741 48.6132 17.2202C48.6017 17.2432 48.5902 17.2662 48.5672 17.2892C48.5442 17.3352 48.5097 17.3812 48.4867 17.4272C48.4867 17.4502 48.4636 17.4618 48.4521 17.4848C48.4176 17.5538 48.3716 17.6113 48.3371 17.6803C48.3371 17.6803 48.3371 17.6803 48.3371 17.6919C48.3026 17.7494 48.2681 17.8069 48.222 17.8644C48.2105 17.8874 48.199 17.8989 48.176 17.9219C48.153 17.968 48.1185 18.0025 48.0955 18.0485C48.084 18.0715 48.061 18.0945 48.0495 18.1175C48.0265 18.152 47.9919 18.1981 47.9689 18.2326C47.9574 18.2556 47.9344 18.2786 47.9229 18.2901C47.8884 18.3246 47.8654 18.3706 47.8309 18.4052C47.8194 18.4167 47.8079 18.4397 47.7849 18.4512C47.7388 18.5087 47.6928 18.5547 47.6468 18.6122C47.6468 18.6122 47.6353 18.6237 47.6238 18.6352C47.5893 18.6813 47.5433 18.7273 47.5087 18.7618C47.4972 18.7848 47.4742 18.7963 47.4627 18.8193C47.4282 18.8538 47.4052 18.8884 47.3707 18.9114C47.3477 18.9344 47.3362 18.9459 47.3132 18.9689C47.2786 19.0034 47.2556 19.0264 47.2211 19.0609C47.1981 19.0839 47.1866 19.0954 47.1636 19.1184C47.1291 19.153 47.0946 19.176 47.0716 19.2105C47.0601 19.222 47.037 19.245 47.0255 19.2565C46.9795 19.3025 46.9335 19.3485 46.876 19.3831C46.876 19.3831 46.853 19.4061 46.8415 19.4176C46.8069 19.4521 46.7609 19.4866 46.7264 19.5211C46.7034 19.5326 46.6919 19.5556 46.6689 19.5671C46.6344 19.5901 46.6114 19.6132 46.5769 19.6477C46.5538 19.6592 46.5308 19.6822 46.5078 19.6937C46.4733 19.7167 46.4503 19.7397 46.4158 19.7627C46.3928 19.7742 46.3698 19.7972 46.3468 19.8087C46.3122 19.8317 46.2777 19.8548 46.2432 19.8778C46.2202 19.8893 46.2087 19.9008 46.1857 19.9238C46.1397 19.9583 46.0821 19.9928 46.0361 20.0273C46.0246 20.0388 46.0016 20.0503 45.9786 20.0618C45.9441 20.0849 45.9096 20.1079 45.8751 20.1309C45.852 20.1424 45.829 20.1654 45.806 20.1769C45.7715 20.1999 45.7485 20.2114 45.714 20.2344C45.691 20.2459 45.668 20.2574 45.6565 20.2689C45.5759 20.315 45.5069 20.361 45.4264 20.3955C45.4149 20.3955 45.3919 20.407 45.3803 20.4185C45.2998 20.4645 45.2193 20.499 45.1387 20.545C45.1387 20.545 45.1157 20.545 45.1042 20.5566C45.0237 20.5911 44.9432 20.6371 44.8741 20.6716C44.8741 20.6716 44.8511 20.6716 44.8396 20.6831C44.7591 20.7176 44.6786 20.7521 44.598 20.7867C44.5865 20.7867 44.5635 20.7982 44.552 20.8097C44.4715 20.8442 44.3909 20.8787 44.3104 20.9132C44.2874 20.9132 44.2759 20.9247 44.2529 20.9362C44.1723 20.9707 44.0918 20.9937 44.0113 21.0283C43.9883 21.0283 43.9768 21.0398 43.9538 21.0513C43.8732 21.0858 43.7927 21.1088 43.7006 21.1318C43.6891 21.1318 43.6661 21.1318 43.6546 21.1433C43.5741 21.1663 43.4821 21.2008 43.4015 21.2238C43.39 21.2238 43.3785 21.2238 43.367 21.2238C43.2865 21.2468 43.1944 21.2699 43.1139 21.2929C43.1024 21.2929 43.0794 21.2929 43.0679 21.3044C42.9873 21.3274 42.8953 21.3504 42.8148 21.3734C42.7918 21.3734 42.7688 21.3734 42.7572 21.3849C42.6767 21.4079 42.5847 21.4309 42.5041 21.4424C42.4811 21.4424 42.4581 21.4424 42.4351 21.4539C42.3546 21.4769 42.2625 21.4884 42.182 21.5115C42.159 21.5115 42.136 21.5115 42.113 21.523C42.0209 21.546 41.9404 21.5575 41.8484 21.5805C41.8369 21.5805 41.8139 21.5805 41.8023 21.5805C41.7218 21.592 41.6413 21.615 41.5492 21.6265C41.5377 21.6265 41.5147 21.6265 41.5032 21.6265C41.4112 21.638 41.3307 21.661 41.2386 21.6725C41.2156 21.6725 41.1926 21.6725 41.1696 21.6725C41.089 21.684 40.997 21.6955 40.9165 21.7185C40.8935 21.7185 40.8705 21.7185 40.8359 21.73C40.7554 21.7416 40.6634 21.7531 40.5828 21.7646C40.5598 21.7646 40.5253 21.7646 40.5023 21.7646C40.4218 21.7761 40.3297 21.7876 40.2492 21.7991C40.2262 21.7991 40.2032 21.7991 40.1687 21.7991C40.0881 21.7991 40.0076 21.8221 39.9271 21.8336C39.8925 21.8336 39.8695 21.8336 39.835 21.8336C39.766 21.8336 39.6855 21.8566 39.6049 21.8566C39.5819 21.8566 39.5474 21.8566 39.5244 21.8566C39.4439 21.8566 39.3633 21.8796 39.2828 21.8796C39.2483 21.8796 39.2138 21.8796 39.1792 21.8796C39.0987 21.8796 39.0297 21.8911 38.9491 21.9026C38.9031 21.9026 38.8571 21.9026 38.8111 21.9141C38.7651 21.9141 38.7191 21.9141 38.6615 21.9256C38.1898 21.9716 37.7181 22.0177 37.2579 22.0752H37.2349C37.1314 22.0752 37.0393 22.0982 36.9358 22.1097C36.9243 22.1097 36.9128 22.1097 36.9013 22.1097C36.7977 22.1212 36.7057 22.1327 36.6022 22.1442C36.6022 22.1442 36.5792 22.1442 36.5676 22.1442C36.4641 22.1557 36.3606 22.1672 36.2685 22.1787C36.165 22.1902 36.0729 22.2017 35.9694 22.2248C35.9694 22.2248 35.9464 22.2248 35.9349 22.2248C35.8428 22.2363 35.7508 22.2478 35.6588 22.2708C35.6588 22.2708 35.6358 22.2708 35.6243 22.2708C35.6243 22.2708 35.6127 22.2708 35.6012 22.2708C35.4977 22.2823 35.4057 22.3053 35.3021 22.3168C35.2791 22.3168 35.2676 22.3168 35.2446 22.3168C35.1526 22.3283 35.049 22.3513 34.957 22.3628C34.934 22.3628 34.9225 22.3628 34.8994 22.3628C34.8074 22.3858 34.7154 22.3973 34.6118 22.4203C34.5888 22.4203 34.5773 22.4203 34.5543 22.4203C34.4623 22.4433 34.3702 22.4549 34.2782 22.4779C34.2552 22.4779 34.2437 22.4779 34.2207 22.4894C34.1286 22.5124 34.0366 22.5354 33.9445 22.5584C33.9215 22.5584 33.91 22.5584 33.887 22.5699C33.795 22.5929 33.7029 22.6159 33.6109 22.6389C33.5994 22.6389 33.5764 22.6389 33.5649 22.6504C33.4729 22.6734 33.3808 22.6965 33.2888 22.731C33.2773 22.731 33.2543 22.731 33.2428 22.7425C33.1507 22.7655 33.0587 22.8 32.9666 22.823C32.9551 22.823 32.9436 22.823 32.9206 22.8345C32.8286 22.869 32.7365 22.892 32.6445 22.9265C32.633 22.9265 32.6215 22.9265 32.61 22.9381C32.5179 22.9726 32.4259 23.0071 32.3339 23.0416C32.3224 23.0416 32.3109 23.0416 32.2994 23.0531C32.2073 23.0876 32.1153 23.1221 32.0347 23.1681C32.0347 23.1681 32.0117 23.1681 32.0002 23.1797C31.9082 23.2142 31.8162 23.2602 31.7356 23.3062C31.7356 23.3062 31.7241 23.3062 31.7126 23.3177C31.6206 23.3637 31.5285 23.4098 31.448 23.4558C31.448 23.4558 31.4365 23.4558 31.425 23.4558C31.333 23.5018 31.2409 23.5478 31.1604 23.6053C31.1604 23.6053 31.1604 23.6053 31.1489 23.6053C31.0568 23.6629 30.9648 23.7089 30.8843 23.7664C30.7922 23.8239 30.7002 23.8814 30.6197 23.9505C30.5161 24.0195 30.4241 24.0885 30.3205 24.1691C30.286 24.1921 30.263 24.2151 30.2285 24.2381C30.1595 24.2841 30.1019 24.3416 30.0329 24.3877C29.9984 24.4222 29.9639 24.4452 29.9294 24.4797C29.8718 24.5257 29.8143 24.5717 29.7568 24.6293C29.7223 24.6638 29.6878 24.6983 29.6417 24.7328C29.5842 24.7788 29.5382 24.8248 29.4807 24.8824C29.4462 24.9169 29.4116 24.9514 29.3771 24.9859C29.3311 25.0319 29.2736 25.0895 29.2276 25.1355C29.1931 25.17 29.1585 25.2045 29.124 25.239C29.078 25.2965 29.0205 25.3426 28.9745 25.4001C28.9399 25.4346 28.9054 25.4691 28.8824 25.5036C28.8364 25.5612 28.7789 25.6187 28.7329 25.6762C28.7099 25.7107 28.6753 25.7337 28.6523 25.7682C28.5948 25.8373 28.5373 25.9063 28.4798 25.9753C28.4682 25.9983 28.4452 26.0213 28.4337 26.0329C28.3647 26.1249 28.2842 26.2169 28.2151 26.3205C28.2151 26.332 28.1921 26.3435 28.1921 26.355C28.1346 26.4355 28.0771 26.5161 28.0081 26.6081C27.985 26.6426 27.962 26.6656 27.9505 26.7001C27.9045 26.7692 27.8585 26.8382 27.8125 26.8957C27.7895 26.9302 27.7665 26.9647 27.7434 26.9993C27.6974 27.0568 27.6629 27.1258 27.6284 27.1833C27.6054 27.2178 27.5824 27.2639 27.5594 27.2984C27.5249 27.3559 27.4788 27.4249 27.4443 27.4825C27.4213 27.517 27.3983 27.563 27.3753 27.5975C27.3408 27.6665 27.3063 27.7241 27.2717 27.7931C27.2487 27.8276 27.2257 27.8736 27.2142 27.9081C27.1797 27.9772 27.1452 28.0462 27.1107 28.1037C27.0877 28.1382 27.0762 28.1728 27.0532 28.2073C27.0186 28.2763 26.9841 28.3568 26.9381 28.4259C26.9381 28.4489 26.9151 28.4719 26.9036 28.4949C26.9036 28.4949 26.9036 28.4949 26.9036 28.5064C26.8346 28.656 26.754 28.817 26.685 28.9666C26.685 28.9896 26.662 29.0126 26.6505 29.0356C26.5815 29.1852 26.5239 29.3347 26.4549 29.4958C26.4549 29.5188 26.4319 29.5418 26.4204 29.5763C26.3629 29.7259 26.3053 29.887 26.2478 30.0365C26.2478 30.048 26.2363 30.071 26.2248 30.0826C26.1673 30.2321 26.1098 30.3932 26.0637 30.5427V30.5658C26.0062 30.7268 25.9602 30.8764 25.9142 31.0259C25.9142 31.049 25.9027 31.072 25.8912 31.095C25.8451 31.2445 25.7991 31.3941 25.7646 31.5437C25.7646 31.5667 25.7531 31.6012 25.7416 31.6242C25.6956 31.7738 25.6611 31.9233 25.6266 32.0614C25.6266 32.0844 25.6266 32.1074 25.615 32.1304C25.5805 32.28 25.546 32.4295 25.5115 32.5791C24.8442 29.6224 23.4176 26.0329 20.3919 23.9045C20.3343 23.8699 20.2768 23.8239 20.2193 23.7894C20.2078 23.7894 20.1848 23.7664 20.1733 23.7549C20.1272 23.7204 20.0812 23.6974 20.0352 23.6629C20.0237 23.6629 20.0122 23.6514 19.9892 23.6398C19.9317 23.6053 19.8741 23.5708 19.8166 23.5363C19.8051 23.5363 19.7936 23.5248 19.7706 23.5133C19.7246 23.4903 19.6786 23.4558 19.6325 23.4328C19.6095 23.4328 19.598 23.4098 19.575 23.3982C19.5175 23.3637 19.46 23.3407 19.4024 23.3062C19.4024 23.3062 19.4024 23.3062 19.3909 23.3062C19.3334 23.2717 19.2759 23.2487 19.2069 23.2142C19.1838 23.2142 19.1723 23.1912 19.1493 23.1912C19.1033 23.1681 19.0573 23.1451 18.9998 23.1221C18.9883 23.1221 18.9653 23.1106 18.9538 23.0991C18.8962 23.0761 18.8272 23.0416 18.7697 23.0186C18.7582 23.0186 18.7352 23.0071 18.7237 22.9956C18.6776 22.9726 18.6316 22.9611 18.5741 22.9381C18.5511 22.9381 18.5281 22.9265 18.5166 22.915C18.459 22.892 18.4015 22.869 18.344 22.846C18.344 22.846 18.321 22.846 18.3095 22.846C18.252 22.823 18.1829 22.8 18.1254 22.7885C18.1024 22.7885 18.0794 22.777 18.0564 22.7655C18.0104 22.754 17.9643 22.731 17.9068 22.7195C17.8838 22.7195 17.8723 22.708 17.8493 22.6965C17.7803 22.6734 17.7227 22.6619 17.6537 22.6389C17.6307 22.6389 17.6192 22.6389 17.5962 22.6274C17.5502 22.6159 17.4926 22.6044 17.4466 22.5814C17.4236 22.5814 17.4006 22.5699 17.3776 22.5584C17.3201 22.5469 17.2625 22.5239 17.205 22.5124C17.1935 22.5124 17.1705 22.5124 17.159 22.5009C17.1015 22.4894 17.0439 22.4664 16.9749 22.4549C16.9519 22.4549 16.9289 22.4433 16.8944 22.4318C16.8484 22.4318 16.8023 22.4088 16.7563 22.3973C16.7333 22.3973 16.7103 22.3973 16.6873 22.3858C16.6183 22.3743 16.5607 22.3628 16.4917 22.3398C16.4687 22.3398 16.4457 22.3398 16.4227 22.3283C16.3767 22.3283 16.3306 22.3053 16.2846 22.3053C16.2616 22.3053 16.2271 22.3053 16.2041 22.2938C16.1466 22.2938 16.1006 22.2708 16.043 22.2593C16.02 22.2593 15.9855 22.2593 15.9625 22.2478C15.905 22.2478 15.8474 22.2248 15.7899 22.2132C15.7554 22.2132 15.7324 22.2132 15.6979 22.2017C15.6519 22.2017 15.6058 22.1902 15.5598 22.1787C15.5368 22.1787 15.5023 22.1787 15.4793 22.1672C15.4103 22.1672 15.3527 22.1442 15.2837 22.1327C15.2607 22.1327 15.2262 22.1327 15.2032 22.1212C15.1572 22.1212 15.1111 22.1097 15.0651 22.0982C15.0306 22.0982 15.0076 22.0982 14.9731 22.0867C14.9271 22.0867 14.881 22.0752 14.835 22.0637C14.789 22.0637 14.7545 22.0637 14.7085 22.0522C14.6624 22.0522 14.6164 22.0407 14.5704 22.0292C14.5359 22.0292 14.5014 22.0292 14.4669 22.0177C14.4324 22.0177 14.3863 22.0177 14.3518 22.0062C14.3173 22.0062 14.2828 22.0062 14.2483 21.9947C14.1908 21.9947 14.1217 21.9832 14.0642 21.9716C14.0182 21.9716 13.9837 21.9716 13.9376 21.9601C13.9031 21.9601 13.8801 21.9601 13.8456 21.9601C13.7996 21.9601 13.7651 21.9601 13.7191 21.9486C13.696 21.9486 13.673 21.9486 13.65 21.9486C13.1093 21.8911 12.5571 21.8336 12.0163 21.7761C12.0163 21.7761 12.0163 21.7761 12.0048 21.7761C11.9243 21.7761 11.8438 21.7646 11.7747 21.7531C11.7747 21.7531 11.7747 21.7531 11.7632 21.7531C11.6827 21.7531 11.6022 21.73 11.5216 21.73C11.5216 21.73 11.5101 21.73 11.4986 21.73C11.4296 21.73 11.3606 21.7185 11.2915 21.707C11.28 21.707 11.257 21.707 11.2455 21.707C11.165 21.707 11.096 21.684 11.0154 21.684C10.9349 21.684 10.8659 21.661 10.7853 21.6495C10.7623 21.6495 10.7508 21.6495 10.7278 21.6495C10.6703 21.6495 10.6012 21.638 10.5437 21.6265C10.5322 21.6265 10.5092 21.6265 10.4977 21.6265C10.4287 21.6265 10.3481 21.6035 10.2791 21.592C10.2676 21.592 10.2446 21.592 10.2331 21.592C10.1756 21.592 10.118 21.569 10.049 21.569C10.026 21.569 10.003 21.569 9.97998 21.569C9.91095 21.569 9.84192 21.546 9.7729 21.5345C9.7729 21.5345 9.76139 21.5345 9.74989 21.5345C9.68086 21.523 9.60032 21.5115 9.53129 21.5C9.50828 21.5 9.48527 21.5 9.46226 21.4884C9.40474 21.4884 9.34722 21.4654 9.3012 21.4539C9.27819 21.4539 9.26668 21.4539 9.24367 21.4539C9.17464 21.4424 9.10561 21.4309 9.03659 21.4079C9.01358 21.4079 9.00207 21.4079 8.97906 21.4079C8.92154 21.4079 8.86401 21.3849 8.81799 21.3734C8.79498 21.3734 8.77197 21.3734 8.74897 21.3619C8.69144 21.3504 8.62241 21.3389 8.56489 21.3159C8.56489 21.3159 8.54188 21.3159 8.53037 21.3159C8.46134 21.3044 8.39232 21.2814 8.32329 21.2699C8.30028 21.2699 8.27727 21.2699 8.25426 21.2583C8.20824 21.2468 8.15071 21.2353 8.10469 21.2238C8.08168 21.2238 8.05867 21.2238 8.04717 21.2123C7.97814 21.1893 7.90911 21.1778 7.84008 21.1548C7.81707 21.1548 7.80557 21.1548 7.78256 21.1433C7.72503 21.1318 7.67902 21.1088 7.62149 21.0973C7.59848 21.0973 7.57547 21.0858 7.55246 21.0743C7.49494 21.0513 7.43741 21.0398 7.37989 21.0167C7.36838 21.0167 7.35688 21.0167 7.34538 21.0052C7.27635 20.9822 7.21882 20.9592 7.14979 20.9362C7.12678 20.9362 7.10377 20.9247 7.08076 20.9132C7.03474 20.8902 6.98873 20.8787 6.9312 20.8557C6.90819 20.8557 6.88518 20.8442 6.87368 20.8327C6.80465 20.8097 6.74712 20.7866 6.67809 20.7636C6.65509 20.7636 6.64358 20.7521 6.62057 20.7406C6.57455 20.7176 6.51703 20.6946 6.47101 20.6831C6.448 20.6831 6.42499 20.6601 6.40198 20.6486C6.34446 20.6256 6.29844 20.6026 6.24091 20.5796C6.22941 20.5796 6.2179 20.5796 6.2064 20.5681C6.14887 20.545 6.07984 20.5105 6.02232 20.476C5.99931 20.476 5.9763 20.453 5.9648 20.4415C5.91878 20.4185 5.87276 20.3955 5.82674 20.3725C5.80373 20.3725 5.79222 20.3495 5.76921 20.338C5.71169 20.3034 5.64266 20.2689 5.58514 20.2344C5.57363 20.2344 5.55062 20.2114 5.53912 20.2114C5.4931 20.1884 5.44708 20.1539 5.40106 20.1309C5.37805 20.1194 5.35504 20.1079 5.33203 20.0964C5.29751 20.0733 5.263 20.0618 5.23999 20.0388C5.21698 20.0273 5.19397 20.0158 5.17096 19.9928C5.13645 19.9698 5.09043 19.9468 5.05591 19.9123C5.04441 19.9123 5.0214 19.8893 5.00989 19.8778C4.95237 19.8433 4.90635 19.8087 4.86033 19.7742C4.83732 19.7627 4.82582 19.7512 4.80281 19.7397C4.76829 19.7167 4.73378 19.6937 4.69926 19.6592C4.67625 19.6477 4.65324 19.6247 4.64174 19.6132C4.60722 19.5901 4.57271 19.5671 4.5497 19.5441C4.52669 19.5326 4.50368 19.5096 4.49218 19.4981C4.45766 19.4751 4.42315 19.4406 4.40014 19.4176C4.37713 19.4061 4.36562 19.3831 4.34261 19.3716C4.29659 19.337 4.26208 19.3025 4.21606 19.268C4.21606 19.268 4.19305 19.2565 4.19305 19.245C4.14703 19.199 4.10101 19.153 4.04349 19.1069C4.03198 19.0954 4.00897 19.0839 3.99747 19.0609C3.96295 19.0264 3.92844 18.9919 3.89393 18.9689C3.87092 18.9459 3.85941 18.9344 3.8364 18.9114C3.80189 18.8768 3.77888 18.8538 3.74436 18.8193C3.72135 18.7963 3.70985 18.7848 3.68684 18.7618C3.65232 18.7273 3.62931 18.6928 3.5948 18.6583C3.5833 18.6468 3.56029 18.6237 3.54878 18.6122C3.51427 18.5662 3.46825 18.5202 3.43373 18.4742C3.43373 18.4742 3.43373 18.4627 3.42223 18.4512C3.37621 18.3936 3.33019 18.3476 3.28417 18.2901C3.27266 18.2786 3.26116 18.2556 3.24966 18.2441C3.21514 18.2096 3.19213 18.1635 3.15762 18.129C3.14611 18.106 3.1231 18.083 3.1116 18.0715C3.08859 18.037 3.05407 17.991 3.03106 17.9565C3.01956 17.9335 2.99655 17.9104 2.98504 17.8874C2.96203 17.8414 2.92752 17.8069 2.90451 17.7609C2.89301 17.7379 2.8815 17.7264 2.87 17.7034C2.83548 17.6458 2.78946 17.5883 2.75495 17.5308C2.75495 17.5308 2.75495 17.5308 2.75495 17.5193C2.72043 17.4618 2.67441 17.3927 2.6399 17.3237C2.6399 17.3007 2.61689 17.2892 2.60538 17.2662C2.58237 17.2202 2.54786 17.1741 2.52485 17.1281C2.51335 17.1051 2.50184 17.0821 2.47883 17.0591C2.45582 17.0131 2.43281 16.967 2.4098 16.921C2.3983 16.898 2.38679 16.875 2.37529 16.8405C2.35228 16.7945 2.32927 16.7485 2.30626 16.6909C2.30626 16.6679 2.28325 16.6449 2.27174 16.6219C2.23723 16.5529 2.20272 16.4838 2.1682 16.4148C2.1682 16.4148 2.1682 16.4148 2.1682 16.4033C2.13369 16.3343 2.09917 16.2537 2.06466 16.1732C2.06466 16.1502 2.04165 16.1272 2.03014 16.1042C2.00713 16.0467 1.98412 16.0006 1.96111 15.9431C1.94961 15.9201 1.9381 15.8856 1.9266 15.8626C1.90359 15.8166 1.88058 15.759 1.86908 15.7015C1.86908 15.667 1.84607 15.644 1.83456 15.6095C1.81155 15.552 1.78854 15.4944 1.77704 15.4369C1.77704 15.4139 1.75403 15.3794 1.75403 15.3564C1.73102 15.2758 1.6965 15.1953 1.67349 15.1148C1.65048 15.0342 1.61597 14.9422 1.59296 14.8502C1.59296 14.8271 1.58145 14.7926 1.56995 14.7696C1.54694 14.7121 1.53543 14.6431 1.51243 14.5855C1.51243 14.551 1.48942 14.5165 1.48942 14.482C1.47791 14.4245 1.4549 14.367 1.4434 14.2979C1.4434 14.2634 1.42039 14.2289 1.42039 14.1944C1.40888 14.1254 1.38587 14.0678 1.37437 13.9988C1.37437 13.9643 1.36286 13.9413 1.35136 13.9068C1.32835 13.8147 1.30534 13.7112 1.28233 13.6191C1.24781 13.7457 1.2133 13.8722 1.17879 13.9988C1.16728 14.0678 1.14427 14.1369 1.13277 14.1944C1.12126 14.2519 1.10976 14.2979 1.09825 14.3555C1.07524 14.4475 1.05223 14.5395 1.04073 14.6201C1.04073 14.6316 1.04073 14.6431 1.04073 14.6546C1.00621 14.8387 0.960193 15.0112 0.925679 15.1838C0.925679 15.2183 0.914174 15.2413 0.902669 15.2758C0.902669 15.3219 0.879659 15.3679 0.879659 15.4254C0.879659 15.4714 0.868155 15.5059 0.85665 15.552C0.603543 16.5989 0.52301 17.4618 0.5 18.2901C0.5 18.4857 0.5 18.6698 0.5 18.8653C0.511505 20.2344 0.707087 21.5345 1.04073 22.754C1.66199 25.0319 2.78946 27.0223 4.22757 28.679C4.23907 28.702 4.26208 28.7135 4.27359 28.7365C4.46917 28.9551 4.67625 29.1737 4.88334 29.3923C4.89485 29.4038 4.91786 29.4268 4.92936 29.4383C5.0214 29.5303 5.12494 29.6339 5.21698 29.7259C5.21698 29.7259 5.22849 29.7374 5.23999 29.7489C5.34353 29.8525 5.45858 29.956 5.56213 30.048C5.57363 30.0595 5.59664 30.071 5.60815 30.0826C5.70018 30.1746 5.80373 30.2551 5.89577 30.3357C5.91878 30.3472 5.93028 30.3702 5.95329 30.3817C6.06834 30.4737 6.17188 30.5658 6.28693 30.6578C6.28693 30.6578 6.29844 30.6693 6.30994 30.6808C6.41348 30.7613 6.51703 30.8419 6.62057 30.9224C6.64358 30.9454 6.66659 30.9569 6.6896 30.9799C6.74712 31.026 6.80465 31.0605 6.86217 31.1065C7.03475 31.233 7.20732 31.3481 7.37989 31.4746C7.4029 31.4976 7.43741 31.5092 7.46042 31.5322C7.56397 31.6012 7.65601 31.6702 7.75955 31.7277C7.78256 31.7277 7.79406 31.7508 7.81707 31.7623C7.93212 31.8313 8.04717 31.9118 8.17372 31.9809C8.19673 31.9924 8.23125 32.0154 8.25426 32.0269C8.3463 32.0844 8.44984 32.1419 8.54188 32.1994C8.56489 32.2109 8.5994 32.234 8.62241 32.2455C8.73746 32.3145 8.86401 32.372 8.97906 32.441C9.00207 32.441 9.02508 32.4641 9.03659 32.4756C9.14013 32.5331 9.24367 32.5791 9.34722 32.6251C9.38173 32.6366 9.41625 32.6596 9.45076 32.6711C9.57731 32.7287 9.69236 32.7862 9.81891 32.8437C15.7439 35.5473 20.4609 36.1456 22.3247 39.1829C22.3477 39.2059 22.3592 39.2404 22.3822 39.2749C22.4282 39.3554 22.4857 39.4475 22.5318 39.528C22.6123 39.6776 22.6698 39.8156 22.7388 39.9767C22.9229 40.4254 23.0265 40.8971 23.0955 41.3803C23.2335 41.3573 23.3716 41.3228 23.4982 41.2883C24.4416 41.0697 25.0858 40.8051 25.4655 40.6095C25.615 40.5289 25.7071 40.4829 25.7646 40.4369C25.8336 40.4714 25.9372 40.5404 26.0983 40.621C26.4434 40.782 26.9611 41.0121 27.6284 41.2192C27.7204 40.6325 27.8815 40.0572 28.1576 39.528C28.2036 39.436 28.2612 39.3439 28.3072 39.2519C28.3187 39.2289 28.3417 39.1944 28.3532 39.1714C28.3877 39.1023 28.4337 39.0448 28.4798 38.9873C28.5028 38.9643 28.5143 38.9298 28.5373 38.9068C30.5621 36.1111 35.4632 35.4668 41.2041 32.8437C41.3307 32.7862 41.4572 32.7287 41.5723 32.6711C41.6068 32.6596 41.6413 32.6366 41.6643 32.6251C41.7793 32.5676 41.8829 32.5101 41.9979 32.4526C42.0094 32.4526 42.0209 32.441 42.0324 32.4295C42.159 32.3605 42.274 32.303 42.4006 32.234C42.4236 32.2225 42.4581 32.1994 42.4811 32.1879C42.5847 32.1304 42.6997 32.0614 42.8033 32.0039C42.8148 32.0039 42.8378 31.9809 42.8493 31.9809C42.9758 31.9118 43.0909 31.8313 43.2174 31.7508C43.2405 31.7393 43.252 31.7277 43.275 31.7162C43.39 31.6472 43.4936 31.5782 43.6086 31.4976C43.6201 31.4976 43.6316 31.4746 43.6546 31.4746C43.6546 31.4746 43.6776 31.4631 43.6891 31.4516C43.8042 31.3711 43.9077 31.2906 44.0228 31.21C44.0228 31.21 44.0343 31.1985 44.0458 31.187C44.0458 31.187 44.0573 31.1755 44.0688 31.164C44.0918 31.1525 44.1148 31.1295 44.1378 31.118C44.2184 31.0605 44.3104 30.9914 44.3909 30.9339C44.3909 30.9339 44.4139 30.9224 44.4254 30.9109C44.4485 30.8879 44.483 30.8649 44.506 30.8419C44.7131 30.6808 44.9317 30.5082 45.1387 30.3242C45.1387 30.3242 45.1503 30.3127 45.1618 30.3011C45.4034 30.0941 45.6335 29.887 45.852 29.6684C45.852 29.6684 45.8521 29.6684 45.8636 29.6569C46.0937 29.4383 46.3122 29.2082 46.5308 28.9666C47.9804 27.3789 49.1309 25.4576 49.8212 23.2602C49.8672 23.0991 49.9248 22.9265 49.9708 22.7655C49.9708 22.7655 49.9708 22.7655 49.9708 22.754V22.7425ZM25.7416 40.4254C25.7531 40.4254 25.7646 40.4254 25.7416 40.4254V40.4254Z" fill="white"></path><path fill-rule="evenodd" clip-rule="evenodd" d="M49.1194 24.3989C48.5327 25.2272 47.8309 25.9981 46.991 26.6653C44.0688 28.9548 41.2731 29.4265 38.5465 29.8752C34.7499 30.508 31.1029 31.1062 27.4328 36.6745L27.2602 36.5595C30.9763 30.9221 34.6809 30.3124 38.512 29.6681C41.2156 29.2194 43.9768 28.7592 46.8645 26.5043C47.6928 25.86 48.3831 25.1007 48.9584 24.2838C49.3955 23.6511 49.7637 22.9953 50.0743 22.328C50.0743 22.305 50.0858 22.282 50.0973 22.259C50.3504 21.2006 50.4885 20.0961 50.5 18.9226C49.9823 20.1421 49.2575 21.2005 48.4061 22.1324C47.037 23.6166 45.3573 24.7325 43.7352 25.5494C42.205 26.3087 40.0421 26.7229 37.8792 27.137C35.2791 27.6318 32.679 28.1265 31.2064 29.2194C30.3205 29.8752 29.4462 30.8761 28.6868 32.0956C27.962 33.2691 27.3293 34.6727 26.8921 36.1913L26.6965 36.1338C27.1452 34.5922 27.778 33.1771 28.5143 31.9806C29.2851 30.7265 30.1825 29.7141 31.0914 29.0468C32.5985 27.9309 35.2216 27.4247 37.8447 26.93C39.9961 26.5158 42.159 26.1016 43.6546 25.3538C45.2538 24.5485 46.922 23.444 48.2681 21.9829C49.2115 20.9589 50.0053 19.7509 50.5115 18.3589C50.5115 18.3358 50.5115 18.3243 50.5115 18.3013C50.4885 17.519 50.4195 16.7022 50.2814 15.8623C50.0398 17.1393 49.4646 18.3358 48.6822 19.3713C47.4512 20.9935 45.691 22.2475 43.8272 22.9148C42.6077 23.352 41.066 23.6511 39.4324 23.9732C36.1535 24.6175 32.5064 25.3308 30.355 27.3671C27.2027 30.3469 26.5124 34.293 26.2363 35.8577L26.2133 35.9612L26.0062 35.9267V35.8232C26.3053 34.247 27.0071 30.2549 30.2055 27.2176C32.4029 25.1352 36.0844 24.4219 39.3863 23.7661C41.0085 23.444 42.5387 23.1449 43.7467 22.7192C45.5759 22.0634 47.3017 20.8324 48.5097 19.2562C49.3955 18.0827 50.0053 16.7252 50.1664 15.241C50.1433 15.1145 50.1088 14.9764 50.0858 14.8499C50.0858 14.8269 50.0858 14.8039 50.0743 14.7809C50.0513 14.7003 50.0398 14.6083 50.0168 14.5277C50.0053 14.4702 49.9938 14.4127 49.9708 14.3552C49.9593 14.2977 49.9363 14.2286 49.9248 14.1711C49.8902 14.0445 49.8557 13.918 49.8212 13.7914C49.7982 13.895 49.7752 13.987 49.7522 14.0791C49.7522 14.1136 49.7407 14.1366 49.7292 14.1711C49.7177 14.2401 49.6947 14.2977 49.6832 14.3667C49.6832 14.4012 49.6601 14.4357 49.6601 14.4702C49.6486 14.5277 49.6256 14.5853 49.6141 14.6543C49.6141 14.6888 49.5911 14.7233 49.5911 14.7578C49.5681 14.8154 49.5566 14.8844 49.5336 14.9419C49.5336 14.9649 49.5221 14.9994 49.5106 15.0225C49.4876 15.1145 49.4531 15.195 49.43 15.2871C49.407 15.3676 49.3725 15.4481 49.3495 15.5287C49.3495 15.5517 49.3265 15.5862 49.3265 15.6092C49.3035 15.6667 49.2805 15.7243 49.269 15.7818C49.269 15.8163 49.246 15.8393 49.2345 15.8738C49.2115 15.9313 49.1885 15.9774 49.1769 16.0349C49.1769 16.0579 49.1539 16.0924 49.1424 16.1154C49.1194 16.1729 49.0964 16.2305 49.0734 16.2765C49.0734 16.2995 49.0504 16.3225 49.0389 16.3455C49.0044 16.426 48.9699 16.4951 48.9353 16.5756C48.9353 16.5756 48.9353 16.5756 48.9353 16.5871C48.9008 16.6561 48.8663 16.7252 48.8318 16.7942C48.8318 16.8172 48.8088 16.8402 48.7973 16.8632C48.7743 16.9092 48.7513 16.9553 48.7283 17.0128C48.7168 17.0358 48.7052 17.0588 48.6937 17.0933C48.6707 17.1393 48.6477 17.1854 48.6247 17.2314C48.6132 17.2544 48.6017 17.2774 48.5787 17.3004C48.5557 17.3464 48.5212 17.3925 48.4982 17.4385C48.4982 17.4615 48.4752 17.473 48.4636 17.496C48.4291 17.565 48.3831 17.6225 48.3486 17.6916C48.3486 17.6916 48.3486 17.6916 48.3486 17.7031C48.3141 17.7606 48.2796 17.8181 48.2336 17.8757C48.222 17.8987 48.2105 17.9102 48.1875 17.9332C48.1645 17.9792 48.13 18.0137 48.107 18.0597C48.0955 18.0827 48.0725 18.1058 48.061 18.1288C48.038 18.1633 48.0035 18.2093 47.9804 18.2438C47.9689 18.2668 47.9459 18.2898 47.9344 18.3013C47.8999 18.3358 47.8769 18.3819 47.8424 18.4164C47.8309 18.4279 47.8194 18.4509 47.7964 18.4624C47.7503 18.5199 47.7043 18.5659 47.6583 18.6235C47.6583 18.6235 47.6468 18.635 47.6353 18.6465C47.6008 18.6925 47.5548 18.7385 47.5202 18.773C47.5087 18.796 47.4857 18.8075 47.4742 18.8306C47.4397 18.8651 47.4167 18.8996 47.3822 18.9226C47.3592 18.9456 47.3477 18.9571 47.3247 18.9801C47.2902 19.0146 47.2671 19.0376 47.2326 19.0722C47.2096 19.0952 47.1981 19.1067 47.1751 19.1297C47.1406 19.1642 47.1061 19.1872 47.0831 19.2217C47.0716 19.2332 47.0486 19.2562 47.037 19.2677C46.991 19.3138 46.945 19.3598 46.8875 19.3943C46.8875 19.3943 46.8645 19.4173 46.853 19.4288C46.8185 19.4633 46.7724 19.4978 46.7379 19.5323C46.7149 19.5439 46.7034 19.5669 46.6804 19.5784C46.6459 19.6014 46.6229 19.6244 46.5884 19.6589C46.5653 19.6704 46.5423 19.6934 46.5193 19.7049C46.4848 19.7279 46.4618 19.7509 46.4273 19.774C46.4043 19.7855 46.3813 19.8085 46.3583 19.82C46.3237 19.843 46.2892 19.866 46.2547 19.889C46.2317 19.9005 46.2202 19.912 46.1972 19.935C46.1512 19.9695 46.0937 20.004 46.0476 20.0386C46.0361 20.0501 46.0131 20.0616 45.9901 20.0731C45.9556 20.0961 45.9211 20.1191 45.8866 20.1421C45.8636 20.1536 45.8405 20.1766 45.8175 20.1881C45.783 20.2111 45.76 20.2226 45.7255 20.2456C45.7025 20.2572 45.6795 20.2687 45.668 20.2802C45.5874 20.3262 45.5184 20.3722 45.4379 20.4067C45.4264 20.4067 45.4034 20.4182 45.3919 20.4297C45.3113 20.4757 45.2308 20.5103 45.1503 20.5563C45.1503 20.5563 45.1272 20.5563 45.1157 20.5678C45.0352 20.6023 44.9547 20.6483 44.8856 20.6828C44.8856 20.6828 44.8626 20.6828 44.8511 20.6943C44.7706 20.7289 44.6901 20.7634 44.6095 20.7979C44.598 20.7979 44.575 20.8094 44.5635 20.8209C44.483 20.8554 44.4024 20.8899 44.3219 20.9244C44.2989 20.9244 44.2874 20.9359 44.2644 20.9474C44.1838 20.982 44.1033 21.005 44.0228 21.0395C43.9998 21.0395 43.9883 21.051 43.9653 21.0625C43.8847 21.097 43.8042 21.12 43.7122 21.143C43.7006 21.143 43.6776 21.143 43.6661 21.1545C43.5856 21.1775 43.4936 21.2121 43.413 21.2351C43.4015 21.2351 43.39 21.2351 43.3785 21.2351C43.298 21.2581 43.2059 21.2811 43.1254 21.3041C43.1139 21.3041 43.0909 21.3041 43.0794 21.3156C42.9988 21.3386 42.9068 21.3616 42.8263 21.3846C42.8033 21.3846 42.7803 21.3846 42.7688 21.3961C42.6882 21.4191 42.5962 21.4422 42.5156 21.4537C42.4926 21.4537 42.4696 21.4537 42.4466 21.4652C42.3661 21.4882 42.274 21.4997 42.1935 21.5227C42.1705 21.5227 42.1475 21.5227 42.1245 21.5342C42.0324 21.5572 41.9519 21.5687 41.8599 21.5917C41.8484 21.5917 41.8254 21.5917 41.8139 21.5917C41.7333 21.6032 41.6528 21.6262 41.5607 21.6377C41.5492 21.6377 41.5262 21.6377 41.5147 21.6377C41.4227 21.6492 41.3422 21.6722 41.2501 21.6838C41.2271 21.6838 41.2041 21.6838 41.1811 21.6838C41.1006 21.6953 41.0085 21.7068 40.928 21.7298C40.905 21.7298 40.882 21.7298 40.8474 21.7413C40.7669 21.7528 40.6749 21.7643 40.5943 21.7758C40.5713 21.7758 40.5368 21.7758 40.5138 21.7758C40.4333 21.7873 40.3412 21.7988 40.2607 21.8103C40.2377 21.8103 40.2147 21.8103 40.1802 21.8103C40.0996 21.8103 40.0191 21.8333 39.9386 21.8448C39.904 21.8448 39.881 21.8448 39.8465 21.8448C39.7775 21.8448 39.697 21.8678 39.6164 21.8678C39.5934 21.8678 39.5589 21.8678 39.5359 21.8678C39.4554 21.8678 39.3748 21.8908 39.2943 21.8908C39.2598 21.8908 39.2253 21.8908 39.1908 21.8908C39.1102 21.8908 39.0412 21.9023 38.9607 21.9138C38.9146 21.9138 38.8686 21.9138 38.8226 21.9254C38.7766 21.9254 38.7306 21.9254 38.673 21.9369C38.2013 21.9829 37.7296 22.0289 37.2694 22.0864H37.2464C37.1429 22.0864 37.0509 22.1094 36.9473 22.1209C36.9358 22.1209 36.9243 22.1209 36.9128 22.1209C36.8092 22.1324 36.7172 22.1439 36.6137 22.1555C36.6137 22.1555 36.5907 22.1555 36.5792 22.1555C36.4756 22.167 36.3721 22.1785 36.28 22.19C36.1765 22.2015 36.0844 22.213 35.9809 22.236C35.9809 22.236 35.9579 22.236 35.9464 22.236C35.8544 22.2475 35.7623 22.259 35.6703 22.282C35.6703 22.282 35.6473 22.282 35.6358 22.282C35.6358 22.282 35.6243 22.282 35.6128 22.282C35.5092 22.2935 35.4172 22.3165 35.3136 22.328C35.2906 22.328 35.2791 22.328 35.2561 22.328C35.1641 22.3395 35.0605 22.3625 34.9685 22.374C34.9455 22.374 34.934 22.374 34.911 22.374C34.8189 22.3971 34.7269 22.4086 34.6233 22.4316C34.6003 22.4316 34.5888 22.4316 34.5658 22.4316C34.4738 22.4546 34.3817 22.4661 34.2897 22.4891C34.2667 22.4891 34.2552 22.4891 34.2322 22.5006C34.1401 22.5236 34.0481 22.5466 33.9561 22.5696C33.933 22.5696 33.9215 22.5696 33.8985 22.5811C33.8065 22.6041 33.7145 22.6271 33.6224 22.6502C33.6109 22.6502 33.5879 22.6502 33.5764 22.6617C33.4844 22.6847 33.3923 22.7077 33.3003 22.7422C33.2888 22.7422 33.2658 22.7422 33.2543 22.7537C33.1622 22.7767 33.0702 22.8112 32.9781 22.8342C32.9666 22.8342 32.9551 22.8342 32.9321 22.8457C32.8401 22.8803 32.748 22.9033 32.656 22.9378C32.6445 22.9378 32.633 22.9378 32.6215 22.9493C32.5295 22.9838 32.4374 23.0183 32.3454 23.0528C32.3339 23.0528 32.3224 23.0528 32.3109 23.0643C32.2188 23.0988 32.1268 23.1334 32.0463 23.1794C32.0463 23.1794 32.0232 23.1794 32.0117 23.1909C31.9197 23.2254 31.8277 23.2714 31.7471 23.3174C31.7471 23.3174 31.7356 23.3174 31.7241 23.3289C31.6321 23.375 31.54 23.421 31.4595 23.467C31.4595 23.467 31.448 23.467 31.4365 23.467C31.3445 23.513 31.2524 23.559 31.1719 23.6166C31.1719 23.6166 31.1719 23.6166 31.1604 23.6166C31.0683 23.6741 30.9763 23.7201 30.8958 23.7776C30.8037 23.8352 30.7117 23.8927 30.6312 23.9617C30.5276 24.0307 30.4356 24.0998 30.332 24.1803C30.2975 24.2033 30.2745 24.2263 30.24 24.2493C30.171 24.2953 30.1134 24.3529 30.0444 24.3989C30.0099 24.4334 29.9754 24.4564 29.9409 24.4909C29.8833 24.537 29.8258 24.583 29.7683 24.6405C29.7338 24.675 29.6993 24.7095 29.6532 24.744C29.5957 24.7901 29.5497 24.8361 29.4922 24.8936C29.4577 24.9281 29.4231 24.9626 29.3886 24.9971C29.3426 25.0432 29.2851 25.1007 29.2391 25.1467C29.2046 25.1812 29.17 25.2157 29.1355 25.2503C29.0895 25.3078 29.032 25.3538 28.986 25.4113C28.9515 25.4458 28.9169 25.4803 28.8939 25.5149C28.8479 25.5724 28.7904 25.6299 28.7444 25.6874C28.7214 25.7219 28.6868 25.745 28.6638 25.7795C28.6063 25.8485 28.5488 25.9175 28.4913 25.9866C28.4798 26.0096 28.4567 26.0326 28.4452 26.0441C28.3762 26.1361 28.2957 26.2282 28.2266 26.3317C28.2266 26.3432 28.2036 26.3547 28.2036 26.3662C28.1461 26.4468 28.0886 26.5273 28.0196 26.6193C27.9965 26.6538 27.9735 26.6768 27.962 26.7114C27.916 26.7804 27.87 26.8494 27.824 26.9069C27.801 26.9415 27.778 26.976 27.7549 27.0105C27.7089 27.068 27.6744 27.137 27.6399 27.1946C27.6169 27.2291 27.5939 27.2751 27.5709 27.3096C27.5364 27.3671 27.4903 27.4362 27.4558 27.4937C27.4328 27.5282 27.4098 27.5742 27.3868 27.6087C27.3523 27.6778 27.3178 27.7353 27.2833 27.8043C27.2602 27.8388 27.2372 27.8849 27.2257 27.9194C27.1912 27.9884 27.1567 28.0574 27.1222 28.115C27.0992 28.1495 27.0877 28.184 27.0647 28.2185C27.0301 28.2875 26.9956 28.3681 26.9496 28.4371C26.9496 28.4601 26.9266 28.4831 26.9151 28.5061C26.9151 28.5061 26.9151 28.5061 26.9151 28.5176C26.8461 28.6672 26.7655 28.8283 26.6965 28.9778C26.6965 29.0008 26.6735 29.0238 26.662 29.0468C26.593 29.1964 26.5354 29.346 26.4664 29.507C26.4664 29.53 26.4434 29.5531 26.4319 29.5876C26.3744 29.7371 26.3168 29.8982 26.2593 30.0478C26.2593 30.0593 26.2478 30.0823 26.2363 30.0938C26.1788 30.2433 26.1213 30.4044 26.0752 30.554V30.577C26.0177 30.7381 25.9717 30.8876 25.9257 31.0372C25.9257 31.0602 25.9142 31.0832 25.9027 31.1062C25.8567 31.2558 25.8106 31.4053 25.7761 31.5549C25.7761 31.5779 25.7646 31.6124 25.7531 31.6354C25.7071 31.785 25.6726 31.9346 25.6381 32.0726C25.6381 32.0956 25.6381 32.1186 25.6266 32.1416C25.592 32.2912 25.5575 32.4408 25.523 32.5903C24.8557 29.6336 23.4291 26.0441 20.4034 23.9157C20.3458 23.8812 20.2883 23.8352 20.2308 23.8006C20.2193 23.8006 20.1963 23.7776 20.1848 23.7661C20.1388 23.7316 20.0927 23.7086 20.0467 23.6741C20.0352 23.6741 20.0237 23.6626 20.0007 23.6511C19.9432 23.6166 19.8856 23.582 19.8281 23.5475C19.8166 23.5475 19.8051 23.536 19.7821 23.5245C19.7361 23.5015 19.6901 23.467 19.644 23.444C19.621 23.444 19.6095 23.421 19.5865 23.4095C19.529 23.375 19.4715 23.352 19.4139 23.3174C19.4139 23.3174 19.4139 23.3174 19.4024 23.3174C19.3449 23.2829 19.2874 23.2599 19.2184 23.2254C19.1954 23.2254 19.1838 23.2024 19.1608 23.2024C19.1148 23.1794 19.0688 23.1564 19.0113 23.1334C18.9998 23.1334 18.9768 23.1219 18.9653 23.1104C18.9077 23.0873 18.8387 23.0528 18.7812 23.0298C18.7697 23.0298 18.7467 23.0183 18.7352 23.0068C18.6891 22.9838 18.6431 22.9723 18.5856 22.9493C18.5626 22.9493 18.5396 22.9378 18.5281 22.9263C18.4705 22.9033 18.413 22.8803 18.3555 22.8572C18.3555 22.8572 18.3325 22.8572 18.321 22.8572C18.2635 22.8342 18.1944 22.8112 18.1369 22.7997C18.1139 22.7997 18.0909 22.7882 18.0679 22.7767C18.0219 22.7652 17.9758 22.7422 17.9183 22.7307C17.8953 22.7307 17.8838 22.7192 17.8608 22.7077C17.7918 22.6847 17.7342 22.6732 17.6652 22.6502C17.6422 22.6502 17.6307 22.6502 17.6077 22.6387C17.5617 22.6271 17.5041 22.6156 17.4581 22.5926C17.4351 22.5926 17.4121 22.5811 17.3891 22.5696C17.3316 22.5581 17.274 22.5351 17.2165 22.5236C17.205 22.5236 17.182 22.5236 17.1705 22.5121C17.113 22.5006 17.0555 22.4776 16.9864 22.4661C16.9634 22.4661 16.9404 22.4546 16.9059 22.4431C16.8599 22.4431 16.8139 22.4201 16.7678 22.4086C16.7448 22.4086 16.7218 22.4086 16.6988 22.3971C16.6298 22.3855 16.5723 22.374 16.5032 22.351C16.4802 22.351 16.4572 22.351 16.4342 22.3395C16.3882 22.3395 16.3422 22.3165 16.2961 22.3165C16.2731 22.3165 16.2386 22.3165 16.2156 22.305C16.1581 22.305 16.1121 22.282 16.0545 22.2705C16.0315 22.2705 15.997 22.2705 15.974 22.259C15.9165 22.259 15.859 22.236 15.8014 22.2245C15.7669 22.2245 15.7439 22.2245 15.7094 22.213C15.6634 22.213 15.6174 22.2015 15.5713 22.19C15.5483 22.19 15.5138 22.19 15.4908 22.1785C15.4218 22.1785 15.3642 22.1555 15.2952 22.1439C15.2722 22.1439 15.2377 22.1439 15.2147 22.1324C15.1687 22.1324 15.1226 22.1209 15.0766 22.1094C15.0421 22.1094 15.0191 22.1094 14.9846 22.0979C14.9386 22.0979 14.8925 22.0864 14.8465 22.0749C14.8005 22.0749 14.766 22.0749 14.72 22.0634C14.674 22.0634 14.6279 22.0519 14.5819 22.0404C14.5474 22.0404 14.5129 22.0404 14.4784 22.0289C14.4439 22.0289 14.3978 22.0289 14.3633 22.0174C14.3288 22.0174 14.2943 22.0174 14.2598 22.0059C14.2023 22.0059 14.1332 21.9944 14.0757 21.9829C14.0297 21.9829 13.9952 21.9829 13.9491 21.9714C13.9146 21.9714 13.8916 21.9714 13.8571 21.9714C13.8111 21.9714 13.7766 21.9714 13.7306 21.9599C13.7075 21.9599 13.6845 21.9599 13.6615 21.9599C13.1208 21.9023 12.5686 21.8448 12.0278 21.7873C12.0278 21.7873 12.0278 21.7873 12.0163 21.7873C11.9358 21.7873 11.8553 21.7758 11.7862 21.7643C11.7862 21.7643 11.7862 21.7643 11.7747 21.7643C11.6942 21.7643 11.6137 21.7413 11.5331 21.7413C11.5331 21.7413 11.5216 21.7413 11.5101 21.7413C11.4411 21.7413 11.3721 21.7298 11.303 21.7183C11.2915 21.7183 11.2685 21.7183 11.257 21.7183C11.1765 21.7183 11.1075 21.6953 11.0269 21.6953C10.9464 21.6953 10.8774 21.6722 10.7968 21.6607C10.7738 21.6607 10.7623 21.6607 10.7393 21.6607C10.6818 21.6607 10.6127 21.6492 10.5552 21.6377C10.5437 21.6377 10.5207 21.6377 10.5092 21.6377C10.4402 21.6377 10.3596 21.6147 10.2906 21.6032C10.2791 21.6032 10.2561 21.6032 10.2446 21.6032C10.1871 21.6032 10.1295 21.5802 10.0605 21.5802C10.0375 21.5802 10.0145 21.5802 9.99149 21.5802C9.92246 21.5802 9.85343 21.5572 9.7844 21.5457C9.7844 21.5457 9.77289 21.5457 9.76139 21.5457C9.69236 21.5342 9.61183 21.5227 9.5428 21.5112C9.51979 21.5112 9.49678 21.5112 9.47377 21.4997C9.41625 21.4997 9.35872 21.4767 9.3127 21.4652C9.28969 21.4652 9.27819 21.4652 9.25518 21.4652C9.18615 21.4537 9.11712 21.4422 9.04809 21.4191C9.02508 21.4191 9.01358 21.4191 8.99057 21.4191C8.93304 21.4191 8.87552 21.3961 8.8295 21.3846C8.80649 21.3846 8.78348 21.3846 8.76047 21.3731C8.70295 21.3616 8.63392 21.3501 8.57639 21.3271C8.57639 21.3271 8.55338 21.3271 8.54188 21.3271C8.47285 21.3156 8.40382 21.2926 8.33479 21.2811C8.31178 21.2811 8.28877 21.2811 8.26576 21.2696C8.21974 21.2581 8.16222 21.2466 8.1162 21.2351C8.09319 21.2351 8.07018 21.2351 8.05868 21.2236C7.98965 21.2006 7.92062 21.189 7.85159 21.166C7.82858 21.166 7.81707 21.166 7.79406 21.1545C7.73654 21.143 7.69052 21.12 7.633 21.1085C7.60999 21.1085 7.58698 21.097 7.56397 21.0855C7.50644 21.0625 7.44892 21.051 7.39139 21.028C7.37989 21.028 7.36838 21.028 7.35688 21.0165C7.28785 20.9935 7.23033 20.9705 7.1613 20.9474C7.13829 20.9474 7.11528 20.9359 7.09227 20.9244C7.04625 20.9014 7.00023 20.8899 6.94271 20.8669C6.9197 20.8669 6.89669 20.8554 6.88518 20.8439C6.81615 20.8209 6.75863 20.7979 6.6896 20.7749C6.66659 20.7749 6.65509 20.7634 6.63208 20.7519C6.58606 20.7289 6.52853 20.7058 6.48251 20.6943C6.4595 20.6943 6.43649 20.6713 6.41348 20.6598C6.35596 20.6368 6.30994 20.6138 6.25242 20.5908C6.24091 20.5908 6.22941 20.5908 6.2179 20.5793C6.16038 20.5563 6.09135 20.5218 6.03382 20.4872C6.01081 20.4872 5.98781 20.4642 5.9763 20.4527C5.93028 20.4297 5.88426 20.4067 5.83824 20.3837C5.81523 20.3837 5.80373 20.3607 5.78072 20.3492C5.72319 20.3147 5.65416 20.2802 5.59664 20.2456C5.58514 20.2456 5.56213 20.2226 5.55062 20.2226C5.5046 20.1996 5.45858 20.1651 5.41256 20.1421C5.38955 20.1306 5.36654 20.1191 5.34353 20.1076C5.30902 20.0846 5.27451 20.0731 5.2515 20.0501C5.22849 20.0386 5.20548 20.0271 5.18247 20.004C5.14795 19.981 5.10193 19.958 5.06742 19.9235C5.05591 19.9235 5.0329 19.9005 5.0214 19.889C4.96388 19.8545 4.91786 19.82 4.87184 19.7855C4.84883 19.774 4.83732 19.7624 4.81431 19.7509C4.7798 19.7279 4.74528 19.7049 4.71077 19.6704C4.68776 19.6589 4.66475 19.6359 4.65324 19.6244C4.61873 19.6014 4.58422 19.5784 4.56121 19.5554C4.5382 19.5439 4.51519 19.5208 4.50368 19.5093C4.46917 19.4863 4.43465 19.4518 4.41164 19.4288C4.38863 19.4173 4.37713 19.3943 4.35412 19.3828C4.3081 19.3483 4.27359 19.3138 4.22757 19.2792C4.22757 19.2792 4.20456 19.2677 4.20456 19.2562C4.15854 19.2102 4.11252 19.1642 4.05499 19.1182C4.04349 19.1067 4.02048 19.0952 4.00897 19.0722C3.97446 19.0376 3.93994 19.0031 3.90543 18.9801C3.88242 18.9571 3.87092 18.9456 3.84791 18.9226C3.81339 18.8881 3.79038 18.8651 3.75587 18.8306C3.73286 18.8075 3.72135 18.796 3.69834 18.773C3.66383 18.7385 3.64082 18.704 3.6063 18.6695C3.5948 18.658 3.57179 18.635 3.56029 18.6235C3.52577 18.5774 3.47975 18.5314 3.44524 18.4854C3.44524 18.4854 3.44524 18.4739 3.43373 18.4624C3.38771 18.4049 3.34169 18.3589 3.29567 18.3013C3.28417 18.2898 3.27266 18.2668 3.26116 18.2553C3.22665 18.2208 3.20364 18.1748 3.16912 18.1403C3.15762 18.1173 3.13461 18.0942 3.1231 18.0827C3.10009 18.0482 3.06558 18.0022 3.04257 17.9677C3.03106 17.9447 3.00805 17.9217 2.99655 17.8987C2.97354 17.8526 2.93902 17.8181 2.91601 17.7721C2.90451 17.7491 2.89301 17.7376 2.8815 17.7146C2.84699 17.6571 2.80097 17.5995 2.76645 17.542C2.76645 17.542 2.76645 17.542 2.76645 17.5305C2.73194 17.473 2.68592 17.404 2.6514 17.3349C2.6514 17.3119 2.62839 17.3004 2.61689 17.2774C2.59388 17.2314 2.55937 17.1854 2.53636 17.1393C2.52485 17.1163 2.51335 17.0933 2.49034 17.0703C2.46733 17.0243 2.44432 16.9783 2.42131 16.9323C2.4098 16.9092 2.3983 16.8862 2.38679 16.8517C2.36378 16.8057 2.34077 16.7597 2.31776 16.7022C2.31776 16.6792 2.29475 16.6561 2.28325 16.6331C2.24873 16.5641 2.21422 16.4951 2.17971 16.426C2.17971 16.426 2.17971 16.426 2.17971 16.4145C2.14519 16.3455 2.11068 16.265 2.07616 16.1844C2.07616 16.1614 2.05315 16.1384 2.04165 16.1154C2.01864 16.0579 1.99563 16.0119 1.97262 15.9543C1.96111 15.9313 1.94961 15.8968 1.9381 15.8738C1.91509 15.8278 1.89208 15.7703 1.88058 15.7127C1.88058 15.6782 1.85757 15.6552 1.84607 15.6207C1.82306 15.5632 1.80005 15.5057 1.78854 15.4481C1.78854 15.4251 1.76553 15.3906 1.76553 15.3676C1.74252 15.2871 1.70801 15.2065 1.685 15.126C1.66199 15.0455 1.62747 14.9534 1.60446 14.8614C1.60446 14.8384 1.59296 14.8039 1.58145 14.7809C1.55844 14.7233 1.54694 14.6543 1.52393 14.5968C1.52393 14.5623 1.50092 14.5277 1.50092 14.4932C1.48942 14.4357 1.46641 14.3782 1.4549 14.3092C1.4549 14.2746 1.43189 14.2401 1.43189 14.2056C1.42039 14.1366 1.39738 14.0791 1.38587 14.01C1.38587 13.9755 1.37437 13.9525 1.36286 13.918C1.33985 13.826 1.31684 13.7224 1.29383 13.6304C1.25932 13.7569 1.2248 13.8835 1.19029 14.01C1.17879 14.0791 1.15578 14.1481 1.14427 14.2056C1.13277 14.2631 1.12126 14.3092 1.10976 14.3667C1.08675 14.4587 1.06374 14.5508 1.05223 14.6313C1.05223 14.6428 1.05223 14.6543 1.05223 14.6658C1.01772 14.8499 0.971698 15.0225 0.937184 15.195C0.937184 15.2295 0.925679 15.2526 0.914174 15.2871C0.914174 15.3331 0.891164 15.3791 0.891164 15.4366C0.891164 15.4826 0.879659 15.5172 0.868155 15.5632C0.603543 16.5986 0.52301 17.4615 0.5 18.2898C0.5 18.4854 0.5 18.6695 0.5 18.8651C0.511505 20.2341 0.707087 21.5342 1.04073 22.7537C1.66199 25.0317 2.78946 27.022 4.22757 28.6787C4.23907 28.7017 4.26208 28.7132 4.27359 28.7362C4.46917 28.9548 4.67625 29.1734 4.88334 29.392C4.89485 29.4035 4.91786 29.4265 4.92936 29.438C5.0214 29.53 5.12494 29.6336 5.21698 29.7256C5.21698 29.7256 5.22849 29.7371 5.23999 29.7486C5.34353 29.8522 5.45858 29.9557 5.56213 30.0478C5.57363 30.0593 5.59664 30.0708 5.60815 30.0823C5.70018 30.1743 5.80373 30.2549 5.89577 30.3354C5.91878 30.3469 5.93028 30.3699 5.95329 30.3814C6.06834 30.4734 6.17188 30.5655 6.28693 30.6575C6.28693 30.6575 6.29844 30.669 6.30994 30.6805C6.41348 30.7611 6.51703 30.8416 6.62057 30.9221C6.64358 30.9451 6.66659 30.9566 6.6896 30.9797C6.74712 31.0257 6.80465 31.0602 6.86217 31.1062C7.03475 31.2328 7.20732 31.3478 7.37989 31.4744C7.4029 31.4974 7.43741 31.5089 7.46042 31.5319C7.56397 31.6009 7.65601 31.6699 7.75955 31.7275C7.78256 31.7275 7.79406 31.7505 7.81707 31.762C7.93212 31.831 8.04717 31.9115 8.17372 31.9806C8.19673 31.9921 8.23125 32.0151 8.25426 32.0266C8.3463 32.0841 8.44984 32.1416 8.54188 32.1992C8.56489 32.2107 8.5994 32.2337 8.62241 32.2452C8.73746 32.3142 8.86401 32.3717 8.97906 32.4408C9.00207 32.4408 9.02508 32.4638 9.03659 32.4753C9.14013 32.5328 9.24367 32.5788 9.34722 32.6248C9.38173 32.6364 9.41625 32.6594 9.45076 32.6709C9.57731 32.7284 9.69236 32.7859 9.81891 32.8434C15.7439 35.5471 20.4609 36.1453 22.3247 39.1826C22.3477 39.2056 22.3592 39.2401 22.3822 39.2746C22.4282 39.3552 22.4857 39.4472 22.5318 39.5277C22.6123 39.6773 22.6698 39.8154 22.7388 39.9764C22.9229 40.4251 23.0265 40.8968 23.0955 41.38C23.2335 41.357 23.3716 41.3225 23.4982 41.288C24.4416 41.0694 25.0858 40.8048 25.4655 40.6092C25.615 40.5287 25.7071 40.4826 25.7646 40.4366C25.8336 40.4711 25.9372 40.5402 26.0983 40.6207C26.4434 40.7818 26.9611 41.0119 27.6284 41.219C27.7204 40.6322 27.8815 40.057 28.1576 39.5277C28.2036 39.4357 28.2612 39.3437 28.3072 39.2516C28.3187 39.2286 28.3417 39.1941 28.3532 39.1711C28.3877 39.1021 28.4337 39.0445 28.4798 38.987C28.5028 38.964 28.5143 38.9295 28.5373 38.9065C30.5621 36.1108 35.4632 35.4665 41.2041 32.8434C41.3307 32.7859 41.4572 32.7284 41.5723 32.6709C41.6068 32.6594 41.6413 32.6364 41.6643 32.6248C41.7793 32.5673 41.8829 32.5098 41.9979 32.4523C42.0094 32.4523 42.0209 32.4408 42.0324 32.4293C42.159 32.3602 42.274 32.3027 42.4006 32.2337C42.4236 32.2222 42.4581 32.1992 42.4811 32.1877C42.5847 32.1301 42.6997 32.0611 42.8033 32.0036C42.8148 32.0036 42.8378 31.9806 42.8493 31.9806C42.9758 31.9115 43.0909 31.831 43.2174 31.7505C43.2405 31.739 43.252 31.7275 43.275 31.716C43.39 31.6469 43.4936 31.5779 43.6086 31.4974C43.6201 31.4974 43.6316 31.4744 43.6546 31.4744C43.6546 31.4744 43.6776 31.4629 43.6891 31.4514C43.8042 31.3708 43.9077 31.2903 44.0228 31.2098C44.0228 31.2098 44.0343 31.1982 44.0458 31.1867C44.0458 31.1867 44.0573 31.1752 44.0688 31.1637C44.0918 31.1522 44.1148 31.1292 44.1378 31.1177C44.2184 31.0602 44.3104 30.9912 44.3909 30.9336C44.3909 30.9336 44.4139 30.9221 44.4254 30.9106C44.4485 30.8876 44.483 30.8646 44.506 30.8416C44.7131 30.6805 44.9317 30.508 45.1387 30.3239C45.1387 30.3239 45.1503 30.3124 45.1618 30.3009C45.4034 30.0938 45.6335 29.8867 45.852 29.6681C45.852 29.6681 45.8521 29.6681 45.8636 29.6566C46.0937 29.438 46.3122 29.2079 46.5308 28.9663C47.9689 27.3901 49.1194 25.4919 49.7982 23.3174C49.5911 23.6856 49.3725 24.0422 49.1194 24.3989ZM22.9804 38.0206C19.5405 33.6258 15.1572 32.8089 11.142 32.0611C9.66935 31.785 8.24275 31.5204 6.9197 31.0947C6.74712 30.9682 6.56305 30.8301 6.39047 30.692C7.85159 31.2443 9.48527 31.5434 11.1765 31.8655C15.2377 32.6248 19.6555 33.4532 23.1415 37.9056L22.9804 38.0321V38.0206ZM23.7052 36.64C23.3716 36.0878 22.8654 35.3745 22.0831 34.5116C21.4733 33.8329 20.691 33.0505 19.7016 32.1877C17.6882 30.4159 15.4448 30.1513 13.0173 29.8637C10.2791 29.53 7.29936 29.1734 4.08951 26.6653C3.23815 25.9981 2.53636 25.2272 1.96111 24.3989C1.6965 24.0192 1.4549 23.6281 1.23631 23.2254C1.13277 22.8918 1.04073 22.5581 0.960193 22.213C1.28233 22.9148 1.67349 23.6166 2.13369 24.2838C2.70893 25.1007 3.39922 25.86 4.22757 26.5043C7.39139 28.9778 10.3366 29.3345 13.0518 29.6566C15.5253 29.9557 17.7918 30.2203 19.8511 32.0381C20.8405 32.9125 21.6229 33.6948 22.2441 34.3851C23.0265 35.2595 23.5442 35.9843 23.8893 36.548L23.7168 36.6515L23.7052 36.64ZM24.246 35.9843C23.7858 34.7072 23.061 33.2231 22.2211 31.9115C21.4963 30.7726 20.6795 29.7832 19.8856 29.1964C18.413 28.1034 15.8129 27.6087 13.2128 27.114C11.0384 26.6999 8.87552 26.2857 7.35688 25.5264C5.7347 24.7095 4.04349 23.5936 2.68592 22.1094C1.81155 21.166 1.07524 20.0731 0.557524 18.8306C0.557524 18.6465 0.557524 18.4509 0.557524 18.2553C1.06374 19.6934 1.86908 20.9244 2.83548 21.9714C4.18155 23.4325 5.84975 24.537 7.44892 25.3423C8.94455 26.0901 11.096 26.5043 13.2589 26.9185C15.882 27.4247 18.5051 27.9194 20.0122 29.0353C20.829 29.6451 21.6574 30.6575 22.4052 31.808C23.2451 33.1196 23.9814 34.6267 24.4416 35.9152L24.246 35.9843ZM24.5911 35.2825C24.5796 35.1904 24.5566 35.0639 24.5336 34.9258C24.269 33.3036 23.7513 30.1743 20.76 27.3556C18.6086 25.3193 14.9616 24.606 11.6827 23.9617C10.049 23.6396 8.51887 23.3404 7.28785 22.9033C5.41256 22.236 3.66383 20.982 2.43281 19.3598C1.62747 18.2898 1.04073 17.0703 0.810631 15.7473C0.845145 15.5287 0.891164 15.3101 0.925679 15.0915C1.06374 16.6216 1.67349 18.0367 2.59388 19.2332C3.80189 20.8209 5.52761 22.0404 7.35688 22.6962C8.56489 23.1334 10.095 23.4325 11.7172 23.7431C15.0191 24.3874 18.7006 25.1122 20.8981 27.1946C23.9353 30.0708 24.4531 33.2346 24.7292 34.8798C24.7522 34.9948 24.7637 35.1099 24.7867 35.2364L24.5796 35.271L24.5911 35.2825ZM25.7416 40.4251C25.7531 40.4251 25.7646 40.4251 25.7416 40.4251V40.4251ZM43.7122 31.4053C42.067 32.0841 40.2722 32.4178 38.4429 32.7629C34.8879 33.4417 31.1604 34.1435 28.0311 37.4224L27.8815 37.2843C31.0568 33.9594 34.8074 33.2461 38.4084 32.5673C40.5713 32.1531 42.6767 31.762 44.5405 30.8071C44.2644 31.0142 43.9883 31.2213 43.7122 31.4168V31.4053Z" fill="white"></path><path d="M25.4076 21.6146C28.2669 21.6146 30.5848 19.2967 30.5848 16.4374C30.5848 13.5782 28.2669 11.2603 25.4076 11.2603C22.5484 11.2603 20.2305 13.5782 20.2305 16.4374C20.2305 19.2967 22.5484 21.6146 25.4076 21.6146Z" fill="white"></path><path fill-rule="evenodd" clip-rule="evenodd" d="M46.7031 13.9411C46.7031 4.76024 42.3888 3.79384 35.0487 2.2752V2.17166C34.508 1.30879 33.6451 0.768066 32.5637 0.768066C31.0565 0.768066 29.86 1.95306 29.86 3.35665C29.86 4.76024 31.0565 5.94524 32.5637 5.94524C33.2079 5.94524 33.7487 5.72665 34.1858 5.30097L34.2894 5.40451C41.4224 6.91165 43.2517 7.24529 43.2517 13.9296C43.2517 19.1183 40.6631 26.1362 36.5558 31.2098C35.9116 31.2098 35.2558 31.4284 34.7151 31.9692C32.6672 34.2356 29.3193 36.9393 25.4307 36.9393C21.542 36.9393 18.1941 34.2356 16.1463 32.0842C15.6055 31.5435 14.9498 31.2214 14.3055 31.2214C10.2098 26.1477 7.50614 19.1298 7.50614 13.9411C7.50614 7.24529 9.45045 6.92315 16.5719 5.41602V5.31247C17.0091 5.74966 17.6534 5.95675 18.2977 5.95675C19.8048 5.95675 21.0013 4.77175 21.0013 3.36816C21.0013 1.96457 19.8163 0.779571 18.2977 0.779571C17.1127 0.779571 16.2498 1.3203 15.8126 2.18316H15.7091C8.48405 3.79384 4.05469 4.6567 4.05469 13.9411C4.05469 19.8776 6.86187 27.5513 11.6019 33.2692C11.4983 33.9135 11.6019 34.6728 12.1426 35.2135C15.594 38.8836 19.4827 41.0465 23.4863 41.5872C23.4863 41.5872 25.4882 41.7713 26.9378 41.5872H27.1564C31.2636 41.15 35.2558 38.9986 38.7072 35.2135C39.248 34.5693 39.3515 33.9135 39.248 33.1657C43.8844 27.5513 46.6916 19.8891 46.6916 13.9411H46.7031Z" fill="white"></path><path fill-rule="evenodd" clip-rule="evenodd" d="M36.5562 31.2212C35.9119 31.2212 35.2562 31.4398 34.7154 31.9805C32.6676 34.247 29.3197 36.9506 25.431 36.9506C21.5424 36.9506 18.1945 34.247 16.1466 32.0956C15.6059 31.5548 14.9501 31.2327 14.3059 31.2327C12.0164 31.5548 11.6022 33.2806 11.6022 33.2806C11.4987 33.9248 11.6022 34.6841 12.143 35.2249C15.5944 38.8949 19.483 41.0578 23.4867 41.5986C23.4867 41.5986 25.4886 41.7826 26.9382 41.5986H27.1568C31.264 41.1614 35.2562 39.01 38.7076 35.2249C39.2483 34.5806 39.3519 33.9248 39.2483 33.177C38.374 31.3938 36.5447 31.2327 36.5447 31.2327L36.5562 31.2212Z" fill="white"></path><path d="M25.4076 21.6146C28.2669 21.6146 30.5848 19.2967 30.5848 16.4374C30.5848 13.5782 28.2669 11.2603 25.4076 11.2603C22.5484 11.2603 20.2305 13.5782 20.2305 16.4374C20.2305 19.2967 22.5484 21.6146 25.4076 21.6146Z" fill="white"></path></g><defs><clipPath id="clip0_4229_45521"><rect width="50" height="40.8997" fill="white" transform="translate(0.5 0.768066)"></rect></clipPath></defs></svg>