<svg xmlns="http://www.w3.org/2000/svg" width="24" height="25" viewBox="0 0 24 25" fill="none"><path d="M23.707 24.207C23.512 24.402 23.256 24.5 23 24.5C22.744 24.5 22.488 24.402 22.293 24.207L16.324 18.238C14.599 19.65 12.397 20.5 10 20.5C4.486 20.5 0 16.014 0 10.5C0 4.98596 4.486 0.499957 10 0.499957C11.758 0.499957 13.487 0.962957 15.001 1.83796C15.479 2.11496 15.643 2.72696 15.365 3.20496C15.18 3.52496 14.844 3.70396 14.499 3.70396C14.329 3.70396 14.157 3.66096 13.999 3.56996C12.79 2.86996 11.407 2.49996 10 2.49996C5.589 2.49996 2 6.08896 2 10.5C2 11.667 2.257 12.774 2.709 13.774L6.508 9.21496C6.87 8.77896 7.404 8.51496 7.97 8.48896C8.532 8.46396 9.092 8.67696 9.494 9.07996L11.422 11.008L20.237 0.839957C20.599 0.420957 21.231 0.377957 21.647 0.736957C22.065 1.09796 22.112 1.72996 21.751 2.14796L12.971 12.314C12.605 12.738 12.074 12.993 11.513 13.014C10.956 13.028 10.405 12.819 10.008 12.422L8.08 10.494L3.817 15.569C5.285 17.357 7.512 18.499 10 18.499C14.411 18.499 18 14.91 18 10.499C18 10.349 17.995 10.2 17.987 10.052C17.958 9.49996 18.382 9.02996 18.933 8.99996C19.48 8.95996 19.955 9.39396 19.985 9.94496C19.995 10.128 20 10.313 20 10.498C20 12.896 19.15 15.098 17.738 16.822L23.707 22.791C24.098 23.182 24.098 23.814 23.707 24.205V24.207Z" fill="#006AFF"></path></svg>