<svg xmlns="http://www.w3.org/2000/svg" width="24" height="25" viewBox="0 0 24 25" fill="none"><path d="M2 12.5C2 13.052 1.552 13.5 1 13.5C0.448 13.5 0 13.052 0 12.5C0 5.883 5.383 0.5 12 0.5C14.987 0.5 17.812 1.613 20 3.577V1.5C20 0.948 20.447 0.5 21 0.5C21.553 0.5 22 0.948 22 1.5V5C22 6.378 20.879 7.5 19.5 7.5H16C15.447 7.5 15 7.052 15 6.5C15 5.948 15.447 5.5 16 5.5H19.126C17.251 3.589 14.703 2.5 12 2.5C6.486 2.5 2 6.986 2 12.5ZM23 11.5C22.447 11.5 22 11.948 22 12.5C22 18.014 17.514 22.5 12 22.5C9.297 22.5 6.749 21.411 4.873 19.5H8C8.552 19.5 9 19.052 9 18.5C9 17.948 8.552 17.5 8 17.5H4.5C3.122 17.5 2 18.622 2 20V23.5C2 24.052 2.448 24.5 3 24.5C3.552 24.5 4 24.052 4 23.5V21.423C6.187 23.387 9.013 24.5 12 24.5C18.617 24.5 24 19.117 24 12.5C24 11.948 23.553 11.5 23 11.5ZM17.696 10.366L16.722 10.928C16.888 11.425 17 11.947 17 12.5C17 13.053 16.889 13.575 16.722 14.072L17.696 14.634C18.175 14.91 18.339 15.522 18.062 16C17.876 16.321 17.541 16.5 17.195 16.5C17.025 16.5 16.853 16.457 16.696 16.366L15.723 15.804C15.018 16.598 14.079 17.179 13 17.398V18.499C13 19.051 12.552 19.499 12 19.499C11.448 19.499 11 19.051 11 18.499V17.398C9.921 17.178 8.982 16.597 8.277 15.804L7.304 16.366C7.146 16.457 6.974 16.5 6.805 16.5C6.459 16.5 6.123 16.321 5.938 16C5.662 15.521 5.826 14.91 6.304 14.634L7.278 14.072C7.112 13.575 7 13.053 7 12.5C7 11.947 7.111 11.425 7.278 10.928L6.304 10.366C5.826 10.09 5.662 9.478 5.938 9C6.214 8.521 6.824 8.357 7.304 8.634L8.277 9.196C8.982 8.402 9.921 7.821 11 7.602V6.501C11 5.949 11.448 5.501 12 5.501C12.552 5.501 13 5.949 13 6.501V7.602C14.079 7.822 15.018 8.403 15.723 9.196L16.696 8.634C17.173 8.357 17.785 8.521 18.062 9C18.338 9.479 18.174 10.09 17.696 10.366ZM15 12.5C15 10.846 13.654 9.5 12 9.5C10.346 9.5 9 10.846 9 12.5C9 14.154 10.346 15.5 12 15.5C13.654 15.5 15 14.154 15 12.5Z" fill="#006AFF"></path></svg>