<svg width="50" height="44" viewBox="0 0 50 44" fill="none" xmlns="http://www.w3.org/2000/svg">
<rect x="1" y="0.998047" width="48" height="42" rx="3" fill="#006AFF"/>
<rect x="1" y="0.998047" width="48" height="42" rx="3" stroke="#006AFF" stroke-width="2"/>
<path fill-rule="evenodd" clip-rule="evenodd" d="M22.8568 19.4716H25.9518V21.0132C26.3977 20.1266 27.541 19.3299 29.2585 19.3299C32.551 19.3299 33.3327 21.0949 33.3327 24.3332V30.3307H29.9993V25.0707C29.9993 23.2266 29.5535 22.1866 28.4185 22.1866C26.8444 22.1866 26.1902 23.3074 26.1902 25.0699V30.3307H22.8568V19.4716ZM17.141 30.1891H20.4743V19.3299H17.141V30.1891ZM20.9518 15.7891C20.952 16.0685 20.8966 16.3451 20.7888 16.6029C20.6811 16.8607 20.5232 17.0945 20.3243 17.2907C19.9213 17.6912 19.3759 17.9154 18.8077 17.9141C18.2405 17.9137 17.6963 17.6901 17.2927 17.2916C17.0945 17.0947 16.9372 16.8606 16.8296 16.6028C16.7221 16.3449 16.6665 16.0684 16.666 15.7891C16.666 15.2249 16.891 14.6849 17.2935 14.2866C17.6968 13.8875 18.2412 13.6638 18.8085 13.6641C19.3768 13.6641 19.9218 13.8882 20.3243 14.2866C20.726 14.6849 20.9518 15.2249 20.9518 15.7891Z" fill="white"/>
</svg>
