<svg xmlns="http://www.w3.org/2000/svg" width="20" height="21" viewBox="0 0 20 21" fill="none"><path d="M13.9061 3.11724C14.1045 3.3125 14.1849 3.49032 14.1917 3.7691C14.1886 4.06081 14.1186 4.2307 13.9159 4.43804C13.6895 4.59037 13.4795 4.67349 13.203 4.64068C13.0113 4.58443 12.8281 4.50749 12.6442 4.43011C10.9771 3.73699 9.20158 3.71779 7.51449 4.35748C6.71162 4.69515 6.03473 5.15334 5.39046 5.73443C5.36121 5.76081 5.33195 5.7872 5.30181 5.81438C5.05546 6.04919 4.85057 6.32116 4.64828 6.5938C4.63165 6.6161 4.61502 6.63839 4.59788 6.66136C3.59765 8.0229 3.20977 9.8104 3.44222 11.4742C3.65819 12.8652 4.29999 14.0736 5.23421 15.1094C5.2606 15.1387 5.28698 15.1679 5.31417 15.1981C5.69596 15.5986 6.16541 15.9233 6.64046 16.2032C6.68067 16.227 6.68067 16.227 6.7217 16.2512C7.45918 16.6803 8.26049 16.9309 9.1014 17.0626C9.1724 17.0738 9.1724 17.0738 9.24483 17.0853C10.8995 17.2799 12.6783 16.8141 13.9961 15.7873C14.2061 15.6197 14.4097 15.4456 14.6092 15.2657C14.6385 15.2393 14.6677 15.2129 14.6979 15.1857C14.9442 14.9509 15.1491 14.6789 15.3514 14.4063C15.368 14.384 15.3847 14.3617 15.4018 14.3387C16.2171 13.229 16.6094 11.8618 16.6087 10.4952C16.6087 10.4447 16.6088 10.3943 16.6088 10.3423C16.6071 10.0381 16.5896 9.74905 16.5413 9.44872C16.498 9.15913 16.474 8.87496 16.6276 8.61529C16.7888 8.40289 16.9601 8.28114 17.2264 8.23443C17.4822 8.20968 17.6713 8.25348 17.8905 8.39068C18.2209 8.66793 18.2635 9.08133 18.3079 9.48687C18.3128 9.53131 18.3177 9.57574 18.3228 9.62153C18.5476 11.8299 17.9081 14.0353 16.5094 15.7607C15.0928 17.4847 13.0871 18.5926 10.8592 18.8326C8.61583 19.036 6.41292 18.3849 4.67162 16.9541C2.96434 15.5295 1.86049 13.4892 1.65869 11.2643C1.48633 8.9739 2.17738 6.78589 3.66195 5.03374C5.08724 3.37858 7.14664 2.3161 9.33181 2.15166C10.8279 2.0606 12.6322 2.24837 13.9061 3.11724Z" fill="#006AFF"></path><path d="M17.7736 4.25028C17.9966 4.33024 18.1487 4.48869 18.2814 4.67997C18.417 4.97701 18.3726 5.22634 18.2642 5.52012C18.0952 5.79029 17.8019 5.93372 17.5319 6.08622C16.516 6.67396 15.5919 7.40532 14.7267 8.19559C14.67 8.24688 14.67 8.24688 14.6122 8.2992C14.2798 8.60042 13.9545 8.90735 13.6628 9.24875C13.5863 9.33727 13.5071 9.42299 13.4279 9.50907C13.2286 9.73007 13.0465 9.96301 12.8649 10.1986C12.8174 10.2598 12.769 10.3203 12.7205 10.3808C12.1014 11.161 11.5889 12.0199 11.1209 12.8968C11.0213 13.0831 10.9202 13.2684 10.8141 13.451C10.7962 13.4818 10.7784 13.5125 10.76 13.5442C10.6471 13.7057 10.4992 13.7975 10.3127 13.8597C10.2388 13.8663 10.1647 13.8701 10.0905 13.8719C10.0323 13.8741 10.0323 13.8741 9.97287 13.8763C9.6258 13.8315 9.41026 13.6046 9.17509 13.3667C9.14095 13.3327 9.1068 13.2988 9.07162 13.2638C8.97868 13.1713 8.88611 13.0784 8.7937 12.9854C8.69662 12.8877 8.59913 12.7905 8.50171 12.6932C8.33829 12.5299 8.17518 12.3663 8.01226 12.2025C7.82419 12.0133 7.63564 11.8247 7.44683 11.6364C7.26472 11.4547 7.08295 11.2727 6.90134 11.0905C6.82424 11.0132 6.74703 10.936 6.66973 10.8589C6.56177 10.7511 6.4543 10.6429 6.34688 10.5346C6.31491 10.5028 6.28295 10.4711 6.25002 10.4383C6.01575 10.2009 5.88078 10.002 5.85742 9.66379C5.86254 9.42196 5.93813 9.23791 6.10126 9.05985C6.28891 8.89029 6.4825 8.8183 6.73358 8.80106C7.23624 8.8331 7.55894 9.24574 7.88715 9.58185C7.9424 9.63767 7.99771 9.69344 8.05306 9.74917C8.19781 9.8951 8.342 10.0416 8.48604 10.1882C8.71753 10.4237 8.94981 10.6585 9.18221 10.8931C9.2633 10.9751 9.3441 11.0574 9.42487 11.1398C9.47414 11.1897 9.52342 11.2396 9.57271 11.2895C9.59519 11.3126 9.61767 11.3357 9.64084 11.3594C9.69404 11.4131 9.74927 11.4647 9.80487 11.5159C9.83065 11.5159 9.85643 11.5159 9.883 11.5159C9.90384 11.4776 9.92469 11.4393 9.94617 11.3998C10.1543 11.0212 10.3792 10.66 10.6252 10.305C10.6433 10.2787 10.6613 10.2525 10.68 10.2255C11.189 9.4886 11.737 8.79277 12.3397 8.13028C12.3927 8.07176 12.4452 8.01279 12.4971 7.95328C12.6988 7.72351 12.9119 7.50632 13.1276 7.28983C13.1572 7.26012 13.1867 7.23041 13.2171 7.1998C13.4015 7.01588 13.5917 6.84181 13.7892 6.67215C13.8344 6.63225 13.8795 6.59227 13.9246 6.55222C14.2832 6.23573 14.655 5.94127 15.0392 5.65653C15.068 5.63517 15.0968 5.6138 15.1264 5.59179C17.0365 4.17907 17.0365 4.17907 17.7736 4.25028Z" fill="#006AFF"></path></svg>