<svg xmlns="http://www.w3.org/2000/svg" width="40" height="41" viewBox="0 0 40 41" fill="none"><path d="M17.5 4.875C14.019 4.875 10.6806 6.25781 8.21922 8.71922C5.75781 11.1806 4.375 14.519 4.375 18H0L5.83333 23.8333L11.6667 18H7.29167C7.29167 15.2926 8.36718 12.6961 10.2816 10.7816C12.1961 8.86718 14.7926 7.79167 17.5 7.79167C20.2074 7.79167 22.8039 8.86718 24.7184 10.7816C26.6328 12.6961 27.7083 15.2926 27.7083 18C27.7083 20.7074 26.6328 23.3039 24.7184 25.2184C22.8039 27.1328 20.2074 28.2083 17.5 28.2083C15.3125 28.2083 13.2563 27.4792 11.5792 26.3125L9.47917 28.4125C11.725 30.1042 14.4958 31.125 17.5 31.125C20.981 31.125 24.3194 29.7422 26.7808 27.2808C29.2422 24.8194 30.625 21.481 30.625 18C30.625 14.519 29.2422 11.1806 26.7808 8.71922C24.3194 6.25781 20.981 4.875 17.5 4.875ZM20.4167 18C20.4167 17.2265 20.1094 16.4846 19.5624 15.9376C19.0154 15.3906 18.2735 15.0833 17.5 15.0833C16.7265 15.0833 15.9846 15.3906 15.4376 15.9376C14.8906 16.4846 14.5833 17.2265 14.5833 18C14.5833 18.7735 14.8906 19.5154 15.4376 20.0624C15.9846 20.6094 16.7265 20.9167 17.5 20.9167C18.2735 20.9167 19.0154 20.6094 19.5624 20.0624C20.1094 19.5154 20.4167 18.7735 20.4167 18Z" fill="#006AFF"></path></svg>