<svg xmlns="http://www.w3.org/2000/svg" width="20" height="21" viewBox="0 0 20 21" fill="none"><g clip-path="url(#clip0_3001_4)"><path d="M10.6965 0.773414C9.26783 0.673448 7.83432 0.881535 6.49301 1.38359C5.1517 1.88565 3.93388 2.66997 2.92195 3.68348C1.91003 4.69698 1.12761 5.91602 0.627648 7.25812C0.127682 8.60021 -0.0781683 10.034 0.0240268 11.4626C0.391527 16.7567 5.06819 20.7501 10.9024 20.7501H15.8332C16.9379 20.7488 17.9969 20.3093 18.778 19.5282C19.5591 18.7471 19.9985 17.6881 19.9999 16.5834V11.0334C20.0309 8.46462 19.0891 5.97916 17.3635 4.07606C15.6378 2.17295 13.2561 0.993112 10.6965 0.773414ZM9.99986 4.91675C10.3314 4.91675 10.6493 5.04844 10.8837 5.28286C11.1182 5.51728 11.2499 5.83523 11.2499 6.16675C11.2499 6.49827 11.1182 6.81621 10.8837 7.05063C10.6493 7.28505 10.3314 7.41675 9.99986 7.41675C9.66834 7.41675 9.3504 7.28505 9.11598 7.05063C8.88156 6.81621 8.74986 6.49827 8.74986 6.16675C8.74986 5.83523 8.88156 5.51728 9.11598 5.28286C9.3504 5.04844 9.66834 4.91675 9.99986 4.91675ZM11.6665 15.7501C11.6665 15.9711 11.5787 16.1831 11.4224 16.3393C11.2662 16.4956 11.0542 16.5834 10.8332 16.5834C10.6122 16.5834 10.4002 16.4956 10.2439 16.3393C10.0877 16.1831 9.99986 15.9711 9.99986 15.7501V10.7501H9.16653C8.94551 10.7501 8.73355 10.6623 8.57727 10.506C8.42099 10.3497 8.33319 10.1378 8.33319 9.91675C8.33319 9.69573 8.42099 9.48377 8.57727 9.32749C8.73355 9.17121 8.94551 9.08341 9.16653 9.08341H9.99986C10.4419 9.08341 10.8658 9.25901 11.1784 9.57157C11.4909 9.88413 11.6665 10.3081 11.6665 10.7501V15.7501Z" fill="#006AFF"></path></g><defs><clipPath id="clip0_3001_4"><rect width="20" height="20" fill="white" transform="translate(0 0.75)"></rect></clipPath></defs></svg>