<svg xmlns="http://www.w3.org/2000/svg" width="40" height="40" viewBox="0 0 40 40" fill="none"><g clip-path="url(#clip0_3995_11603)"><path d="M0.889263 -0.0110008C0.95768 -0.0112527 1.0261 -0.0115046 1.09659 -0.0117641C1.20881 -0.0115826 1.20881 -0.0115826 1.32331 -0.0113975C1.40306 -0.0115745 1.4828 -0.0117515 1.56497 -0.0119339C1.833 -0.0124296 2.10103 -0.0123643 2.36906 -0.0122999C2.5609 -0.0125336 2.75273 -0.0127994 2.94457 -0.013095C3.41204 -0.0137145 3.8795 -0.0139587 4.34697 -0.0140023C4.72689 -0.0140394 5.10682 -0.0141999 5.48674 -0.0144476C6.56373 -0.0151356 7.64072 -0.015496 8.7177 -0.0154374C8.77576 -0.0154343 8.83382 -0.0154312 8.89364 -0.015428C8.95177 -0.0154248 9.00991 -0.0154216 9.0698 -0.0154183C10.0122 -0.0153865 10.9546 -0.0161344 11.897 -0.0172357C12.8645 -0.0183573 13.832 -0.0188974 14.7995 -0.0188299C15.3428 -0.0188039 15.886 -0.0190192 16.4293 -0.0198594C16.94 -0.0206443 17.4508 -0.0206232 17.9615 -0.0200534C18.1492 -0.0199715 18.3369 -0.0201577 18.5245 -0.0206285C18.7803 -0.0212286 19.036 -0.0208707 19.2918 -0.0202667C19.3664 -0.0206685 19.4411 -0.0210704 19.518 -0.0214844C20.0881 -0.018499 20.4139 0.0791246 20.8447 0.467799C20.9065 0.522584 20.9682 0.577369 21.0318 0.633814C21.1719 0.780299 21.1719 0.780299 21.1719 0.936549C21.2202 0.955885 21.2686 0.975221 21.3184 0.995143C21.5159 1.11135 21.5405 1.20505 21.6406 1.4053C21.7441 1.4588 21.8484 1.51067 21.9531 1.56155C22.085 1.6901 22.2152 1.82037 22.3438 1.95217C22.4332 2.01743 22.4332 2.01743 22.5244 2.08401C22.5897 2.13477 22.5897 2.13477 22.6562 2.18655C22.6562 2.23811 22.6562 2.28967 22.6562 2.3428C22.7046 2.36213 22.7529 2.38147 22.8027 2.40139C23.0003 2.5176 23.0249 2.6113 23.125 2.81155C23.1766 2.83733 23.2281 2.86311 23.2812 2.88967C23.4788 2.98844 23.4972 3.08721 23.5938 3.2803C23.6977 3.3328 23.8019 3.38482 23.9062 3.43655C24.118 3.60779 24.3135 3.79678 24.5117 3.98342C24.5934 4.05865 24.5934 4.05865 24.6768 4.1354C24.7283 4.18354 24.7797 4.23168 24.8328 4.28128C24.9034 4.34729 24.9034 4.34729 24.9755 4.41464C25.0781 4.5303 25.0781 4.5303 25.0781 4.68655C25.1265 4.70588 25.1748 4.72522 25.2246 4.74514C25.4222 4.86135 25.4468 4.95505 25.5469 5.1553C25.6504 5.20869 25.7546 5.26061 25.8594 5.31155C26.3671 5.68896 26.8017 6.17043 27.2437 6.62066C27.2925 6.67004 27.3412 6.71941 27.3914 6.77029C27.4348 6.81468 27.4783 6.85906 27.5231 6.9048C27.6572 7.03685 27.6572 7.03685 27.8291 7.15397C27.8752 7.1905 27.9213 7.22704 27.9688 7.26467C27.9688 7.31624 27.9688 7.3678 27.9688 7.42092C28.0461 7.4467 28.1234 7.47249 28.2031 7.49905C28.2935 7.67972 28.293 7.78836 28.2963 7.98956C28.2982 8.09323 28.2982 8.09323 28.3001 8.19899C28.3036 8.51522 28.3068 8.83143 28.3086 9.14767C28.3099 9.31445 28.312 9.48124 28.315 9.648C28.3193 9.88843 28.321 10.1288 28.3221 10.3692C28.3248 10.4808 28.3248 10.4808 28.3275 10.5947C28.3264 10.9569 28.322 11.1177 28.0956 11.4131C27.8121 11.6184 27.6349 11.617 27.2952 11.6003C27.0104 11.5409 26.8853 11.4019 26.7188 11.1709C26.6329 10.9133 26.6317 10.7233 26.633 10.4522C26.6332 10.3578 26.6335 10.2634 26.6338 10.1661C26.6344 10.0675 26.6351 9.96885 26.6357 9.86721C26.6361 9.76766 26.6364 9.66811 26.6368 9.56555C26.6377 9.31942 26.639 9.0733 26.6406 8.82717C26.5877 8.82769 26.5348 8.82821 26.4803 8.82875C25.9264 8.83396 25.3725 8.83748 24.8186 8.84005C24.6123 8.84122 24.406 8.84282 24.1997 8.84486C23.902 8.84772 23.6043 8.84903 23.3066 8.85006C23.1697 8.85188 23.1697 8.85188 23.03 8.85373C22.4116 8.85385 21.8114 8.79535 21.25 8.51467C21.25 8.46311 21.25 8.41155 21.25 8.35842C21.1936 8.35037 21.1372 8.34231 21.0791 8.33401C20.344 8.15431 19.9075 7.48443 19.5312 6.87405C19.3768 6.55702 19.2969 6.29425 19.2969 5.93655C19.2453 5.93655 19.1938 5.93655 19.1406 5.93655C18.9051 4.52351 19.0625 3.0722 19.0625 1.63967C13.2875 1.63967 7.5125 1.63967 1.5625 1.63967C1.5625 13.8342 1.5625 26.0287 1.5625 38.5928C8.93594 38.5928 16.3094 38.5928 23.9062 38.5928C23.9062 38.5412 23.9062 38.4897 23.9062 38.4365C23.9667 38.4289 24.0271 38.4212 24.0894 38.4134C24.8802 38.2998 25.3755 38.1443 25.8594 37.499C25.9158 37.4443 25.9722 37.3895 26.0303 37.333C26.1713 37.1872 26.2487 37.0594 26.3281 36.874C26.3797 36.874 26.4312 36.874 26.4844 36.874C26.54 36.5204 26.5734 36.1783 26.5785 35.8204C26.5809 35.673 26.5809 35.673 26.5833 35.5226C26.5846 35.4209 26.5859 35.3191 26.5872 35.2142C26.5894 35.0722 26.5894 35.0722 26.5916 34.9273C26.597 34.5753 26.6017 34.2232 26.6064 33.8711C26.6177 33.0832 26.629 32.2952 26.6406 31.4834C24.7328 31.4834 22.825 31.4834 20.8594 31.4834C20.8717 32.7514 20.8717 32.7514 20.8875 34.0193C20.8884 34.1786 20.8892 34.3378 20.8899 34.497C20.8915 34.5794 20.8931 34.6617 20.8947 34.7466C20.895 35.3297 20.895 35.3297 20.7159 35.631C20.3735 35.9334 20.1391 35.9587 19.7 35.9553C19.6055 35.9555 19.6055 35.9555 19.509 35.9557C19.297 35.956 19.0851 35.9551 18.8731 35.9543C18.7214 35.9542 18.5698 35.9543 18.4181 35.9544C18.0057 35.9544 17.5933 35.9535 17.1809 35.9524C16.7502 35.9514 16.3195 35.9513 15.8887 35.9511C15.0728 35.9506 14.2568 35.9494 13.4409 35.9478C12.5121 35.9461 11.5833 35.9452 10.6545 35.9444C8.74363 35.9428 6.83275 35.94 4.92188 35.9365C4.92188 35.885 4.92188 35.8334 4.92188 35.7803C4.87354 35.7755 4.8252 35.7706 4.77539 35.7656C4.60938 35.7022 4.60938 35.7022 4.52215 35.5314C4.44748 35.2936 4.43326 35.1044 4.43276 34.8555C4.4322 34.7642 4.43165 34.673 4.43108 34.579C4.43127 34.4796 4.43147 34.3802 4.43167 34.2778C4.43133 34.1715 4.43092 34.0652 4.43046 33.9589C4.42941 33.6708 4.42937 33.3827 4.42956 33.0946C4.42965 32.8538 4.42927 32.6131 4.42889 32.3723C4.42803 31.8043 4.42799 31.2362 4.42846 30.6682C4.42894 30.0826 4.42797 29.4971 4.42631 28.9115C4.42493 28.4083 4.42446 27.9051 4.42472 27.4019C4.42486 27.1016 4.42466 26.8012 4.42357 26.5009C4.42259 26.2184 4.42274 25.936 4.42376 25.6535C4.42403 25.5008 4.42315 25.348 4.42223 25.1953C4.4274 24.3315 4.4274 24.3315 4.6875 23.9834C4.95353 23.8947 5.15621 23.8953 5.43681 23.895C5.48937 23.8949 5.54194 23.8947 5.59609 23.8945C5.7726 23.8941 5.9491 23.8941 6.1256 23.8942C6.252 23.894 6.3784 23.8937 6.5048 23.8934C6.77721 23.8928 7.04961 23.8924 7.32201 23.8921C7.7527 23.8917 8.18339 23.8904 8.61408 23.8889C8.76148 23.8884 8.90889 23.8879 9.0563 23.8874C9.13012 23.8872 9.20395 23.8869 9.28001 23.8867C10.2828 23.8834 11.2856 23.8808 12.2884 23.8798C12.9647 23.8792 13.641 23.8774 14.3173 23.8744C14.6752 23.8729 15.0331 23.8719 15.3911 23.8723C15.7277 23.8727 16.0644 23.8716 16.401 23.8694C16.5246 23.8689 16.6481 23.8689 16.7717 23.8694C16.9404 23.8701 17.109 23.8689 17.2777 23.8672C17.3721 23.867 17.4665 23.8668 17.5638 23.8666C17.862 23.8193 17.9851 23.7185 18.2031 23.5147C18.3489 23.4046 18.4954 23.2956 18.6426 23.1875C18.7161 23.1332 18.7896 23.079 18.8654 23.023C19.0625 22.8897 19.0625 22.8897 19.2969 22.8115C19.3468 22.76 19.3968 22.7084 19.4482 22.6553C19.6138 22.4947 19.6982 22.4529 19.9219 22.4209C19.7709 22.2628 19.6382 22.1537 19.4531 22.0303C19.4531 21.9787 19.4531 21.9272 19.4531 21.874C19.3806 21.8515 19.3081 21.8289 19.2334 21.8057C18.9844 21.7178 18.9844 21.7178 18.75 21.5615C18.75 21.51 18.75 21.4584 18.75 21.4053C18.692 21.3827 18.634 21.3602 18.5742 21.3369C18.2605 21.2086 18.0513 21.0972 17.8125 20.8584C17.7448 20.8181 17.6771 20.7779 17.6074 20.7364C17.4219 20.624 17.4219 20.624 17.3438 20.4678C17.1969 20.3801 17.1969 20.3801 17.0264 20.3018C16.9404 20.2604 16.9404 20.2604 16.8527 20.2182C16.8085 20.1974 16.7643 20.1767 16.7188 20.1553C16.7188 20.1037 16.7188 20.0522 16.7188 19.999C16.6591 19.9765 16.5995 19.9539 16.5381 19.9307C16.3281 19.8428 16.3281 19.8428 16.0938 19.6865C16.0938 19.635 16.0938 19.5834 16.0938 19.5303C16.0309 19.5158 15.9681 19.5013 15.9033 19.4864C15.5774 19.3548 15.3507 19.1721 15.0821 18.9489C14.9209 18.8129 14.9209 18.8129 14.6875 18.749C14.6094 18.6709 14.5312 18.5928 14.4531 18.5147C14.3854 18.4744 14.3178 18.4341 14.248 18.3926C14.0625 18.2803 14.0625 18.2803 13.9844 18.124C13.858 18.0503 13.7313 17.977 13.6032 17.9062C13.4153 17.7989 13.2333 17.685 13.0518 17.5674C12.9914 17.5285 12.9311 17.4897 12.869 17.4496C12.8023 17.3967 12.8023 17.3967 12.7344 17.3428C12.7344 17.2912 12.7344 17.2397 12.7344 17.1865C12.6619 17.164 12.5894 17.1414 12.5146 17.1182C12.2656 17.0303 12.2656 17.0303 12.0312 16.874C12.0312 16.8225 12.0312 16.7709 12.0312 16.7178C11.9732 16.6952 11.9152 16.6727 11.8555 16.6494C11.5418 16.5211 11.3325 16.4097 11.0938 16.1709C11.0245 16.1306 10.9552 16.0904 10.8838 16.0489C10.8242 16.0118 10.7646 15.9747 10.7031 15.9365C10.7031 15.885 10.7031 15.8334 10.7031 15.7803C10.6516 15.7803 10.6 15.7803 10.5469 15.7803C10.5464 15.846 10.546 15.9117 10.5455 15.9794C10.541 16.5989 10.5353 17.2185 10.5285 17.8381C10.525 18.1566 10.5219 18.4751 10.5198 18.7936C10.5178 19.1011 10.5146 19.4085 10.5107 19.716C10.5094 19.8332 10.5085 19.9504 10.508 20.0676C10.5072 20.2321 10.5051 20.3964 10.5025 20.5608C10.5012 20.701 10.5012 20.701 10.4999 20.8441C10.4587 21.1731 10.3253 21.3679 10.1242 21.6235C9.96009 21.7481 9.85756 21.7467 9.65332 21.7422C9.5938 21.7419 9.53428 21.7416 9.47296 21.7413C9.27394 21.7147 9.15139 21.6732 8.98438 21.5615C8.8523 21.343 8.80856 21.1797 8.80828 20.9259C8.80784 20.8621 8.8074 20.7984 8.80695 20.7327C8.80727 20.6635 8.80758 20.5942 8.80791 20.5229C8.80763 20.4494 8.80736 20.376 8.80708 20.3003C8.80639 20.0575 8.80685 19.8146 8.80737 19.5718C8.80727 19.4031 8.80712 19.2344 8.80692 19.0657C8.80669 18.7121 8.80702 18.3585 8.80775 18.0049C8.80865 17.5515 8.80813 17.098 8.8072 16.6446C8.80663 16.2962 8.80681 15.9478 8.80722 15.5995C8.80732 15.4323 8.80719 15.2651 8.80683 15.0978C8.80643 14.8643 8.80704 14.6307 8.80791 14.3971C8.80759 14.3278 8.80727 14.2586 8.80695 14.1873C8.80739 14.1235 8.80783 14.0598 8.80828 13.9941C8.80834 13.9389 8.8084 13.8837 8.80846 13.8269C8.83324 13.6304 8.86694 13.5197 8.98438 13.3584C9.40858 13.1415 9.87529 13.1809 10.34 13.1834C10.4745 13.1832 10.4745 13.1832 10.6119 13.183C10.8602 13.1828 11.1086 13.1833 11.3569 13.184C11.625 13.1847 11.8931 13.1845 12.1611 13.1844C12.6254 13.1843 13.0896 13.1848 13.5538 13.1857C14.225 13.1869 14.8962 13.1873 15.5674 13.1875C16.6565 13.1879 17.7455 13.1889 18.8345 13.1904C19.8923 13.1918 20.9501 13.1929 22.0079 13.1936C22.1057 13.1937 22.1057 13.1937 22.2055 13.1937C22.5327 13.1939 22.8599 13.1941 23.187 13.1943C25.9007 13.1959 28.6144 13.1987 31.3281 13.2022C31.3279 13.1333 31.3279 13.1333 31.3277 13.063C31.3242 11.9447 31.3217 10.8264 31.32 9.70816C31.3192 9.16737 31.3181 8.62659 31.3163 8.08581C31.3146 7.56406 31.3137 7.04231 31.3133 6.52056C31.313 6.32136 31.3124 6.12216 31.3116 5.92297C31.3105 5.64427 31.3103 5.36558 31.3104 5.08688C31.3098 5.00428 31.3093 4.92167 31.3087 4.83656C31.3089 4.76043 31.3091 4.68429 31.3093 4.60585C31.3091 4.50701 31.3091 4.50701 31.3089 4.40618C31.3312 4.18806 31.3866 4.02309 31.4844 3.82717C31.6504 3.7637 31.6504 3.7637 31.7969 3.74905C31.7969 3.69749 31.7969 3.64592 31.7969 3.5928C33.2148 3.5928 34.6328 3.5928 36.0938 3.5928C36.0938 3.64436 36.0938 3.69592 36.0938 3.74905C36.1421 3.75549 36.1904 3.76194 36.2402 3.76858C36.4062 3.82717 36.4062 3.82717 36.4936 3.96323C36.5714 4.16251 36.5818 4.30772 36.5813 4.5213C36.5816 4.63633 36.5816 4.63633 36.5819 4.75367C36.5814 4.83729 36.5808 4.92091 36.5802 5.00706C36.5803 5.0955 36.5803 5.18393 36.5803 5.27505C36.5802 5.56758 36.579 5.86009 36.5778 6.15261C36.5775 6.35535 36.5772 6.55809 36.5771 6.76082C36.5766 7.24004 36.5753 7.71925 36.5738 8.19846C36.572 8.7441 36.5711 9.28975 36.5704 9.83539C36.5687 10.9577 36.566 12.0799 36.5625 13.2022C36.648 13.2014 36.7335 13.2005 36.8217 13.1997C37.1398 13.1969 37.4579 13.1951 37.7761 13.1936C37.9136 13.1928 38.0511 13.1917 38.1886 13.1904C38.3867 13.1885 38.5846 13.1876 38.7827 13.1869C38.8439 13.1861 38.9051 13.1853 38.9681 13.1845C39.2931 13.1844 39.5574 13.1973 39.8438 13.3584C40.0364 13.6473 40.022 13.8663 40.0204 14.2005C40.0207 14.2631 40.021 14.3256 40.0213 14.3901C40.0221 14.6004 40.0218 14.8107 40.0215 15.0211C40.0218 15.1716 40.0222 15.3221 40.0227 15.4726C40.0237 15.8822 40.0238 16.2917 40.0236 16.7012C40.0235 17.0431 40.0239 17.385 40.0242 17.7268C40.0251 18.5337 40.0251 19.3406 40.0247 20.1474C40.0242 20.9794 40.0252 21.8113 40.0268 22.6433C40.0282 23.3576 40.0287 24.0719 40.0284 24.7862C40.0283 25.2128 40.0285 25.6394 40.0296 26.066C40.0305 26.4675 40.0304 26.869 40.0294 27.2706C40.0292 27.4177 40.0294 27.5648 40.03 27.7119C40.0309 27.9133 40.0302 28.1147 40.0292 28.3162C40.0298 28.3738 40.0304 28.4315 40.031 28.4909C40.0267 28.9064 39.9623 29.3154 39.7656 29.6865C39.6883 29.7123 39.6109 29.7381 39.5312 29.7647C39.5043 29.8686 39.4785 29.9728 39.4531 30.0772C39.2557 30.4297 39.1276 30.5695 38.75 30.7022C38.7242 30.7795 38.6984 30.8569 38.6719 30.9365C38.4209 31.0839 38.262 31.1709 37.9688 31.1709C37.9688 31.2225 37.9688 31.274 37.9688 31.3272C37.6114 31.4331 37.3041 31.4933 36.9305 31.4883C36.8267 31.4872 36.8267 31.4872 36.7207 31.4862C36.6424 31.4848 36.6424 31.4848 36.5625 31.4834C36.5641 31.5708 36.5658 31.6582 36.5675 31.7482C36.5732 32.0767 36.5767 32.4052 36.5797 32.7337C36.5812 32.8751 36.5833 33.0164 36.5861 33.1578C36.6017 33.9869 36.5894 34.6952 36.25 35.4678C36.1981 35.5969 36.1464 35.7261 36.095 35.8554C36.0692 35.9183 36.0435 35.9812 36.017 36.046C35.8639 36.4369 35.7363 36.8366 35.6055 37.2354C35.5771 37.3213 35.5487 37.4072 35.5194 37.4957C35.4502 37.7051 35.3813 37.9145 35.3125 38.124C35.2609 38.124 35.2094 38.124 35.1562 38.124C35.1482 38.2127 35.1401 38.3013 35.1318 38.3926C35.0866 38.7642 34.9726 39.1021 34.8438 39.4522C34.7922 39.4522 34.7406 39.4522 34.6875 39.4522C34.6778 39.5134 34.6682 39.5746 34.6582 39.6377C34.6094 39.8428 34.6094 39.8428 34.4531 39.9991C34.2212 40.0171 34.2212 40.0171 33.9453 40.0137C33.8543 40.0132 33.7632 40.0127 33.6694 40.0122C33.4375 39.9991 33.4375 39.999 33.2812 39.9209C33.2812 39.8694 33.2812 39.8178 33.2812 39.7647C33.2297 39.7647 33.1781 39.7647 33.125 39.7647C33.0724 39.6021 33.0204 39.4393 32.9688 39.2764C32.9397 39.1858 32.9107 39.0951 32.8809 39.0017C32.8125 38.749 32.8125 38.749 32.8125 38.4365C32.7609 38.4365 32.7094 38.4365 32.6562 38.4365C32.6433 38.3925 32.6303 38.3484 32.6169 38.303C32.557 38.1001 32.4968 37.8972 32.4365 37.6944C32.4059 37.5904 32.4059 37.5904 32.3747 37.4844C32.2499 37.0651 32.1087 36.6578 31.9531 36.249C31.9124 36.1161 31.8731 35.9827 31.8359 35.8487C31.7701 35.6227 31.7026 35.4356 31.5967 35.2237C31.3217 34.6736 31.3059 34.1381 31.3104 33.5357C31.3104 33.4541 31.3103 33.3725 31.3103 33.2884C31.3104 33.0204 31.3116 32.7524 31.3129 32.4844C31.3132 32.2979 31.3134 32.1113 31.3135 31.9248C31.3141 31.4352 31.3157 30.9456 31.3174 30.456C31.319 29.9559 31.3197 29.4558 31.3205 28.9557C31.3222 27.9753 31.3248 26.995 31.3281 26.0147C31.2671 25.9904 31.2061 25.9661 31.1432 25.9411C30.6726 25.7519 30.6726 25.7519 30.5176 25.5899C30.342 25.4211 30.1411 25.3357 29.9219 25.2334C29.9219 25.1819 29.9219 25.1303 29.9219 25.0772C29.8388 25.0468 29.8388 25.0468 29.754 25.0158C29.5158 24.9143 29.3098 24.792 29.0918 24.6524C29.0183 24.6057 28.9448 24.5591 28.869 24.5111C28.7033 24.3959 28.5773 24.2827 28.4375 24.1397C28.3058 24.0611 28.1738 23.983 28.0389 23.9099C27.8906 23.8272 27.8906 23.8272 27.7472 23.7323C27.456 23.543 27.456 23.543 27.1191 23.5586C26.9296 23.6623 26.9296 23.6623 26.875 23.9053C26.7201 23.986 26.5638 24.0642 26.4062 24.1397C26.3805 24.1912 26.3547 24.2428 26.3281 24.2959C26.1909 24.382 26.0492 24.4551 25.9058 24.5303C25.7675 24.602 25.7675 24.602 25.7031 24.7647C25.5643 24.8483 25.5643 24.8483 25.3955 24.9307C25.3123 24.9721 25.3123 24.9721 25.2274 25.0143C25.0781 25.0772 25.0781 25.0772 24.9219 25.0772C24.9219 25.1287 24.9219 25.1803 24.9219 25.2334C24.6782 25.3552 24.4804 25.3676 24.2188 25.3115C23.3792 24.9116 23.3792 24.9116 23.125 24.5303C22.9713 24.4473 22.8152 24.3685 22.6562 24.2959C22.6562 24.2444 22.6562 24.1928 22.6562 24.1397C22.5982 24.1171 22.5402 24.0946 22.4805 24.0713C21.995 23.8727 21.995 23.8727 21.8408 23.7051C21.6744 23.552 21.5518 23.531 21.3281 23.5147C21.1167 23.591 21.0389 23.6244 20.9375 23.8272C20.8602 23.853 20.7828 23.8787 20.7031 23.9053C20.7031 24.0342 20.7031 24.1631 20.7031 24.2959C20.7547 24.2959 20.8062 24.2959 20.8594 24.2959C20.8594 26.1264 20.8594 27.9569 20.8594 29.8428C21.4818 29.8401 22.1041 29.8374 22.7454 29.8346C23.1391 29.8334 23.5329 29.8322 23.9267 29.8314C24.552 29.83 25.1773 29.8283 25.8027 29.8251C26.3067 29.8226 26.8107 29.8212 27.3147 29.8206C27.5072 29.8201 27.6997 29.8193 27.8922 29.818C28.1614 29.8163 28.4305 29.8161 28.6997 29.8162C28.8197 29.8149 28.8197 29.8149 28.942 29.8136C29.0154 29.814 29.0888 29.8143 29.1645 29.8146C29.2281 29.8144 29.2918 29.8142 29.3574 29.814C29.5747 29.85 29.6843 29.9275 29.8438 30.0772C29.8438 30.1287 29.8438 30.1803 29.8438 30.2334C29.8953 30.2334 29.9469 30.2334 30 30.2334C30.1166 30.4667 30.0873 30.6794 30.0781 30.9365C30.0523 30.9881 30.0266 31.0397 30 31.0928C29.9484 31.0928 29.8969 31.0928 29.8438 31.0928C29.8341 31.1427 29.8244 31.1927 29.8145 31.2442C29.7903 31.3239 29.7903 31.3239 29.7656 31.4053C29.507 31.5346 29.2194 31.4913 28.9355 31.4883C28.8729 31.488 28.8103 31.4876 28.7457 31.4872C28.5909 31.4863 28.4361 31.4849 28.2812 31.4834C28.282 31.5765 28.282 31.5765 28.2828 31.6715C28.2875 32.2588 28.2911 32.846 28.2934 33.4333C28.2946 33.7352 28.2963 34.037 28.2989 34.3389C28.3015 34.6307 28.3029 34.9224 28.3035 35.2142C28.3039 35.3251 28.3048 35.4359 28.306 35.5468C28.3128 36.1643 28.296 36.6948 28.0469 37.2647C28.0274 37.3145 28.008 37.3644 27.9879 37.4158C27.932 37.5585 27.8723 37.6997 27.8125 37.8408C27.7545 37.9795 27.7545 37.9795 27.6953 38.121C27.5917 38.3309 27.5187 38.4449 27.3438 38.5928C27.2809 38.6556 27.2181 38.7185 27.1533 38.7832C27.0873 38.8493 27.0212 38.9154 26.9531 38.9834C26.9016 39.0382 26.85 39.093 26.7969 39.1494C26.5516 39.3794 26.3572 39.5303 26.0156 39.5303C26.0156 39.5819 26.0156 39.6334 26.0156 39.6865C25.4009 39.9935 24.8698 40.0434 24.1894 40.0377C24.0865 40.0381 23.9835 40.0384 23.8774 40.0388C23.5935 40.0398 23.3097 40.0389 23.0258 40.0376C22.719 40.0366 22.4121 40.0374 22.1053 40.0379C21.5051 40.0387 20.9049 40.0378 20.3047 40.0364C19.606 40.0347 18.9072 40.0348 18.2084 40.0348C16.9621 40.0349 15.7158 40.0335 14.4695 40.0312C13.2595 40.029 12.0496 40.0279 10.8397 40.028C10.765 40.028 10.6904 40.028 10.6135 40.028C10.5391 40.028 10.4646 40.028 10.3878 40.028C9.01043 40.0282 7.63302 40.0272 6.25561 40.0258C5.76816 40.0254 5.28071 40.0252 4.79326 40.0251C4.19997 40.025 3.60668 40.0243 3.01339 40.0229C2.71052 40.0222 2.40766 40.0217 2.10479 40.0219C1.77714 40.0221 1.4495 40.0211 1.12185 40.0199C1.02526 40.0202 0.928666 40.0204 0.82915 40.0207C0.741963 40.0202 0.654777 40.0197 0.564949 40.0191C0.48925 40.019 0.413552 40.0189 0.335559 40.0188C0.15625 39.9991 0.15625 39.999 3.27826e-07 39.8428C-0.0154862 39.6282 -0.021052 39.4215 -0.0198806 39.2069C-0.0201311 39.14 -0.0203816 39.0731 -0.0206397 39.0043C-0.0212939 38.7778 -0.0208233 38.5513 -0.0203666 38.3248C-0.0206023 38.1618 -0.020906 37.9988 -0.0212723 37.8357C-0.0220803 37.3858 -0.0219037 36.9359 -0.0215707 36.486C-0.0213788 36.0015 -0.022081 35.5171 -0.0226673 35.0326C-0.0236658 34.0828 -0.0238034 33.1329 -0.0236204 32.183C-0.0234774 31.4114 -0.0236143 30.6397 -0.0239505 29.868C-0.0239975 29.7573 -0.0240445 29.6466 -0.0240913 29.5358C-0.0241622 29.369 -0.0242332 29.2021 -0.0243048 29.0353C-0.0249637 27.4833 -0.0253019 25.9314 -0.0249762 24.3794C-0.024964 24.3209 -0.0249517 24.2623 -0.0249391 24.202C-0.0248762 23.9052 -0.0248101 23.6084 -0.0247428 23.3117C-0.0247295 23.2527 -0.0247161 23.1938 -0.0247023 23.1331C-0.0246752 23.0139 -0.024648 22.8947 -0.0246206 22.7755C-0.024202 20.9204 -0.0248218 19.0653 -0.0262639 17.2102C-0.0278809 15.1276 -0.0287207 13.045 -0.0284064 10.9625C-0.0283755 10.7406 -0.0283473 10.5187 -0.0283207 10.2968C-0.0283136 10.2421 -0.0283065 10.1875 -0.0282992 10.1312C-0.028208 9.30499 -0.0287286 8.47879 -0.029556 7.65258C-0.0304955 6.71337 -0.0305999 5.77416 -0.0296505 4.83495C-0.0291884 4.35534 -0.0291102 3.87574 -0.0300413 3.39613C-0.0308827 2.95766 -0.0306556 2.5192 -0.0295521 2.08072C-0.0293434 1.92153 -0.0295362 1.76234 -0.0301565 1.60315C-0.0309376 1.38785 -0.0302954 1.17261 -0.0292755 0.957326C-0.0298465 0.894565 -0.0304175 0.831803 -0.0310059 0.76714C-0.0268973 0.352824 -0.0268973 0.352824 0.0994863 0.158883C0.355306 0.00391981 0.595167 -0.0107264 0.889263 -0.0110008ZM20.7031 2.73342C20.7031 3.60999 20.7031 4.48655 20.7031 5.38967C20.7547 5.38967 20.8062 5.38967 20.8594 5.38967C20.8715 5.49119 20.8715 5.49119 20.8838 5.59475C20.9402 5.87146 21.0368 6.08054 21.1719 6.32717C21.2234 6.32717 21.275 6.32717 21.3281 6.32717C21.3458 6.3739 21.3636 6.42063 21.3818 6.46878C21.5122 6.68604 21.6507 6.76188 21.875 6.87405C21.9266 6.87405 21.9781 6.87405 22.0312 6.87405C22.0312 6.92561 22.0312 6.97717 22.0312 7.0303C22.4122 7.18258 22.7561 7.20733 23.161 7.20181C23.2228 7.20159 23.2845 7.20137 23.3482 7.20114C23.544 7.20027 23.7398 7.19831 23.9355 7.19631C24.0689 7.19553 24.2023 7.19482 24.3356 7.19418C24.6613 7.19246 24.9869 7.18977 25.3125 7.18655C25.2072 6.87072 25.0411 6.81978 24.7656 6.63967C24.6322 6.51276 24.5019 6.38247 24.375 6.24905C24.1362 6.00364 23.8894 5.77237 23.6328 5.54592C23.3762 5.31948 23.1294 5.08821 22.8906 4.8428C22.8262 4.77835 22.7617 4.71389 22.6953 4.64749C22.5692 4.52134 22.4438 4.39444 22.3193 4.26663C22.1491 4.10037 21.9765 3.94381 21.7969 3.78811C21.552 3.57585 21.32 3.35637 21.0938 3.12405C20.9648 2.99514 20.8359 2.86624 20.7031 2.73342ZM32.9688 5.31155C32.9688 5.64671 32.9688 5.98186 32.9688 6.32717C33.6133 6.32717 34.2578 6.32717 34.9219 6.32717C34.9219 5.99202 34.9219 5.65686 34.9219 5.31155C34.2773 5.31155 33.6328 5.31155 32.9688 5.31155ZM32.9688 8.04592C32.9688 16.4506 32.9688 24.8553 32.9688 33.5147C33.6133 33.5147 34.2578 33.5147 34.9219 33.5147C34.9219 25.11 34.9219 16.7053 34.9219 8.04592C34.2773 8.04592 33.6328 8.04592 32.9688 8.04592ZM12.2656 14.8428C12.4742 15.0834 12.4742 15.0834 12.7051 15.1553C12.7663 15.1811 12.8275 15.2069 12.8906 15.2334C12.9164 15.3108 12.9422 15.3881 12.9688 15.4678C13.1237 15.5485 13.28 15.6267 13.4375 15.7022C13.4633 15.7537 13.4891 15.8053 13.5156 15.8584C13.6523 15.9351 13.6523 15.9351 13.8135 16.0049C14.0792 16.1321 14.2508 16.2672 14.4531 16.4834C14.5815 16.5645 14.7119 16.6425 14.8438 16.7178C15.3015 17.0083 15.3015 17.0083 15.3906 17.1865C15.5023 17.2539 15.6167 17.3169 15.7324 17.377C15.9183 17.4736 16.07 17.5534 16.2183 17.702C16.3337 17.8338 16.3337 17.8338 16.5723 17.8897C16.6834 17.9283 16.6834 17.9283 16.7969 17.9678C16.8227 18.0451 16.8484 18.1225 16.875 18.2022C17.1032 18.3643 17.2168 18.4365 17.5 18.4365C17.5258 18.5139 17.5516 18.5912 17.5781 18.6709C17.733 18.7517 17.8894 18.8297 18.0469 18.9053C18.1266 18.9818 18.2048 19.0599 18.2812 19.1397C18.3489 19.18 18.4166 19.2202 18.4863 19.2617C18.6719 19.374 18.6719 19.374 18.75 19.5303C18.8617 19.5977 18.9761 19.6606 19.0918 19.7207C19.2777 19.8173 19.4294 19.8971 19.5776 20.0457C19.6931 20.1776 19.6931 20.1776 19.9316 20.2334C20.0058 20.2592 20.0799 20.285 20.1562 20.3115C20.182 20.3889 20.2078 20.4662 20.2344 20.5459C20.3673 20.6252 20.5006 20.7039 20.6372 20.7766C20.8323 20.8874 20.9975 21.0305 21.1719 21.1709C21.2879 21.2096 21.2879 21.2096 21.4062 21.249C21.4844 21.3272 21.5625 21.4053 21.6406 21.4834C21.7083 21.5237 21.776 21.564 21.8457 21.6055C22.0312 21.7178 22.0312 21.7178 22.1094 21.874C22.2433 21.9513 22.3774 22.0282 22.5131 22.1023C22.6562 22.1865 22.6562 22.1865 22.8564 22.3526C23.0441 22.5138 23.0441 22.5138 23.3008 22.5821C23.4071 22.6183 23.4071 22.6183 23.5156 22.6553C23.5414 22.7326 23.5672 22.81 23.5938 22.8897C23.7159 22.9799 23.7159 22.9799 23.8623 23.0508C24.0423 23.1444 24.1509 23.2124 24.2969 23.3584C24.4987 23.3715 24.4987 23.3715 24.6875 23.3584C24.7133 23.2811 24.7391 23.2037 24.7656 23.124C24.8943 23.0684 25.0249 23.0171 25.1562 22.9678C25.323 22.8674 25.4873 22.763 25.6494 22.6553C25.7329 22.6005 25.8164 22.5457 25.9024 22.4893C25.9655 22.4409 26.0287 22.3926 26.0938 22.3428C26.0938 22.2912 26.0938 22.2397 26.0938 22.1865C26.1614 22.1688 26.2291 22.1511 26.2988 22.1328C26.6016 22.0151 26.7852 21.8498 27.0312 21.6397C27.1875 21.5615 27.3438 21.4834 27.5 21.4053C27.6057 21.3027 27.7101 21.1987 27.8125 21.0928C27.9161 21.0395 28.0201 20.9872 28.125 20.9365C28.1508 20.885 28.1766 20.8334 28.2031 20.7803C28.3795 20.6644 28.5645 20.569 28.75 20.4678C28.75 20.4162 28.75 20.3647 28.75 20.3115C28.7935 20.3035 28.837 20.2954 28.8818 20.2871C29.0998 20.2223 29.2667 20.1285 29.4531 19.999C29.4531 19.9475 29.4531 19.8959 29.4531 19.8428C29.5208 19.8251 29.5885 19.8073 29.6582 19.7891C29.9048 19.6932 30.0559 19.5876 30.2515 19.4134C30.5789 19.137 30.9442 18.8629 31.3281 18.6709C31.3281 17.4076 31.3281 16.1444 31.3281 14.8428C25.0375 14.8428 18.7469 14.8428 12.2656 14.8428ZM36.5625 14.8428C36.5625 19.7928 36.5625 24.7428 36.5625 29.8428C37.0641 29.8716 37.0641 29.8716 37.3438 29.7647C37.3438 29.7131 37.3438 29.6615 37.3438 29.6084C37.4014 29.602 37.459 29.5955 37.5183 29.5889C37.9137 29.4817 38.1419 29.161 38.3594 28.8272C38.4299 28.5778 38.4375 28.3863 38.4375 28.124C38.4891 28.124 38.5406 28.124 38.5938 28.124C38.5938 23.7412 38.5938 19.3584 38.5938 14.8428C37.9234 14.8428 37.2531 14.8428 36.5625 14.8428ZM30.8594 20.9365C30.8594 20.9881 30.8594 21.0397 30.8594 21.0928C30.7998 21.1154 30.7401 21.1379 30.6787 21.1612C30.457 21.2461 30.457 21.2461 30.2344 21.4053C30.2344 21.4569 30.2344 21.5084 30.2344 21.5615C30.1401 21.5833 30.1401 21.5833 30.0439 21.6055C29.72 21.7362 29.4917 21.916 29.2227 22.1353C29.0625 22.2647 29.0625 22.2647 28.8281 22.4209C29.0823 22.5974 29.0823 22.5974 29.375 22.6553C29.375 22.7069 29.375 22.7584 29.375 22.8115C29.602 22.9711 29.7189 23.0459 30 23.0459C30.0258 23.1233 30.0516 23.2006 30.0781 23.2803C30.286 23.4361 30.5166 23.5928 30.7812 23.5928C30.807 23.6701 30.8328 23.7475 30.8594 23.8272C31.0141 23.8787 31.1688 23.9303 31.3281 23.9834C31.3281 22.9006 31.3281 21.8178 31.3281 20.7022C31.1525 20.7022 30.9993 20.8433 30.8594 20.9365ZM6.09375 25.5459C6.09375 28.4076 6.09375 31.2694 6.09375 34.2178C10.3992 34.2178 14.7047 34.2178 19.1406 34.2178C19.1406 31.3561 19.1406 28.4944 19.1406 25.5459C14.8352 25.5459 10.5297 25.5459 6.09375 25.5459ZM33.3594 35.1553C33.4869 35.6249 33.615 36.0941 33.75 36.5615C33.8016 36.5615 33.8531 36.5615 33.9062 36.5615C33.932 36.6389 33.9578 36.7162 33.9844 36.7959C34.0464 36.6251 34.1082 36.4542 34.1699 36.2832C34.2044 36.1881 34.2388 36.0929 34.2743 35.9948C34.3695 35.7181 34.4509 35.4367 34.5312 35.1553C34.1445 35.1553 33.7578 35.1553 33.3594 35.1553Z" fill="#006AFF"></path><path d="M6.10143 4.9129C6.19902 4.91257 6.19902 4.91257 6.29858 4.91223C6.40525 4.91247 6.40525 4.91247 6.51407 4.91271C6.62671 4.91251 6.62671 4.91251 6.74163 4.9123C6.99033 4.91195 7.23903 4.91218 7.48773 4.91244C7.66024 4.91239 7.83275 4.91232 8.00526 4.91222C8.367 4.9121 8.72874 4.91227 9.09048 4.91263C9.5547 4.91308 10.0189 4.91282 10.4831 4.91236C10.8394 4.91207 11.1957 4.91216 11.552 4.91237C11.7232 4.91242 11.8944 4.91235 12.0656 4.91217C12.3046 4.91197 12.5436 4.91227 12.7827 4.91271C12.8538 4.91255 12.9249 4.91239 12.9982 4.91223C13.0632 4.91245 13.1283 4.91267 13.1953 4.9129C13.2518 4.91293 13.3084 4.91296 13.3666 4.91299C13.5156 4.92282 13.5156 4.92282 13.7499 5.00094C13.7499 5.05251 13.7499 5.10407 13.7499 5.15719C13.8273 5.18298 13.9046 5.20876 13.9843 5.23532C13.9843 5.28688 13.9843 5.33844 13.9843 5.39157C14.0359 5.39157 14.0874 5.39157 14.1406 5.39157C14.1406 5.64938 14.1406 5.90719 14.1406 6.17282C14.089 6.17282 14.0374 6.17282 13.9843 6.17282C13.9328 6.27594 13.8812 6.37907 13.8281 6.48532C13.7765 6.48532 13.7249 6.48532 13.6718 6.48532C13.6718 6.53688 13.6718 6.58844 13.6718 6.64157C12.6396 6.65062 11.6073 6.65756 10.5751 6.66181C10.0957 6.66385 9.61646 6.66661 9.13715 6.67104C8.67467 6.67528 8.21221 6.67762 7.7497 6.67863C7.57318 6.67935 7.39666 6.68076 7.22015 6.68287C6.97304 6.6857 6.72604 6.6861 6.47892 6.68592C6.40581 6.68732 6.3327 6.68872 6.25737 6.69017C5.9028 6.68735 5.75062 6.67735 5.45926 6.45813C5.31244 6.25094 5.31244 6.25094 5.31244 6.01657C5.26088 6.01657 5.20932 6.01657 5.15619 6.01657C5.10738 5.61636 5.21006 5.42246 5.43848 5.11172C5.631 4.91486 5.84166 4.91303 6.10143 4.9129Z" fill="#006AFF"></path><path d="M9.73761 27.6471C9.80748 27.647 9.87736 27.6468 9.94935 27.6467C10.1811 27.6464 10.4128 27.6466 10.6446 27.6468C10.8051 27.6468 10.9657 27.6467 11.1262 27.6466C11.463 27.6465 11.7998 27.6467 12.1366 27.647C12.569 27.6475 13.0015 27.6472 13.4339 27.6468C13.7655 27.6465 14.0971 27.6466 14.4288 27.6468C14.5882 27.6468 14.7477 27.6468 14.9072 27.6466C15.1298 27.6464 15.3524 27.6467 15.575 27.6471C15.6746 27.6469 15.6746 27.6469 15.7762 27.6466C16.2322 27.6483 16.2322 27.6483 16.4063 27.7353C16.4063 27.7869 16.4063 27.8385 16.4063 27.8916C16.5094 27.9432 16.6126 27.9947 16.7188 28.0478C16.7231 28.1715 16.7261 28.2952 16.7286 28.4189C16.7304 28.4878 16.7322 28.5567 16.7341 28.6277C16.7176 28.8451 16.6862 28.9627 16.5626 29.1416C16.2631 29.3557 15.9205 29.3204 15.5682 29.3193C15.465 29.3199 15.465 29.3199 15.3598 29.3205C15.1326 29.3216 14.9053 29.3215 14.6781 29.3213C14.5201 29.3216 14.3621 29.322 14.2041 29.3224C13.8729 29.3229 13.5417 29.3229 13.2105 29.3225C12.7861 29.3221 12.3618 29.3234 11.9374 29.3252C11.6111 29.3263 11.2848 29.3264 10.9584 29.3262C10.802 29.3262 10.6455 29.3266 10.4891 29.3274C10.2703 29.3284 10.0515 29.3278 9.83269 29.3269C9.73582 29.3278 9.73582 29.3278 9.63699 29.3287C9.27633 29.3254 9.04412 29.2949 8.75006 29.0635C8.52307 28.7739 8.4903 28.568 8.51569 28.2041C8.56725 28.2041 8.61881 28.2041 8.67194 28.2041C8.69772 28.101 8.7235 27.9978 8.75006 27.8916C8.80162 27.8916 8.85319 27.8916 8.90631 27.8916C8.90631 27.84 8.90631 27.7885 8.90631 27.7353C9.16487 27.6061 9.4534 27.6464 9.73761 27.6471Z" fill="#006AFF"></path><path d="M6.20621 8.49563C6.2912 8.49514 6.3762 8.49465 6.46377 8.49414C6.60086 8.49462 6.60086 8.49462 6.74072 8.4951C6.88201 8.49487 6.88201 8.49487 7.02615 8.49465C7.22526 8.49454 7.42437 8.49483 7.62348 8.49548C7.9285 8.49632 8.23349 8.49549 8.53851 8.49449C8.73189 8.49459 8.92527 8.49479 9.11865 8.4951C9.21005 8.49478 9.30144 8.49447 9.39561 8.49414C9.4806 8.49463 9.5656 8.49513 9.65317 8.49563C9.72786 8.49576 9.80256 8.49588 9.87952 8.49601C10.0891 8.51694 10.2136 8.56 10.3906 8.6721C10.6378 8.9811 10.6597 9.22043 10.625 9.6096C10.5378 9.91129 10.5022 9.97796 10.2344 10.1565C10.0328 10.1763 10.0328 10.1763 9.78836 10.1767C9.69685 10.1772 9.60534 10.1777 9.51106 10.1782C9.41218 10.1779 9.3133 10.1776 9.21143 10.1772C9.05929 10.1775 9.05929 10.1775 8.90408 10.1777C8.68946 10.1779 8.47485 10.1776 8.26023 10.1768C7.98517 10.176 7.71013 10.1765 7.43507 10.1774C7.17269 10.1781 6.91033 10.1776 6.64795 10.1772C6.54907 10.1775 6.45019 10.1779 6.34831 10.1782C6.25681 10.1777 6.1653 10.1772 6.07101 10.1767C5.99036 10.1766 5.9097 10.1764 5.8266 10.1763C5.625 10.1565 5.625 10.1565 5.39062 10.0002C5.33691 9.79515 5.33691 9.79515 5.3125 9.6096C5.26094 9.6096 5.20937 9.6096 5.15625 9.6096C5.15625 9.42913 5.15625 9.24866 5.15625 9.06273C5.20781 9.06273 5.25937 9.06273 5.3125 9.06273C5.33184 9.0015 5.35117 8.94027 5.37109 8.87718C5.54757 8.50657 5.822 8.49627 6.20621 8.49563Z" fill="#006AFF"></path><path d="M9.42206 30.4578C9.49662 30.4575 9.57118 30.4573 9.648 30.457C9.72873 30.4572 9.80946 30.4573 9.89264 30.4575C9.97528 30.4574 10.0579 30.4574 10.1431 30.4573C10.318 30.4572 10.493 30.4574 10.6679 30.4577C10.9364 30.4581 11.2049 30.4577 11.4734 30.4572C11.6431 30.4573 11.8128 30.4574 11.9825 30.4575C12.0632 30.4574 12.1439 30.4572 12.2271 30.457C12.3017 30.4573 12.3762 30.4575 12.4531 30.4578C12.5189 30.4578 12.5847 30.4579 12.6525 30.458C12.8126 30.4679 12.8126 30.4679 12.9688 30.546C12.9688 30.5976 12.9688 30.6491 12.9688 30.7023C13.0462 30.728 13.1235 30.7538 13.2032 30.7804C13.3217 31.1359 13.3375 31.4353 13.1837 31.7814C13.0048 32.0049 12.8487 32.0949 12.5631 32.1289C12.4701 32.1294 12.4701 32.1294 12.3753 32.13C12.3046 32.1307 12.2339 32.1315 12.1611 32.1322C12.0854 32.1322 12.0096 32.1321 11.9315 32.132C11.8139 32.1325 11.8139 32.1325 11.6939 32.133C11.5283 32.1335 11.3626 32.1335 11.1969 32.1332C10.9436 32.1329 10.6905 32.1348 10.4372 32.1367C10.2761 32.1369 10.1151 32.137 9.95398 32.1369C9.87837 32.1376 9.80275 32.1383 9.72485 32.1391C9.3374 32.1364 9.06178 32.1317 8.75006 31.8741C8.52307 31.5845 8.4903 31.3786 8.51569 31.0148C8.56725 31.0148 8.61881 31.0148 8.67194 31.0148C8.69772 30.9116 8.7235 30.8085 8.75006 30.7023C8.80162 30.7023 8.85319 30.7023 8.90631 30.7023C8.90631 30.6507 8.90631 30.5991 8.90631 30.546C9.09432 30.452 9.21213 30.458 9.42206 30.4578Z" fill="#006AFF"></path></g><defs><clipPath id="clip0_3995_11603"><rect width="40" height="40" fill="white"></rect></clipPath></defs></svg>