<svg xmlns="http://www.w3.org/2000/svg" width="40" height="40" viewBox="0 0 40 40" fill="none"><g clip-path="url(#clip0_3995_4259)"><path d="M11.0016 1.29857C11.1348 1.29751 11.1348 1.29751 11.2706 1.29643C11.4578 1.2953 11.6449 1.29461 11.8321 1.29432C12.1188 1.29338 12.4053 1.28953 12.692 1.2856C12.874 1.28486 13.056 1.2843 13.238 1.28392C13.3666 1.28163 13.3666 1.28163 13.4979 1.2793C14.0878 1.28281 14.0878 1.28281 14.3537 1.5079C14.4894 1.79477 14.459 1.9627 14.3751 2.26506C14.2528 2.42449 14.1858 2.49077 13.9867 2.52901C13.8991 2.52925 13.8991 2.52925 13.8097 2.5295C13.7431 2.53029 13.6766 2.53108 13.6081 2.53189C13.5363 2.53165 13.4645 2.53142 13.3906 2.53117C13.3163 2.53202 13.242 2.53287 13.1654 2.53374C12.9273 2.53642 12.6893 2.53763 12.4512 2.5385C12.1393 2.53964 11.8275 2.54229 11.5156 2.54582C11.4447 2.54559 11.3739 2.54535 11.3009 2.54511C10.7306 2.55173 10.2226 2.63198 9.77056 2.99748C8.03706 5.20376 9.40311 8.59999 9.37505 11.4057C16.3876 11.4057 23.4001 11.4057 30.6251 11.4057C31.0452 7.03839 31.0452 7.03839 30.2344 2.96819C29.741 2.61831 29.3335 2.56789 28.7419 2.5673C28.6594 2.56706 28.6594 2.56706 28.5753 2.5668C28.3915 2.56634 28.2078 2.56641 28.024 2.56648C27.8921 2.56624 27.7601 2.56597 27.6282 2.56566C27.3443 2.56504 27.0605 2.56464 26.7766 2.56438C26.3279 2.56392 25.8791 2.56263 25.4304 2.56115C25.2768 2.56066 25.1231 2.56017 24.9694 2.55967C24.8925 2.55942 24.8156 2.55918 24.7363 2.55892C23.6918 2.55563 22.6472 2.55306 21.6027 2.5521C20.8978 2.55144 20.1929 2.54969 19.4881 2.54668C19.1151 2.54513 18.7421 2.54417 18.3691 2.54456C18.0185 2.54492 17.668 2.54385 17.3174 2.54167C17.1887 2.54112 17.0599 2.54112 16.9312 2.54168C16.7556 2.54237 16.5801 2.54115 16.4045 2.53946C16.3062 2.53927 16.2079 2.53908 16.1066 2.53889C15.8136 2.49212 15.7202 2.42442 15.5469 2.18694C15.504 1.88679 15.49 1.71899 15.6702 1.4692C15.9301 1.27468 16.1031 1.28825 16.4261 1.28788C16.4833 1.28739 16.5405 1.2869 16.5995 1.2864C16.7912 1.28515 16.9829 1.28614 17.1746 1.28713C17.3121 1.2867 17.4495 1.28615 17.587 1.28547C17.9605 1.28404 18.334 1.28459 18.7076 1.28558C19.0987 1.28638 19.4898 1.28564 19.8809 1.28515C20.5381 1.28458 21.1953 1.28533 21.8525 1.28682C22.6115 1.28852 23.3704 1.28797 24.1294 1.28625C24.7813 1.28483 25.4333 1.28463 26.0852 1.28545C26.4744 1.28594 26.8636 1.286 27.2528 1.28497C27.6192 1.28406 27.9855 1.2847 28.3518 1.2865C28.486 1.28691 28.6201 1.2868 28.7542 1.2861C30.0461 1.28006 30.0461 1.28006 30.6251 1.64006C30.6874 1.67491 30.7497 1.70975 30.814 1.74565C31.3475 2.12963 31.6785 2.63361 31.7969 3.28069C31.8753 3.27905 31.9536 3.27741 32.0343 3.27573C32.3288 3.27001 32.6234 3.26646 32.918 3.26352C33.0447 3.26196 33.1715 3.25984 33.2982 3.25711C34.3443 3.23518 35.2093 3.32288 36.0157 4.06194C36.6563 4.6936 36.9235 5.40856 36.9623 6.30437C36.9628 6.46838 36.9586 6.63239 36.9532 6.79631C37.0005 6.79833 37.0478 6.80034 37.0966 6.80241C37.9349 6.85916 38.6127 7.14462 39.2188 7.73381C39.8155 8.43359 40.0362 9.10708 40.0309 10.0172C40.0313 10.0946 40.0318 10.1721 40.0323 10.2519C40.0336 10.5099 40.0332 10.7678 40.0329 11.0258C40.0334 11.2115 40.0341 11.3971 40.0349 11.5827C40.0366 12.0858 40.0368 12.589 40.0367 13.0921C40.0366 13.4067 40.037 13.7213 40.0375 14.0359C40.0377 14.1418 40.0378 14.2477 40.038 14.3536C40.0381 14.4327 40.0381 14.4327 40.0382 14.5134C40.0397 15.5092 40.0396 16.505 40.0391 17.5008C40.0387 18.4103 40.0403 19.3197 40.0429 20.2291C40.0455 21.1646 40.0467 22.1001 40.0463 23.0355C40.0462 23.5601 40.0466 24.0846 40.0485 24.6091C40.0503 25.1026 40.0501 25.596 40.0485 26.0894C40.0483 26.2701 40.0487 26.4507 40.0498 26.6313C40.057 27.8807 40.009 28.8067 39.0992 29.7498C38.1278 30.6136 37.0765 30.6367 35.8423 30.6321C35.7276 30.6319 35.6129 30.6318 35.4982 30.6317C35.1982 30.6314 34.8982 30.6307 34.5981 30.6298C34.2912 30.629 33.9843 30.6286 33.6774 30.6283C33.0766 30.6274 32.4758 30.6261 31.8751 30.6244C31.8758 30.7319 31.8758 30.7319 31.8766 30.8416C31.8813 31.5197 31.8849 32.1978 31.8872 32.8759C31.8884 33.2244 31.8901 33.5729 31.8927 33.9215C31.8953 34.2583 31.8967 34.5952 31.8973 34.9321C31.8977 35.0601 31.8986 35.1881 31.8998 35.3161C31.9102 36.4047 31.8183 37.2057 31.0474 38.0219C30.3636 38.667 29.5127 38.7613 28.6132 38.7604C28.4987 38.7608 28.4987 38.7608 28.3819 38.7611C28.1265 38.7618 27.871 38.7619 27.6155 38.762C27.4322 38.7624 27.249 38.7628 27.0657 38.7632C26.5679 38.7642 26.0701 38.7647 25.5722 38.7651C25.261 38.7653 24.9499 38.7656 24.6387 38.766C23.7761 38.7669 22.9136 38.7677 22.051 38.768C21.9959 38.768 21.9407 38.768 21.8839 38.768C21.801 38.7681 21.801 38.7681 21.7164 38.7681C21.6044 38.7681 21.4923 38.7682 21.3803 38.7682C21.3248 38.7682 21.2692 38.7682 21.212 38.7683C20.3124 38.7686 19.4128 38.7699 18.5132 38.7717C17.5883 38.7736 16.6634 38.7746 15.7386 38.7747C15.2198 38.7747 14.701 38.7752 14.1823 38.7766C13.694 38.7779 13.2058 38.7781 12.7175 38.7774C12.5388 38.7773 12.36 38.7776 12.1813 38.7784C9.76297 38.7883 9.76297 38.7883 8.84801 37.9163C8.29853 37.3161 8.11195 36.7056 8.11618 35.9016C8.11617 35.8444 8.11616 35.7872 8.11615 35.7282C8.1162 35.5401 8.11681 35.352 8.11742 35.1639C8.11757 35.0331 8.11768 34.9023 8.11776 34.7715C8.11806 34.4279 8.11882 34.0844 8.11969 33.7408C8.12049 33.3899 8.12084 33.0391 8.12124 32.6882C8.12207 32.0003 8.12341 31.3124 8.12505 30.6244C8.06236 30.6248 7.99967 30.6251 7.93508 30.6255C7.34096 30.6286 6.74684 30.631 6.1527 30.6325C5.84734 30.6333 5.54198 30.6344 5.23662 30.6362C4.9413 30.6379 4.64598 30.6389 4.35065 30.6393C4.23863 30.6395 4.1266 30.6401 4.01458 30.641C2.83338 30.6496 1.74207 30.55 0.83013 29.7162C0.389582 29.2407 -0.00881853 28.5397 -0.0104334 27.8796C-0.0107817 27.8136 -0.0111308 27.7475 -0.0114896 27.6794C-0.011468 27.5705 -0.0114676 27.5705 -0.0114455 27.4594C-0.0117328 27.3823 -0.0120198 27.3052 -0.0123158 27.2257C-0.0131794 26.9661 -0.0134787 26.7065 -0.0137761 26.4469C-0.0142654 26.2612 -0.0147847 26.0755 -0.0153317 25.8899C-0.016835 25.3317 -0.0176623 24.7735 -0.0183573 24.2153C-0.0186998 23.9523 -0.0191187 23.6893 -0.0195279 23.4263C-0.0208572 22.5515 -0.02199 21.6768 -0.0225558 20.8021C-0.022705 20.5751 -0.0228548 20.3481 -0.0230076 20.1211C-0.0230454 20.0647 -0.0230831 20.0083 -0.0231221 19.9501C-0.0237699 19.0371 -0.0257484 18.124 -0.0282874 17.211C-0.0308744 16.273 -0.0322784 15.3349 -0.0325277 14.3969C-0.0326965 13.8705 -0.0333764 13.3441 -0.0353768 12.8177C-0.0371972 12.3222 -0.0375248 11.8266 -0.0367227 11.3311C-0.036684 11.1495 -0.0371774 10.968 -0.0382509 10.7864C-0.0396382 10.5378 -0.0390785 10.2893 -0.038053 10.0407C-0.03891 9.96947 -0.0397665 9.89826 -0.0406494 9.8249C-0.0318594 8.93727 0.307957 8.19765 0.937552 7.57756C1.55373 7.08182 2.24713 6.77194 3.04693 6.79631C3.0437 6.69802 3.04048 6.59973 3.03716 6.49846C3.04296 5.57216 3.28716 4.77623 3.91607 4.07658C4.53557 3.50143 5.27435 3.26735 6.09746 3.27306C6.18784 3.27322 6.18784 3.27322 6.28004 3.27339C6.47187 3.27383 6.66369 3.27481 6.85552 3.2758C6.98583 3.2762 7.11614 3.27655 7.24645 3.27687C7.56536 3.27773 7.88427 3.27908 8.20318 3.28069C8.21721 3.23423 8.23124 3.18778 8.24569 3.13992C8.46622 2.43997 8.80464 1.9382 9.44616 1.5598C9.96883 1.31654 10.4332 1.30136 11.0016 1.29857ZM4.84472 4.96861C4.35136 5.55802 4.29693 6.02327 4.29693 6.79631C5.56021 6.79631 6.82349 6.79631 8.12505 6.79631C8.12505 6.04866 8.12505 5.301 8.12505 4.53069C7.78037 4.52347 7.43596 4.51726 7.09127 4.51352C6.97428 4.51196 6.85729 4.50983 6.74032 4.50711C6.00568 4.49046 5.44376 4.48491 4.84472 4.96861ZM31.8751 4.53069C31.8751 5.27834 31.8751 6.026 31.8751 6.79631C33.1383 6.79631 34.4016 6.79631 35.7032 6.79631C35.7032 6.02327 35.6487 5.55802 35.1554 4.96861C34.5098 4.44731 33.8725 4.49286 33.086 4.51115C32.9684 4.51272 32.8508 4.51415 32.7332 4.51543C32.4471 4.51858 32.1612 4.5247 31.8751 4.53069ZM1.64068 8.67131C1.20394 9.30097 1.16011 9.8986 1.16148 10.6462C1.1613 10.7176 1.16113 10.7889 1.16094 10.8625C1.16045 11.1008 1.16051 11.3391 1.16058 11.5774C1.16034 11.7487 1.16008 11.9199 1.15978 12.0911C1.15909 12.5557 1.15891 13.0202 1.15886 13.4848C1.1588 13.7752 1.15864 14.0656 1.15843 14.356C1.15775 15.3172 1.15738 16.2784 1.15744 17.2396C1.15744 17.2914 1.15745 17.3431 1.15745 17.3965C1.15745 17.4483 1.15746 17.5001 1.15746 17.5535C1.15749 18.3931 1.15674 19.2327 1.15564 20.0722C1.15452 20.9355 1.154 21.7987 1.15405 22.662C1.15407 23.1461 1.15385 23.6303 1.15302 24.1145C1.15226 24.57 1.15226 25.0254 1.15283 25.4809C1.15291 25.6478 1.15272 25.8146 1.15225 25.9815C1.15164 26.2099 1.15201 26.4383 1.15261 26.6667C1.15221 26.7321 1.15181 26.7976 1.15139 26.865C1.15566 27.6027 1.24069 28.2372 1.75512 28.7955C2.42787 29.4429 3.29458 29.4074 4.17303 29.3973C4.2736 29.3971 4.37418 29.3969 4.4778 29.3966C4.85046 29.3954 5.22311 29.3921 5.59576 29.3891C6.84776 29.3818 6.84776 29.3818 8.12505 29.3744C8.12505 26.0487 8.12505 22.7229 8.12505 19.2963C6.78443 19.2705 5.4438 19.2447 4.06255 19.2182C3.81843 18.8927 3.77904 18.8218 3.82818 18.4369C3.94889 18.2778 4.04079 18.2134 4.2188 18.1244C4.38909 18.1168 4.55962 18.1145 4.73008 18.1144C4.81014 18.1142 4.81014 18.1142 4.89182 18.114C5.07246 18.1136 5.25309 18.1138 5.43372 18.114C5.56382 18.1138 5.69393 18.1137 5.82403 18.1135C6.18293 18.113 6.54184 18.113 6.90074 18.1131C7.28728 18.1131 7.67381 18.1127 8.06034 18.1123C8.81815 18.1116 9.57596 18.1114 10.3338 18.1114C10.9495 18.1113 11.5652 18.1112 12.181 18.1109C13.925 18.1103 15.6691 18.1099 17.4132 18.1099C17.5073 18.11 17.6014 18.11 17.6984 18.11C17.7926 18.11 17.8868 18.11 17.9839 18.11C19.5114 18.11 21.0389 18.1093 22.5664 18.1082C24.1332 18.107 25.7001 18.1065 27.2669 18.1066C28.1472 18.1066 29.0275 18.1064 29.9078 18.1055C30.6572 18.1048 31.4067 18.1046 32.1561 18.1052C32.5387 18.1054 32.9214 18.1054 33.304 18.1048C33.6539 18.1041 34.0039 18.1043 34.3538 18.1049C34.4808 18.1051 34.6077 18.1049 34.7346 18.1045C34.9065 18.1039 35.0784 18.1043 35.2504 18.105C35.346 18.105 35.4417 18.105 35.5403 18.1049C35.772 18.1237 35.903 18.1514 36.0938 18.2807C36.2035 18.5002 36.1914 18.6626 36.1719 18.9057C36.0559 19.0604 36.0559 19.0604 35.9376 19.2182C34.5969 19.244 33.2563 19.2697 31.8751 19.2963C31.8751 22.6221 31.8751 25.9479 31.8751 29.3744C33.1271 29.3817 33.1271 29.3817 34.4044 29.3891C34.6664 29.3912 34.9285 29.3934 35.1985 29.3956C35.408 29.3962 35.6176 29.3968 35.8271 29.3973C35.8805 29.3979 35.9339 29.3986 35.9889 29.3992C36.8666 29.4087 37.6456 29.3793 38.3054 28.7461C38.8243 28.1457 38.84 27.4567 38.8386 26.6959C38.8388 26.6245 38.839 26.553 38.8392 26.4794C38.8397 26.2409 38.8396 26.0024 38.8395 25.7639C38.8398 25.5926 38.84 25.4212 38.8403 25.2499C38.841 24.785 38.8412 24.3201 38.8412 23.8553C38.8413 23.5647 38.8415 23.2742 38.8417 22.9836C38.8424 22.022 38.8427 21.0604 38.8427 20.0988C38.8427 20.047 38.8427 19.9952 38.8427 19.9419C38.8427 19.89 38.8426 19.8382 38.8426 19.7848C38.8426 18.9446 38.8434 18.1045 38.8445 17.2644C38.8456 16.4007 38.8461 15.537 38.8461 14.6733C38.846 14.1888 38.8463 13.7043 38.8471 13.2199C38.8478 12.7642 38.8478 12.3085 38.8473 11.8529C38.8472 11.6859 38.8474 11.5188 38.8479 11.3518C38.8485 11.1234 38.8481 10.895 38.8475 10.6666C38.8481 10.568 38.8481 10.568 38.8487 10.4676C38.8443 9.70722 38.6995 9.10501 38.2032 8.51506C37.7347 8.12634 37.2366 8.02634 36.6378 8.02857C36.56 8.02854 36.56 8.02854 36.4805 8.0285C36.311 8.02861 36.1415 8.02982 35.972 8.03105C35.8537 8.03134 35.7354 8.03157 35.6171 8.03172C35.3071 8.03232 34.9972 8.03385 34.6873 8.03558C34.3705 8.03719 34.0536 8.0379 33.7368 8.03868C33.1162 8.04035 32.4956 8.04302 31.8751 8.04631C31.8746 8.09847 31.8741 8.15063 31.8737 8.20437C31.8687 8.7468 31.8621 9.28919 31.8545 9.83159C31.8519 10.0341 31.8498 10.2366 31.848 10.439C31.8454 10.7299 31.8413 11.0208 31.8369 11.3117C31.8364 11.4024 31.8359 11.493 31.8354 11.5864C31.8331 11.7131 31.8331 11.7131 31.8307 11.8423C31.8298 11.9166 31.829 11.9908 31.8281 12.0673C31.7904 12.3062 31.7289 12.4032 31.5626 12.5776C31.3854 12.6167 31.3854 12.6167 31.1732 12.6169C31.0923 12.6177 31.0115 12.6185 30.9281 12.6194C30.7944 12.6183 30.7944 12.6183 30.658 12.6172C30.5636 12.6177 30.4691 12.6182 30.3718 12.6187C30.1091 12.6198 29.8464 12.6194 29.5837 12.6184C29.3006 12.6177 29.0175 12.6188 28.7344 12.6197C28.1796 12.621 27.6248 12.6207 27.07 12.6198C26.6193 12.6191 26.1685 12.619 25.7177 12.6194C25.6537 12.6194 25.5896 12.6195 25.5235 12.6195C25.3934 12.6196 25.2632 12.6197 25.133 12.6198C23.9116 12.6207 22.6901 12.6197 21.4687 12.618C20.4199 12.6166 19.3712 12.6169 18.3224 12.6183C17.1054 12.62 15.8885 12.6206 14.6715 12.6197C14.5418 12.6196 14.4121 12.6195 14.2824 12.6194C14.2186 12.6193 14.1547 12.6193 14.089 12.6192C13.6386 12.619 13.1882 12.6194 12.7378 12.6202C12.1892 12.621 11.6405 12.6208 11.0919 12.6191C10.8118 12.6183 10.5317 12.618 10.2516 12.619C9.94844 12.6201 9.64528 12.6188 9.34207 12.6172C9.25294 12.6179 9.1638 12.6186 9.07197 12.6194C8.99109 12.6185 8.91022 12.6177 8.82689 12.6169C8.75686 12.6168 8.68682 12.6168 8.61467 12.6167C8.43755 12.5776 8.43755 12.5776 8.29798 12.4312C8.17914 12.2229 8.17219 12.0816 8.1694 11.8423C8.16785 11.7579 8.16631 11.6734 8.16471 11.5864C8.16421 11.4958 8.16371 11.4051 8.1632 11.3117C8.1618 11.2185 8.16039 11.1253 8.15895 11.0293C8.15472 10.7316 8.15207 10.4339 8.14947 10.1362C8.14688 9.93433 8.14418 9.73251 8.14138 9.53069C8.13474 9.0359 8.1294 8.54112 8.12505 8.04631C7.44453 8.04086 6.76403 8.03671 6.08349 8.03417C5.76743 8.03295 5.45139 8.0313 5.13534 8.02863C4.82989 8.02607 4.52445 8.02468 4.21898 8.02407C4.1029 8.02364 3.98682 8.0228 3.87075 8.02153C3.0181 8.01256 2.26393 8.01973 1.64068 8.67131ZM9.37505 19.2963C9.37505 22.9057 9.37505 26.5151 9.37505 30.2338C9.81629 29.8577 9.81629 29.8577 10.2198 29.4574C11.2011 28.4666 12.4828 27.8907 13.8736 27.8569C15.6387 27.8493 16.9209 28.4178 18.1733 29.6488C18.5246 29.9973 18.8726 30.349 19.2188 30.7026C19.5865 30.3965 19.931 30.0769 20.2646 29.7342C20.3583 29.6393 20.4519 29.5443 20.5456 29.4494C20.6899 29.3026 20.8341 29.1556 20.9779 29.0082C22.1405 27.8178 23.3195 26.8741 25.0001 26.5619C25.0541 26.5518 25.1082 26.5416 25.1639 26.5311C25.3181 26.5074 25.4694 26.4934 25.6251 26.4838C25.691 26.4797 25.757 26.4756 25.8249 26.4713C27.3798 26.4228 28.8724 26.8995 30.0342 27.9487C30.1283 28.0375 30.1283 28.0375 30.2244 28.1281C30.394 28.2916 30.394 28.2916 30.6251 28.4369C30.6251 25.4205 30.6251 22.4041 30.6251 19.2963C23.6126 19.2963 16.6001 19.2963 9.37505 19.2963ZM21.7296 30.0633C21.5794 30.2149 21.4289 30.3662 21.2783 30.5174C20.8507 30.9468 20.4237 31.3767 19.9969 31.8069C19.7345 32.0715 19.4716 32.3357 19.2086 32.5996C19.1088 32.6998 19.0092 32.8002 18.9097 32.9008C18.7712 33.0408 18.6322 33.1803 18.4931 33.3197C18.4524 33.3612 18.4116 33.4026 18.3696 33.4453C17.9989 33.8151 17.9989 33.8151 17.7344 33.9057C17.231 33.871 17.231 33.871 17.0313 33.6713C16.9833 33.3621 16.9584 33.1635 17.1262 32.8937C17.2698 32.7275 17.4208 32.5745 17.5782 32.4213C17.6476 32.351 17.717 32.2807 17.7884 32.2083C17.9774 32.0175 18.1678 31.8282 18.3594 31.6401C17.4087 30.51 16.266 29.1873 14.6869 29.0481C13.294 29.0078 12.2661 29.2673 11.2061 30.2192C11.1327 30.2916 11.0593 30.364 10.9837 30.4386C10.7878 30.629 10.5838 30.797 10.3671 30.9632C9.82406 31.4041 9.374 31.8147 9.26239 32.5312C9.21707 33.0967 9.24367 33.6573 9.27251 34.2231C9.27651 34.4187 9.27992 34.6144 9.28274 34.8101C9.28726 34.9978 9.29228 35.1856 9.29784 35.3733C9.3004 35.4599 9.30295 35.5465 9.30558 35.6357C9.33734 36.2442 9.44539 36.7518 9.90728 37.1772C10.5687 37.6181 11.4954 37.6617 12.2654 37.5636C13.0187 37.3578 13.5455 36.6255 14.043 36.0639C14.1717 35.9255 14.3008 35.7876 14.4303 35.6501C14.7127 35.3495 14.9906 35.0454 15.2648 34.7373C15.4761 34.5215 15.5939 34.4542 15.8985 34.4379C16.1719 34.4526 16.1719 34.4526 16.4063 34.5307C16.4664 34.8794 16.4862 35.1817 16.2964 35.4911C16.1485 35.6564 15.9955 35.8134 15.8351 35.9665C15.6128 36.18 15.3963 36.3993 15.1787 36.6176C15.0569 36.7395 14.9345 36.8609 14.8118 36.9819C14.7554 37.0376 14.699 37.0933 14.6409 37.1506C14.5641 37.226 14.5641 37.226 14.4858 37.3029C14.3662 37.4038 14.3662 37.4038 14.3751 37.4994C16.3085 37.5049 18.2419 37.509 20.1753 37.5116C21.0731 37.5128 21.9708 37.5144 22.8686 37.5171C23.6511 37.5195 24.4337 37.521 25.2163 37.5215C25.6306 37.5218 26.0448 37.5225 26.4591 37.5242C26.8493 37.5258 27.2395 37.5263 27.6297 37.5259C27.7726 37.526 27.9156 37.5265 28.0585 37.5274C29.1717 37.5684 29.1717 37.5684 30.1658 37.1363C30.1997 37.0918 30.2336 37.0473 30.2686 37.0014C30.3216 36.9352 30.3216 36.9352 30.3757 36.8677C30.6034 36.502 30.6496 36.1776 30.6688 35.7499C30.6715 35.693 30.6741 35.6362 30.6769 35.5776C30.7 35.051 30.7129 34.5239 30.7229 33.9969C30.7297 33.6441 30.7395 33.2921 30.7574 32.9397C30.8983 31.1382 30.8983 31.1382 30.1668 29.5668C29.8099 29.1938 29.4093 28.884 28.9844 28.5932C28.9279 28.5526 28.8713 28.5121 28.813 28.4703C26.185 26.6007 23.6686 28.1059 21.7296 30.0633Z" fill="#006AFF"></path><path d="M17.7475 21.63C18.2751 22.1925 18.5466 22.8833 18.5321 23.6539C18.4668 24.345 18.1717 24.9785 17.6623 25.4526C17.0117 25.9646 16.3377 26.1412 15.5139 26.0801C14.8597 25.9664 14.2522 25.5958 13.8473 25.0706C13.4183 24.4169 13.2703 23.6964 13.4033 22.9203C13.5797 22.2724 13.9664 21.6947 14.5312 21.3285C15.6022 20.7462 16.8017 20.8189 17.7475 21.63ZM15.0195 22.598C14.7345 22.9463 14.6094 23.2187 14.6094 23.6722C14.6864 24.1038 14.9239 24.4066 15.2588 24.6781C15.661 24.8465 16.007 24.8931 16.4209 24.7611C16.8277 24.5853 17.026 24.3152 17.2168 23.9164C17.2909 23.5458 17.2817 23.2299 17.1084 22.894C16.8382 22.49 16.5841 22.3062 16.1035 22.1976C15.663 22.1578 15.3565 22.3223 15.0195 22.598Z" fill="#006AFF"></path><path d="M35.9668 9.4188C36.4106 9.67954 36.7162 10.0588 36.875 10.5467C36.9431 11.1209 36.9227 11.6401 36.5625 12.1092C36.2228 12.4814 35.902 12.743 35.3906 12.8123C34.7564 12.8355 34.2986 12.6982 33.8281 12.2655C33.4821 11.8863 33.372 11.4977 33.3496 10.9895C33.3755 10.4373 33.62 10.0601 33.9944 9.66385C34.5124 9.19348 35.335 9.13745 35.9668 9.4188ZM34.7314 10.7127C34.5844 10.9318 34.5844 10.9318 34.6387 11.1864C34.7502 11.4216 34.7502 11.4216 34.9854 11.5331C35.2391 11.5857 35.2391 11.5857 35.4639 11.45C35.6546 11.2559 35.6546 11.2559 35.625 10.9666C35.5717 10.6834 35.5717 10.6834 35.3125 10.5467C35.0285 10.4958 34.9521 10.5204 34.7314 10.7127Z" fill="#006AFF"></path><path d="M35.9002 13.4308C36.3652 13.7088 36.7028 14.0928 36.875 14.61C36.943 15.1838 36.9212 15.7026 36.5625 16.1725C36.2229 16.533 35.8917 16.7612 35.3921 16.8293C34.7509 16.848 34.324 16.7463 33.8281 16.3288C33.4719 15.9103 33.3348 15.4733 33.3691 14.9274C33.4446 14.3686 33.6168 13.987 34.0673 13.6384C34.5835 13.2748 35.3051 13.2171 35.9002 13.4308ZM34.6875 14.7663C34.6018 14.9469 34.6018 14.9469 34.6093 15.1569C34.7209 15.3859 34.7209 15.3859 34.9218 15.5475C35.1596 15.6062 35.1596 15.6062 35.3906 15.5475C35.5743 15.3822 35.6186 15.2788 35.6543 15.0349C35.6377 14.8443 35.6377 14.8443 35.5371 14.7028C35.2299 14.5083 34.9747 14.5748 34.6875 14.7663Z" fill="#006AFF"></path></g><defs><clipPath id="clip0_3995_4259"><rect width="40" height="40" fill="white"></rect></clipPath></defs></svg>