<svg xmlns="http://www.w3.org/2000/svg" width="25" height="25" viewBox="0 0 25 25" fill="none"><path d="M12.5 0.507248C10.89 0.451266 9.28519 0.720038 7.78128 1.29754C6.27736 1.87504 4.90512 2.74945 3.74637 3.86863C2.58762 4.98782 1.66609 6.32886 1.0367 7.81181C0.407318 9.29476 0.0829746 10.8893 0.0830078 12.5002C0.086713 15.6817 1.35219 18.7318 3.60182 20.9814C5.85145 23.2311 8.90155 24.4965 12.083 24.5002C12.421 24.5002 12.753 24.4782 13.083 24.4502C13.3334 24.4291 13.5667 24.3145 13.7364 24.1292C13.9061 23.9439 13.9999 23.7015 13.999 23.4502L13.967 19.8622C13.9589 19.1532 14.1623 18.4579 14.5512 17.865C14.9402 17.2721 15.497 16.8086 16.1506 16.5336C16.8042 16.2587 17.5249 16.1847 18.2207 16.3213C18.9165 16.4578 19.5558 16.7987 20.057 17.3002L20.157 17.4002C20.384 17.6292 20.6653 17.797 20.9745 17.8881C21.2838 17.9792 21.6111 17.9906 21.926 17.9212C22.2358 17.8562 22.5243 17.7144 22.7649 17.5087C23.0055 17.303 23.1906 17.0401 23.303 16.7442C23.8551 15.2945 24.1191 13.751 24.08 12.2002C23.9675 9.15426 22.7146 6.26173 20.5698 4.09598C18.425 1.93023 15.5448 0.64936 12.5 0.507248ZM21.482 15.9072L21.468 15.8932C20.6864 15.1129 19.6902 14.5827 18.6064 14.3701C17.5225 14.1575 16.3999 14.2721 15.3814 14.6993C14.3629 15.1266 13.4945 15.8472 12.8866 16.7694C12.2788 17.6916 11.959 18.7738 11.968 19.8782L11.992 22.5002C9.33984 22.4883 6.80104 21.4233 4.93412 19.5395C3.0672 17.6557 2.02507 15.1074 2.03701 12.4552C2.04894 9.80308 3.11396 7.26428 4.99776 5.39736C6.88156 3.53044 9.42984 2.48831 12.082 2.50025C12.199 2.50025 12.317 2.50025 12.435 2.50625C14.9714 2.62538 17.3705 3.69299 19.1568 5.49751C20.9432 7.30204 21.9865 9.71179 22.08 12.2492C22.113 13.4928 21.9112 14.7315 21.485 15.9002L21.482 15.9072Z" fill="#006AFF"></path></svg>