<svg width="20" height="20" viewBox="0 0 20 20" fill="none" xmlns="http://www.w3.org/2000/svg">
<g clip-path="url(#clip0_3355_4672)">
<path d="M19.3527 4.78583L16.8435 1.39583C16.535 0.964446 16.128 0.612808 15.6565 0.370064C15.1849 0.12732 14.6623 0.000461434 14.1319 1.46866e-06H5.87354C5.34573 -0.000493946 4.82535 0.124354 4.35523 0.364271C3.8851 0.604187 3.47867 0.952314 3.16937 1.38L0.615205 4.79417C0.199341 5.38058 -0.0154244 6.0859 0.00305295 6.80456C0.0215303 7.52322 0.272257 8.21657 0.717705 8.78083L8.04437 19.0542C8.27786 19.3498 8.57545 19.5886 8.9147 19.7524C9.25394 19.9163 9.62597 20.0009 10.0027 20C10.3859 19.9992 10.7638 19.9106 11.1074 19.7408C11.4509 19.5711 11.751 19.3247 11.9844 19.0208L19.2527 8.86167C19.7181 8.28916 19.9804 7.57841 19.9985 6.84082C20.0166 6.10323 19.7895 5.38048 19.3527 4.78583ZM15.496 2.37583L18.011 5.77417C18.0244 5.7925 18.0277 5.81417 18.041 5.83333H13.9644L12.7744 1.66667H14.1319C14.3993 1.6675 14.6627 1.7323 14.9 1.85567C15.1373 1.97904 15.3417 2.15739 15.496 2.37583ZM10.0027 15.9317L7.75271 7.5H12.2527L10.0027 15.9317ZM7.77437 5.83333L8.96437 1.66667H11.041L12.231 5.83333H7.77437ZM4.51687 2.36417C4.6715 2.14866 4.87516 1.97302 5.11105 1.85174C5.34694 1.73046 5.6083 1.66702 5.87354 1.66667H7.23104L6.04104 5.83333H1.93437C1.94604 5.815 1.94937 5.7925 1.9627 5.775L4.51687 2.36417ZM2.0427 7.77083C1.98253 7.68585 1.9309 7.59513 1.88854 7.5H6.02937L8.52437 16.8583L2.0427 7.77083ZM11.4785 16.8667L13.9785 7.5H18.1335C18.0798 7.62439 18.0119 7.74212 17.931 7.85083L11.4785 16.8667Z" fill="#656572"/>
</g>
<defs>
<clipPath id="clip0_3355_4672">
<rect width="19.9975" height="20" fill="white" transform="translate(0.00195312)"/>
</clipPath>
</defs>
</svg>
