<svg xmlns="http://www.w3.org/2000/svg" width="40" height="41" viewBox="0 0 40 41" fill="none"><g clip-path="url(#clip0_3898_8808)"><path d="M30.9549 4.04333L20.5232 0.585C20.1849 0.471667 19.8132 0.471667 19.4749 0.585L9.04321 4.04333C5.62654 5.17667 3.33154 8.355 3.33154 11.9533V20.5717C3.33154 31.51 15.0065 38.2 18.5849 39.9883C18.5849 39.9883 19.3015 40.5 20.0015 40.5C20.7015 40.5 21.3199 40.1 21.3199 40.1C24.9199 38.6517 36.6649 32.965 36.6649 20.5717V11.9533C36.6649 8.355 34.3715 5.17667 30.9549 4.04333ZM33.3332 20.5717C33.3332 30.875 23.1865 35.7567 20.0782 37.0067C16.9299 35.4333 6.66654 29.6 6.66654 20.5717V11.9533C6.66654 9.795 8.04321 7.88833 10.0932 7.20667L19.9999 3.92167L29.9065 7.20667C31.9549 7.88667 33.3332 9.795 33.3332 11.9533V20.5717ZM24.1665 16.3333C24.1665 18.0417 23.1382 19.51 21.6665 20.1517V25.5C21.6665 26.4217 20.9215 27.1667 19.9999 27.1667C19.0782 27.1667 18.3332 26.4217 18.3332 25.5V20.1517C16.8615 19.5083 15.8332 18.0417 15.8332 16.3333C15.8332 14.0317 17.6982 12.1667 19.9999 12.1667C22.3015 12.1667 24.1665 14.0317 24.1665 16.3333Z" fill="#006AFF"></path></g><defs><clipPath id="clip0_3898_8808"><rect width="40" height="40" fill="white" transform="translate(0 0.5)"></rect></clipPath></defs></svg>