<svg xmlns="http://www.w3.org/2000/svg" width="40" height="40" viewBox="0 0 40 40" fill="none"><path d="M37.1783 1.64078C35.385 0.209117 33.0733 -0.322549 30.8467 0.187451L18.0083 2.99412L13.6883 0.862451C11.38 -0.277549 8.61999 -0.277549 6.31166 0.862451L3.71333 2.14412C1.42333 3.27578 -6.51181e-06 5.56578 -6.51181e-06 8.11745L-0.0483398 35.6241C-0.0483398 38.0908 1.15833 39.1425 1.87666 39.5508C2.25666 39.7641 2.85166 40.0008 3.64499 40.0008C4.40666 40.0008 5.34999 39.7825 6.45833 39.1191L10.1067 36.8458L15.2667 39.3075C17.2 40.0091 19.2933 40.1825 21.3117 39.8158L33.1567 37.7141C37.1217 36.9941 39.9983 33.5458 39.9983 29.5158V7.50412C39.9983 5.20912 38.9717 3.07245 37.1783 1.64078ZM4.71833 36.2758C3.97833 36.7225 3.58166 36.6891 3.51833 36.6508C3.48166 36.6291 3.28333 36.3625 3.28333 35.6291L3.33166 8.12245C3.33166 6.84412 4.04333 5.69912 5.18833 5.13245L7.78499 3.85078C7.96333 3.76245 8.14666 3.68578 8.33166 3.62078V34.0225L4.71666 36.2758H4.71833ZM11.6667 33.8974V3.62078C11.8533 3.68578 12.035 3.76245 12.2133 3.85078L16.6667 6.04912V36.2725C16.6283 36.2591 11.6667 33.8974 11.6667 33.8974ZM36.6667 29.5158C36.6667 31.9341 34.94 34.0025 32.5683 34.4341C32.5683 34.4341 20.2417 36.6091 20 36.6325V5.96912L31.5717 3.43912C32.815 3.15745 34.1017 3.45078 35.0967 4.24578C36.095 5.04078 36.665 6.22745 36.665 7.50245V29.5125L36.6667 29.5158ZM33.3333 8.73578C33.53 9.63579 32.96 10.5241 32.0617 10.7191C32.0617 10.7191 25.115 12.2225 24.9983 12.2225C24.2317 12.2225 23.5417 11.6908 23.3717 10.9125C23.175 10.0125 23.745 9.12412 24.6433 8.92912L31.3483 7.46412C32.2583 7.26578 33.1383 7.83912 33.3333 8.73578ZM33.3333 15.4025C33.53 16.3025 32.96 17.1908 32.0617 17.3858C32.0617 17.3858 25.115 18.8891 24.9983 18.8891C24.2317 18.8891 23.5417 18.3575 23.3717 17.5791C23.175 16.6791 23.745 15.7908 24.6433 15.5958L31.3483 14.1308C32.2583 13.9308 33.1383 14.5058 33.3333 15.4025ZM33.3333 22.0691C33.53 22.9691 32.96 23.8575 32.0617 24.0525C32.0617 24.0525 25.115 25.5558 24.9983 25.5558C24.2317 25.5558 23.5417 25.0241 23.3717 24.2458C23.175 23.3458 23.745 22.4575 24.6433 22.2625L31.3483 20.7975C32.2583 20.6025 33.1383 21.1725 33.3333 22.0691ZM29.98 29.4675C30.1767 30.3675 29.6067 31.2558 28.7083 31.4508C28.7083 31.4508 25.115 32.2225 24.9967 32.2225C24.23 32.2225 23.54 31.6908 23.37 30.9125C23.1733 30.0125 23.7433 29.1241 24.6417 28.9291L27.995 28.1975C28.9 27.9991 29.7833 28.5725 29.9783 29.4691L29.98 29.4675Z" fill="#006AFF"></path></svg>