<svg width="156" height="31" viewBox="0 0 156 31" fill="none" xmlns="http://www.w3.org/2000/svg">
<path d="M120.776 29.0879V23.7051H122.852C123.134 23.7051 123.386 23.7677 123.61 23.893C123.833 24.0183 124.005 24.1891 124.129 24.4044C124.253 24.6197 124.314 24.8577 124.314 25.1197C124.314 25.4227 124.233 25.6824 124.071 25.8999C123.909 26.1175 123.721 26.2701 123.506 26.3578V26.3965C123.747 26.458 123.955 26.6027 124.129 26.8305C124.303 27.0583 124.391 27.3396 124.391 27.6722C124.391 27.9444 124.331 28.187 124.21 28.4023C124.089 28.6175 123.918 28.7861 123.699 28.9057C123.478 29.0264 123.221 29.0868 122.93 29.0868H120.777L120.776 29.0879ZM122.852 26.2735C123.088 26.2735 123.295 26.2211 123.475 26.1163C123.655 26.0115 123.794 25.8714 123.894 25.6972C123.995 25.5229 124.045 25.3304 124.045 25.1208C124.045 24.9113 123.994 24.7097 123.891 24.5331C123.789 24.3566 123.646 24.2176 123.464 24.1185C123.282 24.0183 123.078 23.9682 122.852 23.9682H121.045V26.2746H122.852V26.2735ZM122.93 28.826C123.288 28.826 123.577 28.72 123.794 28.5071C124.012 28.2941 124.121 28.0162 124.121 27.6733C124.121 27.3305 124.012 27.0514 123.794 26.8396C123.577 26.6266 123.288 26.5207 122.93 26.5207H121.046V28.8271H122.93V28.826Z" fill="#666666"/>
<path d="M128.019 25.2453H128.288L126.535 30.1737C126.474 30.348 126.394 30.4675 126.297 30.5313C126.199 30.5951 126.064 30.627 125.889 30.627H125.405V30.381H125.881C126.01 30.381 126.101 30.3548 126.158 30.3035C126.214 30.2523 126.265 30.1623 126.312 30.0347L126.589 29.2659L125.074 25.2441H125.343L126.65 28.7192H126.796L128.018 25.2441L128.019 25.2453Z" fill="#666666"/>
<path d="M133.793 29.0879H130.656V23.7051H130.925V28.826H133.793V29.0879Z" fill="#666666"/>
<path d="M134.954 24.1781H134.616V23.8398H134.954V24.1781ZM134.915 29.0917H134.653V25.2476H134.915V29.0917Z" fill="#666666"/>
<path d="M136.223 29.0923V25.2482H136.438L136.485 25.9327H136.524C136.626 25.738 136.791 25.5625 137.019 25.4065C137.247 25.2505 137.515 25.1719 137.823 25.1719C138.11 25.1719 138.366 25.2357 138.589 25.3644C138.812 25.4931 138.986 25.6787 139.112 25.9213C139.237 26.1651 139.3 26.4532 139.3 26.7858V29.0923H139.039V26.7858C139.039 26.5193 138.986 26.2824 138.88 26.0751C138.776 25.8678 138.63 25.7061 138.442 25.591C138.255 25.476 138.041 25.4179 137.8 25.4179C137.558 25.4179 137.338 25.4783 137.138 25.599C136.938 25.7197 136.779 25.8837 136.662 26.091C136.543 26.2983 136.485 26.5307 136.485 26.787V29.0934H136.223V29.0923Z" fill="#666666"/>
<path d="M140.874 29.0879H140.613V23.7051H140.874V27.0343L143.004 25.2427H143.365L141.12 27.1266L143.443 29.0868H143.081L140.875 27.2189V29.0868L140.874 29.0879Z" fill="#666666"/>
<path d="M145.872 29.0879H145.604V23.967H143.689V23.7051H147.787V23.967H145.872V29.0879Z" fill="#666666"/>
<path d="M148.978 29.0879H148.709V23.7051H148.978V29.0879Z" fill="#666666"/>
<path d="M151.408 28.8167C151.029 28.5832 150.729 28.2563 150.508 27.836C150.287 27.4157 150.178 26.9362 150.178 26.3986C150.178 25.861 150.288 25.3815 150.508 24.9612C150.728 24.5409 151.029 24.214 151.408 23.9805C151.787 23.747 152.207 23.6309 152.669 23.6309C153.233 23.6309 153.723 23.7926 154.141 24.1149C154.559 24.4384 154.845 24.8792 154.998 25.4373H154.713C154.57 24.9555 154.316 24.5774 153.952 24.3029C153.588 24.0284 153.161 23.8917 152.669 23.8917C152.263 23.8917 151.891 23.9965 151.55 24.2072C151.21 24.4179 150.94 24.7118 150.743 25.091C150.546 25.4703 150.447 25.9066 150.447 26.3986C150.447 26.8906 150.546 27.3269 150.743 27.7062C150.94 28.0854 151.209 28.3804 151.55 28.59C151.891 28.7996 152.264 28.9055 152.669 28.9055C153.165 28.9055 153.595 28.7666 153.957 28.4898C154.318 28.213 154.571 27.8235 154.714 27.3212H154.999C154.845 27.8952 154.559 28.3463 154.143 28.6743C153.725 29.0023 153.234 29.1663 152.67 29.1663C152.209 29.1663 151.788 29.0502 151.409 28.8167H151.408Z" fill="#666666"/>
<path d="M7.83105 12.0957C10.2332 13.7803 11.8779 16.4763 12.1421 19.5652C9.59877 17.7906 8.08619 15.0195 7.83105 12.0957Z" fill="#00DA00"/>
<path d="M7.29138 9.29492C7.03397 12.2176 5.52025 14.9899 2.97803 16.7633C3.24341 13.6732 4.88697 10.9783 7.29138 9.29492Z" fill="#00E4FF"/>
<path d="M9.44767 7.42705C6.78699 8.66513 3.63085 8.7403 0.823242 7.42477C3.63199 6.10924 6.78813 6.18555 9.44767 7.42705Z" fill="#00B199"/>
<path d="M12.1426 8.35816C9.73935 6.6736 8.09579 3.97761 7.83154 0.888672C10.3749 2.66322 11.8875 5.43438 12.1426 8.35816Z" fill="#FF4937"/>
<path d="M12.6826 11.1617C12.94 8.23907 14.4537 5.46677 16.996 3.69336C16.7306 6.78344 15.087 9.47829 12.6826 11.1617Z" fill="#009FFF"/>
<path d="M10.5264 13.025C13.187 11.7869 16.3432 11.7118 19.1508 13.0273C16.342 14.3428 13.1859 14.2665 10.5264 13.025Z" fill="#FFC40D"/>
<path d="M24.832 19.5481V0.892578H33.1205C34.1683 0.892578 35.1194 1.14543 35.9713 1.65228C36.8244 2.15913 37.4953 2.86531 37.9839 3.7708C38.4726 4.67744 38.7163 5.70709 38.7163 6.86202C38.7163 8.01696 38.4714 9.0523 37.9839 9.96691C37.4953 10.8827 36.8244 11.5922 35.9713 12.0991C35.1182 12.6059 34.1683 12.8588 33.1205 12.8588H27.6305V19.5481H24.832ZM33.0407 10.1936C33.8403 10.1936 34.5203 9.88718 35.0795 9.2744C35.6388 8.66162 35.919 7.8575 35.919 6.86202C35.919 5.86654 35.6433 5.06811 35.0932 4.46331C34.5419 3.85964 33.8585 3.55667 33.0407 3.55667H27.6305V10.1924H33.0407V10.1936Z" fill="#666666"/>
<path d="M41.7017 19.5473V6.14258H43.9671L44.2336 7.39547H44.3669C44.6334 6.98657 44.9569 6.67563 45.3396 6.46263C45.7212 6.24964 46.2326 6.14258 46.8715 6.14258H49.2167V8.62102H47.1119C46.2234 8.62102 45.5401 8.86135 45.0594 9.34086C44.5799 9.82037 44.3396 10.5049 44.3396 11.3933V19.5485H41.7017V19.5473Z" fill="#666666"/>
<path d="M53.5349 18.9198C52.5223 18.3253 51.7261 17.4984 51.1498 16.4414C50.5723 15.3844 50.2842 14.1805 50.2842 12.8308C50.2842 11.4811 50.5723 10.3034 51.1498 9.24641C51.7273 8.18943 52.5223 7.36366 53.5349 6.76797C54.5474 6.17342 55.675 5.875 56.9188 5.875C58.1626 5.875 59.2856 6.17228 60.2902 6.76797C61.2936 7.36366 62.0841 8.18943 62.6627 9.24641C63.2402 10.3034 63.5283 11.4982 63.5283 12.8308C63.5283 14.1634 63.239 15.3856 62.6627 16.4414C62.0852 17.4984 61.2948 18.3253 60.2902 18.9198C59.2867 19.5155 58.1626 19.8128 56.9188 19.8128C55.675 19.8128 54.5474 19.5155 53.5349 18.9198ZM58.9314 16.8013C59.5442 16.4277 60.0282 15.8947 60.3836 15.2022C60.739 14.5097 60.9166 13.7192 60.9166 12.8308C60.9166 11.9424 60.739 11.1565 60.3836 10.472C60.0282 9.78857 59.5442 9.25894 58.9314 8.88649C58.3186 8.5129 57.6477 8.32724 56.9188 8.32724C56.1898 8.32724 55.5201 8.51404 54.9062 8.88649C54.2934 9.26008 53.8093 9.78857 53.454 10.472C53.0986 11.1565 52.9209 11.9424 52.9209 12.8308C52.9209 13.7192 53.0986 14.5097 53.454 15.2022C53.8093 15.8947 54.2934 16.4277 54.9062 16.8013C55.519 17.1749 56.1898 17.3606 56.9188 17.3606C57.6477 17.3606 58.3175 17.1738 58.9314 16.8013Z" fill="#666666"/>
<path d="M78.4521 19.5481H66.6191V0.892578H69.4176V16.8828H78.4521V19.5481Z" fill="#666666"/>
<path d="M83.4891 3.60859H80.6108V0.943359H83.4891V3.60859ZM83.3558 19.5453H80.7179V6.14057H83.3558V19.5453Z" fill="#666666"/>
<path d="M86.9263 19.5463V6.14152H89.1917L89.4582 7.52767H89.5915C89.9286 7.10169 90.4446 6.71899 91.1371 6.38185C91.8296 6.04471 92.6292 5.875 93.5358 5.875C94.5655 5.875 95.4858 6.11077 96.2945 6.58117C97.1031 7.05271 97.7341 7.71333 98.1863 8.56643C98.6396 9.41954 98.8663 10.3968 98.8663 11.4982V19.5463H96.2284V11.7112C96.2284 10.7522 95.9174 9.95258 95.2956 9.31247C94.6737 8.67236 93.9003 8.35344 92.9777 8.35344C92.3558 8.35344 91.7829 8.50493 91.259 8.80676C90.735 9.10973 90.3216 9.51749 90.0198 10.0323C89.7168 10.5483 89.5664 11.1075 89.5664 11.7112V19.5463H86.9285H86.9263Z" fill="#666666"/>
<path d="M105.154 19.5481H102.517V0.892578H105.154V12.246L110.672 6.14332H113.87L107.847 12.6993L114.137 19.5481H110.938L105.154 13.1789V19.5481Z" fill="#666666"/>
<path d="M123.251 19.5481H120.452V3.55781H114.589V0.892578H129.087V3.55781H123.251V19.5481Z" fill="#666666"/>
<path d="M134.551 19.5481H131.752V0.892578H134.551V19.5481Z" fill="#666666"/>
<path d="M142.291 18.5869C140.932 17.7702 139.852 16.6324 139.053 15.1756C138.253 13.7188 137.854 12.0661 137.854 10.2187C137.854 8.37127 138.253 6.71859 139.053 5.26183C139.852 3.80506 140.932 2.66835 142.291 1.85055C143.65 1.0339 145.156 0.625 146.808 0.625C148.23 0.625 149.517 0.914303 150.673 1.49177C151.828 2.06924 152.791 2.85514 153.565 3.85062C154.338 4.84609 154.875 5.95547 155.176 7.18216H152.272C151.881 6.02723 151.201 5.08984 150.233 4.37C149.265 3.65016 148.124 3.29023 146.808 3.29023C145.689 3.29023 144.658 3.57954 143.717 4.15587C142.775 4.73333 142.029 5.55113 141.479 6.60811C140.928 7.66509 140.653 8.869 140.653 10.2198C140.653 11.5707 140.929 12.7746 141.479 13.8304C142.029 14.8874 142.775 15.7052 143.717 16.2827C144.659 16.8602 145.69 17.1483 146.808 17.1483C148.158 17.1483 149.313 16.7793 150.273 16.0424C151.233 15.3054 151.898 14.3327 152.272 13.1243H155.176C154.875 14.3863 154.342 15.523 153.577 16.5355C152.813 17.5481 151.854 18.3477 150.699 18.9343C149.544 19.5208 148.247 19.8136 146.808 19.8136C145.156 19.8136 143.65 19.4047 142.291 18.588V18.5869Z" fill="#666666"/>
<path d="M96.494 24.5779C96.4681 24.3479 96.3612 24.1697 96.1733 24.0434C95.9855 23.9155 95.749 23.8515 95.464 23.8515C95.2599 23.8515 95.0834 23.8839 94.9344 23.9487C94.7854 24.0118 94.6696 24.0993 94.587 24.211C94.506 24.3212 94.4655 24.4467 94.4655 24.5876C94.4655 24.7058 94.4931 24.8078 94.5481 24.8937C94.6048 24.9795 94.6785 25.0516 94.7692 25.1099C94.8615 25.1666 94.9603 25.2143 95.0656 25.2532C95.1708 25.2904 95.2721 25.3212 95.3692 25.3455L95.8551 25.4718C96.0138 25.5107 96.1766 25.5633 96.3434 25.6297C96.5102 25.6961 96.6649 25.7836 96.8074 25.8921C96.9499 26.0006 97.0649 26.135 97.1523 26.2954C97.2414 26.4557 97.286 26.6476 97.286 26.8711C97.286 27.1529 97.2131 27.4031 97.0673 27.6218C96.9232 27.8404 96.7134 28.0129 96.4381 28.1392C96.1644 28.2655 95.8332 28.3287 95.4445 28.3287C95.0721 28.3287 94.7498 28.2696 94.4777 28.1514C94.2056 28.0331 93.9926 27.8655 93.8388 27.6485C93.6849 27.4299 93.5999 27.1707 93.5837 26.8711H94.3368C94.3514 27.0509 94.4097 27.2007 94.5117 27.3205C94.6153 27.4388 94.7473 27.527 94.9077 27.5853C95.0696 27.642 95.247 27.6704 95.4397 27.6704C95.6518 27.6704 95.8405 27.6372 96.0057 27.5707C96.1725 27.5027 96.3037 27.4088 96.3993 27.289C96.4948 27.1675 96.5426 27.0258 96.5426 26.8638C96.5426 26.7164 96.5005 26.5958 96.4163 26.5019C96.3337 26.4079 96.2211 26.3302 96.0786 26.2686C95.9377 26.2071 95.7782 26.1528 95.6 26.1059L95.0121 25.9455C94.6137 25.837 94.2979 25.6775 94.0647 25.467C93.8331 25.2564 93.7173 24.9779 93.7173 24.6313C93.7173 24.3446 93.7951 24.0944 93.9505 23.8806C94.106 23.6669 94.3165 23.5009 94.5821 23.3826C94.8477 23.2628 95.1474 23.2029 95.481 23.2029C95.8178 23.2029 96.115 23.262 96.3725 23.3802C96.6317 23.4984 96.8357 23.6612 96.9847 23.8685C97.1337 24.0742 97.2115 24.3106 97.2179 24.5779H96.494ZM101.55 24.8426C101.503 24.6953 101.44 24.5633 101.36 24.4467C101.283 24.3284 101.19 24.228 101.081 24.1454C100.973 24.0612 100.849 23.9973 100.709 23.9535C100.572 23.9098 100.42 23.8879 100.255 23.8879C99.975 23.8879 99.7223 23.96 99.4972 24.1041C99.2721 24.2483 99.094 24.4596 98.9628 24.7382C98.8332 25.0151 98.7684 25.3544 98.7684 25.7561C98.7684 26.1593 98.834 26.5002 98.9652 26.7788C99.0964 27.0574 99.2762 27.2687 99.5045 27.4128C99.7329 27.557 99.9928 27.6291 100.284 27.6291C100.555 27.6291 100.79 27.574 100.991 27.4639C101.194 27.3537 101.35 27.1983 101.46 26.9974C101.572 26.795 101.628 26.5569 101.628 26.2832L101.822 26.3197H100.398V25.7002H102.354V26.2662C102.354 26.6841 102.265 27.0468 102.087 27.3545C101.91 27.6606 101.666 27.8971 101.353 28.0639C101.042 28.2307 100.686 28.3141 100.284 28.3141C99.8341 28.3141 99.4389 28.2105 99.0988 28.0032C98.7603 27.7959 98.4964 27.5019 98.3069 27.1213C98.1174 26.7391 98.0226 26.2857 98.0226 25.7609C98.0226 25.3641 98.0777 25.0078 98.1878 24.692C98.298 24.3762 98.4526 24.1082 98.6518 23.8879C98.8526 23.6661 99.0883 23.4968 99.3588 23.3802C99.6308 23.262 99.928 23.2029 100.25 23.2029C100.519 23.2029 100.769 23.2426 101.001 23.3219C101.234 23.4013 101.441 23.5138 101.623 23.6596C101.806 23.8053 101.957 23.9786 102.077 24.1795C102.197 24.3787 102.278 24.5997 102.32 24.8426H101.55ZM104.918 28.2461H103.307V23.2709H104.969C105.456 23.2709 105.875 23.3705 106.225 23.5697C106.574 23.7673 106.842 24.0515 107.029 24.4224C107.217 24.7916 107.31 25.2346 107.31 25.7512C107.31 26.2695 107.216 26.7148 107.026 27.0873C106.838 27.4598 106.566 27.7465 106.21 27.9473C105.854 28.1465 105.423 28.2461 104.918 28.2461ZM104.058 27.5902H104.876C105.255 27.5902 105.57 27.5189 105.821 27.3764C106.072 27.2323 106.26 27.0242 106.385 26.7521C106.51 26.4784 106.572 26.1448 106.572 25.7512C106.572 25.3609 106.51 25.0297 106.385 24.7576C106.262 24.4855 106.078 24.2791 105.833 24.1382C105.589 23.9973 105.285 23.9268 104.922 23.9268H104.058V27.5902ZM108.244 28.2461V23.2709H111.363V23.9171H108.995V25.433H111.2V26.0767H108.995V27.5999H111.392V28.2461H108.244ZM112.786 28.2461H111.989L113.78 23.2709H114.647L116.437 28.2461H115.641L114.234 24.1746H114.195L112.786 28.2461ZM112.92 26.2978H115.504V26.9294H112.92V26.2978Z" fill="#006AFF"/>
</svg>
