<svg xmlns="http://www.w3.org/2000/svg" width="40" height="41" viewBox="0 0 40 41" fill="none"><path d="M31.7099 20.5V30.5C31.7099 31.42 30.9632 32.1667 30.0432 32.1667C29.1232 32.1667 28.3765 31.42 28.3765 30.5V20.5C28.3765 19.58 29.1232 18.8333 30.0432 18.8333C30.9632 18.8333 31.7099 19.58 31.7099 20.5ZM19.3432 11.695L24.4615 30.0767C24.7532 31.1267 23.9649 32.1667 22.8732 32.1667C22.1349 32.1667 21.4882 31.6767 21.2865 30.9667L20.2149 27.1667H11.5382L10.4665 30.9667C10.2665 31.6767 9.61821 32.1667 8.87988 32.1667C7.78988 32.1667 6.99988 31.1267 7.29155 30.0767L12.4432 11.5633C12.6782 10.55 13.3449 9.69667 14.2732 9.22167C15.2199 8.735 16.3065 8.705 17.3382 9.13833C18.3165 9.54833 19.0665 10.5 19.3449 11.6967L19.3432 11.695ZM19.2749 23.8333L16.0599 12.4417C16.0115 12.2517 15.7415 12.2517 15.6949 12.4417L12.4799 23.8333H19.2749ZM38.3782 17.1667C37.4582 17.1667 36.7115 17.9133 36.7115 18.8333V32.1667C36.7115 34.9233 34.4682 37.1667 31.7115 37.1667H8.37655C5.61988 37.1667 3.37655 34.9233 3.37655 32.1667V8.83333C3.37655 6.07667 5.61988 3.83333 8.37655 3.83333H21.7099C22.6299 3.83333 23.3765 3.08667 23.3765 2.16667C23.3765 1.24667 22.6299 0.5 21.7099 0.5H8.37655C3.78155 0.5 0.0432129 4.23833 0.0432129 8.83333V32.1667C0.0432129 36.7617 3.78155 40.5 8.37655 40.5H31.7099C36.3049 40.5 40.0432 36.7617 40.0432 32.1667V18.8333C40.0432 17.9133 39.2965 17.1667 38.3765 17.1667H38.3782ZM26.9615 9.13333L30.0749 10.445L31.3165 13.5533C31.5849 14.2267 32.2365 14.6667 32.9615 14.6667C33.6865 14.6667 34.3365 14.225 34.6065 13.5533L35.8415 10.4633L38.9315 9.22833C39.6049 8.96 40.0449 8.30833 40.0449 7.58333C40.0449 6.85833 39.6032 6.20833 38.9315 5.93833L35.8415 4.70333L34.6065 1.61333C34.3349 0.941667 33.6832 0.5 32.9599 0.5C32.2365 0.5 31.5849 0.941667 31.3149 1.61333L30.0865 4.685L27.0199 5.84667C26.3432 6.10333 25.8899 6.74667 25.8765 7.47C25.8632 8.195 26.2932 8.85333 26.9599 9.135L26.9615 9.13333Z" fill="#006AFF"></path></svg>