<svg xmlns="http://www.w3.org/2000/svg" width="40" height="41" viewBox="0 0 40 41" fill="none"><g clip-path="url(#clip0_3742_9278)"><path d="M30 15.607C30.0002 14.9366 29.8678 14.2728 29.6104 13.6538C29.3529 13.0348 28.9755 12.4728 28.5 12.0003C27.5268 11.0717 26.2334 10.5537 24.8883 10.5537C23.5432 10.5537 22.2498 11.0717 21.2766 12.0003L1.49997 31.782C0.597339 32.7499 0.10571 34.0304 0.128701 35.3536C0.151693 36.6769 0.687508 37.9395 1.62322 38.8754C2.55893 39.8114 3.82146 40.3475 5.1447 40.3708C6.46795 40.3941 7.74856 39.9027 8.71664 39.0003L28.5 19.2187C28.9763 18.7457 29.3541 18.1829 29.6116 17.563C29.869 16.9431 30.0011 16.2783 30 15.607ZM6.35997 36.647C6.02305 36.9681 5.57544 37.1473 5.10997 37.1473C4.64451 37.1473 4.1969 36.9681 3.85997 36.647C3.529 36.3152 3.34313 35.8656 3.34313 35.397C3.34313 34.9283 3.529 34.4788 3.85997 34.147L16.8083 21.197L19.3166 23.7053L6.35997 36.647ZM26.1466 16.8603L21.6666 21.342L19.1666 18.8337L23.6483 14.3537C23.8081 14.1712 24.0036 14.0234 24.2228 13.9195C24.442 13.8157 24.6802 13.7579 24.9226 13.7499C25.165 13.7418 25.4065 13.7837 25.6321 13.8728C25.8577 13.9618 26.0626 14.0963 26.2341 14.2678C26.4056 14.4393 26.5401 14.6442 26.6292 14.8698C26.7183 15.0954 26.7601 15.3369 26.7521 15.5794C26.744 15.8218 26.6863 16.06 26.5824 16.2792C26.4786 16.4984 26.3308 16.6939 26.1483 16.8537L26.1466 16.8603ZM8.10497 5.25866L10.6883 4.52199L11.425 1.93866C11.5436 1.52413 11.7941 1.15952 12.1384 0.899959C12.4827 0.640396 12.9021 0.5 13.3333 0.5C13.7645 0.5 14.1839 0.640396 14.5282 0.899959C14.8725 1.15952 15.123 1.52413 15.2416 1.93866L15.9783 4.52199L18.5616 5.25866C18.9762 5.37733 19.3408 5.62776 19.6003 5.97206C19.8599 6.31636 20.0003 6.73581 20.0003 7.16699C20.0003 7.59817 19.8599 8.01763 19.6003 8.36193C19.3408 8.70623 18.9762 8.95665 18.5616 9.07532L15.9783 9.81199L15.2416 12.3953C15.123 12.8098 14.8725 13.1745 14.5282 13.434C14.1839 13.6936 13.7645 13.834 13.3333 13.834C12.9021 13.834 12.4827 13.6936 12.1384 13.434C11.7941 13.1745 11.5436 12.8098 11.425 12.3953L10.6883 9.81199L8.10497 9.07532C7.69045 8.95665 7.32583 8.70623 7.06627 8.36193C6.80671 8.01763 6.66631 7.59817 6.66631 7.16699C6.66631 6.73581 6.80671 6.31636 7.06627 5.97206C7.32583 5.62776 7.69045 5.37733 8.10497 5.25866ZM38.5616 29.0753L35.9783 29.812L35.2416 32.3953C35.123 32.8098 34.8725 33.1745 34.5282 33.434C34.1839 33.6936 33.7645 33.834 33.3333 33.834C32.9021 33.834 32.4827 33.6936 32.1384 33.434C31.7941 33.1745 31.5436 32.8098 31.425 32.3953L30.6883 29.812L28.105 29.0753C27.6904 28.9566 27.3258 28.7062 27.0663 28.3619C26.8067 28.0176 26.6663 27.5982 26.6663 27.167C26.6663 26.7358 26.8067 26.3164 27.0663 25.9721C27.3258 25.6278 27.6904 25.3773 28.105 25.2587L30.6883 24.522L31.425 21.9387C31.5436 21.5241 31.7941 21.1595 32.1384 20.9C32.4827 20.6404 32.9021 20.5 33.3333 20.5C33.7645 20.5 34.1839 20.6404 34.5282 20.9C34.8725 21.1595 35.123 21.5241 35.2416 21.9387L35.9783 24.522L38.5616 25.2587C38.9762 25.3773 39.3408 25.6278 39.6003 25.9721C39.8599 26.3164 40.0003 26.7358 40.0003 27.167C40.0003 27.5982 39.8599 28.0176 39.6003 28.3619C39.3408 28.7062 38.9762 28.9566 38.5616 29.0753ZM29.5916 4.66699L31.8516 4.02199L32.5 1.75866C32.6055 1.39835 32.8249 1.08194 33.1254 0.856847C33.4259 0.631748 33.7912 0.510083 34.1666 0.510083C34.5421 0.510083 34.9074 0.631748 35.2079 0.856847C35.5084 1.08194 35.7278 1.39835 35.8333 1.75866L36.4783 4.01866L38.7383 4.66366C39.0986 4.76918 39.415 4.98861 39.6401 5.28909C39.8652 5.58956 39.9869 5.95489 39.9869 6.33032C39.9869 6.70576 39.8652 7.07109 39.6401 7.37156C39.415 7.67204 39.0986 7.89147 38.7383 7.99699L36.4783 8.64199L35.8333 10.907C35.7278 11.2673 35.5084 11.5837 35.2079 11.8088C34.9074 12.0339 34.5421 12.1556 34.1666 12.1556C33.7912 12.1556 33.4259 12.0339 33.1254 11.8088C32.8249 11.5837 32.6055 11.2673 32.5 10.907L31.855 8.64866L29.5916 8.00032C29.2313 7.89481 28.9149 7.67537 28.6898 7.3749C28.4647 7.07442 28.3431 6.7091 28.3431 6.33366C28.3431 5.95822 28.4647 5.59289 28.6898 5.29242C28.9149 4.99195 29.2313 4.77251 29.5916 4.66699Z" fill="#006AFF"></path></g><defs><clipPath id="clip0_3742_9278"><rect width="40" height="40" fill="white" transform="translate(0 0.5)"></rect></clipPath></defs></svg>