<svg width="120" height="30" viewBox="0 0 120 30" fill="none" xmlns="http://www.w3.org/2000/svg">
<path d="M33.2314 21.3983L34.1772 21.3163C35.1996 21.2124 35.1996 21.0812 35.1996 17.8776V8.74224C35.1996 5.53858 35.1996 5.40737 34.1772 5.3035L33.2314 5.2215V4.64746H40.0816C42.5745 4.64746 46.4616 5.04108 46.4616 9.37094C46.4616 12.9682 42.4707 14.6083 40.005 14.6083H39.5349V14.0179C40.6666 14.0179 43.6843 13.4712 43.6843 9.52948C43.6843 6.45703 41.6069 5.51125 39.2451 5.51125C38.6926 5.52588 38.143 5.59732 37.605 5.72446V17.8885C37.605 21.0922 37.605 21.2234 39.0483 21.3272L39.9941 21.4093V21.956H33.2314V21.3983Z" fill="#FF7500"/>
<path d="M46.2373 15.111C46.2373 10.5515 49.7635 7.7251 53.8419 7.7251C57.7234 7.7251 60.9982 10.1962 60.9982 14.8814C60.9982 19.5666 57.6196 22.2892 53.4373 22.2892C49.2551 22.2892 46.2373 19.6705 46.2373 15.111ZM53.8419 21.5949C57.4282 21.5949 58.7622 18.5115 58.7622 15.4281C58.7622 11.4427 56.7777 8.41941 53.4647 8.41941C50.2993 8.41941 48.4405 11.06 48.4405 14.7119C48.4569 19.0199 50.6546 21.5949 53.8419 21.5949Z" fill="#FF7500"/>
<path d="M67.3832 13.9743C69.0233 14.9255 70.7836 15.8112 70.7836 18.3479C70.7836 21.1962 68.1431 22.295 65.9071 22.295C64.7449 22.3377 63.5949 22.0454 62.5941 21.4531C62.1388 20.2669 61.9089 19.0061 61.9162 17.7356L62.5941 17.5661C62.8237 19.0859 63.6055 21.6007 66.4975 21.6007C66.8446 21.6234 67.1924 21.5707 67.5172 21.4462C67.842 21.3218 68.136 21.1286 68.379 20.8798C68.6221 20.631 68.8084 20.3326 68.9253 20.005C69.0422 19.6775 69.0868 19.3285 69.0561 18.982C69.0561 17.4403 67.7713 16.3852 66.1258 15.6472L64.77 14.9091C64.1064 14.5729 63.543 14.068 63.1361 13.4453C62.7293 12.8225 62.4933 12.1038 62.4519 11.3611C62.4519 8.7861 64.6059 7.70911 66.8255 7.70911C67.8385 7.67924 68.842 7.91083 69.7394 8.38155C69.8876 9.34561 69.9571 10.3201 69.9472 11.2955H69.4005C69.1873 10.2403 68.8538 8.40341 66.4647 8.40341C66.1602 8.39513 65.8572 8.449 65.5742 8.56173C65.2912 8.67447 65.0342 8.8437 64.8188 9.0591C64.6034 9.27449 64.4342 9.53153 64.3214 9.81452C64.2087 10.0975 64.1548 10.4005 64.1631 10.705C64.1631 11.9515 65.0706 12.6239 66.2132 13.3018L67.3832 13.9743Z" fill="#FF7500"/>
<path d="M70.8555 21.5076L71.6154 21.4474C72.4354 21.36 72.4354 21.2561 72.4354 18.6811V11.328C72.4354 8.75309 72.4354 8.64922 71.6154 8.56175L70.8555 8.50161V8.04785H75.9835V8.51255L75.2236 8.57268C74.3981 8.66015 74.3981 8.76403 74.3981 11.339V18.6811C74.3981 21.2561 74.3981 21.36 75.2236 21.4474L75.9835 21.5076V21.9723H70.8555V21.5076Z" fill="#FF7500"/>
<path d="M80.1599 21.5076L80.9362 21.4474C82.1007 21.36 82.1007 21.2561 82.1007 18.6811V8.63282H81.0073C78.0278 8.63282 77.9895 8.9499 77.5248 11.3991H77.0164C77.0164 11.3116 76.9727 10.7431 76.9727 10.4697C76.98 9.65737 77.0568 8.84712 77.2023 8.04785H88.9618C89.1042 8.84937 89.181 9.66118 89.1914 10.4752C89.1914 10.7485 89.1531 11.3171 89.1531 11.4046H88.6447C88.18 8.95537 88.1363 8.63829 85.1622 8.63829H84.0688V18.6811C84.0688 21.2561 84.0688 21.36 85.2497 21.4474L86.0096 21.5076V21.9723H80.1599V21.5076Z" fill="#FF7500"/>
<path d="M89.9346 21.5076L90.689 21.4474C91.5145 21.36 91.5145 21.2561 91.5145 18.6811V11.328C91.5145 8.75309 91.5145 8.64922 90.689 8.56175L89.9346 8.50161V8.04785H95.0626V8.51255L94.3027 8.57268C93.4772 8.66015 93.4772 8.76403 93.4772 11.339V18.6811C93.4772 21.2561 93.4772 21.36 94.3027 21.4474L95.0626 21.5076V21.9723H89.9346V21.5076Z" fill="#FF7500"/>
<path d="M97.5336 10.1964C97.2165 9.4146 96.9869 8.63282 96.2871 8.55628L95.6748 8.49614V8.04785H100.929V8.51255L100.278 8.57268C99.9391 8.61642 99.3268 8.67656 99.3268 9.11938C99.3918 9.40782 99.4833 9.68965 99.6001 9.9613L103.252 19.3809C103.739 18.1126 107.052 9.90116 107.052 9.24512C107.052 8.82416 106.631 8.69842 106.232 8.65469L105.28 8.52895V8.04785H109.84V8.51255L109.293 8.63829C109.052 8.68396 108.831 8.80223 108.659 8.97724C108.194 9.44193 107.516 11.4647 106.991 12.4816L105.554 15.9422C104.351 18.8561 103.296 21.4092 103.104 21.9559C102.882 22.0954 102.641 22.2022 102.388 22.273L97.5336 10.1964Z" fill="#FF7500"/>
<path d="M105.21 21.5074L105.609 21.4472C106.413 21.3215 106.522 21.0864 107.025 19.8618L111.399 9.17932C111.568 8.75836 111.738 8.3374 111.907 7.93284L112.519 7.7251L117.226 19.9493C117.543 20.7912 117.773 21.2778 118.32 21.3816L119.167 21.5074V21.9721H113.93V21.5074L114.881 21.3379C115.258 21.2778 115.537 21.1739 115.537 20.9388C115.514 20.7859 115.47 20.6369 115.406 20.496L113.93 16.5051C113.156 16.361 112.371 16.2896 111.584 16.2919C110.851 16.3021 110.119 16.3734 109.398 16.5051L108.304 19.4409C108.114 19.8966 107.973 20.3713 107.883 20.8568C107.883 21.2559 108.157 21.3215 108.386 21.3379L109.655 21.5074V21.9721H105.221L105.21 21.5074ZM109.644 15.7014C110.278 15.6632 110.934 15.5976 111.563 15.5976C112.24 15.5911 112.917 15.6258 113.591 15.7014L111.65 10.5953L109.644 15.7014Z" fill="#FF7500"/>
<path d="M45.7512 27.4064C45.7121 27.869 45.6014 28.3227 45.4231 28.7513C44.9016 28.9592 44.3445 29.0632 43.783 29.0574C42.2632 29.0574 40.8418 28.3522 40.8418 26.3239C40.8418 24.2082 42.542 23.5904 43.794 23.5904C44.3586 23.5652 44.9211 23.6758 45.4341 23.913C45.5112 24.2982 45.5497 24.6901 45.5489 25.0829L45.3357 25.1321C45.3228 24.9456 45.2723 24.7635 45.1874 24.5969C45.1024 24.4303 44.9846 24.2826 44.8412 24.1626C44.6977 24.0426 44.5315 23.9528 44.3525 23.8987C44.1735 23.8445 43.9854 23.8271 43.7994 23.8474C42.4983 23.8474 41.6837 24.7002 41.6837 26.1873C41.6837 27.5431 42.3343 28.795 43.7776 28.795C45.0897 28.795 45.2919 27.9914 45.5379 27.3572L45.7512 27.4064Z" fill="#FF7500"/>
<path d="M46.0075 26.8656C46.0013 26.5673 46.0562 26.2708 46.1689 25.9945C46.2816 25.7182 46.4496 25.4678 46.6626 25.2589C46.8757 25.0499 47.1292 24.8868 47.4077 24.7795C47.6861 24.6722 47.9836 24.6231 48.2818 24.6351C48.5719 24.6144 48.8632 24.6558 49.136 24.7566C49.4089 24.8574 49.6571 25.0153 49.8641 25.2197C50.0711 25.4241 50.2321 25.6703 50.3363 25.9419C50.4406 26.2134 50.4857 26.5041 50.4686 26.7945C50.4756 27.0943 50.421 27.3923 50.308 27.67C50.195 27.9478 50.0261 28.1993 49.8118 28.409C49.5975 28.6187 49.3423 28.7821 49.0622 28.889C48.782 28.9959 48.4829 29.0441 48.1834 29.0305C47.8932 29.0515 47.6019 29.01 47.3291 28.9088C47.0563 28.8076 46.8085 28.649 46.6022 28.4438C46.396 28.2386 46.2362 27.9915 46.1336 27.7193C46.031 27.447 45.988 27.1559 46.0075 26.8656ZM48.2818 28.8228C49.3752 28.8228 49.7743 27.8934 49.7743 26.9585C49.7743 25.7558 49.1784 24.8428 48.1724 24.8428C47.1665 24.8428 46.6581 25.641 46.6581 26.7453C46.68 28.0465 47.3415 28.8228 48.2818 28.8228Z" fill="#FF7500"/>
<path d="M50.8242 28.8228L50.9828 28.7845C51.0541 28.7774 51.1222 28.751 51.1796 28.708C51.2854 28.3684 51.3352 28.0139 51.3272 27.6583L51.4311 26.051C51.4311 25.6191 51.4967 24.9303 51.4967 24.7554L51.6716 24.7007C51.8629 25.0287 53.3117 27.7786 53.514 28.1285C53.7163 27.8059 55.1541 25.0834 55.2689 24.7554L55.4329 24.7007C55.4329 24.7499 55.4766 25.4661 55.5204 26.3025L55.5805 27.3959C55.5857 27.8177 55.6259 28.2382 55.7008 28.6533C55.7291 28.6904 55.7654 28.7204 55.8071 28.7413C55.8488 28.7621 55.8947 28.7732 55.9413 28.7736L56.1327 28.8119V28.954H54.4926V28.8228L54.7386 28.7845C55.0119 28.7517 55.0393 28.6533 55.0393 28.3581C55.0393 27.6529 54.9299 26.3134 54.9299 25.9034C54.8206 26.1822 54.17 27.4342 53.5413 28.6752C53.5085 28.7408 53.4812 28.8173 53.4484 28.8829L53.2734 28.9649C53.1313 28.6697 52.3222 27.1171 51.8793 26.2752C51.8192 26.1549 51.7591 26.0292 51.7099 25.9034C51.7099 26.2697 51.6005 28.0902 51.6005 28.2706C51.6005 28.6479 51.6005 28.7517 51.9012 28.7845L52.1527 28.8228V28.9649H50.8242V28.8228Z" fill="#FF7500"/>
<path d="M56.4277 28.8225H56.6573C56.9034 28.7952 56.9034 28.7624 56.9034 27.9861V25.7227C56.9034 24.9464 56.9034 24.9136 56.6573 24.8863H56.4277V24.7441H58.0678C58.6747 24.7441 59.6204 24.8425 59.6204 25.8922C59.6204 26.7615 58.6473 27.1605 58.0514 27.1605H57.9421V27.0184C58.0831 27.0233 58.2236 26.9977 58.3538 26.9432C58.484 26.8888 58.6009 26.8068 58.6964 26.703C58.792 26.5991 58.8639 26.4758 58.9074 26.3415C58.9508 26.2072 58.9647 26.0652 58.948 25.925C58.948 25.1815 58.445 24.9519 57.8546 24.9519C57.722 24.9544 57.5901 24.9709 57.461 25.0011V27.9533C57.461 28.7296 57.461 28.7624 57.8109 28.7897H58.0405V28.9319H56.4004L56.4277 28.8225Z" fill="#FF7500"/>
<path d="M59.2764 28.8222H59.3966C59.6427 28.7839 59.6755 28.7129 59.8285 28.3411L61.1515 25.1156C61.2062 24.9898 61.2554 24.8586 61.3046 24.7384L61.4905 24.6782L62.9119 28.3684C63.0103 28.6254 63.0705 28.7675 63.2399 28.8003L63.4914 28.8386V28.9807H61.9115V28.8222L62.1957 28.773C62.316 28.773 62.398 28.7238 62.398 28.6527C62.3904 28.6059 62.3775 28.56 62.3597 28.5161L61.9115 27.3133C61.6789 27.2697 61.4428 27.2477 61.2062 27.2477C60.9806 27.2506 60.7557 27.2725 60.5338 27.3133L60.2112 28.199C60.1531 28.3363 60.1091 28.4791 60.08 28.6254C60.08 28.7457 60.162 28.7675 60.2331 28.773L60.6158 28.8222V28.9643H59.2764V28.8222ZM60.6158 27.0728C60.8071 27.0728 61.0039 27.04 61.1953 27.04C61.3999 27.0371 61.6045 27.0481 61.8076 27.0728L61.2226 25.5256L60.6158 27.0728Z" fill="#FF7500"/>
<path d="M63.376 28.8223H63.6056C63.8571 28.8223 63.9008 28.6036 63.9008 27.9147V24.7275L64.0484 24.6728C64.5951 25.3452 66.4594 27.297 67.1537 27.9803V25.7935C67.1537 25.0938 67.1537 24.9188 66.8038 24.886H66.5687V24.7439H67.9628V24.886H67.7386C67.5036 24.886 67.4598 25.1047 67.4598 25.7935V28.9371L67.3231 28.9917C67.181 28.8441 66.7764 28.445 66.1204 27.7453L64.207 25.7225V27.871C64.207 28.5708 64.207 28.7457 64.5404 28.7785H64.7701V28.9207H63.3924L63.376 28.8223ZM64.781 24.1808C64.8575 24.055 65.0871 23.6341 65.4261 23.6341C65.5848 23.6483 65.74 23.689 65.8853 23.7544C66.0376 23.829 66.2028 23.8735 66.3719 23.8856C66.5523 23.8856 66.6726 23.6833 66.7272 23.6177L66.8092 23.6942C66.7382 23.8473 66.5523 24.2409 66.2024 24.2409C65.8525 24.2409 65.4698 23.9894 65.2512 23.9894C65.0325 23.9894 64.9341 24.1862 64.8685 24.2682L64.781 24.1808Z" fill="#FF7500"/>
<path d="M68.2422 28.8225H68.4718C68.7233 28.7952 68.7233 28.7624 68.7233 27.9861V25.7227C68.7233 24.9464 68.7233 24.9136 68.4718 24.8863H68.2422V24.7441H69.7948V24.8863H69.5652C69.3137 24.9136 69.3137 24.9464 69.3137 25.7227V27.9423C69.3137 28.7186 69.3137 28.7514 69.5652 28.7788H69.7948V28.9209H68.2422V28.8225Z" fill="#FF7500"/>
<path d="M69.8057 28.8222H69.9259C70.1665 28.7839 70.1993 28.7129 70.3524 28.3411L71.6808 25.1156C71.73 24.9898 71.7792 24.8586 71.8339 24.7384L72.0198 24.6782L73.4412 28.3684C73.5342 28.6254 73.5998 28.7675 73.7638 28.8003L74.0207 28.8386V28.9807H72.4408V28.8222L72.725 28.773C72.8398 28.773 72.9219 28.7238 72.9219 28.6527C72.9168 28.6053 72.9039 28.5592 72.8836 28.5161L72.4408 27.3133C72.2063 27.2701 71.9684 27.2481 71.73 27.2477C71.5062 27.2503 71.2831 27.2723 71.0631 27.3133L70.7351 28.199C70.6776 28.336 70.6354 28.4791 70.6093 28.6254C70.6093 28.7457 70.6913 28.7675 70.7624 28.773L71.1451 28.8222V28.9643H69.8057V28.8222ZM71.1451 27.0728C71.3364 27.0728 71.5332 27.04 71.7246 27.04C71.9292 27.0373 72.1337 27.0482 72.3369 27.0728L71.7519 25.5256L71.1451 27.0728Z" fill="#FF7500"/>
<path d="M75.4365 28.8226H75.6279C75.8356 28.8226 75.8356 28.7733 75.8356 28.1282V26.2749C75.8356 25.6298 75.8356 25.6025 75.6279 25.5806H75.4365V25.4658H77.1696C78.3012 25.4658 78.9791 26.0563 78.9791 27.1059C78.9791 28.4781 77.9568 28.9756 76.8525 28.9756H75.4365V28.8226ZM76.3276 28.6859C76.5253 28.7301 76.7266 28.7558 76.929 28.7624C77.8912 28.7624 78.427 28.2157 78.427 27.1989C78.4561 26.9877 78.4364 26.7726 78.3693 26.5702C78.3023 26.3678 78.1897 26.1835 78.0403 26.0314C77.8909 25.8793 77.7086 25.7636 77.5074 25.693C77.3062 25.6224 77.0915 25.599 76.8798 25.6244C76.6968 25.6301 76.5142 25.6465 76.3331 25.6736L76.3276 28.6859Z" fill="#FF7500"/>
<path d="M79.3781 28.8226H79.5695C79.7717 28.8226 79.7717 28.7733 79.7717 28.1282V26.2749C79.7717 25.6298 79.7717 25.6025 79.5695 25.5806H79.3781V25.4658H81.6305C81.6678 25.6457 81.688 25.8288 81.6907 26.0125C81.6907 26.1328 81.6907 26.1765 81.6907 26.2257H81.5649C81.4501 25.679 81.4392 25.5806 80.6902 25.5806H80.2528V27.0348H80.723C81.1385 27.0348 81.2314 27.0348 81.2697 26.8107L81.297 26.6303H81.4337V27.5815H81.297L81.2697 27.4011C81.2369 27.1879 81.144 27.1825 80.723 27.1825H80.2528V28.7023C80.4414 28.7444 80.6337 28.7682 80.8269 28.7733C81.6688 28.7733 81.7235 28.4563 81.8273 28.0244H81.9585C81.9439 28.3243 81.8868 28.6206 81.7891 28.9046H79.3672L79.3781 28.8226Z" fill="#FF7500"/>
<path d="M85.7309 25.9306C86.3596 26.286 87.0101 26.6195 87.0101 27.5707C87.0101 28.6641 86.0152 29.0523 85.1787 29.0523C84.7416 29.0666 84.3094 28.9566 83.9322 28.7352C83.7629 28.2882 83.6777 27.8137 83.6807 27.3357L83.9322 27.2755C84.0197 27.8222 84.3149 28.7899 85.3974 28.7899C85.5264 28.7965 85.6554 28.7755 85.7756 28.7283C85.8959 28.6811 86.0047 28.6088 86.0947 28.5161C86.1848 28.4235 86.254 28.3127 86.2978 28.1911C86.3416 28.0696 86.3589 27.9401 86.3486 27.8113C86.3486 27.2646 85.8675 26.8382 85.2552 26.5593L84.7468 26.2805C84.4962 26.1567 84.2831 25.9683 84.1294 25.7349C83.9756 25.5014 83.8868 25.2312 83.8721 24.952C83.8721 23.9844 84.6812 23.5798 85.5122 23.5798C85.8923 23.5671 86.2692 23.6538 86.6056 23.8313C86.6632 24.1929 86.6906 24.5586 86.6876 24.9247H86.4908C86.4088 24.5256 86.283 23.8313 85.3974 23.8313C85.2831 23.8283 85.1695 23.8486 85.0633 23.8909C84.9571 23.9333 84.8607 23.9968 84.7799 24.0776C84.6991 24.1584 84.6356 24.2549 84.5932 24.361C84.5509 24.4672 84.5306 24.5808 84.5336 24.6951C84.5336 25.1598 84.8726 25.4167 85.299 25.6682L85.7309 25.9306Z" fill="#FF7500"/>
<path d="M87.3982 28.8225H87.6278C87.8739 28.7952 87.8739 28.7624 87.8739 27.9861V25.7227C87.8739 24.9464 87.8739 24.9136 87.6278 24.8863H87.3982V24.7441H90.1317C90.1774 24.9673 90.2012 25.1943 90.2028 25.422C90.2028 25.5697 90.2028 25.6189 90.2028 25.6735H90.0497C89.9076 24.9902 89.8967 24.8972 88.9946 24.8972H88.4479V26.6357H88.9946C89.4921 26.6357 89.6069 26.6357 89.6452 26.3733L89.678 26.1546H89.842V27.3027H89.678L89.6452 27.084C89.6069 26.8216 89.4921 26.8161 88.9946 26.8161H88.4479V28.653C88.6781 28.7018 88.9124 28.7293 89.1477 28.735C90.1591 28.735 90.2411 28.3524 90.3504 27.833H90.509C90.4878 28.1943 90.418 28.551 90.3012 28.8936H87.3818L87.3982 28.8225Z" fill="#FF7500"/>
<path d="M94.8606 28.7131C94.3515 28.9061 93.8139 29.0132 93.2697 29.0302C91.985 29.0302 90.8369 28.4835 90.8369 26.8434C90.8369 25.2033 92.2091 24.6566 93.2151 24.6566C93.6628 24.6409 94.1081 24.7288 94.5162 24.9135C94.5838 25.2243 94.6186 25.5413 94.6201 25.8593L94.4506 25.8976C94.4437 25.7458 94.4051 25.5971 94.3375 25.4611C94.2699 25.325 94.1747 25.2045 94.058 25.1073C93.9412 25.0101 93.8054 24.9382 93.6594 24.8964C93.5133 24.8546 93.3601 24.8436 93.2096 24.8643C92.1654 24.8643 91.5094 25.5532 91.5094 26.745C91.5094 27.8384 92.0561 28.8443 93.3135 28.8443C93.5636 28.8443 93.8129 28.8168 94.057 28.7623V28.5272C94.057 27.7454 94.057 27.7181 93.6141 27.6908H93.3845V27.5103H95.0246V27.647H94.795C94.6747 27.647 94.6747 27.7017 94.6747 28.3195C94.6747 28.5108 94.6747 28.5491 94.7731 28.5491H94.8388L94.8606 28.7131Z" fill="#FF7500"/>
<path d="M98.7811 28.8225C98.6936 28.7296 98.6444 28.6421 98.546 28.6421C98.094 28.8841 97.5931 29.0205 97.0808 29.0412C95.7633 29.0412 95.6539 28.2868 95.6539 27.4011V25.7227C95.6539 24.9464 95.6539 24.9136 95.4025 24.8863H95.1729V24.7441H96.7255V24.8863H96.4959C96.2444 24.9136 96.2444 24.9464 96.2444 25.7227V27.3027C96.2444 28.2157 96.3975 28.8225 97.387 28.8225C97.6044 28.8252 97.8199 28.7812 98.0189 28.6935C98.2179 28.6058 98.3958 28.4764 98.5405 28.3141V25.7227C98.5405 24.9464 98.5405 24.9136 98.2945 24.8863H98.0649V24.7441H99.612V24.8863H99.3824C99.1364 24.9136 99.1364 24.9464 99.1364 25.7227V28.9373L98.9451 28.992L98.7811 28.8225Z" fill="#FF7500"/>
<path d="M99.9395 28.8225H100.169C100.415 28.7952 100.415 28.7624 100.415 27.9861V25.7227C100.415 24.9464 100.415 24.9136 100.169 24.8863H99.9395V24.7441H101.58C102.186 24.7441 103.039 24.8316 103.039 25.8047C103.007 26.0504 102.908 26.2824 102.753 26.4754C102.598 26.6683 102.392 26.8146 102.159 26.8981C102.257 27.0731 102.465 27.4831 102.635 27.7893C102.809 28.1467 103.051 28.4677 103.345 28.735C103.445 28.7803 103.553 28.801 103.662 28.7952V28.9373H103.176C102.982 28.9191 102.796 28.8478 102.64 28.7311C102.484 28.6144 102.363 28.4568 102.29 28.2758L102.033 27.7893C101.929 27.5709 101.796 27.367 101.64 27.1824C101.521 27.1138 101.383 27.0851 101.246 27.1004H101.011V27.9423C101.011 28.7186 101.011 28.7514 101.252 28.7788H101.481V28.9209H99.9395V28.8225ZM101.033 26.9528H101.394C101.532 26.9641 101.671 26.9447 101.8 26.8961C101.93 26.8475 102.047 26.7708 102.144 26.6716C102.241 26.5723 102.314 26.453 102.359 26.322C102.404 26.1911 102.42 26.0518 102.405 25.9141C102.418 25.7816 102.401 25.6479 102.356 25.5227C102.311 25.3975 102.238 25.2841 102.143 25.1908C102.048 25.0974 101.934 25.0265 101.808 24.9833C101.682 24.9401 101.548 24.9256 101.416 24.941C101.283 24.9432 101.151 24.9597 101.022 24.9902L101.033 26.9528Z" fill="#FF7500"/>
<path d="M103.592 26.8657C103.585 26.5654 103.641 26.267 103.755 25.9892C103.869 25.7113 104.039 25.4599 104.254 25.2506C104.47 25.0413 104.726 24.8787 105.007 24.7728C105.288 24.6669 105.588 24.62 105.888 24.6351C106.176 24.6176 106.464 24.6614 106.734 24.7637C107.004 24.866 107.249 25.0245 107.454 25.2286C107.658 25.4327 107.816 25.6779 107.919 25.9479C108.021 26.2178 108.065 26.5064 108.047 26.7946C108.059 27.0952 108.008 27.3949 107.897 27.6746C107.786 27.9542 107.618 28.2075 107.403 28.4181C107.188 28.6288 106.932 28.7921 106.65 28.8976C106.368 29.0031 106.068 29.0484 105.767 29.0306C105.477 29.0516 105.186 29.0101 104.913 28.9088C104.64 28.8076 104.392 28.649 104.186 28.4438C103.98 28.2386 103.82 27.9916 103.718 27.7193C103.615 27.447 103.572 27.1559 103.592 26.8657ZM105.888 28.8228C106.981 28.8228 107.38 27.8935 107.38 26.9586C107.38 25.7559 106.779 24.8429 105.778 24.8429C104.778 24.8429 104.258 25.6411 104.258 26.7454C104.258 28.0465 104.925 28.8228 105.888 28.8228Z" fill="#FF7500"/>
<path d="M110.125 26.521C110.633 26.8053 111.152 27.0677 111.152 27.8386C111.152 28.7024 110.354 29.0304 109.682 29.0304C109.331 29.0439 108.984 28.9566 108.681 28.7789C108.544 28.4214 108.473 28.0414 108.474 27.6582L108.681 27.6035C108.683 27.9199 108.806 28.2236 109.026 28.4508C109.246 28.6781 109.546 28.8114 109.862 28.8226C109.964 28.8253 110.066 28.8064 110.16 28.7672C110.255 28.728 110.34 28.6693 110.41 28.595C110.48 28.5208 110.534 28.4325 110.567 28.3361C110.601 28.2397 110.614 28.1372 110.606 28.0354C110.606 27.5707 110.218 27.2536 109.72 27.0295L109.316 26.8053C109.111 26.7033 108.937 26.5479 108.813 26.3555C108.689 26.1631 108.619 25.9407 108.61 25.7119C108.61 24.9302 109.261 24.6185 109.939 24.6185C110.245 24.609 110.548 24.6787 110.819 24.8208C110.864 25.1121 110.886 25.4063 110.885 25.701H110.721C110.655 25.3839 110.557 24.8263 109.835 24.8263C109.743 24.8261 109.651 24.8448 109.566 24.8813C109.481 24.9177 109.405 24.9711 109.342 25.0382C109.278 25.1052 109.229 25.1845 109.197 25.2713C109.165 25.358 109.152 25.4503 109.157 25.5425C109.157 25.9197 109.43 26.122 109.775 26.3297L110.125 26.521Z" fill="#FF7500"/>
<path d="M14.5507 0.191896C11.7064 0.190814 8.92582 1.0333 6.5605 2.61278C4.19518 4.19226 2.35145 6.43777 1.26252 9.06526C0.173591 11.6928 -0.111606 14.5842 0.443005 17.3738C0.997616 20.1634 2.36712 22.7258 4.37827 24.737C6.38943 26.7481 8.95188 28.1177 11.7415 28.6723C14.5311 29.2269 17.4225 28.9417 20.05 27.8527C22.6775 26.7638 24.923 24.9201 26.5025 22.5548C28.082 20.1894 28.9245 17.4088 28.9234 14.5646C28.9234 12.6772 28.5516 10.8082 27.8293 9.06441C27.107 7.32064 26.0483 5.7362 24.7137 4.40157C23.3791 3.06694 21.7946 2.00825 20.0509 1.28595C18.3071 0.563657 16.4381 0.191896 14.5507 0.191896ZM14.3484 6.16185C14.8238 6.52353 15.2749 6.91619 15.6987 7.33725C15.7917 7.41926 15.8791 7.52313 16.2071 7.40832C16.8796 7.20605 18.4267 6.44613 19.5311 6.34773C19.6962 6.29841 19.872 6.29743 20.0377 6.3449C20.2034 6.39238 20.352 6.48632 20.4659 6.61561C20.9464 7.00302 21.4028 7.41928 21.8327 7.86208C21.2416 7.91456 20.6552 8.00957 20.0778 8.14637L19.9575 8.1737C19.7922 8.20691 19.6385 8.28298 19.5119 8.39428C19.3852 8.50558 19.29 8.64821 19.2359 8.80787C19.2147 8.89005 19.2037 8.9745 19.2031 9.05936C19.2074 9.27424 19.2823 9.48173 19.4163 9.64979C19.6284 9.97563 19.8113 10.3196 19.963 10.6776C19.0345 10.9638 18.122 11.2996 17.2295 11.6835C17.0699 11.7464 16.9274 11.846 16.8134 11.9743C16.6994 12.1025 16.6172 12.2557 16.5734 12.4216C16.5673 12.4852 16.5673 12.5493 16.5734 12.6129C16.5761 12.8978 16.6898 13.1705 16.8905 13.3728C17.9909 14.7566 18.5833 16.476 18.5689 18.2439C18.5689 18.7119 18.5231 19.1789 18.4322 19.638C17.9894 21.8248 16.5133 23.4977 14.0586 24.602C12.8258 25.1196 11.4892 25.3423 10.1552 25.2526H10.3739C12.8504 24.9519 14.5944 24.0936 15.7971 21.9724C17.4372 19.0202 16.1962 15.412 13.7033 13.3345C12.9688 12.7769 12.194 12.2744 11.3853 11.8311C11.1885 11.7163 11.0791 11.5414 11.3251 11.2352C11.9495 10.337 12.7008 9.53411 13.5557 8.85161C13.7907 8.6876 13.6869 8.55093 13.5885 8.41972C13.2228 8.10671 12.8315 7.82508 12.4185 7.5778C12.1506 7.44659 12.0413 7.30445 12.249 7.11311C12.7115 6.68221 13.2513 6.34275 13.8399 6.11265C13.9196 6.06811 14.011 6.04896 14.1019 6.05775C14.1927 6.06654 14.2787 6.10286 14.3484 6.16185ZM4.99435 8.7204C5.30589 8.0937 5.67176 7.49551 6.08775 6.9327C6.13091 6.86729 6.19479 6.81826 6.26913 6.79348C6.34348 6.7687 6.424 6.76959 6.49777 6.79602C6.90233 6.86709 7.59117 7.16778 8.54789 7.42472C8.62035 7.45822 8.7023 7.46507 8.7793 7.44406C8.85631 7.42306 8.92344 7.37556 8.96885 7.30992C9.87006 6.37975 10.9582 5.6512 12.1616 5.17232C12.2739 5.12793 12.3944 5.1079 12.515 5.11356C12.6356 5.11921 12.7537 5.15042 12.8614 5.20513C13.0746 5.30353 13.3042 5.4074 13.5775 5.54408C12.9928 5.78928 12.4547 6.13325 11.9866 6.56094C11.8817 6.65196 11.7976 6.7645 11.7401 6.89091C11.6826 7.01732 11.6529 7.15463 11.6531 7.29352C11.65 7.33355 11.65 7.37376 11.6531 7.41379C11.6871 7.58581 11.762 7.74713 11.8714 7.88414C11.9808 8.02115 12.1216 8.12984 12.2818 8.20104C12.5006 8.32993 12.7123 8.47045 12.916 8.62199C12.1819 9.267 11.5317 10.0017 10.9807 10.8088C10.8708 10.9317 10.789 11.077 10.7409 11.2346C10.6927 11.3923 10.6794 11.5585 10.7019 11.7218C10.7326 11.8791 10.7974 12.0277 10.8919 12.1571C10.9864 12.2865 11.1081 12.3936 11.2486 12.4708L11.6422 12.7058C12.2829 13.0588 12.8952 13.4609 13.4737 13.9086C15.5948 15.6635 16.9397 18.8726 15.3926 21.6225C14.3538 23.4649 12.8504 24.4161 10.5215 24.7004C9.71464 24.7968 8.89689 24.7412 8.11054 24.5364C8.42777 24.577 8.74746 24.5953 9.06726 24.5911C10.8222 24.5911 12.6645 23.9569 13.6213 22.448C16.0158 18.6813 13.2659 14.7942 9.53742 13.5478C8.44402 13.2044 7.32265 12.9574 6.18615 12.8097C5.78706 12.7605 5.68866 12.6348 5.8144 12.356C6.23027 11.4444 6.7203 10.5686 7.27955 9.73726C7.31782 9.68259 7.27955 9.55138 7.14835 9.50765C6.51739 9.32466 5.87677 9.17682 5.22943 9.06482C4.98342 9.03202 4.89048 8.91721 4.99435 8.7204ZM16.5242 27.505C14.1828 27.9 11.7779 27.6468 9.57016 26.7727C7.36238 25.8987 5.43587 24.4371 3.99936 22.5464C5.90187 24.3888 9.13833 27.3847 14.0477 25.1159C21.193 21.9232 19.0883 14.7997 17.1201 12.7168C17.0722 12.6844 17.0344 12.6391 17.0111 12.5862C16.9878 12.5332 16.98 12.4747 16.9886 12.4175C16.9971 12.3603 17.0218 12.3067 17.0596 12.2629C17.0974 12.2191 17.1468 12.1869 17.2021 12.1701C18.2491 11.7186 19.3248 11.3369 20.4222 11.0275C20.5589 10.9892 20.5862 10.9236 20.5151 10.7541C20.3284 10.1576 20.0578 9.59064 19.7115 9.07029C19.5311 8.87348 19.6131 8.7532 19.8154 8.704C20.4575 8.54254 21.1123 8.43646 21.7725 8.38692C21.8484 8.37069 21.9275 8.37826 21.9989 8.40859C22.0703 8.43891 22.1306 8.49053 22.1716 8.55639C22.4971 9.1498 22.7574 9.77669 22.9479 10.4261C22.9695 10.4824 23.0048 10.5324 23.0506 10.5716C23.0965 10.6107 23.1514 10.6378 23.2104 10.6503C24.3952 10.6582 25.5784 10.7404 26.753 10.8963C26.8179 10.9112 26.8788 10.94 26.9316 10.9805C26.9844 11.0211 27.0279 11.0725 27.0591 11.1313C27.3325 11.9569 27.9448 15.9423 26.1899 20.1519C24.2272 24.9956 20.3074 26.9255 16.5242 27.505Z" fill="#FF7500"/>
</svg>
