<svg width="120" height="31" viewBox="0 0 120 31" fill="none" xmlns="http://www.w3.org/2000/svg">
<path fill-rule="evenodd" clip-rule="evenodd" d="M37.1177 16.7456C37.1506 16.6257 37.181 16.505 37.2097 16.3835C37.2097 16.3818 37.2105 16.3793 37.2114 16.3776C37.4249 15.4695 37.5304 14.5024 37.5076 13.4804C37.4941 12.8846 37.4359 12.2702 37.3304 11.639C37.3304 11.6373 37.3304 11.6356 37.3295 11.6339C37.327 11.617 37.3236 11.6002 37.3211 11.5841C37.3211 11.5875 37.3219 11.59 37.3228 11.5934C37.3228 11.5934 37.3228 11.5926 37.3228 11.5917C37.3169 11.5588 37.311 11.525 37.3051 11.4921C37.2992 11.4601 37.2932 11.4272 37.2873 11.3951C37.2797 11.3546 37.2713 11.3132 37.2637 11.2727C37.2426 11.1647 37.2198 11.0558 37.1962 10.9461C37.1928 10.9301 37.1894 10.914 37.1852 10.8972C37.1717 10.8356 37.1574 10.774 37.143 10.7115C37.1329 10.6693 37.1228 10.6263 37.1126 10.5841C37.1017 10.5385 37.0907 10.4929 37.0789 10.4465C37.0553 10.3528 37.0299 10.2583 37.0046 10.1638C36.9886 10.2364 36.9726 10.3073 36.9557 10.3773C36.9506 10.4001 36.9447 10.422 36.9396 10.444C36.9278 10.4921 36.916 10.5393 36.9042 10.5866C36.8974 10.6119 36.8907 10.6372 36.8848 10.6617C36.873 10.7056 36.8612 10.7495 36.8493 10.7934C36.8426 10.8178 36.8358 10.8423 36.8291 10.8659C36.8156 10.9124 36.8021 10.9579 36.7886 11.0035C36.7827 11.0238 36.7768 11.0432 36.7709 11.0634C36.7506 11.1284 36.7312 11.1917 36.7101 11.255C36.7101 11.2567 36.7092 11.2575 36.7084 11.2592C36.6881 11.3208 36.6671 11.3807 36.6468 11.4407C36.64 11.4601 36.6333 11.4786 36.6265 11.498C36.6114 11.5402 36.5962 11.5816 36.581 11.6229C36.5725 11.644 36.5649 11.666 36.5565 11.6871C36.5413 11.7259 36.5261 11.7639 36.5109 11.8027C36.5025 11.8238 36.494 11.844 36.4856 11.8643C36.4687 11.9048 36.4519 11.9445 36.435 11.9841C36.4274 12.001 36.4206 12.0179 36.413 12.0348C36.3886 12.0905 36.3641 12.1453 36.3388 12.2002C36.3371 12.2036 36.3362 12.2061 36.3345 12.2086C36.3109 12.2593 36.2864 12.3099 36.262 12.3597C36.2535 12.3766 36.2451 12.3926 36.2367 12.4095C36.2189 12.4449 36.2004 12.4812 36.1818 12.5158C36.1725 12.5344 36.1624 12.5529 36.1523 12.5707C36.1345 12.6036 36.1168 12.6365 36.0991 12.6686C36.089 12.6863 36.0788 12.704 36.0696 12.7217C36.0501 12.7563 36.0299 12.7901 36.0105 12.8238C36.002 12.8382 35.9936 12.8525 35.9852 12.8669C35.9565 12.9141 35.9278 12.9614 35.8982 13.007C35.8957 13.0112 35.8932 13.0154 35.8906 13.0188C35.8636 13.0601 35.8375 13.1015 35.8096 13.142C35.7995 13.1572 35.7894 13.1715 35.7792 13.1859C35.759 13.2154 35.7387 13.245 35.7176 13.2745C35.7058 13.2905 35.6949 13.3066 35.683 13.3226C35.6628 13.3505 35.6425 13.3775 35.6223 13.4045C35.6105 13.4197 35.5995 13.4357 35.5877 13.4509C35.5657 13.4796 35.5438 13.5083 35.521 13.5361C35.5109 13.5488 35.5016 13.5614 35.4915 13.5733C35.4594 13.6129 35.4273 13.6526 35.3944 13.6906C35.3894 13.6965 35.3843 13.7015 35.3792 13.7074C35.3514 13.7403 35.3227 13.7724 35.2948 13.8045C35.283 13.818 35.2712 13.8306 35.2594 13.8433C35.2374 13.8678 35.2155 13.8914 35.1927 13.915C35.1792 13.9294 35.1657 13.9429 35.1522 13.9572C35.1303 13.98 35.1092 14.002 35.0872 14.0239C35.0737 14.0374 35.0602 14.0509 35.0467 14.0644C35.0231 14.0872 34.9995 14.11 34.9758 14.1328C34.964 14.1437 34.9522 14.1556 34.9404 14.1665C34.9058 14.1994 34.8703 14.2315 34.8349 14.2627C34.8265 14.2703 34.818 14.2771 34.8096 14.2847C34.7817 14.3092 34.7539 14.3336 34.7252 14.3573C34.7108 14.3691 34.6965 14.3809 34.6821 14.3927C34.6594 14.4113 34.6366 14.4298 34.6138 14.4484C34.5978 14.4611 34.5826 14.4737 34.5665 14.4855C34.5446 14.5033 34.5218 14.5201 34.499 14.537C34.483 14.5488 34.4678 14.5606 34.4518 14.5725C34.4281 14.5902 34.4036 14.6079 34.3792 14.6248C34.3648 14.6349 34.3505 14.6459 34.3361 14.656C34.299 14.6822 34.2619 14.7083 34.2239 14.7336C34.2112 14.7421 34.1986 14.7505 34.1859 14.7581C34.1598 14.7758 34.1327 14.7927 34.1066 14.8096C34.0897 14.8206 34.072 14.8315 34.0551 14.8417C34.0323 14.856 34.0104 14.8695 33.9876 14.883C33.9724 14.8923 33.9581 14.9007 33.9429 14.91C33.8872 14.9429 33.8315 14.975 33.7758 15.0062C33.7648 15.0121 33.753 15.018 33.742 15.0248C33.6838 15.056 33.6255 15.0873 33.5665 15.1176C33.5589 15.1219 33.5513 15.1252 33.5428 15.1294C33.4855 15.1581 33.4281 15.186 33.3707 15.213C33.3631 15.2164 33.3546 15.2206 33.3471 15.224C33.2871 15.2518 33.2272 15.278 33.1665 15.3041C33.1538 15.3092 33.142 15.3151 33.1293 15.3202C33.0702 15.3446 33.0112 15.3691 32.9521 15.3919C32.9378 15.3978 32.9243 15.4029 32.9099 15.4088C32.8508 15.4316 32.7918 15.4535 32.7318 15.4755C32.7175 15.4805 32.7031 15.4856 32.6896 15.4906C32.6289 15.5117 32.5681 15.5328 32.5073 15.5531C32.4955 15.5573 32.4829 15.5607 32.4711 15.5649C32.4095 15.5843 32.3478 15.6037 32.2862 15.6223C32.277 15.6248 32.2685 15.6274 32.2592 15.6299C32.1976 15.6485 32.136 15.6653 32.0744 15.6831C32.0618 15.6864 32.0499 15.6898 32.0373 15.6932C31.9748 15.7101 31.9124 15.7261 31.8491 15.7421C31.8339 15.7464 31.8179 15.7497 31.8027 15.754C31.7411 15.7691 31.6786 15.7843 31.617 15.7987C31.601 15.8021 31.5841 15.8063 31.5681 15.8096C31.5056 15.824 31.4432 15.8375 31.3807 15.851C31.3647 15.8544 31.3486 15.8578 31.3335 15.8611C31.2693 15.8746 31.2052 15.8873 31.141 15.9C31.1284 15.9025 31.1166 15.905 31.1039 15.9067C31.0431 15.9185 30.9824 15.9295 30.9216 15.9405C30.9098 15.9421 30.8988 15.9447 30.887 15.9464C30.822 15.9582 30.7562 15.9692 30.6904 15.9793C30.6743 15.9818 30.6583 15.9843 30.6423 15.9869C30.579 15.997 30.5157 16.0071 30.4524 16.0164C30.4338 16.0189 30.4153 16.0223 30.3959 16.0249C30.3334 16.0341 30.2718 16.0434 30.2093 16.0519C30.1899 16.0544 30.1705 16.0569 30.1511 16.0603C30.0887 16.0687 30.0262 16.0772 29.9638 16.0856C29.9452 16.0881 29.9266 16.0907 29.9081 16.0924C29.8498 16.1 29.7916 16.1076 29.7334 16.1143C29.7123 16.1168 29.6912 16.1194 29.6692 16.1219C29.6144 16.1287 29.5595 16.1354 29.5047 16.1413C29.4844 16.1438 29.4642 16.1464 29.4447 16.1481C29.3848 16.1548 29.3249 16.1616 29.2642 16.1683C29.2397 16.1708 29.2144 16.1742 29.1899 16.1768C29.135 16.1827 29.0793 16.1886 29.0245 16.1945C28.9907 16.1979 28.9578 16.2021 28.924 16.2055C28.8886 16.2088 28.854 16.213 28.8186 16.2164C28.4742 16.2527 28.1308 16.2882 27.789 16.3261C27.7822 16.3261 27.7755 16.3278 27.7687 16.3287C27.6953 16.3371 27.6227 16.3455 27.5493 16.354C27.5409 16.3548 27.5316 16.3557 27.5231 16.3574C27.4506 16.3658 27.378 16.3742 27.3054 16.3835C27.2987 16.3844 27.2911 16.3852 27.2843 16.386C27.21 16.3953 27.1349 16.4046 27.0607 16.4147C27.0598 16.4147 27.059 16.4147 27.0581 16.4147C26.9856 16.424 26.913 16.4342 26.8404 16.4443C26.8328 16.4451 26.8244 16.4468 26.8168 16.4477C26.7476 16.4578 26.6792 16.4679 26.61 16.478C26.6024 16.4789 26.5957 16.4797 26.5881 16.4814C26.5838 16.4814 26.5796 16.4831 26.5746 16.4831C26.502 16.4941 26.4303 16.5059 26.3585 16.5177C26.3459 16.5194 26.3332 16.5219 26.3205 16.5236C26.2497 16.5354 26.1796 16.5472 26.1096 16.5599C26.0961 16.5624 26.0826 16.565 26.0691 16.5675C25.9999 16.5802 25.9306 16.5937 25.8623 16.6072C25.8488 16.6097 25.8344 16.6131 25.8209 16.6156C25.7526 16.6291 25.6842 16.6434 25.6167 16.6586C25.6032 16.6612 25.5897 16.6645 25.5762 16.6679C25.5078 16.6831 25.4403 16.6983 25.3728 16.7152C25.3602 16.7186 25.3467 16.7211 25.334 16.7245C25.2665 16.7413 25.199 16.7582 25.1323 16.7759C25.1196 16.7793 25.1078 16.7827 25.0952 16.7861C25.0277 16.8046 24.961 16.8232 24.8943 16.8426C24.8833 16.846 24.8715 16.8494 24.8606 16.8527C24.793 16.873 24.7264 16.8932 24.6605 16.9152C24.6504 16.9186 24.6394 16.9219 24.6293 16.9253C24.5626 16.9473 24.496 16.97 24.4302 16.9937C24.4209 16.9971 24.4107 17.0004 24.4015 17.0038C24.3348 17.0283 24.2681 17.0528 24.2023 17.0789C24.1939 17.0823 24.1854 17.0857 24.177 17.089C24.1103 17.1152 24.0445 17.1431 23.9787 17.1717C23.9719 17.1751 23.9643 17.1777 23.9576 17.181C23.8909 17.2106 23.8251 17.2401 23.7592 17.2713C23.7533 17.2739 23.7474 17.2772 23.7415 17.2798C23.6748 17.3118 23.609 17.3447 23.544 17.3793C23.5398 17.3819 23.5347 17.3844 23.5305 17.3869C23.4647 17.4224 23.3989 17.4587 23.3339 17.4958C23.3305 17.4975 23.328 17.4992 23.3246 17.5009C23.2588 17.5397 23.193 17.5794 23.1288 17.6207C23.1271 17.6216 23.1254 17.6224 23.1238 17.6241C23.0579 17.6663 22.9929 17.7102 22.9288 17.7549C22.8554 17.8064 22.7828 17.8604 22.7119 17.9144C22.6883 17.9321 22.6655 17.9507 22.6427 17.9693C22.5955 18.0064 22.5482 18.0427 22.5026 18.0806C22.4756 18.1026 22.4495 18.1254 22.4233 18.1473C22.3819 18.1819 22.3406 18.2174 22.3001 18.2528C22.2731 18.2773 22.2461 18.3009 22.2191 18.3254C22.1802 18.3608 22.1423 18.3963 22.1043 18.4317C22.0781 18.457 22.052 18.4824 22.0258 18.5077C21.9887 18.544 21.9515 18.5811 21.9153 18.6182C21.8899 18.6435 21.8655 18.6697 21.8401 18.695C21.803 18.733 21.7676 18.7718 21.7313 18.8115C21.7085 18.8368 21.6849 18.8621 21.6621 18.8874C21.6241 18.9296 21.5878 18.9718 21.5507 19.0149C21.5304 19.0377 21.511 19.0613 21.4908 19.0841C21.4477 19.1356 21.4055 19.187 21.3633 19.2394C21.3515 19.2545 21.3389 19.2689 21.327 19.2841C21.273 19.3524 21.2199 19.4216 21.1675 19.4917C21.1608 19.501 21.1549 19.5094 21.1481 19.5187C21.1034 19.5795 21.0595 19.6402 21.0165 19.7018C21.0013 19.7238 20.9861 19.7466 20.9709 19.7685C20.9371 19.8174 20.9042 19.8664 20.8713 19.9153C20.8544 19.9415 20.8376 19.9677 20.8207 19.9938C20.7911 20.0402 20.7616 20.0867 20.7329 20.1331C20.716 20.1609 20.6992 20.1888 20.6823 20.2166C20.6544 20.2622 20.6274 20.3086 20.6004 20.3542C20.5835 20.382 20.5675 20.4107 20.5515 20.4386C20.5245 20.485 20.4983 20.5322 20.473 20.5795C20.4578 20.6074 20.4426 20.6352 20.4274 20.6631C20.4013 20.712 20.3751 20.761 20.3498 20.8107C20.3363 20.8369 20.3228 20.8622 20.3093 20.8884C20.2814 20.9424 20.2544 20.9973 20.2283 21.0521C20.2198 21.069 20.2114 21.0859 20.2029 21.1036C20.2012 21.1061 20.2004 21.1095 20.1987 21.1129C20.1439 21.226 20.0915 21.3399 20.0409 21.4538C20.0333 21.4715 20.0249 21.4893 20.0173 21.5078C19.9683 21.6192 19.9219 21.7298 19.8772 21.842C19.8696 21.8606 19.862 21.88 19.8544 21.8986C19.8097 22.0117 19.7658 22.1247 19.7244 22.2378C19.7202 22.2505 19.7151 22.2631 19.7109 22.275C19.6696 22.3889 19.6299 22.502 19.5919 22.6151C19.5894 22.6218 19.5869 22.6294 19.5852 22.6362C19.5472 22.7501 19.5109 22.864 19.4763 22.9771C19.4704 22.9957 19.4653 23.0134 19.4594 23.032C19.4265 23.1408 19.3953 23.2497 19.3649 23.3577C19.359 23.378 19.3539 23.3982 19.348 23.4176C19.3185 23.5256 19.2898 23.6328 19.2636 23.74C19.2594 23.756 19.2561 23.7721 19.2518 23.7873C19.224 23.8987 19.1978 24.0092 19.1725 24.1189C18.6813 21.9517 17.6374 19.3187 15.4162 17.7557C15.3748 17.7262 15.3326 17.6975 15.2896 17.6697C15.2778 17.6621 15.266 17.6536 15.2533 17.646C15.2196 17.6241 15.1858 17.6021 15.1512 17.581C15.1411 17.5751 15.131 17.5684 15.1217 17.5625C15.0786 17.5363 15.0356 17.511 14.9925 17.4857C14.9824 17.4798 14.9714 17.4739 14.9613 17.468C14.9267 17.4486 14.8921 17.4291 14.8575 17.4106C14.844 17.4038 14.8314 17.3962 14.8179 17.3895C14.7757 17.3667 14.7326 17.3447 14.6904 17.3236C14.687 17.322 14.6837 17.3203 14.6795 17.3186C14.6356 17.2966 14.5917 17.2755 14.5478 17.2553C14.5335 17.2485 14.5199 17.2426 14.5056 17.2359C14.4702 17.2198 14.4347 17.2038 14.3993 17.1878C14.3875 17.1827 14.3756 17.1768 14.3638 17.1717C14.3183 17.1523 14.2727 17.1329 14.2271 17.1144C14.2144 17.1093 14.2018 17.1042 14.1891 17.0992C14.1537 17.0848 14.1182 17.0713 14.0828 17.057C14.0676 17.0511 14.0524 17.0452 14.0364 17.0392C13.9942 17.0232 13.9511 17.0072 13.9081 16.992C13.9005 16.9895 13.8929 16.9861 13.8853 16.9835C13.8414 16.9675 13.7967 16.9523 13.752 16.938C13.7359 16.9329 13.7199 16.927 13.703 16.9219C13.6676 16.9101 13.6321 16.8992 13.5959 16.8882C13.5815 16.884 13.5672 16.8789 13.5528 16.8747C13.5056 16.8603 13.4583 16.846 13.4102 16.8325C13.3958 16.8283 13.3807 16.824 13.3663 16.8198C13.33 16.8097 13.2946 16.7996 13.2583 16.7894C13.2406 16.7844 13.2237 16.7802 13.206 16.7751C13.1638 16.7641 13.1224 16.7532 13.0802 16.7422C13.0676 16.7388 13.0549 16.7354 13.0422 16.7329C12.9984 16.7219 12.9536 16.711 12.9097 16.7008C12.8912 16.6966 12.8726 16.6924 12.854 16.6882C12.8194 16.6797 12.784 16.6721 12.7486 16.6645C12.7317 16.6612 12.7148 16.6569 12.6979 16.6536C12.6498 16.6434 12.6009 16.6333 12.5528 16.6232C12.535 16.6198 12.5173 16.6164 12.4996 16.6122C12.465 16.6055 12.4304 16.5987 12.3958 16.592C12.3755 16.5877 12.3561 16.5844 12.3359 16.5802C12.2962 16.5726 12.2565 16.5658 12.2169 16.5582C12.1966 16.5548 12.1772 16.5515 12.157 16.5472C12.1156 16.5396 12.0743 16.5329 12.0329 16.5261C12.0118 16.5228 11.9899 16.5194 11.9688 16.5152C11.9359 16.5101 11.9029 16.5042 11.87 16.4991C11.8498 16.4958 11.8295 16.4924 11.8084 16.4899C11.7603 16.4823 11.7122 16.4747 11.6633 16.4679C11.6422 16.4645 11.6211 16.462 11.6008 16.4586C11.5687 16.4536 11.5358 16.4493 11.5038 16.4451C11.481 16.4417 11.4573 16.4384 11.4346 16.4358C11.4 16.4308 11.3645 16.4266 11.3299 16.4215C11.2987 16.4173 11.2675 16.4131 11.2362 16.4088C11.2016 16.4046 11.167 16.3996 11.1324 16.3953C11.1071 16.392 11.081 16.3886 11.0556 16.386C11.0278 16.3827 10.9991 16.3793 10.9712 16.3759C10.9451 16.3725 10.9198 16.37 10.8936 16.3666C10.8489 16.3616 10.8033 16.3557 10.7577 16.3506C10.7274 16.3472 10.697 16.3439 10.6674 16.3405C10.6447 16.3379 10.6219 16.3354 10.5991 16.3329C10.5679 16.3295 10.5366 16.3261 10.5054 16.3228C10.4885 16.3211 10.4716 16.3194 10.4548 16.3168C10.0564 16.273 9.65557 16.2325 9.25555 16.1894C9.25302 16.1894 9.24964 16.1894 9.24711 16.1886C9.18972 16.1827 9.13149 16.1759 9.07411 16.1692C9.07073 16.1692 9.06651 16.1692 9.06314 16.1683C9.00406 16.1616 8.94414 16.1548 8.88507 16.1481C8.88 16.1481 8.8741 16.1464 8.86903 16.1464C8.8184 16.1405 8.76776 16.1346 8.71628 16.1287C8.70363 16.127 8.69181 16.1261 8.67915 16.1244C8.62261 16.1177 8.56691 16.1109 8.51037 16.1033C8.45467 16.0966 8.39897 16.089 8.34243 16.0814C8.32892 16.0797 8.31542 16.078 8.30192 16.0763C8.25719 16.0704 8.21246 16.0645 8.16773 16.0578C8.15507 16.0561 8.14242 16.0544 8.12976 16.0527C8.07575 16.0451 8.02089 16.0375 7.96688 16.0291C7.95591 16.0274 7.94494 16.0257 7.93397 16.024C7.89008 16.0173 7.84535 16.0105 7.80147 16.0038C7.78544 16.0012 7.77025 15.9987 7.75421 15.9962C7.70442 15.9886 7.65378 15.9801 7.60399 15.9717C7.59977 15.9717 7.59471 15.97 7.59049 15.9692C7.53732 15.9599 7.48415 15.9514 7.43183 15.9413C7.4158 15.9388 7.39976 15.9354 7.38373 15.9329C7.34322 15.9253 7.30271 15.9177 7.2622 15.9101C7.24786 15.9075 7.23351 15.905 7.21832 15.9016C7.166 15.8915 7.11452 15.8814 7.06219 15.8713C7.04953 15.8687 7.03687 15.8662 7.02422 15.8637C6.98371 15.8552 6.94236 15.8468 6.90185 15.8375C6.88497 15.8341 6.86809 15.8299 6.85121 15.8265C6.80564 15.8164 6.76091 15.8063 6.71534 15.7961C6.70774 15.7945 6.70015 15.7928 6.69255 15.7911C6.64192 15.7793 6.59044 15.7666 6.5398 15.754C6.52377 15.7497 6.50689 15.7455 6.49086 15.7413C6.45288 15.732 6.4149 15.7219 6.37777 15.7118C6.36258 15.7075 6.34654 15.7033 6.33135 15.6999C6.28156 15.6864 6.23261 15.6729 6.18282 15.6586C6.16932 15.6544 6.15582 15.651 6.14232 15.6468C6.10434 15.6358 6.06636 15.6248 6.02839 15.613C6.01151 15.608 5.99463 15.6029 5.97775 15.597C5.93555 15.5843 5.8942 15.5708 5.85285 15.5573C5.84441 15.5548 5.83513 15.5514 5.82584 15.5489C5.77774 15.5328 5.72879 15.5168 5.68069 15.4999C5.66465 15.494 5.64862 15.489 5.63259 15.4831C5.59714 15.4704 5.56085 15.4577 5.52541 15.4442C5.51022 15.4383 5.49503 15.4333 5.47983 15.4274C5.43258 15.4096 5.38531 15.3911 5.3389 15.3725C5.32624 15.3674 5.31274 15.3615 5.30008 15.3565C5.26379 15.3421 5.22835 15.3269 5.19206 15.3117C5.17602 15.305 5.15914 15.2974 5.14311 15.2906C5.10429 15.2738 5.06462 15.256 5.0258 15.2383C5.01736 15.2341 5.00808 15.2307 4.99964 15.2265C4.95407 15.2054 4.9085 15.1835 4.86293 15.1615C4.84774 15.1539 4.83254 15.1463 4.81651 15.1387C4.78275 15.1219 4.749 15.105 4.71608 15.0881C4.70174 15.0805 4.68739 15.0737 4.67304 15.0662C4.62832 15.0425 4.58443 15.0189 4.54055 14.9944C4.52873 14.9877 4.51692 14.9809 4.5051 14.9742C4.47135 14.9548 4.43674 14.9353 4.40299 14.9151C4.38695 14.9058 4.37007 14.8957 4.35404 14.8856C4.33041 14.8712 4.30678 14.8569 4.28315 14.8425C4.26712 14.8324 4.25024 14.8223 4.2342 14.8121C4.20551 14.7936 4.17766 14.775 4.14897 14.7564C4.138 14.7497 4.12702 14.7421 4.11605 14.7353C4.07808 14.71 4.0401 14.6839 4.00212 14.6568C3.98862 14.6476 3.97596 14.6383 3.96246 14.6282C3.93714 14.6096 3.91182 14.5919 3.88651 14.5725C3.87132 14.5615 3.85697 14.5497 3.84178 14.5387C3.81815 14.521 3.79536 14.5033 3.77173 14.4847C3.75654 14.4729 3.74219 14.4611 3.727 14.4492C3.70337 14.4298 3.67974 14.4104 3.65611 14.391C3.64261 14.38 3.62911 14.3691 3.61561 14.3573C3.58523 14.3319 3.55569 14.3066 3.52615 14.2805C3.5194 14.2746 3.51265 14.2686 3.5059 14.2627C3.46961 14.2307 3.43416 14.1986 3.39872 14.1657C3.38775 14.1556 3.37678 14.1446 3.3658 14.1345C3.34133 14.1108 3.31686 14.0872 3.29238 14.0636C3.27972 14.0509 3.26622 14.0374 3.25356 14.0248C3.23078 14.002 3.20883 13.9792 3.18689 13.9564C3.17423 13.9429 3.16073 13.9294 3.14807 13.9159C3.12529 13.8914 3.1025 13.8669 3.07971 13.8425C3.06874 13.8298 3.05693 13.818 3.04596 13.8053C3.01642 13.7724 2.98688 13.7387 2.95819 13.7049C2.95397 13.6998 2.94975 13.6956 2.94637 13.6906C2.91346 13.6517 2.88055 13.6121 2.84848 13.5724C2.8392 13.5606 2.82991 13.5488 2.82063 13.537C2.79784 13.5083 2.77506 13.4796 2.75227 13.45C2.7413 13.4348 2.72949 13.4205 2.71852 13.4053C2.69826 13.3775 2.67716 13.3496 2.65691 13.3218C2.64594 13.3066 2.63412 13.2905 2.62315 13.2745C2.60205 13.245 2.58096 13.2146 2.5607 13.1842C2.55142 13.1699 2.54129 13.1564 2.53201 13.142C2.50416 13.1007 2.47715 13.0593 2.45015 13.0171C2.44762 13.0137 2.44508 13.0104 2.4434 13.0061C2.41386 12.9597 2.38517 12.9133 2.35647 12.8652C2.34803 12.8517 2.33959 12.8373 2.332 12.823C2.31174 12.7892 2.29233 12.7546 2.27208 12.72C2.26195 12.7023 2.25267 12.6846 2.24254 12.6669C2.22482 12.634 2.20625 12.6019 2.18853 12.5681C2.1784 12.5496 2.16912 12.531 2.15899 12.5124C2.14043 12.477 2.1227 12.4415 2.10414 12.4061C2.0957 12.3892 2.08726 12.3732 2.07882 12.3563C2.05435 12.3065 2.02987 12.2567 2.00624 12.2052C2.00456 12.2019 2.00371 12.1993 2.00202 12.1968C1.97671 12.1428 1.95223 12.0879 1.92776 12.0322C1.92016 12.0154 1.91341 11.9985 1.90582 11.9816C1.88894 11.9419 1.87206 11.9023 1.85518 11.8626C1.84674 11.8415 1.8383 11.8213 1.82986 11.8002C1.81467 11.7622 1.79948 11.7242 1.78513 11.6862C1.7767 11.6643 1.76826 11.6432 1.76066 11.6213C1.74547 11.5807 1.73028 11.5394 1.71509 11.498C1.70834 11.4786 1.70074 11.4592 1.69399 11.4398C1.67289 11.3799 1.65264 11.32 1.63238 11.2584C1.63238 11.2567 1.63154 11.2558 1.6307 11.2541C1.6096 11.1917 1.59019 11.1276 1.56993 11.0626C1.56403 11.0423 1.55812 11.0221 1.55137 11.0018C1.53787 10.9571 1.52436 10.9115 1.5117 10.8659C1.50495 10.8415 1.4982 10.817 1.49145 10.7925C1.47963 10.7495 1.46782 10.7056 1.456 10.6609C1.44925 10.6356 1.4425 10.6102 1.43575 10.5849C1.42394 10.5377 1.41212 10.4904 1.40031 10.4431C1.39524 10.4203 1.38933 10.3984 1.38427 10.3756C1.36739 10.3056 1.35136 10.2338 1.33532 10.1621C1.30916 10.2558 1.28469 10.3495 1.26106 10.4431C1.2484 10.4921 1.23658 10.541 1.22477 10.59C1.21549 10.628 1.2062 10.6668 1.19692 10.7048C1.18089 10.7706 1.16654 10.8372 1.15135 10.9031C1.14966 10.9124 1.14713 10.9225 1.14544 10.9318C1.11675 11.0626 1.08974 11.1925 1.06527 11.3225C1.06105 11.3453 1.05683 11.3672 1.05261 11.39C1.04586 11.4255 1.03995 11.4609 1.0332 11.4964C1.02729 11.5276 1.02138 11.5596 1.01632 11.5909C1.01632 11.5909 1.01632 11.5917 1.01632 11.5926C1.01632 11.59 1.01632 11.5883 1.01716 11.5858C0.905766 12.2356 0.845003 12.8677 0.831501 13.4804C0.828125 13.6205 0.827281 13.7598 0.828969 13.8982C0.828969 13.8982 0.828969 13.8982 0.828969 13.899C0.840784 14.9075 0.979187 15.8603 1.22224 16.7532C1.67796 18.4258 2.50331 19.8866 3.55738 21.1011C3.56835 21.1137 3.58016 21.1272 3.59113 21.1399C3.7346 21.3036 3.88229 21.4631 4.03419 21.6184C4.04601 21.631 4.05867 21.6429 4.07048 21.6547C4.14137 21.7264 4.21226 21.7964 4.28484 21.8665C4.29075 21.8716 4.29581 21.8775 4.30172 21.8825C4.3802 21.9576 4.45953 22.0319 4.54055 22.1045C4.55152 22.1138 4.56165 22.123 4.57262 22.1332C4.64351 22.1965 4.7144 22.2598 4.78613 22.3214C4.79879 22.3323 4.81229 22.3442 4.82495 22.3551C4.90681 22.4243 4.98867 22.4927 5.07138 22.5602C5.07728 22.5644 5.08235 22.5686 5.08825 22.5737C5.16421 22.6345 5.241 22.6944 5.31865 22.7535C5.33637 22.767 5.35325 22.7805 5.37097 22.7931C5.41316 22.8243 5.45452 22.8564 5.49671 22.8868C5.49671 22.8868 5.49756 22.8868 5.4984 22.8876C5.62246 22.9788 5.74905 23.0682 5.87564 23.1543C5.89505 23.1678 5.9153 23.1813 5.93471 23.194C6.00813 23.2429 6.0824 23.2919 6.15666 23.3391C6.17016 23.3476 6.18282 23.356 6.19633 23.3645C6.28156 23.4185 6.36764 23.4716 6.45457 23.5231C6.47398 23.5349 6.49423 23.5467 6.51364 23.5586C6.58453 23.6008 6.65542 23.6413 6.72631 23.6818C6.74741 23.6936 6.76766 23.7054 6.78876 23.7172C6.87569 23.7653 6.96261 23.8126 7.05038 23.859C7.06557 23.8674 7.0816 23.875 7.09679 23.8826C7.17106 23.9214 7.24532 23.9594 7.32043 23.9957C7.34491 24.0075 7.36854 24.0193 7.39301 24.0312C7.48247 24.0742 7.57108 24.1172 7.66138 24.1577C12.0084 26.141 15.4635 26.5798 16.8391 28.8078C16.8517 28.8289 16.8644 28.85 16.877 28.8711C16.9133 28.9335 16.9496 28.996 16.9834 29.0609C17.0382 29.1673 17.0872 29.2761 17.1311 29.3867C17.2619 29.7175 17.3446 30.0635 17.3893 30.4146C17.4923 30.3943 17.591 30.3732 17.6855 30.3513C18.3784 30.191 18.8484 29.9943 19.1252 29.8542C19.2341 29.7994 19.3008 29.758 19.3455 29.7285C19.3953 29.758 19.4687 29.8011 19.5902 29.8601C19.8417 29.9825 20.224 30.1488 20.7093 30.3007C20.7743 29.872 20.8975 29.4525 21.0992 29.0609C21.1346 28.9926 21.1726 28.9259 21.2114 28.8609C21.2232 28.8407 21.2359 28.8204 21.2486 28.801C21.2781 28.7546 21.3076 28.709 21.3389 28.6635C21.3524 28.644 21.3659 28.6238 21.3802 28.6044C22.8655 26.5503 26.4606 26.0785 30.6727 24.1577C30.7638 24.1164 30.8549 24.0725 30.9461 24.0286C30.9697 24.0168 30.9934 24.0058 31.0161 23.994C31.0988 23.9535 31.1807 23.9113 31.2626 23.8691C31.2718 23.8641 31.2803 23.8598 31.2896 23.8548C31.3799 23.8075 31.4702 23.7577 31.5596 23.7079C31.5799 23.697 31.6001 23.6851 31.6204 23.6733C31.6997 23.6278 31.779 23.5822 31.8584 23.5349C31.8693 23.5282 31.8812 23.5214 31.8921 23.5147C31.9824 23.4607 32.0719 23.405 32.1613 23.3476C32.1757 23.3383 32.19 23.329 32.2044 23.3197C32.2854 23.2674 32.3664 23.2142 32.4457 23.1602C32.4559 23.1535 32.466 23.1467 32.4761 23.14C32.4837 23.1349 32.4922 23.1298 32.4998 23.1239C32.5825 23.0674 32.6643 23.0092 32.7453 22.9509C32.7512 22.9467 32.7572 22.9425 32.7631 22.9374C32.769 22.9332 32.7749 22.929 32.7808 22.9248C32.7977 22.9121 32.8145 22.9003 32.8314 22.8876C32.8939 22.8421 32.9555 22.7957 33.0162 22.7492C33.0238 22.7433 33.0323 22.7374 33.0399 22.7315C33.0601 22.7155 33.0812 22.7003 33.1015 22.6843C33.1032 22.6826 33.1048 22.6817 33.1065 22.68C33.2627 22.5585 33.4163 22.4319 33.5665 22.302C33.5715 22.2977 33.5766 22.2927 33.5825 22.2885C33.7564 22.1382 33.926 21.9821 34.0922 21.8218C34.0956 21.8192 34.0981 21.8159 34.1015 21.8133C34.2686 21.6504 34.4315 21.4817 34.5902 21.3087C34.591 21.3078 34.5918 21.3061 34.5935 21.3053C35.6552 20.139 36.5033 18.733 37.0055 17.1194C37.0055 17.1194 37.0055 17.1186 37.0055 17.1177C37.0426 16.9979 37.078 16.8764 37.1118 16.754C37.1126 16.7498 37.1143 16.7456 37.1152 16.7422L37.1177 16.7456ZM19.3489 29.7141C19.3362 29.7116 19.3227 29.7108 19.343 29.7108C19.3556 29.7108 19.3539 29.7116 19.3489 29.7141Z" fill="#6BC1BF"/>
<path fill-rule="evenodd" clip-rule="evenodd" d="M36.4981 17.9569C36.0711 18.5645 35.5555 19.1324 34.9343 19.6185C32.7866 21.2996 30.7367 21.6397 28.7374 21.9722C25.9567 22.4339 23.2764 22.8795 20.5851 26.959L20.4585 26.8763C23.1861 22.7411 25.8993 22.2904 28.7129 21.8229C30.6928 21.4937 32.7233 21.157 34.8407 19.4995C35.4483 19.0236 35.9538 18.4674 36.3732 17.8699C36.6965 17.4092 36.9682 16.9247 37.1952 16.4353C37.1994 16.4184 37.2045 16.4015 37.2079 16.3846C37.2079 16.3829 37.2087 16.3804 37.2096 16.3787C37.391 15.6057 37.494 14.7888 37.5066 13.933C37.1294 14.8251 36.5952 15.6065 35.969 16.285C34.9656 17.372 33.7292 18.1948 32.5393 18.7907C31.4211 19.3502 29.8311 19.654 28.2395 19.9586C26.3339 20.3232 24.4241 20.6886 23.3473 21.487C22.6958 21.9697 22.0569 22.6989 21.4991 23.6002C20.964 24.4652 20.5049 25.4889 20.1834 26.6071L20.0374 26.5657C20.3631 25.434 20.8281 24.3977 21.3699 23.5208C21.9379 22.6027 22.5903 21.86 23.257 21.3655C24.3617 20.546 26.2883 20.1772 28.2116 19.8093C29.794 19.5063 31.3738 19.2042 32.4718 18.6556C33.6474 18.0674 34.8677 17.2556 35.8576 16.1829C36.553 15.4293 37.1345 14.5457 37.5058 13.522C37.5058 13.5085 37.5058 13.4959 37.5058 13.4832C37.4923 12.9051 37.4366 12.3093 37.337 11.6983C37.1564 12.6384 36.7378 13.5094 36.1606 14.2689C35.2576 15.4572 33.9672 16.3745 32.5958 16.8648C31.6971 17.1855 30.5687 17.4066 29.3729 17.6412C26.9677 18.113 24.2891 18.6379 22.7109 20.13C20.3986 22.3174 19.8897 25.2138 19.6897 26.3556L19.677 26.4273L19.5277 26.4012L19.5403 26.3294C19.7429 25.1741 20.2577 22.2423 22.608 20.0203C24.2182 18.497 26.9196 17.967 29.3442 17.4919C30.5341 17.2589 31.6565 17.0387 32.5452 16.7214C33.8913 16.2403 35.1563 15.3415 36.0407 14.1769C36.6931 13.3187 37.137 12.3161 37.2543 11.2325C37.2357 11.138 37.2163 11.0426 37.1952 10.9472C37.1918 10.9312 37.1885 10.9152 37.1842 10.8983C37.1707 10.8367 37.1564 10.7751 37.142 10.7126C37.1319 10.6704 37.1218 10.6274 37.1117 10.5852C37.1007 10.5396 37.0897 10.494 37.0779 10.4476C37.0543 10.3539 37.029 10.2594 37.0036 10.1649C36.9876 10.2375 36.9716 10.3084 36.9547 10.3784C36.9496 10.4012 36.9437 10.4231 36.9387 10.4451C36.9268 10.4932 36.915 10.5405 36.9032 10.5877C36.8965 10.613 36.8897 10.6383 36.8838 10.6628C36.872 10.7067 36.8602 10.7506 36.8484 10.7945C36.8416 10.8189 36.8349 10.8434 36.8281 10.8671C36.8146 10.9135 36.8011 10.959 36.7876 11.0046C36.7817 11.0249 36.7758 11.0443 36.7699 11.0645C36.7496 11.1295 36.7302 11.1928 36.7091 11.2561C36.7091 11.2578 36.7083 11.2586 36.7074 11.2603C36.6872 11.3219 36.6661 11.3818 36.6458 11.4418C36.6391 11.4612 36.6323 11.4797 36.6256 11.4992C36.6104 11.5413 36.5952 11.5827 36.58 11.6241C36.5716 11.6451 36.564 11.6671 36.5555 11.6882C36.5403 11.727 36.5251 11.765 36.5099 11.8038C36.5015 11.8249 36.4931 11.8452 36.4846 11.8654C36.4678 11.9059 36.4509 11.9456 36.434 11.9853C36.4264 12.0021 36.4197 12.019 36.4121 12.0359C36.3876 12.0916 36.3631 12.1464 36.3378 12.2013C36.3361 12.2047 36.3353 12.2072 36.3336 12.2097C36.3099 12.2604 36.2855 12.311 36.261 12.3608C36.2526 12.3777 36.2441 12.3937 36.2357 12.4106C36.218 12.446 36.1994 12.4823 36.1808 12.5169C36.1715 12.5355 36.1614 12.5541 36.1513 12.5718C36.1336 12.6047 36.1158 12.6376 36.0981 12.6697C36.088 12.6874 36.0779 12.7051 36.0686 12.7228C36.0492 12.7574 36.0289 12.7912 36.0095 12.825C36.0011 12.8393 35.9926 12.8536 35.9842 12.868C35.9555 12.9153 35.9268 12.9625 35.8973 13.0081C35.8947 13.0123 35.8922 13.0165 35.8897 13.0199C35.8627 13.0613 35.8365 13.1026 35.8086 13.1431C35.7985 13.1583 35.7884 13.1727 35.7783 13.187C35.758 13.2165 35.7378 13.2461 35.7167 13.2756C35.7048 13.2916 35.6939 13.3077 35.6821 13.3237C35.6618 13.3516 35.6415 13.3786 35.6213 13.4056C35.6095 13.4208 35.5985 13.4368 35.5867 13.452C35.5648 13.4807 35.5428 13.5094 35.52 13.5372C35.5099 13.5499 35.5006 13.5625 35.4905 13.5744C35.4584 13.614 35.4263 13.6537 35.3934 13.6917C35.3884 13.6976 35.3833 13.7026 35.3782 13.7085C35.3504 13.7415 35.3217 13.7735 35.2939 13.8056C35.282 13.8191 35.2702 13.8318 35.2584 13.8444C35.2365 13.8689 35.2145 13.8925 35.1917 13.9161C35.1782 13.9305 35.1647 13.944 35.1512 13.9583C35.1293 13.9811 35.1082 14.0031 35.0862 14.025C35.0727 14.0385 35.0592 14.052 35.0457 14.0655C35.0221 14.0883 34.9985 14.1111 34.9748 14.1339C34.963 14.1449 34.9512 14.1567 34.9394 14.1676C34.9048 14.2006 34.8694 14.2326 34.8339 14.2638C34.8255 14.2714 34.817 14.2782 34.8086 14.2858C34.7808 14.3103 34.7529 14.3347 34.7242 14.3584C34.7099 14.3702 34.6955 14.382 34.6812 14.3938C34.6584 14.4124 34.6356 14.4309 34.6128 14.4495C34.5968 14.4622 34.5816 14.4748 34.5655 14.4866C34.5436 14.5044 34.5208 14.5212 34.498 14.5381C34.482 14.5499 34.4668 14.5618 34.4508 14.5736C34.4271 14.5913 34.4027 14.609 34.3782 14.6259C34.3638 14.636 34.3495 14.647 34.3352 14.6571C34.298 14.6833 34.2609 14.7094 34.2229 14.7348C34.2103 14.7432 34.1976 14.7516 34.1849 14.7592C34.1588 14.777 34.1318 14.7938 34.1056 14.8107C34.0887 14.8217 34.071 14.8327 34.0541 14.8428C34.0313 14.8571 34.0094 14.8706 33.9866 14.8841C33.9714 14.8934 33.9571 14.9019 33.9419 14.9111C33.8862 14.944 33.8305 14.9761 33.7748 15.0073C33.7638 15.0132 33.752 15.0192 33.741 15.0259C33.6828 15.0571 33.6246 15.0884 33.5655 15.1187C33.5579 15.123 33.5503 15.1263 33.5419 15.1306C33.4845 15.1592 33.4271 15.1871 33.3697 15.2141C33.3621 15.2175 33.3537 15.2217 33.3461 15.2251C33.2862 15.2529 33.2262 15.2791 33.1655 15.3052C33.1528 15.3103 33.141 15.3162 33.1283 15.3213C33.0693 15.3458 33.0102 15.3702 32.9511 15.393C32.9368 15.3989 32.9233 15.404 32.9089 15.4099C32.8498 15.4327 32.7908 15.4546 32.7309 15.4766C32.7165 15.4816 32.7022 15.4867 32.6887 15.4918C32.6279 15.5129 32.5671 15.534 32.5064 15.5542C32.4946 15.5584 32.4819 15.5618 32.4701 15.566C32.4085 15.5854 32.3469 15.6048 32.2853 15.6234C32.276 15.6259 32.2675 15.6285 32.2583 15.631C32.1967 15.6496 32.135 15.6664 32.0734 15.6842C32.0608 15.6875 32.049 15.6909 32.0363 15.6943C31.9739 15.7112 31.9114 15.7272 31.8481 15.7432C31.8329 15.7475 31.8169 15.7508 31.8017 15.7551C31.7401 15.7702 31.6776 15.7854 31.616 15.7998C31.6 15.8032 31.5831 15.8074 31.5671 15.8108C31.5046 15.8251 31.4422 15.8386 31.3797 15.8521C31.3637 15.8555 31.3477 15.8589 31.3325 15.8622C31.2683 15.8757 31.2042 15.8884 31.1401 15.9011C31.1274 15.9036 31.1156 15.9061 31.1029 15.9078C31.0422 15.9196 30.9814 15.9306 30.9206 15.9416C30.9088 15.9433 30.8979 15.9458 30.886 15.9475C30.8211 15.9593 30.7552 15.9703 30.6894 15.9804C30.6734 15.9829 30.6573 15.9855 30.6413 15.988C30.578 15.9981 30.5147 16.0082 30.4514 16.0175C30.4329 16.0201 30.4143 16.0234 30.3949 16.026C30.3324 16.0352 30.2708 16.0445 30.2084 16.053C30.189 16.0555 30.1695 16.058 30.1501 16.0614C30.0877 16.0698 30.0252 16.0783 29.9628 16.0867C29.9442 16.0893 29.9257 16.0918 29.9071 16.0935C29.8489 16.1011 29.7906 16.1087 29.7324 16.1154C29.7113 16.1179 29.6902 16.1205 29.6683 16.123C29.6134 16.1298 29.5585 16.1365 29.5037 16.1424C29.4834 16.145 29.4632 16.1475 29.4438 16.1492C29.3839 16.1559 29.3239 16.1627 29.2632 16.1694C29.2387 16.172 29.2134 16.1753 29.1889 16.1779C29.1341 16.1838 29.0784 16.1897 29.0235 16.1956C28.9897 16.199 28.9568 16.2032 28.9231 16.2066C28.8876 16.2099 28.853 16.2142 28.8176 16.2175C28.4733 16.2538 28.1298 16.2893 27.788 16.3272C27.7812 16.3272 27.7745 16.3289 27.7677 16.3298C27.6943 16.3382 27.6217 16.3467 27.5483 16.3551C27.5399 16.3559 27.5306 16.3568 27.5222 16.3585C27.4496 16.3669 27.377 16.3753 27.3044 16.3846C27.2977 16.3855 27.2901 16.3863 27.2833 16.3872C27.2091 16.3964 27.134 16.4057 27.0597 16.4159C27.0588 16.4159 27.058 16.4159 27.0572 16.4159C26.9846 16.4251 26.912 16.4353 26.8394 16.4454C26.8318 16.4462 26.8234 16.4479 26.8158 16.4488C26.7466 16.4589 26.6782 16.469 26.609 16.4791C26.6014 16.48 26.5947 16.4808 26.5871 16.4825C26.5829 16.4825 26.5786 16.4842 26.5736 16.4842C26.501 16.4952 26.4293 16.507 26.3575 16.5188C26.3449 16.5205 26.3322 16.523 26.3196 16.5247C26.2487 16.5365 26.1786 16.5483 26.1086 16.561C26.0951 16.5635 26.0816 16.5661 26.0681 16.5686C25.9989 16.5813 25.9297 16.5948 25.8613 16.6083C25.8478 16.6108 25.8335 16.6142 25.82 16.6167C25.7516 16.6302 25.6832 16.6446 25.6157 16.6597C25.6022 16.6623 25.5887 16.6657 25.5752 16.669C25.5069 16.6842 25.4394 16.6994 25.3718 16.7163C25.3592 16.7197 25.3457 16.7222 25.333 16.7256C25.2655 16.7425 25.198 16.7593 25.1313 16.7771C25.1187 16.7804 25.1068 16.7838 25.0942 16.7872C25.0267 16.8057 24.96 16.8243 24.8933 16.8437C24.8824 16.8471 24.8705 16.8505 24.8596 16.8538C24.7921 16.8741 24.7254 16.8944 24.6596 16.9163C24.6494 16.9197 24.6385 16.9231 24.6283 16.9264C24.5617 16.9484 24.495 16.9712 24.4292 16.9948C24.4199 16.9982 24.4098 17.0015 24.4005 17.0049C24.3338 17.0294 24.2671 17.0539 24.2013 17.08C24.1929 17.0834 24.1844 17.0868 24.176 17.0901C24.1093 17.1163 24.0435 17.1442 23.9777 17.1729C23.9709 17.1762 23.9633 17.1788 23.9566 17.1821C23.8899 17.2117 23.8241 17.2412 23.7583 17.2724C23.7523 17.275 23.7464 17.2783 23.7405 17.2809C23.6739 17.3129 23.608 17.3459 23.5431 17.3805C23.5388 17.383 23.5338 17.3855 23.5296 17.3881C23.4637 17.4235 23.3979 17.4598 23.3329 17.4969C23.3295 17.4986 23.327 17.5003 23.3236 17.502C23.2578 17.5408 23.192 17.5805 23.1278 17.6218C23.1262 17.6227 23.1245 17.6235 23.1228 17.6252C23.057 17.6674 22.992 17.7113 22.9278 17.756C22.8544 17.8075 22.7818 17.8615 22.7109 17.9155C22.6873 17.9332 22.6645 17.9518 22.6417 17.9704C22.5945 18.0075 22.5472 18.0438 22.5017 18.0818C22.4746 18.1037 22.4485 18.1265 22.4223 18.1484C22.381 18.183 22.3396 18.2185 22.2991 18.2539C22.2721 18.2784 22.2451 18.302 22.2181 18.3265C22.1793 18.3619 22.1413 18.3974 22.1033 18.4328C22.0772 18.4581 22.051 18.4835 22.0248 18.5088C21.9877 18.5451 21.9506 18.5822 21.9143 18.6193C21.889 18.6447 21.8645 18.6708 21.8392 18.6961C21.802 18.7341 21.7666 18.7729 21.7303 18.8126C21.7075 18.8379 21.6839 18.8632 21.6611 18.8885C21.6231 18.9307 21.5868 18.9729 21.5497 19.016C21.5294 19.0388 21.51 19.0624 21.4898 19.0852C21.4467 19.1367 21.4045 19.1881 21.3624 19.2405C21.3505 19.2557 21.3379 19.27 21.3261 19.2852C21.2721 19.3536 21.2189 19.4228 21.1666 19.4928C21.1598 19.5021 21.1539 19.5105 21.1472 19.5198C21.1024 19.5806 21.0585 19.6413 21.0155 19.7029C21.0003 19.7249 20.9851 19.7477 20.9699 19.7696C20.9362 19.8186 20.9033 19.8675 20.8703 19.9164C20.8535 19.9426 20.8366 19.9688 20.8197 19.9949C20.7902 20.0414 20.7606 20.0878 20.7319 20.1342C20.7151 20.162 20.6982 20.1899 20.6813 20.2177C20.6535 20.2633 20.6265 20.3097 20.5994 20.3553C20.5826 20.3831 20.5665 20.4118 20.5505 20.4397C20.5235 20.4861 20.4973 20.5334 20.472 20.5806C20.4568 20.6085 20.4416 20.6363 20.4264 20.6642C20.4003 20.7131 20.3741 20.7621 20.3488 20.8119C20.3353 20.838 20.3218 20.8633 20.3083 20.8895C20.2804 20.9435 20.2534 20.9984 20.2273 21.0532C20.2188 21.0701 20.2104 21.087 20.202 21.1047C20.2003 21.1072 20.1994 21.1106 20.1977 21.114C20.1429 21.2271 20.0906 21.341 20.0399 21.4549C20.0323 21.4726 20.0239 21.4904 20.0163 21.5089C19.9673 21.6203 19.9209 21.7309 19.8762 21.8431C19.8686 21.8617 19.861 21.8811 19.8534 21.8997C19.8087 22.0128 19.7648 22.1258 19.7235 22.2389C19.7192 22.2516 19.7142 22.2642 19.71 22.2761C19.6686 22.39 19.6289 22.5031 19.591 22.6162C19.5884 22.6229 19.5859 22.6305 19.5842 22.6373C19.5462 22.7512 19.5099 22.8651 19.4753 22.9782C19.4694 22.9968 19.4644 23.0145 19.4585 23.0331C19.4255 23.1419 19.3943 23.2508 19.3639 23.3588C19.358 23.3791 19.353 23.3993 19.3471 23.4187C19.3175 23.5268 19.2888 23.6339 19.2627 23.7411C19.2585 23.7571 19.2551 23.7732 19.2509 23.7884C19.223 23.8998 19.1968 24.0103 19.1715 24.12C18.6804 21.9528 17.6364 19.3198 15.4152 17.7568C15.3739 17.7273 15.3317 17.6986 15.2886 17.6708C15.2768 17.6632 15.265 17.6547 15.2523 17.6471C15.2186 17.6252 15.1848 17.6033 15.1502 17.5822C15.1401 17.5762 15.13 17.5695 15.1207 17.5636C15.0777 17.5374 15.0346 17.5121 14.9916 17.4868C14.9814 17.4809 14.9705 17.475 14.9603 17.4691C14.9257 17.4497 14.8911 17.4302 14.8565 17.4117C14.843 17.4049 14.8304 17.3973 14.8169 17.3906C14.7747 17.3678 14.7316 17.3459 14.6894 17.3248C14.6861 17.3231 14.6827 17.3214 14.6785 17.3197C14.6346 17.2978 14.5907 17.2767 14.5468 17.2564C14.5325 17.2496 14.519 17.2437 14.5046 17.237C14.4692 17.221 14.4337 17.2049 14.3983 17.1889C14.3865 17.1838 14.3747 17.1779 14.3628 17.1729C14.3173 17.1534 14.2717 17.134 14.2261 17.1155C14.2135 17.1104 14.2008 17.1053 14.1882 17.1003C14.1527 17.0859 14.1173 17.0724 14.0818 17.0581C14.0666 17.0522 14.0514 17.0463 14.0354 17.0404C13.9932 17.0243 13.9502 17.0083 13.9071 16.9931C13.8995 16.9906 13.8919 16.9872 13.8843 16.9847C13.8405 16.9686 13.7957 16.9534 13.751 16.9391C13.735 16.934 13.7189 16.9281 13.7021 16.923C13.6666 16.9112 13.6312 16.9003 13.5949 16.8893C13.5805 16.8851 13.5662 16.88 13.5518 16.8758C13.5046 16.8614 13.4573 16.8471 13.4092 16.8336C13.3949 16.8294 13.3797 16.8252 13.3653 16.8209C13.329 16.8108 13.2936 16.8007 13.2573 16.7906C13.2396 16.7855 13.2227 16.7813 13.205 16.7762C13.1628 16.7652 13.1214 16.7543 13.0792 16.7433C13.0666 16.7399 13.0539 16.7365 13.0413 16.734C12.9974 16.723 12.9526 16.7121 12.9088 16.7019C12.8902 16.6977 12.8716 16.6935 12.8531 16.6893C12.8185 16.6808 12.783 16.6732 12.7476 16.6657C12.7307 16.6623 12.7138 16.6581 12.6969 16.6547C12.6488 16.6446 12.5999 16.6344 12.5518 16.6243C12.5341 16.6209 12.5163 16.6175 12.4986 16.6133C12.464 16.6066 12.4294 16.5998 12.3948 16.5931C12.3746 16.5889 12.3552 16.5855 12.3349 16.5813C12.2952 16.5737 12.2556 16.5669 12.2159 16.5593C12.1957 16.5559 12.1762 16.5526 12.156 16.5483C12.1146 16.5408 12.0733 16.534 12.0319 16.5272C12.0108 16.5239 11.9889 16.5205 11.9678 16.5163C11.9349 16.5112 11.902 16.5053 11.8691 16.5002C11.8488 16.4969 11.8285 16.4935 11.8074 16.491C11.7593 16.4834 11.7112 16.4758 11.6623 16.469C11.6412 16.4656 11.6201 16.4631 11.5998 16.4597C11.5678 16.4547 11.5349 16.4505 11.5028 16.4462C11.48 16.4429 11.4564 16.4395 11.4336 16.437C11.399 16.4319 11.3635 16.4277 11.3289 16.4226C11.2977 16.4184 11.2665 16.4142 11.2353 16.4099C11.2007 16.4057 11.1661 16.4007 11.1315 16.3964C11.1061 16.3931 11.08 16.3897 11.0547 16.3872C11.0268 16.3838 10.9981 16.3804 10.9703 16.377C10.9441 16.3737 10.9188 16.3711 10.8926 16.3677C10.8479 16.3627 10.8023 16.3568 10.7568 16.3517C10.7264 16.3483 10.696 16.345 10.6665 16.3416C10.6437 16.3391 10.6209 16.3365 10.5981 16.334C10.5669 16.3306 10.5357 16.3272 10.5044 16.3239C10.4875 16.3222 10.4707 16.3205 10.4538 16.318C10.0555 16.2741 9.6546 16.2336 9.25457 16.1905C9.25204 16.1905 9.24867 16.1905 9.24614 16.1897C9.18875 16.1838 9.13052 16.177 9.07313 16.1703C9.06976 16.1703 9.06554 16.1703 9.06216 16.1694C9.00309 16.1627 8.94317 16.1559 8.88409 16.1492C8.87903 16.1492 8.87312 16.1475 8.86806 16.1475C8.81742 16.1416 8.76679 16.1357 8.71531 16.1298C8.70265 16.1281 8.69083 16.1272 8.67817 16.1255C8.62163 16.1188 8.56593 16.112 8.50939 16.1044C8.45369 16.0977 8.39799 16.0901 8.34145 16.0825C8.32795 16.0808 8.31444 16.0791 8.30094 16.0774C8.25621 16.0715 8.21148 16.0656 8.16676 16.0589C8.1541 16.0572 8.14144 16.0555 8.12878 16.0538C8.07477 16.0462 8.01991 16.0386 7.9659 16.0302C7.95493 16.0285 7.94396 16.0268 7.93299 16.0251C7.88911 16.0184 7.84438 16.0116 7.80049 16.0049C7.78446 16.0023 7.76927 15.9998 7.75323 15.9973C7.70344 15.9897 7.65281 15.9812 7.60302 15.9728C7.5988 15.9728 7.59373 15.9711 7.58951 15.9703C7.53635 15.961 7.48318 15.9525 7.43085 15.9424C7.41482 15.9399 7.39879 15.9365 7.38275 15.934C7.34224 15.9264 7.30173 15.9188 7.26123 15.9112C7.24688 15.9087 7.23253 15.9061 7.21734 15.9027C7.16502 15.8926 7.11354 15.8825 7.06122 15.8724C7.04856 15.8698 7.0359 15.8673 7.02324 15.8648C6.98273 15.8563 6.94138 15.8479 6.90087 15.8386C6.88399 15.8352 6.86711 15.831 6.85023 15.8276C6.80466 15.8175 6.75994 15.8074 6.71436 15.7973C6.70677 15.7956 6.69917 15.7939 6.69158 15.7922C6.64094 15.7804 6.58946 15.7677 6.53883 15.7551C6.52279 15.7508 6.50591 15.7466 6.48988 15.7424C6.4519 15.7331 6.41393 15.723 6.37679 15.7129C6.3616 15.7086 6.34557 15.7044 6.33038 15.701C6.28059 15.6875 6.23164 15.674 6.18185 15.6597C6.16834 15.6555 6.15484 15.6521 6.14134 15.6479C6.10336 15.6369 6.06539 15.6259 6.02741 15.6141C6.01053 15.6091 5.99365 15.604 5.97677 15.5989C5.93458 15.5863 5.89323 15.5728 5.85187 15.5593C5.84343 15.5567 5.83415 15.5534 5.82487 15.5508C5.77676 15.5348 5.72782 15.5188 5.67971 15.5019C5.66368 15.496 5.64764 15.4909 5.63161 15.485C5.59616 15.4723 5.55988 15.4597 5.52443 15.4462C5.50924 15.4403 5.49405 15.4352 5.47886 15.4293C5.4316 15.4116 5.38434 15.393 5.33792 15.3745C5.32526 15.3694 5.31176 15.3635 5.2991 15.3584C5.26281 15.3441 5.22737 15.3289 5.19108 15.3137C5.17505 15.3069 5.15817 15.2993 5.14213 15.2926C5.10331 15.2757 5.06365 15.258 5.02483 15.2403C5.01639 15.236 5.0071 15.2327 4.99867 15.2285C4.95309 15.2074 4.90752 15.1854 4.86195 15.1635C4.84676 15.1559 4.83157 15.1483 4.81553 15.1407C4.78178 15.1238 4.74802 15.1069 4.71511 15.09C4.70076 15.0825 4.68641 15.0757 4.67207 15.0681C4.62734 15.0445 4.58345 15.0208 4.53957 14.9964C4.52776 14.9896 4.51594 14.9829 4.50413 14.9761C4.47037 14.9567 4.43577 14.9373 4.40201 14.917C4.38598 14.9078 4.3691 14.8976 4.35306 14.8875C4.32943 14.8732 4.3058 14.8588 4.28217 14.8445C4.26614 14.8343 4.24926 14.8242 4.23323 14.8141C4.20453 14.7955 4.17668 14.777 4.14799 14.7584C4.13702 14.7516 4.12605 14.744 4.11508 14.7373C4.0771 14.712 4.03912 14.6858 4.00115 14.6588C3.98764 14.6495 3.97499 14.6402 3.96148 14.6301C3.93616 14.6115 3.91085 14.5938 3.88553 14.5744C3.87034 14.5634 3.85599 14.5516 3.8408 14.5407C3.81717 14.5229 3.79439 14.5052 3.77076 14.4866C3.75557 14.4748 3.74122 14.463 3.72603 14.4512C3.7024 14.4318 3.67877 14.4124 3.65514 14.393C3.64164 14.382 3.62813 14.371 3.61463 14.3592C3.58425 14.3339 3.55471 14.3086 3.52517 14.2824C3.51842 14.2765 3.51167 14.2706 3.50492 14.2647C3.46863 14.2326 3.43319 14.2006 3.39774 14.1676C3.38677 14.1575 3.3758 14.1465 3.36483 14.1364C3.34035 14.1128 3.31588 14.0892 3.29141 14.0655C3.27875 14.0529 3.26525 14.0394 3.25259 14.0267C3.2298 14.0039 3.20786 13.9811 3.18592 13.9583C3.17326 13.9448 3.15975 13.9313 3.1471 13.9178C3.12431 13.8934 3.10152 13.8689 3.07874 13.8444C3.06777 13.8318 3.05595 13.8199 3.04498 13.8073C3.01544 13.7744 2.98591 13.7406 2.95721 13.7069C2.95299 13.7018 2.94877 13.6976 2.9454 13.6925C2.91248 13.6537 2.87957 13.614 2.8475 13.5744C2.83822 13.5625 2.82894 13.5507 2.81965 13.5389C2.79687 13.5102 2.77408 13.4815 2.7513 13.452C2.74032 13.4368 2.72851 13.4225 2.71754 13.4073C2.69728 13.3794 2.67619 13.3516 2.65593 13.3237C2.64496 13.3085 2.63315 13.2925 2.62218 13.2765C2.60108 13.2469 2.57998 13.2165 2.55972 13.1862C2.55044 13.1718 2.54031 13.1583 2.53103 13.144C2.50318 13.1026 2.47618 13.0613 2.44917 13.0191C2.44664 13.0157 2.44411 13.0123 2.44242 13.0081C2.41288 12.9617 2.38419 12.9153 2.3555 12.8672C2.34706 12.8536 2.33862 12.8393 2.33102 12.825C2.31077 12.7912 2.29136 12.7566 2.2711 12.722C2.26098 12.7043 2.25169 12.6866 2.24157 12.6688C2.22384 12.6359 2.20528 12.6038 2.18755 12.5701C2.17743 12.5515 2.16814 12.533 2.15802 12.5144C2.13945 12.4789 2.12173 12.4435 2.10316 12.4081C2.09472 12.3912 2.08628 12.3751 2.07784 12.3583C2.05337 12.3085 2.0289 12.2587 2.00527 12.2072C2.00358 12.2038 2.00273 12.2013 2.00105 12.1988C1.97573 12.1448 1.95126 12.0899 1.92678 12.0342C1.91919 12.0173 1.91243 12.0004 1.90484 11.9836C1.88796 11.9439 1.87108 11.9042 1.8542 11.8646C1.84576 11.8435 1.83733 11.8232 1.82889 11.8021C1.8137 11.7641 1.79851 11.7262 1.78416 11.6882C1.77572 11.6662 1.76728 11.6451 1.75968 11.6232C1.74449 11.5827 1.7293 11.5413 1.71411 11.5C1.70736 11.4806 1.69977 11.4612 1.69301 11.4418C1.67192 11.3818 1.65166 11.3219 1.63141 11.2603C1.63141 11.2586 1.63056 11.2578 1.62972 11.2561C1.60947 11.1937 1.58921 11.1295 1.56896 11.0645C1.56305 11.0443 1.55714 11.024 1.55039 11.0038C1.53689 10.959 1.52339 10.9135 1.51073 10.8679C1.50398 10.8434 1.49722 10.8189 1.49047 10.7945C1.47866 10.7514 1.46684 10.7075 1.45503 10.6628C1.44828 10.6375 1.44153 10.6122 1.43477 10.5869C1.42296 10.5396 1.41114 10.4923 1.39933 10.4451C1.39427 10.4223 1.38836 10.4004 1.38329 10.3776C1.36642 10.3075 1.35038 10.2358 1.33435 10.1641C1.30819 10.2577 1.28371 10.3514 1.26008 10.4451C1.24742 10.494 1.23561 10.543 1.22379 10.5919C1.21451 10.6299 1.20523 10.6687 1.19594 10.7067C1.17991 10.7725 1.16556 10.8392 1.15037 10.905C1.14868 10.9143 1.14615 10.9244 1.14446 10.9337C1.11577 11.0645 1.08876 11.1945 1.06429 11.3245C1.06007 11.3472 1.05585 11.3692 1.05163 11.392C1.04488 11.4274 1.03897 11.4629 1.03222 11.4983C1.02631 11.5295 1.02041 11.5616 1.01534 11.5928C1.01534 11.5928 1.01534 11.5937 1.01534 11.5945C1.01534 11.592 1.01534 11.5903 1.01619 11.5878C0.904789 12.2376 0.844027 12.8697 0.830524 13.4824C0.827148 13.6225 0.826305 13.7617 0.827992 13.9001C0.827992 13.9001 0.827992 13.9001 0.827992 13.901C0.839807 14.9094 0.978211 15.8622 1.22126 16.7551C1.67782 18.4278 2.50234 19.8886 3.5564 21.103C3.56737 21.1157 3.57919 21.1292 3.59016 21.1418C3.73362 21.3055 3.88131 21.465 4.03322 21.6203C4.04503 21.633 4.05769 21.6448 4.06951 21.6566C4.14039 21.7284 4.21128 21.7984 4.28386 21.8684C4.28977 21.8735 4.29483 21.8794 4.30074 21.8845C4.37923 21.9596 4.45855 22.0339 4.53957 22.1064C4.55054 22.1157 4.56067 22.125 4.57164 22.1351C4.64253 22.1984 4.71342 22.2617 4.78515 22.3233C4.79781 22.3343 4.81131 22.3461 4.82397 22.3571C4.90583 22.4263 4.98769 22.4946 5.0704 22.5622C5.07631 22.5664 5.08137 22.5706 5.08728 22.5757C5.16323 22.6364 5.24003 22.6963 5.31767 22.7554C5.33539 22.7689 5.35227 22.7824 5.36999 22.7951C5.41219 22.8263 5.45354 22.8584 5.49574 22.8887C5.49574 22.8887 5.49658 22.8888 5.49742 22.8896C5.62148 22.9807 5.74807 23.0702 5.87466 23.1563C5.89407 23.1698 5.91432 23.1833 5.93373 23.1959C6.00715 23.2449 6.08142 23.2938 6.15569 23.3411C6.16919 23.3495 6.18185 23.358 6.19535 23.3664C6.28059 23.4204 6.36667 23.4736 6.45359 23.5251C6.473 23.5369 6.49326 23.5487 6.51267 23.5605C6.58356 23.6027 6.65444 23.6432 6.72533 23.6837C6.74643 23.6955 6.76669 23.7074 6.78778 23.7192C6.87471 23.7673 6.96163 23.8145 7.0494 23.8609C7.06459 23.8694 7.08063 23.877 7.09582 23.8846C7.17008 23.9234 7.24435 23.9614 7.31946 23.9977C7.34393 24.0095 7.36756 24.0213 7.39203 24.0331C7.48149 24.0761 7.5701 24.1192 7.6604 24.1597C12.0075 26.1429 15.4625 26.5818 16.8381 28.8097C16.8507 28.8308 16.8634 28.8519 16.8761 28.873C16.9123 28.9355 16.9486 28.9979 16.9824 29.0629C17.0372 29.1692 17.0862 29.2781 17.1301 29.3887C17.2609 29.7195 17.3436 30.0655 17.3883 30.4166C17.4913 30.3963 17.59 30.3752 17.6845 30.3533C18.3774 30.1929 18.8475 29.9963 19.1243 29.8562C19.2331 29.8013 19.2998 29.76 19.3445 29.7304C19.3943 29.76 19.4677 29.803 19.5893 29.8621C19.8408 29.9845 20.2231 30.1507 20.7083 30.3026C20.7733 29.8739 20.8965 29.4545 21.0982 29.0629C21.1336 28.9945 21.1716 28.9279 21.2104 28.8629C21.2223 28.8426 21.2349 28.8224 21.2476 28.803C21.2771 28.7566 21.3067 28.711 21.3379 28.6654C21.3514 28.646 21.3649 28.6257 21.3792 28.6063C22.8645 26.5522 26.4597 26.0805 30.6717 24.1597C30.7628 24.1183 30.854 24.0745 30.9451 24.0306C30.9687 24.0188 30.9924 24.0078 31.0152 23.996C31.0979 23.9555 31.1797 23.9133 31.2616 23.8711C31.2709 23.866 31.2793 23.8618 31.2886 23.8567C31.3789 23.8095 31.4692 23.7597 31.5586 23.7099C31.5789 23.6989 31.5992 23.6871 31.6194 23.6753C31.6987 23.6297 31.7781 23.5841 31.8574 23.5369C31.8684 23.5301 31.8802 23.5234 31.8912 23.5166C31.9815 23.4626 32.0709 23.4069 32.1604 23.3495C32.1747 23.3402 32.1891 23.331 32.2034 23.3217C32.2844 23.2694 32.3654 23.2162 32.4448 23.1622C32.4549 23.1554 32.465 23.1487 32.4751 23.1419C32.4827 23.1369 32.4912 23.1318 32.4988 23.1259C32.5815 23.0693 32.6633 23.0111 32.7444 22.9529C32.7503 22.9487 32.7562 22.9444 32.7621 22.9394C32.768 22.9352 32.7739 22.9309 32.7798 22.9267C32.7967 22.9141 32.8136 22.9023 32.8304 22.8896C32.8929 22.844 32.9545 22.7976 33.0153 22.7512C33.0229 22.7453 33.0313 22.7394 33.0389 22.7335C33.0591 22.7174 33.0802 22.7022 33.1005 22.6862C33.1022 22.6845 33.1039 22.6837 33.1056 22.682C33.2617 22.5605 33.4153 22.4339 33.5655 22.3039C33.5706 22.2997 33.5756 22.2946 33.5815 22.2904C33.7554 22.1402 33.925 21.9841 34.0913 21.8237C34.0946 21.8212 34.0972 21.8178 34.1005 21.8153C34.2676 21.6524 34.4305 21.4836 34.5892 21.3106C34.59 21.3098 34.5909 21.3081 34.5926 21.3072C35.6458 20.1511 36.488 18.7586 36.991 17.161C36.8399 17.4311 36.6754 17.6961 36.4948 17.9543L36.4981 17.9569ZM17.3157 27.9472C14.7966 24.726 11.5804 24.1251 8.63007 23.574C7.54816 23.3715 6.50169 23.1765 5.53456 22.8617C5.40375 22.7655 5.27547 22.6668 5.14804 22.5655C6.22151 22.9706 7.41651 23.1934 8.65708 23.4255C11.6344 23.9816 14.8793 24.5884 17.4339 27.8552L17.3149 27.9489L17.3157 27.9472ZM17.8499 26.9413C17.6044 26.5345 17.2297 26.0104 16.6617 25.3766C16.2127 24.8753 15.6422 24.3049 14.9181 23.6694C13.4413 22.3731 11.7982 22.1765 10.0116 21.9621C8.00472 21.7216 5.81812 21.4591 3.46526 19.6177C2.84413 19.1316 2.32849 18.5645 1.90146 17.956C1.70567 17.6767 1.52761 17.3889 1.36726 17.0969C1.29131 16.853 1.22379 16.6049 1.16472 16.3517C1.39933 16.869 1.68373 17.3821 2.02552 17.8682C2.44495 18.4649 2.95046 19.0219 3.55893 19.4979C5.87803 21.3123 8.0427 21.5722 10.0293 21.8111C11.8404 22.0279 13.5054 22.228 15.0177 23.5554C15.746 24.1951 16.3216 24.7699 16.7748 25.2754C17.3503 25.9184 17.7301 26.4501 17.9799 26.8619L17.8499 26.9404V26.9413ZM18.2483 26.4619C17.9115 25.5226 17.3807 24.4331 16.7663 23.4778C16.2321 22.6465 15.6355 21.9191 15.0515 21.4861C13.9746 20.687 12.0648 20.3215 10.1593 19.9578C8.56762 19.6531 6.97851 19.3493 5.85947 18.7898C4.66869 18.1948 3.43319 17.372 2.42976 16.2842C1.79091 15.5913 1.24573 14.7921 0.866813 13.8756C0.865125 13.7372 0.865969 13.5971 0.869345 13.4571C1.23983 14.5086 1.83142 15.4124 2.54116 16.1821C3.53108 17.2547 4.7514 18.0666 5.92698 18.6548C7.02577 19.2042 8.6056 19.5063 10.1871 19.8084C12.1096 20.1764 14.0362 20.5443 15.1409 21.3646C15.741 21.8094 16.3494 22.5512 16.8929 23.3959C17.5124 24.3597 18.0491 25.461 18.3901 26.4113L18.2474 26.4628L18.2483 26.4619ZM18.4981 25.9429C18.4863 25.8762 18.4711 25.7826 18.4542 25.6821C18.2576 24.4939 17.8786 22.1993 15.6895 20.1283C14.1122 18.6354 11.4327 18.1105 9.02756 17.6395C7.83172 17.4049 6.70339 17.1838 5.80461 16.8631C4.43239 16.3728 3.14203 15.4555 2.23903 14.2672C1.64491 13.4857 1.21873 12.587 1.04741 11.6156C1.07357 11.457 1.10311 11.2966 1.13602 11.1354C1.2373 12.2562 1.68879 13.2925 2.35971 14.1752C3.24415 15.339 4.50919 16.2386 5.85525 16.7197C6.7439 17.037 7.86632 17.2572 9.05625 17.4902C11.4817 17.9653 14.1822 18.4953 15.7933 20.0186C18.0204 22.125 18.4052 24.4525 18.6044 25.6577C18.6188 25.7437 18.6323 25.8239 18.6483 25.9167L18.4989 25.9429H18.4981ZM19.3488 29.7144C19.3361 29.7119 19.3226 29.711 19.3428 29.711C19.3555 29.711 19.3538 29.7119 19.3488 29.7144ZM32.5283 23.1006C31.319 23.5943 30.0084 23.8432 28.6665 24.0981C26.0546 24.5943 23.3245 25.1133 21.0298 27.5126L20.9201 27.408C23.2485 24.9724 26.0031 24.4492 28.6387 23.9487C30.2236 23.6474 31.7654 23.3546 33.1359 22.6558C32.9376 22.8103 32.7342 22.9588 32.5283 23.0997V23.1006Z" fill="#6BC1BF"/>
<path d="M19.1031 15.9221C21.2029 15.9221 22.905 14.22 22.905 12.1202C22.905 10.0205 21.2029 8.31836 19.1031 8.31836C17.0034 8.31836 15.3013 10.0205 15.3013 12.1202C15.3013 14.22 17.0034 15.9221 19.1031 15.9221Z" fill="#222952"/>
<path fill-rule="evenodd" clip-rule="evenodd" d="M34.7235 10.2879C34.7235 3.55595 31.5579 2.84368 26.172 1.73392V1.65543C25.7737 1.0208 25.1407 0.625 24.35 0.625C23.2419 0.625 22.3684 1.49677 22.3684 2.52636C22.3684 3.55595 23.2428 4.42603 24.35 4.42603C24.8251 4.42603 25.2234 4.26738 25.5399 3.95091L25.6159 4.03023C30.844 5.13999 32.1926 5.37882 32.1926 10.2879C32.1926 14.0915 30.2937 19.2377 27.2818 22.9628C26.8066 22.9628 26.3315 23.1215 25.9323 23.5164C24.4318 25.1798 21.976 27.1597 19.1219 27.1597C16.2677 27.1597 13.8178 25.1798 12.3114 23.5958C11.9131 23.2 11.4379 22.9628 10.9628 22.9628C7.95591 19.2377 5.97438 14.0915 5.97438 10.2879C5.97438 5.37882 7.39892 5.13999 12.627 4.03023V3.95091C12.9443 4.26738 13.4186 4.42603 13.8938 4.42603C15.0018 4.42603 15.8744 3.5551 15.8744 2.52636C15.8744 1.49762 15.001 0.625 13.8929 0.625C13.0245 0.625 12.3916 1.0208 12.07 1.65543H11.9932C6.68834 2.84368 3.44092 3.47662 3.44092 10.2879C3.44092 14.6451 5.4984 20.2699 8.98044 24.4659C8.90364 24.9401 8.98044 25.4963 9.37877 25.8929C11.9114 28.5851 14.7655 30.1691 17.6965 30.5649C17.6965 30.5649 19.1649 30.6982 20.2274 30.5649H20.3861C23.3989 30.2476 26.3298 28.6644 28.8624 25.8929C29.2608 25.417 29.3367 24.941 29.2608 24.3874C32.666 20.2699 34.7235 14.6451 34.7235 10.2879Z" fill="#222952"/>
<path fill-rule="evenodd" clip-rule="evenodd" d="M27.2808 22.9629C26.8057 22.9629 26.3306 23.1215 25.9314 23.5165C24.4309 25.1799 21.9751 27.1597 19.1209 27.1597C16.2668 27.1597 13.8169 25.1799 12.3105 23.5958C11.9121 23.2 11.437 22.9629 10.9619 22.9629C9.285 23.1958 8.98119 24.4668 8.98119 24.4668C8.90439 24.941 8.98119 25.4972 9.37952 25.8938C11.9121 28.586 14.7663 30.17 17.6972 30.5658C17.6972 30.5658 19.1657 30.6991 20.2282 30.5658H20.3868C23.3996 30.2485 26.3306 28.6653 28.8632 25.8938C29.2615 25.4179 29.3375 24.9419 29.2615 24.3883C28.6227 23.0836 27.2817 22.9637 27.2817 22.9637L27.2808 22.9629Z" fill="#222952"/>
<path d="M19.1031 15.9221C21.2029 15.9221 22.905 14.22 22.905 12.1202C22.905 10.0205 21.2029 8.31836 19.1031 8.31836C17.0034 8.31836 15.3013 10.0205 15.3013 12.1202C15.3013 14.22 17.0034 15.9221 19.1031 15.9221Z" fill="#222952"/>
<path d="M47.5107 22.9442V8.86523H50.7955V14.4125H57.7054V8.86523H60.9902V22.9442H57.7054V17.0766H50.7955V22.9442H47.5107Z" fill="#222952"/>
<path d="M63.5273 16.2551C63.5273 13.492 65.0702 12.0293 68.3538 12.0293H69.455C72.7398 12.0293 74.3015 13.4909 74.3015 16.2551V17.7379C74.3015 18.3174 74.0212 18.5977 73.4005 18.5977H66.5907V18.7779C66.5907 19.9192 67.1314 20.4008 68.4339 20.4008H72.7598C73.3405 20.4008 73.6208 20.6411 73.7009 21.2017L73.9411 22.9437H68.3538C65.049 22.9437 63.5273 21.5421 63.5273 18.7979V16.254V16.2551ZM71.2982 16.4765V16.2162C71.2982 15.0349 70.7977 14.5732 69.4161 14.5732H68.474C67.0924 14.5732 66.5919 15.0337 66.5919 16.2162V16.4765H71.2982Z" fill="#222952"/>
<path d="M76.6831 8.30469H79.8477V22.9454H76.6831V8.30469Z" fill="#222952"/>
<path d="M82.749 8.30469H85.9137V22.9454H82.749V8.30469Z" fill="#222952"/>
<path d="M88.8154 10.7479V8.125H92.1002V10.7479H88.8154ZM88.8755 22.9448V12.2107H92.0401V22.9448H88.8755Z" fill="#222952"/>
<path d="M106.118 18.9993C106.118 21.6633 104.595 23.125 101.492 23.125H99.1082C96.0036 23.125 94.4819 21.6633 94.4819 18.9993V16.155C94.4819 13.4909 96.0047 12.0293 99.1082 12.0293H101.492C104.597 12.0293 106.118 13.4909 106.118 16.155V18.9993ZM97.6466 18.8402C97.6466 20.0415 98.2072 20.5621 99.5487 20.5621H101.05C102.393 20.5621 102.952 20.0415 102.952 18.8402V16.3152C102.952 15.1138 102.392 14.5933 101.05 14.5933H99.5487C98.2061 14.5933 97.6466 15.1138 97.6466 16.3152V18.8402Z" fill="#222952"/>
<path d="M108.498 12.2114H110.321C110.821 12.2114 111.001 12.3305 111.142 12.732L111.342 13.3727H111.422C111.902 12.5118 112.905 12.0312 114.266 12.0312H115.287C117.971 12.0312 119.173 13.5741 119.173 16.1569V22.9467H116.008V16.2782C116.008 15.0757 115.528 14.5752 114.186 14.5752H113.485C112.143 14.5752 111.662 15.0757 111.662 16.2782V22.9467H108.498V12.2126V12.2114Z" fill="#222952"/>
</svg>
