<svg xmlns="http://www.w3.org/2000/svg" width="40" height="41" viewBox="0 0 40 41" fill="none"><g clip-path="url(#clip0_3995_9944)"><path d="M3.82812 19.7969C8.54609 19.7969 13.2641 19.7969 18.125 19.7969C18.125 20.2609 18.125 20.725 18.125 21.2031C13.8711 21.2031 9.61719 21.2031 5.23438 21.2031C5.23438 27.1328 5.23438 33.0625 5.23438 39.1719C10.5195 39.1719 15.8047 39.1719 21.25 39.1719C21.25 38.7336 21.25 38.2953 21.25 37.8438C21.4675 37.8421 21.6851 37.8405 21.9092 37.8389C21.9778 37.8382 22.0464 37.8374 22.1171 37.8367C22.2708 37.8362 22.4245 37.8398 22.5781 37.8438C23.2045 38.4701 22.6562 39.6142 22.6562 40.5C16.443 40.5 10.2297 40.5 3.82812 40.5C3.82812 33.668 3.82812 26.8359 3.82812 19.7969Z" fill="#006AFF"></path><path d="M37.4219 17.8438C38.2727 17.8438 39.1234 17.8438 40 17.8438C40 24.057 40 30.2703 40 36.6719C33.168 36.6719 26.3359 36.6719 19.2969 36.6719C19.2969 31.9539 19.2969 27.2359 19.2969 22.375C19.7609 22.375 20.225 22.375 20.7031 22.375C20.7031 26.6289 20.7031 30.8828 20.7031 35.2656C26.6328 35.2656 32.5625 35.2656 38.6719 35.2656C38.6719 29.9805 38.6719 24.6953 38.6719 19.25C38.2336 19.25 37.7953 19.25 37.3438 19.25C37.3413 18.9237 37.3413 18.9237 37.3389 18.5908C37.3382 18.5222 37.3374 18.4536 37.3367 18.3829C37.3362 18.2292 37.3398 18.0755 37.3438 17.9219C37.3695 17.8961 37.3953 17.8703 37.4219 17.8438Z" fill="#006AFF"></path><path d="M0 4.32812C6.83203 4.32812 13.6641 4.32812 20.7031 4.32812C20.7031 9.04609 20.7031 13.7641 20.7031 18.625C20.2391 18.625 19.775 18.625 19.2969 18.625C19.2969 14.3711 19.2969 10.1172 19.2969 5.73438C13.3672 5.73438 7.4375 5.73438 1.32812 5.73438C1.32812 11.0195 1.32812 16.3047 1.32812 21.75C1.76641 21.75 2.20469 21.75 2.65625 21.75C2.65786 21.9675 2.65947 22.1851 2.66113 22.4092C2.66184 22.4778 2.66256 22.5464 2.66329 22.6171C2.66385 22.7708 2.66018 22.9245 2.65625 23.0781C2.63047 23.1039 2.60469 23.1297 2.57812 23.1562C1.72734 23.1562 0.876563 23.1562 0 23.1562C0 16.943 0 10.7297 0 4.32812Z" fill="#006AFF"></path><path d="M17.3438 0.5C23.557 0.5 29.7703 0.5 36.1719 0.5C36.1719 7.33203 36.1719 14.1641 36.1719 21.2031C31.4539 21.2031 26.7359 21.2031 21.875 21.2031C21.875 20.7391 21.875 20.275 21.875 19.7969C26.1289 19.7969 30.3828 19.7969 34.7656 19.7969C34.7656 13.8672 34.7656 7.9375 34.7656 1.82812C29.4805 1.82812 24.1953 1.82812 18.75 1.82812C18.75 2.26641 18.75 2.70469 18.75 3.15625C18.5325 3.15786 18.3149 3.15947 18.0908 3.16113C18.0222 3.16184 17.9536 3.16256 17.8829 3.16329C17.7292 3.16385 17.5755 3.16018 17.4219 3.15625C17.3961 3.13047 17.3703 3.10469 17.3438 3.07812C17.3438 2.22734 17.3438 1.37656 17.3438 0.5Z" fill="#006AFF"></path><path d="M34.2249 24.0991C35.6664 24.8048 36.4308 25.9356 37.4219 27.2195C37.4219 29.4882 37.4219 31.757 37.4219 34.0945C32.2914 34.0945 27.1609 34.0945 21.875 34.0945C21.875 31.6235 21.875 31.6235 22.513 30.9156C22.5619 30.8728 22.6108 30.8301 22.6612 30.786C22.7168 30.736 22.7725 30.6859 22.8299 30.6344C22.887 30.5833 22.9441 30.5323 23.0029 30.4796C23.119 30.3678 23.2346 30.2554 23.3497 30.1425C23.6502 29.8507 23.9567 29.5663 24.2652 29.283C24.5804 28.9913 24.8891 28.6928 25.1984 28.3948C25.8032 27.8141 26.4148 27.241 27.0312 26.6726C27.3461 26.8177 27.5612 27.0263 27.8015 27.2713C27.8444 27.3145 27.8873 27.3576 27.9315 27.402C28.068 27.5394 28.2039 27.6773 28.3398 27.8152C28.4325 27.9086 28.5252 28.002 28.6179 28.0953C28.8446 28.3238 29.0709 28.5527 29.2969 28.782C29.789 28.3809 30.2293 27.9324 30.6733 27.48C30.8588 27.2912 31.0451 27.1031 31.2313 26.915C31.577 26.5657 31.9224 26.2161 32.2665 25.8653C32.5069 25.6202 32.7483 25.3761 32.9903 25.1327C33.0822 25.0399 33.1737 24.9467 33.2649 24.8532C33.3918 24.723 33.52 24.5941 33.6484 24.4654C33.6859 24.4264 33.7234 24.3874 33.762 24.3473C34.0191 24.0932 34.0191 24.0932 34.2249 24.0991ZM34.0299 26.1391C33.9868 26.1823 33.9438 26.2255 33.8994 26.27C33.8499 26.3193 33.8004 26.3686 33.7493 26.4194C33.6951 26.4742 33.6409 26.529 33.585 26.5855C33.5278 26.6426 33.4707 26.6998 33.4118 26.7586C33.222 26.9485 33.0328 27.1389 32.8436 27.3293C32.7125 27.4607 32.5814 27.5921 32.4502 27.7234C32.1044 28.0699 31.759 28.4168 31.4137 28.7638C31.0616 29.1175 30.709 29.4708 30.3564 29.8241C29.6643 30.518 28.9726 31.2123 28.2812 31.907C28.0226 31.7838 27.8385 31.6482 27.6318 31.448C27.5757 31.395 27.5196 31.342 27.4619 31.2874C27.3438 31.1257 27.3438 31.1257 27.3621 30.9741C27.4284 30.7956 27.4985 30.7094 27.6346 30.5776C27.6766 30.5363 27.7187 30.495 27.762 30.4525C27.8061 30.4104 27.8501 30.3683 27.8955 30.3249C27.9399 30.2816 27.9842 30.2383 28.0299 30.1937C28.1392 30.0872 28.2492 29.9814 28.3594 29.8757C27.9924 29.4334 27.5979 29.0279 27.1875 28.6257C26.907 28.7449 26.7253 28.911 26.5096 29.1246C26.4377 29.1956 26.3658 29.2665 26.2917 29.3396C26.2139 29.4171 26.1361 29.4947 26.0583 29.5724C25.9782 29.652 25.8981 29.7316 25.818 29.8112C25.6504 29.9778 25.4831 30.1448 25.316 30.312C25.1017 30.5263 24.8864 30.7395 24.6708 30.9524C24.5051 31.1164 24.3401 31.281 24.1754 31.4459C24.0962 31.5248 24.0169 31.6035 23.9372 31.6819C23.8262 31.7915 23.7161 31.9021 23.6062 32.0128C23.5433 32.0755 23.4804 32.1382 23.4156 32.2027C23.2493 32.3803 23.2493 32.3803 23.2812 32.6882C27.5094 32.6882 31.7375 32.6882 36.0938 32.6882C36.5739 28.2444 36.5739 28.2444 35.2051 26.6433C34.6716 26.1549 34.6716 26.1549 34.0299 26.1391Z" fill="#006AFF"></path><path d="M12.1875 24.3281C12.6516 24.3281 13.1156 24.3281 13.5938 24.3281C13.6002 24.4844 13.6067 24.6407 13.6133 24.8018C13.6506 25.2595 13.6899 25.5357 13.9844 25.8906C14.3268 26.1571 14.6842 26.2215 15.1074 26.2764C15.744 26.3598 16.3368 26.6024 16.7969 27.0625C17.2706 27.6823 17.4455 28.1594 17.4219 28.9375C16.9836 28.9375 16.5453 28.9375 16.0938 28.9375C16.0664 28.8312 16.039 28.7248 16.0108 28.6152C15.8978 28.293 15.7838 28.0717 15.5127 27.8602C15.0876 27.6594 14.6051 27.6187 14.142 27.5631C13.948 27.5239 13.7765 27.45 13.5938 27.375C13.5941 27.4527 13.5945 27.5304 13.5948 27.6105C13.598 28.3449 13.6003 29.0794 13.6019 29.8138C13.6027 30.1914 13.6038 30.5689 13.6056 30.9464C13.6073 31.3111 13.6082 31.6758 13.6086 32.0406C13.6089 32.1793 13.6094 32.3181 13.6103 32.4568C13.6114 32.652 13.6116 32.8472 13.6115 33.0424C13.6121 33.099 13.6126 33.1557 13.6132 33.2141C13.61 34.0251 13.3986 34.6332 12.8613 35.2412C12.2261 35.8008 11.6421 36.0536 10.7813 36.0469C10.0118 35.9468 9.37519 35.6598 8.88185 35.0508C8.42368 34.3756 8.26227 33.7371 8.35939 32.9219C8.55046 32.13 8.88982 31.5737 9.58589 31.1476C9.64521 31.1143 9.70453 31.0811 9.76564 31.0469C9.81287 31.0201 9.86011 30.9933 9.90877 30.9657C10.4174 30.7285 11.0158 30.7549 11.5625 30.8125C11.7688 30.8898 11.975 30.9672 12.1875 31.0469C12.1875 28.8297 12.1875 26.6125 12.1875 24.3281ZM10.0195 32.585C9.81261 32.8555 9.71382 33.1294 9.68752 33.4687C9.76793 33.9959 10.0083 34.2291 10.4151 34.5479C10.7949 34.7157 11.1192 34.6868 11.499 34.5527C11.8025 34.3504 12.0224 34.1115 12.1875 33.7812C12.23 33.3942 12.2316 33.0882 12.0557 32.7363C11.7541 32.394 11.5578 32.2102 11.0986 32.1455C10.6148 32.1168 10.3657 32.2467 10.0195 32.585Z" fill="#006AFF"></path><path d="M23.8281 7.53125C25.6191 7.53125 25.6191 7.53125 26.4453 8.07812C26.537 8.13506 26.6289 8.19161 26.721 8.24782C26.9117 8.36463 27.1014 8.48295 27.2905 8.60246C27.7156 8.86916 28.153 9.11434 28.5899 9.36097C28.8179 9.48988 29.0451 9.62013 29.2725 9.75018C29.852 10.0809 30.4332 10.4088 31.0156 10.7344C31.0156 10.7859 31.0156 10.8375 31.0156 10.8906C30.8818 10.9671 30.7479 11.0436 30.614 11.1201C30.5265 11.1701 30.439 11.2201 30.3489 11.2716C30.1531 11.3835 29.9574 11.4953 29.7616 11.6072C29.1457 11.9591 29.1457 11.9591 28.53 12.3112C28.4818 12.3387 28.4336 12.3663 28.384 12.3947C28.2883 12.4495 28.1925 12.5043 28.0968 12.5591C27.8639 12.6925 27.6307 12.8254 27.3969 12.9573C26.9694 13.1991 26.5472 13.4414 26.1427 13.7204C25.2531 14.2556 25.0715 14.0938 23.8281 14.0938C23.8281 11.9281 23.8281 9.7625 23.8281 7.53125ZM25.2344 9.09375C25.2344 10.2281 25.2344 11.3625 25.2344 12.5312C25.5327 12.4119 25.7904 12.2901 26.0684 12.1342C26.1525 12.0871 26.2365 12.0401 26.3231 11.9915C26.4102 11.9425 26.4972 11.8934 26.5869 11.8428C26.6731 11.7946 26.7592 11.7464 26.848 11.6967C27.5371 11.3126 27.5371 11.3126 28.2031 10.8906C28.2031 10.8391 28.2031 10.7875 28.2031 10.7344C28.1489 10.7041 28.0946 10.6738 28.0387 10.6427C27.7875 10.5024 27.5363 10.3621 27.2852 10.2217C27.1572 10.1503 27.1572 10.1503 27.0267 10.0775C26.5102 9.78871 25.9978 9.49471 25.4888 9.19295C25.3349 9.08737 25.3349 9.08737 25.2344 9.09375Z" fill="#006AFF"></path><path d="M3.82812 14.0156C8.10781 14.0156 12.3875 14.0156 16.7969 14.0156C16.7969 14.4539 16.7969 14.8922 16.7969 15.3438C12.5172 15.3438 8.2375 15.3438 3.82812 15.3438C3.82812 14.9055 3.82812 14.4672 3.82812 14.0156Z" fill="#006AFF"></path><path d="M3.82812 11.4375C8.10781 11.4375 12.3875 11.4375 16.7969 11.4375C16.7969 11.8758 16.7969 12.3141 16.7969 12.7656C12.5172 12.7656 8.2375 12.7656 3.82812 12.7656C3.82812 12.3273 3.82812 11.8891 3.82812 11.4375Z" fill="#006AFF"></path><path d="M3.82812 16.5938C7.25703 16.5938 10.6859 16.5938 14.2188 16.5938C14.2188 17.032 14.2188 17.4703 14.2188 17.9219C10.7898 17.9219 7.36094 17.9219 3.82812 17.9219C3.82812 17.4836 3.82812 17.0453 3.82812 16.5938Z" fill="#006AFF"></path><path d="M30.9247 22.7849C31.3025 23.0891 31.5399 23.4602 31.6406 23.9366C31.6988 24.6118 31.6161 25.1063 31.2402 25.67C30.8156 26.1325 30.2892 26.3406 29.6692 26.3683C29.0712 26.3413 28.6097 26.1517 28.1793 25.7335C27.7649 25.2446 27.6778 24.7426 27.6993 24.1103C27.7688 23.6119 27.9761 23.1842 28.3545 22.8478C29.2017 22.2772 30.0558 22.2084 30.9247 22.7849ZM29.2725 23.9122C29.1229 24.1172 29.0687 24.2298 29.0625 24.4835C29.1993 24.7736 29.1993 24.7736 29.4531 24.9523C29.7374 24.9832 29.8708 24.9909 30.1025 24.8155C30.2711 24.5933 30.2711 24.5933 30.3125 24.3273C30.2032 24.1086 30.0947 23.9532 29.9219 23.7804C29.6398 23.7436 29.5051 23.7424 29.2725 23.9122Z" fill="#006AFF"></path><path d="M19.2969 19.7969C19.7609 19.7969 20.225 19.7969 20.7031 19.7969C20.7031 20.2609 20.7031 20.725 20.7031 21.2031C20.2391 21.2031 19.775 21.2031 19.2969 21.2031C19.2969 20.7391 19.2969 20.275 19.2969 19.7969Z" fill="#006AFF"></path><path d="M8.98438 8.85938C9.44844 8.85938 9.9125 8.85938 10.3906 8.85938C10.3906 9.29766 10.3906 9.73594 10.3906 10.1875C9.92656 10.1875 9.4625 10.1875 8.98438 10.1875C8.98438 9.74922 8.98438 9.31094 8.98438 8.85938Z" fill="#006AFF"></path><path d="M6.40625 8.85938C6.87031 8.85938 7.33438 8.85938 7.8125 8.85938C7.8125 9.29766 7.8125 9.73594 7.8125 10.1875C7.34844 10.1875 6.88437 10.1875 6.40625 10.1875C6.40625 9.74922 6.40625 9.31094 6.40625 8.85938Z" fill="#006AFF"></path><path d="M3.82812 8.85938C4.29219 8.85938 4.75625 8.85938 5.23438 8.85938C5.23438 9.29766 5.23438 9.73594 5.23438 10.1875C4.77031 10.1875 4.30625 10.1875 3.82812 10.1875C3.82812 9.74922 3.82812 9.31094 3.82812 8.85938Z" fill="#006AFF"></path></g><defs><clipPath id="clip0_3995_9944"><rect width="40" height="40" fill="white" transform="translate(0 0.5)"></rect></clipPath></defs></svg>