<svg xmlns="http://www.w3.org/2000/svg" width="40" height="41" viewBox="0 0 40 41" fill="none"><g clip-path="url(#clip0_3917_7039)"><path d="M37.5383 40.3967L25.2417 28.1C21.6817 32.03 18.4567 37.1683 18.4567 37.1683C18.4567 37.1683 17.3567 30.1733 21.7567 24.6167L20.4867 23.3467L22.8433 20.99L24.1133 22.26C29.6683 17.86 36.6633 18.96 36.6633 18.96C36.7483 19.0733 31.5433 22.2067 27.6 25.7483L39.8933 38.0417L37.5367 40.3983L37.5383 40.3967ZM3.33333 29.5983V33.4767C3.33333 34.7283 7.15667 37.1667 14.1667 37.1667C14.495 37.1667 14.7817 37.1367 15.0967 37.1267C15.1283 37.4417 15.1567 37.6383 15.165 37.6883L15.605 40.465C15.1267 40.4867 14.6467 40.5017 14.1667 40.5017C7.12667 40.5017 0 38.09 0 33.4783V7.16667C0 3 6.94167 0.5 14.1667 0.5C22.2433 0.5 28.3333 3.725 28.3333 8V16.415C27.2433 16.7383 26.12 17.1967 25 17.77V12.9317C22.4417 14.5217 18.6083 15.5 14.1667 15.5C9.725 15.5 5.89167 14.52 3.33333 12.9317V16.3333C3.33333 18.0333 7.55333 20.5 14.1667 20.5C16.0317 20.5 17.6967 20.3 19.14 19.98L15.3317 23.7883C14.9433 23.805 14.565 23.835 14.1667 23.835C9.725 23.835 5.89167 22.855 3.33333 21.2667V24.6683C3.33333 26.3683 7.55333 28.835 14.1667 28.835C14.78 28.835 15.365 28.8067 15.935 28.7683C15.58 29.9517 15.3483 31.09 15.21 32.14C14.8633 32.1517 14.5217 32.1683 14.1667 32.1683C9.725 32.1683 5.89167 31.1867 3.33333 29.5983ZM3.33333 8C3.33333 9.7 7.55333 12.1667 14.1667 12.1667C20.78 12.1667 25 9.7 25 8C25 6.3 20.78 3.83333 14.1667 3.83333C7.55333 3.83333 3.33333 6.3 3.33333 8Z" fill="#006AFF"></path></g><defs><clipPath id="clip0_3917_7039"><rect width="40" height="40" fill="white" transform="translate(0 0.5)"></rect></clipPath></defs></svg>