<svg xmlns="http://www.w3.org/2000/svg" width="24" height="25" viewBox="0 0 24 25" fill="none"><path d="M20.5271 4.71787L14.5001 1.23787C13.7396 0.800495 12.8775 0.570312 12.0001 0.570312C11.1228 0.570312 10.2607 0.800495 9.50014 1.23787L3.47314 4.71787C2.71402 5.15779 2.08362 5.7892 1.64492 6.54902C1.20622 7.30885 0.974581 8.17049 0.973145 9.04787V16.0079C0.974607 16.8854 1.20625 17.7472 1.64494 18.5071C2.08362 19.2671 2.71401 19.8987 3.47314 20.3389L9.50014 23.8179C10.2606 24.2555 11.1227 24.4859 12.0001 24.4859C12.8776 24.4859 13.7397 24.2555 14.5001 23.8179L20.5271 20.3389C21.2863 19.8987 21.9167 19.2671 22.3554 18.5071C22.794 17.7472 23.0257 16.8854 23.0271 16.0079V9.04787C23.0257 8.17049 22.7941 7.30885 22.3554 6.54902C21.9167 5.7892 21.2863 5.15779 20.5271 4.71787ZM10.5001 2.97087C10.9562 2.70757 11.4735 2.56895 12.0001 2.56895C12.5268 2.56895 13.0441 2.70757 13.5001 2.97087L19.5271 6.44987C19.68 6.54647 19.8236 6.65694 19.9561 6.77987L13.7631 10.3549C13.227 10.664 12.619 10.8266 12.0001 10.8266C11.3813 10.8266 10.7733 10.664 10.2371 10.3549L4.04414 6.77987C4.17671 6.65694 4.32032 6.54647 4.47314 6.44987L10.5001 2.97087ZM4.47314 18.6059C4.01735 18.3418 3.6389 17.9626 3.37566 17.5063C3.11242 17.0501 2.97362 16.5326 2.97314 16.0059V9.04787C2.98009 8.86772 3.00386 8.68861 3.04414 8.51287L9.23715 12.0879C9.78409 12.399 10.3804 12.6138 11.0001 12.7229V22.2919C10.8274 22.239 10.66 22.17 10.5001 22.0859L4.47314 18.6059ZM21.0271 16.0059C21.0267 16.5326 20.8879 17.0501 20.6246 17.5063C20.3614 17.9626 19.9829 18.3418 19.5271 18.6059L13.5001 22.0859C13.3403 22.17 13.1729 22.239 13.0001 22.2919V12.7229C13.6199 12.6138 14.2162 12.399 14.7631 12.0879L20.9561 8.51287C20.9964 8.68861 21.0202 8.86772 21.0271 9.04787V16.0059Z" fill="#006AFF"></path></svg>