<svg xmlns="http://www.w3.org/2000/svg" width="24" height="21" viewBox="0 0 24 21" fill="none"><path d="M23.28 6.96C23.71 6.84 24 6.44 24 6V4.5C24 2.29 22.21 0.5 20 0.5H4C1.79 0.5 0 2.29 0 4.5V6C0 6.44 0.29 6.83 0.71 6.96C0.84 7 2 7.39 2 8.5C2 9.61 0.85 10 0.72 10.04C0.29 10.16 0 10.56 0 11V17.5C0 19.15 1.35 20.5 3 20.5H21C22.65 20.5 24 19.15 24 17.5V11C24 10.56 23.71 10.17 23.29 10.04C23.16 10 22 9.61 22 8.5C22 7.39 23.15 7 23.28 6.96ZM2 17.5V16.5H5V18.5H3C2.45 18.5 2 18.05 2 17.5ZM17 18.5H15V16.5H17V18.5ZM13 18.5H11V16.5H13V18.5ZM9 18.5H7V16.5H9V18.5ZM21 18.5H19V16.5H22V17.5C22 18.05 21.55 18.5 21 18.5ZM22 5.34C21.08 5.84 20 6.85 20 8.5C20 10.15 21.08 11.16 22 11.66V14.5H2V11.66C2.92 11.16 4 10.15 4 8.5C4 6.85 2.92 5.84 2 5.34V4.5C2 3.4 2.9 2.5 4 2.5H20C21.1 2.5 22 3.4 22 4.5V5.34ZM13 5.5V11.5C13 12.05 12.55 12.5 12 12.5C11.45 12.5 11 12.05 11 11.5V5.5C11 4.95 11.45 4.5 12 4.5C12.55 4.5 13 4.95 13 5.5ZM8 5.5V11.5C8 12.05 7.55 12.5 7 12.5C6.45 12.5 6 12.05 6 11.5V5.5C6 4.95 6.45 4.5 7 4.5C7.55 4.5 8 4.95 8 5.5ZM18 5.5V11.5C18 12.05 17.55 12.5 17 12.5C16.45 12.5 16 12.05 16 11.5V5.5C16 4.95 16.45 4.5 17 4.5C17.55 4.5 18 4.95 18 5.5Z" fill="#006AFF"></path></svg>