<svg xmlns="http://www.w3.org/2000/svg" width="20" height="21" viewBox="0 0 20 21" fill="none"><g clip-path="url(#clip0_8317_13674)"><path d="M0 16.334C0.00132321 17.4386 0.440735 18.4977 1.22185 19.2788C2.00296 20.0599 3.062 20.4993 4.16667 20.5007H15.8333C16.938 20.4993 17.997 20.0599 18.7782 19.2788C19.5593 18.4977 19.9987 17.4386 20 16.334V8.83398H0V16.334ZM14.1667 12.584C14.4139 12.584 14.6556 12.6573 14.8611 12.7946C15.0667 12.932 15.2269 13.1272 15.3215 13.3556C15.4161 13.584 15.4409 13.8354 15.3926 14.0778C15.3444 14.3203 15.2254 14.5431 15.0505 14.7179C14.8757 14.8927 14.653 15.0117 14.4105 15.06C14.1681 15.1082 13.9167 15.0834 13.6883 14.9888C13.4599 14.8942 13.2647 14.734 13.1273 14.5284C12.99 14.3229 12.9167 14.0812 12.9167 13.834C12.9167 13.5025 13.0484 13.1845 13.2828 12.9501C13.5172 12.7157 13.8351 12.584 14.1667 12.584ZM10 12.584C10.2472 12.584 10.4889 12.6573 10.6945 12.7946C10.9 12.932 11.0602 13.1272 11.1548 13.3556C11.2495 13.584 11.2742 13.8354 11.226 14.0778C11.1777 14.3203 11.0587 14.5431 10.8839 14.7179C10.7091 14.8927 10.4863 15.0117 10.2439 15.06C10.0014 15.1082 9.75005 15.0834 9.52165 14.9888C9.29324 14.8942 9.09801 14.734 8.96066 14.5284C8.82331 14.3229 8.75 14.0812 8.75 13.834C8.75 13.5025 8.8817 13.1845 9.11612 12.9501C9.35054 12.7157 9.66848 12.584 10 12.584ZM5.83333 12.584C6.08056 12.584 6.32223 12.6573 6.5278 12.7946C6.73336 12.932 6.89357 13.1272 6.98818 13.3556C7.08279 13.584 7.10755 13.8354 7.05931 14.0778C7.01108 14.3203 6.89203 14.5431 6.71722 14.7179C6.5424 14.8927 6.31967 15.0117 6.0772 15.06C5.83472 15.1082 5.58339 15.0834 5.35498 14.9888C5.12657 14.8942 4.93135 14.734 4.794 14.5284C4.65664 14.3229 4.58333 14.0812 4.58333 13.834C4.58333 13.5025 4.71503 13.1845 4.94945 12.9501C5.18387 12.7157 5.50181 12.584 5.83333 12.584Z" fill="#0094FF"></path><path d="M15.8333 2.16667H15V1.33333C15 1.11232 14.9122 0.900358 14.7559 0.744078C14.5996 0.587797 14.3877 0.5 14.1667 0.5C13.9457 0.5 13.7337 0.587797 13.5774 0.744078C13.4211 0.900358 13.3333 1.11232 13.3333 1.33333V2.16667H6.66667V1.33333C6.66667 1.11232 6.57887 0.900358 6.42259 0.744078C6.26631 0.587797 6.05435 0.5 5.83333 0.5C5.61232 0.5 5.40036 0.587797 5.24408 0.744078C5.0878 0.900358 5 1.11232 5 1.33333V2.16667H4.16667C3.062 2.16799 2.00296 2.6074 1.22185 3.38852C0.440735 4.16963 0.00132321 5.22867 0 6.33333L0 7.16667H20V6.33333C19.9987 5.22867 19.5593 4.16963 18.7782 3.38852C17.997 2.6074 16.938 2.16799 15.8333 2.16667Z" fill="#0094FF"></path></g><defs><clipPath id="clip0_8317_13674"><rect width="20" height="20" fill="white" transform="translate(0 0.5)"></rect></clipPath></defs></svg>