<svg xmlns="http://www.w3.org/2000/svg" width="20" height="21" viewBox="0 0 20 21" fill="none"><path d="M10 0.5C8.02219 0.5 6.08879 1.08649 4.4443 2.1853C2.79981 3.28412 1.51809 4.8459 0.761209 6.67317C0.00433286 8.50043 -0.193701 10.5111 0.192152 12.4509C0.578004 14.3907 1.53041 16.1725 2.92894 17.5711C4.32746 18.9696 6.10929 19.922 8.0491 20.3079C9.98891 20.6937 11.9996 20.4957 13.8268 19.7388C15.6541 18.9819 17.2159 17.7002 18.3147 16.0557C19.4135 14.4112 20 12.4778 20 10.5C19.9971 7.84872 18.9426 5.30684 17.0679 3.4321C15.1932 1.55736 12.6513 0.502868 10 0.5ZM10.8333 10.3992C10.8334 10.5404 10.7976 10.6794 10.7292 10.803C10.6609 10.9266 10.5622 11.0308 10.4425 11.1058L7.2425 13.1058C7.14949 13.1639 7.04593 13.2032 6.93775 13.2213C6.82958 13.2393 6.7189 13.2359 6.61203 13.2113C6.50517 13.1866 6.40421 13.1411 6.31493 13.0774C6.22564 13.0137 6.14978 12.933 6.09167 12.84C6.03356 12.747 5.99434 12.6434 5.97625 12.5352C5.95816 12.4271 5.96156 12.3164 5.98624 12.2095C6.01093 12.1027 6.05642 12.0017 6.12012 11.9124C6.18382 11.8231 6.26448 11.7473 6.3575 11.6892L9.16667 9.9375V6.33333C9.16667 6.11232 9.25447 5.90036 9.41075 5.74408C9.56703 5.5878 9.77899 5.5 10 5.5C10.221 5.5 10.433 5.5878 10.5893 5.74408C10.7455 5.90036 10.8333 6.11232 10.8333 6.33333V10.3992Z" fill="#0094FF"></path></svg>