<svg xmlns="http://www.w3.org/2000/svg" width="34" height="25" viewBox="0 0 34 25" fill="none"><path d="M33.6432 6.23878L33.6015 5.95878L33.5582 5.96878C33.262 4.58384 32.5798 3.31105 31.5904 2.29769C30.601 1.28433 29.3449 0.571816 27.9675 0.242582C26.59 -0.0866525 25.1475 -0.0191468 23.8068 0.437289C22.4661 0.893724 21.2821 1.72043 20.3917 2.82176C19.5013 3.92309 18.9409 5.25402 18.7754 6.66057C18.6098 8.06711 18.846 9.49178 19.4564 10.7697C20.0668 12.0477 21.0266 13.1267 22.2247 13.8819C23.4228 14.6371 24.8102 15.0376 26.2265 15.0371C26.5982 15.0371 26.9548 14.9804 27.3098 14.9288C27.1948 15.3154 27.0765 15.7088 26.8865 16.0621C26.6965 16.5754 26.3998 17.0204 26.1048 17.4688C25.8582 17.9538 25.4232 18.2821 25.1031 18.6971C24.7682 19.1004 24.3115 19.3688 23.9498 19.7038C23.5948 20.0538 23.1298 20.2288 22.7598 20.4754C22.3731 20.6971 22.0365 20.9421 21.6765 21.0588L20.7782 21.4288L19.9881 21.7571L20.7948 24.9888L21.7898 24.7488C22.1082 24.6688 22.4965 24.5754 22.9382 24.4638C23.3898 24.3804 23.8715 24.1521 24.4081 23.9438C24.9365 23.7054 25.5515 23.5471 26.1215 23.1654C26.6948 22.8021 27.3565 22.4988 27.9398 22.0121C28.5048 21.5104 29.1865 21.0754 29.6898 20.4388C30.2398 19.8421 30.7831 19.2154 31.2048 18.5021C31.6931 17.8221 32.0248 17.0754 32.3748 16.3371C32.6915 15.5988 32.9465 14.8438 33.1548 14.1104C33.5498 12.6404 33.7265 11.2438 33.7948 10.0488C33.8515 8.85211 33.8181 7.85711 33.7481 7.13711C33.7247 6.83642 33.6897 6.53676 33.6432 6.23878ZM15.3098 6.23878L15.2682 5.95878L15.2248 5.96878C14.9287 4.58384 14.2464 3.31105 13.2571 2.29769C12.2677 1.28433 11.0116 0.571816 9.63415 0.242582C8.2567 -0.0866525 6.81418 -0.0191468 5.47349 0.437289C4.13281 0.893724 2.94876 1.72043 2.05835 2.82176C1.16793 3.92309 0.607547 5.25402 0.442027 6.66057C0.276507 8.06711 0.51262 9.49178 1.12305 10.7697C1.73347 12.0477 2.69326 13.1267 3.89136 13.8819C5.08946 14.6371 6.4769 15.0376 7.89315 15.0371C8.26482 15.0371 8.62148 14.9804 8.97648 14.9288C8.86148 15.3154 8.74315 15.7088 8.55315 16.0621C8.36315 16.5754 8.06648 17.0204 7.77148 17.4688C7.52482 17.9538 7.08982 18.2821 6.76982 18.6971C6.43482 19.1004 5.97815 19.3688 5.61648 19.7038C5.26148 20.0538 4.79648 20.2288 4.42649 20.4754C4.03982 20.6971 3.70315 20.9421 3.34315 21.0588L2.44482 21.4288C1.94315 21.6338 1.65648 21.7538 1.65648 21.7538L2.46315 24.9854L3.45815 24.7454C3.77648 24.6654 4.16482 24.5721 4.60648 24.4604C5.05815 24.3771 5.53982 24.1488 6.07648 23.9404C6.60482 23.7021 7.21982 23.5438 7.78982 23.1621C8.36315 22.7988 9.02482 22.4954 9.60815 22.0088C10.1732 21.5071 10.8548 21.0721 11.3582 20.4354C11.9082 19.8388 12.4515 19.2121 12.8731 18.4988C13.3615 17.8188 13.6932 17.0721 14.0431 16.3338C14.3598 15.5954 14.6148 14.8404 14.8232 14.1071C15.2182 12.6371 15.3948 11.2404 15.4632 10.0454C15.5198 8.84878 15.4865 7.85378 15.4165 7.13378C15.3916 6.83427 15.356 6.53574 15.3098 6.23878Z" fill="#0094FF"></path></svg>