<svg xmlns="http://www.w3.org/2000/svg" width="25" height="25" viewBox="0 0 25 25" fill="none"><path d="M16.3613 12.123C16.3613 11.5926 16.572 11.0839 16.9471 10.7088C17.3222 10.3338 17.8309 10.123 18.3613 10.123C18.8918 10.123 19.4005 10.3338 19.7755 10.7088C20.1506 11.0839 20.3613 11.5926 20.3613 12.123C20.3613 12.6535 20.1506 13.1622 19.7755 13.5373C19.4005 13.9123 18.8918 14.123 18.3613 14.123C17.8309 14.123 17.3222 13.9123 16.9471 13.5373C16.572 13.1622 16.3613 12.6535 16.3613 12.123ZM10.3613 12.123C10.3613 11.5926 10.572 11.0839 10.9471 10.7088C11.3222 10.3338 11.8309 10.123 12.3613 10.123C12.8918 10.123 13.4005 10.3338 13.7755 10.7088C14.1506 11.0839 14.3613 11.5926 14.3613 12.123C14.3613 12.6535 14.1506 13.1622 13.7755 13.5373C13.4005 13.9123 12.8918 14.123 12.3613 14.123C11.8309 14.123 11.3222 13.9123 10.9471 13.5373C10.572 13.1622 10.3613 12.6535 10.3613 12.123ZM4.36133 12.123C4.36133 11.5926 4.57204 11.0839 4.94711 10.7088C5.32219 10.3338 5.8309 10.123 6.36133 10.123C6.89176 10.123 7.40047 10.3338 7.77554 10.7088C8.15061 11.0839 8.36133 11.5926 8.36133 12.123C8.36133 12.6535 8.15061 13.1622 7.77554 13.5373C7.40047 13.9123 6.89176 14.123 6.36133 14.123C5.8309 14.123 5.32219 13.9123 4.94711 13.5373C4.57204 13.1622 4.36133 12.6535 4.36133 12.123Z" fill="white"></path></svg>