<svg xmlns="http://www.w3.org/2000/svg" width="59" height="31" viewBox="0 0 59 31" fill="none"><path d="M12.3613 15.3164C12.3613 14.9186 12.5194 14.5371 12.8007 14.2557C13.082 13.9744 13.4635 13.8164 13.8613 13.8164C14.2592 13.8164 14.6407 13.9744 14.922 14.2557C15.2033 14.5371 15.3613 14.9186 15.3613 15.3164C15.3613 15.7142 15.2033 16.0958 14.922 16.3771C14.6407 16.6584 14.2592 16.8164 13.8613 16.8164C13.4635 16.8164 13.082 16.6584 12.8007 16.3771C12.5194 16.0958 12.3613 15.7142 12.3613 15.3164ZM7.86133 15.3164C7.86133 14.9186 8.01936 14.5371 8.30067 14.2557C8.58197 13.9744 8.9635 13.8164 9.36133 13.8164C9.75915 13.8164 10.1407 13.9744 10.422 14.2557C10.7033 14.5371 10.8613 14.9186 10.8613 15.3164C10.8613 15.7142 10.7033 16.0958 10.422 16.3771C10.1407 16.6584 9.75915 16.8164 9.36133 16.8164C8.9635 16.8164 8.58197 16.6584 8.30067 16.3771C8.01936 16.0958 7.86133 15.7142 7.86133 15.3164ZM3.36133 15.3164C3.36133 14.9186 3.51936 14.5371 3.80067 14.2557C4.08197 13.9744 4.4635 13.8164 4.86133 13.8164C5.25915 13.8164 5.64068 13.9744 5.92199 14.2557C6.20329 14.5371 6.36133 14.9186 6.36133 15.3164C6.36133 15.7142 6.20329 16.0958 5.92199 16.3771C5.64068 16.6584 5.25915 16.8164 4.86133 16.8164C4.4635 16.8164 4.08197 16.6584 3.80067 16.3771C3.51936 16.0958 3.36133 15.7142 3.36133 15.3164Z" fill="white"></path><path d="M40.8613 20.9414V9.69141L48.3613 15.3164M43.3613 2.81641C41.7198 2.81641 40.0944 3.13973 38.5778 3.76791C37.0612 4.3961 35.6832 5.31684 34.5225 6.47757C32.1783 8.82178 30.8613 12.0012 30.8613 15.3164C30.8613 18.6316 32.1783 21.811 34.5225 24.1552C35.6832 25.316 37.0612 26.2367 38.5778 26.8649C40.0944 27.4931 41.7198 27.8164 43.3613 27.8164C46.6765 27.8164 49.856 26.4994 52.2002 24.1552C54.5444 21.811 55.8613 18.6316 55.8613 15.3164C55.8613 13.6749 55.538 12.0494 54.9098 10.5329C54.2816 9.01629 53.3609 7.6383 52.2002 6.47757C51.0394 5.31684 49.6614 4.3961 48.1449 3.76791C46.6283 3.13973 45.0029 2.81641 43.3613 2.81641Z" fill="white"></path></svg>