<svg xmlns="http://www.w3.org/2000/svg" width="46" height="46" viewBox="0 0 46 46" fill="none"><path d="M19.1113 31.5605V14.6855L30.3613 23.123M22.8613 4.37305C20.399 4.37305 17.9609 4.85803 15.686 5.80031C13.4112 6.74258 11.3442 8.1237 9.60308 9.86479C6.08677 13.3811 4.11133 18.1502 4.11133 23.123C4.11133 28.0959 6.08677 32.865 9.60308 36.3813C11.3442 38.1224 13.4112 39.5035 15.686 40.4458C17.9609 41.3881 20.399 41.873 22.8613 41.873C27.8341 41.873 32.6033 39.8976 36.1196 36.3813C39.6359 32.865 41.6113 28.0959 41.6113 23.123C41.6113 20.6608 41.1263 18.2226 40.1841 15.9477C39.2418 13.6729 37.8607 11.6059 36.1196 9.86479C34.3785 8.1237 32.3115 6.74258 30.0366 5.80031C27.7618 4.85803 25.3236 4.37305 22.8613 4.37305Z" fill="white"></path></svg>