<svg xmlns="http://www.w3.org/2000/svg" width="20" height="20" viewBox="0 0 20 20" fill="none"><g clip-path="url(#clip0_297_51275)"><path d="M12.5 2.5C12.5 1.83696 12.2366 1.20107 11.7678 0.732233C11.2989 0.263392 10.663 0 10 0L0 0V20H1.66667V10.8333H8.33333V11.6667C8.33333 12.3297 8.59672 12.9656 9.06557 13.4344C9.53441 13.9033 10.1703 14.1667 10.8333 14.1667H20V3.33333H12.5V2.5ZM1.66667 1.66667H10C10.221 1.66667 10.433 1.75446 10.5893 1.91074C10.7455 2.06702 10.8333 2.27899 10.8333 2.5V9.16667H1.66667V1.66667ZM18.3333 5V12.5H10.8333C10.6123 12.5 10.4004 12.4122 10.2441 12.2559C10.0878 12.0996 10 11.8877 10 11.6667V10.8333H12.5V5H18.3333Z" fill="#006AFF"></path></g><defs><clipPath id="clip0_297_51275"><rect width="20" height="20" fill="white"></rect></clipPath></defs></svg>