<svg xmlns="http://www.w3.org/2000/svg" width="21" height="20" viewBox="0 0 21 20" fill="none"><g clip-path="url(#clip0_297_51273)"><path d="M13 2.5C13 1.83696 12.7366 1.20107 12.2678 0.732233C11.7989 0.263392 11.163 0 10.5 0L0.5 0V20H2.16667V10.8333H8.83333V11.6667C8.83333 12.3297 9.09672 12.9656 9.56557 13.4344C10.0344 13.9033 10.6703 14.1667 11.3333 14.1667H20.5V3.33333H13V2.5ZM2.16667 1.66667H10.5C10.721 1.66667 10.933 1.75446 11.0893 1.91074C11.2455 2.06702 11.3333 2.27899 11.3333 2.5V9.16667H2.16667V1.66667ZM18.8333 5V12.5H11.3333C11.1123 12.5 10.9004 12.4122 10.7441 12.2559C10.5878 12.0996 10.5 11.8877 10.5 11.6667V10.8333H13V5H18.8333Z" fill="#656572"></path></g><defs><clipPath id="clip0_297_51273"><rect width="20" height="20" fill="white" transform="translate(0.5)"></rect></clipPath></defs></svg>