<svg xmlns="http://www.w3.org/2000/svg" width="20" height="20" viewBox="0 0 20 20" fill="none"><g clip-path="url(#clip0_297_51290)"><path d="M19.3507 4.78583L16.8416 1.39583C16.533 0.964446 16.1261 0.612808 15.6545 0.370064C15.1829 0.12732 14.6603 0.000461434 14.1299 1.46866e-06H5.87158C5.34378 -0.000493946 4.8234 0.124354 4.35327 0.364271C3.88315 0.604187 3.47671 0.952314 3.16742 1.38L0.613251 4.79417C0.197388 5.38058 -0.0173775 6.0859 0.00109982 6.80456C0.0195771 7.52322 0.270303 8.21657 0.715751 8.78083L8.04242 19.0542C8.27591 19.3498 8.5735 19.5886 8.91274 19.7524C9.25199 19.9163 9.62401 20.0009 10.0008 20C10.384 19.9992 10.7619 19.9106 11.1054 19.7408C11.449 19.5711 11.749 19.3247 11.9824 19.0208L19.2508 8.86167C19.7161 8.28916 19.9784 7.57841 19.9965 6.84082C20.0146 6.10323 19.7875 5.38048 19.3507 4.78583ZM15.4941 2.37583L18.0091 5.77417C18.0224 5.7925 18.0258 5.81417 18.0391 5.83333H13.9624L12.7724 1.66667H14.1299C14.3974 1.6675 14.6608 1.7323 14.8981 1.85567C15.1354 1.97904 15.3397 2.15739 15.4941 2.37583ZM10.0008 15.9317L7.75075 7.5H12.2508L10.0008 15.9317ZM7.77242 5.83333L8.96242 1.66667H11.0391L12.2291 5.83333H7.77242ZM4.51492 2.36417C4.66954 2.14866 4.87321 1.97302 5.1091 1.85174C5.34499 1.73046 5.60634 1.66702 5.87158 1.66667H7.22908L6.03908 5.83333H1.93242C1.94408 5.815 1.94742 5.7925 1.96075 5.775L4.51492 2.36417ZM2.04075 7.77083C1.98058 7.68585 1.92894 7.59513 1.88658 7.5H6.02742L8.52242 16.8583L2.04075 7.77083ZM11.4766 16.8667L13.9766 7.5H18.1316C18.0779 7.62439 18.0099 7.74212 17.9291 7.85083L11.4766 16.8667Z" fill="#006AFF"></path></g><defs><clipPath id="clip0_297_51290"><rect width="19.9975" height="20" fill="white"></rect></clipPath></defs></svg>