<svg xmlns="http://www.w3.org/2000/svg" width="90" height="90" viewBox="0 0 90 90" fill="none"><rect width="90" height="90" rx="10" fill="#F2F8FF"></rect><g clip-path="url(#clip0_1_43679)"><path d="M65 40.8334C65 38.8184 63.5683 37.1367 61.6667 36.7501V26.6667C61.6667 25.7984 61.0017 25.0767 60.1383 25.0051C59.2817 24.9251 58.5 25.5367 58.3567 26.3917C57.7083 30.2801 52.3233 31.6667 47.5 31.6667H34.1667C29.1117 31.6667 25 35.7784 25 40.8334C25 43.5851 26.22 46.0584 28.1467 47.7401L33.3833 61.7117C33.84 62.9651 34.76 63.9684 35.97 64.5317C36.6417 64.8451 37.3583 65.0017 38.0767 65.0017C38.655 65.0017 39.2333 64.9001 39.7933 64.6967C41.0467 64.2401 42.05 63.3201 42.6133 62.1101C43.1767 60.8984 43.235 59.5417 42.7783 58.2901L39.7733 50.0001H47.5C52.3233 50.0001 57.7083 51.3851 58.3567 55.2751C58.4917 56.0834 59.1917 56.6667 59.9983 56.6667C60.045 56.6667 60.0917 56.6667 60.1367 56.6617C61.0017 56.5901 61.665 55.8684 61.665 55.0001V44.9167C63.5667 44.5301 65 42.8501 65 40.8334ZM34.1667 35.0001H36.66L36.61 46.6667H34.1683C30.9517 46.6667 28.335 44.0501 28.335 40.8334C28.335 37.6167 30.95 35.0001 34.1667 35.0001ZM39.6467 59.4284C39.7983 59.8451 39.78 60.2984 39.5917 60.7017C39.4033 61.1051 39.07 61.4117 38.6517 61.5651C38.235 61.7184 37.7817 61.6984 37.3783 61.5101C36.975 61.3217 36.6683 60.9884 36.51 60.5567L32.4967 49.8484C33.0383 49.9484 33.5967 50.0017 34.1667 50.0017H36.2283L39.6467 59.4301V59.4284ZM58.3333 49.4984C55.855 47.6734 52.1333 46.6667 47.5 46.6667H39.9417L39.9917 35.0001H47.4983C52.1317 35.0001 55.8533 33.9934 58.3317 32.1684V49.4967L58.3333 49.4984Z" fill="#006AFF"></path></g><defs><clipPath id="clip0_1_43679"><rect width="40" height="40" fill="white" transform="translate(25 25)"></rect></clipPath></defs></svg>