<svg xmlns="http://www.w3.org/2000/svg" width="90" height="90" viewBox="0 0 90 90" fill="none"><rect width="90" height="90" rx="10" fill="#F2F8FF"></rect><g clip-path="url(#clip0_1_43685)"><path d="M55.001 40.107C55.0012 39.4366 54.8688 38.7728 54.6113 38.1538C54.3539 37.5348 53.9765 36.9728 53.501 36.5003C52.5278 35.5717 51.2344 35.0537 49.8893 35.0537C48.5442 35.0537 47.2508 35.5717 46.2776 36.5003L26.501 56.282C25.5983 57.2499 25.1067 58.5304 25.1297 59.8536C25.1527 61.1769 25.6885 62.4395 26.6242 63.3754C27.5599 64.3114 28.8224 64.8475 30.1457 64.8708C31.4689 64.8941 32.7495 64.4027 33.7176 63.5003L53.501 43.7187C53.9773 43.2457 54.3551 42.6829 54.6126 42.063C54.87 41.4431 55.002 40.7783 55.001 40.107ZM31.361 61.147C31.024 61.4682 30.5764 61.6473 30.111 61.6473C29.6455 61.6473 29.1979 61.4682 28.861 61.147C28.53 60.8152 28.3441 60.3657 28.3441 59.897C28.3441 59.4283 28.53 58.9788 28.861 58.647L41.8093 45.697L44.3176 48.2053L31.361 61.147ZM51.1476 41.3603L46.6676 45.842L44.1676 43.3337L48.6493 38.8537C48.809 38.6712 49.0046 38.5234 49.2238 38.4195C49.443 38.3157 49.6812 38.2579 49.9236 38.2499C50.166 38.2418 50.4075 38.2837 50.6331 38.3728C50.8587 38.4618 51.0636 38.5963 51.2351 38.7678C51.4066 38.9393 51.5411 39.1442 51.6302 39.3698C51.7193 39.5954 51.7611 39.8369 51.753 40.0794C51.745 40.3218 51.6873 40.56 51.5834 40.7792C51.4796 40.9984 51.3318 41.1939 51.1493 41.3537L51.1476 41.3603ZM33.1059 29.7587L35.6893 29.022L36.4259 26.4387C36.5446 26.0241 36.795 25.6595 37.1393 25.4C37.4836 25.1404 37.9031 25 38.3343 25C38.7655 25 39.1849 25.1404 39.5292 25.4C39.8735 25.6595 40.1239 26.0241 40.2426 26.4387L40.9793 29.022L43.5626 29.7587C43.9771 29.8773 44.3418 30.1278 44.6013 30.4721C44.8609 30.8164 45.0013 31.2358 45.0013 31.667C45.0013 32.0982 44.8609 32.5176 44.6013 32.8619C44.3418 33.2062 43.9771 33.4566 43.5626 33.5753L40.9793 34.312L40.2426 36.8953C40.1239 37.3099 39.8735 37.6745 39.5292 37.934C39.1849 38.1936 38.7655 38.334 38.3343 38.334C37.9031 38.334 37.4836 38.1936 37.1393 37.934C36.795 37.6745 36.5446 37.3099 36.4259 36.8953L35.6893 34.312L33.1059 33.5753C32.6914 33.4566 32.3268 33.2062 32.0672 32.8619C31.8077 32.5176 31.6673 32.0982 31.6673 31.667C31.6673 31.2358 31.8077 30.8164 32.0672 30.4721C32.3268 30.1278 32.6914 29.8773 33.1059 29.7587ZM63.5626 53.5753L60.9793 54.312L60.2426 56.8953C60.1239 57.3099 59.8735 57.6745 59.5292 57.934C59.1849 58.1936 58.7655 58.334 58.3343 58.334C57.9031 58.334 57.4837 58.1936 57.1393 57.934C56.795 57.6745 56.5446 57.3099 56.426 56.8953L55.6893 54.312L53.106 53.5753C52.6914 53.4567 52.3268 53.2062 52.0673 52.8619C51.8077 52.5176 51.6673 52.0982 51.6673 51.667C51.6673 51.2358 51.8077 50.8164 52.0673 50.4721C52.3268 50.1278 52.6914 49.8773 53.106 49.7587L55.6893 49.022L56.426 46.4387C56.5446 46.0241 56.795 45.6595 57.1393 45.4C57.4837 45.1404 57.9031 45 58.3343 45C58.7655 45 59.1849 45.1404 59.5292 45.4C59.8735 45.6595 60.1239 46.0241 60.2426 46.4387L60.9793 49.022L63.5626 49.7587C63.9771 49.8773 64.3418 50.1278 64.6013 50.4721C64.8609 50.8164 65.0013 51.2358 65.0013 51.667C65.0013 52.0982 64.8609 52.5176 64.6013 52.8619C64.3418 53.2062 63.9771 53.4567 63.5626 53.5753ZM54.5926 29.167L56.8526 28.522L57.501 26.2587C57.6065 25.8984 57.8259 25.5819 58.1264 25.3568C58.4269 25.1317 58.7922 25.0101 59.1676 25.0101C59.5431 25.0101 59.9084 25.1317 60.2089 25.3568C60.5093 25.5819 60.7288 25.8984 60.8343 26.2587L61.4793 28.5187L63.7393 29.1637C64.0996 29.2692 64.416 29.4886 64.6411 29.7891C64.8662 30.0896 64.9879 30.4549 64.9879 30.8303C64.9879 31.2058 64.8662 31.5711 64.6411 31.8716C64.416 32.172 64.0996 32.3915 63.7393 32.497L61.4793 33.142L60.8343 35.407C60.7288 35.7673 60.5093 36.0837 60.2089 36.3088C59.9084 36.5339 59.5431 36.6556 59.1676 36.6556C58.7922 36.6556 58.4269 36.5339 58.1264 36.3088C57.8259 36.0837 57.6065 35.7673 57.501 35.407L56.856 33.1487L54.5926 32.5003C54.2323 32.3948 53.9159 32.1754 53.6908 31.8749C53.4657 31.5744 53.344 31.2091 53.344 30.8337C53.344 30.4582 53.4657 30.0929 53.6908 29.7924C53.9159 29.4919 54.2323 29.2725 54.5926 29.167Z" fill="#006AFF"></path></g><defs><clipPath id="clip0_1_43685"><rect width="40" height="40" fill="white" transform="translate(25 25)"></rect></clipPath></defs></svg>