<svg xmlns="http://www.w3.org/2000/svg" width="90" height="90" viewBox="0 0 90 90" fill="none"><rect width="90" height="90" rx="10" fill="#F2F8FF"></rect><g clip-path="url(#clip0_1_43673)"><path d="M55.9554 28.5433L45.5237 25.085C45.1854 24.9717 44.8137 24.9717 44.4754 25.085L34.0437 28.5433C30.627 29.6767 28.332 32.855 28.332 36.4533V45.0717C28.332 56.01 40.007 62.7 43.5854 64.4883C43.5854 64.4883 44.302 65 45.002 65C45.702 65 46.3204 64.6 46.3204 64.6C49.9204 63.1517 61.6654 57.465 61.6654 45.0717V36.4533C61.6654 32.855 59.372 29.6767 55.9554 28.5433ZM58.3337 45.0717C58.3337 55.375 48.187 60.2567 45.0787 61.5067C41.9304 59.9333 31.667 54.1 31.667 45.0717V36.4533C31.667 34.295 33.0437 32.3883 35.0937 31.7067L45.0004 28.4217L54.907 31.7067C56.9554 32.3867 58.3337 34.295 58.3337 36.4533V45.0717ZM49.167 40.8333C49.167 42.5417 48.1387 44.01 46.667 44.6517V50C46.667 50.9217 45.922 51.6667 45.0004 51.6667C44.0787 51.6667 43.3337 50.9217 43.3337 50V44.6517C41.862 44.0083 40.8337 42.5417 40.8337 40.8333C40.8337 38.5317 42.6987 36.6667 45.0004 36.6667C47.302 36.6667 49.167 38.5317 49.167 40.8333Z" fill="#006AFF"></path></g><defs><clipPath id="clip0_1_43673"><rect width="40" height="40" fill="white" transform="translate(25 25)"></rect></clipPath></defs></svg>