<svg xmlns="http://www.w3.org/2000/svg" width="90" height="90" viewBox="0 0 90 90" fill="none"><rect width="90" height="90" rx="10" fill="#F2F8FF"></rect><g clip-path="url(#clip0_1_43691)"><path d="M56.6659 65.0008H48.3326C46.1233 64.9982 44.0052 64.1194 42.443 62.5571C40.8807 60.9949 40.0019 58.8768 39.9993 56.6675V48.3342C40.0019 46.1249 40.8807 44.0068 42.443 42.4445C44.0052 40.8823 46.1233 40.0035 48.3326 40.0008H56.6659C58.8752 40.0035 60.9933 40.8823 62.5556 42.4445C64.1178 44.0068 64.9966 46.1249 64.9993 48.3342V56.6675C64.9966 58.8768 64.1178 60.9949 62.5556 62.5571C60.9933 64.1194 58.8752 64.9982 56.6659 65.0008ZM48.3326 43.3342C47.0065 43.3342 45.7347 43.861 44.7971 44.7986C43.8594 45.7363 43.3326 47.0081 43.3326 48.3342V56.6675C43.3326 57.9936 43.8594 59.2654 44.7971 60.203C45.7347 61.1407 47.0065 61.6675 48.3326 61.6675H56.6659C57.992 61.6675 59.2638 61.1407 60.2015 60.203C61.1391 59.2654 61.6659 57.9936 61.6659 56.6675V48.3342C61.6659 47.0081 61.1391 45.7363 60.2015 44.7986C59.2638 43.861 57.992 43.3342 56.6659 43.3342H48.3326ZM48.3326 46.6675C48.003 46.6675 47.6807 46.7653 47.4066 46.9484C47.1326 47.1315 46.9189 47.3918 46.7928 47.6964C46.6666 48.0009 46.6336 48.336 46.6979 48.6593C46.7623 48.9826 46.921 49.2796 47.1541 49.5127C47.3872 49.7458 47.6841 49.9045 48.0074 49.9688C48.3307 50.0331 48.6659 50.0001 48.9704 49.874C49.2749 49.7478 49.5352 49.5342 49.7184 49.2601C49.9015 48.986 49.9993 48.6638 49.9993 48.3342C49.9993 47.8922 49.8237 47.4682 49.5111 47.1557C49.1985 46.8431 48.7746 46.6675 48.3326 46.6675ZM56.6659 55.0008C56.3363 55.0008 56.0141 55.0986 55.74 55.2817C55.4659 55.4649 55.2523 55.7252 55.1261 56.0297C55 56.3343 54.967 56.6694 55.0313 56.9927C55.0956 57.316 55.2543 57.6129 55.4874 57.846C55.7205 58.0791 56.0175 58.2378 56.3408 58.3022C56.6641 58.3665 56.9992 58.3335 57.3037 58.2073C57.6083 58.0812 57.8686 57.8675 58.0517 57.5935C58.2348 57.3194 58.3326 56.9971 58.3326 56.6675C58.3326 56.2255 58.157 55.8016 57.8444 55.489C57.5319 55.1764 57.108 55.0008 56.6659 55.0008ZM39.9993 36.6675C40.3289 36.6675 40.6511 36.5698 40.9252 36.3866C41.1993 36.2035 41.4129 35.9432 41.5391 35.6387C41.6652 35.3341 41.6982 34.999 41.6339 34.6757C41.5696 34.3524 41.4109 34.0554 41.1778 33.8223C40.9447 33.5892 40.6477 33.4305 40.3244 33.3662C40.0011 33.3019 39.666 33.3349 39.3614 33.461C39.0569 33.5872 38.7966 33.8008 38.6135 34.0749C38.4303 34.349 38.3326 34.6712 38.3326 35.0008C38.3326 35.4429 38.5082 35.8668 38.8207 36.1794C39.1333 36.4919 39.5572 36.6675 39.9993 36.6675ZM36.6659 40.0008C36.6659 39.6712 36.5682 39.349 36.385 39.0749C36.2019 38.8008 35.9416 38.5872 35.6371 38.461C35.3325 38.3349 34.9974 38.3019 34.6741 38.3662C34.3508 38.4305 34.0538 38.5892 33.8207 38.8223C33.5877 39.0554 33.4289 39.3524 33.3646 39.6757C33.3003 39.999 33.3333 40.3341 33.4595 40.6387C33.5856 40.9432 33.7992 41.2035 34.0733 41.3866C34.3474 41.5698 34.6696 41.6675 34.9993 41.6675C35.4413 41.6675 35.8652 41.4919 36.1778 41.1794C36.4903 40.8668 36.6659 40.4429 36.6659 40.0008ZM36.2993 51.3775C36.5755 51.0329 36.7036 50.5926 36.6555 50.1536C36.6074 49.7145 36.3869 49.3125 36.0426 49.0358C35.8964 48.9168 35.7568 48.7899 35.6243 48.6558L29.7726 42.7242C28.8431 41.779 28.3263 40.5039 28.3354 39.1784C28.3444 37.8528 28.8786 36.5849 29.8209 35.6525L35.7543 29.8008C36.6876 28.8753 37.9498 28.3575 39.2643 28.3608H39.3009C39.9577 28.3636 40.6074 28.4966 41.2124 28.7521C41.8175 29.0075 42.3659 29.3804 42.8259 29.8492L48.6659 35.7758C48.7609 35.8725 48.8509 35.9708 48.9376 36.0742C49.2223 36.4139 49.6302 36.6266 50.0717 36.6655C50.5132 36.7044 50.9521 36.5663 51.2918 36.2817C51.6315 35.997 51.8442 35.5891 51.8831 35.1476C51.922 34.7061 51.7839 34.2672 51.4993 33.9275C51.3609 33.7608 51.2159 33.6042 51.0559 33.4408L45.1993 27.5092C44.4308 26.73 43.5164 26.1098 42.5083 25.684C41.5001 25.2582 40.418 25.0351 39.3237 25.0275C38.2293 25.02 37.1442 25.228 36.1303 25.6398C35.1163 26.0516 34.1934 26.659 33.4143 27.4275L27.4809 33.2792C25.9101 34.8327 25.0194 36.9456 25.0041 39.1548C24.9888 41.364 25.8501 43.4891 27.3993 45.0642L33.2509 51.0008C33.4733 51.2261 33.7087 51.4381 33.9559 51.6358C34.1265 51.773 34.3225 51.8752 34.5326 51.9366C34.7427 51.998 34.9628 52.0174 35.1804 51.9937C35.398 51.97 35.6088 51.9037 35.8008 51.7986C35.9928 51.6934 36.1621 51.5515 36.2993 51.3808V51.3775Z" fill="#006AFF"></path></g><defs><clipPath id="clip0_1_43691"><rect width="40" height="40" fill="white" transform="translate(25 25)"></rect></clipPath></defs></svg>