<svg xmlns="http://www.w3.org/2000/svg" width="20" height="20" viewBox="0 0 20 20" fill="none"><g clip-path="url(#clip0_297_51254)"><path d="M18.78 5.38667C18.1933 4.8 17.4625 4.41167 16.6667 4.25083V2.5C16.6667 1.12167 15.545 0 14.1667 0C12.7883 0 11.6667 1.12167 11.6667 2.5V4.16667H8.33333V2.5C8.33333 1.12167 7.21167 0 5.83333 0C4.455 0 3.33333 1.12167 3.33333 2.5V4.25083C2.53833 4.41167 1.80667 4.8 1.22 5.38667C0.433333 6.17333 0 7.22 0 8.33333V15.4167C0 17.9442 2.05583 20 4.58333 20C7.06583 20 9.08833 18.015 9.16 15.55C9.16 15.5383 9.16667 15.5283 9.16667 15.5167V10.8333C9.16667 10.3742 9.54083 10 10 10C10.4592 10 10.8333 10.3742 10.8333 10.8333V15.5167C10.8333 15.5283 10.84 15.5383 10.84 15.55C10.9117 18.015 12.9342 20 15.4167 20C17.9442 20 20 17.9442 20 15.4167V8.33333C20 7.22083 19.5667 6.17417 18.78 5.38667ZM13.3333 2.5C13.3333 2.04083 13.7075 1.66667 14.1667 1.66667C14.6258 1.66667 15 2.04083 15 2.5V4.16667H13.3333V2.5ZM5.83333 1.66667C6.2925 1.66667 6.66667 2.04083 6.66667 2.5V4.16667H5V2.5C5 2.04083 5.37417 1.66667 5.83333 1.66667ZM4.58333 18.3333C2.975 18.3333 1.66667 17.025 1.66667 15.4167C1.66667 13.8083 2.975 12.5 4.58333 12.5C6.19167 12.5 7.5 13.8083 7.5 15.4167C7.5 17.025 6.19167 18.3333 4.58333 18.3333ZM10 8.33333C8.62167 8.33333 7.5 9.455 7.5 10.8333V11.8842C6.70667 11.2283 5.69 10.8333 4.58333 10.8333C3.47667 10.8333 2.46 11.2283 1.66667 11.8842V8.33333C1.66667 7.66583 1.92667 7.0375 2.39917 6.56583C2.87083 6.09417 3.49833 5.83417 4.16667 5.83417H15.8342C16.5017 5.83417 17.1292 6.09417 17.6017 6.56583C18.0742 7.0375 18.3333 7.66583 18.3333 8.33333V11.8842C17.54 11.2283 16.5233 10.8333 15.4167 10.8333C14.31 10.8333 13.2933 11.2283 12.5 11.8842V10.8333C12.5 9.455 11.3783 8.33333 10 8.33333ZM15.4167 18.3333C13.8083 18.3333 12.5 17.025 12.5 15.4167C12.5 13.8083 13.8083 12.5 15.4167 12.5C17.025 12.5 18.3333 13.8083 18.3333 15.4167C18.3333 17.025 17.025 18.3333 15.4167 18.3333Z" fill="#006AFF"></path></g><defs><clipPath id="clip0_297_51254"><rect width="20" height="20" fill="white"></rect></clipPath></defs></svg>